<?xml version="1.0" encoding="utf-8"?>
<svg xmlns="http://www.w3.org/2000/svg" xmlns:xlink="http://www.w3.org/1999/xlink" width="600" height="400" viewBox="0 0 2400 1600">
<defs>
  <clipPath id="clip360">
    <rect x="0" y="0" width="2400" height="1600"/>
  </clipPath>
</defs>
<path clip-path="url(#clip360)" d="M0 1600 L2400 1600 L2400 0 L0 0  Z" fill="#ffffff" fill-rule="evenodd" fill-opacity="1"/>
<defs>
  <clipPath id="clip361">
    <rect x="480" y="0" width="1681" height="1600"/>
  </clipPath>
</defs>
<path clip-path="url(#clip360)" d="M193.936 1486.45 L2352.76 1486.45 L2352.76 47.2441 L193.936 47.2441  Z" fill="#ffffff" fill-rule="evenodd" fill-opacity="1"/>
<defs>
  <clipPath id="clip362">
    <rect x="193" y="47" width="2160" height="1440"/>
  </clipPath>
</defs>
<polyline clip-path="url(#clip362)" style="stroke:#000000; stroke-linecap:round; stroke-linejoin:round; stroke-width:2; stroke-opacity:0.1; fill:none" points="193.936,1486.45 193.936,47.2441 "/>
<polyline clip-path="url(#clip362)" style="stroke:#000000; stroke-linecap:round; stroke-linejoin:round; stroke-width:2; stroke-opacity:0.1; fill:none" points="733.641,1486.45 733.641,47.2441 "/>
<polyline clip-path="url(#clip362)" style="stroke:#000000; stroke-linecap:round; stroke-linejoin:round; stroke-width:2; stroke-opacity:0.1; fill:none" points="1273.35,1486.45 1273.35,47.2441 "/>
<polyline clip-path="url(#clip362)" style="stroke:#000000; stroke-linecap:round; stroke-linejoin:round; stroke-width:2; stroke-opacity:0.1; fill:none" points="1813.05,1486.45 1813.05,47.2441 "/>
<polyline clip-path="url(#clip362)" style="stroke:#000000; stroke-linecap:round; stroke-linejoin:round; stroke-width:2; stroke-opacity:0.1; fill:none" points="2352.76,1486.45 2352.76,47.2441 "/>
<polyline clip-path="url(#clip362)" style="stroke:#000000; stroke-linecap:round; stroke-linejoin:round; stroke-width:2; stroke-opacity:0.1; fill:none" points="193.936,1486.45 2352.76,1486.45 "/>
<polyline clip-path="url(#clip362)" style="stroke:#000000; stroke-linecap:round; stroke-linejoin:round; stroke-width:2; stroke-opacity:0.1; fill:none" points="193.936,1126.65 2352.76,1126.65 "/>
<polyline clip-path="url(#clip362)" style="stroke:#000000; stroke-linecap:round; stroke-linejoin:round; stroke-width:2; stroke-opacity:0.1; fill:none" points="193.936,766.846 2352.76,766.846 "/>
<polyline clip-path="url(#clip362)" style="stroke:#000000; stroke-linecap:round; stroke-linejoin:round; stroke-width:2; stroke-opacity:0.1; fill:none" points="193.936,407.045 2352.76,407.045 "/>
<polyline clip-path="url(#clip362)" style="stroke:#000000; stroke-linecap:round; stroke-linejoin:round; stroke-width:2; stroke-opacity:0.1; fill:none" points="193.936,47.2441 2352.76,47.2441 "/>
<polyline clip-path="url(#clip360)" style="stroke:#000000; stroke-linecap:round; stroke-linejoin:round; stroke-width:4; stroke-opacity:1; fill:none" points="193.936,1486.45 2352.76,1486.45 "/>
<polyline clip-path="url(#clip360)" style="stroke:#000000; stroke-linecap:round; stroke-linejoin:round; stroke-width:4; stroke-opacity:1; fill:none" points="193.936,1486.45 193.936,1467.55 "/>
<polyline clip-path="url(#clip360)" style="stroke:#000000; stroke-linecap:round; stroke-linejoin:round; stroke-width:4; stroke-opacity:1; fill:none" points="733.641,1486.45 733.641,1467.55 "/>
<polyline clip-path="url(#clip360)" style="stroke:#000000; stroke-linecap:round; stroke-linejoin:round; stroke-width:4; stroke-opacity:1; fill:none" points="1273.35,1486.45 1273.35,1467.55 "/>
<polyline clip-path="url(#clip360)" style="stroke:#000000; stroke-linecap:round; stroke-linejoin:round; stroke-width:4; stroke-opacity:1; fill:none" points="1813.05,1486.45 1813.05,1467.55 "/>
<polyline clip-path="url(#clip360)" style="stroke:#000000; stroke-linecap:round; stroke-linejoin:round; stroke-width:4; stroke-opacity:1; fill:none" points="2352.76,1486.45 2352.76,1467.55 "/>
<path clip-path="url(#clip360)" d="M140.464 1532.02 L170.14 1532.02 L170.14 1535.95 L140.464 1535.95 L140.464 1532.02 Z" fill="#000000" fill-rule="nonzero" fill-opacity="1" /><path clip-path="url(#clip360)" d="M180.279 1514.29 L198.635 1514.29 L198.635 1518.22 L184.561 1518.22 L184.561 1526.7 Q185.58 1526.35 186.598 1526.19 Q187.617 1526 188.635 1526 Q194.422 1526 197.802 1529.17 Q201.181 1532.34 201.181 1537.76 Q201.181 1543.34 197.709 1546.44 Q194.237 1549.52 187.918 1549.52 Q185.742 1549.52 183.473 1549.15 Q181.228 1548.78 178.82 1548.04 L178.82 1543.34 Q180.904 1544.47 183.126 1545.03 Q185.348 1545.58 187.825 1545.58 Q191.83 1545.58 194.167 1543.48 Q196.505 1541.37 196.505 1537.76 Q196.505 1534.15 194.167 1532.04 Q191.83 1529.94 187.825 1529.94 Q185.95 1529.94 184.075 1530.35 Q182.223 1530.77 180.279 1531.65 L180.279 1514.29 Z" fill="#000000" fill-rule="nonzero" fill-opacity="1" /><path clip-path="url(#clip360)" d="M210.394 1542.97 L215.278 1542.97 L215.278 1548.85 L210.394 1548.85 L210.394 1542.97 Z" fill="#000000" fill-rule="nonzero" fill-opacity="1" /><path clip-path="url(#clip360)" d="M235.464 1517.37 Q231.852 1517.37 230.024 1520.93 Q228.218 1524.47 228.218 1531.6 Q228.218 1538.71 230.024 1542.27 Q231.852 1545.82 235.464 1545.82 Q239.098 1545.82 240.903 1542.27 Q242.732 1538.71 242.732 1531.6 Q242.732 1524.47 240.903 1520.93 Q239.098 1517.37 235.464 1517.37 M235.464 1513.66 Q241.274 1513.66 244.329 1518.27 Q247.408 1522.85 247.408 1531.6 Q247.408 1540.33 244.329 1544.94 Q241.274 1549.52 235.464 1549.52 Q229.653 1549.52 226.575 1544.94 Q223.519 1540.33 223.519 1531.6 Q223.519 1522.85 226.575 1518.27 Q229.653 1513.66 235.464 1513.66 Z" fill="#000000" fill-rule="nonzero" fill-opacity="1" /><path clip-path="url(#clip360)" d="M680.667 1532.02 L710.342 1532.02 L710.342 1535.95 L680.667 1535.95 L680.667 1532.02 Z" fill="#000000" fill-rule="nonzero" fill-opacity="1" /><path clip-path="url(#clip360)" d="M724.463 1544.91 L740.782 1544.91 L740.782 1548.85 L718.838 1548.85 L718.838 1544.91 Q721.5 1542.16 726.083 1537.53 Q730.69 1532.88 731.87 1531.53 Q734.116 1529.01 734.995 1527.27 Q735.898 1525.51 735.898 1523.82 Q735.898 1521.07 733.953 1519.33 Q732.032 1517.6 728.93 1517.6 Q726.731 1517.6 724.278 1518.36 Q721.847 1519.13 719.069 1520.68 L719.069 1515.95 Q721.893 1514.82 724.347 1514.24 Q726.801 1513.66 728.838 1513.66 Q734.208 1513.66 737.403 1516.35 Q740.597 1519.03 740.597 1523.52 Q740.597 1525.65 739.787 1527.57 Q739 1529.47 736.893 1532.07 Q736.315 1532.74 733.213 1535.95 Q730.111 1539.15 724.463 1544.91 Z" fill="#000000" fill-rule="nonzero" fill-opacity="1" /><path clip-path="url(#clip360)" d="M750.597 1542.97 L755.481 1542.97 L755.481 1548.85 L750.597 1548.85 L750.597 1542.97 Z" fill="#000000" fill-rule="nonzero" fill-opacity="1" /><path clip-path="url(#clip360)" d="M765.713 1514.29 L784.069 1514.29 L784.069 1518.22 L769.995 1518.22 L769.995 1526.7 Q771.013 1526.35 772.032 1526.19 Q773.05 1526 774.069 1526 Q779.856 1526 783.236 1529.17 Q786.615 1532.34 786.615 1537.76 Q786.615 1543.34 783.143 1546.44 Q779.671 1549.52 773.351 1549.52 Q771.175 1549.52 768.907 1549.15 Q766.662 1548.78 764.254 1548.04 L764.254 1543.34 Q766.338 1544.47 768.56 1545.03 Q770.782 1545.58 773.259 1545.58 Q777.263 1545.58 779.601 1543.48 Q781.939 1541.37 781.939 1537.76 Q781.939 1534.15 779.601 1532.04 Q777.263 1529.94 773.259 1529.94 Q771.384 1529.94 769.509 1530.35 Q767.657 1530.77 765.713 1531.65 L765.713 1514.29 Z" fill="#000000" fill-rule="nonzero" fill-opacity="1" /><path clip-path="url(#clip360)" d="M1250.73 1517.37 Q1247.12 1517.37 1245.29 1520.93 Q1243.49 1524.47 1243.49 1531.6 Q1243.49 1538.71 1245.29 1542.27 Q1247.12 1545.82 1250.73 1545.82 Q1254.36 1545.82 1256.17 1542.27 Q1258 1538.71 1258 1531.6 Q1258 1524.47 1256.17 1520.93 Q1254.36 1517.37 1250.73 1517.37 M1250.73 1513.66 Q1256.54 1513.66 1259.6 1518.27 Q1262.67 1522.85 1262.67 1531.6 Q1262.67 1540.33 1259.6 1544.94 Q1256.54 1549.52 1250.73 1549.52 Q1244.92 1549.52 1241.84 1544.94 Q1238.79 1540.33 1238.79 1531.6 Q1238.79 1522.85 1241.84 1518.27 Q1244.92 1513.66 1250.73 1513.66 Z" fill="#000000" fill-rule="nonzero" fill-opacity="1" /><path clip-path="url(#clip360)" d="M1270.89 1542.97 L1275.78 1542.97 L1275.78 1548.85 L1270.89 1548.85 L1270.89 1542.97 Z" fill="#000000" fill-rule="nonzero" fill-opacity="1" /><path clip-path="url(#clip360)" d="M1295.96 1517.37 Q1292.35 1517.37 1290.52 1520.93 Q1288.72 1524.47 1288.72 1531.6 Q1288.72 1538.71 1290.52 1542.27 Q1292.35 1545.82 1295.96 1545.82 Q1299.6 1545.82 1301.4 1542.27 Q1303.23 1538.71 1303.23 1531.6 Q1303.23 1524.47 1301.4 1520.93 Q1299.6 1517.37 1295.96 1517.37 M1295.96 1513.66 Q1301.77 1513.66 1304.83 1518.27 Q1307.91 1522.85 1307.91 1531.6 Q1307.91 1540.33 1304.83 1544.94 Q1301.77 1549.52 1295.96 1549.52 Q1290.15 1549.52 1287.07 1544.94 Q1284.02 1540.33 1284.02 1531.6 Q1284.02 1522.85 1287.07 1518.27 Q1290.15 1513.66 1295.96 1513.66 Z" fill="#000000" fill-rule="nonzero" fill-opacity="1" /><path clip-path="url(#clip360)" d="M1784.79 1544.91 L1801.11 1544.91 L1801.11 1548.85 L1779.16 1548.85 L1779.16 1544.91 Q1781.82 1542.16 1786.41 1537.53 Q1791.01 1532.88 1792.19 1531.53 Q1794.44 1529.01 1795.32 1527.27 Q1796.22 1525.51 1796.22 1523.82 Q1796.22 1521.07 1794.28 1519.33 Q1792.36 1517.6 1789.25 1517.6 Q1787.06 1517.6 1784.6 1518.36 Q1782.17 1519.13 1779.39 1520.68 L1779.39 1515.95 Q1782.22 1514.82 1784.67 1514.24 Q1787.13 1513.66 1789.16 1513.66 Q1794.53 1513.66 1797.73 1516.35 Q1800.92 1519.03 1800.92 1523.52 Q1800.92 1525.65 1800.11 1527.57 Q1799.32 1529.47 1797.22 1532.07 Q1796.64 1532.74 1793.54 1535.95 Q1790.44 1539.15 1784.79 1544.91 Z" fill="#000000" fill-rule="nonzero" fill-opacity="1" /><path clip-path="url(#clip360)" d="M1810.92 1542.97 L1815.81 1542.97 L1815.81 1548.85 L1810.92 1548.85 L1810.92 1542.97 Z" fill="#000000" fill-rule="nonzero" fill-opacity="1" /><path clip-path="url(#clip360)" d="M1826.04 1514.29 L1844.39 1514.29 L1844.39 1518.22 L1830.32 1518.22 L1830.32 1526.7 Q1831.34 1526.35 1832.36 1526.19 Q1833.37 1526 1834.39 1526 Q1840.18 1526 1843.56 1529.17 Q1846.94 1532.34 1846.94 1537.76 Q1846.94 1543.34 1843.47 1546.44 Q1840 1549.52 1833.68 1549.52 Q1831.5 1549.52 1829.23 1549.15 Q1826.99 1548.78 1824.58 1548.04 L1824.58 1543.34 Q1826.66 1544.47 1828.88 1545.03 Q1831.11 1545.58 1833.58 1545.58 Q1837.59 1545.58 1839.93 1543.48 Q1842.26 1541.37 1842.26 1537.76 Q1842.26 1534.15 1839.93 1532.04 Q1837.59 1529.94 1833.58 1529.94 Q1831.71 1529.94 1829.83 1530.35 Q1827.98 1530.77 1826.04 1531.65 L1826.04 1514.29 Z" fill="#000000" fill-rule="nonzero" fill-opacity="1" /><path clip-path="url(#clip360)" d="M2319.92 1514.29 L2338.28 1514.29 L2338.28 1518.22 L2324.2 1518.22 L2324.2 1526.7 Q2325.22 1526.35 2326.24 1526.19 Q2327.26 1526 2328.28 1526 Q2334.06 1526 2337.44 1529.17 Q2340.82 1532.34 2340.82 1537.76 Q2340.82 1543.34 2337.35 1546.44 Q2333.88 1549.52 2327.56 1549.52 Q2325.38 1549.52 2323.11 1549.15 Q2320.87 1548.78 2318.46 1548.04 L2318.46 1543.34 Q2320.55 1544.47 2322.77 1545.03 Q2324.99 1545.58 2327.47 1545.58 Q2331.47 1545.58 2333.81 1543.48 Q2336.15 1541.37 2336.15 1537.76 Q2336.15 1534.15 2333.81 1532.04 Q2331.47 1529.94 2327.47 1529.94 Q2325.59 1529.94 2323.72 1530.35 Q2321.86 1530.77 2319.92 1531.65 L2319.92 1514.29 Z" fill="#000000" fill-rule="nonzero" fill-opacity="1" /><path clip-path="url(#clip360)" d="M2350.04 1542.97 L2354.92 1542.97 L2354.92 1548.85 L2350.04 1548.85 L2350.04 1542.97 Z" fill="#000000" fill-rule="nonzero" fill-opacity="1" /><path clip-path="url(#clip360)" d="M2375.11 1517.37 Q2371.49 1517.37 2369.67 1520.93 Q2367.86 1524.47 2367.86 1531.6 Q2367.86 1538.71 2369.67 1542.27 Q2371.49 1545.82 2375.11 1545.82 Q2378.74 1545.82 2380.55 1542.27 Q2382.37 1538.71 2382.37 1531.6 Q2382.37 1524.47 2380.55 1520.93 Q2378.74 1517.37 2375.11 1517.37 M2375.11 1513.66 Q2380.92 1513.66 2383.97 1518.27 Q2387.05 1522.85 2387.05 1531.6 Q2387.05 1540.33 2383.97 1544.94 Q2380.92 1549.52 2375.11 1549.52 Q2369.3 1549.52 2366.22 1544.94 Q2363.16 1540.33 2363.16 1531.6 Q2363.16 1522.85 2366.22 1518.27 Q2369.3 1513.66 2375.11 1513.66 Z" fill="#000000" fill-rule="nonzero" fill-opacity="1" /><polyline clip-path="url(#clip360)" style="stroke:#000000; stroke-linecap:round; stroke-linejoin:round; stroke-width:4; stroke-opacity:1; fill:none" points="193.936,1486.45 193.936,47.2441 "/>
<polyline clip-path="url(#clip360)" style="stroke:#000000; stroke-linecap:round; stroke-linejoin:round; stroke-width:4; stroke-opacity:1; fill:none" points="193.936,1486.45 212.834,1486.45 "/>
<polyline clip-path="url(#clip360)" style="stroke:#000000; stroke-linecap:round; stroke-linejoin:round; stroke-width:4; stroke-opacity:1; fill:none" points="193.936,1126.65 212.834,1126.65 "/>
<polyline clip-path="url(#clip360)" style="stroke:#000000; stroke-linecap:round; stroke-linejoin:round; stroke-width:4; stroke-opacity:1; fill:none" points="193.936,766.846 212.834,766.846 "/>
<polyline clip-path="url(#clip360)" style="stroke:#000000; stroke-linecap:round; stroke-linejoin:round; stroke-width:4; stroke-opacity:1; fill:none" points="193.936,407.045 212.834,407.045 "/>
<polyline clip-path="url(#clip360)" style="stroke:#000000; stroke-linecap:round; stroke-linejoin:round; stroke-width:4; stroke-opacity:1; fill:none" points="193.936,47.2441 212.834,47.2441 "/>
<path clip-path="url(#clip360)" d="M50.9921 1486.9 L80.6679 1486.9 L80.6679 1490.83 L50.9921 1490.83 L50.9921 1486.9 Z" fill="#000000" fill-rule="nonzero" fill-opacity="1" /><path clip-path="url(#clip360)" d="M90.8067 1469.17 L109.163 1469.17 L109.163 1473.1 L95.0891 1473.1 L95.0891 1481.58 Q96.1076 1481.23 97.1261 1481.07 Q98.1447 1480.88 99.1632 1480.88 Q104.95 1480.88 108.33 1484.05 Q111.709 1487.22 111.709 1492.64 Q111.709 1498.22 108.237 1501.32 Q104.765 1504.4 98.4456 1504.4 Q96.2697 1504.4 94.0012 1504.03 Q91.7558 1503.66 89.3484 1502.92 L89.3484 1498.22 Q91.4317 1499.35 93.6539 1499.91 Q95.8761 1500.46 98.353 1500.46 Q102.358 1500.46 104.696 1498.36 Q107.033 1496.25 107.033 1492.64 Q107.033 1489.03 104.696 1486.92 Q102.358 1484.82 98.353 1484.82 Q96.478 1484.82 94.603 1485.23 Q92.7512 1485.65 90.8067 1486.53 L90.8067 1469.17 Z" fill="#000000" fill-rule="nonzero" fill-opacity="1" /><path clip-path="url(#clip360)" d="M120.922 1497.85 L125.807 1497.85 L125.807 1503.73 L120.922 1503.73 L120.922 1497.85 Z" fill="#000000" fill-rule="nonzero" fill-opacity="1" /><path clip-path="url(#clip360)" d="M145.992 1472.25 Q142.381 1472.25 140.552 1475.81 Q138.746 1479.35 138.746 1486.48 Q138.746 1493.59 140.552 1497.15 Q142.381 1500.7 145.992 1500.7 Q149.626 1500.7 151.431 1497.15 Q153.26 1493.59 153.26 1486.48 Q153.26 1479.35 151.431 1475.81 Q149.626 1472.25 145.992 1472.25 M145.992 1468.54 Q151.802 1468.54 154.857 1473.15 Q157.936 1477.73 157.936 1486.48 Q157.936 1495.21 154.857 1499.82 Q151.802 1504.4 145.992 1504.4 Q140.181 1504.4 137.103 1499.82 Q134.047 1495.21 134.047 1486.48 Q134.047 1477.73 137.103 1473.15 Q140.181 1468.54 145.992 1468.54 Z" fill="#000000" fill-rule="nonzero" fill-opacity="1" /><path clip-path="url(#clip360)" d="M51.9875 1127.1 L81.6633 1127.1 L81.6633 1131.03 L51.9875 1131.03 L51.9875 1127.1 Z" fill="#000000" fill-rule="nonzero" fill-opacity="1" /><path clip-path="url(#clip360)" d="M95.7836 1139.99 L112.103 1139.99 L112.103 1143.93 L90.1586 1143.93 L90.1586 1139.99 Q92.8206 1137.24 97.4039 1132.61 Q102.01 1127.95 103.191 1126.61 Q105.436 1124.09 106.316 1122.35 Q107.219 1120.59 107.219 1118.9 Q107.219 1116.15 105.274 1114.41 Q103.353 1112.68 100.251 1112.68 Q98.0521 1112.68 95.5984 1113.44 Q93.1678 1114.2 90.3901 1115.76 L90.3901 1111.03 Q93.2141 1109.9 95.6678 1109.32 Q98.1215 1108.74 100.159 1108.74 Q105.529 1108.74 108.723 1111.43 Q111.918 1114.11 111.918 1118.6 Q111.918 1120.73 111.108 1122.65 Q110.321 1124.55 108.214 1127.14 Q107.635 1127.82 104.534 1131.03 Q101.432 1134.23 95.7836 1139.99 Z" fill="#000000" fill-rule="nonzero" fill-opacity="1" /><path clip-path="url(#clip360)" d="M121.918 1138.05 L126.802 1138.05 L126.802 1143.93 L121.918 1143.93 L121.918 1138.05 Z" fill="#000000" fill-rule="nonzero" fill-opacity="1" /><path clip-path="url(#clip360)" d="M137.033 1109.37 L155.39 1109.37 L155.39 1113.3 L141.316 1113.3 L141.316 1121.77 Q142.334 1121.43 143.353 1121.27 Q144.371 1121.08 145.39 1121.08 Q151.177 1121.08 154.556 1124.25 Q157.936 1127.42 157.936 1132.84 Q157.936 1138.42 154.464 1141.52 Q150.992 1144.6 144.672 1144.6 Q142.496 1144.6 140.228 1144.23 Q137.982 1143.86 135.575 1143.12 L135.575 1138.42 Q137.658 1139.55 139.881 1140.11 Q142.103 1140.66 144.58 1140.66 Q148.584 1140.66 150.922 1138.56 Q153.26 1136.45 153.26 1132.84 Q153.26 1129.23 150.922 1127.12 Q148.584 1125.01 144.58 1125.01 Q142.705 1125.01 140.83 1125.43 Q138.978 1125.85 137.033 1126.73 L137.033 1109.37 Z" fill="#000000" fill-rule="nonzero" fill-opacity="1" /><path clip-path="url(#clip360)" d="M100.76 752.645 Q97.1493 752.645 95.3206 756.209 Q93.515 759.751 93.515 766.881 Q93.515 773.987 95.3206 777.552 Q97.1493 781.094 100.76 781.094 Q104.395 781.094 106.2 777.552 Q108.029 773.987 108.029 766.881 Q108.029 759.751 106.2 756.209 Q104.395 752.645 100.76 752.645 M100.76 748.941 Q106.571 748.941 109.626 753.547 Q112.705 758.131 112.705 766.881 Q112.705 775.608 109.626 780.214 Q106.571 784.797 100.76 784.797 Q94.9502 784.797 91.8715 780.214 Q88.816 775.608 88.816 766.881 Q88.816 758.131 91.8715 753.547 Q94.9502 748.941 100.76 748.941 Z" fill="#000000" fill-rule="nonzero" fill-opacity="1" /><path clip-path="url(#clip360)" d="M120.922 778.246 L125.807 778.246 L125.807 784.126 L120.922 784.126 L120.922 778.246 Z" fill="#000000" fill-rule="nonzero" fill-opacity="1" /><path clip-path="url(#clip360)" d="M145.992 752.645 Q142.381 752.645 140.552 756.209 Q138.746 759.751 138.746 766.881 Q138.746 773.987 140.552 777.552 Q142.381 781.094 145.992 781.094 Q149.626 781.094 151.431 777.552 Q153.26 773.987 153.26 766.881 Q153.26 759.751 151.431 756.209 Q149.626 752.645 145.992 752.645 M145.992 748.941 Q151.802 748.941 154.857 753.547 Q157.936 758.131 157.936 766.881 Q157.936 775.608 154.857 780.214 Q151.802 784.797 145.992 784.797 Q140.181 784.797 137.103 780.214 Q134.047 775.608 134.047 766.881 Q134.047 758.131 137.103 753.547 Q140.181 748.941 145.992 748.941 Z" fill="#000000" fill-rule="nonzero" fill-opacity="1" /><path clip-path="url(#clip360)" d="M95.7836 420.39 L112.103 420.39 L112.103 424.325 L90.1586 424.325 L90.1586 420.39 Q92.8206 417.635 97.4039 413.006 Q102.01 408.353 103.191 407.01 Q105.436 404.487 106.316 402.751 Q107.219 400.992 107.219 399.302 Q107.219 396.547 105.274 394.811 Q103.353 393.075 100.251 393.075 Q98.0521 393.075 95.5984 393.839 Q93.1678 394.603 90.3901 396.154 L90.3901 391.432 Q93.2141 390.297 95.6678 389.719 Q98.1215 389.14 100.159 389.14 Q105.529 389.14 108.723 391.825 Q111.918 394.51 111.918 399.001 Q111.918 401.131 111.108 403.052 Q110.321 404.95 108.214 407.543 Q107.635 408.214 104.534 411.432 Q101.432 414.626 95.7836 420.39 Z" fill="#000000" fill-rule="nonzero" fill-opacity="1" /><path clip-path="url(#clip360)" d="M121.918 418.445 L126.802 418.445 L126.802 424.325 L121.918 424.325 L121.918 418.445 Z" fill="#000000" fill-rule="nonzero" fill-opacity="1" /><path clip-path="url(#clip360)" d="M137.033 389.765 L155.39 389.765 L155.39 393.7 L141.316 393.7 L141.316 402.172 Q142.334 401.825 143.353 401.663 Q144.371 401.478 145.39 401.478 Q151.177 401.478 154.556 404.649 Q157.936 407.82 157.936 413.237 Q157.936 418.816 154.464 421.918 Q150.992 424.996 144.672 424.996 Q142.496 424.996 140.228 424.626 Q137.982 424.256 135.575 423.515 L135.575 418.816 Q137.658 419.95 139.881 420.506 Q142.103 421.061 144.58 421.061 Q148.584 421.061 150.922 418.955 Q153.26 416.848 153.26 413.237 Q153.26 409.626 150.922 407.52 Q148.584 405.413 144.58 405.413 Q142.705 405.413 140.83 405.83 Q138.978 406.246 137.033 407.126 L137.033 389.765 Z" fill="#000000" fill-rule="nonzero" fill-opacity="1" /><path clip-path="url(#clip360)" d="M90.8067 29.9641 L109.163 29.9641 L109.163 33.8993 L95.0891 33.8993 L95.0891 42.3714 Q96.1076 42.0242 97.1261 41.8622 Q98.1447 41.677 99.1632 41.677 Q104.95 41.677 108.33 44.8483 Q111.709 48.0196 111.709 53.4362 Q111.709 59.0149 108.237 62.1167 Q104.765 65.1954 98.4456 65.1954 Q96.2697 65.1954 94.0012 64.825 Q91.7558 64.4547 89.3484 63.7139 L89.3484 59.0149 Q91.4317 60.1491 93.6539 60.7047 Q95.8761 61.2602 98.353 61.2602 Q102.358 61.2602 104.696 59.1538 Q107.033 57.0473 107.033 53.4362 Q107.033 49.8251 104.696 47.7186 Q102.358 45.6122 98.353 45.6122 Q96.478 45.6122 94.603 46.0288 Q92.7512 46.4455 90.8067 47.3251 L90.8067 29.9641 Z" fill="#000000" fill-rule="nonzero" fill-opacity="1" /><path clip-path="url(#clip360)" d="M120.922 58.6445 L125.807 58.6445 L125.807 64.5241 L120.922 64.5241 L120.922 58.6445 Z" fill="#000000" fill-rule="nonzero" fill-opacity="1" /><path clip-path="url(#clip360)" d="M145.992 33.0428 Q142.381 33.0428 140.552 36.6076 Q138.746 40.1492 138.746 47.2788 Q138.746 54.3853 140.552 57.9501 Q142.381 61.4917 145.992 61.4917 Q149.626 61.4917 151.431 57.9501 Q153.26 54.3853 153.26 47.2788 Q153.26 40.1492 151.431 36.6076 Q149.626 33.0428 145.992 33.0428 M145.992 29.3391 Q151.802 29.3391 154.857 33.9456 Q157.936 38.5289 157.936 47.2788 Q157.936 56.0056 154.857 60.6121 Q151.802 65.1954 145.992 65.1954 Q140.181 65.1954 137.103 60.6121 Q134.047 56.0056 134.047 47.2788 Q134.047 38.5289 137.103 33.9456 Q140.181 29.3391 145.992 29.3391 Z" fill="#000000" fill-rule="nonzero" fill-opacity="1" /><polyline clip-path="url(#clip362)" style="stroke:#000000; stroke-linecap:round; stroke-linejoin:round; stroke-width:4; stroke-opacity:0.5; fill:none" points="193.936,-218.821 196.097,-217.325 198.258,-215.83 200.419,-214.335 202.58,-212.839 204.741,-211.344 206.902,-209.848 209.063,-208.353 211.224,-206.858 213.385,-205.362 215.546,-203.867 217.707,-202.372 219.868,-200.876 222.029,-199.381 224.19,-197.885 226.351,-196.39 228.512,-194.895 230.673,-193.399 232.834,-191.904 234.995,-190.409 237.156,-188.913 239.317,-187.418 241.478,-185.922 243.639,-184.427 245.8,-182.932 247.961,-181.436 250.122,-179.941 252.282,-178.446 254.443,-176.95 256.604,-175.455 258.765,-173.959 260.926,-172.464 263.087,-170.969 265.248,-169.473 267.409,-167.978 269.57,-166.483 271.731,-164.987 273.892,-163.492 276.053,-161.996 278.214,-160.501 280.375,-159.006 282.536,-157.51 284.697,-156.015 286.858,-154.52 289.019,-153.024 291.18,-151.529 293.341,-150.033 295.502,-148.538 297.663,-147.043 299.824,-145.547 301.985,-144.052 304.146,-142.557 306.307,-141.061 308.468,-139.566 310.629,-138.07 312.79,-136.575 314.951,-135.08 317.112,-133.584 319.273,-132.089 321.434,-130.594 323.595,-129.098 325.756,-127.603 327.917,-126.107 330.078,-124.612 332.239,-123.117 334.4,-121.621 336.561,-120.126 338.722,-118.631 340.883,-117.135 343.044,-115.64 345.205,-114.144 347.366,-112.649 349.527,-111.154 351.688,-109.658 353.849,-108.163 356.01,-106.668 358.171,-105.172 360.332,-103.677 362.493,-102.181 364.653,-100.686 366.814,-99.1907 368.975,-97.6953 371.136,-96.1999 373.297,-94.7046 375.458,-93.2092 377.619,-91.7138 379.78,-90.2184 381.941,-88.723 384.102,-87.2277 386.263,-85.7323 388.424,-84.2369 390.585,-82.7415 392.746,-81.2462 394.907,-79.7508 397.068,-78.2554 399.229,-76.76 401.39,-75.2647 403.551,-73.7693 405.712,-72.2739 407.873,-70.7785 410.034,-69.2832 412.195,-67.7878 414.356,-66.2924 416.517,-64.797 418.678,-63.3017 420.839,-61.8063 423,-60.3109 425.161,-58.8155 427.322,-57.3202 429.483,-55.8248 431.644,-54.3294 433.805,-52.834 435.966,-51.3387 438.127,-49.8433 440.288,-48.3479 442.449,-46.8525 444.61,-45.3572 446.771,-43.8618 448.932,-42.3664 451.093,-40.871 453.254,-39.3757 455.415,-37.8803 457.576,-36.3849 459.737,-34.8895 461.898,-33.3941 464.059,-31.8988 466.22,-30.4034 468.381,-28.908 470.542,-27.4126 472.703,-25.9173 474.864,-24.4219 477.024,-22.9265 479.185,-21.4311 481.346,-19.9358 483.507,-18.4404 485.668,-16.945 487.829,-15.4496 489.99,-13.9543 492.151,-12.4589 494.312,-10.9635 496.473,-9.46814 498.634,-7.97276 500.795,-6.47739 502.956,-4.98201 505.117,-3.48664 507.278,-1.99126 509.439,-0.495886 511.6,0.99949 513.761,2.49487 515.922,3.99024 518.083,5.48562 520.244,6.98099 522.405,8.47637 524.566,9.97174 526.727,11.4671 528.888,12.9625 531.049,14.4579 533.21,15.9532 535.371,17.4486 537.532,18.944 539.693,20.4394 541.854,21.9347 544.015,23.4301 546.176,24.9255 548.337,26.4209 550.498,27.9163 552.659,29.4116 554.82,30.907 556.981,32.4024 559.142,33.8978 561.303,35.3931 563.464,36.8885 565.625,38.3839 567.786,39.8793 569.947,41.3746 572.108,42.87 574.269,44.3654 576.43,45.8608 578.591,47.3561 580.752,48.8515 582.913,50.3469 585.074,51.8423 587.235,53.3376 589.396,54.833 591.556,56.3284 593.717,57.8238 595.878,59.3191 598.039,60.8145 600.2,62.3099 602.361,63.8053 604.522,65.3006 606.683,66.796 608.844,68.2914 611.005,69.7868 613.166,71.2821 615.327,72.7775 617.488,74.2729 619.649,75.7683 621.81,77.2636 623.971,78.759 626.132,80.2544 628.293,81.7498 630.454,83.2452 632.615,84.7405 634.776,86.2359 636.937,87.7313 639.098,89.2267 641.259,90.722 643.42,92.2174 645.581,93.7128 647.742,95.2082 649.903,96.7035 652.064,98.1989 654.225,99.6943 656.386,101.19 658.547,102.685 660.708,104.18 662.869,105.676 665.03,107.171 667.191,108.667 669.352,110.162 671.513,111.657 673.674,113.153 675.835,114.648 677.996,116.143 680.157,117.639 682.318,119.134 684.479,120.63 686.64,122.125 688.801,123.62 690.962,125.116 693.123,126.611 695.284,128.106 697.445,129.602 699.606,131.097 701.767,132.593 703.927,134.088 706.088,135.583 708.249,137.079 710.41,138.574 712.571,140.069 714.732,141.565 716.893,143.06 719.054,144.556 721.215,146.051 723.376,147.546 725.537,149.042 727.698,150.537 729.859,152.032 732.02,153.528 734.181,155.023 736.342,156.519 738.503,158.014 740.664,159.509 742.825,161.005 744.986,162.5 747.147,163.995 749.308,165.491 751.469,166.986 753.63,168.482 755.791,169.977 757.952,171.472 760.113,172.968 762.274,174.463 764.435,175.958 766.596,177.454 768.757,178.949 770.918,180.445 773.079,181.94 775.24,183.435 777.401,184.931 779.562,186.426 781.723,187.921 783.884,189.417 786.045,190.912 788.206,192.408 790.367,193.903 792.528,195.398 794.689,196.894 796.85,198.389 799.011,199.884 801.172,201.38 803.333,202.875 805.494,204.371 807.655,205.866 809.816,207.361 811.977,208.857 814.138,210.352 816.298,211.847 818.459,213.343 820.62,214.838 822.781,216.334 824.942,217.829 827.103,219.324 829.264,220.82 831.425,222.315 833.586,223.81 835.747,225.306 837.908,226.801 840.069,228.297 842.23,229.792 844.391,231.287 846.552,232.783 848.713,234.278 850.874,235.773 853.035,237.269 855.196,238.764 857.357,240.26 859.518,241.755 861.679,243.25 863.84,244.746 866.001,246.241 868.162,247.736 870.323,249.232 872.484,250.727 874.645,252.223 876.806,253.718 878.967,255.213 881.128,256.709 883.289,258.204 885.45,259.699 887.611,261.195 889.772,262.69 891.933,264.186 894.094,265.681 896.255,267.176 898.416,268.672 900.577,270.167 902.738,271.662 904.899,273.158 907.06,274.653 909.221,276.149 911.382,277.644 913.543,279.139 915.704,280.635 917.865,282.13 920.026,283.625 922.187,285.121 924.348,286.616 926.509,288.112 928.669,289.607 930.83,291.102 932.991,292.598 935.152,294.093 937.313,295.588 939.474,297.084 941.635,298.579 943.796,300.075 945.957,301.57 948.118,303.065 950.279,304.561 952.44,306.056 954.601,307.551 956.762,309.047 958.923,310.542 961.084,312.038 963.245,313.533 965.406,315.028 967.567,316.524 969.728,318.019 971.889,319.515 974.05,321.01 976.211,322.505 978.372,324.001 980.533,325.496 982.694,326.991 984.855,328.487 987.016,329.982 989.177,331.478 991.338,332.973 993.499,334.468 995.66,335.964 997.821,337.459 999.982,338.954 1002.14,340.45 1004.3,341.945 1006.46,343.441 1008.63,344.936 1010.79,346.431 1012.95,347.927 1015.11,349.422 1017.27,350.917 1019.43,352.413 1021.59,353.908 1023.75,355.404 1025.91,356.899 1028.07,358.394 1030.24,359.89 1032.4,361.385 1034.56,362.88 1036.72,364.376 1038.88,365.871 1041.04,367.367 1043.2,368.862 1045.36,370.357 1047.52,371.853 1049.68,373.348 1051.85,374.843 1054.01,376.339 1056.17,377.834 1058.33,379.33 1060.49,380.825 1062.65,382.32 1064.81,383.816 1066.97,385.311 1069.13,386.806 1071.29,388.302 1073.46,389.797 1075.62,391.293 1077.78,392.788 1079.94,394.283 1082.1,395.779 1084.26,397.274 1086.42,398.769 1088.58,400.265 1090.74,401.76 1092.9,403.256 1095.07,404.751 1097.23,406.246 1099.39,407.742 1101.55,409.237 1103.71,410.732 1105.87,412.228 1108.03,413.723 1110.19,415.219 1112.35,416.714 1114.51,418.209 1116.67,419.705 1118.84,421.2 1121,422.695 1123.16,424.191 1125.32,425.686 1127.48,427.182 1129.64,428.677 1131.8,430.172 1133.96,431.668 1136.12,433.163 1138.28,434.658 1140.45,436.154 1142.61,437.649 1144.77,439.145 1146.93,440.64 1149.09,442.135 1151.25,443.631 1153.41,445.126 1155.57,446.621 1157.73,448.117 1159.89,449.612 1162.06,451.108 1164.22,452.603 1166.38,454.098 1168.54,455.594 1170.7,457.089 1172.86,458.584 1175.02,460.08 1177.18,461.575 1179.34,463.071 1181.5,464.566 1183.67,466.061 1185.83,467.557 1187.99,469.052 1190.15,470.547 1192.31,472.043 1194.47,473.538 1196.63,475.034 1198.79,476.529 1200.95,478.024 1203.11,479.52 1205.28,481.015 1207.44,482.51 1209.6,484.006 1211.76,485.501 1213.92,486.997 1216.08,488.492 1218.24,489.987 1220.4,491.483 1222.56,492.978 1224.72,494.473 1226.88,495.969 1229.05,497.464 1231.21,498.96 1233.37,500.455 1235.53,501.95 1237.69,503.446 1239.85,504.941 1242.01,506.436 1244.17,507.932 1246.33,509.427 1248.49,510.923 1250.66,512.418 1252.82,513.913 1254.98,515.409 1257.14,516.904 1259.3,518.399 1261.46,519.895 1263.62,521.39 1265.78,522.886 1267.94,524.381 1270.1,525.876 1272.27,527.372 1274.43,528.867 1276.59,530.362 1278.75,531.858 1280.91,533.353 1283.07,534.849 1285.23,536.344 1287.39,537.839 1289.55,539.335 1291.71,540.83 1293.88,542.325 1296.04,543.821 1298.2,545.316 1300.36,546.812 1302.52,548.307 1304.68,549.802 1306.84,551.298 1309,552.793 1311.16,554.288 1313.32,555.784 1315.49,557.279 1317.65,558.775 1319.81,560.27 1321.97,561.765 1324.13,563.261 1326.29,564.756 1328.45,566.251 1330.61,567.747 1332.77,569.242 1334.93,570.738 1337.09,572.233 1339.26,573.728 1341.42,575.224 1343.58,576.719 1345.74,578.214 1347.9,579.71 1350.06,581.205 1352.22,582.701 1354.38,584.196 1356.54,585.691 1358.7,587.187 1360.87,588.682 1363.03,590.177 1365.19,591.673 1367.35,593.168 1369.51,594.664 1371.67,596.159 1373.83,597.654 1375.99,599.15 1378.15,600.645 1380.31,602.14 1382.48,603.636 1384.64,605.131 1386.8,606.627 1388.96,608.122 1391.12,609.617 1393.28,611.113 1395.44,612.608 1397.6,614.104 1399.76,615.599 1401.92,617.094 1404.09,618.59 1406.25,620.085 1408.41,621.58 1410.57,623.076 1412.73,624.571 1414.89,626.067 1417.05,627.562 1419.21,629.057 1421.37,630.553 1423.53,632.048 1425.7,633.543 1427.86,635.039 1430.02,636.534 1432.18,638.03 1434.34,639.525 1436.5,641.02 1438.66,642.516 1440.82,644.011 1442.98,645.506 1445.14,647.002 1447.3,648.497 1449.47,649.993 1451.63,651.488 1453.79,652.983 1455.95,654.479 1458.11,655.974 1460.27,657.469 1462.43,658.965 1464.59,660.46 1466.75,661.956 1468.91,663.451 1471.08,664.946 1473.24,666.442 1475.4,667.937 1477.56,669.432 1479.72,670.928 1481.88,672.423 1484.04,673.919 1486.2,675.414 1488.36,676.909 1490.52,678.405 1492.69,679.9 1494.85,681.395 1497.01,682.891 1499.17,684.386 1501.33,685.882 1503.49,687.377 1505.65,688.872 1507.81,690.368 1509.97,691.863 1512.13,693.358 1514.3,694.854 1516.46,696.349 1518.62,697.845 1520.78,699.34 1522.94,700.835 1525.1,702.331 1527.26,703.826 1529.42,705.321 1531.58,706.817 1533.74,708.312 1535.91,709.808 1538.07,711.303 1540.23,712.798 1542.39,714.294 1544.55,715.789 1546.71,717.284 1548.87,718.78 1551.03,720.275 1553.19,721.771 1555.35,723.266 1557.51,724.761 1559.68,726.257 1561.84,727.752 1564,729.247 1566.16,730.743 1568.32,732.238 1570.48,733.734 1572.64,735.229 1574.8,736.724 1576.96,738.22 1579.12,739.715 1581.29,741.21 1583.45,742.706 1585.61,744.201 1587.77,745.697 1589.93,747.192 1592.09,748.687 1594.25,750.183 1596.41,751.678 1598.57,753.173 1600.73,754.669 1602.9,756.164 1605.06,757.66 1607.22,759.155 1609.38,760.65 1611.54,762.146 1613.7,763.641 1615.86,765.136 1618.02,766.632 1620.18,768.127 1622.34,769.623 1624.51,771.118 1626.67,772.613 1628.83,774.109 1630.99,775.604 1633.15,777.099 1635.31,778.595 1637.47,780.09 1639.63,781.586 1641.79,783.081 1643.95,784.576 1646.12,786.072 1648.28,787.567 1650.44,789.062 1652.6,790.558 1654.76,792.053 1656.92,793.549 1659.08,795.044 1661.24,796.539 1663.4,798.035 1665.56,799.53 1667.72,801.025 1669.89,802.521 1672.05,804.016 1674.21,805.512 1676.37,807.007 1678.53,808.502 1680.69,809.998 1682.85,811.493 1685.01,812.988 1687.17,814.484 1689.33,815.979 1691.5,817.475 1693.66,818.97 1695.82,820.465 1697.98,821.961 1700.14,823.456 1702.3,824.951 1704.46,826.447 1706.62,827.942 1708.78,829.438 1710.94,830.933 1713.11,832.428 1715.27,833.924 1717.43,835.419 1719.59,836.914 1721.75,838.41 1723.91,839.905 1726.07,841.401 1728.23,842.896 1730.39,844.391 1732.55,845.887 1734.72,847.382 1736.88,848.877 1739.04,850.373 1741.2,851.868 1743.36,853.364 1745.52,854.859 1747.68,856.354 1749.84,857.85 1752,859.345 1754.16,860.84 1756.33,862.336 1758.49,863.831 1760.65,865.327 1762.81,866.822 1764.97,868.317 1767.13,869.813 1769.29,871.308 1771.45,872.803 1773.61,874.299 1775.77,875.794 1777.93,877.29 1780.1,878.785 1782.26,880.28 1784.42,881.776 1786.58,883.271 1788.74,884.766 1790.9,886.262 1793.06,887.757 1795.22,889.253 1797.38,890.748 1799.54,892.243 1801.71,893.739 1803.87,895.234 1806.03,896.729 1808.19,898.225 1810.35,899.72 1812.51,901.216 1814.67,902.711 1816.83,904.206 1818.99,905.702 1821.15,907.197 1823.32,908.693 1825.48,910.188 1827.64,911.683 1829.8,913.179 1831.96,914.674 1834.12,916.169 1836.28,917.665 1838.44,919.16 1840.6,920.656 1842.76,922.151 1844.93,923.646 1847.09,925.142 1849.25,926.637 1851.41,928.132 1853.57,929.628 1855.73,931.123 1857.89,932.619 1860.05,934.114 1862.21,935.609 1864.37,937.105 1866.54,938.6 1868.7,940.095 1870.86,941.591 1873.02,943.086 1875.18,944.582 1877.34,946.077 1879.5,947.572 1881.66,949.068 1883.82,950.563 1885.98,952.058 1888.15,953.554 1890.31,955.049 1892.47,956.545 1894.63,958.04 1896.79,959.535 1898.95,961.031 1901.11,962.526 1903.27,964.021 1905.43,965.517 1907.59,967.012 1909.75,968.508 1911.92,970.003 1914.08,971.498 1916.24,972.994 1918.4,974.489 1920.56,975.984 1922.72,977.48 1924.88,978.975 1927.04,980.471 1929.2,981.966 1931.36,983.461 1933.53,984.957 1935.69,986.452 1937.85,987.947 1940.01,989.443 1942.17,990.938 1944.33,992.434 1946.49,993.929 1948.65,995.424 1950.81,996.92 1952.97,998.415 1955.14,999.91 1957.3,1001.41 1959.46,1002.9 1961.62,1004.4 1963.78,1005.89 1965.94,1007.39 1968.1,1008.88 1970.26,1010.38 1972.42,1011.87 1974.58,1013.37 1976.75,1014.86 1978.91,1016.36 1981.07,1017.85 1983.23,1019.35 1985.39,1020.85 1987.55,1022.34 1989.71,1023.84 1991.87,1025.33 1994.03,1026.83 1996.19,1028.32 1998.36,1029.82 2000.52,1031.31 2002.68,1032.81 2004.84,1034.3 2007,1035.8 2009.16,1037.29 2011.32,1038.79 2013.48,1040.29 2015.64,1041.78 2017.8,1043.28 2019.96,1044.77 2022.13,1046.27 2024.29,1047.76 2026.45,1049.26 2028.61,1050.75 2030.77,1052.25 2032.93,1053.74 2035.09,1055.24 2037.25,1056.73 2039.41,1058.23 2041.57,1059.73 2043.74,1061.22 2045.9,1062.72 2048.06,1064.21 2050.22,1065.71 2052.38,1067.2 2054.54,1068.7 2056.7,1070.19 2058.86,1071.69 2061.02,1073.18 2063.18,1074.68 2065.35,1076.17 2067.51,1077.67 2069.67,1079.17 2071.83,1080.66 2073.99,1082.16 2076.15,1083.65 2078.31,1085.15 2080.47,1086.64 2082.63,1088.14 2084.79,1089.63 2086.96,1091.13 2089.12,1092.62 2091.28,1094.12 2093.44,1095.61 2095.6,1097.11 2097.76,1098.61 2099.92,1100.1 2102.08,1101.6 2104.24,1103.09 2106.4,1104.59 2108.57,1106.08 2110.73,1107.58 2112.89,1109.07 2115.05,1110.57 2117.21,1112.06 2119.37,1113.56 2121.53,1115.05 2123.69,1116.55 2125.85,1118.05 2128.01,1119.54 2130.17,1121.04 2132.34,1122.53 2134.5,1124.03 2136.66,1125.52 2138.82,1127.02 2140.98,1128.51 2143.14,1130.01 2145.3,1131.5 2147.46,1133 2149.62,1134.49 2151.78,1135.99 2153.95,1137.48 2156.11,1138.98 2158.27,1140.48 2160.43,1141.97 2162.59,1143.47 2164.75,1144.96 2166.91,1146.46 2169.07,1147.95 2171.23,1149.45 2173.39,1150.94 2175.56,1152.44 2177.72,1153.93 2179.88,1155.43 2182.04,1156.92 2184.2,1158.42 2186.36,1159.92 2188.52,1161.41 2190.68,1162.91 2192.84,1164.4 2195,1165.9 2197.17,1167.39 2199.33,1168.89 2201.49,1170.38 2203.65,1171.88 2205.81,1173.37 2207.97,1174.87 2210.13,1176.36 2212.29,1177.86 2214.45,1179.36 2216.61,1180.85 2218.78,1182.35 2220.94,1183.84 2223.1,1185.34 2225.26,1186.83 2227.42,1188.33 2229.58,1189.82 2231.74,1191.32 2233.9,1192.81 2236.06,1194.31 2238.22,1195.8 2240.38,1197.3 2242.55,1198.8 2244.71,1200.29 2246.87,1201.79 2249.03,1203.28 2251.19,1204.78 2253.35,1206.27 2255.51,1207.77 2257.67,1209.26 2259.83,1210.76 2261.99,1212.25 2264.16,1213.75 2266.32,1215.24 2268.48,1216.74 2270.64,1218.24 2272.8,1219.73 2274.96,1221.23 2277.12,1222.72 2279.28,1224.22 2281.44,1225.71 2283.6,1227.21 2285.77,1228.7 2287.93,1230.2 2290.09,1231.69 2292.25,1233.19 2294.41,1234.68 2296.57,1236.18 2298.73,1237.68 2300.89,1239.17 2303.05,1240.67 2305.21,1242.16 2307.38,1243.66 2309.54,1245.15 2311.7,1246.65 2313.86,1248.14 2316.02,1249.64 2318.18,1251.13 2320.34,1252.63 2322.5,1254.12 2324.66,1255.62 2326.82,1257.12 2328.99,1258.61 2331.15,1260.11 2333.31,1261.6 2335.47,1263.1 2337.63,1264.59 2339.79,1266.09 2341.95,1267.58 2344.11,1269.08 2346.27,1270.57 2348.43,1272.07 2350.59,1273.56 2352.76,1275.06 "/>
<circle clip-path="url(#clip362)" cx="625.7" cy="153.149" r="14.4" fill="#000000" fill-rule="evenodd" fill-opacity="1" stroke="none"/>
<circle clip-path="url(#clip362)" cx="841.582" cy="500.746" r="14.4" fill="#000000" fill-rule="evenodd" fill-opacity="1" stroke="none"/>
<circle clip-path="url(#clip362)" cx="1057.46" cy="321.145" r="14.4" fill="#000000" fill-rule="evenodd" fill-opacity="1" stroke="none"/>
<circle clip-path="url(#clip362)" cx="1273.35" cy="487.603" r="14.4" fill="#000000" fill-rule="evenodd" fill-opacity="1" stroke="none"/>
<circle clip-path="url(#clip362)" cx="1489.23" cy="570.523" r="14.4" fill="#000000" fill-rule="evenodd" fill-opacity="1" stroke="none"/>
<circle clip-path="url(#clip362)" cx="1705.11" cy="887.68" r="14.4" fill="#000000" fill-rule="evenodd" fill-opacity="1" stroke="none"/>
<circle clip-path="url(#clip362)" cx="1920.99" cy="907.312" r="14.4" fill="#000000" fill-rule="evenodd" fill-opacity="1" stroke="none"/>
<circle clip-path="url(#clip362)" cx="2136.87" cy="1045.13" r="14.4" fill="#000000" fill-rule="evenodd" fill-opacity="1" stroke="none"/>
<circle clip-path="url(#clip362)" cx="2352.76" cy="1186.09" r="14.4" fill="#000000" fill-rule="evenodd" fill-opacity="1" stroke="none"/>
</svg>
