<?xml version="1.0" encoding="utf-8"?>
<svg xmlns="http://www.w3.org/2000/svg" xmlns:xlink="http://www.w3.org/1999/xlink" width="600" height="400" viewBox="0 0 2400 1600">
<defs>
  <clipPath id="clip180">
    <rect x="0" y="0" width="2400" height="1600"/>
  </clipPath>
</defs>
<path clip-path="url(#clip180)" d="M0 1600 L2400 1600 L2400 0 L0 0  Z" fill="#ffffff" fill-rule="evenodd" fill-opacity="1"/>
<defs>
  <clipPath id="clip181">
    <rect x="480" y="0" width="1681" height="1600"/>
  </clipPath>
</defs>
<path clip-path="url(#clip180)" d="M193.936 1486.45 L2352.76 1486.45 L2352.76 47.2441 L193.936 47.2441  Z" fill="#ffffff" fill-rule="evenodd" fill-opacity="1"/>
<defs>
  <clipPath id="clip182">
    <rect x="193" y="47" width="2160" height="1440"/>
  </clipPath>
</defs>
<polyline clip-path="url(#clip182)" style="stroke:#000000; stroke-linecap:round; stroke-linejoin:round; stroke-width:2; stroke-opacity:0.1; fill:none" points="193.936,1486.45 193.936,47.2441 "/>
<polyline clip-path="url(#clip182)" style="stroke:#000000; stroke-linecap:round; stroke-linejoin:round; stroke-width:2; stroke-opacity:0.1; fill:none" points="733.641,1486.45 733.641,47.2441 "/>
<polyline clip-path="url(#clip182)" style="stroke:#000000; stroke-linecap:round; stroke-linejoin:round; stroke-width:2; stroke-opacity:0.1; fill:none" points="1273.35,1486.45 1273.35,47.2441 "/>
<polyline clip-path="url(#clip182)" style="stroke:#000000; stroke-linecap:round; stroke-linejoin:round; stroke-width:2; stroke-opacity:0.1; fill:none" points="1813.05,1486.45 1813.05,47.2441 "/>
<polyline clip-path="url(#clip182)" style="stroke:#000000; stroke-linecap:round; stroke-linejoin:round; stroke-width:2; stroke-opacity:0.1; fill:none" points="2352.76,1486.45 2352.76,47.2441 "/>
<polyline clip-path="url(#clip182)" style="stroke:#000000; stroke-linecap:round; stroke-linejoin:round; stroke-width:2; stroke-opacity:0.1; fill:none" points="193.936,1486.45 2352.76,1486.45 "/>
<polyline clip-path="url(#clip182)" style="stroke:#000000; stroke-linecap:round; stroke-linejoin:round; stroke-width:2; stroke-opacity:0.1; fill:none" points="193.936,1126.65 2352.76,1126.65 "/>
<polyline clip-path="url(#clip182)" style="stroke:#000000; stroke-linecap:round; stroke-linejoin:round; stroke-width:2; stroke-opacity:0.1; fill:none" points="193.936,766.846 2352.76,766.846 "/>
<polyline clip-path="url(#clip182)" style="stroke:#000000; stroke-linecap:round; stroke-linejoin:round; stroke-width:2; stroke-opacity:0.1; fill:none" points="193.936,407.045 2352.76,407.045 "/>
<polyline clip-path="url(#clip182)" style="stroke:#000000; stroke-linecap:round; stroke-linejoin:round; stroke-width:2; stroke-opacity:0.1; fill:none" points="193.936,47.2441 2352.76,47.2441 "/>
<polyline clip-path="url(#clip180)" style="stroke:#000000; stroke-linecap:round; stroke-linejoin:round; stroke-width:4; stroke-opacity:1; fill:none" points="193.936,1486.45 2352.76,1486.45 "/>
<polyline clip-path="url(#clip180)" style="stroke:#000000; stroke-linecap:round; stroke-linejoin:round; stroke-width:4; stroke-opacity:1; fill:none" points="193.936,1486.45 193.936,1467.55 "/>
<polyline clip-path="url(#clip180)" style="stroke:#000000; stroke-linecap:round; stroke-linejoin:round; stroke-width:4; stroke-opacity:1; fill:none" points="733.641,1486.45 733.641,1467.55 "/>
<polyline clip-path="url(#clip180)" style="stroke:#000000; stroke-linecap:round; stroke-linejoin:round; stroke-width:4; stroke-opacity:1; fill:none" points="1273.35,1486.45 1273.35,1467.55 "/>
<polyline clip-path="url(#clip180)" style="stroke:#000000; stroke-linecap:round; stroke-linejoin:round; stroke-width:4; stroke-opacity:1; fill:none" points="1813.05,1486.45 1813.05,1467.55 "/>
<polyline clip-path="url(#clip180)" style="stroke:#000000; stroke-linecap:round; stroke-linejoin:round; stroke-width:4; stroke-opacity:1; fill:none" points="2352.76,1486.45 2352.76,1467.55 "/>
<path clip-path="url(#clip180)" d="M140.464 1532.02 L170.14 1532.02 L170.14 1535.95 L140.464 1535.95 L140.464 1532.02 Z" fill="#000000" fill-rule="nonzero" fill-opacity="1" /><path clip-path="url(#clip180)" d="M180.279 1514.29 L198.635 1514.29 L198.635 1518.22 L184.561 1518.22 L184.561 1526.7 Q185.58 1526.35 186.598 1526.19 Q187.617 1526 188.635 1526 Q194.422 1526 197.802 1529.17 Q201.181 1532.34 201.181 1537.76 Q201.181 1543.34 197.709 1546.44 Q194.237 1549.52 187.918 1549.52 Q185.742 1549.52 183.473 1549.15 Q181.228 1548.78 178.82 1548.04 L178.82 1543.34 Q180.904 1544.47 183.126 1545.03 Q185.348 1545.58 187.825 1545.58 Q191.83 1545.58 194.167 1543.48 Q196.505 1541.37 196.505 1537.76 Q196.505 1534.15 194.167 1532.04 Q191.83 1529.94 187.825 1529.94 Q185.95 1529.94 184.075 1530.35 Q182.223 1530.77 180.279 1531.65 L180.279 1514.29 Z" fill="#000000" fill-rule="nonzero" fill-opacity="1" /><path clip-path="url(#clip180)" d="M210.394 1542.97 L215.278 1542.97 L215.278 1548.85 L210.394 1548.85 L210.394 1542.97 Z" fill="#000000" fill-rule="nonzero" fill-opacity="1" /><path clip-path="url(#clip180)" d="M235.464 1517.37 Q231.852 1517.37 230.024 1520.93 Q228.218 1524.47 228.218 1531.6 Q228.218 1538.71 230.024 1542.27 Q231.852 1545.82 235.464 1545.82 Q239.098 1545.82 240.903 1542.27 Q242.732 1538.71 242.732 1531.6 Q242.732 1524.47 240.903 1520.93 Q239.098 1517.37 235.464 1517.37 M235.464 1513.66 Q241.274 1513.66 244.329 1518.27 Q247.408 1522.85 247.408 1531.6 Q247.408 1540.33 244.329 1544.94 Q241.274 1549.52 235.464 1549.52 Q229.653 1549.52 226.575 1544.94 Q223.519 1540.33 223.519 1531.6 Q223.519 1522.85 226.575 1518.27 Q229.653 1513.66 235.464 1513.66 Z" fill="#000000" fill-rule="nonzero" fill-opacity="1" /><path clip-path="url(#clip180)" d="M680.667 1532.02 L710.342 1532.02 L710.342 1535.95 L680.667 1535.95 L680.667 1532.02 Z" fill="#000000" fill-rule="nonzero" fill-opacity="1" /><path clip-path="url(#clip180)" d="M724.463 1544.91 L740.782 1544.91 L740.782 1548.85 L718.838 1548.85 L718.838 1544.91 Q721.5 1542.16 726.083 1537.53 Q730.69 1532.88 731.87 1531.53 Q734.116 1529.01 734.995 1527.27 Q735.898 1525.51 735.898 1523.82 Q735.898 1521.07 733.953 1519.33 Q732.032 1517.6 728.93 1517.6 Q726.731 1517.6 724.278 1518.36 Q721.847 1519.13 719.069 1520.68 L719.069 1515.95 Q721.893 1514.82 724.347 1514.24 Q726.801 1513.66 728.838 1513.66 Q734.208 1513.66 737.403 1516.35 Q740.597 1519.03 740.597 1523.52 Q740.597 1525.65 739.787 1527.57 Q739 1529.47 736.893 1532.07 Q736.315 1532.74 733.213 1535.95 Q730.111 1539.15 724.463 1544.91 Z" fill="#000000" fill-rule="nonzero" fill-opacity="1" /><path clip-path="url(#clip180)" d="M750.597 1542.97 L755.481 1542.97 L755.481 1548.85 L750.597 1548.85 L750.597 1542.97 Z" fill="#000000" fill-rule="nonzero" fill-opacity="1" /><path clip-path="url(#clip180)" d="M765.713 1514.29 L784.069 1514.29 L784.069 1518.22 L769.995 1518.22 L769.995 1526.7 Q771.013 1526.35 772.032 1526.19 Q773.05 1526 774.069 1526 Q779.856 1526 783.236 1529.17 Q786.615 1532.34 786.615 1537.76 Q786.615 1543.34 783.143 1546.44 Q779.671 1549.52 773.351 1549.52 Q771.175 1549.52 768.907 1549.15 Q766.662 1548.78 764.254 1548.04 L764.254 1543.34 Q766.338 1544.47 768.56 1545.03 Q770.782 1545.58 773.259 1545.58 Q777.263 1545.58 779.601 1543.48 Q781.939 1541.37 781.939 1537.76 Q781.939 1534.15 779.601 1532.04 Q777.263 1529.94 773.259 1529.94 Q771.384 1529.94 769.509 1530.35 Q767.657 1530.77 765.713 1531.65 L765.713 1514.29 Z" fill="#000000" fill-rule="nonzero" fill-opacity="1" /><path clip-path="url(#clip180)" d="M1250.73 1517.37 Q1247.12 1517.37 1245.29 1520.93 Q1243.49 1524.47 1243.49 1531.6 Q1243.49 1538.71 1245.29 1542.27 Q1247.12 1545.82 1250.73 1545.82 Q1254.36 1545.82 1256.17 1542.27 Q1258 1538.71 1258 1531.6 Q1258 1524.47 1256.17 1520.93 Q1254.36 1517.37 1250.73 1517.37 M1250.73 1513.66 Q1256.54 1513.66 1259.6 1518.27 Q1262.67 1522.85 1262.67 1531.6 Q1262.67 1540.33 1259.6 1544.94 Q1256.54 1549.52 1250.73 1549.52 Q1244.92 1549.52 1241.84 1544.94 Q1238.79 1540.33 1238.79 1531.6 Q1238.79 1522.85 1241.84 1518.27 Q1244.92 1513.66 1250.73 1513.66 Z" fill="#000000" fill-rule="nonzero" fill-opacity="1" /><path clip-path="url(#clip180)" d="M1270.89 1542.97 L1275.78 1542.97 L1275.78 1548.85 L1270.89 1548.85 L1270.89 1542.97 Z" fill="#000000" fill-rule="nonzero" fill-opacity="1" /><path clip-path="url(#clip180)" d="M1295.96 1517.37 Q1292.35 1517.37 1290.52 1520.93 Q1288.72 1524.47 1288.72 1531.6 Q1288.72 1538.71 1290.52 1542.27 Q1292.35 1545.82 1295.96 1545.82 Q1299.6 1545.82 1301.4 1542.27 Q1303.23 1538.71 1303.23 1531.6 Q1303.23 1524.47 1301.4 1520.93 Q1299.6 1517.37 1295.96 1517.37 M1295.96 1513.66 Q1301.77 1513.66 1304.83 1518.27 Q1307.91 1522.85 1307.91 1531.6 Q1307.91 1540.33 1304.83 1544.94 Q1301.77 1549.52 1295.96 1549.52 Q1290.15 1549.52 1287.07 1544.94 Q1284.02 1540.33 1284.02 1531.6 Q1284.02 1522.85 1287.07 1518.27 Q1290.15 1513.66 1295.96 1513.66 Z" fill="#000000" fill-rule="nonzero" fill-opacity="1" /><path clip-path="url(#clip180)" d="M1784.79 1544.91 L1801.11 1544.91 L1801.11 1548.85 L1779.16 1548.85 L1779.16 1544.91 Q1781.82 1542.16 1786.41 1537.53 Q1791.01 1532.88 1792.19 1531.53 Q1794.44 1529.01 1795.32 1527.27 Q1796.22 1525.51 1796.22 1523.82 Q1796.22 1521.07 1794.28 1519.33 Q1792.36 1517.6 1789.25 1517.6 Q1787.06 1517.6 1784.6 1518.36 Q1782.17 1519.13 1779.39 1520.68 L1779.39 1515.95 Q1782.22 1514.82 1784.67 1514.24 Q1787.13 1513.66 1789.16 1513.66 Q1794.53 1513.66 1797.73 1516.35 Q1800.92 1519.03 1800.92 1523.52 Q1800.92 1525.65 1800.11 1527.57 Q1799.32 1529.47 1797.22 1532.07 Q1796.64 1532.74 1793.54 1535.95 Q1790.44 1539.15 1784.79 1544.91 Z" fill="#000000" fill-rule="nonzero" fill-opacity="1" /><path clip-path="url(#clip180)" d="M1810.92 1542.97 L1815.81 1542.97 L1815.81 1548.85 L1810.92 1548.85 L1810.92 1542.97 Z" fill="#000000" fill-rule="nonzero" fill-opacity="1" /><path clip-path="url(#clip180)" d="M1826.04 1514.29 L1844.39 1514.29 L1844.39 1518.22 L1830.32 1518.22 L1830.32 1526.7 Q1831.34 1526.35 1832.36 1526.19 Q1833.37 1526 1834.39 1526 Q1840.18 1526 1843.56 1529.17 Q1846.94 1532.34 1846.94 1537.76 Q1846.94 1543.34 1843.47 1546.44 Q1840 1549.52 1833.68 1549.52 Q1831.5 1549.52 1829.23 1549.15 Q1826.99 1548.78 1824.58 1548.04 L1824.58 1543.34 Q1826.66 1544.47 1828.88 1545.03 Q1831.11 1545.58 1833.58 1545.58 Q1837.59 1545.58 1839.93 1543.48 Q1842.26 1541.37 1842.26 1537.76 Q1842.26 1534.15 1839.93 1532.04 Q1837.59 1529.94 1833.58 1529.94 Q1831.71 1529.94 1829.83 1530.35 Q1827.98 1530.77 1826.04 1531.65 L1826.04 1514.29 Z" fill="#000000" fill-rule="nonzero" fill-opacity="1" /><path clip-path="url(#clip180)" d="M2319.92 1514.29 L2338.28 1514.29 L2338.28 1518.22 L2324.2 1518.22 L2324.2 1526.7 Q2325.22 1526.35 2326.24 1526.19 Q2327.26 1526 2328.28 1526 Q2334.06 1526 2337.44 1529.17 Q2340.82 1532.34 2340.82 1537.76 Q2340.82 1543.34 2337.35 1546.44 Q2333.88 1549.52 2327.56 1549.52 Q2325.38 1549.52 2323.11 1549.15 Q2320.87 1548.78 2318.46 1548.04 L2318.46 1543.34 Q2320.55 1544.47 2322.77 1545.03 Q2324.99 1545.58 2327.47 1545.58 Q2331.47 1545.58 2333.81 1543.48 Q2336.15 1541.37 2336.15 1537.76 Q2336.15 1534.15 2333.81 1532.04 Q2331.47 1529.94 2327.47 1529.94 Q2325.59 1529.94 2323.72 1530.35 Q2321.86 1530.77 2319.92 1531.65 L2319.92 1514.29 Z" fill="#000000" fill-rule="nonzero" fill-opacity="1" /><path clip-path="url(#clip180)" d="M2350.04 1542.97 L2354.92 1542.97 L2354.92 1548.85 L2350.04 1548.85 L2350.04 1542.97 Z" fill="#000000" fill-rule="nonzero" fill-opacity="1" /><path clip-path="url(#clip180)" d="M2375.11 1517.37 Q2371.49 1517.37 2369.67 1520.93 Q2367.86 1524.47 2367.86 1531.6 Q2367.86 1538.71 2369.67 1542.27 Q2371.49 1545.82 2375.11 1545.82 Q2378.74 1545.82 2380.55 1542.27 Q2382.37 1538.71 2382.37 1531.6 Q2382.37 1524.47 2380.55 1520.93 Q2378.74 1517.37 2375.11 1517.37 M2375.11 1513.66 Q2380.92 1513.66 2383.97 1518.27 Q2387.05 1522.85 2387.05 1531.6 Q2387.05 1540.33 2383.97 1544.94 Q2380.92 1549.52 2375.11 1549.52 Q2369.3 1549.52 2366.22 1544.94 Q2363.16 1540.33 2363.16 1531.6 Q2363.16 1522.85 2366.22 1518.27 Q2369.3 1513.66 2375.11 1513.66 Z" fill="#000000" fill-rule="nonzero" fill-opacity="1" /><polyline clip-path="url(#clip180)" style="stroke:#000000; stroke-linecap:round; stroke-linejoin:round; stroke-width:4; stroke-opacity:1; fill:none" points="193.936,1486.45 193.936,47.2441 "/>
<polyline clip-path="url(#clip180)" style="stroke:#000000; stroke-linecap:round; stroke-linejoin:round; stroke-width:4; stroke-opacity:1; fill:none" points="193.936,1486.45 212.834,1486.45 "/>
<polyline clip-path="url(#clip180)" style="stroke:#000000; stroke-linecap:round; stroke-linejoin:round; stroke-width:4; stroke-opacity:1; fill:none" points="193.936,1126.65 212.834,1126.65 "/>
<polyline clip-path="url(#clip180)" style="stroke:#000000; stroke-linecap:round; stroke-linejoin:round; stroke-width:4; stroke-opacity:1; fill:none" points="193.936,766.846 212.834,766.846 "/>
<polyline clip-path="url(#clip180)" style="stroke:#000000; stroke-linecap:round; stroke-linejoin:round; stroke-width:4; stroke-opacity:1; fill:none" points="193.936,407.045 212.834,407.045 "/>
<polyline clip-path="url(#clip180)" style="stroke:#000000; stroke-linecap:round; stroke-linejoin:round; stroke-width:4; stroke-opacity:1; fill:none" points="193.936,47.2441 212.834,47.2441 "/>
<path clip-path="url(#clip180)" d="M50.9921 1486.9 L80.6679 1486.9 L80.6679 1490.83 L50.9921 1490.83 L50.9921 1486.9 Z" fill="#000000" fill-rule="nonzero" fill-opacity="1" /><path clip-path="url(#clip180)" d="M90.8067 1469.17 L109.163 1469.17 L109.163 1473.1 L95.0891 1473.1 L95.0891 1481.58 Q96.1076 1481.23 97.1261 1481.07 Q98.1447 1480.88 99.1632 1480.88 Q104.95 1480.88 108.33 1484.05 Q111.709 1487.22 111.709 1492.64 Q111.709 1498.22 108.237 1501.32 Q104.765 1504.4 98.4456 1504.4 Q96.2697 1504.4 94.0012 1504.03 Q91.7558 1503.66 89.3484 1502.92 L89.3484 1498.22 Q91.4317 1499.35 93.6539 1499.91 Q95.8761 1500.46 98.353 1500.46 Q102.358 1500.46 104.696 1498.36 Q107.033 1496.25 107.033 1492.64 Q107.033 1489.03 104.696 1486.92 Q102.358 1484.82 98.353 1484.82 Q96.478 1484.82 94.603 1485.23 Q92.7512 1485.65 90.8067 1486.53 L90.8067 1469.17 Z" fill="#000000" fill-rule="nonzero" fill-opacity="1" /><path clip-path="url(#clip180)" d="M120.922 1497.85 L125.807 1497.85 L125.807 1503.73 L120.922 1503.73 L120.922 1497.85 Z" fill="#000000" fill-rule="nonzero" fill-opacity="1" /><path clip-path="url(#clip180)" d="M145.992 1472.25 Q142.381 1472.25 140.552 1475.81 Q138.746 1479.35 138.746 1486.48 Q138.746 1493.59 140.552 1497.15 Q142.381 1500.7 145.992 1500.7 Q149.626 1500.7 151.431 1497.15 Q153.26 1493.59 153.26 1486.48 Q153.26 1479.35 151.431 1475.81 Q149.626 1472.25 145.992 1472.25 M145.992 1468.54 Q151.802 1468.54 154.857 1473.15 Q157.936 1477.73 157.936 1486.48 Q157.936 1495.21 154.857 1499.82 Q151.802 1504.4 145.992 1504.4 Q140.181 1504.4 137.103 1499.82 Q134.047 1495.21 134.047 1486.48 Q134.047 1477.73 137.103 1473.15 Q140.181 1468.54 145.992 1468.54 Z" fill="#000000" fill-rule="nonzero" fill-opacity="1" /><path clip-path="url(#clip180)" d="M51.9875 1127.1 L81.6633 1127.1 L81.6633 1131.03 L51.9875 1131.03 L51.9875 1127.1 Z" fill="#000000" fill-rule="nonzero" fill-opacity="1" /><path clip-path="url(#clip180)" d="M95.7836 1139.99 L112.103 1139.99 L112.103 1143.93 L90.1586 1143.93 L90.1586 1139.99 Q92.8206 1137.24 97.4039 1132.61 Q102.01 1127.95 103.191 1126.61 Q105.436 1124.09 106.316 1122.35 Q107.219 1120.59 107.219 1118.9 Q107.219 1116.15 105.274 1114.41 Q103.353 1112.68 100.251 1112.68 Q98.0521 1112.68 95.5984 1113.44 Q93.1678 1114.2 90.3901 1115.76 L90.3901 1111.03 Q93.2141 1109.9 95.6678 1109.32 Q98.1215 1108.74 100.159 1108.74 Q105.529 1108.74 108.723 1111.43 Q111.918 1114.11 111.918 1118.6 Q111.918 1120.73 111.108 1122.65 Q110.321 1124.55 108.214 1127.14 Q107.635 1127.82 104.534 1131.03 Q101.432 1134.23 95.7836 1139.99 Z" fill="#000000" fill-rule="nonzero" fill-opacity="1" /><path clip-path="url(#clip180)" d="M121.918 1138.05 L126.802 1138.05 L126.802 1143.93 L121.918 1143.93 L121.918 1138.05 Z" fill="#000000" fill-rule="nonzero" fill-opacity="1" /><path clip-path="url(#clip180)" d="M137.033 1109.37 L155.39 1109.37 L155.39 1113.3 L141.316 1113.3 L141.316 1121.77 Q142.334 1121.43 143.353 1121.27 Q144.371 1121.08 145.39 1121.08 Q151.177 1121.08 154.556 1124.25 Q157.936 1127.42 157.936 1132.84 Q157.936 1138.42 154.464 1141.52 Q150.992 1144.6 144.672 1144.6 Q142.496 1144.6 140.228 1144.23 Q137.982 1143.86 135.575 1143.12 L135.575 1138.42 Q137.658 1139.55 139.881 1140.11 Q142.103 1140.66 144.58 1140.66 Q148.584 1140.66 150.922 1138.56 Q153.26 1136.45 153.26 1132.84 Q153.26 1129.23 150.922 1127.12 Q148.584 1125.01 144.58 1125.01 Q142.705 1125.01 140.83 1125.43 Q138.978 1125.85 137.033 1126.73 L137.033 1109.37 Z" fill="#000000" fill-rule="nonzero" fill-opacity="1" /><path clip-path="url(#clip180)" d="M100.76 752.645 Q97.1493 752.645 95.3206 756.209 Q93.515 759.751 93.515 766.881 Q93.515 773.987 95.3206 777.552 Q97.1493 781.094 100.76 781.094 Q104.395 781.094 106.2 777.552 Q108.029 773.987 108.029 766.881 Q108.029 759.751 106.2 756.209 Q104.395 752.645 100.76 752.645 M100.76 748.941 Q106.571 748.941 109.626 753.547 Q112.705 758.131 112.705 766.881 Q112.705 775.608 109.626 780.214 Q106.571 784.797 100.76 784.797 Q94.9502 784.797 91.8715 780.214 Q88.816 775.608 88.816 766.881 Q88.816 758.131 91.8715 753.547 Q94.9502 748.941 100.76 748.941 Z" fill="#000000" fill-rule="nonzero" fill-opacity="1" /><path clip-path="url(#clip180)" d="M120.922 778.246 L125.807 778.246 L125.807 784.126 L120.922 784.126 L120.922 778.246 Z" fill="#000000" fill-rule="nonzero" fill-opacity="1" /><path clip-path="url(#clip180)" d="M145.992 752.645 Q142.381 752.645 140.552 756.209 Q138.746 759.751 138.746 766.881 Q138.746 773.987 140.552 777.552 Q142.381 781.094 145.992 781.094 Q149.626 781.094 151.431 777.552 Q153.26 773.987 153.26 766.881 Q153.26 759.751 151.431 756.209 Q149.626 752.645 145.992 752.645 M145.992 748.941 Q151.802 748.941 154.857 753.547 Q157.936 758.131 157.936 766.881 Q157.936 775.608 154.857 780.214 Q151.802 784.797 145.992 784.797 Q140.181 784.797 137.103 780.214 Q134.047 775.608 134.047 766.881 Q134.047 758.131 137.103 753.547 Q140.181 748.941 145.992 748.941 Z" fill="#000000" fill-rule="nonzero" fill-opacity="1" /><path clip-path="url(#clip180)" d="M95.7836 420.39 L112.103 420.39 L112.103 424.325 L90.1586 424.325 L90.1586 420.39 Q92.8206 417.635 97.4039 413.006 Q102.01 408.353 103.191 407.01 Q105.436 404.487 106.316 402.751 Q107.219 400.992 107.219 399.302 Q107.219 396.547 105.274 394.811 Q103.353 393.075 100.251 393.075 Q98.0521 393.075 95.5984 393.839 Q93.1678 394.603 90.3901 396.154 L90.3901 391.432 Q93.2141 390.297 95.6678 389.719 Q98.1215 389.14 100.159 389.14 Q105.529 389.14 108.723 391.825 Q111.918 394.51 111.918 399.001 Q111.918 401.131 111.108 403.052 Q110.321 404.95 108.214 407.543 Q107.635 408.214 104.534 411.432 Q101.432 414.626 95.7836 420.39 Z" fill="#000000" fill-rule="nonzero" fill-opacity="1" /><path clip-path="url(#clip180)" d="M121.918 418.445 L126.802 418.445 L126.802 424.325 L121.918 424.325 L121.918 418.445 Z" fill="#000000" fill-rule="nonzero" fill-opacity="1" /><path clip-path="url(#clip180)" d="M137.033 389.765 L155.39 389.765 L155.39 393.7 L141.316 393.7 L141.316 402.172 Q142.334 401.825 143.353 401.663 Q144.371 401.478 145.39 401.478 Q151.177 401.478 154.556 404.649 Q157.936 407.82 157.936 413.237 Q157.936 418.816 154.464 421.918 Q150.992 424.996 144.672 424.996 Q142.496 424.996 140.228 424.626 Q137.982 424.256 135.575 423.515 L135.575 418.816 Q137.658 419.95 139.881 420.506 Q142.103 421.061 144.58 421.061 Q148.584 421.061 150.922 418.955 Q153.26 416.848 153.26 413.237 Q153.26 409.626 150.922 407.52 Q148.584 405.413 144.58 405.413 Q142.705 405.413 140.83 405.83 Q138.978 406.246 137.033 407.126 L137.033 389.765 Z" fill="#000000" fill-rule="nonzero" fill-opacity="1" /><path clip-path="url(#clip180)" d="M90.8067 29.9641 L109.163 29.9641 L109.163 33.8993 L95.0891 33.8993 L95.0891 42.3714 Q96.1076 42.0242 97.1261 41.8622 Q98.1447 41.677 99.1632 41.677 Q104.95 41.677 108.33 44.8483 Q111.709 48.0196 111.709 53.4362 Q111.709 59.0149 108.237 62.1167 Q104.765 65.1954 98.4456 65.1954 Q96.2697 65.1954 94.0012 64.825 Q91.7558 64.4547 89.3484 63.7139 L89.3484 59.0149 Q91.4317 60.1491 93.6539 60.7047 Q95.8761 61.2602 98.353 61.2602 Q102.358 61.2602 104.696 59.1538 Q107.033 57.0473 107.033 53.4362 Q107.033 49.8251 104.696 47.7186 Q102.358 45.6122 98.353 45.6122 Q96.478 45.6122 94.603 46.0288 Q92.7512 46.4455 90.8067 47.3251 L90.8067 29.9641 Z" fill="#000000" fill-rule="nonzero" fill-opacity="1" /><path clip-path="url(#clip180)" d="M120.922 58.6445 L125.807 58.6445 L125.807 64.5241 L120.922 64.5241 L120.922 58.6445 Z" fill="#000000" fill-rule="nonzero" fill-opacity="1" /><path clip-path="url(#clip180)" d="M145.992 33.0428 Q142.381 33.0428 140.552 36.6076 Q138.746 40.1492 138.746 47.2788 Q138.746 54.3853 140.552 57.9501 Q142.381 61.4917 145.992 61.4917 Q149.626 61.4917 151.431 57.9501 Q153.26 54.3853 153.26 47.2788 Q153.26 40.1492 151.431 36.6076 Q149.626 33.0428 145.992 33.0428 M145.992 29.3391 Q151.802 29.3391 154.857 33.9456 Q157.936 38.5289 157.936 47.2788 Q157.936 56.0056 154.857 60.6121 Q151.802 65.1954 145.992 65.1954 Q140.181 65.1954 137.103 60.6121 Q134.047 56.0056 134.047 47.2788 Q134.047 38.5289 137.103 33.9456 Q140.181 29.3391 145.992 29.3391 Z" fill="#000000" fill-rule="nonzero" fill-opacity="1" /><polyline clip-path="url(#clip182)" style="stroke:#000000; stroke-linecap:round; stroke-linejoin:round; stroke-width:4; stroke-opacity:0.5; fill:none" points="193.936,548.829 196.097,548.968 198.258,549.106 200.419,549.244 202.58,549.382 204.741,549.521 206.902,549.659 209.063,549.797 211.224,549.935 213.385,550.073 215.546,550.212 217.707,550.35 219.868,550.488 222.029,550.626 224.19,550.765 226.351,550.903 228.512,551.041 230.673,551.179 232.834,551.317 234.995,551.456 237.156,551.594 239.317,551.732 241.478,551.87 243.639,552.009 245.8,552.147 247.961,552.285 250.122,552.423 252.282,552.561 254.443,552.7 256.604,552.838 258.765,552.976 260.926,553.114 263.087,553.253 265.248,553.391 267.409,553.529 269.57,553.667 271.731,553.806 273.892,553.944 276.053,554.082 278.214,554.22 280.375,554.358 282.536,554.497 284.697,554.635 286.858,554.773 289.019,554.911 291.18,555.05 293.341,555.188 295.502,555.326 297.663,555.464 299.824,555.602 301.985,555.741 304.146,555.879 306.307,556.017 308.468,556.155 310.629,556.294 312.79,556.432 314.951,556.57 317.112,556.708 319.273,556.846 321.434,556.985 323.595,557.123 325.756,557.261 327.917,557.399 330.078,557.538 332.239,557.676 334.4,557.814 336.561,557.952 338.722,558.09 340.883,558.229 343.044,558.367 345.205,558.505 347.366,558.643 349.527,558.782 351.688,558.92 353.849,559.058 356.01,559.196 358.171,559.335 360.332,559.473 362.493,559.611 364.653,559.749 366.814,559.887 368.975,560.026 371.136,560.164 373.297,560.302 375.458,560.44 377.619,560.579 379.78,560.717 381.941,560.855 384.102,560.993 386.263,561.131 388.424,561.27 390.585,561.408 392.746,561.546 394.907,561.684 397.068,561.823 399.229,561.961 401.39,562.099 403.551,562.237 405.712,562.375 407.873,562.514 410.034,562.652 412.195,562.79 414.356,562.928 416.517,563.067 418.678,563.205 420.839,563.343 423,563.481 425.161,563.619 427.322,563.758 429.483,563.896 431.644,564.034 433.805,564.172 435.966,564.311 438.127,564.449 440.288,564.587 442.449,564.725 444.61,564.864 446.771,565.002 448.932,565.14 451.093,565.278 453.254,565.416 455.415,565.555 457.576,565.693 459.737,565.831 461.898,565.969 464.059,566.108 466.22,566.246 468.381,566.384 470.542,566.522 472.703,566.66 474.864,566.799 477.024,566.937 479.185,567.075 481.346,567.213 483.507,567.352 485.668,567.49 487.829,567.628 489.99,567.766 492.151,567.904 494.312,568.043 496.473,568.181 498.634,568.319 500.795,568.457 502.956,568.596 505.117,568.734 507.278,568.872 509.439,569.01 511.6,569.148 513.761,569.287 515.922,569.425 518.083,569.563 520.244,569.701 522.405,569.84 524.566,569.978 526.727,570.116 528.888,570.254 531.049,570.392 533.21,570.531 535.371,570.669 537.532,570.807 539.693,570.945 541.854,571.084 544.015,571.222 546.176,571.36 548.337,571.498 550.498,571.637 552.659,571.775 554.82,571.913 556.981,572.051 559.142,572.189 561.303,572.328 563.464,572.466 565.625,572.604 567.786,572.742 569.947,572.881 572.108,573.019 574.269,573.157 576.43,573.295 578.591,573.433 580.752,573.572 582.913,573.71 585.074,573.848 587.235,573.986 589.396,574.125 591.556,574.263 593.717,574.401 595.878,574.539 598.039,574.677 600.2,574.816 602.361,574.954 604.522,575.092 606.683,575.23 608.844,575.369 611.005,575.507 613.166,575.645 615.327,575.783 617.488,575.921 619.649,576.06 621.81,576.198 623.971,576.336 626.132,576.474 628.293,576.613 630.454,576.751 632.615,576.889 634.776,577.027 636.937,577.166 639.098,577.304 641.259,577.442 643.42,577.58 645.581,577.718 647.742,577.857 649.903,577.995 652.064,578.133 654.225,578.271 656.386,578.41 658.547,578.548 660.708,578.686 662.869,578.824 665.03,578.962 667.191,579.101 669.352,579.239 671.513,579.377 673.674,579.515 675.835,579.654 677.996,579.792 680.157,579.93 682.318,580.068 684.479,580.206 686.64,580.345 688.801,580.483 690.962,580.621 693.123,580.759 695.284,580.898 697.445,581.036 699.606,581.174 701.767,581.312 703.927,581.45 706.088,581.589 708.249,581.727 710.41,581.865 712.571,582.003 714.732,582.142 716.893,582.28 719.054,582.418 721.215,582.556 723.376,582.695 725.537,582.833 727.698,582.971 729.859,583.109 732.02,583.247 734.181,583.386 736.342,583.524 738.503,583.662 740.664,583.8 742.825,583.939 744.986,584.077 747.147,584.215 749.308,584.353 751.469,584.491 753.63,584.63 755.791,584.768 757.952,584.906 760.113,585.044 762.274,585.183 764.435,585.321 766.596,585.459 768.757,585.597 770.918,585.735 773.079,585.874 775.24,586.012 777.401,586.15 779.562,586.288 781.723,586.427 783.884,586.565 786.045,586.703 788.206,586.841 790.367,586.979 792.528,587.118 794.689,587.256 796.85,587.394 799.011,587.532 801.172,587.671 803.333,587.809 805.494,587.947 807.655,588.085 809.816,588.224 811.977,588.362 814.138,588.5 816.298,588.638 818.459,588.776 820.62,588.915 822.781,589.053 824.942,589.191 827.103,589.329 829.264,589.468 831.425,589.606 833.586,589.744 835.747,589.882 837.908,590.02 840.069,590.159 842.23,590.297 844.391,590.435 846.552,590.573 848.713,590.712 850.874,590.85 853.035,590.988 855.196,591.126 857.357,591.264 859.518,591.403 861.679,591.541 863.84,591.679 866.001,591.817 868.162,591.956 870.323,592.094 872.484,592.232 874.645,592.37 876.806,592.508 878.967,592.647 881.128,592.785 883.289,592.923 885.45,593.061 887.611,593.2 889.772,593.338 891.933,593.476 894.094,593.614 896.255,593.753 898.416,593.891 900.577,594.029 902.738,594.167 904.899,594.305 907.06,594.444 909.221,594.582 911.382,594.72 913.543,594.858 915.704,594.997 917.865,595.135 920.026,595.273 922.187,595.411 924.348,595.549 926.509,595.688 928.669,595.826 930.83,595.964 932.991,596.102 935.152,596.241 937.313,596.379 939.474,596.517 941.635,596.655 943.796,596.793 945.957,596.932 948.118,597.07 950.279,597.208 952.44,597.346 954.601,597.485 956.762,597.623 958.923,597.761 961.084,597.899 963.245,598.037 965.406,598.176 967.567,598.314 969.728,598.452 971.889,598.59 974.05,598.729 976.211,598.867 978.372,599.005 980.533,599.143 982.694,599.282 984.855,599.42 987.016,599.558 989.177,599.696 991.338,599.834 993.499,599.973 995.66,600.111 997.821,600.249 999.982,600.387 1002.14,600.526 1004.3,600.664 1006.46,600.802 1008.63,600.94 1010.79,601.078 1012.95,601.217 1015.11,601.355 1017.27,601.493 1019.43,601.631 1021.59,601.77 1023.75,601.908 1025.91,602.046 1028.07,602.184 1030.24,602.322 1032.4,602.461 1034.56,602.599 1036.72,602.737 1038.88,602.875 1041.04,603.014 1043.2,603.152 1045.36,603.29 1047.52,603.428 1049.68,603.566 1051.85,603.705 1054.01,603.843 1056.17,603.981 1058.33,604.119 1060.49,604.258 1062.65,604.396 1064.81,604.534 1066.97,604.672 1069.13,604.81 1071.29,604.949 1073.46,605.087 1075.62,605.225 1077.78,605.363 1079.94,605.502 1082.1,605.64 1084.26,605.778 1086.42,605.916 1088.58,606.055 1090.74,606.193 1092.9,606.331 1095.07,606.469 1097.23,606.607 1099.39,606.746 1101.55,606.884 1103.71,607.022 1105.87,607.16 1108.03,607.299 1110.19,607.437 1112.35,607.575 1114.51,607.713 1116.67,607.851 1118.84,607.99 1121,608.128 1123.16,608.266 1125.32,608.404 1127.48,608.543 1129.64,608.681 1131.8,608.819 1133.96,608.957 1136.12,609.095 1138.28,609.234 1140.45,609.372 1142.61,609.51 1144.77,609.648 1146.93,609.787 1149.09,609.925 1151.25,610.063 1153.41,610.201 1155.57,610.339 1157.73,610.478 1159.89,610.616 1162.06,610.754 1164.22,610.892 1166.38,611.031 1168.54,611.169 1170.7,611.307 1172.86,611.445 1175.02,611.584 1177.18,611.722 1179.34,611.86 1181.5,611.998 1183.67,612.136 1185.83,612.275 1187.99,612.413 1190.15,612.551 1192.31,612.689 1194.47,612.828 1196.63,612.966 1198.79,613.104 1200.95,613.242 1203.11,613.38 1205.28,613.519 1207.44,613.657 1209.6,613.795 1211.76,613.933 1213.92,614.072 1216.08,614.21 1218.24,614.348 1220.4,614.486 1222.56,614.624 1224.72,614.763 1226.88,614.901 1229.05,615.039 1231.21,615.177 1233.37,615.316 1235.53,615.454 1237.69,615.592 1239.85,615.73 1242.01,615.868 1244.17,616.007 1246.33,616.145 1248.49,616.283 1250.66,616.421 1252.82,616.56 1254.98,616.698 1257.14,616.836 1259.3,616.974 1261.46,617.113 1263.62,617.251 1265.78,617.389 1267.94,617.527 1270.1,617.665 1272.27,617.804 1274.43,617.942 1276.59,618.08 1278.75,618.218 1280.91,618.357 1283.07,618.495 1285.23,618.633 1287.39,618.771 1289.55,618.909 1291.71,619.048 1293.88,619.186 1296.04,619.324 1298.2,619.462 1300.36,619.601 1302.52,619.739 1304.68,619.877 1306.84,620.015 1309,620.153 1311.16,620.292 1313.32,620.43 1315.49,620.568 1317.65,620.706 1319.81,620.845 1321.97,620.983 1324.13,621.121 1326.29,621.259 1328.45,621.397 1330.61,621.536 1332.77,621.674 1334.93,621.812 1337.09,621.95 1339.26,622.089 1341.42,622.227 1343.58,622.365 1345.74,622.503 1347.9,622.642 1350.06,622.78 1352.22,622.918 1354.38,623.056 1356.54,623.194 1358.7,623.333 1360.87,623.471 1363.03,623.609 1365.19,623.747 1367.35,623.886 1369.51,624.024 1371.67,624.162 1373.83,624.3 1375.99,624.438 1378.15,624.577 1380.31,624.715 1382.48,624.853 1384.64,624.991 1386.8,625.13 1388.96,625.268 1391.12,625.406 1393.28,625.544 1395.44,625.682 1397.6,625.821 1399.76,625.959 1401.92,626.097 1404.09,626.235 1406.25,626.374 1408.41,626.512 1410.57,626.65 1412.73,626.788 1414.89,626.926 1417.05,627.065 1419.21,627.203 1421.37,627.341 1423.53,627.479 1425.7,627.618 1427.86,627.756 1430.02,627.894 1432.18,628.032 1434.34,628.171 1436.5,628.309 1438.66,628.447 1440.82,628.585 1442.98,628.723 1445.14,628.862 1447.3,629 1449.47,629.138 1451.63,629.276 1453.79,629.415 1455.95,629.553 1458.11,629.691 1460.27,629.829 1462.43,629.967 1464.59,630.106 1466.75,630.244 1468.91,630.382 1471.08,630.52 1473.24,630.659 1475.4,630.797 1477.56,630.935 1479.72,631.073 1481.88,631.211 1484.04,631.35 1486.2,631.488 1488.36,631.626 1490.52,631.764 1492.69,631.903 1494.85,632.041 1497.01,632.179 1499.17,632.317 1501.33,632.455 1503.49,632.594 1505.65,632.732 1507.81,632.87 1509.97,633.008 1512.13,633.147 1514.3,633.285 1516.46,633.423 1518.62,633.561 1520.78,633.7 1522.94,633.838 1525.1,633.976 1527.26,634.114 1529.42,634.252 1531.58,634.391 1533.74,634.529 1535.91,634.667 1538.07,634.805 1540.23,634.944 1542.39,635.082 1544.55,635.22 1546.71,635.358 1548.87,635.496 1551.03,635.635 1553.19,635.773 1555.35,635.911 1557.51,636.049 1559.68,636.188 1561.84,636.326 1564,636.464 1566.16,636.602 1568.32,636.74 1570.48,636.879 1572.64,637.017 1574.8,637.155 1576.96,637.293 1579.12,637.432 1581.29,637.57 1583.45,637.708 1585.61,637.846 1587.77,637.984 1589.93,638.123 1592.09,638.261 1594.25,638.399 1596.41,638.537 1598.57,638.676 1600.73,638.814 1602.9,638.952 1605.06,639.09 1607.22,639.228 1609.38,639.367 1611.54,639.505 1613.7,639.643 1615.86,639.781 1618.02,639.92 1620.18,640.058 1622.34,640.196 1624.51,640.334 1626.67,640.473 1628.83,640.611 1630.99,640.749 1633.15,640.887 1635.31,641.025 1637.47,641.164 1639.63,641.302 1641.79,641.44 1643.95,641.578 1646.12,641.717 1648.28,641.855 1650.44,641.993 1652.6,642.131 1654.76,642.269 1656.92,642.408 1659.08,642.546 1661.24,642.684 1663.4,642.822 1665.56,642.961 1667.72,643.099 1669.89,643.237 1672.05,643.375 1674.21,643.513 1676.37,643.652 1678.53,643.79 1680.69,643.928 1682.85,644.066 1685.01,644.205 1687.17,644.343 1689.33,644.481 1691.5,644.619 1693.66,644.757 1695.82,644.896 1697.98,645.034 1700.14,645.172 1702.3,645.31 1704.46,645.449 1706.62,645.587 1708.78,645.725 1710.94,645.863 1713.11,646.002 1715.27,646.14 1717.43,646.278 1719.59,646.416 1721.75,646.554 1723.91,646.693 1726.07,646.831 1728.23,646.969 1730.39,647.107 1732.55,647.246 1734.72,647.384 1736.88,647.522 1739.04,647.66 1741.2,647.798 1743.36,647.937 1745.52,648.075 1747.68,648.213 1749.84,648.351 1752,648.49 1754.16,648.628 1756.33,648.766 1758.49,648.904 1760.65,649.042 1762.81,649.181 1764.97,649.319 1767.13,649.457 1769.29,649.595 1771.45,649.734 1773.61,649.872 1775.77,650.01 1777.93,650.148 1780.1,650.286 1782.26,650.425 1784.42,650.563 1786.58,650.701 1788.74,650.839 1790.9,650.978 1793.06,651.116 1795.22,651.254 1797.38,651.392 1799.54,651.531 1801.71,651.669 1803.87,651.807 1806.03,651.945 1808.19,652.083 1810.35,652.222 1812.51,652.36 1814.67,652.498 1816.83,652.636 1818.99,652.775 1821.15,652.913 1823.32,653.051 1825.48,653.189 1827.64,653.327 1829.8,653.466 1831.96,653.604 1834.12,653.742 1836.28,653.88 1838.44,654.019 1840.6,654.157 1842.76,654.295 1844.93,654.433 1847.09,654.571 1849.25,654.71 1851.41,654.848 1853.57,654.986 1855.73,655.124 1857.89,655.263 1860.05,655.401 1862.21,655.539 1864.37,655.677 1866.54,655.815 1868.7,655.954 1870.86,656.092 1873.02,656.23 1875.18,656.368 1877.34,656.507 1879.5,656.645 1881.66,656.783 1883.82,656.921 1885.98,657.06 1888.15,657.198 1890.31,657.336 1892.47,657.474 1894.63,657.612 1896.79,657.751 1898.95,657.889 1901.11,658.027 1903.27,658.165 1905.43,658.304 1907.59,658.442 1909.75,658.58 1911.92,658.718 1914.08,658.856 1916.24,658.995 1918.4,659.133 1920.56,659.271 1922.72,659.409 1924.88,659.548 1927.04,659.686 1929.2,659.824 1931.36,659.962 1933.53,660.1 1935.69,660.239 1937.85,660.377 1940.01,660.515 1942.17,660.653 1944.33,660.792 1946.49,660.93 1948.65,661.068 1950.81,661.206 1952.97,661.344 1955.14,661.483 1957.3,661.621 1959.46,661.759 1961.62,661.897 1963.78,662.036 1965.94,662.174 1968.1,662.312 1970.26,662.45 1972.42,662.589 1974.58,662.727 1976.75,662.865 1978.91,663.003 1981.07,663.141 1983.23,663.28 1985.39,663.418 1987.55,663.556 1989.71,663.694 1991.87,663.833 1994.03,663.971 1996.19,664.109 1998.36,664.247 2000.52,664.385 2002.68,664.524 2004.84,664.662 2007,664.8 2009.16,664.938 2011.32,665.077 2013.48,665.215 2015.64,665.353 2017.8,665.491 2019.96,665.629 2022.13,665.768 2024.29,665.906 2026.45,666.044 2028.61,666.182 2030.77,666.321 2032.93,666.459 2035.09,666.597 2037.25,666.735 2039.41,666.873 2041.57,667.012 2043.74,667.15 2045.9,667.288 2048.06,667.426 2050.22,667.565 2052.38,667.703 2054.54,667.841 2056.7,667.979 2058.86,668.118 2061.02,668.256 2063.18,668.394 2065.35,668.532 2067.51,668.67 2069.67,668.809 2071.83,668.947 2073.99,669.085 2076.15,669.223 2078.31,669.362 2080.47,669.5 2082.63,669.638 2084.79,669.776 2086.96,669.914 2089.12,670.053 2091.28,670.191 2093.44,670.329 2095.6,670.467 2097.76,670.606 2099.92,670.744 2102.08,670.882 2104.24,671.02 2106.4,671.158 2108.57,671.297 2110.73,671.435 2112.89,671.573 2115.05,671.711 2117.21,671.85 2119.37,671.988 2121.53,672.126 2123.69,672.264 2125.85,672.402 2128.01,672.541 2130.17,672.679 2132.34,672.817 2134.5,672.955 2136.66,673.094 2138.82,673.232 2140.98,673.37 2143.14,673.508 2145.3,673.647 2147.46,673.785 2149.62,673.923 2151.78,674.061 2153.95,674.199 2156.11,674.338 2158.27,674.476 2160.43,674.614 2162.59,674.752 2164.75,674.891 2166.91,675.029 2169.07,675.167 2171.23,675.305 2173.39,675.443 2175.56,675.582 2177.72,675.72 2179.88,675.858 2182.04,675.996 2184.2,676.135 2186.36,676.273 2188.52,676.411 2190.68,676.549 2192.84,676.687 2195,676.826 2197.17,676.964 2199.33,677.102 2201.49,677.24 2203.65,677.379 2205.81,677.517 2207.97,677.655 2210.13,677.793 2212.29,677.931 2214.45,678.07 2216.61,678.208 2218.78,678.346 2220.94,678.484 2223.1,678.623 2225.26,678.761 2227.42,678.899 2229.58,679.037 2231.74,679.175 2233.9,679.314 2236.06,679.452 2238.22,679.59 2240.38,679.728 2242.55,679.867 2244.71,680.005 2246.87,680.143 2249.03,680.281 2251.19,680.42 2253.35,680.558 2255.51,680.696 2257.67,680.834 2259.83,680.972 2261.99,681.111 2264.16,681.249 2266.32,681.387 2268.48,681.525 2270.64,681.664 2272.8,681.802 2274.96,681.94 2277.12,682.078 2279.28,682.216 2281.44,682.355 2283.6,682.493 2285.77,682.631 2287.93,682.769 2290.09,682.908 2292.25,683.046 2294.41,683.184 2296.57,683.322 2298.73,683.46 2300.89,683.599 2303.05,683.737 2305.21,683.875 2307.38,684.013 2309.54,684.152 2311.7,684.29 2313.86,684.428 2316.02,684.566 2318.18,684.704 2320.34,684.843 2322.5,684.981 2324.66,685.119 2326.82,685.257 2328.99,685.396 2331.15,685.534 2333.31,685.672 2335.47,685.81 2337.63,685.949 2339.79,686.087 2341.95,686.225 2344.11,686.363 2346.27,686.501 2348.43,686.64 2350.59,686.778 2352.76,686.916 "/>
<circle clip-path="url(#clip182)" cx="193.936" cy="522.177" r="14.4" fill="#000000" fill-rule="evenodd" fill-opacity="1" stroke="none"/>
<circle clip-path="url(#clip182)" cx="409.818" cy="566.354" r="14.4" fill="#000000" fill-rule="evenodd" fill-opacity="1" stroke="none"/>
<circle clip-path="url(#clip182)" cx="625.7" cy="580.526" r="14.4" fill="#000000" fill-rule="evenodd" fill-opacity="1" stroke="none"/>
<circle clip-path="url(#clip182)" cx="841.582" cy="608.981" r="14.4" fill="#000000" fill-rule="evenodd" fill-opacity="1" stroke="none"/>
<circle clip-path="url(#clip182)" cx="1057.46" cy="593.736" r="14.4" fill="#000000" fill-rule="evenodd" fill-opacity="1" stroke="none"/>
<circle clip-path="url(#clip182)" cx="1273.35" cy="593.932" r="14.4" fill="#000000" fill-rule="evenodd" fill-opacity="1" stroke="none"/>
<circle clip-path="url(#clip182)" cx="1489.23" cy="626.225" r="14.4" fill="#000000" fill-rule="evenodd" fill-opacity="1" stroke="none"/>
<circle clip-path="url(#clip182)" cx="1705.11" cy="654.661" r="14.4" fill="#000000" fill-rule="evenodd" fill-opacity="1" stroke="none"/>
<circle clip-path="url(#clip182)" cx="1920.99" cy="640.696" r="14.4" fill="#000000" fill-rule="evenodd" fill-opacity="1" stroke="none"/>
<circle clip-path="url(#clip182)" cx="2136.87" cy="661.562" r="14.4" fill="#000000" fill-rule="evenodd" fill-opacity="1" stroke="none"/>
<circle clip-path="url(#clip182)" cx="2352.76" cy="681.795" r="14.4" fill="#000000" fill-rule="evenodd" fill-opacity="1" stroke="none"/>
</svg>
