<?xml version="1.0" encoding="utf-8"?>
<svg xmlns="http://www.w3.org/2000/svg" xmlns:xlink="http://www.w3.org/1999/xlink" width="600" height="400" viewBox="0 0 2400 1600">
<defs>
  <clipPath id="clip110">
    <rect x="0" y="0" width="2400" height="1600"/>
  </clipPath>
</defs>
<path clip-path="url(#clip110)" d="
M0 1600 L2400 1600 L2400 0 L0 0  Z
  " fill="#ffffff" fill-rule="evenodd" fill-opacity="1"/>
<defs>
  <clipPath id="clip111">
    <rect x="480" y="0" width="1681" height="1600"/>
  </clipPath>
</defs>
<path clip-path="url(#clip110)" d="
M205.121 1423.18 L2352.76 1423.18 L2352.76 47.2441 L205.121 47.2441  Z
  " fill="#ffffff" fill-rule="evenodd" fill-opacity="1"/>
<defs>
  <clipPath id="clip112">
    <rect x="205" y="47" width="2149" height="1377"/>
  </clipPath>
</defs>
<polyline clip-path="url(#clip112)" style="stroke:#000000; stroke-linecap:butt; stroke-linejoin:round; stroke-width:2; stroke-opacity:0.1; fill:none" points="
  261.843,1423.18 261.843,47.2441 
  "/>
<polyline clip-path="url(#clip112)" style="stroke:#000000; stroke-linecap:butt; stroke-linejoin:round; stroke-width:2; stroke-opacity:0.1; fill:none" points="
  667.869,1423.18 667.869,47.2441 
  "/>
<polyline clip-path="url(#clip112)" style="stroke:#000000; stroke-linecap:butt; stroke-linejoin:round; stroke-width:2; stroke-opacity:0.1; fill:none" points="
  1073.9,1423.18 1073.9,47.2441 
  "/>
<polyline clip-path="url(#clip112)" style="stroke:#000000; stroke-linecap:butt; stroke-linejoin:round; stroke-width:2; stroke-opacity:0.1; fill:none" points="
  1479.92,1423.18 1479.92,47.2441 
  "/>
<polyline clip-path="url(#clip112)" style="stroke:#000000; stroke-linecap:butt; stroke-linejoin:round; stroke-width:2; stroke-opacity:0.1; fill:none" points="
  1885.95,1423.18 1885.95,47.2441 
  "/>
<polyline clip-path="url(#clip112)" style="stroke:#000000; stroke-linecap:butt; stroke-linejoin:round; stroke-width:2; stroke-opacity:0.1; fill:none" points="
  2291.97,1423.18 2291.97,47.2441 
  "/>
<polyline clip-path="url(#clip110)" style="stroke:#000000; stroke-linecap:butt; stroke-linejoin:round; stroke-width:4; stroke-opacity:1; fill:none" points="
  205.121,1423.18 2352.76,1423.18 
  "/>
<polyline clip-path="url(#clip110)" style="stroke:#000000; stroke-linecap:butt; stroke-linejoin:round; stroke-width:4; stroke-opacity:1; fill:none" points="
  261.843,1423.18 261.843,1404.28 
  "/>
<polyline clip-path="url(#clip110)" style="stroke:#000000; stroke-linecap:butt; stroke-linejoin:round; stroke-width:4; stroke-opacity:1; fill:none" points="
  667.869,1423.18 667.869,1404.28 
  "/>
<polyline clip-path="url(#clip110)" style="stroke:#000000; stroke-linecap:butt; stroke-linejoin:round; stroke-width:4; stroke-opacity:1; fill:none" points="
  1073.9,1423.18 1073.9,1404.28 
  "/>
<polyline clip-path="url(#clip110)" style="stroke:#000000; stroke-linecap:butt; stroke-linejoin:round; stroke-width:4; stroke-opacity:1; fill:none" points="
  1479.92,1423.18 1479.92,1404.28 
  "/>
<polyline clip-path="url(#clip110)" style="stroke:#000000; stroke-linecap:butt; stroke-linejoin:round; stroke-width:4; stroke-opacity:1; fill:none" points="
  1885.95,1423.18 1885.95,1404.28 
  "/>
<polyline clip-path="url(#clip110)" style="stroke:#000000; stroke-linecap:butt; stroke-linejoin:round; stroke-width:4; stroke-opacity:1; fill:none" points="
  2291.97,1423.18 2291.97,1404.28 
  "/>
<path clip-path="url(#clip110)" d="M261.843 1454.1 Q258.232 1454.1 256.403 1457.66 Q254.598 1461.2 254.598 1468.33 Q254.598 1475.44 256.403 1479.01 Q258.232 1482.55 261.843 1482.55 Q265.477 1482.55 267.283 1479.01 Q269.111 1475.44 269.111 1468.33 Q269.111 1461.2 267.283 1457.66 Q265.477 1454.1 261.843 1454.1 M261.843 1450.39 Q267.653 1450.39 270.709 1455 Q273.787 1459.58 273.787 1468.33 Q273.787 1477.06 270.709 1481.67 Q267.653 1486.25 261.843 1486.25 Q256.033 1486.25 252.954 1481.67 Q249.898 1477.06 249.898 1468.33 Q249.898 1459.58 252.954 1455 Q256.033 1450.39 261.843 1450.39 Z" fill="#000000" fill-rule="evenodd" fill-opacity="1" /><path clip-path="url(#clip110)" d="M627.476 1481.64 L635.115 1481.64 L635.115 1455.28 L626.804 1456.95 L626.804 1452.69 L635.068 1451.02 L639.744 1451.02 L639.744 1481.64 L647.383 1481.64 L647.383 1485.58 L627.476 1485.58 L627.476 1481.64 Z" fill="#000000" fill-rule="evenodd" fill-opacity="1" /><path clip-path="url(#clip110)" d="M666.827 1454.1 Q663.216 1454.1 661.388 1457.66 Q659.582 1461.2 659.582 1468.33 Q659.582 1475.44 661.388 1479.01 Q663.216 1482.55 666.827 1482.55 Q670.462 1482.55 672.267 1479.01 Q674.096 1475.44 674.096 1468.33 Q674.096 1461.2 672.267 1457.66 Q670.462 1454.1 666.827 1454.1 M666.827 1450.39 Q672.638 1450.39 675.693 1455 Q678.772 1459.58 678.772 1468.33 Q678.772 1477.06 675.693 1481.67 Q672.638 1486.25 666.827 1486.25 Q661.017 1486.25 657.939 1481.67 Q654.883 1477.06 654.883 1468.33 Q654.883 1459.58 657.939 1455 Q661.017 1450.39 666.827 1450.39 Z" fill="#000000" fill-rule="evenodd" fill-opacity="1" /><path clip-path="url(#clip110)" d="M696.989 1454.1 Q693.378 1454.1 691.549 1457.66 Q689.744 1461.2 689.744 1468.33 Q689.744 1475.44 691.549 1479.01 Q693.378 1482.55 696.989 1482.55 Q700.623 1482.55 702.429 1479.01 Q704.258 1475.44 704.258 1468.33 Q704.258 1461.2 702.429 1457.66 Q700.623 1454.1 696.989 1454.1 M696.989 1450.39 Q702.799 1450.39 705.855 1455 Q708.934 1459.58 708.934 1468.33 Q708.934 1477.06 705.855 1481.67 Q702.799 1486.25 696.989 1486.25 Q691.179 1486.25 688.1 1481.67 Q685.045 1477.06 685.045 1468.33 Q685.045 1459.58 688.1 1455 Q691.179 1450.39 696.989 1450.39 Z" fill="#000000" fill-rule="evenodd" fill-opacity="1" /><path clip-path="url(#clip110)" d="M1037.59 1481.64 L1053.91 1481.64 L1053.91 1485.58 L1031.96 1485.58 L1031.96 1481.64 Q1034.62 1478.89 1039.21 1474.26 Q1043.81 1469.61 1044.99 1468.27 Q1047.24 1465.74 1048.12 1464.01 Q1049.02 1462.25 1049.02 1460.56 Q1049.02 1457.8 1047.08 1456.07 Q1045.16 1454.33 1042.06 1454.33 Q1039.86 1454.33 1037.4 1455.09 Q1034.97 1455.86 1032.19 1457.41 L1032.19 1452.69 Q1035.02 1451.55 1037.47 1450.97 Q1039.93 1450.39 1041.96 1450.39 Q1047.33 1450.39 1050.53 1453.08 Q1053.72 1455.77 1053.72 1460.26 Q1053.72 1462.39 1052.91 1464.31 Q1052.12 1466.2 1050.02 1468.8 Q1049.44 1469.47 1046.34 1472.69 Q1043.24 1475.88 1037.59 1481.64 Z" fill="#000000" fill-rule="evenodd" fill-opacity="1" /><path clip-path="url(#clip110)" d="M1073.72 1454.1 Q1070.11 1454.1 1068.28 1457.66 Q1066.48 1461.2 1066.48 1468.33 Q1066.48 1475.44 1068.28 1479.01 Q1070.11 1482.55 1073.72 1482.55 Q1077.36 1482.55 1079.16 1479.01 Q1080.99 1475.44 1080.99 1468.33 Q1080.99 1461.2 1079.16 1457.66 Q1077.36 1454.1 1073.72 1454.1 M1073.72 1450.39 Q1079.53 1450.39 1082.59 1455 Q1085.67 1459.58 1085.67 1468.33 Q1085.67 1477.06 1082.59 1481.67 Q1079.53 1486.25 1073.72 1486.25 Q1067.91 1486.25 1064.83 1481.67 Q1061.78 1477.06 1061.78 1468.33 Q1061.78 1459.58 1064.83 1455 Q1067.91 1450.39 1073.72 1450.39 Z" fill="#000000" fill-rule="evenodd" fill-opacity="1" /><path clip-path="url(#clip110)" d="M1103.88 1454.1 Q1100.27 1454.1 1098.44 1457.66 Q1096.64 1461.2 1096.64 1468.33 Q1096.64 1475.44 1098.44 1479.01 Q1100.27 1482.55 1103.88 1482.55 Q1107.52 1482.55 1109.32 1479.01 Q1111.15 1475.44 1111.15 1468.33 Q1111.15 1461.2 1109.32 1457.66 Q1107.52 1454.1 1103.88 1454.1 M1103.88 1450.39 Q1109.69 1450.39 1112.75 1455 Q1115.83 1459.58 1115.83 1468.33 Q1115.83 1477.06 1112.75 1481.67 Q1109.69 1486.25 1103.88 1486.25 Q1098.07 1486.25 1094.99 1481.67 Q1091.94 1477.06 1091.94 1468.33 Q1091.94 1459.58 1094.99 1455 Q1098.07 1450.39 1103.88 1450.39 Z" fill="#000000" fill-rule="evenodd" fill-opacity="1" /><path clip-path="url(#clip110)" d="M1453.68 1466.95 Q1457.04 1467.66 1458.91 1469.93 Q1460.81 1472.2 1460.81 1475.53 Q1460.81 1480.65 1457.29 1483.45 Q1453.78 1486.25 1447.29 1486.25 Q1445.12 1486.25 1442.8 1485.81 Q1440.51 1485.39 1438.06 1484.54 L1438.06 1480.02 Q1440 1481.16 1442.32 1481.74 Q1444.63 1482.32 1447.16 1482.32 Q1451.55 1482.32 1453.85 1480.58 Q1456.16 1478.84 1456.16 1475.53 Q1456.16 1472.48 1454.01 1470.77 Q1451.88 1469.03 1448.06 1469.03 L1444.03 1469.03 L1444.03 1465.19 L1448.24 1465.19 Q1451.69 1465.19 1453.52 1463.82 Q1455.35 1462.43 1455.35 1459.84 Q1455.35 1457.18 1453.45 1455.77 Q1451.58 1454.33 1448.06 1454.33 Q1446.14 1454.33 1443.94 1454.75 Q1441.74 1455.16 1439.1 1456.04 L1439.1 1451.88 Q1441.76 1451.14 1444.08 1450.77 Q1446.41 1450.39 1448.47 1450.39 Q1453.8 1450.39 1456.9 1452.83 Q1460 1455.23 1460 1459.35 Q1460 1462.22 1458.36 1464.21 Q1456.72 1466.18 1453.68 1466.95 Z" fill="#000000" fill-rule="evenodd" fill-opacity="1" /><path clip-path="url(#clip110)" d="M1479.68 1454.1 Q1476.07 1454.1 1474.24 1457.66 Q1472.43 1461.2 1472.43 1468.33 Q1472.43 1475.44 1474.24 1479.01 Q1476.07 1482.55 1479.68 1482.55 Q1483.31 1482.55 1485.12 1479.01 Q1486.95 1475.44 1486.95 1468.33 Q1486.95 1461.2 1485.12 1457.66 Q1483.31 1454.1 1479.68 1454.1 M1479.68 1450.39 Q1485.49 1450.39 1488.54 1455 Q1491.62 1459.58 1491.62 1468.33 Q1491.62 1477.06 1488.54 1481.67 Q1485.49 1486.25 1479.68 1486.25 Q1473.87 1486.25 1470.79 1481.67 Q1467.73 1477.06 1467.73 1468.33 Q1467.73 1459.58 1470.79 1455 Q1473.87 1450.39 1479.68 1450.39 Z" fill="#000000" fill-rule="evenodd" fill-opacity="1" /><path clip-path="url(#clip110)" d="M1509.84 1454.1 Q1506.23 1454.1 1504.4 1457.66 Q1502.59 1461.2 1502.59 1468.33 Q1502.59 1475.44 1504.4 1479.01 Q1506.23 1482.55 1509.84 1482.55 Q1513.47 1482.55 1515.28 1479.01 Q1517.11 1475.44 1517.11 1468.33 Q1517.11 1461.2 1515.28 1457.66 Q1513.47 1454.1 1509.84 1454.1 M1509.84 1450.39 Q1515.65 1450.39 1518.71 1455 Q1521.78 1459.58 1521.78 1468.33 Q1521.78 1477.06 1518.71 1481.67 Q1515.65 1486.25 1509.84 1486.25 Q1504.03 1486.25 1500.95 1481.67 Q1497.9 1477.06 1497.9 1468.33 Q1497.9 1459.58 1500.95 1455 Q1504.03 1450.39 1509.84 1450.39 Z" fill="#000000" fill-rule="evenodd" fill-opacity="1" /><path clip-path="url(#clip110)" d="M1859.04 1455.09 L1847.23 1473.54 L1859.04 1473.54 L1859.04 1455.09 M1857.81 1451.02 L1863.69 1451.02 L1863.69 1473.54 L1868.62 1473.54 L1868.62 1477.43 L1863.69 1477.43 L1863.69 1485.58 L1859.04 1485.58 L1859.04 1477.43 L1843.44 1477.43 L1843.44 1472.92 L1857.81 1451.02 Z" fill="#000000" fill-rule="evenodd" fill-opacity="1" /><path clip-path="url(#clip110)" d="M1886.35 1454.1 Q1882.74 1454.1 1880.91 1457.66 Q1879.11 1461.2 1879.11 1468.33 Q1879.11 1475.44 1880.91 1479.01 Q1882.74 1482.55 1886.35 1482.55 Q1889.99 1482.55 1891.79 1479.01 Q1893.62 1475.44 1893.62 1468.33 Q1893.62 1461.2 1891.79 1457.66 Q1889.99 1454.1 1886.35 1454.1 M1886.35 1450.39 Q1892.16 1450.39 1895.22 1455 Q1898.3 1459.58 1898.3 1468.33 Q1898.3 1477.06 1895.22 1481.67 Q1892.16 1486.25 1886.35 1486.25 Q1880.54 1486.25 1877.46 1481.67 Q1874.41 1477.06 1874.41 1468.33 Q1874.41 1459.58 1877.46 1455 Q1880.54 1450.39 1886.35 1450.39 Z" fill="#000000" fill-rule="evenodd" fill-opacity="1" /><path clip-path="url(#clip110)" d="M1916.51 1454.1 Q1912.9 1454.1 1911.07 1457.66 Q1909.27 1461.2 1909.27 1468.33 Q1909.27 1475.44 1911.07 1479.01 Q1912.9 1482.55 1916.51 1482.55 Q1920.15 1482.55 1921.95 1479.01 Q1923.78 1475.44 1923.78 1468.33 Q1923.78 1461.2 1921.95 1457.66 Q1920.15 1454.1 1916.51 1454.1 M1916.51 1450.39 Q1922.32 1450.39 1925.38 1455 Q1928.46 1459.58 1928.46 1468.33 Q1928.46 1477.06 1925.38 1481.67 Q1922.32 1486.25 1916.51 1486.25 Q1910.7 1486.25 1907.63 1481.67 Q1904.57 1477.06 1904.57 1468.33 Q1904.57 1459.58 1907.63 1455 Q1910.7 1450.39 1916.51 1450.39 Z" fill="#000000" fill-rule="evenodd" fill-opacity="1" /><path clip-path="url(#clip110)" d="M2251.59 1451.02 L2269.95 1451.02 L2269.95 1454.96 L2255.87 1454.96 L2255.87 1463.43 Q2256.89 1463.08 2257.91 1462.92 Q2258.93 1462.73 2259.95 1462.73 Q2265.74 1462.73 2269.12 1465.9 Q2272.49 1469.08 2272.49 1474.49 Q2272.49 1480.07 2269.02 1483.17 Q2265.55 1486.25 2259.23 1486.25 Q2257.05 1486.25 2254.79 1485.88 Q2252.54 1485.51 2250.13 1484.77 L2250.13 1480.07 Q2252.22 1481.2 2254.44 1481.76 Q2256.66 1482.32 2259.14 1482.32 Q2263.14 1482.32 2265.48 1480.21 Q2267.82 1478.1 2267.82 1474.49 Q2267.82 1470.88 2265.48 1468.77 Q2263.14 1466.67 2259.14 1466.67 Q2257.26 1466.67 2255.39 1467.08 Q2253.54 1467.5 2251.59 1468.38 L2251.59 1451.02 Z" fill="#000000" fill-rule="evenodd" fill-opacity="1" /><path clip-path="url(#clip110)" d="M2291.71 1454.1 Q2288.1 1454.1 2286.27 1457.66 Q2284.46 1461.2 2284.46 1468.33 Q2284.46 1475.44 2286.27 1479.01 Q2288.1 1482.55 2291.71 1482.55 Q2295.34 1482.55 2297.15 1479.01 Q2298.98 1475.44 2298.98 1468.33 Q2298.98 1461.2 2297.15 1457.66 Q2295.34 1454.1 2291.71 1454.1 M2291.71 1450.39 Q2297.52 1450.39 2300.57 1455 Q2303.65 1459.58 2303.65 1468.33 Q2303.65 1477.06 2300.57 1481.67 Q2297.52 1486.25 2291.71 1486.25 Q2285.9 1486.25 2282.82 1481.67 Q2279.76 1477.06 2279.76 1468.33 Q2279.76 1459.58 2282.82 1455 Q2285.9 1450.39 2291.71 1450.39 Z" fill="#000000" fill-rule="evenodd" fill-opacity="1" /><path clip-path="url(#clip110)" d="M2321.87 1454.1 Q2318.26 1454.1 2316.43 1457.66 Q2314.62 1461.2 2314.62 1468.33 Q2314.62 1475.44 2316.43 1479.01 Q2318.26 1482.55 2321.87 1482.55 Q2325.5 1482.55 2327.31 1479.01 Q2329.14 1475.44 2329.14 1468.33 Q2329.14 1461.2 2327.31 1457.66 Q2325.5 1454.1 2321.87 1454.1 M2321.87 1450.39 Q2327.68 1450.39 2330.74 1455 Q2333.81 1459.58 2333.81 1468.33 Q2333.81 1477.06 2330.74 1481.67 Q2327.68 1486.25 2321.87 1486.25 Q2316.06 1486.25 2312.98 1481.67 Q2309.93 1477.06 2309.93 1468.33 Q2309.93 1459.58 2312.98 1455 Q2316.06 1450.39 2321.87 1450.39 Z" fill="#000000" fill-rule="evenodd" fill-opacity="1" /><path clip-path="url(#clip110)" d="M1063.94 1539.37 L1054.67 1539.37 L1052 1550 L1061.33 1550 L1063.94 1539.37 M1059.16 1521.26 L1055.85 1534.46 L1065.15 1534.46 L1068.49 1521.26 L1073.58 1521.26 L1070.3 1534.46 L1080.23 1534.46 L1080.23 1539.37 L1069.06 1539.37 L1066.45 1550 L1076.57 1550 L1076.57 1554.87 L1065.21 1554.87 L1061.9 1568.04 L1056.81 1568.04 L1060.09 1554.87 L1050.76 1554.87 L1047.48 1568.04 L1042.36 1568.04 L1045.67 1554.87 L1035.64 1554.87 L1035.64 1550 L1046.84 1550 L1049.52 1539.37 L1039.27 1539.37 L1039.27 1534.46 L1050.76 1534.46 L1054.01 1521.26 L1059.16 1521.26 Z" fill="#000000" fill-rule="evenodd" fill-opacity="1" /><path clip-path="url(#clip110)" d="M1125.91 1536.5 Q1121.2 1536.5 1118.46 1540.19 Q1115.72 1543.85 1115.72 1550.25 Q1115.72 1556.65 1118.43 1560.34 Q1121.16 1564 1125.91 1564 Q1130.59 1564 1133.32 1560.31 Q1136.06 1556.62 1136.06 1550.25 Q1136.06 1543.92 1133.32 1540.23 Q1130.59 1536.5 1125.91 1536.5 M1125.91 1531.54 Q1133.55 1531.54 1137.91 1536.5 Q1142.27 1541.47 1142.27 1550.25 Q1142.27 1559 1137.91 1564 Q1133.55 1568.97 1125.91 1568.97 Q1118.24 1568.97 1113.88 1564 Q1109.55 1559 1109.55 1550.25 Q1109.55 1541.47 1113.88 1536.5 Q1118.24 1531.54 1125.91 1531.54 Z" fill="#000000" fill-rule="evenodd" fill-opacity="1" /><path clip-path="url(#clip110)" d="M1177.56 1550.25 Q1177.56 1543.79 1174.89 1540.13 Q1172.25 1536.44 1167.6 1536.44 Q1162.96 1536.44 1160.28 1540.13 Q1157.64 1543.79 1157.64 1550.25 Q1157.64 1556.71 1160.28 1560.4 Q1162.96 1564.07 1167.6 1564.07 Q1172.25 1564.07 1174.89 1560.4 Q1177.56 1556.71 1177.56 1550.25 M1157.64 1537.81 Q1159.49 1534.62 1162.29 1533.1 Q1165.12 1531.54 1169.03 1531.54 Q1175.53 1531.54 1179.57 1536.69 Q1183.64 1541.85 1183.64 1550.25 Q1183.64 1558.65 1179.57 1563.81 Q1175.53 1568.97 1169.03 1568.97 Q1165.12 1568.97 1162.29 1567.44 Q1159.49 1565.88 1157.64 1562.7 L1157.64 1568.04 L1151.75 1568.04 L1151.75 1518.52 L1157.64 1518.52 L1157.64 1537.81 Z" fill="#000000" fill-rule="evenodd" fill-opacity="1" /><path clip-path="url(#clip110)" d="M1216.08 1533.45 L1216.08 1538.98 Q1213.59 1537.71 1210.92 1537.07 Q1208.25 1536.44 1205.38 1536.44 Q1201.02 1536.44 1198.83 1537.77 Q1196.66 1539.11 1196.66 1541.79 Q1196.66 1543.82 1198.22 1545 Q1199.78 1546.15 1204.49 1547.2 L1206.5 1547.64 Q1212.74 1548.98 1215.35 1551.43 Q1217.99 1553.85 1217.99 1558.21 Q1217.99 1563.17 1214.04 1566.07 Q1210.13 1568.97 1203.25 1568.97 Q1200.39 1568.97 1197.27 1568.39 Q1194.18 1567.85 1190.74 1566.74 L1190.74 1560.69 Q1193.99 1562.38 1197.14 1563.24 Q1200.29 1564.07 1203.38 1564.07 Q1207.52 1564.07 1209.74 1562.66 Q1211.97 1561.23 1211.97 1558.65 Q1211.97 1556.27 1210.35 1554.99 Q1208.76 1553.72 1203.31 1552.54 L1201.28 1552.07 Q1195.83 1550.92 1193.42 1548.56 Q1191 1546.18 1191 1542.04 Q1191 1537.01 1194.56 1534.27 Q1198.13 1531.54 1204.68 1531.54 Q1207.93 1531.54 1210.79 1532.01 Q1213.66 1532.49 1216.08 1533.45 Z" fill="#000000" fill-rule="evenodd" fill-opacity="1" /><path clip-path="url(#clip110)" d="M1257.8 1548.76 L1257.8 1551.62 L1230.88 1551.62 Q1231.26 1557.67 1234.51 1560.85 Q1237.78 1564 1243.61 1564 Q1246.98 1564 1250.13 1563.17 Q1253.32 1562.35 1256.44 1560.69 L1256.44 1566.23 Q1253.28 1567.57 1249.97 1568.27 Q1246.66 1568.97 1243.26 1568.97 Q1234.73 1568.97 1229.73 1564 Q1224.77 1559.04 1224.77 1550.57 Q1224.77 1541.82 1229.48 1536.69 Q1234.22 1531.54 1242.24 1531.54 Q1249.43 1531.54 1253.6 1536.18 Q1257.8 1540.8 1257.8 1548.76 M1251.95 1547.04 Q1251.88 1542.23 1249.24 1539.37 Q1246.63 1536.5 1242.3 1536.5 Q1237.4 1536.5 1234.44 1539.27 Q1231.51 1542.04 1231.07 1547.07 L1251.95 1547.04 Z" fill="#000000" fill-rule="evenodd" fill-opacity="1" /><path clip-path="url(#clip110)" d="M1288.07 1537.87 Q1287.09 1537.3 1285.91 1537.04 Q1284.76 1536.76 1283.36 1536.76 Q1278.4 1536.76 1275.72 1540 Q1273.08 1543.22 1273.08 1549.27 L1273.08 1568.04 L1267.19 1568.04 L1267.19 1532.4 L1273.08 1532.4 L1273.08 1537.93 Q1274.93 1534.69 1277.89 1533.13 Q1280.85 1531.54 1285.08 1531.54 Q1285.69 1531.54 1286.42 1531.63 Q1287.15 1531.7 1288.04 1531.85 L1288.07 1537.87 Z" fill="#000000" fill-rule="evenodd" fill-opacity="1" /><path clip-path="url(#clip110)" d="M1290.01 1532.4 L1296.22 1532.4 L1307.36 1562.31 L1318.5 1532.4 L1324.71 1532.4 L1311.34 1568.04 L1303.38 1568.04 L1290.01 1532.4 Z" fill="#000000" fill-rule="evenodd" fill-opacity="1" /><path clip-path="url(#clip110)" d="M1348.99 1550.12 Q1341.9 1550.12 1339.16 1551.75 Q1336.42 1553.37 1336.42 1557.29 Q1336.42 1560.4 1338.46 1562.25 Q1340.53 1564.07 1344.06 1564.07 Q1348.93 1564.07 1351.86 1560.63 Q1354.82 1557.16 1354.82 1551.43 L1354.82 1550.12 L1348.99 1550.12 M1360.67 1547.71 L1360.67 1568.04 L1354.82 1568.04 L1354.82 1562.63 Q1352.81 1565.88 1349.82 1567.44 Q1346.83 1568.97 1342.5 1568.97 Q1337.03 1568.97 1333.78 1565.91 Q1330.56 1562.82 1330.56 1557.67 Q1330.56 1551.65 1334.57 1548.6 Q1338.62 1545.54 1346.61 1545.54 L1354.82 1545.54 L1354.82 1544.97 Q1354.82 1540.93 1352.14 1538.73 Q1349.5 1536.5 1344.7 1536.5 Q1341.64 1536.5 1338.74 1537.23 Q1335.85 1537.97 1333.17 1539.43 L1333.17 1534.02 Q1336.39 1532.78 1339.41 1532.17 Q1342.44 1531.54 1345.3 1531.54 Q1353.04 1531.54 1356.85 1535.55 Q1360.67 1539.56 1360.67 1547.71 Z" fill="#000000" fill-rule="evenodd" fill-opacity="1" /><path clip-path="url(#clip110)" d="M1378.53 1522.27 L1378.53 1532.4 L1390.59 1532.4 L1390.59 1536.95 L1378.53 1536.95 L1378.53 1556.3 Q1378.53 1560.66 1379.71 1561.9 Q1380.92 1563.14 1384.58 1563.14 L1390.59 1563.14 L1390.59 1568.04 L1384.58 1568.04 Q1377.8 1568.04 1375.22 1565.53 Q1372.64 1562.98 1372.64 1556.3 L1372.64 1536.95 L1368.34 1536.95 L1368.34 1532.4 L1372.64 1532.4 L1372.64 1522.27 L1378.53 1522.27 Z" fill="#000000" fill-rule="evenodd" fill-opacity="1" /><path clip-path="url(#clip110)" d="M1398.3 1532.4 L1404.15 1532.4 L1404.15 1568.04 L1398.3 1568.04 L1398.3 1532.4 M1398.3 1518.52 L1404.15 1518.52 L1404.15 1525.93 L1398.3 1525.93 L1398.3 1518.52 Z" fill="#000000" fill-rule="evenodd" fill-opacity="1" /><path clip-path="url(#clip110)" d="M1430.22 1536.5 Q1425.51 1536.5 1422.77 1540.19 Q1420.03 1543.85 1420.03 1550.25 Q1420.03 1556.65 1422.74 1560.34 Q1425.48 1564 1430.22 1564 Q1434.9 1564 1437.64 1560.31 Q1440.37 1556.62 1440.37 1550.25 Q1440.37 1543.92 1437.64 1540.23 Q1434.9 1536.5 1430.22 1536.5 M1430.22 1531.54 Q1437.86 1531.54 1442.22 1536.5 Q1446.58 1541.47 1446.58 1550.25 Q1446.58 1559 1442.22 1564 Q1437.86 1568.97 1430.22 1568.97 Q1422.55 1568.97 1418.19 1564 Q1413.86 1559 1413.86 1550.25 Q1413.86 1541.47 1418.19 1536.5 Q1422.55 1531.54 1430.22 1531.54 Z" fill="#000000" fill-rule="evenodd" fill-opacity="1" /><path clip-path="url(#clip110)" d="M1485.92 1546.53 L1485.92 1568.04 L1480.06 1568.04 L1480.06 1546.72 Q1480.06 1541.66 1478.09 1539.14 Q1476.12 1536.63 1472.17 1536.63 Q1467.43 1536.63 1464.69 1539.65 Q1461.95 1542.68 1461.95 1547.9 L1461.95 1568.04 L1456.06 1568.04 L1456.06 1532.4 L1461.95 1532.4 L1461.95 1537.93 Q1464.05 1534.72 1466.89 1533.13 Q1469.75 1531.54 1473.47 1531.54 Q1479.62 1531.54 1482.77 1535.36 Q1485.92 1539.14 1485.92 1546.53 Z" fill="#000000" fill-rule="evenodd" fill-opacity="1" /><path clip-path="url(#clip110)" d="M1520.33 1533.45 L1520.33 1538.98 Q1517.84 1537.71 1515.17 1537.07 Q1512.5 1536.44 1509.63 1536.44 Q1505.27 1536.44 1503.07 1537.77 Q1500.91 1539.11 1500.91 1541.79 Q1500.91 1543.82 1502.47 1545 Q1504.03 1546.15 1508.74 1547.2 L1510.75 1547.64 Q1516.98 1548.98 1519.59 1551.43 Q1522.24 1553.85 1522.24 1558.21 Q1522.24 1563.17 1518.29 1566.07 Q1514.37 1568.97 1507.5 1568.97 Q1504.63 1568.97 1501.52 1568.39 Q1498.43 1567.85 1494.99 1566.74 L1494.99 1560.69 Q1498.24 1562.38 1501.39 1563.24 Q1504.54 1564.07 1507.63 1564.07 Q1511.76 1564.07 1513.99 1562.66 Q1516.22 1561.23 1516.22 1558.65 Q1516.22 1556.27 1514.6 1554.99 Q1513.01 1553.72 1507.56 1552.54 L1505.53 1552.07 Q1500.08 1550.92 1497.66 1548.56 Q1495.25 1546.18 1495.25 1542.04 Q1495.25 1537.01 1498.81 1534.27 Q1502.37 1531.54 1508.93 1531.54 Q1512.18 1531.54 1515.04 1532.01 Q1517.91 1532.49 1520.33 1533.45 Z" fill="#000000" fill-rule="evenodd" fill-opacity="1" /><polyline clip-path="url(#clip112)" style="stroke:#000000; stroke-linecap:butt; stroke-linejoin:round; stroke-width:2; stroke-opacity:0.1; fill:none" points="
  205.121,1384.25 2352.76,1384.25 
  "/>
<polyline clip-path="url(#clip112)" style="stroke:#000000; stroke-linecap:butt; stroke-linejoin:round; stroke-width:2; stroke-opacity:0.1; fill:none" points="
  205.121,1099.08 2352.76,1099.08 
  "/>
<polyline clip-path="url(#clip112)" style="stroke:#000000; stroke-linecap:butt; stroke-linejoin:round; stroke-width:2; stroke-opacity:0.1; fill:none" points="
  205.121,813.924 2352.76,813.924 
  "/>
<polyline clip-path="url(#clip112)" style="stroke:#000000; stroke-linecap:butt; stroke-linejoin:round; stroke-width:2; stroke-opacity:0.1; fill:none" points="
  205.121,528.763 2352.76,528.763 
  "/>
<polyline clip-path="url(#clip112)" style="stroke:#000000; stroke-linecap:butt; stroke-linejoin:round; stroke-width:2; stroke-opacity:0.1; fill:none" points="
  205.121,243.602 2352.76,243.602 
  "/>
<polyline clip-path="url(#clip110)" style="stroke:#000000; stroke-linecap:butt; stroke-linejoin:round; stroke-width:4; stroke-opacity:1; fill:none" points="
  205.121,1423.18 205.121,47.2441 
  "/>
<polyline clip-path="url(#clip110)" style="stroke:#000000; stroke-linecap:butt; stroke-linejoin:round; stroke-width:4; stroke-opacity:1; fill:none" points="
  205.121,1384.25 224.019,1384.25 
  "/>
<polyline clip-path="url(#clip110)" style="stroke:#000000; stroke-linecap:butt; stroke-linejoin:round; stroke-width:4; stroke-opacity:1; fill:none" points="
  205.121,1099.08 224.019,1099.08 
  "/>
<polyline clip-path="url(#clip110)" style="stroke:#000000; stroke-linecap:butt; stroke-linejoin:round; stroke-width:4; stroke-opacity:1; fill:none" points="
  205.121,813.924 224.019,813.924 
  "/>
<polyline clip-path="url(#clip110)" style="stroke:#000000; stroke-linecap:butt; stroke-linejoin:round; stroke-width:4; stroke-opacity:1; fill:none" points="
  205.121,528.763 224.019,528.763 
  "/>
<polyline clip-path="url(#clip110)" style="stroke:#000000; stroke-linecap:butt; stroke-linejoin:round; stroke-width:4; stroke-opacity:1; fill:none" points="
  205.121,243.602 224.019,243.602 
  "/>
<path clip-path="url(#clip110)" d="M157.177 1370.04 Q153.566 1370.04 151.737 1373.61 Q149.931 1377.15 149.931 1384.28 Q149.931 1391.39 151.737 1394.95 Q153.566 1398.49 157.177 1398.49 Q160.811 1398.49 162.616 1394.95 Q164.445 1391.39 164.445 1384.28 Q164.445 1377.15 162.616 1373.61 Q160.811 1370.04 157.177 1370.04 M157.177 1366.34 Q162.987 1366.34 166.042 1370.95 Q169.121 1375.53 169.121 1384.28 Q169.121 1393.01 166.042 1397.61 Q162.987 1402.2 157.177 1402.2 Q151.366 1402.2 148.288 1397.61 Q145.232 1393.01 145.232 1384.28 Q145.232 1375.53 148.288 1370.95 Q151.366 1366.34 157.177 1366.34 Z" fill="#000000" fill-rule="evenodd" fill-opacity="1" /><path clip-path="url(#clip110)" d="M117.825 1112.43 L125.464 1112.43 L125.464 1086.06 L117.154 1087.73 L117.154 1083.47 L125.418 1081.8 L130.093 1081.8 L130.093 1112.43 L137.732 1112.43 L137.732 1116.36 L117.825 1116.36 L117.825 1112.43 Z" fill="#000000" fill-rule="evenodd" fill-opacity="1" /><path clip-path="url(#clip110)" d="M157.177 1084.88 Q153.566 1084.88 151.737 1088.45 Q149.931 1091.99 149.931 1099.12 Q149.931 1106.23 151.737 1109.79 Q153.566 1113.33 157.177 1113.33 Q160.811 1113.33 162.616 1109.79 Q164.445 1106.23 164.445 1099.12 Q164.445 1091.99 162.616 1088.45 Q160.811 1084.88 157.177 1084.88 M157.177 1081.18 Q162.987 1081.18 166.042 1085.79 Q169.121 1090.37 169.121 1099.12 Q169.121 1107.85 166.042 1112.45 Q162.987 1117.04 157.177 1117.04 Q151.366 1117.04 148.288 1112.45 Q145.232 1107.85 145.232 1099.12 Q145.232 1090.37 148.288 1085.79 Q151.366 1081.18 157.177 1081.18 Z" fill="#000000" fill-rule="evenodd" fill-opacity="1" /><path clip-path="url(#clip110)" d="M121.043 827.269 L137.362 827.269 L137.362 831.204 L115.418 831.204 L115.418 827.269 Q118.08 824.514 122.663 819.884 Q127.269 815.232 128.45 813.889 Q130.695 811.366 131.575 809.63 Q132.478 807.87 132.478 806.181 Q132.478 803.426 130.533 801.69 Q128.612 799.954 125.51 799.954 Q123.311 799.954 120.857 800.718 Q118.427 801.482 115.649 803.033 L115.649 798.31 Q118.473 797.176 120.927 796.597 Q123.38 796.019 125.418 796.019 Q130.788 796.019 133.982 798.704 Q137.177 801.389 137.177 805.88 Q137.177 808.009 136.367 809.931 Q135.579 811.829 133.473 814.421 Q132.894 815.093 129.792 818.31 Q126.691 821.505 121.043 827.269 Z" fill="#000000" fill-rule="evenodd" fill-opacity="1" /><path clip-path="url(#clip110)" d="M157.177 799.722 Q153.566 799.722 151.737 803.287 Q149.931 806.829 149.931 813.958 Q149.931 821.065 151.737 824.63 Q153.566 828.171 157.177 828.171 Q160.811 828.171 162.616 824.63 Q164.445 821.065 164.445 813.958 Q164.445 806.829 162.616 803.287 Q160.811 799.722 157.177 799.722 M157.177 796.019 Q162.987 796.019 166.042 800.625 Q169.121 805.208 169.121 813.958 Q169.121 822.685 166.042 827.292 Q162.987 831.875 157.177 831.875 Q151.366 831.875 148.288 827.292 Q145.232 822.685 145.232 813.958 Q145.232 805.208 148.288 800.625 Q151.366 796.019 157.177 796.019 Z" fill="#000000" fill-rule="evenodd" fill-opacity="1" /><path clip-path="url(#clip110)" d="M131.181 527.409 Q134.538 528.126 136.413 530.395 Q138.311 532.663 138.311 535.997 Q138.311 541.112 134.792 543.913 Q131.274 546.714 124.793 546.714 Q122.617 546.714 120.302 546.274 Q118.01 545.858 115.556 545.001 L115.556 540.487 Q117.501 541.622 119.816 542.2 Q122.13 542.779 124.654 542.779 Q129.052 542.779 131.343 541.043 Q133.658 539.307 133.658 535.997 Q133.658 532.941 131.505 531.228 Q129.376 529.492 125.556 529.492 L121.529 529.492 L121.529 525.649 L125.742 525.649 Q129.191 525.649 131.019 524.284 Q132.848 522.895 132.848 520.302 Q132.848 517.64 130.95 516.228 Q129.075 514.793 125.556 514.793 Q123.635 514.793 121.436 515.21 Q119.237 515.626 116.598 516.506 L116.598 512.339 Q119.26 511.599 121.575 511.228 Q123.913 510.858 125.973 510.858 Q131.297 510.858 134.399 513.288 Q137.501 515.696 137.501 519.816 Q137.501 522.686 135.857 524.677 Q134.214 526.645 131.181 527.409 Z" fill="#000000" fill-rule="evenodd" fill-opacity="1" /><path clip-path="url(#clip110)" d="M157.177 514.561 Q153.566 514.561 151.737 518.126 Q149.931 521.668 149.931 528.798 Q149.931 535.904 151.737 539.469 Q153.566 543.01 157.177 543.01 Q160.811 543.01 162.616 539.469 Q164.445 535.904 164.445 528.798 Q164.445 521.668 162.616 518.126 Q160.811 514.561 157.177 514.561 M157.177 510.858 Q162.987 510.858 166.042 515.464 Q169.121 520.048 169.121 528.798 Q169.121 537.524 166.042 542.131 Q162.987 546.714 157.177 546.714 Q151.366 546.714 148.288 542.131 Q145.232 537.524 145.232 528.798 Q145.232 520.048 148.288 515.464 Q151.366 510.858 157.177 510.858 Z" fill="#000000" fill-rule="evenodd" fill-opacity="1" /><path clip-path="url(#clip110)" d="M129.862 230.396 L118.056 248.845 L129.862 248.845 L129.862 230.396 M128.635 226.322 L134.515 226.322 L134.515 248.845 L139.445 248.845 L139.445 252.734 L134.515 252.734 L134.515 260.882 L129.862 260.882 L129.862 252.734 L114.26 252.734 L114.26 248.22 L128.635 226.322 Z" fill="#000000" fill-rule="evenodd" fill-opacity="1" /><path clip-path="url(#clip110)" d="M157.177 229.401 Q153.566 229.401 151.737 232.965 Q149.931 236.507 149.931 243.637 Q149.931 250.743 151.737 254.308 Q153.566 257.849 157.177 257.849 Q160.811 257.849 162.616 254.308 Q164.445 250.743 164.445 243.637 Q164.445 236.507 162.616 232.965 Q160.811 229.401 157.177 229.401 M157.177 225.697 Q162.987 225.697 166.042 230.303 Q169.121 234.887 169.121 243.637 Q169.121 252.363 166.042 256.97 Q162.987 261.553 157.177 261.553 Q151.366 261.553 148.288 256.97 Q145.232 252.363 145.232 243.637 Q145.232 234.887 148.288 230.303 Q151.366 225.697 157.177 225.697 Z" fill="#000000" fill-rule="evenodd" fill-opacity="1" /><path clip-path="url(#clip110)" d="M33.8307 1019.44 Q33.2578 1020.43 33.0032 1021.61 Q32.7167 1022.75 32.7167 1024.15 Q32.7167 1029.12 35.9632 1031.79 Q39.1779 1034.43 45.2253 1034.43 L64.0042 1034.43 L64.0042 1040.32 L28.3562 1040.32 L28.3562 1034.43 L33.8944 1034.43 Q30.6479 1032.59 29.0883 1029.63 Q27.4968 1026.67 27.4968 1022.43 Q27.4968 1021.83 27.5923 1021.1 Q27.656 1020.36 27.8151 1019.47 L33.8307 1019.44 Z" fill="#000000" fill-rule="evenodd" fill-opacity="1" /><path clip-path="url(#clip110)" d="M49.9359 1013.9 L28.3562 1013.9 L28.3562 1008.05 L49.7131 1008.05 Q54.7739 1008.05 57.3202 1006.07 Q59.8346 1004.1 59.8346 1000.15 Q59.8346 995.41 56.8109 992.673 Q53.7872 989.904 48.5673 989.904 L28.3562 989.904 L28.3562 984.047 L64.0042 984.047 L64.0042 989.904 L58.5296 989.904 Q61.7762 992.036 63.3676 994.869 Q64.9272 997.67 64.9272 1001.39 Q64.9272 1007.54 61.1078 1010.72 Q57.2883 1013.9 49.9359 1013.9 M27.4968 999.166 L27.4968 999.166 Z" fill="#000000" fill-rule="evenodd" fill-opacity="1" /><path clip-path="url(#clip110)" d="M42.4881 942.352 L64.0042 942.352 L64.0042 948.209 L42.679 948.209 Q37.6183 948.209 35.1038 950.182 Q32.5894 952.155 32.5894 956.102 Q32.5894 960.844 35.6131 963.582 Q38.6368 966.319 43.8567 966.319 L64.0042 966.319 L64.0042 972.207 L28.3562 972.207 L28.3562 966.319 L33.8944 966.319 Q30.6797 964.218 29.0883 961.386 Q27.4968 958.521 27.4968 954.797 Q27.4968 948.654 31.3163 945.503 Q35.1038 942.352 42.4881 942.352 Z" fill="#000000" fill-rule="evenodd" fill-opacity="1" /><path clip-path="url(#clip110)" d="M42.4881 901.039 L64.0042 901.039 L64.0042 906.895 L42.679 906.895 Q37.6183 906.895 35.1038 908.868 Q32.5894 910.842 32.5894 914.789 Q32.5894 919.531 35.6131 922.268 Q38.6368 925.006 43.8567 925.006 L64.0042 925.006 L64.0042 930.894 L28.3562 930.894 L28.3562 925.006 L33.8944 925.006 Q30.6797 922.905 29.0883 920.072 Q27.4968 917.208 27.4968 913.484 Q27.4968 907.341 31.3163 904.19 Q35.1038 901.039 42.4881 901.039 Z" fill="#000000" fill-rule="evenodd" fill-opacity="1" /><path clip-path="url(#clip110)" d="M28.3562 889.358 L28.3562 883.501 L64.0042 883.501 L64.0042 889.358 L28.3562 889.358 M14.479 889.358 L14.479 883.501 L21.895 883.501 L21.895 889.358 L14.479 889.358 Z" fill="#000000" fill-rule="evenodd" fill-opacity="1" /><path clip-path="url(#clip110)" d="M42.4881 841.615 L64.0042 841.615 L64.0042 847.471 L42.679 847.471 Q37.6183 847.471 35.1038 849.445 Q32.5894 851.418 32.5894 855.365 Q32.5894 860.107 35.6131 862.844 Q38.6368 865.582 43.8567 865.582 L64.0042 865.582 L64.0042 871.47 L28.3562 871.47 L28.3562 865.582 L33.8944 865.582 Q30.6797 863.481 29.0883 860.648 Q27.4968 857.784 27.4968 854.06 Q27.4968 847.917 31.3163 844.766 Q35.1038 841.615 42.4881 841.615 Z" fill="#000000" fill-rule="evenodd" fill-opacity="1" /><path clip-path="url(#clip110)" d="M45.7664 806.476 Q39.4007 806.476 35.8996 809.118 Q32.3984 811.728 32.3984 816.47 Q32.3984 821.181 35.8996 823.823 Q39.4007 826.433 45.7664 826.433 Q52.1003 826.433 55.6014 823.823 Q59.1026 821.181 59.1026 816.47 Q59.1026 811.728 55.6014 809.118 Q52.1003 806.476 45.7664 806.476 M59.58 800.62 Q68.683 800.62 73.1071 804.662 Q77.5631 808.704 77.5631 817.043 Q77.5631 820.13 77.0857 822.868 Q76.6401 825.605 75.6852 828.183 L69.9879 828.183 Q71.3884 825.605 72.0568 823.091 Q72.7252 820.576 72.7252 817.966 Q72.7252 812.205 69.7015 809.341 Q66.7096 806.476 60.6303 806.476 L57.7339 806.476 Q60.885 808.29 62.4446 811.123 Q64.0042 813.956 64.0042 817.902 Q64.0042 824.459 59.0071 828.47 Q54.01 832.48 45.7664 832.48 Q37.491 832.48 32.4939 828.47 Q27.4968 824.459 27.4968 817.902 Q27.4968 813.956 29.0564 811.123 Q30.616 808.29 33.7671 806.476 L28.3562 806.476 L28.3562 800.62 L59.58 800.62 Z" fill="#000000" fill-rule="evenodd" fill-opacity="1" /><path clip-path="url(#clip110)" d="M18.2347 762.043 L28.3562 762.043 L28.3562 749.98 L32.9077 749.98 L32.9077 762.043 L52.2594 762.043 Q56.6199 762.043 57.8613 760.866 Q59.1026 759.656 59.1026 755.996 L59.1026 749.98 L64.0042 749.98 L64.0042 755.996 Q64.0042 762.775 61.4897 765.354 Q58.9434 767.932 52.2594 767.932 L32.9077 767.932 L32.9077 772.229 L28.3562 772.229 L28.3562 767.932 L18.2347 767.932 L18.2347 762.043 Z" fill="#000000" fill-rule="evenodd" fill-opacity="1" /><path clip-path="url(#clip110)" d="M28.3562 742.278 L28.3562 736.421 L64.0042 736.421 L64.0042 742.278 L28.3562 742.278 M14.479 742.278 L14.479 736.421 L21.895 736.421 L21.895 742.278 L14.479 742.278 Z" fill="#000000" fill-rule="evenodd" fill-opacity="1" /><path clip-path="url(#clip110)" d="M35.1993 696.413 Q31.2526 694.217 29.3747 691.161 Q27.4968 688.106 27.4968 683.968 Q27.4968 678.398 31.4117 675.374 Q35.2948 672.351 42.4881 672.351 L64.0042 672.351 L64.0042 678.239 L42.679 678.239 Q37.5546 678.239 35.072 680.053 Q32.5894 681.867 32.5894 685.591 Q32.5894 690.143 35.6131 692.785 Q38.6368 695.426 43.8567 695.426 L64.0042 695.426 L64.0042 701.315 L42.679 701.315 Q37.5228 701.315 35.072 703.129 Q32.5894 704.943 32.5894 708.731 Q32.5894 713.218 35.6449 715.86 Q38.6686 718.502 43.8567 718.502 L64.0042 718.502 L64.0042 724.39 L28.3562 724.39 L28.3562 718.502 L33.8944 718.502 Q30.616 716.497 29.0564 713.696 Q27.4968 710.895 27.4968 707.044 Q27.4968 703.161 29.4702 700.455 Q31.4436 697.718 35.1993 696.413 Z" fill="#000000" fill-rule="evenodd" fill-opacity="1" /><path clip-path="url(#clip110)" d="M44.7161 630.178 L47.5806 630.178 L47.5806 657.105 Q53.6281 656.723 56.8109 653.476 Q59.9619 650.198 59.9619 644.373 Q59.9619 641 59.1344 637.848 Q58.3069 634.666 56.6518 631.546 L62.1899 631.546 Q63.5267 634.697 64.227 638.008 Q64.9272 641.318 64.9272 644.723 Q64.9272 653.253 59.9619 658.251 Q54.9967 663.216 46.5303 663.216 Q37.7774 663.216 32.6531 658.505 Q27.4968 653.763 27.4968 645.742 Q27.4968 638.549 32.1438 634.379 Q36.7589 630.178 44.7161 630.178 M42.9973 636.034 Q38.1912 636.098 35.3266 638.74 Q32.4621 641.35 32.4621 645.678 Q32.4621 650.58 35.2312 653.54 Q38.0002 656.468 43.0292 656.914 L42.9973 636.034 Z" fill="#000000" fill-rule="evenodd" fill-opacity="1" /><path clip-path="url(#clip110)" d="M14.5426 585.777 Q21.8632 590.042 29.0246 592.111 Q36.186 594.18 43.5384 594.18 Q50.8908 594.18 58.1159 592.111 Q65.3091 590.01 72.5979 585.777 L72.5979 590.87 Q65.1182 595.644 57.8931 598.031 Q50.668 600.386 43.5384 600.386 Q36.4406 600.386 29.2474 598.031 Q22.0542 595.676 14.5426 590.87 L14.5426 585.777 Z" fill="#000000" fill-rule="evenodd" fill-opacity="1" /><path clip-path="url(#clip110)" d="M29.4065 551.689 L34.9447 551.689 Q33.6716 554.171 33.035 556.845 Q32.3984 559.518 32.3984 562.383 Q32.3984 566.744 33.7352 568.94 Q35.072 571.104 37.7456 571.104 Q39.7826 571.104 40.9603 569.544 Q42.1061 567.985 43.1565 563.274 L43.6021 561.269 Q44.9389 555.031 47.3897 552.421 Q49.8086 549.779 54.1691 549.779 Q59.1344 549.779 62.0308 553.726 Q64.9272 557.641 64.9272 564.516 Q64.9272 567.38 64.3543 570.499 Q63.8132 573.587 62.6992 577.024 L56.6518 577.024 Q58.3387 573.778 59.198 570.627 Q60.0256 567.476 60.0256 564.388 Q60.0256 560.251 58.6251 558.023 Q57.1929 555.795 54.6147 555.795 Q52.2276 555.795 50.9545 557.418 Q49.6813 559.009 48.5037 564.452 L48.0262 566.489 Q46.8804 571.932 44.5251 574.351 Q42.138 576.77 38.0002 576.77 Q32.9713 576.77 30.2341 573.205 Q27.4968 569.64 27.4968 563.083 Q27.4968 559.837 27.9743 556.972 Q28.4517 554.108 29.4065 551.689 Z" fill="#000000" fill-rule="evenodd" fill-opacity="1" /><path clip-path="url(#clip110)" d="M44.7161 509.961 L47.5806 509.961 L47.5806 536.888 Q53.6281 536.506 56.8109 533.26 Q59.9619 529.982 59.9619 524.157 Q59.9619 520.783 59.1344 517.632 Q58.3069 514.449 56.6518 511.33 L62.1899 511.33 Q63.5267 514.481 64.227 517.791 Q64.9272 521.101 64.9272 524.507 Q64.9272 533.037 59.9619 538.034 Q54.9967 542.999 46.5303 542.999 Q37.7774 542.999 32.6531 538.289 Q27.4968 533.546 27.4968 525.526 Q27.4968 518.332 32.1438 514.163 Q36.7589 509.961 44.7161 509.961 M42.9973 515.818 Q38.1912 515.882 35.3266 518.523 Q32.4621 521.133 32.4621 525.462 Q32.4621 530.364 35.2312 533.324 Q38.0002 536.252 43.0292 536.697 L42.9973 515.818 Z" fill="#000000" fill-rule="evenodd" fill-opacity="1" /><path clip-path="url(#clip110)" d="M29.7248 474.695 L35.1993 474.695 Q33.8307 477.178 33.1623 479.693 Q32.4621 482.175 32.4621 484.721 Q32.4621 490.419 36.0905 493.57 Q39.6872 496.721 46.212 496.721 Q52.7369 496.721 56.3653 493.57 Q59.9619 490.419 59.9619 484.721 Q59.9619 482.175 59.2935 479.693 Q58.5933 477.178 57.2247 474.695 L62.6355 474.695 Q63.7814 477.146 64.3543 479.788 Q64.9272 482.398 64.9272 485.358 Q64.9272 493.411 59.8664 498.153 Q54.8057 502.896 46.212 502.896 Q37.491 502.896 32.4939 498.121 Q27.4968 493.315 27.4968 484.976 Q27.4968 482.271 28.0697 479.693 Q28.6108 477.114 29.7248 474.695 Z" fill="#000000" fill-rule="evenodd" fill-opacity="1" /><path clip-path="url(#clip110)" d="M55.9197 463.683 L55.9197 456.967 L64.0042 456.967 L64.0042 463.683 L55.9197 463.683 Z" fill="#000000" fill-rule="evenodd" fill-opacity="1" /><path clip-path="url(#clip110)" d="M14.5426 444.713 L14.5426 439.62 Q22.0542 434.846 29.2474 432.491 Q36.4406 430.104 43.5384 430.104 Q50.668 430.104 57.8931 432.491 Q65.1182 434.846 72.5979 439.62 L72.5979 444.713 Q65.3091 440.48 58.1159 438.411 Q50.8908 436.31 43.5384 436.31 Q36.186 436.31 29.0246 438.411 Q21.8632 440.48 14.5426 444.713 Z" fill="#000000" fill-rule="evenodd" fill-opacity="1" /><polyline clip-path="url(#clip112)" style="stroke:#0000ff; stroke-linecap:butt; stroke-linejoin:round; stroke-width:4; stroke-opacity:1; fill:none" points="
  265.903,1384.24 274.024,1384.19 302.445,1383.79 383.651,1380.23 464.856,1370.82 667.869,1334.11 870.882,1272.97 1073.9,1181.87 2291.97,86.1857 
  "/>
<polyline clip-path="url(#clip112)" style="stroke:#ff0000; stroke-linecap:butt; stroke-linejoin:round; stroke-width:4; stroke-opacity:1; fill:none" points="
  265.903,1384.23 274.024,1384.2 302.445,1384.06 383.651,1380.96 464.856,1383.22 667.869,1381.74 870.882,1380.52 1073.9,1378.95 2291.97,1370.74 
  "/>
<path clip-path="url(#clip110)" d="
M1864.7 248.629 L2281.17 248.629 L2281.17 93.1086 L1864.7 93.1086  Z
  " fill="#ffffff" fill-rule="evenodd" fill-opacity="1"/>
<polyline clip-path="url(#clip110)" style="stroke:#000000; stroke-linecap:butt; stroke-linejoin:round; stroke-width:4; stroke-opacity:1; fill:none" points="
  1864.7,248.629 2281.17,248.629 2281.17,93.1086 1864.7,93.1086 1864.7,248.629 
  "/>
<polyline clip-path="url(#clip110)" style="stroke:#0000ff; stroke-linecap:butt; stroke-linejoin:round; stroke-width:4; stroke-opacity:1; fill:none" points="
  1888.56,144.949 2031.73,144.949 
  "/>
<path clip-path="url(#clip110)" d="M2072.1 126.21 L2072.1 129.752 L2068.03 129.752 Q2065.74 129.752 2064.83 130.678 Q2063.95 131.604 2063.95 134.011 L2063.95 136.303 L2070.97 136.303 L2070.97 139.613 L2063.95 139.613 L2063.95 162.229 L2059.67 162.229 L2059.67 139.613 L2055.6 139.613 L2055.6 136.303 L2059.67 136.303 L2059.67 134.497 Q2059.67 130.169 2061.68 128.201 Q2063.7 126.21 2068.07 126.21 L2072.1 126.21 Z" fill="#000000" fill-rule="evenodd" fill-opacity="1" /><path clip-path="url(#clip110)" d="M2085.71 139.289 Q2082.29 139.289 2080.3 141.974 Q2078.3 144.636 2078.3 149.289 Q2078.3 153.942 2080.27 156.627 Q2082.26 159.289 2085.71 159.289 Q2089.11 159.289 2091.11 156.604 Q2093.1 153.918 2093.1 149.289 Q2093.1 144.682 2091.11 141.997 Q2089.11 139.289 2085.71 139.289 M2085.71 135.678 Q2091.27 135.678 2094.44 139.289 Q2097.61 142.9 2097.61 149.289 Q2097.61 155.655 2094.44 159.289 Q2091.27 162.9 2085.71 162.9 Q2080.13 162.9 2076.96 159.289 Q2073.81 155.655 2073.81 149.289 Q2073.81 142.9 2076.96 139.289 Q2080.13 135.678 2085.71 135.678 Z" fill="#000000" fill-rule="evenodd" fill-opacity="1" /><path clip-path="url(#clip110)" d="M2119.69 140.284 Q2118.98 139.868 2118.12 139.682 Q2117.29 139.474 2116.27 139.474 Q2112.66 139.474 2110.71 141.835 Q2108.79 144.173 2108.79 148.571 L2108.79 162.229 L2104.51 162.229 L2104.51 136.303 L2108.79 136.303 L2108.79 140.331 Q2110.13 137.969 2112.29 136.835 Q2114.44 135.678 2117.52 135.678 Q2117.96 135.678 2118.49 135.747 Q2119.02 135.794 2119.67 135.909 L2119.69 140.284 Z" fill="#000000" fill-rule="evenodd" fill-opacity="1" /><path clip-path="url(#clip110)" d="M2139.23 126.21 L2143.49 126.21 L2143.49 162.229 L2139.23 162.229 L2139.23 126.21 Z" fill="#000000" fill-rule="evenodd" fill-opacity="1" /><path clip-path="url(#clip110)" d="M2162.45 139.289 Q2159.02 139.289 2157.03 141.974 Q2155.04 144.636 2155.04 149.289 Q2155.04 153.942 2157.01 156.627 Q2159 159.289 2162.45 159.289 Q2165.85 159.289 2167.84 156.604 Q2169.83 153.918 2169.83 149.289 Q2169.83 144.682 2167.84 141.997 Q2165.85 139.289 2162.45 139.289 M2162.45 135.678 Q2168 135.678 2171.17 139.289 Q2174.35 142.9 2174.35 149.289 Q2174.35 155.655 2171.17 159.289 Q2168 162.9 2162.45 162.9 Q2156.87 162.9 2153.7 159.289 Q2150.55 155.655 2150.55 149.289 Q2150.55 142.9 2153.7 139.289 Q2156.87 135.678 2162.45 135.678 Z" fill="#000000" fill-rule="evenodd" fill-opacity="1" /><path clip-path="url(#clip110)" d="M2191.45 139.289 Q2188.03 139.289 2186.04 141.974 Q2184.04 144.636 2184.04 149.289 Q2184.04 153.942 2186.01 156.627 Q2188 159.289 2191.45 159.289 Q2194.86 159.289 2196.85 156.604 Q2198.84 153.918 2198.84 149.289 Q2198.84 144.682 2196.85 141.997 Q2194.86 139.289 2191.45 139.289 M2191.45 135.678 Q2197.01 135.678 2200.18 139.289 Q2203.35 142.9 2203.35 149.289 Q2203.35 155.655 2200.18 159.289 Q2197.01 162.9 2191.45 162.9 Q2185.87 162.9 2182.7 159.289 Q2179.55 155.655 2179.55 149.289 Q2179.55 142.9 2182.7 139.289 Q2185.87 135.678 2191.45 135.678 Z" fill="#000000" fill-rule="evenodd" fill-opacity="1" /><path clip-path="url(#clip110)" d="M2214.53 158.34 L2214.53 172.09 L2210.25 172.09 L2210.25 136.303 L2214.53 136.303 L2214.53 140.238 Q2215.87 137.923 2217.91 136.812 Q2219.97 135.678 2222.82 135.678 Q2227.54 135.678 2230.48 139.428 Q2233.44 143.178 2233.44 149.289 Q2233.44 155.4 2230.48 159.15 Q2227.54 162.9 2222.82 162.9 Q2219.97 162.9 2217.91 161.789 Q2215.87 160.655 2214.53 158.34 M2229.02 149.289 Q2229.02 144.59 2227.08 141.928 Q2225.16 139.243 2221.78 139.243 Q2218.4 139.243 2216.45 141.928 Q2214.53 144.59 2214.53 149.289 Q2214.53 153.988 2216.45 156.673 Q2218.4 159.335 2221.78 159.335 Q2225.16 159.335 2227.08 156.673 Q2229.02 153.988 2229.02 149.289 Z" fill="#000000" fill-rule="evenodd" fill-opacity="1" /><polyline clip-path="url(#clip110)" style="stroke:#ff0000; stroke-linecap:butt; stroke-linejoin:round; stroke-width:4; stroke-opacity:1; fill:none" points="
  1888.56,196.789 2031.73,196.789 
  "/>
<path clip-path="url(#clip110)" d="M2055.6 203.837 L2055.6 188.143 L2059.86 188.143 L2059.86 203.675 Q2059.86 207.356 2061.29 209.208 Q2062.73 211.036 2065.6 211.036 Q2069.05 211.036 2071.04 208.837 Q2073.05 206.638 2073.05 202.842 L2073.05 188.143 L2077.31 188.143 L2077.31 214.069 L2073.05 214.069 L2073.05 210.087 Q2071.5 212.448 2069.44 213.606 Q2067.4 214.74 2064.69 214.74 Q2060.23 214.74 2057.91 211.962 Q2055.6 209.184 2055.6 203.837 M2066.31 187.518 L2066.31 187.518 Z" fill="#000000" fill-rule="evenodd" fill-opacity="1" /><path clip-path="url(#clip110)" d="M2107.63 198.421 L2107.63 214.069 L2103.37 214.069 L2103.37 198.559 Q2103.37 194.879 2101.94 193.05 Q2100.5 191.222 2097.63 191.222 Q2094.18 191.222 2092.19 193.421 Q2090.2 195.62 2090.2 199.416 L2090.2 214.069 L2085.92 214.069 L2085.92 188.143 L2090.2 188.143 L2090.2 192.171 Q2091.73 189.833 2093.79 188.675 Q2095.87 187.518 2098.58 187.518 Q2103.05 187.518 2105.34 190.296 Q2107.63 193.05 2107.63 198.421 Z" fill="#000000" fill-rule="evenodd" fill-opacity="1" /><path clip-path="url(#clip110)" d="M2129.25 178.05 L2129.25 181.592 L2125.18 181.592 Q2122.89 181.592 2121.99 182.518 Q2121.11 183.444 2121.11 185.851 L2121.11 188.143 L2128.12 188.143 L2128.12 191.453 L2121.11 191.453 L2121.11 214.069 L2116.82 214.069 L2116.82 191.453 L2112.75 191.453 L2112.75 188.143 L2116.82 188.143 L2116.82 186.337 Q2116.82 182.009 2118.84 180.041 Q2120.85 178.05 2125.23 178.05 L2129.25 178.05 Z" fill="#000000" fill-rule="evenodd" fill-opacity="1" /><path clip-path="url(#clip110)" d="M2142.86 191.129 Q2139.44 191.129 2137.45 193.814 Q2135.46 196.476 2135.46 201.129 Q2135.46 205.782 2137.42 208.467 Q2139.42 211.129 2142.86 211.129 Q2146.27 211.129 2148.26 208.444 Q2150.25 205.758 2150.25 201.129 Q2150.25 196.522 2148.26 193.837 Q2146.27 191.129 2142.86 191.129 M2142.86 187.518 Q2148.42 187.518 2151.59 191.129 Q2154.76 194.74 2154.76 201.129 Q2154.76 207.495 2151.59 211.129 Q2148.42 214.74 2142.86 214.74 Q2137.29 214.74 2134.11 211.129 Q2130.97 207.495 2130.97 201.129 Q2130.97 194.74 2134.11 191.129 Q2137.29 187.518 2142.86 187.518 Z" fill="#000000" fill-rule="evenodd" fill-opacity="1" /><path clip-path="url(#clip110)" d="M2161.82 178.05 L2166.08 178.05 L2166.08 214.069 L2161.82 214.069 L2161.82 178.05 Z" fill="#000000" fill-rule="evenodd" fill-opacity="1" /><path clip-path="url(#clip110)" d="M2192.05 192.078 L2192.05 178.05 L2196.31 178.05 L2196.31 214.069 L2192.05 214.069 L2192.05 210.18 Q2190.71 212.495 2188.65 213.629 Q2186.61 214.74 2183.74 214.74 Q2179.04 214.74 2176.08 210.99 Q2173.14 207.24 2173.14 201.129 Q2173.14 195.018 2176.08 191.268 Q2179.04 187.518 2183.74 187.518 Q2186.61 187.518 2188.65 188.652 Q2190.71 189.763 2192.05 192.078 M2177.54 201.129 Q2177.54 205.828 2179.46 208.513 Q2181.41 211.175 2184.79 211.175 Q2188.17 211.175 2190.11 208.513 Q2192.05 205.828 2192.05 201.129 Q2192.05 196.43 2190.11 193.768 Q2188.17 191.083 2184.79 191.083 Q2181.41 191.083 2179.46 193.768 Q2177.54 196.43 2177.54 201.129 Z" fill="#000000" fill-rule="evenodd" fill-opacity="1" /></svg>
