<?xml version="1.0" encoding="utf-8"?>
<svg xmlns="http://www.w3.org/2000/svg" xmlns:xlink="http://www.w3.org/1999/xlink" width="600" height="400" viewBox="0 0 2400 1600">
<defs>
  <clipPath id="clip820">
    <rect x="0" y="0" width="2400" height="1600"/>
  </clipPath>
</defs>
<path clip-path="url(#clip820)" d="M0 1600 L2400 1600 L2400 0 L0 0  Z" fill="#ffffff" fill-rule="evenodd" fill-opacity="1"/>
<defs>
  <clipPath id="clip821">
    <rect x="480" y="0" width="1681" height="1600"/>
  </clipPath>
</defs>
<path clip-path="url(#clip820)" d="M193.936 1486.45 L2352.76 1486.45 L2352.76 47.2441 L193.936 47.2441  Z" fill="#ffffff" fill-rule="evenodd" fill-opacity="1"/>
<defs>
  <clipPath id="clip822">
    <rect x="193" y="47" width="2160" height="1440"/>
  </clipPath>
</defs>
<polyline clip-path="url(#clip822)" style="stroke:#000000; stroke-linecap:round; stroke-linejoin:round; stroke-width:2; stroke-opacity:0.1; fill:none" points="193.936,1486.45 193.936,47.2441 "/>
<polyline clip-path="url(#clip822)" style="stroke:#000000; stroke-linecap:round; stroke-linejoin:round; stroke-width:2; stroke-opacity:0.1; fill:none" points="733.641,1486.45 733.641,47.2441 "/>
<polyline clip-path="url(#clip822)" style="stroke:#000000; stroke-linecap:round; stroke-linejoin:round; stroke-width:2; stroke-opacity:0.1; fill:none" points="1273.35,1486.45 1273.35,47.2441 "/>
<polyline clip-path="url(#clip822)" style="stroke:#000000; stroke-linecap:round; stroke-linejoin:round; stroke-width:2; stroke-opacity:0.1; fill:none" points="1813.05,1486.45 1813.05,47.2441 "/>
<polyline clip-path="url(#clip822)" style="stroke:#000000; stroke-linecap:round; stroke-linejoin:round; stroke-width:2; stroke-opacity:0.1; fill:none" points="2352.76,1486.45 2352.76,47.2441 "/>
<polyline clip-path="url(#clip822)" style="stroke:#000000; stroke-linecap:round; stroke-linejoin:round; stroke-width:2; stroke-opacity:0.1; fill:none" points="193.936,1486.45 2352.76,1486.45 "/>
<polyline clip-path="url(#clip822)" style="stroke:#000000; stroke-linecap:round; stroke-linejoin:round; stroke-width:2; stroke-opacity:0.1; fill:none" points="193.936,1126.65 2352.76,1126.65 "/>
<polyline clip-path="url(#clip822)" style="stroke:#000000; stroke-linecap:round; stroke-linejoin:round; stroke-width:2; stroke-opacity:0.1; fill:none" points="193.936,766.846 2352.76,766.846 "/>
<polyline clip-path="url(#clip822)" style="stroke:#000000; stroke-linecap:round; stroke-linejoin:round; stroke-width:2; stroke-opacity:0.1; fill:none" points="193.936,407.045 2352.76,407.045 "/>
<polyline clip-path="url(#clip822)" style="stroke:#000000; stroke-linecap:round; stroke-linejoin:round; stroke-width:2; stroke-opacity:0.1; fill:none" points="193.936,47.2441 2352.76,47.2441 "/>
<polyline clip-path="url(#clip820)" style="stroke:#000000; stroke-linecap:round; stroke-linejoin:round; stroke-width:4; stroke-opacity:1; fill:none" points="193.936,1486.45 2352.76,1486.45 "/>
<polyline clip-path="url(#clip820)" style="stroke:#000000; stroke-linecap:round; stroke-linejoin:round; stroke-width:4; stroke-opacity:1; fill:none" points="193.936,1486.45 193.936,1467.55 "/>
<polyline clip-path="url(#clip820)" style="stroke:#000000; stroke-linecap:round; stroke-linejoin:round; stroke-width:4; stroke-opacity:1; fill:none" points="733.641,1486.45 733.641,1467.55 "/>
<polyline clip-path="url(#clip820)" style="stroke:#000000; stroke-linecap:round; stroke-linejoin:round; stroke-width:4; stroke-opacity:1; fill:none" points="1273.35,1486.45 1273.35,1467.55 "/>
<polyline clip-path="url(#clip820)" style="stroke:#000000; stroke-linecap:round; stroke-linejoin:round; stroke-width:4; stroke-opacity:1; fill:none" points="1813.05,1486.45 1813.05,1467.55 "/>
<polyline clip-path="url(#clip820)" style="stroke:#000000; stroke-linecap:round; stroke-linejoin:round; stroke-width:4; stroke-opacity:1; fill:none" points="2352.76,1486.45 2352.76,1467.55 "/>
<path clip-path="url(#clip820)" d="M140.464 1532.02 L170.14 1532.02 L170.14 1535.95 L140.464 1535.95 L140.464 1532.02 Z" fill="#000000" fill-rule="nonzero" fill-opacity="1" /><path clip-path="url(#clip820)" d="M180.279 1514.29 L198.635 1514.29 L198.635 1518.22 L184.561 1518.22 L184.561 1526.7 Q185.58 1526.35 186.598 1526.19 Q187.617 1526 188.635 1526 Q194.422 1526 197.802 1529.17 Q201.181 1532.34 201.181 1537.76 Q201.181 1543.34 197.709 1546.44 Q194.237 1549.52 187.918 1549.52 Q185.742 1549.52 183.473 1549.15 Q181.228 1548.78 178.82 1548.04 L178.82 1543.34 Q180.904 1544.47 183.126 1545.03 Q185.348 1545.58 187.825 1545.58 Q191.83 1545.58 194.167 1543.48 Q196.505 1541.37 196.505 1537.76 Q196.505 1534.15 194.167 1532.04 Q191.83 1529.94 187.825 1529.94 Q185.95 1529.94 184.075 1530.35 Q182.223 1530.77 180.279 1531.65 L180.279 1514.29 Z" fill="#000000" fill-rule="nonzero" fill-opacity="1" /><path clip-path="url(#clip820)" d="M210.394 1542.97 L215.278 1542.97 L215.278 1548.85 L210.394 1548.85 L210.394 1542.97 Z" fill="#000000" fill-rule="nonzero" fill-opacity="1" /><path clip-path="url(#clip820)" d="M235.464 1517.37 Q231.852 1517.37 230.024 1520.93 Q228.218 1524.47 228.218 1531.6 Q228.218 1538.71 230.024 1542.27 Q231.852 1545.82 235.464 1545.82 Q239.098 1545.82 240.903 1542.27 Q242.732 1538.71 242.732 1531.6 Q242.732 1524.47 240.903 1520.93 Q239.098 1517.37 235.464 1517.37 M235.464 1513.66 Q241.274 1513.66 244.329 1518.27 Q247.408 1522.85 247.408 1531.6 Q247.408 1540.33 244.329 1544.94 Q241.274 1549.52 235.464 1549.52 Q229.653 1549.52 226.575 1544.94 Q223.519 1540.33 223.519 1531.6 Q223.519 1522.85 226.575 1518.27 Q229.653 1513.66 235.464 1513.66 Z" fill="#000000" fill-rule="nonzero" fill-opacity="1" /><path clip-path="url(#clip820)" d="M680.667 1532.02 L710.342 1532.02 L710.342 1535.95 L680.667 1535.95 L680.667 1532.02 Z" fill="#000000" fill-rule="nonzero" fill-opacity="1" /><path clip-path="url(#clip820)" d="M724.463 1544.91 L740.782 1544.91 L740.782 1548.85 L718.838 1548.85 L718.838 1544.91 Q721.5 1542.16 726.083 1537.53 Q730.69 1532.88 731.87 1531.53 Q734.116 1529.01 734.995 1527.27 Q735.898 1525.51 735.898 1523.82 Q735.898 1521.07 733.953 1519.33 Q732.032 1517.6 728.93 1517.6 Q726.731 1517.6 724.278 1518.36 Q721.847 1519.13 719.069 1520.68 L719.069 1515.95 Q721.893 1514.82 724.347 1514.24 Q726.801 1513.66 728.838 1513.66 Q734.208 1513.66 737.403 1516.35 Q740.597 1519.03 740.597 1523.52 Q740.597 1525.65 739.787 1527.57 Q739 1529.47 736.893 1532.07 Q736.315 1532.74 733.213 1535.95 Q730.111 1539.15 724.463 1544.91 Z" fill="#000000" fill-rule="nonzero" fill-opacity="1" /><path clip-path="url(#clip820)" d="M750.597 1542.97 L755.481 1542.97 L755.481 1548.85 L750.597 1548.85 L750.597 1542.97 Z" fill="#000000" fill-rule="nonzero" fill-opacity="1" /><path clip-path="url(#clip820)" d="M765.713 1514.29 L784.069 1514.29 L784.069 1518.22 L769.995 1518.22 L769.995 1526.7 Q771.013 1526.35 772.032 1526.19 Q773.05 1526 774.069 1526 Q779.856 1526 783.236 1529.17 Q786.615 1532.34 786.615 1537.76 Q786.615 1543.34 783.143 1546.44 Q779.671 1549.52 773.351 1549.52 Q771.175 1549.52 768.907 1549.15 Q766.662 1548.78 764.254 1548.04 L764.254 1543.34 Q766.338 1544.47 768.56 1545.03 Q770.782 1545.58 773.259 1545.58 Q777.263 1545.58 779.601 1543.48 Q781.939 1541.37 781.939 1537.76 Q781.939 1534.15 779.601 1532.04 Q777.263 1529.94 773.259 1529.94 Q771.384 1529.94 769.509 1530.35 Q767.657 1530.77 765.713 1531.65 L765.713 1514.29 Z" fill="#000000" fill-rule="nonzero" fill-opacity="1" /><path clip-path="url(#clip820)" d="M1250.73 1517.37 Q1247.12 1517.37 1245.29 1520.93 Q1243.49 1524.47 1243.49 1531.6 Q1243.49 1538.71 1245.29 1542.27 Q1247.12 1545.82 1250.73 1545.82 Q1254.36 1545.82 1256.17 1542.27 Q1258 1538.71 1258 1531.6 Q1258 1524.47 1256.17 1520.93 Q1254.36 1517.37 1250.73 1517.37 M1250.73 1513.66 Q1256.54 1513.66 1259.6 1518.27 Q1262.67 1522.85 1262.67 1531.6 Q1262.67 1540.33 1259.6 1544.94 Q1256.54 1549.52 1250.73 1549.52 Q1244.92 1549.52 1241.84 1544.94 Q1238.79 1540.33 1238.79 1531.6 Q1238.79 1522.85 1241.84 1518.27 Q1244.92 1513.66 1250.73 1513.66 Z" fill="#000000" fill-rule="nonzero" fill-opacity="1" /><path clip-path="url(#clip820)" d="M1270.89 1542.97 L1275.78 1542.97 L1275.78 1548.85 L1270.89 1548.85 L1270.89 1542.97 Z" fill="#000000" fill-rule="nonzero" fill-opacity="1" /><path clip-path="url(#clip820)" d="M1295.96 1517.37 Q1292.35 1517.37 1290.52 1520.93 Q1288.72 1524.47 1288.72 1531.6 Q1288.72 1538.71 1290.52 1542.27 Q1292.35 1545.82 1295.96 1545.82 Q1299.6 1545.82 1301.4 1542.27 Q1303.23 1538.71 1303.23 1531.6 Q1303.23 1524.47 1301.4 1520.93 Q1299.6 1517.37 1295.96 1517.37 M1295.96 1513.66 Q1301.77 1513.66 1304.83 1518.27 Q1307.91 1522.85 1307.91 1531.6 Q1307.91 1540.33 1304.83 1544.94 Q1301.77 1549.52 1295.96 1549.52 Q1290.15 1549.52 1287.07 1544.94 Q1284.02 1540.33 1284.02 1531.6 Q1284.02 1522.85 1287.07 1518.27 Q1290.15 1513.66 1295.96 1513.66 Z" fill="#000000" fill-rule="nonzero" fill-opacity="1" /><path clip-path="url(#clip820)" d="M1784.79 1544.91 L1801.11 1544.91 L1801.11 1548.85 L1779.16 1548.85 L1779.16 1544.91 Q1781.82 1542.16 1786.41 1537.53 Q1791.01 1532.88 1792.19 1531.53 Q1794.44 1529.01 1795.32 1527.27 Q1796.22 1525.51 1796.22 1523.82 Q1796.22 1521.07 1794.28 1519.33 Q1792.36 1517.6 1789.25 1517.6 Q1787.06 1517.6 1784.6 1518.36 Q1782.17 1519.13 1779.39 1520.68 L1779.39 1515.95 Q1782.22 1514.82 1784.67 1514.24 Q1787.13 1513.66 1789.16 1513.66 Q1794.53 1513.66 1797.73 1516.35 Q1800.92 1519.03 1800.92 1523.52 Q1800.92 1525.65 1800.11 1527.57 Q1799.32 1529.47 1797.22 1532.07 Q1796.64 1532.74 1793.54 1535.95 Q1790.44 1539.15 1784.79 1544.91 Z" fill="#000000" fill-rule="nonzero" fill-opacity="1" /><path clip-path="url(#clip820)" d="M1810.92 1542.97 L1815.81 1542.97 L1815.81 1548.85 L1810.92 1548.85 L1810.92 1542.97 Z" fill="#000000" fill-rule="nonzero" fill-opacity="1" /><path clip-path="url(#clip820)" d="M1826.04 1514.29 L1844.39 1514.29 L1844.39 1518.22 L1830.32 1518.22 L1830.32 1526.7 Q1831.34 1526.35 1832.36 1526.19 Q1833.37 1526 1834.39 1526 Q1840.18 1526 1843.56 1529.17 Q1846.94 1532.34 1846.94 1537.76 Q1846.94 1543.34 1843.47 1546.44 Q1840 1549.52 1833.68 1549.52 Q1831.5 1549.52 1829.23 1549.15 Q1826.99 1548.78 1824.58 1548.04 L1824.58 1543.34 Q1826.66 1544.47 1828.88 1545.03 Q1831.11 1545.58 1833.58 1545.58 Q1837.59 1545.58 1839.93 1543.48 Q1842.26 1541.37 1842.26 1537.76 Q1842.26 1534.15 1839.93 1532.04 Q1837.59 1529.94 1833.58 1529.94 Q1831.71 1529.94 1829.83 1530.35 Q1827.98 1530.77 1826.04 1531.65 L1826.04 1514.29 Z" fill="#000000" fill-rule="nonzero" fill-opacity="1" /><path clip-path="url(#clip820)" d="M2319.92 1514.29 L2338.28 1514.29 L2338.28 1518.22 L2324.2 1518.22 L2324.2 1526.7 Q2325.22 1526.35 2326.24 1526.19 Q2327.26 1526 2328.28 1526 Q2334.06 1526 2337.44 1529.17 Q2340.82 1532.34 2340.82 1537.76 Q2340.82 1543.34 2337.35 1546.44 Q2333.88 1549.52 2327.56 1549.52 Q2325.38 1549.52 2323.11 1549.15 Q2320.87 1548.78 2318.46 1548.04 L2318.46 1543.34 Q2320.55 1544.47 2322.77 1545.03 Q2324.99 1545.58 2327.47 1545.58 Q2331.47 1545.58 2333.81 1543.48 Q2336.15 1541.37 2336.15 1537.76 Q2336.15 1534.15 2333.81 1532.04 Q2331.47 1529.94 2327.47 1529.94 Q2325.59 1529.94 2323.72 1530.35 Q2321.86 1530.77 2319.92 1531.65 L2319.92 1514.29 Z" fill="#000000" fill-rule="nonzero" fill-opacity="1" /><path clip-path="url(#clip820)" d="M2350.04 1542.97 L2354.92 1542.97 L2354.92 1548.85 L2350.04 1548.85 L2350.04 1542.97 Z" fill="#000000" fill-rule="nonzero" fill-opacity="1" /><path clip-path="url(#clip820)" d="M2375.11 1517.37 Q2371.49 1517.37 2369.67 1520.93 Q2367.86 1524.47 2367.86 1531.6 Q2367.86 1538.71 2369.67 1542.27 Q2371.49 1545.82 2375.11 1545.82 Q2378.74 1545.82 2380.55 1542.27 Q2382.37 1538.71 2382.37 1531.6 Q2382.37 1524.47 2380.55 1520.93 Q2378.74 1517.37 2375.11 1517.37 M2375.11 1513.66 Q2380.92 1513.66 2383.97 1518.27 Q2387.05 1522.85 2387.05 1531.6 Q2387.05 1540.33 2383.97 1544.94 Q2380.92 1549.52 2375.11 1549.52 Q2369.3 1549.52 2366.22 1544.94 Q2363.16 1540.33 2363.16 1531.6 Q2363.16 1522.85 2366.22 1518.27 Q2369.3 1513.66 2375.11 1513.66 Z" fill="#000000" fill-rule="nonzero" fill-opacity="1" /><polyline clip-path="url(#clip820)" style="stroke:#000000; stroke-linecap:round; stroke-linejoin:round; stroke-width:4; stroke-opacity:1; fill:none" points="193.936,1486.45 193.936,47.2441 "/>
<polyline clip-path="url(#clip820)" style="stroke:#000000; stroke-linecap:round; stroke-linejoin:round; stroke-width:4; stroke-opacity:1; fill:none" points="193.936,1486.45 212.834,1486.45 "/>
<polyline clip-path="url(#clip820)" style="stroke:#000000; stroke-linecap:round; stroke-linejoin:round; stroke-width:4; stroke-opacity:1; fill:none" points="193.936,1126.65 212.834,1126.65 "/>
<polyline clip-path="url(#clip820)" style="stroke:#000000; stroke-linecap:round; stroke-linejoin:round; stroke-width:4; stroke-opacity:1; fill:none" points="193.936,766.846 212.834,766.846 "/>
<polyline clip-path="url(#clip820)" style="stroke:#000000; stroke-linecap:round; stroke-linejoin:round; stroke-width:4; stroke-opacity:1; fill:none" points="193.936,407.045 212.834,407.045 "/>
<polyline clip-path="url(#clip820)" style="stroke:#000000; stroke-linecap:round; stroke-linejoin:round; stroke-width:4; stroke-opacity:1; fill:none" points="193.936,47.2441 212.834,47.2441 "/>
<path clip-path="url(#clip820)" d="M50.9921 1486.9 L80.6679 1486.9 L80.6679 1490.83 L50.9921 1490.83 L50.9921 1486.9 Z" fill="#000000" fill-rule="nonzero" fill-opacity="1" /><path clip-path="url(#clip820)" d="M90.8067 1469.17 L109.163 1469.17 L109.163 1473.1 L95.0891 1473.1 L95.0891 1481.58 Q96.1076 1481.23 97.1261 1481.07 Q98.1447 1480.88 99.1632 1480.88 Q104.95 1480.88 108.33 1484.05 Q111.709 1487.22 111.709 1492.64 Q111.709 1498.22 108.237 1501.32 Q104.765 1504.4 98.4456 1504.4 Q96.2697 1504.4 94.0012 1504.03 Q91.7558 1503.66 89.3484 1502.92 L89.3484 1498.22 Q91.4317 1499.35 93.6539 1499.91 Q95.8761 1500.46 98.353 1500.46 Q102.358 1500.46 104.696 1498.36 Q107.033 1496.25 107.033 1492.64 Q107.033 1489.03 104.696 1486.92 Q102.358 1484.82 98.353 1484.82 Q96.478 1484.82 94.603 1485.23 Q92.7512 1485.65 90.8067 1486.53 L90.8067 1469.17 Z" fill="#000000" fill-rule="nonzero" fill-opacity="1" /><path clip-path="url(#clip820)" d="M120.922 1497.85 L125.807 1497.85 L125.807 1503.73 L120.922 1503.73 L120.922 1497.85 Z" fill="#000000" fill-rule="nonzero" fill-opacity="1" /><path clip-path="url(#clip820)" d="M145.992 1472.25 Q142.381 1472.25 140.552 1475.81 Q138.746 1479.35 138.746 1486.48 Q138.746 1493.59 140.552 1497.15 Q142.381 1500.7 145.992 1500.7 Q149.626 1500.7 151.431 1497.15 Q153.26 1493.59 153.26 1486.48 Q153.26 1479.35 151.431 1475.81 Q149.626 1472.25 145.992 1472.25 M145.992 1468.54 Q151.802 1468.54 154.857 1473.15 Q157.936 1477.73 157.936 1486.48 Q157.936 1495.21 154.857 1499.82 Q151.802 1504.4 145.992 1504.4 Q140.181 1504.4 137.103 1499.82 Q134.047 1495.21 134.047 1486.48 Q134.047 1477.73 137.103 1473.15 Q140.181 1468.54 145.992 1468.54 Z" fill="#000000" fill-rule="nonzero" fill-opacity="1" /><path clip-path="url(#clip820)" d="M51.9875 1127.1 L81.6633 1127.1 L81.6633 1131.03 L51.9875 1131.03 L51.9875 1127.1 Z" fill="#000000" fill-rule="nonzero" fill-opacity="1" /><path clip-path="url(#clip820)" d="M95.7836 1139.99 L112.103 1139.99 L112.103 1143.93 L90.1586 1143.93 L90.1586 1139.99 Q92.8206 1137.24 97.4039 1132.61 Q102.01 1127.95 103.191 1126.61 Q105.436 1124.09 106.316 1122.35 Q107.219 1120.59 107.219 1118.9 Q107.219 1116.15 105.274 1114.41 Q103.353 1112.68 100.251 1112.68 Q98.0521 1112.68 95.5984 1113.44 Q93.1678 1114.2 90.3901 1115.76 L90.3901 1111.03 Q93.2141 1109.9 95.6678 1109.32 Q98.1215 1108.74 100.159 1108.74 Q105.529 1108.74 108.723 1111.43 Q111.918 1114.11 111.918 1118.6 Q111.918 1120.73 111.108 1122.65 Q110.321 1124.55 108.214 1127.14 Q107.635 1127.82 104.534 1131.03 Q101.432 1134.23 95.7836 1139.99 Z" fill="#000000" fill-rule="nonzero" fill-opacity="1" /><path clip-path="url(#clip820)" d="M121.918 1138.05 L126.802 1138.05 L126.802 1143.93 L121.918 1143.93 L121.918 1138.05 Z" fill="#000000" fill-rule="nonzero" fill-opacity="1" /><path clip-path="url(#clip820)" d="M137.033 1109.37 L155.39 1109.37 L155.39 1113.3 L141.316 1113.3 L141.316 1121.77 Q142.334 1121.43 143.353 1121.27 Q144.371 1121.08 145.39 1121.08 Q151.177 1121.08 154.556 1124.25 Q157.936 1127.42 157.936 1132.84 Q157.936 1138.42 154.464 1141.52 Q150.992 1144.6 144.672 1144.6 Q142.496 1144.6 140.228 1144.23 Q137.982 1143.86 135.575 1143.12 L135.575 1138.42 Q137.658 1139.55 139.881 1140.11 Q142.103 1140.66 144.58 1140.66 Q148.584 1140.66 150.922 1138.56 Q153.26 1136.45 153.26 1132.84 Q153.26 1129.23 150.922 1127.12 Q148.584 1125.01 144.58 1125.01 Q142.705 1125.01 140.83 1125.43 Q138.978 1125.85 137.033 1126.73 L137.033 1109.37 Z" fill="#000000" fill-rule="nonzero" fill-opacity="1" /><path clip-path="url(#clip820)" d="M100.76 752.645 Q97.1493 752.645 95.3206 756.209 Q93.515 759.751 93.515 766.881 Q93.515 773.987 95.3206 777.552 Q97.1493 781.094 100.76 781.094 Q104.395 781.094 106.2 777.552 Q108.029 773.987 108.029 766.881 Q108.029 759.751 106.2 756.209 Q104.395 752.645 100.76 752.645 M100.76 748.941 Q106.571 748.941 109.626 753.547 Q112.705 758.131 112.705 766.881 Q112.705 775.608 109.626 780.214 Q106.571 784.797 100.76 784.797 Q94.9502 784.797 91.8715 780.214 Q88.816 775.608 88.816 766.881 Q88.816 758.131 91.8715 753.547 Q94.9502 748.941 100.76 748.941 Z" fill="#000000" fill-rule="nonzero" fill-opacity="1" /><path clip-path="url(#clip820)" d="M120.922 778.246 L125.807 778.246 L125.807 784.126 L120.922 784.126 L120.922 778.246 Z" fill="#000000" fill-rule="nonzero" fill-opacity="1" /><path clip-path="url(#clip820)" d="M145.992 752.645 Q142.381 752.645 140.552 756.209 Q138.746 759.751 138.746 766.881 Q138.746 773.987 140.552 777.552 Q142.381 781.094 145.992 781.094 Q149.626 781.094 151.431 777.552 Q153.26 773.987 153.26 766.881 Q153.26 759.751 151.431 756.209 Q149.626 752.645 145.992 752.645 M145.992 748.941 Q151.802 748.941 154.857 753.547 Q157.936 758.131 157.936 766.881 Q157.936 775.608 154.857 780.214 Q151.802 784.797 145.992 784.797 Q140.181 784.797 137.103 780.214 Q134.047 775.608 134.047 766.881 Q134.047 758.131 137.103 753.547 Q140.181 748.941 145.992 748.941 Z" fill="#000000" fill-rule="nonzero" fill-opacity="1" /><path clip-path="url(#clip820)" d="M95.7836 420.39 L112.103 420.39 L112.103 424.325 L90.1586 424.325 L90.1586 420.39 Q92.8206 417.635 97.4039 413.006 Q102.01 408.353 103.191 407.01 Q105.436 404.487 106.316 402.751 Q107.219 400.992 107.219 399.302 Q107.219 396.547 105.274 394.811 Q103.353 393.075 100.251 393.075 Q98.0521 393.075 95.5984 393.839 Q93.1678 394.603 90.3901 396.154 L90.3901 391.432 Q93.2141 390.297 95.6678 389.719 Q98.1215 389.14 100.159 389.14 Q105.529 389.14 108.723 391.825 Q111.918 394.51 111.918 399.001 Q111.918 401.131 111.108 403.052 Q110.321 404.95 108.214 407.543 Q107.635 408.214 104.534 411.432 Q101.432 414.626 95.7836 420.39 Z" fill="#000000" fill-rule="nonzero" fill-opacity="1" /><path clip-path="url(#clip820)" d="M121.918 418.445 L126.802 418.445 L126.802 424.325 L121.918 424.325 L121.918 418.445 Z" fill="#000000" fill-rule="nonzero" fill-opacity="1" /><path clip-path="url(#clip820)" d="M137.033 389.765 L155.39 389.765 L155.39 393.7 L141.316 393.7 L141.316 402.172 Q142.334 401.825 143.353 401.663 Q144.371 401.478 145.39 401.478 Q151.177 401.478 154.556 404.649 Q157.936 407.82 157.936 413.237 Q157.936 418.816 154.464 421.918 Q150.992 424.996 144.672 424.996 Q142.496 424.996 140.228 424.626 Q137.982 424.256 135.575 423.515 L135.575 418.816 Q137.658 419.95 139.881 420.506 Q142.103 421.061 144.58 421.061 Q148.584 421.061 150.922 418.955 Q153.26 416.848 153.26 413.237 Q153.26 409.626 150.922 407.52 Q148.584 405.413 144.58 405.413 Q142.705 405.413 140.83 405.83 Q138.978 406.246 137.033 407.126 L137.033 389.765 Z" fill="#000000" fill-rule="nonzero" fill-opacity="1" /><path clip-path="url(#clip820)" d="M90.8067 29.9641 L109.163 29.9641 L109.163 33.8993 L95.0891 33.8993 L95.0891 42.3714 Q96.1076 42.0242 97.1261 41.8622 Q98.1447 41.677 99.1632 41.677 Q104.95 41.677 108.33 44.8483 Q111.709 48.0196 111.709 53.4362 Q111.709 59.0149 108.237 62.1167 Q104.765 65.1954 98.4456 65.1954 Q96.2697 65.1954 94.0012 64.825 Q91.7558 64.4547 89.3484 63.7139 L89.3484 59.0149 Q91.4317 60.1491 93.6539 60.7047 Q95.8761 61.2602 98.353 61.2602 Q102.358 61.2602 104.696 59.1538 Q107.033 57.0473 107.033 53.4362 Q107.033 49.8251 104.696 47.7186 Q102.358 45.6122 98.353 45.6122 Q96.478 45.6122 94.603 46.0288 Q92.7512 46.4455 90.8067 47.3251 L90.8067 29.9641 Z" fill="#000000" fill-rule="nonzero" fill-opacity="1" /><path clip-path="url(#clip820)" d="M120.922 58.6445 L125.807 58.6445 L125.807 64.5241 L120.922 64.5241 L120.922 58.6445 Z" fill="#000000" fill-rule="nonzero" fill-opacity="1" /><path clip-path="url(#clip820)" d="M145.992 33.0428 Q142.381 33.0428 140.552 36.6076 Q138.746 40.1492 138.746 47.2788 Q138.746 54.3853 140.552 57.9501 Q142.381 61.4917 145.992 61.4917 Q149.626 61.4917 151.431 57.9501 Q153.26 54.3853 153.26 47.2788 Q153.26 40.1492 151.431 36.6076 Q149.626 33.0428 145.992 33.0428 M145.992 29.3391 Q151.802 29.3391 154.857 33.9456 Q157.936 38.5289 157.936 47.2788 Q157.936 56.0056 154.857 60.6121 Q151.802 65.1954 145.992 65.1954 Q140.181 65.1954 137.103 60.6121 Q134.047 56.0056 134.047 47.2788 Q134.047 38.5289 137.103 33.9456 Q140.181 29.3391 145.992 29.3391 Z" fill="#000000" fill-rule="nonzero" fill-opacity="1" /><polyline clip-path="url(#clip822)" style="stroke:#000000; stroke-linecap:round; stroke-linejoin:round; stroke-width:4; stroke-opacity:0.5; fill:none" points="193.936,1970.15 196.097,1968.3 198.258,1966.45 200.419,1964.61 202.58,1962.76 204.741,1960.91 206.902,1959.07 209.063,1957.22 211.224,1955.37 213.385,1953.52 215.546,1951.68 217.707,1949.83 219.868,1947.98 222.029,1946.13 224.19,1944.29 226.351,1942.44 228.512,1940.59 230.673,1938.74 232.834,1936.9 234.995,1935.05 237.156,1933.2 239.317,1931.35 241.478,1929.51 243.639,1927.66 245.8,1925.81 247.961,1923.96 250.122,1922.12 252.282,1920.27 254.443,1918.42 256.604,1916.57 258.765,1914.73 260.926,1912.88 263.087,1911.03 265.248,1909.18 267.409,1907.34 269.57,1905.49 271.731,1903.64 273.892,1901.79 276.053,1899.95 278.214,1898.1 280.375,1896.25 282.536,1894.41 284.697,1892.56 286.858,1890.71 289.019,1888.86 291.18,1887.02 293.341,1885.17 295.502,1883.32 297.663,1881.47 299.824,1879.63 301.985,1877.78 304.146,1875.93 306.307,1874.08 308.468,1872.24 310.629,1870.39 312.79,1868.54 314.951,1866.69 317.112,1864.85 319.273,1863 321.434,1861.15 323.595,1859.3 325.756,1857.46 327.917,1855.61 330.078,1853.76 332.239,1851.91 334.4,1850.07 336.561,1848.22 338.722,1846.37 340.883,1844.52 343.044,1842.68 345.205,1840.83 347.366,1838.98 349.527,1837.13 351.688,1835.29 353.849,1833.44 356.01,1831.59 358.171,1829.75 360.332,1827.9 362.493,1826.05 364.653,1824.2 366.814,1822.36 368.975,1820.51 371.136,1818.66 373.297,1816.81 375.458,1814.97 377.619,1813.12 379.78,1811.27 381.941,1809.42 384.102,1807.58 386.263,1805.73 388.424,1803.88 390.585,1802.03 392.746,1800.19 394.907,1798.34 397.068,1796.49 399.229,1794.64 401.39,1792.8 403.551,1790.95 405.712,1789.1 407.873,1787.25 410.034,1785.41 412.195,1783.56 414.356,1781.71 416.517,1779.86 418.678,1778.02 420.839,1776.17 423,1774.32 425.161,1772.47 427.322,1770.63 429.483,1768.78 431.644,1766.93 433.805,1765.09 435.966,1763.24 438.127,1761.39 440.288,1759.54 442.449,1757.7 444.61,1755.85 446.771,1754 448.932,1752.15 451.093,1750.31 453.254,1748.46 455.415,1746.61 457.576,1744.76 459.737,1742.92 461.898,1741.07 464.059,1739.22 466.22,1737.37 468.381,1735.53 470.542,1733.68 472.703,1731.83 474.864,1729.98 477.024,1728.14 479.185,1726.29 481.346,1724.44 483.507,1722.59 485.668,1720.75 487.829,1718.9 489.99,1717.05 492.151,1715.2 494.312,1713.36 496.473,1711.51 498.634,1709.66 500.795,1707.81 502.956,1705.97 505.117,1704.12 507.278,1702.27 509.439,1700.43 511.6,1698.58 513.761,1696.73 515.922,1694.88 518.083,1693.04 520.244,1691.19 522.405,1689.34 524.566,1687.49 526.727,1685.65 528.888,1683.8 531.049,1681.95 533.21,1680.1 535.371,1678.26 537.532,1676.41 539.693,1674.56 541.854,1672.71 544.015,1670.87 546.176,1669.02 548.337,1667.17 550.498,1665.32 552.659,1663.48 554.82,1661.63 556.981,1659.78 559.142,1657.93 561.303,1656.09 563.464,1654.24 565.625,1652.39 567.786,1650.54 569.947,1648.7 572.108,1646.85 574.269,1645 576.43,1643.15 578.591,1641.31 580.752,1639.46 582.913,1637.61 585.074,1635.77 587.235,1633.92 589.396,1632.07 591.556,1630.22 593.717,1628.38 595.878,1626.53 598.039,1624.68 600.2,1622.83 602.361,1620.99 604.522,1619.14 606.683,1617.29 608.844,1615.44 611.005,1613.6 613.166,1611.75 615.327,1609.9 617.488,1608.05 619.649,1606.21 621.81,1604.36 623.971,1602.51 626.132,1600.66 628.293,1598.82 630.454,1596.97 632.615,1595.12 634.776,1593.27 636.937,1591.43 639.098,1589.58 641.259,1587.73 643.42,1585.88 645.581,1584.04 647.742,1582.19 649.903,1580.34 652.064,1578.49 654.225,1576.65 656.386,1574.8 658.547,1572.95 660.708,1571.1 662.869,1569.26 665.03,1567.41 667.191,1565.56 669.352,1563.72 671.513,1561.87 673.674,1560.02 675.835,1558.17 677.996,1556.33 680.157,1554.48 682.318,1552.63 684.479,1550.78 686.64,1548.94 688.801,1547.09 690.962,1545.24 693.123,1543.39 695.284,1541.55 697.445,1539.7 699.606,1537.85 701.767,1536 703.927,1534.16 706.088,1532.31 708.249,1530.46 710.41,1528.61 712.571,1526.77 714.732,1524.92 716.893,1523.07 719.054,1521.22 721.215,1519.38 723.376,1517.53 725.537,1515.68 727.698,1513.83 729.859,1511.99 732.02,1510.14 734.181,1508.29 736.342,1506.44 738.503,1504.6 740.664,1502.75 742.825,1500.9 744.986,1499.06 747.147,1497.21 749.308,1495.36 751.469,1493.51 753.63,1491.67 755.791,1489.82 757.952,1487.97 760.113,1486.12 762.274,1484.28 764.435,1482.43 766.596,1480.58 768.757,1478.73 770.918,1476.89 773.079,1475.04 775.24,1473.19 777.401,1471.34 779.562,1469.5 781.723,1467.65 783.884,1465.8 786.045,1463.95 788.206,1462.11 790.367,1460.26 792.528,1458.41 794.689,1456.56 796.85,1454.72 799.011,1452.87 801.172,1451.02 803.333,1449.17 805.494,1447.33 807.655,1445.48 809.816,1443.63 811.977,1441.78 814.138,1439.94 816.298,1438.09 818.459,1436.24 820.62,1434.4 822.781,1432.55 824.942,1430.7 827.103,1428.85 829.264,1427.01 831.425,1425.16 833.586,1423.31 835.747,1421.46 837.908,1419.62 840.069,1417.77 842.23,1415.92 844.391,1414.07 846.552,1412.23 848.713,1410.38 850.874,1408.53 853.035,1406.68 855.196,1404.84 857.357,1402.99 859.518,1401.14 861.679,1399.29 863.84,1397.45 866.001,1395.6 868.162,1393.75 870.323,1391.9 872.484,1390.06 874.645,1388.21 876.806,1386.36 878.967,1384.51 881.128,1382.67 883.289,1380.82 885.45,1378.97 887.611,1377.12 889.772,1375.28 891.933,1373.43 894.094,1371.58 896.255,1369.74 898.416,1367.89 900.577,1366.04 902.738,1364.19 904.899,1362.35 907.06,1360.5 909.221,1358.65 911.382,1356.8 913.543,1354.96 915.704,1353.11 917.865,1351.26 920.026,1349.41 922.187,1347.57 924.348,1345.72 926.509,1343.87 928.669,1342.02 930.83,1340.18 932.991,1338.33 935.152,1336.48 937.313,1334.63 939.474,1332.79 941.635,1330.94 943.796,1329.09 945.957,1327.24 948.118,1325.4 950.279,1323.55 952.44,1321.7 954.601,1319.85 956.762,1318.01 958.923,1316.16 961.084,1314.31 963.245,1312.46 965.406,1310.62 967.567,1308.77 969.728,1306.92 971.889,1305.08 974.05,1303.23 976.211,1301.38 978.372,1299.53 980.533,1297.69 982.694,1295.84 984.855,1293.99 987.016,1292.14 989.177,1290.3 991.338,1288.45 993.499,1286.6 995.66,1284.75 997.821,1282.91 999.982,1281.06 1002.14,1279.21 1004.3,1277.36 1006.46,1275.52 1008.63,1273.67 1010.79,1271.82 1012.95,1269.97 1015.11,1268.13 1017.27,1266.28 1019.43,1264.43 1021.59,1262.58 1023.75,1260.74 1025.91,1258.89 1028.07,1257.04 1030.24,1255.19 1032.4,1253.35 1034.56,1251.5 1036.72,1249.65 1038.88,1247.8 1041.04,1245.96 1043.2,1244.11 1045.36,1242.26 1047.52,1240.42 1049.68,1238.57 1051.85,1236.72 1054.01,1234.87 1056.17,1233.03 1058.33,1231.18 1060.49,1229.33 1062.65,1227.48 1064.81,1225.64 1066.97,1223.79 1069.13,1221.94 1071.29,1220.09 1073.46,1218.25 1075.62,1216.4 1077.78,1214.55 1079.94,1212.7 1082.1,1210.86 1084.26,1209.01 1086.42,1207.16 1088.58,1205.31 1090.74,1203.47 1092.9,1201.62 1095.07,1199.77 1097.23,1197.92 1099.39,1196.08 1101.55,1194.23 1103.71,1192.38 1105.87,1190.53 1108.03,1188.69 1110.19,1186.84 1112.35,1184.99 1114.51,1183.14 1116.67,1181.3 1118.84,1179.45 1121,1177.6 1123.16,1175.76 1125.32,1173.91 1127.48,1172.06 1129.64,1170.21 1131.8,1168.37 1133.96,1166.52 1136.12,1164.67 1138.28,1162.82 1140.45,1160.98 1142.61,1159.13 1144.77,1157.28 1146.93,1155.43 1149.09,1153.59 1151.25,1151.74 1153.41,1149.89 1155.57,1148.04 1157.73,1146.2 1159.89,1144.35 1162.06,1142.5 1164.22,1140.65 1166.38,1138.81 1168.54,1136.96 1170.7,1135.11 1172.86,1133.26 1175.02,1131.42 1177.18,1129.57 1179.34,1127.72 1181.5,1125.87 1183.67,1124.03 1185.83,1122.18 1187.99,1120.33 1190.15,1118.48 1192.31,1116.64 1194.47,1114.79 1196.63,1112.94 1198.79,1111.09 1200.95,1109.25 1203.11,1107.4 1205.28,1105.55 1207.44,1103.71 1209.6,1101.86 1211.76,1100.01 1213.92,1098.16 1216.08,1096.32 1218.24,1094.47 1220.4,1092.62 1222.56,1090.77 1224.72,1088.93 1226.88,1087.08 1229.05,1085.23 1231.21,1083.38 1233.37,1081.54 1235.53,1079.69 1237.69,1077.84 1239.85,1075.99 1242.01,1074.15 1244.17,1072.3 1246.33,1070.45 1248.49,1068.6 1250.66,1066.76 1252.82,1064.91 1254.98,1063.06 1257.14,1061.21 1259.3,1059.37 1261.46,1057.52 1263.62,1055.67 1265.78,1053.82 1267.94,1051.98 1270.1,1050.13 1272.27,1048.28 1274.43,1046.43 1276.59,1044.59 1278.75,1042.74 1280.91,1040.89 1283.07,1039.05 1285.23,1037.2 1287.39,1035.35 1289.55,1033.5 1291.71,1031.66 1293.88,1029.81 1296.04,1027.96 1298.2,1026.11 1300.36,1024.27 1302.52,1022.42 1304.68,1020.57 1306.84,1018.72 1309,1016.88 1311.16,1015.03 1313.32,1013.18 1315.49,1011.33 1317.65,1009.49 1319.81,1007.64 1321.97,1005.79 1324.13,1003.94 1326.29,1002.1 1328.45,1000.25 1330.61,998.402 1332.77,996.554 1334.93,994.707 1337.09,992.859 1339.26,991.012 1341.42,989.165 1343.58,987.317 1345.74,985.47 1347.9,983.622 1350.06,981.775 1352.22,979.927 1354.38,978.08 1356.54,976.233 1358.7,974.385 1360.87,972.538 1363.03,970.69 1365.19,968.843 1367.35,966.995 1369.51,965.148 1371.67,963.301 1373.83,961.453 1375.99,959.606 1378.15,957.758 1380.31,955.911 1382.48,954.063 1384.64,952.216 1386.8,950.369 1388.96,948.521 1391.12,946.674 1393.28,944.826 1395.44,942.979 1397.6,941.131 1399.76,939.284 1401.92,937.437 1404.09,935.589 1406.25,933.742 1408.41,931.894 1410.57,930.047 1412.73,928.199 1414.89,926.352 1417.05,924.505 1419.21,922.657 1421.37,920.81 1423.53,918.962 1425.7,917.115 1427.86,915.267 1430.02,913.42 1432.18,911.573 1434.34,909.725 1436.5,907.878 1438.66,906.03 1440.82,904.183 1442.98,902.335 1445.14,900.488 1447.3,898.641 1449.47,896.793 1451.63,894.946 1453.79,893.098 1455.95,891.251 1458.11,889.403 1460.27,887.556 1462.43,885.709 1464.59,883.861 1466.75,882.014 1468.91,880.166 1471.08,878.319 1473.24,876.471 1475.4,874.624 1477.56,872.777 1479.72,870.929 1481.88,869.082 1484.04,867.234 1486.2,865.387 1488.36,863.539 1490.52,861.692 1492.69,859.845 1494.85,857.997 1497.01,856.15 1499.17,854.302 1501.33,852.455 1503.49,850.607 1505.65,848.76 1507.81,846.913 1509.97,845.065 1512.13,843.218 1514.3,841.37 1516.46,839.523 1518.62,837.675 1520.78,835.828 1522.94,833.981 1525.1,832.133 1527.26,830.286 1529.42,828.438 1531.58,826.591 1533.74,824.743 1535.91,822.896 1538.07,821.049 1540.23,819.201 1542.39,817.354 1544.55,815.506 1546.71,813.659 1548.87,811.811 1551.03,809.964 1553.19,808.116 1555.35,806.269 1557.51,804.422 1559.68,802.574 1561.84,800.727 1564,798.879 1566.16,797.032 1568.32,795.184 1570.48,793.337 1572.64,791.49 1574.8,789.642 1576.96,787.795 1579.12,785.947 1581.29,784.1 1583.45,782.252 1585.61,780.405 1587.77,778.558 1589.93,776.71 1592.09,774.863 1594.25,773.015 1596.41,771.168 1598.57,769.32 1600.73,767.473 1602.9,765.626 1605.06,763.778 1607.22,761.931 1609.38,760.083 1611.54,758.236 1613.7,756.388 1615.86,754.541 1618.02,752.694 1620.18,750.846 1622.34,748.999 1624.51,747.151 1626.67,745.304 1628.83,743.456 1630.99,741.609 1633.15,739.762 1635.31,737.914 1637.47,736.067 1639.63,734.219 1641.79,732.372 1643.95,730.524 1646.12,728.677 1648.28,726.83 1650.44,724.982 1652.6,723.135 1654.76,721.287 1656.92,719.44 1659.08,717.592 1661.24,715.745 1663.4,713.898 1665.56,712.05 1667.72,710.203 1669.89,708.355 1672.05,706.508 1674.21,704.66 1676.37,702.813 1678.53,700.966 1680.69,699.118 1682.85,697.271 1685.01,695.423 1687.17,693.576 1689.33,691.728 1691.5,689.881 1693.66,688.034 1695.82,686.186 1697.98,684.339 1700.14,682.491 1702.3,680.644 1704.46,678.796 1706.62,676.949 1708.78,675.102 1710.94,673.254 1713.11,671.407 1715.27,669.559 1717.43,667.712 1719.59,665.864 1721.75,664.017 1723.91,662.17 1726.07,660.322 1728.23,658.475 1730.39,656.627 1732.55,654.78 1734.72,652.932 1736.88,651.085 1739.04,649.238 1741.2,647.39 1743.36,645.543 1745.52,643.695 1747.68,641.848 1749.84,640 1752,638.153 1754.16,636.306 1756.33,634.458 1758.49,632.611 1760.65,630.763 1762.81,628.916 1764.97,627.068 1767.13,625.221 1769.29,623.374 1771.45,621.526 1773.61,619.679 1775.77,617.831 1777.93,615.984 1780.1,614.136 1782.26,612.289 1784.42,610.442 1786.58,608.594 1788.74,606.747 1790.9,604.899 1793.06,603.052 1795.22,601.204 1797.38,599.357 1799.54,597.51 1801.71,595.662 1803.87,593.815 1806.03,591.967 1808.19,590.12 1810.35,588.272 1812.51,586.425 1814.67,584.578 1816.83,582.73 1818.99,580.883 1821.15,579.035 1823.32,577.188 1825.48,575.34 1827.64,573.493 1829.8,571.645 1831.96,569.798 1834.12,567.951 1836.28,566.103 1838.44,564.256 1840.6,562.408 1842.76,560.561 1844.93,558.713 1847.09,556.866 1849.25,555.019 1851.41,553.171 1853.57,551.324 1855.73,549.476 1857.89,547.629 1860.05,545.781 1862.21,543.934 1864.37,542.087 1866.54,540.239 1868.7,538.392 1870.86,536.544 1873.02,534.697 1875.18,532.849 1877.34,531.002 1879.5,529.155 1881.66,527.307 1883.82,525.46 1885.98,523.612 1888.15,521.765 1890.31,519.917 1892.47,518.07 1894.63,516.223 1896.79,514.375 1898.95,512.528 1901.11,510.68 1903.27,508.833 1905.43,506.985 1907.59,505.138 1909.75,503.291 1911.92,501.443 1914.08,499.596 1916.24,497.748 1918.4,495.901 1920.56,494.053 1922.72,492.206 1924.88,490.359 1927.04,488.511 1929.2,486.664 1931.36,484.816 1933.53,482.969 1935.69,481.121 1937.85,479.274 1940.01,477.427 1942.17,475.579 1944.33,473.732 1946.49,471.884 1948.65,470.037 1950.81,468.189 1952.97,466.342 1955.14,464.495 1957.3,462.647 1959.46,460.8 1961.62,458.952 1963.78,457.105 1965.94,455.257 1968.1,453.41 1970.26,451.563 1972.42,449.715 1974.58,447.868 1976.75,446.02 1978.91,444.173 1981.07,442.325 1983.23,440.478 1985.39,438.631 1987.55,436.783 1989.71,434.936 1991.87,433.088 1994.03,431.241 1996.19,429.393 1998.36,427.546 2000.52,425.699 2002.68,423.851 2004.84,422.004 2007,420.156 2009.16,418.309 2011.32,416.461 2013.48,414.614 2015.64,412.767 2017.8,410.919 2019.96,409.072 2022.13,407.224 2024.29,405.377 2026.45,403.529 2028.61,401.682 2030.77,399.835 2032.93,397.987 2035.09,396.14 2037.25,394.292 2039.41,392.445 2041.57,390.597 2043.74,388.75 2045.9,386.903 2048.06,385.055 2050.22,383.208 2052.38,381.36 2054.54,379.513 2056.7,377.665 2058.86,375.818 2061.02,373.971 2063.18,372.123 2065.35,370.276 2067.51,368.428 2069.67,366.581 2071.83,364.733 2073.99,362.886 2076.15,361.039 2078.31,359.191 2080.47,357.344 2082.63,355.496 2084.79,353.649 2086.96,351.801 2089.12,349.954 2091.28,348.106 2093.44,346.259 2095.6,344.412 2097.76,342.564 2099.92,340.717 2102.08,338.869 2104.24,337.022 2106.4,335.174 2108.57,333.327 2110.73,331.48 2112.89,329.632 2115.05,327.785 2117.21,325.937 2119.37,324.09 2121.53,322.242 2123.69,320.395 2125.85,318.548 2128.01,316.7 2130.17,314.853 2132.34,313.005 2134.5,311.158 2136.66,309.31 2138.82,307.463 2140.98,305.616 2143.14,303.768 2145.3,301.921 2147.46,300.073 2149.62,298.226 2151.78,296.378 2153.95,294.531 2156.11,292.684 2158.27,290.836 2160.43,288.989 2162.59,287.141 2164.75,285.294 2166.91,283.446 2169.07,281.599 2171.23,279.752 2173.39,277.904 2175.56,276.057 2177.72,274.209 2179.88,272.362 2182.04,270.514 2184.2,268.667 2186.36,266.82 2188.52,264.972 2190.68,263.125 2192.84,261.277 2195,259.43 2197.17,257.582 2199.33,255.735 2201.49,253.888 2203.65,252.04 2205.81,250.193 2207.97,248.345 2210.13,246.498 2212.29,244.65 2214.45,242.803 2216.61,240.956 2218.78,239.108 2220.94,237.261 2223.1,235.413 2225.26,233.566 2227.42,231.718 2229.58,229.871 2231.74,228.024 2233.9,226.176 2236.06,224.329 2238.22,222.481 2240.38,220.634 2242.55,218.786 2244.71,216.939 2246.87,215.092 2249.03,213.244 2251.19,211.397 2253.35,209.549 2255.51,207.702 2257.67,205.854 2259.83,204.007 2261.99,202.16 2264.16,200.312 2266.32,198.465 2268.48,196.617 2270.64,194.77 2272.8,192.922 2274.96,191.075 2277.12,189.228 2279.28,187.38 2281.44,185.533 2283.6,183.685 2285.77,181.838 2287.93,179.99 2290.09,178.143 2292.25,176.296 2294.41,174.448 2296.57,172.601 2298.73,170.753 2300.89,168.906 2303.05,167.058 2305.21,165.211 2307.38,163.364 2309.54,161.516 2311.7,159.669 2313.86,157.821 2316.02,155.974 2318.18,154.126 2320.34,152.279 2322.5,150.432 2324.66,148.584 2326.82,146.737 2328.99,144.889 2331.15,143.042 2333.31,141.194 2335.47,139.347 2337.63,137.5 2339.79,135.652 2341.95,133.805 2344.11,131.957 2346.27,130.11 2348.43,128.262 2350.59,126.415 2352.76,124.568 "/>
<circle clip-path="url(#clip822)" cx="841.582" cy="1412.61" r="14.4" fill="#000000" fill-rule="evenodd" fill-opacity="1" stroke="none"/>
<circle clip-path="url(#clip822)" cx="1057.46" cy="1246.43" r="14.4" fill="#000000" fill-rule="evenodd" fill-opacity="1" stroke="none"/>
<circle clip-path="url(#clip822)" cx="1273.35" cy="1049.12" r="14.4" fill="#000000" fill-rule="evenodd" fill-opacity="1" stroke="none"/>
<circle clip-path="url(#clip822)" cx="1489.23" cy="876.386" r="14.4" fill="#000000" fill-rule="evenodd" fill-opacity="1" stroke="none"/>
<circle clip-path="url(#clip822)" cx="1705.11" cy="659.149" r="14.4" fill="#000000" fill-rule="evenodd" fill-opacity="1" stroke="none"/>
<circle clip-path="url(#clip822)" cx="1920.99" cy="498.902" r="14.4" fill="#000000" fill-rule="evenodd" fill-opacity="1" stroke="none"/>
<circle clip-path="url(#clip822)" cx="2136.87" cy="312.036" r="14.4" fill="#000000" fill-rule="evenodd" fill-opacity="1" stroke="none"/>
<circle clip-path="url(#clip822)" cx="2352.76" cy="134.171" r="14.4" fill="#000000" fill-rule="evenodd" fill-opacity="1" stroke="none"/>
</svg>
