<?xml version="1.0" encoding="utf-8"?>
<svg xmlns="http://www.w3.org/2000/svg" xmlns:xlink="http://www.w3.org/1999/xlink" width="600" height="400" viewBox="0 0 2400 1600">
<defs>
  <clipPath id="clip920">
    <rect x="0" y="0" width="2400" height="1600"/>
  </clipPath>
</defs>
<path clip-path="url(#clip920)" d="M0 1600 L2400 1600 L2400 0 L0 0  Z" fill="#ffffff" fill-rule="evenodd" fill-opacity="1"/>
<defs>
  <clipPath id="clip921">
    <rect x="480" y="0" width="1681" height="1600"/>
  </clipPath>
</defs>
<path clip-path="url(#clip920)" d="M193.936 1486.45 L2352.76 1486.45 L2352.76 47.2441 L193.936 47.2441  Z" fill="#ffffff" fill-rule="evenodd" fill-opacity="1"/>
<defs>
  <clipPath id="clip922">
    <rect x="193" y="47" width="2160" height="1440"/>
  </clipPath>
</defs>
<polyline clip-path="url(#clip922)" style="stroke:#000000; stroke-linecap:round; stroke-linejoin:round; stroke-width:2; stroke-opacity:0.1; fill:none" points="193.936,1486.45 193.936,47.2441 "/>
<polyline clip-path="url(#clip922)" style="stroke:#000000; stroke-linecap:round; stroke-linejoin:round; stroke-width:2; stroke-opacity:0.1; fill:none" points="733.641,1486.45 733.641,47.2441 "/>
<polyline clip-path="url(#clip922)" style="stroke:#000000; stroke-linecap:round; stroke-linejoin:round; stroke-width:2; stroke-opacity:0.1; fill:none" points="1273.35,1486.45 1273.35,47.2441 "/>
<polyline clip-path="url(#clip922)" style="stroke:#000000; stroke-linecap:round; stroke-linejoin:round; stroke-width:2; stroke-opacity:0.1; fill:none" points="1813.05,1486.45 1813.05,47.2441 "/>
<polyline clip-path="url(#clip922)" style="stroke:#000000; stroke-linecap:round; stroke-linejoin:round; stroke-width:2; stroke-opacity:0.1; fill:none" points="2352.76,1486.45 2352.76,47.2441 "/>
<polyline clip-path="url(#clip922)" style="stroke:#000000; stroke-linecap:round; stroke-linejoin:round; stroke-width:2; stroke-opacity:0.1; fill:none" points="193.936,1486.45 2352.76,1486.45 "/>
<polyline clip-path="url(#clip922)" style="stroke:#000000; stroke-linecap:round; stroke-linejoin:round; stroke-width:2; stroke-opacity:0.1; fill:none" points="193.936,1126.65 2352.76,1126.65 "/>
<polyline clip-path="url(#clip922)" style="stroke:#000000; stroke-linecap:round; stroke-linejoin:round; stroke-width:2; stroke-opacity:0.1; fill:none" points="193.936,766.846 2352.76,766.846 "/>
<polyline clip-path="url(#clip922)" style="stroke:#000000; stroke-linecap:round; stroke-linejoin:round; stroke-width:2; stroke-opacity:0.1; fill:none" points="193.936,407.045 2352.76,407.045 "/>
<polyline clip-path="url(#clip922)" style="stroke:#000000; stroke-linecap:round; stroke-linejoin:round; stroke-width:2; stroke-opacity:0.1; fill:none" points="193.936,47.2441 2352.76,47.2441 "/>
<polyline clip-path="url(#clip920)" style="stroke:#000000; stroke-linecap:round; stroke-linejoin:round; stroke-width:4; stroke-opacity:1; fill:none" points="193.936,1486.45 2352.76,1486.45 "/>
<polyline clip-path="url(#clip920)" style="stroke:#000000; stroke-linecap:round; stroke-linejoin:round; stroke-width:4; stroke-opacity:1; fill:none" points="193.936,1486.45 193.936,1467.55 "/>
<polyline clip-path="url(#clip920)" style="stroke:#000000; stroke-linecap:round; stroke-linejoin:round; stroke-width:4; stroke-opacity:1; fill:none" points="733.641,1486.45 733.641,1467.55 "/>
<polyline clip-path="url(#clip920)" style="stroke:#000000; stroke-linecap:round; stroke-linejoin:round; stroke-width:4; stroke-opacity:1; fill:none" points="1273.35,1486.45 1273.35,1467.55 "/>
<polyline clip-path="url(#clip920)" style="stroke:#000000; stroke-linecap:round; stroke-linejoin:round; stroke-width:4; stroke-opacity:1; fill:none" points="1813.05,1486.45 1813.05,1467.55 "/>
<polyline clip-path="url(#clip920)" style="stroke:#000000; stroke-linecap:round; stroke-linejoin:round; stroke-width:4; stroke-opacity:1; fill:none" points="2352.76,1486.45 2352.76,1467.55 "/>
<path clip-path="url(#clip920)" d="M140.464 1532.02 L170.14 1532.02 L170.14 1535.95 L140.464 1535.95 L140.464 1532.02 Z" fill="#000000" fill-rule="nonzero" fill-opacity="1" /><path clip-path="url(#clip920)" d="M180.279 1514.29 L198.635 1514.29 L198.635 1518.22 L184.561 1518.22 L184.561 1526.7 Q185.58 1526.35 186.598 1526.19 Q187.617 1526 188.635 1526 Q194.422 1526 197.802 1529.17 Q201.181 1532.34 201.181 1537.76 Q201.181 1543.34 197.709 1546.44 Q194.237 1549.52 187.918 1549.52 Q185.742 1549.52 183.473 1549.15 Q181.228 1548.78 178.82 1548.04 L178.82 1543.34 Q180.904 1544.47 183.126 1545.03 Q185.348 1545.58 187.825 1545.58 Q191.83 1545.58 194.167 1543.48 Q196.505 1541.37 196.505 1537.76 Q196.505 1534.15 194.167 1532.04 Q191.83 1529.94 187.825 1529.94 Q185.95 1529.94 184.075 1530.35 Q182.223 1530.77 180.279 1531.65 L180.279 1514.29 Z" fill="#000000" fill-rule="nonzero" fill-opacity="1" /><path clip-path="url(#clip920)" d="M210.394 1542.97 L215.278 1542.97 L215.278 1548.85 L210.394 1548.85 L210.394 1542.97 Z" fill="#000000" fill-rule="nonzero" fill-opacity="1" /><path clip-path="url(#clip920)" d="M235.464 1517.37 Q231.852 1517.37 230.024 1520.93 Q228.218 1524.47 228.218 1531.6 Q228.218 1538.71 230.024 1542.27 Q231.852 1545.82 235.464 1545.82 Q239.098 1545.82 240.903 1542.27 Q242.732 1538.71 242.732 1531.6 Q242.732 1524.47 240.903 1520.93 Q239.098 1517.37 235.464 1517.37 M235.464 1513.66 Q241.274 1513.66 244.329 1518.27 Q247.408 1522.85 247.408 1531.6 Q247.408 1540.33 244.329 1544.94 Q241.274 1549.52 235.464 1549.52 Q229.653 1549.52 226.575 1544.94 Q223.519 1540.33 223.519 1531.6 Q223.519 1522.85 226.575 1518.27 Q229.653 1513.66 235.464 1513.66 Z" fill="#000000" fill-rule="nonzero" fill-opacity="1" /><path clip-path="url(#clip920)" d="M680.667 1532.02 L710.342 1532.02 L710.342 1535.95 L680.667 1535.95 L680.667 1532.02 Z" fill="#000000" fill-rule="nonzero" fill-opacity="1" /><path clip-path="url(#clip920)" d="M724.463 1544.91 L740.782 1544.91 L740.782 1548.85 L718.838 1548.85 L718.838 1544.91 Q721.5 1542.16 726.083 1537.53 Q730.69 1532.88 731.87 1531.53 Q734.116 1529.01 734.995 1527.27 Q735.898 1525.51 735.898 1523.82 Q735.898 1521.07 733.953 1519.33 Q732.032 1517.6 728.93 1517.6 Q726.731 1517.6 724.278 1518.36 Q721.847 1519.13 719.069 1520.68 L719.069 1515.95 Q721.893 1514.82 724.347 1514.24 Q726.801 1513.66 728.838 1513.66 Q734.208 1513.66 737.403 1516.35 Q740.597 1519.03 740.597 1523.52 Q740.597 1525.65 739.787 1527.57 Q739 1529.47 736.893 1532.07 Q736.315 1532.74 733.213 1535.95 Q730.111 1539.15 724.463 1544.91 Z" fill="#000000" fill-rule="nonzero" fill-opacity="1" /><path clip-path="url(#clip920)" d="M750.597 1542.97 L755.481 1542.97 L755.481 1548.85 L750.597 1548.85 L750.597 1542.97 Z" fill="#000000" fill-rule="nonzero" fill-opacity="1" /><path clip-path="url(#clip920)" d="M765.713 1514.29 L784.069 1514.29 L784.069 1518.22 L769.995 1518.22 L769.995 1526.7 Q771.013 1526.35 772.032 1526.19 Q773.05 1526 774.069 1526 Q779.856 1526 783.236 1529.17 Q786.615 1532.34 786.615 1537.76 Q786.615 1543.34 783.143 1546.44 Q779.671 1549.52 773.351 1549.52 Q771.175 1549.52 768.907 1549.15 Q766.662 1548.78 764.254 1548.04 L764.254 1543.34 Q766.338 1544.47 768.56 1545.03 Q770.782 1545.58 773.259 1545.58 Q777.263 1545.58 779.601 1543.48 Q781.939 1541.37 781.939 1537.76 Q781.939 1534.15 779.601 1532.04 Q777.263 1529.94 773.259 1529.94 Q771.384 1529.94 769.509 1530.35 Q767.657 1530.77 765.713 1531.65 L765.713 1514.29 Z" fill="#000000" fill-rule="nonzero" fill-opacity="1" /><path clip-path="url(#clip920)" d="M1250.73 1517.37 Q1247.12 1517.37 1245.29 1520.93 Q1243.49 1524.47 1243.49 1531.6 Q1243.49 1538.71 1245.29 1542.27 Q1247.12 1545.82 1250.73 1545.82 Q1254.36 1545.82 1256.17 1542.27 Q1258 1538.71 1258 1531.6 Q1258 1524.47 1256.17 1520.93 Q1254.36 1517.37 1250.73 1517.37 M1250.73 1513.66 Q1256.54 1513.66 1259.6 1518.27 Q1262.67 1522.85 1262.67 1531.6 Q1262.67 1540.33 1259.6 1544.94 Q1256.54 1549.52 1250.73 1549.52 Q1244.92 1549.52 1241.84 1544.94 Q1238.79 1540.33 1238.79 1531.6 Q1238.79 1522.85 1241.84 1518.27 Q1244.92 1513.66 1250.73 1513.66 Z" fill="#000000" fill-rule="nonzero" fill-opacity="1" /><path clip-path="url(#clip920)" d="M1270.89 1542.97 L1275.78 1542.97 L1275.78 1548.85 L1270.89 1548.85 L1270.89 1542.97 Z" fill="#000000" fill-rule="nonzero" fill-opacity="1" /><path clip-path="url(#clip920)" d="M1295.96 1517.37 Q1292.35 1517.37 1290.52 1520.93 Q1288.72 1524.47 1288.72 1531.6 Q1288.72 1538.71 1290.52 1542.27 Q1292.35 1545.82 1295.96 1545.82 Q1299.6 1545.82 1301.4 1542.27 Q1303.23 1538.71 1303.23 1531.6 Q1303.23 1524.47 1301.4 1520.93 Q1299.6 1517.37 1295.96 1517.37 M1295.96 1513.66 Q1301.77 1513.66 1304.83 1518.27 Q1307.91 1522.85 1307.91 1531.6 Q1307.91 1540.33 1304.83 1544.94 Q1301.77 1549.52 1295.96 1549.52 Q1290.15 1549.52 1287.07 1544.94 Q1284.02 1540.33 1284.02 1531.6 Q1284.02 1522.85 1287.07 1518.27 Q1290.15 1513.66 1295.96 1513.66 Z" fill="#000000" fill-rule="nonzero" fill-opacity="1" /><path clip-path="url(#clip920)" d="M1784.79 1544.91 L1801.11 1544.91 L1801.11 1548.85 L1779.16 1548.85 L1779.16 1544.91 Q1781.82 1542.16 1786.41 1537.53 Q1791.01 1532.88 1792.19 1531.53 Q1794.44 1529.01 1795.32 1527.27 Q1796.22 1525.51 1796.22 1523.82 Q1796.22 1521.07 1794.28 1519.33 Q1792.36 1517.6 1789.25 1517.6 Q1787.06 1517.6 1784.6 1518.36 Q1782.17 1519.13 1779.39 1520.68 L1779.39 1515.95 Q1782.22 1514.82 1784.67 1514.24 Q1787.13 1513.66 1789.16 1513.66 Q1794.53 1513.66 1797.73 1516.35 Q1800.92 1519.03 1800.92 1523.52 Q1800.92 1525.65 1800.11 1527.57 Q1799.32 1529.47 1797.22 1532.07 Q1796.64 1532.74 1793.54 1535.95 Q1790.44 1539.15 1784.79 1544.91 Z" fill="#000000" fill-rule="nonzero" fill-opacity="1" /><path clip-path="url(#clip920)" d="M1810.92 1542.97 L1815.81 1542.97 L1815.81 1548.85 L1810.92 1548.85 L1810.92 1542.97 Z" fill="#000000" fill-rule="nonzero" fill-opacity="1" /><path clip-path="url(#clip920)" d="M1826.04 1514.29 L1844.39 1514.29 L1844.39 1518.22 L1830.32 1518.22 L1830.32 1526.7 Q1831.34 1526.35 1832.36 1526.19 Q1833.37 1526 1834.39 1526 Q1840.18 1526 1843.56 1529.17 Q1846.94 1532.34 1846.94 1537.76 Q1846.94 1543.34 1843.47 1546.44 Q1840 1549.52 1833.68 1549.52 Q1831.5 1549.52 1829.23 1549.15 Q1826.99 1548.78 1824.58 1548.04 L1824.58 1543.34 Q1826.66 1544.47 1828.88 1545.03 Q1831.11 1545.58 1833.58 1545.58 Q1837.59 1545.58 1839.93 1543.48 Q1842.26 1541.37 1842.26 1537.76 Q1842.26 1534.15 1839.93 1532.04 Q1837.59 1529.94 1833.58 1529.94 Q1831.71 1529.94 1829.83 1530.35 Q1827.98 1530.77 1826.04 1531.65 L1826.04 1514.29 Z" fill="#000000" fill-rule="nonzero" fill-opacity="1" /><path clip-path="url(#clip920)" d="M2319.92 1514.29 L2338.28 1514.29 L2338.28 1518.22 L2324.2 1518.22 L2324.2 1526.7 Q2325.22 1526.35 2326.24 1526.19 Q2327.26 1526 2328.28 1526 Q2334.06 1526 2337.44 1529.17 Q2340.82 1532.34 2340.82 1537.76 Q2340.82 1543.34 2337.35 1546.44 Q2333.88 1549.52 2327.56 1549.52 Q2325.38 1549.52 2323.11 1549.15 Q2320.87 1548.78 2318.46 1548.04 L2318.46 1543.34 Q2320.55 1544.47 2322.77 1545.03 Q2324.99 1545.58 2327.47 1545.58 Q2331.47 1545.58 2333.81 1543.48 Q2336.15 1541.37 2336.15 1537.76 Q2336.15 1534.15 2333.81 1532.04 Q2331.47 1529.94 2327.47 1529.94 Q2325.59 1529.94 2323.72 1530.35 Q2321.86 1530.77 2319.92 1531.65 L2319.92 1514.29 Z" fill="#000000" fill-rule="nonzero" fill-opacity="1" /><path clip-path="url(#clip920)" d="M2350.04 1542.97 L2354.92 1542.97 L2354.92 1548.85 L2350.04 1548.85 L2350.04 1542.97 Z" fill="#000000" fill-rule="nonzero" fill-opacity="1" /><path clip-path="url(#clip920)" d="M2375.11 1517.37 Q2371.49 1517.37 2369.67 1520.93 Q2367.86 1524.47 2367.86 1531.6 Q2367.86 1538.71 2369.67 1542.27 Q2371.49 1545.82 2375.11 1545.82 Q2378.74 1545.82 2380.55 1542.27 Q2382.37 1538.71 2382.37 1531.6 Q2382.37 1524.47 2380.55 1520.93 Q2378.74 1517.37 2375.11 1517.37 M2375.11 1513.66 Q2380.92 1513.66 2383.97 1518.27 Q2387.05 1522.85 2387.05 1531.6 Q2387.05 1540.33 2383.97 1544.94 Q2380.92 1549.52 2375.11 1549.52 Q2369.3 1549.52 2366.22 1544.94 Q2363.16 1540.33 2363.16 1531.6 Q2363.16 1522.85 2366.22 1518.27 Q2369.3 1513.66 2375.11 1513.66 Z" fill="#000000" fill-rule="nonzero" fill-opacity="1" /><polyline clip-path="url(#clip920)" style="stroke:#000000; stroke-linecap:round; stroke-linejoin:round; stroke-width:4; stroke-opacity:1; fill:none" points="193.936,1486.45 193.936,47.2441 "/>
<polyline clip-path="url(#clip920)" style="stroke:#000000; stroke-linecap:round; stroke-linejoin:round; stroke-width:4; stroke-opacity:1; fill:none" points="193.936,1486.45 212.834,1486.45 "/>
<polyline clip-path="url(#clip920)" style="stroke:#000000; stroke-linecap:round; stroke-linejoin:round; stroke-width:4; stroke-opacity:1; fill:none" points="193.936,1126.65 212.834,1126.65 "/>
<polyline clip-path="url(#clip920)" style="stroke:#000000; stroke-linecap:round; stroke-linejoin:round; stroke-width:4; stroke-opacity:1; fill:none" points="193.936,766.846 212.834,766.846 "/>
<polyline clip-path="url(#clip920)" style="stroke:#000000; stroke-linecap:round; stroke-linejoin:round; stroke-width:4; stroke-opacity:1; fill:none" points="193.936,407.045 212.834,407.045 "/>
<polyline clip-path="url(#clip920)" style="stroke:#000000; stroke-linecap:round; stroke-linejoin:round; stroke-width:4; stroke-opacity:1; fill:none" points="193.936,47.2441 212.834,47.2441 "/>
<path clip-path="url(#clip920)" d="M50.9921 1486.9 L80.6679 1486.9 L80.6679 1490.83 L50.9921 1490.83 L50.9921 1486.9 Z" fill="#000000" fill-rule="nonzero" fill-opacity="1" /><path clip-path="url(#clip920)" d="M90.8067 1469.17 L109.163 1469.17 L109.163 1473.1 L95.0891 1473.1 L95.0891 1481.58 Q96.1076 1481.23 97.1261 1481.07 Q98.1447 1480.88 99.1632 1480.88 Q104.95 1480.88 108.33 1484.05 Q111.709 1487.22 111.709 1492.64 Q111.709 1498.22 108.237 1501.32 Q104.765 1504.4 98.4456 1504.4 Q96.2697 1504.4 94.0012 1504.03 Q91.7558 1503.66 89.3484 1502.92 L89.3484 1498.22 Q91.4317 1499.35 93.6539 1499.91 Q95.8761 1500.46 98.353 1500.46 Q102.358 1500.46 104.696 1498.36 Q107.033 1496.25 107.033 1492.64 Q107.033 1489.03 104.696 1486.92 Q102.358 1484.82 98.353 1484.82 Q96.478 1484.82 94.603 1485.23 Q92.7512 1485.65 90.8067 1486.53 L90.8067 1469.17 Z" fill="#000000" fill-rule="nonzero" fill-opacity="1" /><path clip-path="url(#clip920)" d="M120.922 1497.85 L125.807 1497.85 L125.807 1503.73 L120.922 1503.73 L120.922 1497.85 Z" fill="#000000" fill-rule="nonzero" fill-opacity="1" /><path clip-path="url(#clip920)" d="M145.992 1472.25 Q142.381 1472.25 140.552 1475.81 Q138.746 1479.35 138.746 1486.48 Q138.746 1493.59 140.552 1497.15 Q142.381 1500.7 145.992 1500.7 Q149.626 1500.7 151.431 1497.15 Q153.26 1493.59 153.26 1486.48 Q153.26 1479.35 151.431 1475.81 Q149.626 1472.25 145.992 1472.25 M145.992 1468.54 Q151.802 1468.54 154.857 1473.15 Q157.936 1477.73 157.936 1486.48 Q157.936 1495.21 154.857 1499.82 Q151.802 1504.4 145.992 1504.4 Q140.181 1504.4 137.103 1499.82 Q134.047 1495.21 134.047 1486.48 Q134.047 1477.73 137.103 1473.15 Q140.181 1468.54 145.992 1468.54 Z" fill="#000000" fill-rule="nonzero" fill-opacity="1" /><path clip-path="url(#clip920)" d="M51.9875 1127.1 L81.6633 1127.1 L81.6633 1131.03 L51.9875 1131.03 L51.9875 1127.1 Z" fill="#000000" fill-rule="nonzero" fill-opacity="1" /><path clip-path="url(#clip920)" d="M95.7836 1139.99 L112.103 1139.99 L112.103 1143.93 L90.1586 1143.93 L90.1586 1139.99 Q92.8206 1137.24 97.4039 1132.61 Q102.01 1127.95 103.191 1126.61 Q105.436 1124.09 106.316 1122.35 Q107.219 1120.59 107.219 1118.9 Q107.219 1116.15 105.274 1114.41 Q103.353 1112.68 100.251 1112.68 Q98.0521 1112.68 95.5984 1113.44 Q93.1678 1114.2 90.3901 1115.76 L90.3901 1111.03 Q93.2141 1109.9 95.6678 1109.32 Q98.1215 1108.74 100.159 1108.74 Q105.529 1108.74 108.723 1111.43 Q111.918 1114.11 111.918 1118.6 Q111.918 1120.73 111.108 1122.65 Q110.321 1124.55 108.214 1127.14 Q107.635 1127.82 104.534 1131.03 Q101.432 1134.23 95.7836 1139.99 Z" fill="#000000" fill-rule="nonzero" fill-opacity="1" /><path clip-path="url(#clip920)" d="M121.918 1138.05 L126.802 1138.05 L126.802 1143.93 L121.918 1143.93 L121.918 1138.05 Z" fill="#000000" fill-rule="nonzero" fill-opacity="1" /><path clip-path="url(#clip920)" d="M137.033 1109.37 L155.39 1109.37 L155.39 1113.3 L141.316 1113.3 L141.316 1121.77 Q142.334 1121.43 143.353 1121.27 Q144.371 1121.08 145.39 1121.08 Q151.177 1121.08 154.556 1124.25 Q157.936 1127.42 157.936 1132.84 Q157.936 1138.42 154.464 1141.52 Q150.992 1144.6 144.672 1144.6 Q142.496 1144.6 140.228 1144.23 Q137.982 1143.86 135.575 1143.12 L135.575 1138.42 Q137.658 1139.55 139.881 1140.11 Q142.103 1140.66 144.58 1140.66 Q148.584 1140.66 150.922 1138.56 Q153.26 1136.45 153.26 1132.84 Q153.26 1129.23 150.922 1127.12 Q148.584 1125.01 144.58 1125.01 Q142.705 1125.01 140.83 1125.43 Q138.978 1125.85 137.033 1126.73 L137.033 1109.37 Z" fill="#000000" fill-rule="nonzero" fill-opacity="1" /><path clip-path="url(#clip920)" d="M100.76 752.645 Q97.1493 752.645 95.3206 756.209 Q93.515 759.751 93.515 766.881 Q93.515 773.987 95.3206 777.552 Q97.1493 781.094 100.76 781.094 Q104.395 781.094 106.2 777.552 Q108.029 773.987 108.029 766.881 Q108.029 759.751 106.2 756.209 Q104.395 752.645 100.76 752.645 M100.76 748.941 Q106.571 748.941 109.626 753.547 Q112.705 758.131 112.705 766.881 Q112.705 775.608 109.626 780.214 Q106.571 784.797 100.76 784.797 Q94.9502 784.797 91.8715 780.214 Q88.816 775.608 88.816 766.881 Q88.816 758.131 91.8715 753.547 Q94.9502 748.941 100.76 748.941 Z" fill="#000000" fill-rule="nonzero" fill-opacity="1" /><path clip-path="url(#clip920)" d="M120.922 778.246 L125.807 778.246 L125.807 784.126 L120.922 784.126 L120.922 778.246 Z" fill="#000000" fill-rule="nonzero" fill-opacity="1" /><path clip-path="url(#clip920)" d="M145.992 752.645 Q142.381 752.645 140.552 756.209 Q138.746 759.751 138.746 766.881 Q138.746 773.987 140.552 777.552 Q142.381 781.094 145.992 781.094 Q149.626 781.094 151.431 777.552 Q153.26 773.987 153.26 766.881 Q153.26 759.751 151.431 756.209 Q149.626 752.645 145.992 752.645 M145.992 748.941 Q151.802 748.941 154.857 753.547 Q157.936 758.131 157.936 766.881 Q157.936 775.608 154.857 780.214 Q151.802 784.797 145.992 784.797 Q140.181 784.797 137.103 780.214 Q134.047 775.608 134.047 766.881 Q134.047 758.131 137.103 753.547 Q140.181 748.941 145.992 748.941 Z" fill="#000000" fill-rule="nonzero" fill-opacity="1" /><path clip-path="url(#clip920)" d="M95.7836 420.39 L112.103 420.39 L112.103 424.325 L90.1586 424.325 L90.1586 420.39 Q92.8206 417.635 97.4039 413.006 Q102.01 408.353 103.191 407.01 Q105.436 404.487 106.316 402.751 Q107.219 400.992 107.219 399.302 Q107.219 396.547 105.274 394.811 Q103.353 393.075 100.251 393.075 Q98.0521 393.075 95.5984 393.839 Q93.1678 394.603 90.3901 396.154 L90.3901 391.432 Q93.2141 390.297 95.6678 389.719 Q98.1215 389.14 100.159 389.14 Q105.529 389.14 108.723 391.825 Q111.918 394.51 111.918 399.001 Q111.918 401.131 111.108 403.052 Q110.321 404.95 108.214 407.543 Q107.635 408.214 104.534 411.432 Q101.432 414.626 95.7836 420.39 Z" fill="#000000" fill-rule="nonzero" fill-opacity="1" /><path clip-path="url(#clip920)" d="M121.918 418.445 L126.802 418.445 L126.802 424.325 L121.918 424.325 L121.918 418.445 Z" fill="#000000" fill-rule="nonzero" fill-opacity="1" /><path clip-path="url(#clip920)" d="M137.033 389.765 L155.39 389.765 L155.39 393.7 L141.316 393.7 L141.316 402.172 Q142.334 401.825 143.353 401.663 Q144.371 401.478 145.39 401.478 Q151.177 401.478 154.556 404.649 Q157.936 407.82 157.936 413.237 Q157.936 418.816 154.464 421.918 Q150.992 424.996 144.672 424.996 Q142.496 424.996 140.228 424.626 Q137.982 424.256 135.575 423.515 L135.575 418.816 Q137.658 419.95 139.881 420.506 Q142.103 421.061 144.58 421.061 Q148.584 421.061 150.922 418.955 Q153.26 416.848 153.26 413.237 Q153.26 409.626 150.922 407.52 Q148.584 405.413 144.58 405.413 Q142.705 405.413 140.83 405.83 Q138.978 406.246 137.033 407.126 L137.033 389.765 Z" fill="#000000" fill-rule="nonzero" fill-opacity="1" /><path clip-path="url(#clip920)" d="M90.8067 29.9641 L109.163 29.9641 L109.163 33.8993 L95.0891 33.8993 L95.0891 42.3714 Q96.1076 42.0242 97.1261 41.8622 Q98.1447 41.677 99.1632 41.677 Q104.95 41.677 108.33 44.8483 Q111.709 48.0196 111.709 53.4362 Q111.709 59.0149 108.237 62.1167 Q104.765 65.1954 98.4456 65.1954 Q96.2697 65.1954 94.0012 64.825 Q91.7558 64.4547 89.3484 63.7139 L89.3484 59.0149 Q91.4317 60.1491 93.6539 60.7047 Q95.8761 61.2602 98.353 61.2602 Q102.358 61.2602 104.696 59.1538 Q107.033 57.0473 107.033 53.4362 Q107.033 49.8251 104.696 47.7186 Q102.358 45.6122 98.353 45.6122 Q96.478 45.6122 94.603 46.0288 Q92.7512 46.4455 90.8067 47.3251 L90.8067 29.9641 Z" fill="#000000" fill-rule="nonzero" fill-opacity="1" /><path clip-path="url(#clip920)" d="M120.922 58.6445 L125.807 58.6445 L125.807 64.5241 L120.922 64.5241 L120.922 58.6445 Z" fill="#000000" fill-rule="nonzero" fill-opacity="1" /><path clip-path="url(#clip920)" d="M145.992 33.0428 Q142.381 33.0428 140.552 36.6076 Q138.746 40.1492 138.746 47.2788 Q138.746 54.3853 140.552 57.9501 Q142.381 61.4917 145.992 61.4917 Q149.626 61.4917 151.431 57.9501 Q153.26 54.3853 153.26 47.2788 Q153.26 40.1492 151.431 36.6076 Q149.626 33.0428 145.992 33.0428 M145.992 29.3391 Q151.802 29.3391 154.857 33.9456 Q157.936 38.5289 157.936 47.2788 Q157.936 56.0056 154.857 60.6121 Q151.802 65.1954 145.992 65.1954 Q140.181 65.1954 137.103 60.6121 Q134.047 56.0056 134.047 47.2788 Q134.047 38.5289 137.103 33.9456 Q140.181 29.3391 145.992 29.3391 Z" fill="#000000" fill-rule="nonzero" fill-opacity="1" /><polyline clip-path="url(#clip922)" style="stroke:#000000; stroke-linecap:round; stroke-linejoin:round; stroke-width:4; stroke-opacity:0.5; fill:none" points="193.936,-45.1151 196.097,-43.9304 198.258,-42.7456 200.419,-41.5609 202.58,-40.3761 204.741,-39.1914 206.902,-38.0066 209.063,-36.8218 211.224,-35.6371 213.385,-34.4523 215.546,-33.2676 217.707,-32.0828 219.868,-30.8981 222.029,-29.7133 224.19,-28.5285 226.351,-27.3438 228.512,-26.159 230.673,-24.9743 232.834,-23.7895 234.995,-22.6048 237.156,-21.42 239.317,-20.2352 241.478,-19.0505 243.639,-17.8657 245.8,-16.681 247.961,-15.4962 250.122,-14.3115 252.282,-13.1267 254.443,-11.9419 256.604,-10.7572 258.765,-9.57242 260.926,-8.38767 263.087,-7.20291 265.248,-6.01815 267.409,-4.83339 269.57,-3.64864 271.731,-2.46388 273.892,-1.27912 276.053,-0.0943644 278.214,1.09039 280.375,2.27515 282.536,3.45991 284.697,4.64467 286.858,5.82942 289.019,7.01418 291.18,8.19894 293.341,9.38369 295.502,10.5685 297.663,11.7532 299.824,12.938 301.985,14.1227 304.146,15.3075 306.307,16.4922 308.468,17.677 310.629,18.8618 312.79,20.0465 314.951,21.2313 317.112,22.416 319.273,23.6008 321.434,24.7855 323.595,25.9703 325.756,27.1551 327.917,28.3398 330.078,29.5246 332.239,30.7093 334.4,31.8941 336.561,33.0788 338.722,34.2636 340.883,35.4484 343.044,36.6331 345.205,37.8179 347.366,39.0026 349.527,40.1874 351.688,41.3721 353.849,42.5569 356.01,43.7417 358.171,44.9264 360.332,46.1112 362.493,47.2959 364.653,48.4807 366.814,49.6654 368.975,50.8502 371.136,52.035 373.297,53.2197 375.458,54.4045 377.619,55.5892 379.78,56.774 381.941,57.9587 384.102,59.1435 386.263,60.3283 388.424,61.513 390.585,62.6978 392.746,63.8825 394.907,65.0673 397.068,66.2521 399.229,67.4368 401.39,68.6216 403.551,69.8063 405.712,70.9911 407.873,72.1758 410.034,73.3606 412.195,74.5454 414.356,75.7301 416.517,76.9149 418.678,78.0996 420.839,79.2844 423,80.4691 425.161,81.6539 427.322,82.8387 429.483,84.0234 431.644,85.2082 433.805,86.3929 435.966,87.5777 438.127,88.7624 440.288,89.9472 442.449,91.132 444.61,92.3167 446.771,93.5015 448.932,94.6862 451.093,95.871 453.254,97.0557 455.415,98.2405 457.576,99.4253 459.737,100.61 461.898,101.795 464.059,102.98 466.22,104.164 468.381,105.349 470.542,106.534 472.703,107.719 474.864,108.903 477.024,110.088 479.185,111.273 481.346,112.458 483.507,113.642 485.668,114.827 487.829,116.012 489.99,117.197 492.151,118.381 494.312,119.566 496.473,120.751 498.634,121.936 500.795,123.12 502.956,124.305 505.117,125.49 507.278,126.675 509.439,127.859 511.6,129.044 513.761,130.229 515.922,131.414 518.083,132.598 520.244,133.783 522.405,134.968 524.566,136.153 526.727,137.337 528.888,138.522 531.049,139.707 533.21,140.892 535.371,142.077 537.532,143.261 539.693,144.446 541.854,145.631 544.015,146.816 546.176,148 548.337,149.185 550.498,150.37 552.659,151.555 554.82,152.739 556.981,153.924 559.142,155.109 561.303,156.294 563.464,157.478 565.625,158.663 567.786,159.848 569.947,161.033 572.108,162.217 574.269,163.402 576.43,164.587 578.591,165.772 580.752,166.956 582.913,168.141 585.074,169.326 587.235,170.511 589.396,171.695 591.556,172.88 593.717,174.065 595.878,175.25 598.039,176.434 600.2,177.619 602.361,178.804 604.522,179.989 606.683,181.174 608.844,182.358 611.005,183.543 613.166,184.728 615.327,185.913 617.488,187.097 619.649,188.282 621.81,189.467 623.971,190.652 626.132,191.836 628.293,193.021 630.454,194.206 632.615,195.391 634.776,196.575 636.937,197.76 639.098,198.945 641.259,200.13 643.42,201.314 645.581,202.499 647.742,203.684 649.903,204.869 652.064,206.053 654.225,207.238 656.386,208.423 658.547,209.608 660.708,210.792 662.869,211.977 665.03,213.162 667.191,214.347 669.352,215.531 671.513,216.716 673.674,217.901 675.835,219.086 677.996,220.271 680.157,221.455 682.318,222.64 684.479,223.825 686.64,225.01 688.801,226.194 690.962,227.379 693.123,228.564 695.284,229.749 697.445,230.933 699.606,232.118 701.767,233.303 703.927,234.488 706.088,235.672 708.249,236.857 710.41,238.042 712.571,239.227 714.732,240.411 716.893,241.596 719.054,242.781 721.215,243.966 723.376,245.15 725.537,246.335 727.698,247.52 729.859,248.705 732.02,249.889 734.181,251.074 736.342,252.259 738.503,253.444 740.664,254.628 742.825,255.813 744.986,256.998 747.147,258.183 749.308,259.368 751.469,260.552 753.63,261.737 755.791,262.922 757.952,264.107 760.113,265.291 762.274,266.476 764.435,267.661 766.596,268.846 768.757,270.03 770.918,271.215 773.079,272.4 775.24,273.585 777.401,274.769 779.562,275.954 781.723,277.139 783.884,278.324 786.045,279.508 788.206,280.693 790.367,281.878 792.528,283.063 794.689,284.247 796.85,285.432 799.011,286.617 801.172,287.802 803.333,288.986 805.494,290.171 807.655,291.356 809.816,292.541 811.977,293.725 814.138,294.91 816.298,296.095 818.459,297.28 820.62,298.465 822.781,299.649 824.942,300.834 827.103,302.019 829.264,303.204 831.425,304.388 833.586,305.573 835.747,306.758 837.908,307.943 840.069,309.127 842.23,310.312 844.391,311.497 846.552,312.682 848.713,313.866 850.874,315.051 853.035,316.236 855.196,317.421 857.357,318.605 859.518,319.79 861.679,320.975 863.84,322.16 866.001,323.344 868.162,324.529 870.323,325.714 872.484,326.899 874.645,328.083 876.806,329.268 878.967,330.453 881.128,331.638 883.289,332.822 885.45,334.007 887.611,335.192 889.772,336.377 891.933,337.561 894.094,338.746 896.255,339.931 898.416,341.116 900.577,342.301 902.738,343.485 904.899,344.67 907.06,345.855 909.221,347.04 911.382,348.224 913.543,349.409 915.704,350.594 917.865,351.779 920.026,352.963 922.187,354.148 924.348,355.333 926.509,356.518 928.669,357.702 930.83,358.887 932.991,360.072 935.152,361.257 937.313,362.441 939.474,363.626 941.635,364.811 943.796,365.996 945.957,367.18 948.118,368.365 950.279,369.55 952.44,370.735 954.601,371.919 956.762,373.104 958.923,374.289 961.084,375.474 963.245,376.658 965.406,377.843 967.567,379.028 969.728,380.213 971.889,381.398 974.05,382.582 976.211,383.767 978.372,384.952 980.533,386.137 982.694,387.321 984.855,388.506 987.016,389.691 989.177,390.876 991.338,392.06 993.499,393.245 995.66,394.43 997.821,395.615 999.982,396.799 1002.14,397.984 1004.3,399.169 1006.46,400.354 1008.63,401.538 1010.79,402.723 1012.95,403.908 1015.11,405.093 1017.27,406.277 1019.43,407.462 1021.59,408.647 1023.75,409.832 1025.91,411.016 1028.07,412.201 1030.24,413.386 1032.4,414.571 1034.56,415.755 1036.72,416.94 1038.88,418.125 1041.04,419.31 1043.2,420.495 1045.36,421.679 1047.52,422.864 1049.68,424.049 1051.85,425.234 1054.01,426.418 1056.17,427.603 1058.33,428.788 1060.49,429.973 1062.65,431.157 1064.81,432.342 1066.97,433.527 1069.13,434.712 1071.29,435.896 1073.46,437.081 1075.62,438.266 1077.78,439.451 1079.94,440.635 1082.1,441.82 1084.26,443.005 1086.42,444.19 1088.58,445.374 1090.74,446.559 1092.9,447.744 1095.07,448.929 1097.23,450.113 1099.39,451.298 1101.55,452.483 1103.71,453.668 1105.87,454.852 1108.03,456.037 1110.19,457.222 1112.35,458.407 1114.51,459.592 1116.67,460.776 1118.84,461.961 1121,463.146 1123.16,464.331 1125.32,465.515 1127.48,466.7 1129.64,467.885 1131.8,469.07 1133.96,470.254 1136.12,471.439 1138.28,472.624 1140.45,473.809 1142.61,474.993 1144.77,476.178 1146.93,477.363 1149.09,478.548 1151.25,479.732 1153.41,480.917 1155.57,482.102 1157.73,483.287 1159.89,484.471 1162.06,485.656 1164.22,486.841 1166.38,488.026 1168.54,489.21 1170.7,490.395 1172.86,491.58 1175.02,492.765 1177.18,493.949 1179.34,495.134 1181.5,496.319 1183.67,497.504 1185.83,498.689 1187.99,499.873 1190.15,501.058 1192.31,502.243 1194.47,503.428 1196.63,504.612 1198.79,505.797 1200.95,506.982 1203.11,508.167 1205.28,509.351 1207.44,510.536 1209.6,511.721 1211.76,512.906 1213.92,514.09 1216.08,515.275 1218.24,516.46 1220.4,517.645 1222.56,518.829 1224.72,520.014 1226.88,521.199 1229.05,522.384 1231.21,523.568 1233.37,524.753 1235.53,525.938 1237.69,527.123 1239.85,528.307 1242.01,529.492 1244.17,530.677 1246.33,531.862 1248.49,533.046 1250.66,534.231 1252.82,535.416 1254.98,536.601 1257.14,537.785 1259.3,538.97 1261.46,540.155 1263.62,541.34 1265.78,542.525 1267.94,543.709 1270.1,544.894 1272.27,546.079 1274.43,547.264 1276.59,548.448 1278.75,549.633 1280.91,550.818 1283.07,552.003 1285.23,553.187 1287.39,554.372 1289.55,555.557 1291.71,556.742 1293.88,557.926 1296.04,559.111 1298.2,560.296 1300.36,561.481 1302.52,562.665 1304.68,563.85 1306.84,565.035 1309,566.22 1311.16,567.404 1313.32,568.589 1315.49,569.774 1317.65,570.959 1319.81,572.143 1321.97,573.328 1324.13,574.513 1326.29,575.698 1328.45,576.882 1330.61,578.067 1332.77,579.252 1334.93,580.437 1337.09,581.622 1339.26,582.806 1341.42,583.991 1343.58,585.176 1345.74,586.361 1347.9,587.545 1350.06,588.73 1352.22,589.915 1354.38,591.1 1356.54,592.284 1358.7,593.469 1360.87,594.654 1363.03,595.839 1365.19,597.023 1367.35,598.208 1369.51,599.393 1371.67,600.578 1373.83,601.762 1375.99,602.947 1378.15,604.132 1380.31,605.317 1382.48,606.501 1384.64,607.686 1386.8,608.871 1388.96,610.056 1391.12,611.24 1393.28,612.425 1395.44,613.61 1397.6,614.795 1399.76,615.979 1401.92,617.164 1404.09,618.349 1406.25,619.534 1408.41,620.719 1410.57,621.903 1412.73,623.088 1414.89,624.273 1417.05,625.458 1419.21,626.642 1421.37,627.827 1423.53,629.012 1425.7,630.197 1427.86,631.381 1430.02,632.566 1432.18,633.751 1434.34,634.936 1436.5,636.12 1438.66,637.305 1440.82,638.49 1442.98,639.675 1445.14,640.859 1447.3,642.044 1449.47,643.229 1451.63,644.414 1453.79,645.598 1455.95,646.783 1458.11,647.968 1460.27,649.153 1462.43,650.337 1464.59,651.522 1466.75,652.707 1468.91,653.892 1471.08,655.076 1473.24,656.261 1475.4,657.446 1477.56,658.631 1479.72,659.816 1481.88,661 1484.04,662.185 1486.2,663.37 1488.36,664.555 1490.52,665.739 1492.69,666.924 1494.85,668.109 1497.01,669.294 1499.17,670.478 1501.33,671.663 1503.49,672.848 1505.65,674.033 1507.81,675.217 1509.97,676.402 1512.13,677.587 1514.3,678.772 1516.46,679.956 1518.62,681.141 1520.78,682.326 1522.94,683.511 1525.1,684.695 1527.26,685.88 1529.42,687.065 1531.58,688.25 1533.74,689.434 1535.91,690.619 1538.07,691.804 1540.23,692.989 1542.39,694.173 1544.55,695.358 1546.71,696.543 1548.87,697.728 1551.03,698.913 1553.19,700.097 1555.35,701.282 1557.51,702.467 1559.68,703.652 1561.84,704.836 1564,706.021 1566.16,707.206 1568.32,708.391 1570.48,709.575 1572.64,710.76 1574.8,711.945 1576.96,713.13 1579.12,714.314 1581.29,715.499 1583.45,716.684 1585.61,717.869 1587.77,719.053 1589.93,720.238 1592.09,721.423 1594.25,722.608 1596.41,723.792 1598.57,724.977 1600.73,726.162 1602.9,727.347 1605.06,728.531 1607.22,729.716 1609.38,730.901 1611.54,732.086 1613.7,733.27 1615.86,734.455 1618.02,735.64 1620.18,736.825 1622.34,738.009 1624.51,739.194 1626.67,740.379 1628.83,741.564 1630.99,742.749 1633.15,743.933 1635.31,745.118 1637.47,746.303 1639.63,747.488 1641.79,748.672 1643.95,749.857 1646.12,751.042 1648.28,752.227 1650.44,753.411 1652.6,754.596 1654.76,755.781 1656.92,756.966 1659.08,758.15 1661.24,759.335 1663.4,760.52 1665.56,761.705 1667.72,762.889 1669.89,764.074 1672.05,765.259 1674.21,766.444 1676.37,767.628 1678.53,768.813 1680.69,769.998 1682.85,771.183 1685.01,772.367 1687.17,773.552 1689.33,774.737 1691.5,775.922 1693.66,777.106 1695.82,778.291 1697.98,779.476 1700.14,780.661 1702.3,781.846 1704.46,783.03 1706.62,784.215 1708.78,785.4 1710.94,786.585 1713.11,787.769 1715.27,788.954 1717.43,790.139 1719.59,791.324 1721.75,792.508 1723.91,793.693 1726.07,794.878 1728.23,796.063 1730.39,797.247 1732.55,798.432 1734.72,799.617 1736.88,800.802 1739.04,801.986 1741.2,803.171 1743.36,804.356 1745.52,805.541 1747.68,806.725 1749.84,807.91 1752,809.095 1754.16,810.28 1756.33,811.464 1758.49,812.649 1760.65,813.834 1762.81,815.019 1764.97,816.203 1767.13,817.388 1769.29,818.573 1771.45,819.758 1773.61,820.943 1775.77,822.127 1777.93,823.312 1780.1,824.497 1782.26,825.682 1784.42,826.866 1786.58,828.051 1788.74,829.236 1790.9,830.421 1793.06,831.605 1795.22,832.79 1797.38,833.975 1799.54,835.16 1801.71,836.344 1803.87,837.529 1806.03,838.714 1808.19,839.899 1810.35,841.083 1812.51,842.268 1814.67,843.453 1816.83,844.638 1818.99,845.822 1821.15,847.007 1823.32,848.192 1825.48,849.377 1827.64,850.561 1829.8,851.746 1831.96,852.931 1834.12,854.116 1836.28,855.3 1838.44,856.485 1840.6,857.67 1842.76,858.855 1844.93,860.04 1847.09,861.224 1849.25,862.409 1851.41,863.594 1853.57,864.779 1855.73,865.963 1857.89,867.148 1860.05,868.333 1862.21,869.518 1864.37,870.702 1866.54,871.887 1868.7,873.072 1870.86,874.257 1873.02,875.441 1875.18,876.626 1877.34,877.811 1879.5,878.996 1881.66,880.18 1883.82,881.365 1885.98,882.55 1888.15,883.735 1890.31,884.919 1892.47,886.104 1894.63,887.289 1896.79,888.474 1898.95,889.658 1901.11,890.843 1903.27,892.028 1905.43,893.213 1907.59,894.397 1909.75,895.582 1911.92,896.767 1914.08,897.952 1916.24,899.137 1918.4,900.321 1920.56,901.506 1922.72,902.691 1924.88,903.876 1927.04,905.06 1929.2,906.245 1931.36,907.43 1933.53,908.615 1935.69,909.799 1937.85,910.984 1940.01,912.169 1942.17,913.354 1944.33,914.538 1946.49,915.723 1948.65,916.908 1950.81,918.093 1952.97,919.277 1955.14,920.462 1957.3,921.647 1959.46,922.832 1961.62,924.016 1963.78,925.201 1965.94,926.386 1968.1,927.571 1970.26,928.755 1972.42,929.94 1974.58,931.125 1976.75,932.31 1978.91,933.494 1981.07,934.679 1983.23,935.864 1985.39,937.049 1987.55,938.233 1989.71,939.418 1991.87,940.603 1994.03,941.788 1996.19,942.973 1998.36,944.157 2000.52,945.342 2002.68,946.527 2004.84,947.712 2007,948.896 2009.16,950.081 2011.32,951.266 2013.48,952.451 2015.64,953.635 2017.8,954.82 2019.96,956.005 2022.13,957.19 2024.29,958.374 2026.45,959.559 2028.61,960.744 2030.77,961.929 2032.93,963.113 2035.09,964.298 2037.25,965.483 2039.41,966.668 2041.57,967.852 2043.74,969.037 2045.9,970.222 2048.06,971.407 2050.22,972.591 2052.38,973.776 2054.54,974.961 2056.7,976.146 2058.86,977.33 2061.02,978.515 2063.18,979.7 2065.35,980.885 2067.51,982.07 2069.67,983.254 2071.83,984.439 2073.99,985.624 2076.15,986.809 2078.31,987.993 2080.47,989.178 2082.63,990.363 2084.79,991.548 2086.96,992.732 2089.12,993.917 2091.28,995.102 2093.44,996.287 2095.6,997.471 2097.76,998.656 2099.92,999.841 2102.08,1001.03 2104.24,1002.21 2106.4,1003.4 2108.57,1004.58 2110.73,1005.76 2112.89,1006.95 2115.05,1008.13 2117.21,1009.32 2119.37,1010.5 2121.53,1011.69 2123.69,1012.87 2125.85,1014.06 2128.01,1015.24 2130.17,1016.43 2132.34,1017.61 2134.5,1018.8 2136.66,1019.98 2138.82,1021.17 2140.98,1022.35 2143.14,1023.54 2145.3,1024.72 2147.46,1025.91 2149.62,1027.09 2151.78,1028.28 2153.95,1029.46 2156.11,1030.64 2158.27,1031.83 2160.43,1033.01 2162.59,1034.2 2164.75,1035.38 2166.91,1036.57 2169.07,1037.75 2171.23,1038.94 2173.39,1040.12 2175.56,1041.31 2177.72,1042.49 2179.88,1043.68 2182.04,1044.86 2184.2,1046.05 2186.36,1047.23 2188.52,1048.42 2190.68,1049.6 2192.84,1050.79 2195,1051.97 2197.17,1053.15 2199.33,1054.34 2201.49,1055.52 2203.65,1056.71 2205.81,1057.89 2207.97,1059.08 2210.13,1060.26 2212.29,1061.45 2214.45,1062.63 2216.61,1063.82 2218.78,1065 2220.94,1066.19 2223.1,1067.37 2225.26,1068.56 2227.42,1069.74 2229.58,1070.93 2231.74,1072.11 2233.9,1073.3 2236.06,1074.48 2238.22,1075.67 2240.38,1076.85 2242.55,1078.03 2244.71,1079.22 2246.87,1080.4 2249.03,1081.59 2251.19,1082.77 2253.35,1083.96 2255.51,1085.14 2257.67,1086.33 2259.83,1087.51 2261.99,1088.7 2264.16,1089.88 2266.32,1091.07 2268.48,1092.25 2270.64,1093.44 2272.8,1094.62 2274.96,1095.81 2277.12,1096.99 2279.28,1098.18 2281.44,1099.36 2283.6,1100.55 2285.77,1101.73 2287.93,1102.91 2290.09,1104.1 2292.25,1105.28 2294.41,1106.47 2296.57,1107.65 2298.73,1108.84 2300.89,1110.02 2303.05,1111.21 2305.21,1112.39 2307.38,1113.58 2309.54,1114.76 2311.7,1115.95 2313.86,1117.13 2316.02,1118.32 2318.18,1119.5 2320.34,1120.69 2322.5,1121.87 2324.66,1123.06 2326.82,1124.24 2328.99,1125.43 2331.15,1126.61 2333.31,1127.79 2335.47,1128.98 2337.63,1130.16 2339.79,1131.35 2341.95,1132.53 2344.11,1133.72 2346.27,1134.9 2348.43,1136.09 2350.59,1137.27 2352.76,1138.46 "/>
<circle clip-path="url(#clip922)" cx="625.7" cy="153.149" r="14.4" fill="#000000" fill-rule="evenodd" fill-opacity="1" stroke="none"/>
<circle clip-path="url(#clip922)" cx="841.582" cy="500.746" r="14.4" fill="#000000" fill-rule="evenodd" fill-opacity="1" stroke="none"/>
<circle clip-path="url(#clip922)" cx="1057.46" cy="321.145" r="14.4" fill="#000000" fill-rule="evenodd" fill-opacity="1" stroke="none"/>
<circle clip-path="url(#clip922)" cx="1273.35" cy="487.603" r="14.4" fill="#000000" fill-rule="evenodd" fill-opacity="1" stroke="none"/>
<circle clip-path="url(#clip922)" cx="1489.23" cy="570.523" r="14.4" fill="#000000" fill-rule="evenodd" fill-opacity="1" stroke="none"/>
<circle clip-path="url(#clip922)" cx="1705.11" cy="887.68" r="14.4" fill="#000000" fill-rule="evenodd" fill-opacity="1" stroke="none"/>
<circle clip-path="url(#clip922)" cx="1920.99" cy="907.312" r="14.4" fill="#000000" fill-rule="evenodd" fill-opacity="1" stroke="none"/>
<circle clip-path="url(#clip922)" cx="2136.87" cy="1045.13" r="14.4" fill="#000000" fill-rule="evenodd" fill-opacity="1" stroke="none"/>
<circle clip-path="url(#clip922)" cx="2352.76" cy="1186.09" r="14.4" fill="#000000" fill-rule="evenodd" fill-opacity="1" stroke="none"/>
</svg>
