<?xml version="1.0" encoding="utf-8"?>
<svg xmlns="http://www.w3.org/2000/svg" xmlns:xlink="http://www.w3.org/1999/xlink" width="600" height="400" viewBox="0 0 2400 1600">
<defs>
  <clipPath id="clip630">
    <rect x="0" y="0" width="2400" height="1600"/>
  </clipPath>
</defs>
<path clip-path="url(#clip630)" d="M0 1600 L2400 1600 L2400 0 L0 0  Z" fill="#ffffff" fill-rule="evenodd" fill-opacity="1"/>
<defs>
  <clipPath id="clip631">
    <rect x="480" y="0" width="1681" height="1600"/>
  </clipPath>
</defs>
<path clip-path="url(#clip630)" d="M193.936 1486.45 L2352.76 1486.45 L2352.76 47.2441 L193.936 47.2441  Z" fill="#ffffff" fill-rule="evenodd" fill-opacity="1"/>
<defs>
  <clipPath id="clip632">
    <rect x="193" y="47" width="2160" height="1440"/>
  </clipPath>
</defs>
<polyline clip-path="url(#clip632)" style="stroke:#000000; stroke-linecap:round; stroke-linejoin:round; stroke-width:2; stroke-opacity:0.1; fill:none" points="193.936,1486.45 193.936,47.2441 "/>
<polyline clip-path="url(#clip632)" style="stroke:#000000; stroke-linecap:round; stroke-linejoin:round; stroke-width:2; stroke-opacity:0.1; fill:none" points="733.641,1486.45 733.641,47.2441 "/>
<polyline clip-path="url(#clip632)" style="stroke:#000000; stroke-linecap:round; stroke-linejoin:round; stroke-width:2; stroke-opacity:0.1; fill:none" points="1273.35,1486.45 1273.35,47.2441 "/>
<polyline clip-path="url(#clip632)" style="stroke:#000000; stroke-linecap:round; stroke-linejoin:round; stroke-width:2; stroke-opacity:0.1; fill:none" points="1813.05,1486.45 1813.05,47.2441 "/>
<polyline clip-path="url(#clip632)" style="stroke:#000000; stroke-linecap:round; stroke-linejoin:round; stroke-width:2; stroke-opacity:0.1; fill:none" points="2352.76,1486.45 2352.76,47.2441 "/>
<polyline clip-path="url(#clip632)" style="stroke:#000000; stroke-linecap:round; stroke-linejoin:round; stroke-width:2; stroke-opacity:0.1; fill:none" points="193.936,1486.45 2352.76,1486.45 "/>
<polyline clip-path="url(#clip632)" style="stroke:#000000; stroke-linecap:round; stroke-linejoin:round; stroke-width:2; stroke-opacity:0.1; fill:none" points="193.936,1126.65 2352.76,1126.65 "/>
<polyline clip-path="url(#clip632)" style="stroke:#000000; stroke-linecap:round; stroke-linejoin:round; stroke-width:2; stroke-opacity:0.1; fill:none" points="193.936,766.846 2352.76,766.846 "/>
<polyline clip-path="url(#clip632)" style="stroke:#000000; stroke-linecap:round; stroke-linejoin:round; stroke-width:2; stroke-opacity:0.1; fill:none" points="193.936,407.045 2352.76,407.045 "/>
<polyline clip-path="url(#clip632)" style="stroke:#000000; stroke-linecap:round; stroke-linejoin:round; stroke-width:2; stroke-opacity:0.1; fill:none" points="193.936,47.2441 2352.76,47.2441 "/>
<polyline clip-path="url(#clip630)" style="stroke:#000000; stroke-linecap:round; stroke-linejoin:round; stroke-width:4; stroke-opacity:1; fill:none" points="193.936,1486.45 2352.76,1486.45 "/>
<polyline clip-path="url(#clip630)" style="stroke:#000000; stroke-linecap:round; stroke-linejoin:round; stroke-width:4; stroke-opacity:1; fill:none" points="193.936,1486.45 193.936,1467.55 "/>
<polyline clip-path="url(#clip630)" style="stroke:#000000; stroke-linecap:round; stroke-linejoin:round; stroke-width:4; stroke-opacity:1; fill:none" points="733.641,1486.45 733.641,1467.55 "/>
<polyline clip-path="url(#clip630)" style="stroke:#000000; stroke-linecap:round; stroke-linejoin:round; stroke-width:4; stroke-opacity:1; fill:none" points="1273.35,1486.45 1273.35,1467.55 "/>
<polyline clip-path="url(#clip630)" style="stroke:#000000; stroke-linecap:round; stroke-linejoin:round; stroke-width:4; stroke-opacity:1; fill:none" points="1813.05,1486.45 1813.05,1467.55 "/>
<polyline clip-path="url(#clip630)" style="stroke:#000000; stroke-linecap:round; stroke-linejoin:round; stroke-width:4; stroke-opacity:1; fill:none" points="2352.76,1486.45 2352.76,1467.55 "/>
<path clip-path="url(#clip630)" d="M140.464 1532.02 L170.14 1532.02 L170.14 1535.95 L140.464 1535.95 L140.464 1532.02 Z" fill="#000000" fill-rule="nonzero" fill-opacity="1" /><path clip-path="url(#clip630)" d="M180.279 1514.29 L198.635 1514.29 L198.635 1518.22 L184.561 1518.22 L184.561 1526.7 Q185.58 1526.35 186.598 1526.19 Q187.617 1526 188.635 1526 Q194.422 1526 197.802 1529.17 Q201.181 1532.34 201.181 1537.76 Q201.181 1543.34 197.709 1546.44 Q194.237 1549.52 187.918 1549.52 Q185.742 1549.52 183.473 1549.15 Q181.228 1548.78 178.82 1548.04 L178.82 1543.34 Q180.904 1544.47 183.126 1545.03 Q185.348 1545.58 187.825 1545.58 Q191.83 1545.58 194.167 1543.48 Q196.505 1541.37 196.505 1537.76 Q196.505 1534.15 194.167 1532.04 Q191.83 1529.94 187.825 1529.94 Q185.95 1529.94 184.075 1530.35 Q182.223 1530.77 180.279 1531.65 L180.279 1514.29 Z" fill="#000000" fill-rule="nonzero" fill-opacity="1" /><path clip-path="url(#clip630)" d="M210.394 1542.97 L215.278 1542.97 L215.278 1548.85 L210.394 1548.85 L210.394 1542.97 Z" fill="#000000" fill-rule="nonzero" fill-opacity="1" /><path clip-path="url(#clip630)" d="M235.464 1517.37 Q231.852 1517.37 230.024 1520.93 Q228.218 1524.47 228.218 1531.6 Q228.218 1538.71 230.024 1542.27 Q231.852 1545.82 235.464 1545.82 Q239.098 1545.82 240.903 1542.27 Q242.732 1538.71 242.732 1531.6 Q242.732 1524.47 240.903 1520.93 Q239.098 1517.37 235.464 1517.37 M235.464 1513.66 Q241.274 1513.66 244.329 1518.27 Q247.408 1522.85 247.408 1531.6 Q247.408 1540.33 244.329 1544.94 Q241.274 1549.52 235.464 1549.52 Q229.653 1549.52 226.575 1544.94 Q223.519 1540.33 223.519 1531.6 Q223.519 1522.85 226.575 1518.27 Q229.653 1513.66 235.464 1513.66 Z" fill="#000000" fill-rule="nonzero" fill-opacity="1" /><path clip-path="url(#clip630)" d="M680.667 1532.02 L710.342 1532.02 L710.342 1535.95 L680.667 1535.95 L680.667 1532.02 Z" fill="#000000" fill-rule="nonzero" fill-opacity="1" /><path clip-path="url(#clip630)" d="M724.463 1544.91 L740.782 1544.91 L740.782 1548.85 L718.838 1548.85 L718.838 1544.91 Q721.5 1542.16 726.083 1537.53 Q730.69 1532.88 731.87 1531.53 Q734.116 1529.01 734.995 1527.27 Q735.898 1525.51 735.898 1523.82 Q735.898 1521.07 733.953 1519.33 Q732.032 1517.6 728.93 1517.6 Q726.731 1517.6 724.278 1518.36 Q721.847 1519.13 719.069 1520.68 L719.069 1515.95 Q721.893 1514.82 724.347 1514.24 Q726.801 1513.66 728.838 1513.66 Q734.208 1513.66 737.403 1516.35 Q740.597 1519.03 740.597 1523.52 Q740.597 1525.65 739.787 1527.57 Q739 1529.47 736.893 1532.07 Q736.315 1532.74 733.213 1535.95 Q730.111 1539.15 724.463 1544.91 Z" fill="#000000" fill-rule="nonzero" fill-opacity="1" /><path clip-path="url(#clip630)" d="M750.597 1542.97 L755.481 1542.97 L755.481 1548.85 L750.597 1548.85 L750.597 1542.97 Z" fill="#000000" fill-rule="nonzero" fill-opacity="1" /><path clip-path="url(#clip630)" d="M765.713 1514.29 L784.069 1514.29 L784.069 1518.22 L769.995 1518.22 L769.995 1526.7 Q771.013 1526.35 772.032 1526.19 Q773.05 1526 774.069 1526 Q779.856 1526 783.236 1529.17 Q786.615 1532.34 786.615 1537.76 Q786.615 1543.34 783.143 1546.44 Q779.671 1549.52 773.351 1549.52 Q771.175 1549.52 768.907 1549.15 Q766.662 1548.78 764.254 1548.04 L764.254 1543.34 Q766.338 1544.47 768.56 1545.03 Q770.782 1545.58 773.259 1545.58 Q777.263 1545.58 779.601 1543.48 Q781.939 1541.37 781.939 1537.76 Q781.939 1534.15 779.601 1532.04 Q777.263 1529.94 773.259 1529.94 Q771.384 1529.94 769.509 1530.35 Q767.657 1530.77 765.713 1531.65 L765.713 1514.29 Z" fill="#000000" fill-rule="nonzero" fill-opacity="1" /><path clip-path="url(#clip630)" d="M1250.73 1517.37 Q1247.12 1517.37 1245.29 1520.93 Q1243.49 1524.47 1243.49 1531.6 Q1243.49 1538.71 1245.29 1542.27 Q1247.12 1545.82 1250.73 1545.82 Q1254.36 1545.82 1256.17 1542.27 Q1258 1538.71 1258 1531.6 Q1258 1524.47 1256.17 1520.93 Q1254.36 1517.37 1250.73 1517.37 M1250.73 1513.66 Q1256.54 1513.66 1259.6 1518.27 Q1262.67 1522.85 1262.67 1531.6 Q1262.67 1540.33 1259.6 1544.94 Q1256.54 1549.52 1250.73 1549.52 Q1244.92 1549.52 1241.84 1544.94 Q1238.79 1540.33 1238.79 1531.6 Q1238.79 1522.85 1241.84 1518.27 Q1244.92 1513.66 1250.73 1513.66 Z" fill="#000000" fill-rule="nonzero" fill-opacity="1" /><path clip-path="url(#clip630)" d="M1270.89 1542.97 L1275.78 1542.97 L1275.78 1548.85 L1270.89 1548.85 L1270.89 1542.97 Z" fill="#000000" fill-rule="nonzero" fill-opacity="1" /><path clip-path="url(#clip630)" d="M1295.96 1517.37 Q1292.35 1517.37 1290.52 1520.93 Q1288.72 1524.47 1288.72 1531.6 Q1288.72 1538.71 1290.52 1542.27 Q1292.35 1545.82 1295.96 1545.82 Q1299.6 1545.82 1301.4 1542.27 Q1303.23 1538.71 1303.23 1531.6 Q1303.23 1524.47 1301.4 1520.93 Q1299.6 1517.37 1295.96 1517.37 M1295.96 1513.66 Q1301.77 1513.66 1304.83 1518.27 Q1307.91 1522.85 1307.91 1531.6 Q1307.91 1540.33 1304.83 1544.94 Q1301.77 1549.52 1295.96 1549.52 Q1290.15 1549.52 1287.07 1544.94 Q1284.02 1540.33 1284.02 1531.6 Q1284.02 1522.85 1287.07 1518.27 Q1290.15 1513.66 1295.96 1513.66 Z" fill="#000000" fill-rule="nonzero" fill-opacity="1" /><path clip-path="url(#clip630)" d="M1784.79 1544.91 L1801.11 1544.91 L1801.11 1548.85 L1779.16 1548.85 L1779.16 1544.91 Q1781.82 1542.16 1786.41 1537.53 Q1791.01 1532.88 1792.19 1531.53 Q1794.44 1529.01 1795.32 1527.27 Q1796.22 1525.51 1796.22 1523.82 Q1796.22 1521.07 1794.28 1519.33 Q1792.36 1517.6 1789.25 1517.6 Q1787.06 1517.6 1784.6 1518.36 Q1782.17 1519.13 1779.39 1520.68 L1779.39 1515.95 Q1782.22 1514.82 1784.67 1514.24 Q1787.13 1513.66 1789.16 1513.66 Q1794.53 1513.66 1797.73 1516.35 Q1800.92 1519.03 1800.92 1523.52 Q1800.92 1525.65 1800.11 1527.57 Q1799.32 1529.47 1797.22 1532.07 Q1796.64 1532.74 1793.54 1535.95 Q1790.44 1539.15 1784.79 1544.91 Z" fill="#000000" fill-rule="nonzero" fill-opacity="1" /><path clip-path="url(#clip630)" d="M1810.92 1542.97 L1815.81 1542.97 L1815.81 1548.85 L1810.92 1548.85 L1810.92 1542.97 Z" fill="#000000" fill-rule="nonzero" fill-opacity="1" /><path clip-path="url(#clip630)" d="M1826.04 1514.29 L1844.39 1514.29 L1844.39 1518.22 L1830.32 1518.22 L1830.32 1526.7 Q1831.34 1526.35 1832.36 1526.19 Q1833.37 1526 1834.39 1526 Q1840.18 1526 1843.56 1529.17 Q1846.94 1532.34 1846.94 1537.76 Q1846.94 1543.34 1843.47 1546.44 Q1840 1549.52 1833.68 1549.52 Q1831.5 1549.52 1829.23 1549.15 Q1826.99 1548.78 1824.58 1548.04 L1824.58 1543.34 Q1826.66 1544.47 1828.88 1545.03 Q1831.11 1545.58 1833.58 1545.58 Q1837.59 1545.58 1839.93 1543.48 Q1842.26 1541.37 1842.26 1537.76 Q1842.26 1534.15 1839.93 1532.04 Q1837.59 1529.94 1833.58 1529.94 Q1831.71 1529.94 1829.83 1530.35 Q1827.98 1530.77 1826.04 1531.65 L1826.04 1514.29 Z" fill="#000000" fill-rule="nonzero" fill-opacity="1" /><path clip-path="url(#clip630)" d="M2319.92 1514.29 L2338.28 1514.29 L2338.28 1518.22 L2324.2 1518.22 L2324.2 1526.7 Q2325.22 1526.35 2326.24 1526.19 Q2327.26 1526 2328.28 1526 Q2334.06 1526 2337.44 1529.17 Q2340.82 1532.34 2340.82 1537.76 Q2340.82 1543.34 2337.35 1546.44 Q2333.88 1549.52 2327.56 1549.52 Q2325.38 1549.52 2323.11 1549.15 Q2320.87 1548.78 2318.46 1548.04 L2318.46 1543.34 Q2320.55 1544.47 2322.77 1545.03 Q2324.99 1545.58 2327.47 1545.58 Q2331.47 1545.58 2333.81 1543.48 Q2336.15 1541.37 2336.15 1537.76 Q2336.15 1534.15 2333.81 1532.04 Q2331.47 1529.94 2327.47 1529.94 Q2325.59 1529.94 2323.72 1530.35 Q2321.86 1530.77 2319.92 1531.65 L2319.92 1514.29 Z" fill="#000000" fill-rule="nonzero" fill-opacity="1" /><path clip-path="url(#clip630)" d="M2350.04 1542.97 L2354.92 1542.97 L2354.92 1548.85 L2350.04 1548.85 L2350.04 1542.97 Z" fill="#000000" fill-rule="nonzero" fill-opacity="1" /><path clip-path="url(#clip630)" d="M2375.11 1517.37 Q2371.49 1517.37 2369.67 1520.93 Q2367.86 1524.47 2367.86 1531.6 Q2367.86 1538.71 2369.67 1542.27 Q2371.49 1545.82 2375.11 1545.82 Q2378.74 1545.82 2380.55 1542.27 Q2382.37 1538.71 2382.37 1531.6 Q2382.37 1524.47 2380.55 1520.93 Q2378.74 1517.37 2375.11 1517.37 M2375.11 1513.66 Q2380.92 1513.66 2383.97 1518.27 Q2387.05 1522.85 2387.05 1531.6 Q2387.05 1540.33 2383.97 1544.94 Q2380.92 1549.52 2375.11 1549.52 Q2369.3 1549.52 2366.22 1544.94 Q2363.16 1540.33 2363.16 1531.6 Q2363.16 1522.85 2366.22 1518.27 Q2369.3 1513.66 2375.11 1513.66 Z" fill="#000000" fill-rule="nonzero" fill-opacity="1" /><polyline clip-path="url(#clip630)" style="stroke:#000000; stroke-linecap:round; stroke-linejoin:round; stroke-width:4; stroke-opacity:1; fill:none" points="193.936,1486.45 193.936,47.2441 "/>
<polyline clip-path="url(#clip630)" style="stroke:#000000; stroke-linecap:round; stroke-linejoin:round; stroke-width:4; stroke-opacity:1; fill:none" points="193.936,1486.45 212.834,1486.45 "/>
<polyline clip-path="url(#clip630)" style="stroke:#000000; stroke-linecap:round; stroke-linejoin:round; stroke-width:4; stroke-opacity:1; fill:none" points="193.936,1126.65 212.834,1126.65 "/>
<polyline clip-path="url(#clip630)" style="stroke:#000000; stroke-linecap:round; stroke-linejoin:round; stroke-width:4; stroke-opacity:1; fill:none" points="193.936,766.846 212.834,766.846 "/>
<polyline clip-path="url(#clip630)" style="stroke:#000000; stroke-linecap:round; stroke-linejoin:round; stroke-width:4; stroke-opacity:1; fill:none" points="193.936,407.045 212.834,407.045 "/>
<polyline clip-path="url(#clip630)" style="stroke:#000000; stroke-linecap:round; stroke-linejoin:round; stroke-width:4; stroke-opacity:1; fill:none" points="193.936,47.2441 212.834,47.2441 "/>
<path clip-path="url(#clip630)" d="M50.9921 1486.9 L80.6679 1486.9 L80.6679 1490.83 L50.9921 1490.83 L50.9921 1486.9 Z" fill="#000000" fill-rule="nonzero" fill-opacity="1" /><path clip-path="url(#clip630)" d="M90.8067 1469.17 L109.163 1469.17 L109.163 1473.1 L95.0891 1473.1 L95.0891 1481.58 Q96.1076 1481.23 97.1261 1481.07 Q98.1447 1480.88 99.1632 1480.88 Q104.95 1480.88 108.33 1484.05 Q111.709 1487.22 111.709 1492.64 Q111.709 1498.22 108.237 1501.32 Q104.765 1504.4 98.4456 1504.4 Q96.2697 1504.4 94.0012 1504.03 Q91.7558 1503.66 89.3484 1502.92 L89.3484 1498.22 Q91.4317 1499.35 93.6539 1499.91 Q95.8761 1500.46 98.353 1500.46 Q102.358 1500.46 104.696 1498.36 Q107.033 1496.25 107.033 1492.64 Q107.033 1489.03 104.696 1486.92 Q102.358 1484.82 98.353 1484.82 Q96.478 1484.82 94.603 1485.23 Q92.7512 1485.65 90.8067 1486.53 L90.8067 1469.17 Z" fill="#000000" fill-rule="nonzero" fill-opacity="1" /><path clip-path="url(#clip630)" d="M120.922 1497.85 L125.807 1497.85 L125.807 1503.73 L120.922 1503.73 L120.922 1497.85 Z" fill="#000000" fill-rule="nonzero" fill-opacity="1" /><path clip-path="url(#clip630)" d="M145.992 1472.25 Q142.381 1472.25 140.552 1475.81 Q138.746 1479.35 138.746 1486.48 Q138.746 1493.59 140.552 1497.15 Q142.381 1500.7 145.992 1500.7 Q149.626 1500.7 151.431 1497.15 Q153.26 1493.59 153.26 1486.48 Q153.26 1479.35 151.431 1475.81 Q149.626 1472.25 145.992 1472.25 M145.992 1468.54 Q151.802 1468.54 154.857 1473.15 Q157.936 1477.73 157.936 1486.48 Q157.936 1495.21 154.857 1499.82 Q151.802 1504.4 145.992 1504.4 Q140.181 1504.4 137.103 1499.82 Q134.047 1495.21 134.047 1486.48 Q134.047 1477.73 137.103 1473.15 Q140.181 1468.54 145.992 1468.54 Z" fill="#000000" fill-rule="nonzero" fill-opacity="1" /><path clip-path="url(#clip630)" d="M51.9875 1127.1 L81.6633 1127.1 L81.6633 1131.03 L51.9875 1131.03 L51.9875 1127.1 Z" fill="#000000" fill-rule="nonzero" fill-opacity="1" /><path clip-path="url(#clip630)" d="M95.7836 1139.99 L112.103 1139.99 L112.103 1143.93 L90.1586 1143.93 L90.1586 1139.99 Q92.8206 1137.24 97.4039 1132.61 Q102.01 1127.95 103.191 1126.61 Q105.436 1124.09 106.316 1122.35 Q107.219 1120.59 107.219 1118.9 Q107.219 1116.15 105.274 1114.41 Q103.353 1112.68 100.251 1112.68 Q98.0521 1112.68 95.5984 1113.44 Q93.1678 1114.2 90.3901 1115.76 L90.3901 1111.03 Q93.2141 1109.9 95.6678 1109.32 Q98.1215 1108.74 100.159 1108.74 Q105.529 1108.74 108.723 1111.43 Q111.918 1114.11 111.918 1118.6 Q111.918 1120.73 111.108 1122.65 Q110.321 1124.55 108.214 1127.14 Q107.635 1127.82 104.534 1131.03 Q101.432 1134.23 95.7836 1139.99 Z" fill="#000000" fill-rule="nonzero" fill-opacity="1" /><path clip-path="url(#clip630)" d="M121.918 1138.05 L126.802 1138.05 L126.802 1143.93 L121.918 1143.93 L121.918 1138.05 Z" fill="#000000" fill-rule="nonzero" fill-opacity="1" /><path clip-path="url(#clip630)" d="M137.033 1109.37 L155.39 1109.37 L155.39 1113.3 L141.316 1113.3 L141.316 1121.77 Q142.334 1121.43 143.353 1121.27 Q144.371 1121.08 145.39 1121.08 Q151.177 1121.08 154.556 1124.25 Q157.936 1127.42 157.936 1132.84 Q157.936 1138.42 154.464 1141.52 Q150.992 1144.6 144.672 1144.6 Q142.496 1144.6 140.228 1144.23 Q137.982 1143.86 135.575 1143.12 L135.575 1138.42 Q137.658 1139.55 139.881 1140.11 Q142.103 1140.66 144.58 1140.66 Q148.584 1140.66 150.922 1138.56 Q153.26 1136.45 153.26 1132.84 Q153.26 1129.23 150.922 1127.12 Q148.584 1125.01 144.58 1125.01 Q142.705 1125.01 140.83 1125.43 Q138.978 1125.85 137.033 1126.73 L137.033 1109.37 Z" fill="#000000" fill-rule="nonzero" fill-opacity="1" /><path clip-path="url(#clip630)" d="M100.76 752.645 Q97.1493 752.645 95.3206 756.209 Q93.515 759.751 93.515 766.881 Q93.515 773.987 95.3206 777.552 Q97.1493 781.094 100.76 781.094 Q104.395 781.094 106.2 777.552 Q108.029 773.987 108.029 766.881 Q108.029 759.751 106.2 756.209 Q104.395 752.645 100.76 752.645 M100.76 748.941 Q106.571 748.941 109.626 753.547 Q112.705 758.131 112.705 766.881 Q112.705 775.608 109.626 780.214 Q106.571 784.797 100.76 784.797 Q94.9502 784.797 91.8715 780.214 Q88.816 775.608 88.816 766.881 Q88.816 758.131 91.8715 753.547 Q94.9502 748.941 100.76 748.941 Z" fill="#000000" fill-rule="nonzero" fill-opacity="1" /><path clip-path="url(#clip630)" d="M120.922 778.246 L125.807 778.246 L125.807 784.126 L120.922 784.126 L120.922 778.246 Z" fill="#000000" fill-rule="nonzero" fill-opacity="1" /><path clip-path="url(#clip630)" d="M145.992 752.645 Q142.381 752.645 140.552 756.209 Q138.746 759.751 138.746 766.881 Q138.746 773.987 140.552 777.552 Q142.381 781.094 145.992 781.094 Q149.626 781.094 151.431 777.552 Q153.26 773.987 153.26 766.881 Q153.26 759.751 151.431 756.209 Q149.626 752.645 145.992 752.645 M145.992 748.941 Q151.802 748.941 154.857 753.547 Q157.936 758.131 157.936 766.881 Q157.936 775.608 154.857 780.214 Q151.802 784.797 145.992 784.797 Q140.181 784.797 137.103 780.214 Q134.047 775.608 134.047 766.881 Q134.047 758.131 137.103 753.547 Q140.181 748.941 145.992 748.941 Z" fill="#000000" fill-rule="nonzero" fill-opacity="1" /><path clip-path="url(#clip630)" d="M95.7836 420.39 L112.103 420.39 L112.103 424.325 L90.1586 424.325 L90.1586 420.39 Q92.8206 417.635 97.4039 413.006 Q102.01 408.353 103.191 407.01 Q105.436 404.487 106.316 402.751 Q107.219 400.992 107.219 399.302 Q107.219 396.547 105.274 394.811 Q103.353 393.075 100.251 393.075 Q98.0521 393.075 95.5984 393.839 Q93.1678 394.603 90.3901 396.154 L90.3901 391.432 Q93.2141 390.297 95.6678 389.719 Q98.1215 389.14 100.159 389.14 Q105.529 389.14 108.723 391.825 Q111.918 394.51 111.918 399.001 Q111.918 401.131 111.108 403.052 Q110.321 404.95 108.214 407.543 Q107.635 408.214 104.534 411.432 Q101.432 414.626 95.7836 420.39 Z" fill="#000000" fill-rule="nonzero" fill-opacity="1" /><path clip-path="url(#clip630)" d="M121.918 418.445 L126.802 418.445 L126.802 424.325 L121.918 424.325 L121.918 418.445 Z" fill="#000000" fill-rule="nonzero" fill-opacity="1" /><path clip-path="url(#clip630)" d="M137.033 389.765 L155.39 389.765 L155.39 393.7 L141.316 393.7 L141.316 402.172 Q142.334 401.825 143.353 401.663 Q144.371 401.478 145.39 401.478 Q151.177 401.478 154.556 404.649 Q157.936 407.82 157.936 413.237 Q157.936 418.816 154.464 421.918 Q150.992 424.996 144.672 424.996 Q142.496 424.996 140.228 424.626 Q137.982 424.256 135.575 423.515 L135.575 418.816 Q137.658 419.95 139.881 420.506 Q142.103 421.061 144.58 421.061 Q148.584 421.061 150.922 418.955 Q153.26 416.848 153.26 413.237 Q153.26 409.626 150.922 407.52 Q148.584 405.413 144.58 405.413 Q142.705 405.413 140.83 405.83 Q138.978 406.246 137.033 407.126 L137.033 389.765 Z" fill="#000000" fill-rule="nonzero" fill-opacity="1" /><path clip-path="url(#clip630)" d="M90.8067 29.9641 L109.163 29.9641 L109.163 33.8993 L95.0891 33.8993 L95.0891 42.3714 Q96.1076 42.0242 97.1261 41.8622 Q98.1447 41.677 99.1632 41.677 Q104.95 41.677 108.33 44.8483 Q111.709 48.0196 111.709 53.4362 Q111.709 59.0149 108.237 62.1167 Q104.765 65.1954 98.4456 65.1954 Q96.2697 65.1954 94.0012 64.825 Q91.7558 64.4547 89.3484 63.7139 L89.3484 59.0149 Q91.4317 60.1491 93.6539 60.7047 Q95.8761 61.2602 98.353 61.2602 Q102.358 61.2602 104.696 59.1538 Q107.033 57.0473 107.033 53.4362 Q107.033 49.8251 104.696 47.7186 Q102.358 45.6122 98.353 45.6122 Q96.478 45.6122 94.603 46.0288 Q92.7512 46.4455 90.8067 47.3251 L90.8067 29.9641 Z" fill="#000000" fill-rule="nonzero" fill-opacity="1" /><path clip-path="url(#clip630)" d="M120.922 58.6445 L125.807 58.6445 L125.807 64.5241 L120.922 64.5241 L120.922 58.6445 Z" fill="#000000" fill-rule="nonzero" fill-opacity="1" /><path clip-path="url(#clip630)" d="M145.992 33.0428 Q142.381 33.0428 140.552 36.6076 Q138.746 40.1492 138.746 47.2788 Q138.746 54.3853 140.552 57.9501 Q142.381 61.4917 145.992 61.4917 Q149.626 61.4917 151.431 57.9501 Q153.26 54.3853 153.26 47.2788 Q153.26 40.1492 151.431 36.6076 Q149.626 33.0428 145.992 33.0428 M145.992 29.3391 Q151.802 29.3391 154.857 33.9456 Q157.936 38.5289 157.936 47.2788 Q157.936 56.0056 154.857 60.6121 Q151.802 65.1954 145.992 65.1954 Q140.181 65.1954 137.103 60.6121 Q134.047 56.0056 134.047 47.2788 Q134.047 38.5289 137.103 33.9456 Q140.181 29.3391 145.992 29.3391 Z" fill="#000000" fill-rule="nonzero" fill-opacity="1" /><polyline clip-path="url(#clip632)" style="stroke:#000000; stroke-linecap:round; stroke-linejoin:round; stroke-width:4; stroke-opacity:0.5; fill:none" points="193.936,1187.17 196.097,1186.97 198.258,1186.76 200.419,1186.56 202.58,1186.36 204.741,1186.16 206.902,1185.95 209.063,1185.75 211.224,1185.55 213.385,1185.34 215.546,1185.14 217.707,1184.94 219.868,1184.74 222.029,1184.53 224.19,1184.33 226.351,1184.13 228.512,1183.92 230.673,1183.72 232.834,1183.52 234.995,1183.32 237.156,1183.11 239.317,1182.91 241.478,1182.71 243.639,1182.5 245.8,1182.3 247.961,1182.1 250.122,1181.9 252.282,1181.69 254.443,1181.49 256.604,1181.29 258.765,1181.08 260.926,1180.88 263.087,1180.68 265.248,1180.48 267.409,1180.27 269.57,1180.07 271.731,1179.87 273.892,1179.66 276.053,1179.46 278.214,1179.26 280.375,1179.06 282.536,1178.85 284.697,1178.65 286.858,1178.45 289.019,1178.24 291.18,1178.04 293.341,1177.84 295.502,1177.64 297.663,1177.43 299.824,1177.23 301.985,1177.03 304.146,1176.82 306.307,1176.62 308.468,1176.42 310.629,1176.22 312.79,1176.01 314.951,1175.81 317.112,1175.61 319.273,1175.4 321.434,1175.2 323.595,1175 325.756,1174.8 327.917,1174.59 330.078,1174.39 332.239,1174.19 334.4,1173.98 336.561,1173.78 338.722,1173.58 340.883,1173.38 343.044,1173.17 345.205,1172.97 347.366,1172.77 349.527,1172.56 351.688,1172.36 353.849,1172.16 356.01,1171.96 358.171,1171.75 360.332,1171.55 362.493,1171.35 364.653,1171.14 366.814,1170.94 368.975,1170.74 371.136,1170.54 373.297,1170.33 375.458,1170.13 377.619,1169.93 379.78,1169.72 381.941,1169.52 384.102,1169.32 386.263,1169.12 388.424,1168.91 390.585,1168.71 392.746,1168.51 394.907,1168.3 397.068,1168.1 399.229,1167.9 401.39,1167.7 403.551,1167.49 405.712,1167.29 407.873,1167.09 410.034,1166.88 412.195,1166.68 414.356,1166.48 416.517,1166.28 418.678,1166.07 420.839,1165.87 423,1165.67 425.161,1165.46 427.322,1165.26 429.483,1165.06 431.644,1164.86 433.805,1164.65 435.966,1164.45 438.127,1164.25 440.288,1164.04 442.449,1163.84 444.61,1163.64 446.771,1163.44 448.932,1163.23 451.093,1163.03 453.254,1162.83 455.415,1162.62 457.576,1162.42 459.737,1162.22 461.898,1162.02 464.059,1161.81 466.22,1161.61 468.381,1161.41 470.542,1161.2 472.703,1161 474.864,1160.8 477.024,1160.6 479.185,1160.39 481.346,1160.19 483.507,1159.99 485.668,1159.78 487.829,1159.58 489.99,1159.38 492.151,1159.18 494.312,1158.97 496.473,1158.77 498.634,1158.57 500.795,1158.36 502.956,1158.16 505.117,1157.96 507.278,1157.76 509.439,1157.55 511.6,1157.35 513.761,1157.15 515.922,1156.94 518.083,1156.74 520.244,1156.54 522.405,1156.34 524.566,1156.13 526.727,1155.93 528.888,1155.73 531.049,1155.52 533.21,1155.32 535.371,1155.12 537.532,1154.92 539.693,1154.71 541.854,1154.51 544.015,1154.31 546.176,1154.1 548.337,1153.9 550.498,1153.7 552.659,1153.5 554.82,1153.29 556.981,1153.09 559.142,1152.89 561.303,1152.68 563.464,1152.48 565.625,1152.28 567.786,1152.08 569.947,1151.87 572.108,1151.67 574.269,1151.47 576.43,1151.26 578.591,1151.06 580.752,1150.86 582.913,1150.66 585.074,1150.45 587.235,1150.25 589.396,1150.05 591.556,1149.84 593.717,1149.64 595.878,1149.44 598.039,1149.24 600.2,1149.03 602.361,1148.83 604.522,1148.63 606.683,1148.42 608.844,1148.22 611.005,1148.02 613.166,1147.82 615.327,1147.61 617.488,1147.41 619.649,1147.21 621.81,1147 623.971,1146.8 626.132,1146.6 628.293,1146.4 630.454,1146.19 632.615,1145.99 634.776,1145.79 636.937,1145.58 639.098,1145.38 641.259,1145.18 643.42,1144.98 645.581,1144.77 647.742,1144.57 649.903,1144.37 652.064,1144.16 654.225,1143.96 656.386,1143.76 658.547,1143.56 660.708,1143.35 662.869,1143.15 665.03,1142.95 667.191,1142.74 669.352,1142.54 671.513,1142.34 673.674,1142.14 675.835,1141.93 677.996,1141.73 680.157,1141.53 682.318,1141.32 684.479,1141.12 686.64,1140.92 688.801,1140.72 690.962,1140.51 693.123,1140.31 695.284,1140.11 697.445,1139.9 699.606,1139.7 701.767,1139.5 703.927,1139.3 706.088,1139.09 708.249,1138.89 710.41,1138.69 712.571,1138.48 714.732,1138.28 716.893,1138.08 719.054,1137.88 721.215,1137.67 723.376,1137.47 725.537,1137.27 727.698,1137.06 729.859,1136.86 732.02,1136.66 734.181,1136.46 736.342,1136.25 738.503,1136.05 740.664,1135.85 742.825,1135.64 744.986,1135.44 747.147,1135.24 749.308,1135.04 751.469,1134.83 753.63,1134.63 755.791,1134.43 757.952,1134.22 760.113,1134.02 762.274,1133.82 764.435,1133.62 766.596,1133.41 768.757,1133.21 770.918,1133.01 773.079,1132.8 775.24,1132.6 777.401,1132.4 779.562,1132.2 781.723,1131.99 783.884,1131.79 786.045,1131.59 788.206,1131.38 790.367,1131.18 792.528,1130.98 794.689,1130.78 796.85,1130.57 799.011,1130.37 801.172,1130.17 803.333,1129.96 805.494,1129.76 807.655,1129.56 809.816,1129.36 811.977,1129.15 814.138,1128.95 816.298,1128.75 818.459,1128.54 820.62,1128.34 822.781,1128.14 824.942,1127.94 827.103,1127.73 829.264,1127.53 831.425,1127.33 833.586,1127.12 835.747,1126.92 837.908,1126.72 840.069,1126.52 842.23,1126.31 844.391,1126.11 846.552,1125.91 848.713,1125.7 850.874,1125.5 853.035,1125.3 855.196,1125.1 857.357,1124.89 859.518,1124.69 861.679,1124.49 863.84,1124.28 866.001,1124.08 868.162,1123.88 870.323,1123.67 872.484,1123.47 874.645,1123.27 876.806,1123.07 878.967,1122.86 881.128,1122.66 883.289,1122.46 885.45,1122.25 887.611,1122.05 889.772,1121.85 891.933,1121.65 894.094,1121.44 896.255,1121.24 898.416,1121.04 900.577,1120.83 902.738,1120.63 904.899,1120.43 907.06,1120.23 909.221,1120.02 911.382,1119.82 913.543,1119.62 915.704,1119.41 917.865,1119.21 920.026,1119.01 922.187,1118.81 924.348,1118.6 926.509,1118.4 928.669,1118.2 930.83,1117.99 932.991,1117.79 935.152,1117.59 937.313,1117.39 939.474,1117.18 941.635,1116.98 943.796,1116.78 945.957,1116.57 948.118,1116.37 950.279,1116.17 952.44,1115.97 954.601,1115.76 956.762,1115.56 958.923,1115.36 961.084,1115.15 963.245,1114.95 965.406,1114.75 967.567,1114.55 969.728,1114.34 971.889,1114.14 974.05,1113.94 976.211,1113.73 978.372,1113.53 980.533,1113.33 982.694,1113.13 984.855,1112.92 987.016,1112.72 989.177,1112.52 991.338,1112.31 993.499,1112.11 995.66,1111.91 997.821,1111.71 999.982,1111.5 1002.14,1111.3 1004.3,1111.1 1006.46,1110.89 1008.63,1110.69 1010.79,1110.49 1012.95,1110.29 1015.11,1110.08 1017.27,1109.88 1019.43,1109.68 1021.59,1109.47 1023.75,1109.27 1025.91,1109.07 1028.07,1108.87 1030.24,1108.66 1032.4,1108.46 1034.56,1108.26 1036.72,1108.05 1038.88,1107.85 1041.04,1107.65 1043.2,1107.45 1045.36,1107.24 1047.52,1107.04 1049.68,1106.84 1051.85,1106.63 1054.01,1106.43 1056.17,1106.23 1058.33,1106.03 1060.49,1105.82 1062.65,1105.62 1064.81,1105.42 1066.97,1105.21 1069.13,1105.01 1071.29,1104.81 1073.46,1104.61 1075.62,1104.4 1077.78,1104.2 1079.94,1104 1082.1,1103.79 1084.26,1103.59 1086.42,1103.39 1088.58,1103.19 1090.74,1102.98 1092.9,1102.78 1095.07,1102.58 1097.23,1102.37 1099.39,1102.17 1101.55,1101.97 1103.71,1101.77 1105.87,1101.56 1108.03,1101.36 1110.19,1101.16 1112.35,1100.95 1114.51,1100.75 1116.67,1100.55 1118.84,1100.35 1121,1100.14 1123.16,1099.94 1125.32,1099.74 1127.48,1099.53 1129.64,1099.33 1131.8,1099.13 1133.96,1098.93 1136.12,1098.72 1138.28,1098.52 1140.45,1098.32 1142.61,1098.11 1144.77,1097.91 1146.93,1097.71 1149.09,1097.51 1151.25,1097.3 1153.41,1097.1 1155.57,1096.9 1157.73,1096.69 1159.89,1096.49 1162.06,1096.29 1164.22,1096.09 1166.38,1095.88 1168.54,1095.68 1170.7,1095.48 1172.86,1095.27 1175.02,1095.07 1177.18,1094.87 1179.34,1094.67 1181.5,1094.46 1183.67,1094.26 1185.83,1094.06 1187.99,1093.85 1190.15,1093.65 1192.31,1093.45 1194.47,1093.25 1196.63,1093.04 1198.79,1092.84 1200.95,1092.64 1203.11,1092.43 1205.28,1092.23 1207.44,1092.03 1209.6,1091.83 1211.76,1091.62 1213.92,1091.42 1216.08,1091.22 1218.24,1091.01 1220.4,1090.81 1222.56,1090.61 1224.72,1090.41 1226.88,1090.2 1229.05,1090 1231.21,1089.8 1233.37,1089.59 1235.53,1089.39 1237.69,1089.19 1239.85,1088.99 1242.01,1088.78 1244.17,1088.58 1246.33,1088.38 1248.49,1088.17 1250.66,1087.97 1252.82,1087.77 1254.98,1087.57 1257.14,1087.36 1259.3,1087.16 1261.46,1086.96 1263.62,1086.75 1265.78,1086.55 1267.94,1086.35 1270.1,1086.15 1272.27,1085.94 1274.43,1085.74 1276.59,1085.54 1278.75,1085.33 1280.91,1085.13 1283.07,1084.93 1285.23,1084.73 1287.39,1084.52 1289.55,1084.32 1291.71,1084.12 1293.88,1083.91 1296.04,1083.71 1298.2,1083.51 1300.36,1083.31 1302.52,1083.1 1304.68,1082.9 1306.84,1082.7 1309,1082.49 1311.16,1082.29 1313.32,1082.09 1315.49,1081.89 1317.65,1081.68 1319.81,1081.48 1321.97,1081.28 1324.13,1081.07 1326.29,1080.87 1328.45,1080.67 1330.61,1080.47 1332.77,1080.26 1334.93,1080.06 1337.09,1079.86 1339.26,1079.65 1341.42,1079.45 1343.58,1079.25 1345.74,1079.05 1347.9,1078.84 1350.06,1078.64 1352.22,1078.44 1354.38,1078.23 1356.54,1078.03 1358.7,1077.83 1360.87,1077.63 1363.03,1077.42 1365.19,1077.22 1367.35,1077.02 1369.51,1076.81 1371.67,1076.61 1373.83,1076.41 1375.99,1076.21 1378.15,1076 1380.31,1075.8 1382.48,1075.6 1384.64,1075.39 1386.8,1075.19 1388.96,1074.99 1391.12,1074.79 1393.28,1074.58 1395.44,1074.38 1397.6,1074.18 1399.76,1073.97 1401.92,1073.77 1404.09,1073.57 1406.25,1073.37 1408.41,1073.16 1410.57,1072.96 1412.73,1072.76 1414.89,1072.55 1417.05,1072.35 1419.21,1072.15 1421.37,1071.95 1423.53,1071.74 1425.7,1071.54 1427.86,1071.34 1430.02,1071.13 1432.18,1070.93 1434.34,1070.73 1436.5,1070.53 1438.66,1070.32 1440.82,1070.12 1442.98,1069.92 1445.14,1069.71 1447.3,1069.51 1449.47,1069.31 1451.63,1069.11 1453.79,1068.9 1455.95,1068.7 1458.11,1068.5 1460.27,1068.29 1462.43,1068.09 1464.59,1067.89 1466.75,1067.69 1468.91,1067.48 1471.08,1067.28 1473.24,1067.08 1475.4,1066.87 1477.56,1066.67 1479.72,1066.47 1481.88,1066.27 1484.04,1066.06 1486.2,1065.86 1488.36,1065.66 1490.52,1065.45 1492.69,1065.25 1494.85,1065.05 1497.01,1064.85 1499.17,1064.64 1501.33,1064.44 1503.49,1064.24 1505.65,1064.03 1507.81,1063.83 1509.97,1063.63 1512.13,1063.43 1514.3,1063.22 1516.46,1063.02 1518.62,1062.82 1520.78,1062.61 1522.94,1062.41 1525.1,1062.21 1527.26,1062.01 1529.42,1061.8 1531.58,1061.6 1533.74,1061.4 1535.91,1061.19 1538.07,1060.99 1540.23,1060.79 1542.39,1060.59 1544.55,1060.38 1546.71,1060.18 1548.87,1059.98 1551.03,1059.77 1553.19,1059.57 1555.35,1059.37 1557.51,1059.17 1559.68,1058.96 1561.84,1058.76 1564,1058.56 1566.16,1058.35 1568.32,1058.15 1570.48,1057.95 1572.64,1057.75 1574.8,1057.54 1576.96,1057.34 1579.12,1057.14 1581.29,1056.93 1583.45,1056.73 1585.61,1056.53 1587.77,1056.33 1589.93,1056.12 1592.09,1055.92 1594.25,1055.72 1596.41,1055.51 1598.57,1055.31 1600.73,1055.11 1602.9,1054.91 1605.06,1054.7 1607.22,1054.5 1609.38,1054.3 1611.54,1054.09 1613.7,1053.89 1615.86,1053.69 1618.02,1053.49 1620.18,1053.28 1622.34,1053.08 1624.51,1052.88 1626.67,1052.67 1628.83,1052.47 1630.99,1052.27 1633.15,1052.07 1635.31,1051.86 1637.47,1051.66 1639.63,1051.46 1641.79,1051.25 1643.95,1051.05 1646.12,1050.85 1648.28,1050.65 1650.44,1050.44 1652.6,1050.24 1654.76,1050.04 1656.92,1049.83 1659.08,1049.63 1661.24,1049.43 1663.4,1049.23 1665.56,1049.02 1667.72,1048.82 1669.89,1048.62 1672.05,1048.41 1674.21,1048.21 1676.37,1048.01 1678.53,1047.8 1680.69,1047.6 1682.85,1047.4 1685.01,1047.2 1687.17,1046.99 1689.33,1046.79 1691.5,1046.59 1693.66,1046.38 1695.82,1046.18 1697.98,1045.98 1700.14,1045.78 1702.3,1045.57 1704.46,1045.37 1706.62,1045.17 1708.78,1044.96 1710.94,1044.76 1713.11,1044.56 1715.27,1044.36 1717.43,1044.15 1719.59,1043.95 1721.75,1043.75 1723.91,1043.54 1726.07,1043.34 1728.23,1043.14 1730.39,1042.94 1732.55,1042.73 1734.72,1042.53 1736.88,1042.33 1739.04,1042.12 1741.2,1041.92 1743.36,1041.72 1745.52,1041.52 1747.68,1041.31 1749.84,1041.11 1752,1040.91 1754.16,1040.7 1756.33,1040.5 1758.49,1040.3 1760.65,1040.1 1762.81,1039.89 1764.97,1039.69 1767.13,1039.49 1769.29,1039.28 1771.45,1039.08 1773.61,1038.88 1775.77,1038.68 1777.93,1038.47 1780.1,1038.27 1782.26,1038.07 1784.42,1037.86 1786.58,1037.66 1788.74,1037.46 1790.9,1037.26 1793.06,1037.05 1795.22,1036.85 1797.38,1036.65 1799.54,1036.44 1801.71,1036.24 1803.87,1036.04 1806.03,1035.84 1808.19,1035.63 1810.35,1035.43 1812.51,1035.23 1814.67,1035.02 1816.83,1034.82 1818.99,1034.62 1821.15,1034.42 1823.32,1034.21 1825.48,1034.01 1827.64,1033.81 1829.8,1033.6 1831.96,1033.4 1834.12,1033.2 1836.28,1033 1838.44,1032.79 1840.6,1032.59 1842.76,1032.39 1844.93,1032.18 1847.09,1031.98 1849.25,1031.78 1851.41,1031.58 1853.57,1031.37 1855.73,1031.17 1857.89,1030.97 1860.05,1030.76 1862.21,1030.56 1864.37,1030.36 1866.54,1030.16 1868.7,1029.95 1870.86,1029.75 1873.02,1029.55 1875.18,1029.34 1877.34,1029.14 1879.5,1028.94 1881.66,1028.74 1883.82,1028.53 1885.98,1028.33 1888.15,1028.13 1890.31,1027.92 1892.47,1027.72 1894.63,1027.52 1896.79,1027.32 1898.95,1027.11 1901.11,1026.91 1903.27,1026.71 1905.43,1026.5 1907.59,1026.3 1909.75,1026.1 1911.92,1025.9 1914.08,1025.69 1916.24,1025.49 1918.4,1025.29 1920.56,1025.08 1922.72,1024.88 1924.88,1024.68 1927.04,1024.48 1929.2,1024.27 1931.36,1024.07 1933.53,1023.87 1935.69,1023.66 1937.85,1023.46 1940.01,1023.26 1942.17,1023.06 1944.33,1022.85 1946.49,1022.65 1948.65,1022.45 1950.81,1022.24 1952.97,1022.04 1955.14,1021.84 1957.3,1021.64 1959.46,1021.43 1961.62,1021.23 1963.78,1021.03 1965.94,1020.82 1968.1,1020.62 1970.26,1020.42 1972.42,1020.22 1974.58,1020.01 1976.75,1019.81 1978.91,1019.61 1981.07,1019.4 1983.23,1019.2 1985.39,1019 1987.55,1018.8 1989.71,1018.59 1991.87,1018.39 1994.03,1018.19 1996.19,1017.98 1998.36,1017.78 2000.52,1017.58 2002.68,1017.38 2004.84,1017.17 2007,1016.97 2009.16,1016.77 2011.32,1016.56 2013.48,1016.36 2015.64,1016.16 2017.8,1015.96 2019.96,1015.75 2022.13,1015.55 2024.29,1015.35 2026.45,1015.14 2028.61,1014.94 2030.77,1014.74 2032.93,1014.54 2035.09,1014.33 2037.25,1014.13 2039.41,1013.93 2041.57,1013.72 2043.74,1013.52 2045.9,1013.32 2048.06,1013.12 2050.22,1012.91 2052.38,1012.71 2054.54,1012.51 2056.7,1012.3 2058.86,1012.1 2061.02,1011.9 2063.18,1011.7 2065.35,1011.49 2067.51,1011.29 2069.67,1011.09 2071.83,1010.88 2073.99,1010.68 2076.15,1010.48 2078.31,1010.28 2080.47,1010.07 2082.63,1009.87 2084.79,1009.67 2086.96,1009.46 2089.12,1009.26 2091.28,1009.06 2093.44,1008.86 2095.6,1008.65 2097.76,1008.45 2099.92,1008.25 2102.08,1008.04 2104.24,1007.84 2106.4,1007.64 2108.57,1007.44 2110.73,1007.23 2112.89,1007.03 2115.05,1006.83 2117.21,1006.62 2119.37,1006.42 2121.53,1006.22 2123.69,1006.02 2125.85,1005.81 2128.01,1005.61 2130.17,1005.41 2132.34,1005.2 2134.5,1005 2136.66,1004.8 2138.82,1004.6 2140.98,1004.39 2143.14,1004.19 2145.3,1003.99 2147.46,1003.78 2149.62,1003.58 2151.78,1003.38 2153.95,1003.18 2156.11,1002.97 2158.27,1002.77 2160.43,1002.57 2162.59,1002.36 2164.75,1002.16 2166.91,1001.96 2169.07,1001.76 2171.23,1001.55 2173.39,1001.35 2175.56,1001.15 2177.72,1000.94 2179.88,1000.74 2182.04,1000.54 2184.2,1000.34 2186.36,1000.13 2188.52,999.93 2190.68,999.727 2192.84,999.524 2195,999.321 2197.17,999.118 2199.33,998.916 2201.49,998.713 2203.65,998.51 2205.81,998.307 2207.97,998.104 2210.13,997.901 2212.29,997.698 2214.45,997.495 2216.61,997.293 2218.78,997.09 2220.94,996.887 2223.1,996.684 2225.26,996.481 2227.42,996.278 2229.58,996.075 2231.74,995.873 2233.9,995.67 2236.06,995.467 2238.22,995.264 2240.38,995.061 2242.55,994.858 2244.71,994.655 2246.87,994.453 2249.03,994.25 2251.19,994.047 2253.35,993.844 2255.51,993.641 2257.67,993.438 2259.83,993.235 2261.99,993.033 2264.16,992.83 2266.32,992.627 2268.48,992.424 2270.64,992.221 2272.8,992.018 2274.96,991.815 2277.12,991.613 2279.28,991.41 2281.44,991.207 2283.6,991.004 2285.77,990.801 2287.93,990.598 2290.09,990.395 2292.25,990.192 2294.41,989.99 2296.57,989.787 2298.73,989.584 2300.89,989.381 2303.05,989.178 2305.21,988.975 2307.38,988.772 2309.54,988.57 2311.7,988.367 2313.86,988.164 2316.02,987.961 2318.18,987.758 2320.34,987.555 2322.5,987.352 2324.66,987.15 2326.82,986.947 2328.99,986.744 2331.15,986.541 2333.31,986.338 2335.47,986.135 2337.63,985.932 2339.79,985.73 2341.95,985.527 2344.11,985.324 2346.27,985.121 2348.43,984.918 2350.59,984.715 2352.76,984.512 "/>
<circle clip-path="url(#clip632)" cx="193.936" cy="1181.9" r="14.4" fill="#000000" fill-rule="evenodd" fill-opacity="1" stroke="none"/>
<circle clip-path="url(#clip632)" cx="409.818" cy="1145.79" r="14.4" fill="#000000" fill-rule="evenodd" fill-opacity="1" stroke="none"/>
<circle clip-path="url(#clip632)" cx="625.7" cy="1137.74" r="14.4" fill="#000000" fill-rule="evenodd" fill-opacity="1" stroke="none"/>
<circle clip-path="url(#clip632)" cx="841.582" cy="1132.93" r="14.4" fill="#000000" fill-rule="evenodd" fill-opacity="1" stroke="none"/>
<circle clip-path="url(#clip632)" cx="1057.46" cy="1098.73" r="14.4" fill="#000000" fill-rule="evenodd" fill-opacity="1" stroke="none"/>
<circle clip-path="url(#clip632)" cx="1273.35" cy="1102.67" r="14.4" fill="#000000" fill-rule="evenodd" fill-opacity="1" stroke="none"/>
<circle clip-path="url(#clip632)" cx="1489.23" cy="1061.4" r="14.4" fill="#000000" fill-rule="evenodd" fill-opacity="1" stroke="none"/>
<circle clip-path="url(#clip632)" cx="1705.11" cy="1056.69" r="14.4" fill="#000000" fill-rule="evenodd" fill-opacity="1" stroke="none"/>
<circle clip-path="url(#clip632)" cx="1920.99" cy="1013.43" r="14.4" fill="#000000" fill-rule="evenodd" fill-opacity="1" stroke="none"/>
<circle clip-path="url(#clip632)" cx="2136.87" cy="1010.73" r="14.4" fill="#000000" fill-rule="evenodd" fill-opacity="1" stroke="none"/>
<circle clip-path="url(#clip632)" cx="2352.76" cy="979.519" r="14.4" fill="#000000" fill-rule="evenodd" fill-opacity="1" stroke="none"/>
</svg>
