<?xml version="1.0" encoding="utf-8"?>
<svg xmlns="http://www.w3.org/2000/svg" xmlns:xlink="http://www.w3.org/1999/xlink" width="600" height="400" viewBox="0 0 2400 1600">
<defs>
  <clipPath id="clip230">
    <rect x="0" y="0" width="2400" height="1600"/>
  </clipPath>
</defs>
<path clip-path="url(#clip230)" d="M0 1600 L2400 1600 L2400 0 L0 0  Z" fill="#ffffff" fill-rule="evenodd" fill-opacity="1"/>
<defs>
  <clipPath id="clip231">
    <rect x="480" y="0" width="1681" height="1600"/>
  </clipPath>
</defs>
<path clip-path="url(#clip230)" d="M193.936 1486.45 L2352.76 1486.45 L2352.76 47.2441 L193.936 47.2441  Z" fill="#ffffff" fill-rule="evenodd" fill-opacity="1"/>
<defs>
  <clipPath id="clip232">
    <rect x="193" y="47" width="2160" height="1440"/>
  </clipPath>
</defs>
<polyline clip-path="url(#clip232)" style="stroke:#000000; stroke-linecap:round; stroke-linejoin:round; stroke-width:2; stroke-opacity:0.1; fill:none" points="193.936,1486.45 193.936,47.2441 "/>
<polyline clip-path="url(#clip232)" style="stroke:#000000; stroke-linecap:round; stroke-linejoin:round; stroke-width:2; stroke-opacity:0.1; fill:none" points="733.641,1486.45 733.641,47.2441 "/>
<polyline clip-path="url(#clip232)" style="stroke:#000000; stroke-linecap:round; stroke-linejoin:round; stroke-width:2; stroke-opacity:0.1; fill:none" points="1273.35,1486.45 1273.35,47.2441 "/>
<polyline clip-path="url(#clip232)" style="stroke:#000000; stroke-linecap:round; stroke-linejoin:round; stroke-width:2; stroke-opacity:0.1; fill:none" points="1813.05,1486.45 1813.05,47.2441 "/>
<polyline clip-path="url(#clip232)" style="stroke:#000000; stroke-linecap:round; stroke-linejoin:round; stroke-width:2; stroke-opacity:0.1; fill:none" points="2352.76,1486.45 2352.76,47.2441 "/>
<polyline clip-path="url(#clip232)" style="stroke:#000000; stroke-linecap:round; stroke-linejoin:round; stroke-width:2; stroke-opacity:0.1; fill:none" points="193.936,1486.45 2352.76,1486.45 "/>
<polyline clip-path="url(#clip232)" style="stroke:#000000; stroke-linecap:round; stroke-linejoin:round; stroke-width:2; stroke-opacity:0.1; fill:none" points="193.936,1126.65 2352.76,1126.65 "/>
<polyline clip-path="url(#clip232)" style="stroke:#000000; stroke-linecap:round; stroke-linejoin:round; stroke-width:2; stroke-opacity:0.1; fill:none" points="193.936,766.846 2352.76,766.846 "/>
<polyline clip-path="url(#clip232)" style="stroke:#000000; stroke-linecap:round; stroke-linejoin:round; stroke-width:2; stroke-opacity:0.1; fill:none" points="193.936,407.045 2352.76,407.045 "/>
<polyline clip-path="url(#clip232)" style="stroke:#000000; stroke-linecap:round; stroke-linejoin:round; stroke-width:2; stroke-opacity:0.1; fill:none" points="193.936,47.2441 2352.76,47.2441 "/>
<polyline clip-path="url(#clip230)" style="stroke:#000000; stroke-linecap:round; stroke-linejoin:round; stroke-width:4; stroke-opacity:1; fill:none" points="193.936,1486.45 2352.76,1486.45 "/>
<polyline clip-path="url(#clip230)" style="stroke:#000000; stroke-linecap:round; stroke-linejoin:round; stroke-width:4; stroke-opacity:1; fill:none" points="193.936,1486.45 193.936,1467.55 "/>
<polyline clip-path="url(#clip230)" style="stroke:#000000; stroke-linecap:round; stroke-linejoin:round; stroke-width:4; stroke-opacity:1; fill:none" points="733.641,1486.45 733.641,1467.55 "/>
<polyline clip-path="url(#clip230)" style="stroke:#000000; stroke-linecap:round; stroke-linejoin:round; stroke-width:4; stroke-opacity:1; fill:none" points="1273.35,1486.45 1273.35,1467.55 "/>
<polyline clip-path="url(#clip230)" style="stroke:#000000; stroke-linecap:round; stroke-linejoin:round; stroke-width:4; stroke-opacity:1; fill:none" points="1813.05,1486.45 1813.05,1467.55 "/>
<polyline clip-path="url(#clip230)" style="stroke:#000000; stroke-linecap:round; stroke-linejoin:round; stroke-width:4; stroke-opacity:1; fill:none" points="2352.76,1486.45 2352.76,1467.55 "/>
<path clip-path="url(#clip230)" d="M140.464 1532.02 L170.14 1532.02 L170.14 1535.95 L140.464 1535.95 L140.464 1532.02 Z" fill="#000000" fill-rule="nonzero" fill-opacity="1" /><path clip-path="url(#clip230)" d="M180.279 1514.29 L198.635 1514.29 L198.635 1518.22 L184.561 1518.22 L184.561 1526.7 Q185.58 1526.35 186.598 1526.19 Q187.617 1526 188.635 1526 Q194.422 1526 197.802 1529.17 Q201.181 1532.34 201.181 1537.76 Q201.181 1543.34 197.709 1546.44 Q194.237 1549.52 187.918 1549.52 Q185.742 1549.52 183.473 1549.15 Q181.228 1548.78 178.82 1548.04 L178.82 1543.34 Q180.904 1544.47 183.126 1545.03 Q185.348 1545.58 187.825 1545.58 Q191.83 1545.58 194.167 1543.48 Q196.505 1541.37 196.505 1537.76 Q196.505 1534.15 194.167 1532.04 Q191.83 1529.94 187.825 1529.94 Q185.95 1529.94 184.075 1530.35 Q182.223 1530.77 180.279 1531.65 L180.279 1514.29 Z" fill="#000000" fill-rule="nonzero" fill-opacity="1" /><path clip-path="url(#clip230)" d="M210.394 1542.97 L215.278 1542.97 L215.278 1548.85 L210.394 1548.85 L210.394 1542.97 Z" fill="#000000" fill-rule="nonzero" fill-opacity="1" /><path clip-path="url(#clip230)" d="M235.464 1517.37 Q231.852 1517.37 230.024 1520.93 Q228.218 1524.47 228.218 1531.6 Q228.218 1538.71 230.024 1542.27 Q231.852 1545.82 235.464 1545.82 Q239.098 1545.82 240.903 1542.27 Q242.732 1538.71 242.732 1531.6 Q242.732 1524.47 240.903 1520.93 Q239.098 1517.37 235.464 1517.37 M235.464 1513.66 Q241.274 1513.66 244.329 1518.27 Q247.408 1522.85 247.408 1531.6 Q247.408 1540.33 244.329 1544.94 Q241.274 1549.52 235.464 1549.52 Q229.653 1549.52 226.575 1544.94 Q223.519 1540.33 223.519 1531.6 Q223.519 1522.85 226.575 1518.27 Q229.653 1513.66 235.464 1513.66 Z" fill="#000000" fill-rule="nonzero" fill-opacity="1" /><path clip-path="url(#clip230)" d="M680.667 1532.02 L710.342 1532.02 L710.342 1535.95 L680.667 1535.95 L680.667 1532.02 Z" fill="#000000" fill-rule="nonzero" fill-opacity="1" /><path clip-path="url(#clip230)" d="M724.463 1544.91 L740.782 1544.91 L740.782 1548.85 L718.838 1548.85 L718.838 1544.91 Q721.5 1542.16 726.083 1537.53 Q730.69 1532.88 731.87 1531.53 Q734.116 1529.01 734.995 1527.27 Q735.898 1525.51 735.898 1523.82 Q735.898 1521.07 733.953 1519.33 Q732.032 1517.6 728.93 1517.6 Q726.731 1517.6 724.278 1518.36 Q721.847 1519.13 719.069 1520.68 L719.069 1515.95 Q721.893 1514.82 724.347 1514.24 Q726.801 1513.66 728.838 1513.66 Q734.208 1513.66 737.403 1516.35 Q740.597 1519.03 740.597 1523.52 Q740.597 1525.65 739.787 1527.57 Q739 1529.47 736.893 1532.07 Q736.315 1532.74 733.213 1535.95 Q730.111 1539.15 724.463 1544.91 Z" fill="#000000" fill-rule="nonzero" fill-opacity="1" /><path clip-path="url(#clip230)" d="M750.597 1542.97 L755.481 1542.97 L755.481 1548.85 L750.597 1548.85 L750.597 1542.97 Z" fill="#000000" fill-rule="nonzero" fill-opacity="1" /><path clip-path="url(#clip230)" d="M765.713 1514.29 L784.069 1514.29 L784.069 1518.22 L769.995 1518.22 L769.995 1526.7 Q771.013 1526.35 772.032 1526.19 Q773.05 1526 774.069 1526 Q779.856 1526 783.236 1529.17 Q786.615 1532.34 786.615 1537.76 Q786.615 1543.34 783.143 1546.44 Q779.671 1549.52 773.351 1549.52 Q771.175 1549.52 768.907 1549.15 Q766.662 1548.78 764.254 1548.04 L764.254 1543.34 Q766.338 1544.47 768.56 1545.03 Q770.782 1545.58 773.259 1545.58 Q777.263 1545.58 779.601 1543.48 Q781.939 1541.37 781.939 1537.76 Q781.939 1534.15 779.601 1532.04 Q777.263 1529.94 773.259 1529.94 Q771.384 1529.94 769.509 1530.35 Q767.657 1530.77 765.713 1531.65 L765.713 1514.29 Z" fill="#000000" fill-rule="nonzero" fill-opacity="1" /><path clip-path="url(#clip230)" d="M1250.73 1517.37 Q1247.12 1517.37 1245.29 1520.93 Q1243.49 1524.47 1243.49 1531.6 Q1243.49 1538.71 1245.29 1542.27 Q1247.12 1545.82 1250.73 1545.82 Q1254.36 1545.82 1256.17 1542.27 Q1258 1538.71 1258 1531.6 Q1258 1524.47 1256.17 1520.93 Q1254.36 1517.37 1250.73 1517.37 M1250.73 1513.66 Q1256.54 1513.66 1259.6 1518.27 Q1262.67 1522.85 1262.67 1531.6 Q1262.67 1540.33 1259.6 1544.94 Q1256.54 1549.52 1250.73 1549.52 Q1244.92 1549.52 1241.84 1544.94 Q1238.79 1540.33 1238.79 1531.6 Q1238.79 1522.85 1241.84 1518.27 Q1244.92 1513.66 1250.73 1513.66 Z" fill="#000000" fill-rule="nonzero" fill-opacity="1" /><path clip-path="url(#clip230)" d="M1270.89 1542.97 L1275.78 1542.97 L1275.78 1548.85 L1270.89 1548.85 L1270.89 1542.97 Z" fill="#000000" fill-rule="nonzero" fill-opacity="1" /><path clip-path="url(#clip230)" d="M1295.96 1517.37 Q1292.35 1517.37 1290.52 1520.93 Q1288.72 1524.47 1288.72 1531.6 Q1288.72 1538.71 1290.52 1542.27 Q1292.35 1545.82 1295.96 1545.82 Q1299.6 1545.82 1301.4 1542.27 Q1303.23 1538.71 1303.23 1531.6 Q1303.23 1524.47 1301.4 1520.93 Q1299.6 1517.37 1295.96 1517.37 M1295.96 1513.66 Q1301.77 1513.66 1304.83 1518.27 Q1307.91 1522.85 1307.91 1531.6 Q1307.91 1540.33 1304.83 1544.94 Q1301.77 1549.52 1295.96 1549.52 Q1290.15 1549.52 1287.07 1544.94 Q1284.02 1540.33 1284.02 1531.6 Q1284.02 1522.85 1287.07 1518.27 Q1290.15 1513.66 1295.96 1513.66 Z" fill="#000000" fill-rule="nonzero" fill-opacity="1" /><path clip-path="url(#clip230)" d="M1784.79 1544.91 L1801.11 1544.91 L1801.11 1548.85 L1779.16 1548.85 L1779.16 1544.91 Q1781.82 1542.16 1786.41 1537.53 Q1791.01 1532.88 1792.19 1531.53 Q1794.44 1529.01 1795.32 1527.27 Q1796.22 1525.51 1796.22 1523.82 Q1796.22 1521.07 1794.28 1519.33 Q1792.36 1517.6 1789.25 1517.6 Q1787.06 1517.6 1784.6 1518.36 Q1782.17 1519.13 1779.39 1520.68 L1779.39 1515.95 Q1782.22 1514.82 1784.67 1514.24 Q1787.13 1513.66 1789.16 1513.66 Q1794.53 1513.66 1797.73 1516.35 Q1800.92 1519.03 1800.92 1523.52 Q1800.92 1525.65 1800.11 1527.57 Q1799.32 1529.47 1797.22 1532.07 Q1796.64 1532.74 1793.54 1535.95 Q1790.44 1539.15 1784.79 1544.91 Z" fill="#000000" fill-rule="nonzero" fill-opacity="1" /><path clip-path="url(#clip230)" d="M1810.92 1542.97 L1815.81 1542.97 L1815.81 1548.85 L1810.92 1548.85 L1810.92 1542.97 Z" fill="#000000" fill-rule="nonzero" fill-opacity="1" /><path clip-path="url(#clip230)" d="M1826.04 1514.29 L1844.39 1514.29 L1844.39 1518.22 L1830.32 1518.22 L1830.32 1526.7 Q1831.34 1526.35 1832.36 1526.19 Q1833.37 1526 1834.39 1526 Q1840.18 1526 1843.56 1529.17 Q1846.94 1532.34 1846.94 1537.76 Q1846.94 1543.34 1843.47 1546.44 Q1840 1549.52 1833.68 1549.52 Q1831.5 1549.52 1829.23 1549.15 Q1826.99 1548.78 1824.58 1548.04 L1824.58 1543.34 Q1826.66 1544.47 1828.88 1545.03 Q1831.11 1545.58 1833.58 1545.58 Q1837.59 1545.58 1839.93 1543.48 Q1842.26 1541.37 1842.26 1537.76 Q1842.26 1534.15 1839.93 1532.04 Q1837.59 1529.94 1833.58 1529.94 Q1831.71 1529.94 1829.83 1530.35 Q1827.98 1530.77 1826.04 1531.65 L1826.04 1514.29 Z" fill="#000000" fill-rule="nonzero" fill-opacity="1" /><path clip-path="url(#clip230)" d="M2319.92 1514.29 L2338.28 1514.29 L2338.28 1518.22 L2324.2 1518.22 L2324.2 1526.7 Q2325.22 1526.35 2326.24 1526.19 Q2327.26 1526 2328.28 1526 Q2334.06 1526 2337.44 1529.17 Q2340.82 1532.34 2340.82 1537.76 Q2340.82 1543.34 2337.35 1546.44 Q2333.88 1549.52 2327.56 1549.52 Q2325.38 1549.52 2323.11 1549.15 Q2320.87 1548.78 2318.46 1548.04 L2318.46 1543.34 Q2320.55 1544.47 2322.77 1545.03 Q2324.99 1545.58 2327.47 1545.58 Q2331.47 1545.58 2333.81 1543.48 Q2336.15 1541.37 2336.15 1537.76 Q2336.15 1534.15 2333.81 1532.04 Q2331.47 1529.94 2327.47 1529.94 Q2325.59 1529.94 2323.72 1530.35 Q2321.86 1530.77 2319.92 1531.65 L2319.92 1514.29 Z" fill="#000000" fill-rule="nonzero" fill-opacity="1" /><path clip-path="url(#clip230)" d="M2350.04 1542.97 L2354.92 1542.97 L2354.92 1548.85 L2350.04 1548.85 L2350.04 1542.97 Z" fill="#000000" fill-rule="nonzero" fill-opacity="1" /><path clip-path="url(#clip230)" d="M2375.11 1517.37 Q2371.49 1517.37 2369.67 1520.93 Q2367.86 1524.47 2367.86 1531.6 Q2367.86 1538.71 2369.67 1542.27 Q2371.49 1545.82 2375.11 1545.82 Q2378.74 1545.82 2380.55 1542.27 Q2382.37 1538.71 2382.37 1531.6 Q2382.37 1524.47 2380.55 1520.93 Q2378.74 1517.37 2375.11 1517.37 M2375.11 1513.66 Q2380.92 1513.66 2383.97 1518.27 Q2387.05 1522.85 2387.05 1531.6 Q2387.05 1540.33 2383.97 1544.94 Q2380.92 1549.52 2375.11 1549.52 Q2369.3 1549.52 2366.22 1544.94 Q2363.16 1540.33 2363.16 1531.6 Q2363.16 1522.85 2366.22 1518.27 Q2369.3 1513.66 2375.11 1513.66 Z" fill="#000000" fill-rule="nonzero" fill-opacity="1" /><polyline clip-path="url(#clip230)" style="stroke:#000000; stroke-linecap:round; stroke-linejoin:round; stroke-width:4; stroke-opacity:1; fill:none" points="193.936,1486.45 193.936,47.2441 "/>
<polyline clip-path="url(#clip230)" style="stroke:#000000; stroke-linecap:round; stroke-linejoin:round; stroke-width:4; stroke-opacity:1; fill:none" points="193.936,1486.45 212.834,1486.45 "/>
<polyline clip-path="url(#clip230)" style="stroke:#000000; stroke-linecap:round; stroke-linejoin:round; stroke-width:4; stroke-opacity:1; fill:none" points="193.936,1126.65 212.834,1126.65 "/>
<polyline clip-path="url(#clip230)" style="stroke:#000000; stroke-linecap:round; stroke-linejoin:round; stroke-width:4; stroke-opacity:1; fill:none" points="193.936,766.846 212.834,766.846 "/>
<polyline clip-path="url(#clip230)" style="stroke:#000000; stroke-linecap:round; stroke-linejoin:round; stroke-width:4; stroke-opacity:1; fill:none" points="193.936,407.045 212.834,407.045 "/>
<polyline clip-path="url(#clip230)" style="stroke:#000000; stroke-linecap:round; stroke-linejoin:round; stroke-width:4; stroke-opacity:1; fill:none" points="193.936,47.2441 212.834,47.2441 "/>
<path clip-path="url(#clip230)" d="M50.9921 1486.9 L80.6679 1486.9 L80.6679 1490.83 L50.9921 1490.83 L50.9921 1486.9 Z" fill="#000000" fill-rule="nonzero" fill-opacity="1" /><path clip-path="url(#clip230)" d="M90.8067 1469.17 L109.163 1469.17 L109.163 1473.1 L95.0891 1473.1 L95.0891 1481.58 Q96.1076 1481.23 97.1261 1481.07 Q98.1447 1480.88 99.1632 1480.88 Q104.95 1480.88 108.33 1484.05 Q111.709 1487.22 111.709 1492.64 Q111.709 1498.22 108.237 1501.32 Q104.765 1504.4 98.4456 1504.4 Q96.2697 1504.4 94.0012 1504.03 Q91.7558 1503.66 89.3484 1502.92 L89.3484 1498.22 Q91.4317 1499.35 93.6539 1499.91 Q95.8761 1500.46 98.353 1500.46 Q102.358 1500.46 104.696 1498.36 Q107.033 1496.25 107.033 1492.64 Q107.033 1489.03 104.696 1486.92 Q102.358 1484.82 98.353 1484.82 Q96.478 1484.82 94.603 1485.23 Q92.7512 1485.65 90.8067 1486.53 L90.8067 1469.17 Z" fill="#000000" fill-rule="nonzero" fill-opacity="1" /><path clip-path="url(#clip230)" d="M120.922 1497.85 L125.807 1497.85 L125.807 1503.73 L120.922 1503.73 L120.922 1497.85 Z" fill="#000000" fill-rule="nonzero" fill-opacity="1" /><path clip-path="url(#clip230)" d="M145.992 1472.25 Q142.381 1472.25 140.552 1475.81 Q138.746 1479.35 138.746 1486.48 Q138.746 1493.59 140.552 1497.15 Q142.381 1500.7 145.992 1500.7 Q149.626 1500.7 151.431 1497.15 Q153.26 1493.59 153.26 1486.48 Q153.26 1479.35 151.431 1475.81 Q149.626 1472.25 145.992 1472.25 M145.992 1468.54 Q151.802 1468.54 154.857 1473.15 Q157.936 1477.73 157.936 1486.48 Q157.936 1495.21 154.857 1499.82 Q151.802 1504.4 145.992 1504.4 Q140.181 1504.4 137.103 1499.82 Q134.047 1495.21 134.047 1486.48 Q134.047 1477.73 137.103 1473.15 Q140.181 1468.54 145.992 1468.54 Z" fill="#000000" fill-rule="nonzero" fill-opacity="1" /><path clip-path="url(#clip230)" d="M51.9875 1127.1 L81.6633 1127.1 L81.6633 1131.03 L51.9875 1131.03 L51.9875 1127.1 Z" fill="#000000" fill-rule="nonzero" fill-opacity="1" /><path clip-path="url(#clip230)" d="M95.7836 1139.99 L112.103 1139.99 L112.103 1143.93 L90.1586 1143.93 L90.1586 1139.99 Q92.8206 1137.24 97.4039 1132.61 Q102.01 1127.95 103.191 1126.61 Q105.436 1124.09 106.316 1122.35 Q107.219 1120.59 107.219 1118.9 Q107.219 1116.15 105.274 1114.41 Q103.353 1112.68 100.251 1112.68 Q98.0521 1112.68 95.5984 1113.44 Q93.1678 1114.2 90.3901 1115.76 L90.3901 1111.03 Q93.2141 1109.9 95.6678 1109.32 Q98.1215 1108.74 100.159 1108.74 Q105.529 1108.74 108.723 1111.43 Q111.918 1114.11 111.918 1118.6 Q111.918 1120.73 111.108 1122.65 Q110.321 1124.55 108.214 1127.14 Q107.635 1127.82 104.534 1131.03 Q101.432 1134.23 95.7836 1139.99 Z" fill="#000000" fill-rule="nonzero" fill-opacity="1" /><path clip-path="url(#clip230)" d="M121.918 1138.05 L126.802 1138.05 L126.802 1143.93 L121.918 1143.93 L121.918 1138.05 Z" fill="#000000" fill-rule="nonzero" fill-opacity="1" /><path clip-path="url(#clip230)" d="M137.033 1109.37 L155.39 1109.37 L155.39 1113.3 L141.316 1113.3 L141.316 1121.77 Q142.334 1121.43 143.353 1121.27 Q144.371 1121.08 145.39 1121.08 Q151.177 1121.08 154.556 1124.25 Q157.936 1127.42 157.936 1132.84 Q157.936 1138.42 154.464 1141.52 Q150.992 1144.6 144.672 1144.6 Q142.496 1144.6 140.228 1144.23 Q137.982 1143.86 135.575 1143.12 L135.575 1138.42 Q137.658 1139.55 139.881 1140.11 Q142.103 1140.66 144.58 1140.66 Q148.584 1140.66 150.922 1138.56 Q153.26 1136.45 153.26 1132.84 Q153.26 1129.23 150.922 1127.12 Q148.584 1125.01 144.58 1125.01 Q142.705 1125.01 140.83 1125.43 Q138.978 1125.85 137.033 1126.73 L137.033 1109.37 Z" fill="#000000" fill-rule="nonzero" fill-opacity="1" /><path clip-path="url(#clip230)" d="M100.76 752.645 Q97.1493 752.645 95.3206 756.209 Q93.515 759.751 93.515 766.881 Q93.515 773.987 95.3206 777.552 Q97.1493 781.094 100.76 781.094 Q104.395 781.094 106.2 777.552 Q108.029 773.987 108.029 766.881 Q108.029 759.751 106.2 756.209 Q104.395 752.645 100.76 752.645 M100.76 748.941 Q106.571 748.941 109.626 753.547 Q112.705 758.131 112.705 766.881 Q112.705 775.608 109.626 780.214 Q106.571 784.797 100.76 784.797 Q94.9502 784.797 91.8715 780.214 Q88.816 775.608 88.816 766.881 Q88.816 758.131 91.8715 753.547 Q94.9502 748.941 100.76 748.941 Z" fill="#000000" fill-rule="nonzero" fill-opacity="1" /><path clip-path="url(#clip230)" d="M120.922 778.246 L125.807 778.246 L125.807 784.126 L120.922 784.126 L120.922 778.246 Z" fill="#000000" fill-rule="nonzero" fill-opacity="1" /><path clip-path="url(#clip230)" d="M145.992 752.645 Q142.381 752.645 140.552 756.209 Q138.746 759.751 138.746 766.881 Q138.746 773.987 140.552 777.552 Q142.381 781.094 145.992 781.094 Q149.626 781.094 151.431 777.552 Q153.26 773.987 153.26 766.881 Q153.26 759.751 151.431 756.209 Q149.626 752.645 145.992 752.645 M145.992 748.941 Q151.802 748.941 154.857 753.547 Q157.936 758.131 157.936 766.881 Q157.936 775.608 154.857 780.214 Q151.802 784.797 145.992 784.797 Q140.181 784.797 137.103 780.214 Q134.047 775.608 134.047 766.881 Q134.047 758.131 137.103 753.547 Q140.181 748.941 145.992 748.941 Z" fill="#000000" fill-rule="nonzero" fill-opacity="1" /><path clip-path="url(#clip230)" d="M95.7836 420.39 L112.103 420.39 L112.103 424.325 L90.1586 424.325 L90.1586 420.39 Q92.8206 417.635 97.4039 413.006 Q102.01 408.353 103.191 407.01 Q105.436 404.487 106.316 402.751 Q107.219 400.992 107.219 399.302 Q107.219 396.547 105.274 394.811 Q103.353 393.075 100.251 393.075 Q98.0521 393.075 95.5984 393.839 Q93.1678 394.603 90.3901 396.154 L90.3901 391.432 Q93.2141 390.297 95.6678 389.719 Q98.1215 389.14 100.159 389.14 Q105.529 389.14 108.723 391.825 Q111.918 394.51 111.918 399.001 Q111.918 401.131 111.108 403.052 Q110.321 404.95 108.214 407.543 Q107.635 408.214 104.534 411.432 Q101.432 414.626 95.7836 420.39 Z" fill="#000000" fill-rule="nonzero" fill-opacity="1" /><path clip-path="url(#clip230)" d="M121.918 418.445 L126.802 418.445 L126.802 424.325 L121.918 424.325 L121.918 418.445 Z" fill="#000000" fill-rule="nonzero" fill-opacity="1" /><path clip-path="url(#clip230)" d="M137.033 389.765 L155.39 389.765 L155.39 393.7 L141.316 393.7 L141.316 402.172 Q142.334 401.825 143.353 401.663 Q144.371 401.478 145.39 401.478 Q151.177 401.478 154.556 404.649 Q157.936 407.82 157.936 413.237 Q157.936 418.816 154.464 421.918 Q150.992 424.996 144.672 424.996 Q142.496 424.996 140.228 424.626 Q137.982 424.256 135.575 423.515 L135.575 418.816 Q137.658 419.95 139.881 420.506 Q142.103 421.061 144.58 421.061 Q148.584 421.061 150.922 418.955 Q153.26 416.848 153.26 413.237 Q153.26 409.626 150.922 407.52 Q148.584 405.413 144.58 405.413 Q142.705 405.413 140.83 405.83 Q138.978 406.246 137.033 407.126 L137.033 389.765 Z" fill="#000000" fill-rule="nonzero" fill-opacity="1" /><path clip-path="url(#clip230)" d="M90.8067 29.9641 L109.163 29.9641 L109.163 33.8993 L95.0891 33.8993 L95.0891 42.3714 Q96.1076 42.0242 97.1261 41.8622 Q98.1447 41.677 99.1632 41.677 Q104.95 41.677 108.33 44.8483 Q111.709 48.0196 111.709 53.4362 Q111.709 59.0149 108.237 62.1167 Q104.765 65.1954 98.4456 65.1954 Q96.2697 65.1954 94.0012 64.825 Q91.7558 64.4547 89.3484 63.7139 L89.3484 59.0149 Q91.4317 60.1491 93.6539 60.7047 Q95.8761 61.2602 98.353 61.2602 Q102.358 61.2602 104.696 59.1538 Q107.033 57.0473 107.033 53.4362 Q107.033 49.8251 104.696 47.7186 Q102.358 45.6122 98.353 45.6122 Q96.478 45.6122 94.603 46.0288 Q92.7512 46.4455 90.8067 47.3251 L90.8067 29.9641 Z" fill="#000000" fill-rule="nonzero" fill-opacity="1" /><path clip-path="url(#clip230)" d="M120.922 58.6445 L125.807 58.6445 L125.807 64.5241 L120.922 64.5241 L120.922 58.6445 Z" fill="#000000" fill-rule="nonzero" fill-opacity="1" /><path clip-path="url(#clip230)" d="M145.992 33.0428 Q142.381 33.0428 140.552 36.6076 Q138.746 40.1492 138.746 47.2788 Q138.746 54.3853 140.552 57.9501 Q142.381 61.4917 145.992 61.4917 Q149.626 61.4917 151.431 57.9501 Q153.26 54.3853 153.26 47.2788 Q153.26 40.1492 151.431 36.6076 Q149.626 33.0428 145.992 33.0428 M145.992 29.3391 Q151.802 29.3391 154.857 33.9456 Q157.936 38.5289 157.936 47.2788 Q157.936 56.0056 154.857 60.6121 Q151.802 65.1954 145.992 65.1954 Q140.181 65.1954 137.103 60.6121 Q134.047 56.0056 134.047 47.2788 Q134.047 38.5289 137.103 33.9456 Q140.181 29.3391 145.992 29.3391 Z" fill="#000000" fill-rule="nonzero" fill-opacity="1" /><polyline clip-path="url(#clip232)" style="stroke:#000000; stroke-linecap:round; stroke-linejoin:round; stroke-width:4; stroke-opacity:0.5; fill:none" points="193.936,-18.0651 196.097,-16.816 198.258,-15.5669 200.419,-14.3178 202.58,-13.0686 204.741,-11.8195 206.902,-10.5704 209.063,-9.3213 211.224,-8.07219 213.385,-6.82308 215.546,-5.57397 217.707,-4.32486 219.868,-3.07574 222.029,-1.82663 224.19,-0.577518 226.351,0.671594 228.512,1.92071 230.673,3.16982 232.834,4.41893 234.995,5.66804 237.156,6.91716 239.317,8.16627 241.478,9.41538 243.639,10.6645 245.8,11.9136 247.961,13.1627 250.122,14.4118 252.282,15.6609 254.443,16.9101 256.604,18.1592 258.765,19.4083 260.926,20.6574 263.087,21.9065 265.248,23.1556 267.409,24.4047 269.57,25.6538 271.731,26.903 273.892,28.1521 276.053,29.4012 278.214,30.6503 280.375,31.8994 282.536,33.1485 284.697,34.3976 286.858,35.6467 289.019,36.8959 291.18,38.145 293.341,39.3941 295.502,40.6432 297.663,41.8923 299.824,43.1414 301.985,44.3905 304.146,45.6396 306.307,46.8888 308.468,48.1379 310.629,49.387 312.79,50.6361 314.951,51.8852 317.112,53.1343 319.273,54.3834 321.434,55.6325 323.595,56.8817 325.756,58.1308 327.917,59.3799 330.078,60.629 332.239,61.8781 334.4,63.1272 336.561,64.3763 338.722,65.6254 340.883,66.8746 343.044,68.1237 345.205,69.3728 347.366,70.6219 349.527,71.871 351.688,73.1201 353.849,74.3692 356.01,75.6183 358.171,76.8675 360.332,78.1166 362.493,79.3657 364.653,80.6148 366.814,81.8639 368.975,83.113 371.136,84.3621 373.297,85.6112 375.458,86.8604 377.619,88.1095 379.78,89.3586 381.941,90.6077 384.102,91.8568 386.263,93.1059 388.424,94.355 390.585,95.6041 392.746,96.8532 394.907,98.1024 397.068,99.3515 399.229,100.601 401.39,101.85 403.551,103.099 405.712,104.348 407.873,105.597 410.034,106.846 412.195,108.095 414.356,109.344 416.517,110.593 418.678,111.843 420.839,113.092 423,114.341 425.161,115.59 427.322,116.839 429.483,118.088 431.644,119.337 433.805,120.586 435.966,121.835 438.127,123.085 440.288,124.334 442.449,125.583 444.61,126.832 446.771,128.081 448.932,129.33 451.093,130.579 453.254,131.828 455.415,133.078 457.576,134.327 459.737,135.576 461.898,136.825 464.059,138.074 466.22,139.323 468.381,140.572 470.542,141.821 472.703,143.07 474.864,144.32 477.024,145.569 479.185,146.818 481.346,148.067 483.507,149.316 485.668,150.565 487.829,151.814 489.99,153.063 492.151,154.312 494.312,155.562 496.473,156.811 498.634,158.06 500.795,159.309 502.956,160.558 505.117,161.807 507.278,163.056 509.439,164.305 511.6,165.554 513.761,166.804 515.922,168.053 518.083,169.302 520.244,170.551 522.405,171.8 524.566,173.049 526.727,174.298 528.888,175.547 531.049,176.796 533.21,178.046 535.371,179.295 537.532,180.544 539.693,181.793 541.854,183.042 544.015,184.291 546.176,185.54 548.337,186.789 550.498,188.038 552.659,189.288 554.82,190.537 556.981,191.786 559.142,193.035 561.303,194.284 563.464,195.533 565.625,196.782 567.786,198.031 569.947,199.28 572.108,200.53 574.269,201.779 576.43,203.028 578.591,204.277 580.752,205.526 582.913,206.775 585.074,208.024 587.235,209.273 589.396,210.522 591.556,211.772 593.717,213.021 595.878,214.27 598.039,215.519 600.2,216.768 602.361,218.017 604.522,219.266 606.683,220.515 608.844,221.764 611.005,223.014 613.166,224.263 615.327,225.512 617.488,226.761 619.649,228.01 621.81,229.259 623.971,230.508 626.132,231.757 628.293,233.007 630.454,234.256 632.615,235.505 634.776,236.754 636.937,238.003 639.098,239.252 641.259,240.501 643.42,241.75 645.581,242.999 647.742,244.249 649.903,245.498 652.064,246.747 654.225,247.996 656.386,249.245 658.547,250.494 660.708,251.743 662.869,252.992 665.03,254.241 667.191,255.491 669.352,256.74 671.513,257.989 673.674,259.238 675.835,260.487 677.996,261.736 680.157,262.985 682.318,264.234 684.479,265.483 686.64,266.733 688.801,267.982 690.962,269.231 693.123,270.48 695.284,271.729 697.445,272.978 699.606,274.227 701.767,275.476 703.927,276.725 706.088,277.975 708.249,279.224 710.41,280.473 712.571,281.722 714.732,282.971 716.893,284.22 719.054,285.469 721.215,286.718 723.376,287.967 725.537,289.217 727.698,290.466 729.859,291.715 732.02,292.964 734.181,294.213 736.342,295.462 738.503,296.711 740.664,297.96 742.825,299.209 744.986,300.459 747.147,301.708 749.308,302.957 751.469,304.206 753.63,305.455 755.791,306.704 757.952,307.953 760.113,309.202 762.274,310.451 764.435,311.701 766.596,312.95 768.757,314.199 770.918,315.448 773.079,316.697 775.24,317.946 777.401,319.195 779.562,320.444 781.723,321.693 783.884,322.943 786.045,324.192 788.206,325.441 790.367,326.69 792.528,327.939 794.689,329.188 796.85,330.437 799.011,331.686 801.172,332.935 803.333,334.185 805.494,335.434 807.655,336.683 809.816,337.932 811.977,339.181 814.138,340.43 816.298,341.679 818.459,342.928 820.62,344.178 822.781,345.427 824.942,346.676 827.103,347.925 829.264,349.174 831.425,350.423 833.586,351.672 835.747,352.921 837.908,354.17 840.069,355.42 842.23,356.669 844.391,357.918 846.552,359.167 848.713,360.416 850.874,361.665 853.035,362.914 855.196,364.163 857.357,365.412 859.518,366.662 861.679,367.911 863.84,369.16 866.001,370.409 868.162,371.658 870.323,372.907 872.484,374.156 874.645,375.405 876.806,376.654 878.967,377.904 881.128,379.153 883.289,380.402 885.45,381.651 887.611,382.9 889.772,384.149 891.933,385.398 894.094,386.647 896.255,387.896 898.416,389.146 900.577,390.395 902.738,391.644 904.899,392.893 907.06,394.142 909.221,395.391 911.382,396.64 913.543,397.889 915.704,399.138 917.865,400.388 920.026,401.637 922.187,402.886 924.348,404.135 926.509,405.384 928.669,406.633 930.83,407.882 932.991,409.131 935.152,410.38 937.313,411.63 939.474,412.879 941.635,414.128 943.796,415.377 945.957,416.626 948.118,417.875 950.279,419.124 952.44,420.373 954.601,421.622 956.762,422.872 958.923,424.121 961.084,425.37 963.245,426.619 965.406,427.868 967.567,429.117 969.728,430.366 971.889,431.615 974.05,432.864 976.211,434.114 978.372,435.363 980.533,436.612 982.694,437.861 984.855,439.11 987.016,440.359 989.177,441.608 991.338,442.857 993.499,444.107 995.66,445.356 997.821,446.605 999.982,447.854 1002.14,449.103 1004.3,450.352 1006.46,451.601 1008.63,452.85 1010.79,454.099 1012.95,455.349 1015.11,456.598 1017.27,457.847 1019.43,459.096 1021.59,460.345 1023.75,461.594 1025.91,462.843 1028.07,464.092 1030.24,465.341 1032.4,466.591 1034.56,467.84 1036.72,469.089 1038.88,470.338 1041.04,471.587 1043.2,472.836 1045.36,474.085 1047.52,475.334 1049.68,476.583 1051.85,477.833 1054.01,479.082 1056.17,480.331 1058.33,481.58 1060.49,482.829 1062.65,484.078 1064.81,485.327 1066.97,486.576 1069.13,487.825 1071.29,489.075 1073.46,490.324 1075.62,491.573 1077.78,492.822 1079.94,494.071 1082.1,495.32 1084.26,496.569 1086.42,497.818 1088.58,499.067 1090.74,500.317 1092.9,501.566 1095.07,502.815 1097.23,504.064 1099.39,505.313 1101.55,506.562 1103.71,507.811 1105.87,509.06 1108.03,510.309 1110.19,511.559 1112.35,512.808 1114.51,514.057 1116.67,515.306 1118.84,516.555 1121,517.804 1123.16,519.053 1125.32,520.302 1127.48,521.551 1129.64,522.801 1131.8,524.05 1133.96,525.299 1136.12,526.548 1138.28,527.797 1140.45,529.046 1142.61,530.295 1144.77,531.544 1146.93,532.793 1149.09,534.043 1151.25,535.292 1153.41,536.541 1155.57,537.79 1157.73,539.039 1159.89,540.288 1162.06,541.537 1164.22,542.786 1166.38,544.035 1168.54,545.285 1170.7,546.534 1172.86,547.783 1175.02,549.032 1177.18,550.281 1179.34,551.53 1181.5,552.779 1183.67,554.028 1185.83,555.278 1187.99,556.527 1190.15,557.776 1192.31,559.025 1194.47,560.274 1196.63,561.523 1198.79,562.772 1200.95,564.021 1203.11,565.27 1205.28,566.52 1207.44,567.769 1209.6,569.018 1211.76,570.267 1213.92,571.516 1216.08,572.765 1218.24,574.014 1220.4,575.263 1222.56,576.512 1224.72,577.762 1226.88,579.011 1229.05,580.26 1231.21,581.509 1233.37,582.758 1235.53,584.007 1237.69,585.256 1239.85,586.505 1242.01,587.754 1244.17,589.004 1246.33,590.253 1248.49,591.502 1250.66,592.751 1252.82,594 1254.98,595.249 1257.14,596.498 1259.3,597.747 1261.46,598.996 1263.62,600.246 1265.78,601.495 1267.94,602.744 1270.1,603.993 1272.27,605.242 1274.43,606.491 1276.59,607.74 1278.75,608.989 1280.91,610.238 1283.07,611.488 1285.23,612.737 1287.39,613.986 1289.55,615.235 1291.71,616.484 1293.88,617.733 1296.04,618.982 1298.2,620.231 1300.36,621.48 1302.52,622.73 1304.68,623.979 1306.84,625.228 1309,626.477 1311.16,627.726 1313.32,628.975 1315.49,630.224 1317.65,631.473 1319.81,632.722 1321.97,633.972 1324.13,635.221 1326.29,636.47 1328.45,637.719 1330.61,638.968 1332.77,640.217 1334.93,641.466 1337.09,642.715 1339.26,643.964 1341.42,645.214 1343.58,646.463 1345.74,647.712 1347.9,648.961 1350.06,650.21 1352.22,651.459 1354.38,652.708 1356.54,653.957 1358.7,655.206 1360.87,656.456 1363.03,657.705 1365.19,658.954 1367.35,660.203 1369.51,661.452 1371.67,662.701 1373.83,663.95 1375.99,665.199 1378.15,666.449 1380.31,667.698 1382.48,668.947 1384.64,670.196 1386.8,671.445 1388.96,672.694 1391.12,673.943 1393.28,675.192 1395.44,676.441 1397.6,677.691 1399.76,678.94 1401.92,680.189 1404.09,681.438 1406.25,682.687 1408.41,683.936 1410.57,685.185 1412.73,686.434 1414.89,687.683 1417.05,688.933 1419.21,690.182 1421.37,691.431 1423.53,692.68 1425.7,693.929 1427.86,695.178 1430.02,696.427 1432.18,697.676 1434.34,698.925 1436.5,700.175 1438.66,701.424 1440.82,702.673 1442.98,703.922 1445.14,705.171 1447.3,706.42 1449.47,707.669 1451.63,708.918 1453.79,710.167 1455.95,711.417 1458.11,712.666 1460.27,713.915 1462.43,715.164 1464.59,716.413 1466.75,717.662 1468.91,718.911 1471.08,720.16 1473.24,721.409 1475.4,722.659 1477.56,723.908 1479.72,725.157 1481.88,726.406 1484.04,727.655 1486.2,728.904 1488.36,730.153 1490.52,731.402 1492.69,732.651 1494.85,733.901 1497.01,735.15 1499.17,736.399 1501.33,737.648 1503.49,738.897 1505.65,740.146 1507.81,741.395 1509.97,742.644 1512.13,743.893 1514.3,745.143 1516.46,746.392 1518.62,747.641 1520.78,748.89 1522.94,750.139 1525.1,751.388 1527.26,752.637 1529.42,753.886 1531.58,755.135 1533.74,756.385 1535.91,757.634 1538.07,758.883 1540.23,760.132 1542.39,761.381 1544.55,762.63 1546.71,763.879 1548.87,765.128 1551.03,766.378 1553.19,767.627 1555.35,768.876 1557.51,770.125 1559.68,771.374 1561.84,772.623 1564,773.872 1566.16,775.121 1568.32,776.37 1570.48,777.62 1572.64,778.869 1574.8,780.118 1576.96,781.367 1579.12,782.616 1581.29,783.865 1583.45,785.114 1585.61,786.363 1587.77,787.612 1589.93,788.862 1592.09,790.111 1594.25,791.36 1596.41,792.609 1598.57,793.858 1600.73,795.107 1602.9,796.356 1605.06,797.605 1607.22,798.854 1609.38,800.104 1611.54,801.353 1613.7,802.602 1615.86,803.851 1618.02,805.1 1620.18,806.349 1622.34,807.598 1624.51,808.847 1626.67,810.096 1628.83,811.346 1630.99,812.595 1633.15,813.844 1635.31,815.093 1637.47,816.342 1639.63,817.591 1641.79,818.84 1643.95,820.089 1646.12,821.338 1648.28,822.588 1650.44,823.837 1652.6,825.086 1654.76,826.335 1656.92,827.584 1659.08,828.833 1661.24,830.082 1663.4,831.331 1665.56,832.58 1667.72,833.83 1669.89,835.079 1672.05,836.328 1674.21,837.577 1676.37,838.826 1678.53,840.075 1680.69,841.324 1682.85,842.573 1685.01,843.822 1687.17,845.072 1689.33,846.321 1691.5,847.57 1693.66,848.819 1695.82,850.068 1697.98,851.317 1700.14,852.566 1702.3,853.815 1704.46,855.064 1706.62,856.314 1708.78,857.563 1710.94,858.812 1713.11,860.061 1715.27,861.31 1717.43,862.559 1719.59,863.808 1721.75,865.057 1723.91,866.306 1726.07,867.556 1728.23,868.805 1730.39,870.054 1732.55,871.303 1734.72,872.552 1736.88,873.801 1739.04,875.05 1741.2,876.299 1743.36,877.549 1745.52,878.798 1747.68,880.047 1749.84,881.296 1752,882.545 1754.16,883.794 1756.33,885.043 1758.49,886.292 1760.65,887.541 1762.81,888.791 1764.97,890.04 1767.13,891.289 1769.29,892.538 1771.45,893.787 1773.61,895.036 1775.77,896.285 1777.93,897.534 1780.1,898.783 1782.26,900.033 1784.42,901.282 1786.58,902.531 1788.74,903.78 1790.9,905.029 1793.06,906.278 1795.22,907.527 1797.38,908.776 1799.54,910.025 1801.71,911.275 1803.87,912.524 1806.03,913.773 1808.19,915.022 1810.35,916.271 1812.51,917.52 1814.67,918.769 1816.83,920.018 1818.99,921.267 1821.15,922.517 1823.32,923.766 1825.48,925.015 1827.64,926.264 1829.8,927.513 1831.96,928.762 1834.12,930.011 1836.28,931.26 1838.44,932.509 1840.6,933.759 1842.76,935.008 1844.93,936.257 1847.09,937.506 1849.25,938.755 1851.41,940.004 1853.57,941.253 1855.73,942.502 1857.89,943.751 1860.05,945.001 1862.21,946.25 1864.37,947.499 1866.54,948.748 1868.7,949.997 1870.86,951.246 1873.02,952.495 1875.18,953.744 1877.34,954.993 1879.5,956.243 1881.66,957.492 1883.82,958.741 1885.98,959.99 1888.15,961.239 1890.31,962.488 1892.47,963.737 1894.63,964.986 1896.79,966.235 1898.95,967.485 1901.11,968.734 1903.27,969.983 1905.43,971.232 1907.59,972.481 1909.75,973.73 1911.92,974.979 1914.08,976.228 1916.24,977.477 1918.4,978.727 1920.56,979.976 1922.72,981.225 1924.88,982.474 1927.04,983.723 1929.2,984.972 1931.36,986.221 1933.53,987.47 1935.69,988.72 1937.85,989.969 1940.01,991.218 1942.17,992.467 1944.33,993.716 1946.49,994.965 1948.65,996.214 1950.81,997.463 1952.97,998.712 1955.14,999.962 1957.3,1001.21 1959.46,1002.46 1961.62,1003.71 1963.78,1004.96 1965.94,1006.21 1968.1,1007.46 1970.26,1008.71 1972.42,1009.95 1974.58,1011.2 1976.75,1012.45 1978.91,1013.7 1981.07,1014.95 1983.23,1016.2 1985.39,1017.45 1987.55,1018.7 1989.71,1019.95 1991.87,1021.2 1994.03,1022.45 1996.19,1023.69 1998.36,1024.94 2000.52,1026.19 2002.68,1027.44 2004.84,1028.69 2007,1029.94 2009.16,1031.19 2011.32,1032.44 2013.48,1033.69 2015.64,1034.94 2017.8,1036.19 2019.96,1037.43 2022.13,1038.68 2024.29,1039.93 2026.45,1041.18 2028.61,1042.43 2030.77,1043.68 2032.93,1044.93 2035.09,1046.18 2037.25,1047.43 2039.41,1048.68 2041.57,1049.93 2043.74,1051.18 2045.9,1052.42 2048.06,1053.67 2050.22,1054.92 2052.38,1056.17 2054.54,1057.42 2056.7,1058.67 2058.86,1059.92 2061.02,1061.17 2063.18,1062.42 2065.35,1063.67 2067.51,1064.92 2069.67,1066.16 2071.83,1067.41 2073.99,1068.66 2076.15,1069.91 2078.31,1071.16 2080.47,1072.41 2082.63,1073.66 2084.79,1074.91 2086.96,1076.16 2089.12,1077.41 2091.28,1078.66 2093.44,1079.9 2095.6,1081.15 2097.76,1082.4 2099.92,1083.65 2102.08,1084.9 2104.24,1086.15 2106.4,1087.4 2108.57,1088.65 2110.73,1089.9 2112.89,1091.15 2115.05,1092.4 2117.21,1093.64 2119.37,1094.89 2121.53,1096.14 2123.69,1097.39 2125.85,1098.64 2128.01,1099.89 2130.17,1101.14 2132.34,1102.39 2134.5,1103.64 2136.66,1104.89 2138.82,1106.14 2140.98,1107.39 2143.14,1108.63 2145.3,1109.88 2147.46,1111.13 2149.62,1112.38 2151.78,1113.63 2153.95,1114.88 2156.11,1116.13 2158.27,1117.38 2160.43,1118.63 2162.59,1119.88 2164.75,1121.13 2166.91,1122.37 2169.07,1123.62 2171.23,1124.87 2173.39,1126.12 2175.56,1127.37 2177.72,1128.62 2179.88,1129.87 2182.04,1131.12 2184.2,1132.37 2186.36,1133.62 2188.52,1134.87 2190.68,1136.11 2192.84,1137.36 2195,1138.61 2197.17,1139.86 2199.33,1141.11 2201.49,1142.36 2203.65,1143.61 2205.81,1144.86 2207.97,1146.11 2210.13,1147.36 2212.29,1148.61 2214.45,1149.86 2216.61,1151.1 2218.78,1152.35 2220.94,1153.6 2223.1,1154.85 2225.26,1156.1 2227.42,1157.35 2229.58,1158.6 2231.74,1159.85 2233.9,1161.1 2236.06,1162.35 2238.22,1163.6 2240.38,1164.84 2242.55,1166.09 2244.71,1167.34 2246.87,1168.59 2249.03,1169.84 2251.19,1171.09 2253.35,1172.34 2255.51,1173.59 2257.67,1174.84 2259.83,1176.09 2261.99,1177.34 2264.16,1178.58 2266.32,1179.83 2268.48,1181.08 2270.64,1182.33 2272.8,1183.58 2274.96,1184.83 2277.12,1186.08 2279.28,1187.33 2281.44,1188.58 2283.6,1189.83 2285.77,1191.08 2287.93,1192.32 2290.09,1193.57 2292.25,1194.82 2294.41,1196.07 2296.57,1197.32 2298.73,1198.57 2300.89,1199.82 2303.05,1201.07 2305.21,1202.32 2307.38,1203.57 2309.54,1204.82 2311.7,1206.07 2313.86,1207.31 2316.02,1208.56 2318.18,1209.81 2320.34,1211.06 2322.5,1212.31 2324.66,1213.56 2326.82,1214.81 2328.99,1216.06 2331.15,1217.31 2333.31,1218.56 2335.47,1219.81 2337.63,1221.05 2339.79,1222.3 2341.95,1223.55 2344.11,1224.8 2346.27,1226.05 2348.43,1227.3 2350.59,1228.55 2352.76,1229.8 "/>
<circle clip-path="url(#clip232)" cx="409.818" cy="106.344" r="14.4" fill="#000000" fill-rule="evenodd" fill-opacity="1" stroke="none"/>
<circle clip-path="url(#clip232)" cx="625.7" cy="239.638" r="14.4" fill="#000000" fill-rule="evenodd" fill-opacity="1" stroke="none"/>
<circle clip-path="url(#clip232)" cx="841.582" cy="359.83" r="14.4" fill="#000000" fill-rule="evenodd" fill-opacity="1" stroke="none"/>
<circle clip-path="url(#clip232)" cx="1057.46" cy="476.813" r="14.4" fill="#000000" fill-rule="evenodd" fill-opacity="1" stroke="none"/>
<circle clip-path="url(#clip232)" cx="1273.35" cy="588.903" r="14.4" fill="#000000" fill-rule="evenodd" fill-opacity="1" stroke="none"/>
<circle clip-path="url(#clip232)" cx="1489.23" cy="743.272" r="14.4" fill="#000000" fill-rule="evenodd" fill-opacity="1" stroke="none"/>
<circle clip-path="url(#clip232)" cx="1705.11" cy="875.529" r="14.4" fill="#000000" fill-rule="evenodd" fill-opacity="1" stroke="none"/>
<circle clip-path="url(#clip232)" cx="1920.99" cy="971.26" r="14.4" fill="#000000" fill-rule="evenodd" fill-opacity="1" stroke="none"/>
<circle clip-path="url(#clip232)" cx="2136.87" cy="1093.13" r="14.4" fill="#000000" fill-rule="evenodd" fill-opacity="1" stroke="none"/>
<circle clip-path="url(#clip232)" cx="2352.76" cy="1262.07" r="14.4" fill="#000000" fill-rule="evenodd" fill-opacity="1" stroke="none"/>
</svg>
