<?xml version="1.0" encoding="utf-8"?>
<svg xmlns="http://www.w3.org/2000/svg" xmlns:xlink="http://www.w3.org/1999/xlink" width="600" height="400" viewBox="0 0 2400 1600">
<defs>
  <clipPath id="clip710">
    <rect x="0" y="0" width="2400" height="1600"/>
  </clipPath>
</defs>
<path clip-path="url(#clip710)" d="M0 1600 L2400 1600 L2400 0 L0 0  Z" fill="#ffffff" fill-rule="evenodd" fill-opacity="1"/>
<defs>
  <clipPath id="clip711">
    <rect x="480" y="0" width="1681" height="1600"/>
  </clipPath>
</defs>
<path clip-path="url(#clip710)" d="M193.936 1486.45 L2352.76 1486.45 L2352.76 47.2441 L193.936 47.2441  Z" fill="#ffffff" fill-rule="evenodd" fill-opacity="1"/>
<defs>
  <clipPath id="clip712">
    <rect x="193" y="47" width="2160" height="1440"/>
  </clipPath>
</defs>
<polyline clip-path="url(#clip712)" style="stroke:#000000; stroke-linecap:round; stroke-linejoin:round; stroke-width:2; stroke-opacity:0.1; fill:none" points="193.936,1486.45 193.936,47.2441 "/>
<polyline clip-path="url(#clip712)" style="stroke:#000000; stroke-linecap:round; stroke-linejoin:round; stroke-width:2; stroke-opacity:0.1; fill:none" points="733.641,1486.45 733.641,47.2441 "/>
<polyline clip-path="url(#clip712)" style="stroke:#000000; stroke-linecap:round; stroke-linejoin:round; stroke-width:2; stroke-opacity:0.1; fill:none" points="1273.35,1486.45 1273.35,47.2441 "/>
<polyline clip-path="url(#clip712)" style="stroke:#000000; stroke-linecap:round; stroke-linejoin:round; stroke-width:2; stroke-opacity:0.1; fill:none" points="1813.05,1486.45 1813.05,47.2441 "/>
<polyline clip-path="url(#clip712)" style="stroke:#000000; stroke-linecap:round; stroke-linejoin:round; stroke-width:2; stroke-opacity:0.1; fill:none" points="2352.76,1486.45 2352.76,47.2441 "/>
<polyline clip-path="url(#clip712)" style="stroke:#000000; stroke-linecap:round; stroke-linejoin:round; stroke-width:2; stroke-opacity:0.1; fill:none" points="193.936,1486.45 2352.76,1486.45 "/>
<polyline clip-path="url(#clip712)" style="stroke:#000000; stroke-linecap:round; stroke-linejoin:round; stroke-width:2; stroke-opacity:0.1; fill:none" points="193.936,1126.65 2352.76,1126.65 "/>
<polyline clip-path="url(#clip712)" style="stroke:#000000; stroke-linecap:round; stroke-linejoin:round; stroke-width:2; stroke-opacity:0.1; fill:none" points="193.936,766.846 2352.76,766.846 "/>
<polyline clip-path="url(#clip712)" style="stroke:#000000; stroke-linecap:round; stroke-linejoin:round; stroke-width:2; stroke-opacity:0.1; fill:none" points="193.936,407.045 2352.76,407.045 "/>
<polyline clip-path="url(#clip712)" style="stroke:#000000; stroke-linecap:round; stroke-linejoin:round; stroke-width:2; stroke-opacity:0.1; fill:none" points="193.936,47.2441 2352.76,47.2441 "/>
<polyline clip-path="url(#clip710)" style="stroke:#000000; stroke-linecap:round; stroke-linejoin:round; stroke-width:4; stroke-opacity:1; fill:none" points="193.936,1486.45 2352.76,1486.45 "/>
<polyline clip-path="url(#clip710)" style="stroke:#000000; stroke-linecap:round; stroke-linejoin:round; stroke-width:4; stroke-opacity:1; fill:none" points="193.936,1486.45 193.936,1467.55 "/>
<polyline clip-path="url(#clip710)" style="stroke:#000000; stroke-linecap:round; stroke-linejoin:round; stroke-width:4; stroke-opacity:1; fill:none" points="733.641,1486.45 733.641,1467.55 "/>
<polyline clip-path="url(#clip710)" style="stroke:#000000; stroke-linecap:round; stroke-linejoin:round; stroke-width:4; stroke-opacity:1; fill:none" points="1273.35,1486.45 1273.35,1467.55 "/>
<polyline clip-path="url(#clip710)" style="stroke:#000000; stroke-linecap:round; stroke-linejoin:round; stroke-width:4; stroke-opacity:1; fill:none" points="1813.05,1486.45 1813.05,1467.55 "/>
<polyline clip-path="url(#clip710)" style="stroke:#000000; stroke-linecap:round; stroke-linejoin:round; stroke-width:4; stroke-opacity:1; fill:none" points="2352.76,1486.45 2352.76,1467.55 "/>
<path clip-path="url(#clip710)" d="M140.464 1532.02 L170.14 1532.02 L170.14 1535.95 L140.464 1535.95 L140.464 1532.02 Z" fill="#000000" fill-rule="nonzero" fill-opacity="1" /><path clip-path="url(#clip710)" d="M180.279 1514.29 L198.635 1514.29 L198.635 1518.22 L184.561 1518.22 L184.561 1526.7 Q185.58 1526.35 186.598 1526.19 Q187.617 1526 188.635 1526 Q194.422 1526 197.802 1529.17 Q201.181 1532.34 201.181 1537.76 Q201.181 1543.34 197.709 1546.44 Q194.237 1549.52 187.918 1549.52 Q185.742 1549.52 183.473 1549.15 Q181.228 1548.78 178.82 1548.04 L178.82 1543.34 Q180.904 1544.47 183.126 1545.03 Q185.348 1545.58 187.825 1545.58 Q191.83 1545.58 194.167 1543.48 Q196.505 1541.37 196.505 1537.76 Q196.505 1534.15 194.167 1532.04 Q191.83 1529.94 187.825 1529.94 Q185.95 1529.94 184.075 1530.35 Q182.223 1530.77 180.279 1531.65 L180.279 1514.29 Z" fill="#000000" fill-rule="nonzero" fill-opacity="1" /><path clip-path="url(#clip710)" d="M210.394 1542.97 L215.278 1542.97 L215.278 1548.85 L210.394 1548.85 L210.394 1542.97 Z" fill="#000000" fill-rule="nonzero" fill-opacity="1" /><path clip-path="url(#clip710)" d="M235.464 1517.37 Q231.852 1517.37 230.024 1520.93 Q228.218 1524.47 228.218 1531.6 Q228.218 1538.71 230.024 1542.27 Q231.852 1545.82 235.464 1545.82 Q239.098 1545.82 240.903 1542.27 Q242.732 1538.71 242.732 1531.6 Q242.732 1524.47 240.903 1520.93 Q239.098 1517.37 235.464 1517.37 M235.464 1513.66 Q241.274 1513.66 244.329 1518.27 Q247.408 1522.85 247.408 1531.6 Q247.408 1540.33 244.329 1544.94 Q241.274 1549.52 235.464 1549.52 Q229.653 1549.52 226.575 1544.94 Q223.519 1540.33 223.519 1531.6 Q223.519 1522.85 226.575 1518.27 Q229.653 1513.66 235.464 1513.66 Z" fill="#000000" fill-rule="nonzero" fill-opacity="1" /><path clip-path="url(#clip710)" d="M680.667 1532.02 L710.342 1532.02 L710.342 1535.95 L680.667 1535.95 L680.667 1532.02 Z" fill="#000000" fill-rule="nonzero" fill-opacity="1" /><path clip-path="url(#clip710)" d="M724.463 1544.91 L740.782 1544.91 L740.782 1548.85 L718.838 1548.85 L718.838 1544.91 Q721.5 1542.16 726.083 1537.53 Q730.69 1532.88 731.87 1531.53 Q734.116 1529.01 734.995 1527.27 Q735.898 1525.51 735.898 1523.82 Q735.898 1521.07 733.953 1519.33 Q732.032 1517.6 728.93 1517.6 Q726.731 1517.6 724.278 1518.36 Q721.847 1519.13 719.069 1520.68 L719.069 1515.95 Q721.893 1514.82 724.347 1514.24 Q726.801 1513.66 728.838 1513.66 Q734.208 1513.66 737.403 1516.35 Q740.597 1519.03 740.597 1523.52 Q740.597 1525.65 739.787 1527.57 Q739 1529.47 736.893 1532.07 Q736.315 1532.74 733.213 1535.95 Q730.111 1539.15 724.463 1544.91 Z" fill="#000000" fill-rule="nonzero" fill-opacity="1" /><path clip-path="url(#clip710)" d="M750.597 1542.97 L755.481 1542.97 L755.481 1548.85 L750.597 1548.85 L750.597 1542.97 Z" fill="#000000" fill-rule="nonzero" fill-opacity="1" /><path clip-path="url(#clip710)" d="M765.713 1514.29 L784.069 1514.29 L784.069 1518.22 L769.995 1518.22 L769.995 1526.7 Q771.013 1526.35 772.032 1526.19 Q773.05 1526 774.069 1526 Q779.856 1526 783.236 1529.17 Q786.615 1532.34 786.615 1537.76 Q786.615 1543.34 783.143 1546.44 Q779.671 1549.52 773.351 1549.52 Q771.175 1549.52 768.907 1549.15 Q766.662 1548.78 764.254 1548.04 L764.254 1543.34 Q766.338 1544.47 768.56 1545.03 Q770.782 1545.58 773.259 1545.58 Q777.263 1545.58 779.601 1543.48 Q781.939 1541.37 781.939 1537.76 Q781.939 1534.15 779.601 1532.04 Q777.263 1529.94 773.259 1529.94 Q771.384 1529.94 769.509 1530.35 Q767.657 1530.77 765.713 1531.65 L765.713 1514.29 Z" fill="#000000" fill-rule="nonzero" fill-opacity="1" /><path clip-path="url(#clip710)" d="M1250.73 1517.37 Q1247.12 1517.37 1245.29 1520.93 Q1243.49 1524.47 1243.49 1531.6 Q1243.49 1538.71 1245.29 1542.27 Q1247.12 1545.82 1250.73 1545.82 Q1254.36 1545.82 1256.17 1542.27 Q1258 1538.71 1258 1531.6 Q1258 1524.47 1256.17 1520.93 Q1254.36 1517.37 1250.73 1517.37 M1250.73 1513.66 Q1256.54 1513.66 1259.6 1518.27 Q1262.67 1522.85 1262.67 1531.6 Q1262.67 1540.33 1259.6 1544.94 Q1256.54 1549.52 1250.73 1549.52 Q1244.92 1549.52 1241.84 1544.94 Q1238.79 1540.33 1238.79 1531.6 Q1238.79 1522.85 1241.84 1518.27 Q1244.92 1513.66 1250.73 1513.66 Z" fill="#000000" fill-rule="nonzero" fill-opacity="1" /><path clip-path="url(#clip710)" d="M1270.89 1542.97 L1275.78 1542.97 L1275.78 1548.85 L1270.89 1548.85 L1270.89 1542.97 Z" fill="#000000" fill-rule="nonzero" fill-opacity="1" /><path clip-path="url(#clip710)" d="M1295.96 1517.37 Q1292.35 1517.37 1290.52 1520.93 Q1288.72 1524.47 1288.72 1531.6 Q1288.72 1538.71 1290.52 1542.27 Q1292.35 1545.82 1295.96 1545.82 Q1299.6 1545.82 1301.4 1542.27 Q1303.23 1538.71 1303.23 1531.6 Q1303.23 1524.47 1301.4 1520.93 Q1299.6 1517.37 1295.96 1517.37 M1295.96 1513.66 Q1301.77 1513.66 1304.83 1518.27 Q1307.91 1522.85 1307.91 1531.6 Q1307.91 1540.33 1304.83 1544.94 Q1301.77 1549.52 1295.96 1549.52 Q1290.15 1549.52 1287.07 1544.94 Q1284.02 1540.33 1284.02 1531.6 Q1284.02 1522.85 1287.07 1518.27 Q1290.15 1513.66 1295.96 1513.66 Z" fill="#000000" fill-rule="nonzero" fill-opacity="1" /><path clip-path="url(#clip710)" d="M1784.79 1544.91 L1801.11 1544.91 L1801.11 1548.85 L1779.16 1548.85 L1779.16 1544.91 Q1781.82 1542.16 1786.41 1537.53 Q1791.01 1532.88 1792.19 1531.53 Q1794.44 1529.01 1795.32 1527.27 Q1796.22 1525.51 1796.22 1523.82 Q1796.22 1521.07 1794.28 1519.33 Q1792.36 1517.6 1789.25 1517.6 Q1787.06 1517.6 1784.6 1518.36 Q1782.17 1519.13 1779.39 1520.68 L1779.39 1515.95 Q1782.22 1514.82 1784.67 1514.24 Q1787.13 1513.66 1789.16 1513.66 Q1794.53 1513.66 1797.73 1516.35 Q1800.92 1519.03 1800.92 1523.52 Q1800.92 1525.65 1800.11 1527.57 Q1799.32 1529.47 1797.22 1532.07 Q1796.64 1532.74 1793.54 1535.95 Q1790.44 1539.15 1784.79 1544.91 Z" fill="#000000" fill-rule="nonzero" fill-opacity="1" /><path clip-path="url(#clip710)" d="M1810.92 1542.97 L1815.81 1542.97 L1815.81 1548.85 L1810.92 1548.85 L1810.92 1542.97 Z" fill="#000000" fill-rule="nonzero" fill-opacity="1" /><path clip-path="url(#clip710)" d="M1826.04 1514.29 L1844.39 1514.29 L1844.39 1518.22 L1830.32 1518.22 L1830.32 1526.7 Q1831.34 1526.35 1832.36 1526.19 Q1833.37 1526 1834.39 1526 Q1840.18 1526 1843.56 1529.17 Q1846.94 1532.34 1846.94 1537.76 Q1846.94 1543.34 1843.47 1546.44 Q1840 1549.52 1833.68 1549.52 Q1831.5 1549.52 1829.23 1549.15 Q1826.99 1548.78 1824.58 1548.04 L1824.58 1543.34 Q1826.66 1544.47 1828.88 1545.03 Q1831.11 1545.58 1833.58 1545.58 Q1837.59 1545.58 1839.93 1543.48 Q1842.26 1541.37 1842.26 1537.76 Q1842.26 1534.15 1839.93 1532.04 Q1837.59 1529.94 1833.58 1529.94 Q1831.71 1529.94 1829.83 1530.35 Q1827.98 1530.77 1826.04 1531.65 L1826.04 1514.29 Z" fill="#000000" fill-rule="nonzero" fill-opacity="1" /><path clip-path="url(#clip710)" d="M2319.92 1514.29 L2338.28 1514.29 L2338.28 1518.22 L2324.2 1518.22 L2324.2 1526.7 Q2325.22 1526.35 2326.24 1526.19 Q2327.26 1526 2328.28 1526 Q2334.06 1526 2337.44 1529.17 Q2340.82 1532.34 2340.82 1537.76 Q2340.82 1543.34 2337.35 1546.44 Q2333.88 1549.52 2327.56 1549.52 Q2325.38 1549.52 2323.11 1549.15 Q2320.87 1548.78 2318.46 1548.04 L2318.46 1543.34 Q2320.55 1544.47 2322.77 1545.03 Q2324.99 1545.58 2327.47 1545.58 Q2331.47 1545.58 2333.81 1543.48 Q2336.15 1541.37 2336.15 1537.76 Q2336.15 1534.15 2333.81 1532.04 Q2331.47 1529.94 2327.47 1529.94 Q2325.59 1529.94 2323.72 1530.35 Q2321.86 1530.77 2319.92 1531.65 L2319.92 1514.29 Z" fill="#000000" fill-rule="nonzero" fill-opacity="1" /><path clip-path="url(#clip710)" d="M2350.04 1542.97 L2354.92 1542.97 L2354.92 1548.85 L2350.04 1548.85 L2350.04 1542.97 Z" fill="#000000" fill-rule="nonzero" fill-opacity="1" /><path clip-path="url(#clip710)" d="M2375.11 1517.37 Q2371.49 1517.37 2369.67 1520.93 Q2367.86 1524.47 2367.86 1531.6 Q2367.86 1538.71 2369.67 1542.27 Q2371.49 1545.82 2375.11 1545.82 Q2378.74 1545.82 2380.55 1542.27 Q2382.37 1538.71 2382.37 1531.6 Q2382.37 1524.47 2380.55 1520.93 Q2378.74 1517.37 2375.11 1517.37 M2375.11 1513.66 Q2380.92 1513.66 2383.97 1518.27 Q2387.05 1522.85 2387.05 1531.6 Q2387.05 1540.33 2383.97 1544.94 Q2380.92 1549.52 2375.11 1549.52 Q2369.3 1549.52 2366.22 1544.94 Q2363.16 1540.33 2363.16 1531.6 Q2363.16 1522.85 2366.22 1518.27 Q2369.3 1513.66 2375.11 1513.66 Z" fill="#000000" fill-rule="nonzero" fill-opacity="1" /><polyline clip-path="url(#clip710)" style="stroke:#000000; stroke-linecap:round; stroke-linejoin:round; stroke-width:4; stroke-opacity:1; fill:none" points="193.936,1486.45 193.936,47.2441 "/>
<polyline clip-path="url(#clip710)" style="stroke:#000000; stroke-linecap:round; stroke-linejoin:round; stroke-width:4; stroke-opacity:1; fill:none" points="193.936,1486.45 212.834,1486.45 "/>
<polyline clip-path="url(#clip710)" style="stroke:#000000; stroke-linecap:round; stroke-linejoin:round; stroke-width:4; stroke-opacity:1; fill:none" points="193.936,1126.65 212.834,1126.65 "/>
<polyline clip-path="url(#clip710)" style="stroke:#000000; stroke-linecap:round; stroke-linejoin:round; stroke-width:4; stroke-opacity:1; fill:none" points="193.936,766.846 212.834,766.846 "/>
<polyline clip-path="url(#clip710)" style="stroke:#000000; stroke-linecap:round; stroke-linejoin:round; stroke-width:4; stroke-opacity:1; fill:none" points="193.936,407.045 212.834,407.045 "/>
<polyline clip-path="url(#clip710)" style="stroke:#000000; stroke-linecap:round; stroke-linejoin:round; stroke-width:4; stroke-opacity:1; fill:none" points="193.936,47.2441 212.834,47.2441 "/>
<path clip-path="url(#clip710)" d="M50.9921 1486.9 L80.6679 1486.9 L80.6679 1490.83 L50.9921 1490.83 L50.9921 1486.9 Z" fill="#000000" fill-rule="nonzero" fill-opacity="1" /><path clip-path="url(#clip710)" d="M90.8067 1469.17 L109.163 1469.17 L109.163 1473.1 L95.0891 1473.1 L95.0891 1481.58 Q96.1076 1481.23 97.1261 1481.07 Q98.1447 1480.88 99.1632 1480.88 Q104.95 1480.88 108.33 1484.05 Q111.709 1487.22 111.709 1492.64 Q111.709 1498.22 108.237 1501.32 Q104.765 1504.4 98.4456 1504.4 Q96.2697 1504.4 94.0012 1504.03 Q91.7558 1503.66 89.3484 1502.92 L89.3484 1498.22 Q91.4317 1499.35 93.6539 1499.91 Q95.8761 1500.46 98.353 1500.46 Q102.358 1500.46 104.696 1498.36 Q107.033 1496.25 107.033 1492.64 Q107.033 1489.03 104.696 1486.92 Q102.358 1484.82 98.353 1484.82 Q96.478 1484.82 94.603 1485.23 Q92.7512 1485.65 90.8067 1486.53 L90.8067 1469.17 Z" fill="#000000" fill-rule="nonzero" fill-opacity="1" /><path clip-path="url(#clip710)" d="M120.922 1497.85 L125.807 1497.85 L125.807 1503.73 L120.922 1503.73 L120.922 1497.85 Z" fill="#000000" fill-rule="nonzero" fill-opacity="1" /><path clip-path="url(#clip710)" d="M145.992 1472.25 Q142.381 1472.25 140.552 1475.81 Q138.746 1479.35 138.746 1486.48 Q138.746 1493.59 140.552 1497.15 Q142.381 1500.7 145.992 1500.7 Q149.626 1500.7 151.431 1497.15 Q153.26 1493.59 153.26 1486.48 Q153.26 1479.35 151.431 1475.81 Q149.626 1472.25 145.992 1472.25 M145.992 1468.54 Q151.802 1468.54 154.857 1473.15 Q157.936 1477.73 157.936 1486.48 Q157.936 1495.21 154.857 1499.82 Q151.802 1504.4 145.992 1504.4 Q140.181 1504.4 137.103 1499.82 Q134.047 1495.21 134.047 1486.48 Q134.047 1477.73 137.103 1473.15 Q140.181 1468.54 145.992 1468.54 Z" fill="#000000" fill-rule="nonzero" fill-opacity="1" /><path clip-path="url(#clip710)" d="M51.9875 1127.1 L81.6633 1127.1 L81.6633 1131.03 L51.9875 1131.03 L51.9875 1127.1 Z" fill="#000000" fill-rule="nonzero" fill-opacity="1" /><path clip-path="url(#clip710)" d="M95.7836 1139.99 L112.103 1139.99 L112.103 1143.93 L90.1586 1143.93 L90.1586 1139.99 Q92.8206 1137.24 97.4039 1132.61 Q102.01 1127.95 103.191 1126.61 Q105.436 1124.09 106.316 1122.35 Q107.219 1120.59 107.219 1118.9 Q107.219 1116.15 105.274 1114.41 Q103.353 1112.68 100.251 1112.68 Q98.0521 1112.68 95.5984 1113.44 Q93.1678 1114.2 90.3901 1115.76 L90.3901 1111.03 Q93.2141 1109.9 95.6678 1109.32 Q98.1215 1108.74 100.159 1108.74 Q105.529 1108.74 108.723 1111.43 Q111.918 1114.11 111.918 1118.6 Q111.918 1120.73 111.108 1122.65 Q110.321 1124.55 108.214 1127.14 Q107.635 1127.82 104.534 1131.03 Q101.432 1134.23 95.7836 1139.99 Z" fill="#000000" fill-rule="nonzero" fill-opacity="1" /><path clip-path="url(#clip710)" d="M121.918 1138.05 L126.802 1138.05 L126.802 1143.93 L121.918 1143.93 L121.918 1138.05 Z" fill="#000000" fill-rule="nonzero" fill-opacity="1" /><path clip-path="url(#clip710)" d="M137.033 1109.37 L155.39 1109.37 L155.39 1113.3 L141.316 1113.3 L141.316 1121.77 Q142.334 1121.43 143.353 1121.27 Q144.371 1121.08 145.39 1121.08 Q151.177 1121.08 154.556 1124.25 Q157.936 1127.42 157.936 1132.84 Q157.936 1138.42 154.464 1141.52 Q150.992 1144.6 144.672 1144.6 Q142.496 1144.6 140.228 1144.23 Q137.982 1143.86 135.575 1143.12 L135.575 1138.42 Q137.658 1139.55 139.881 1140.11 Q142.103 1140.66 144.58 1140.66 Q148.584 1140.66 150.922 1138.56 Q153.26 1136.45 153.26 1132.84 Q153.26 1129.23 150.922 1127.12 Q148.584 1125.01 144.58 1125.01 Q142.705 1125.01 140.83 1125.43 Q138.978 1125.85 137.033 1126.73 L137.033 1109.37 Z" fill="#000000" fill-rule="nonzero" fill-opacity="1" /><path clip-path="url(#clip710)" d="M100.76 752.645 Q97.1493 752.645 95.3206 756.209 Q93.515 759.751 93.515 766.881 Q93.515 773.987 95.3206 777.552 Q97.1493 781.094 100.76 781.094 Q104.395 781.094 106.2 777.552 Q108.029 773.987 108.029 766.881 Q108.029 759.751 106.2 756.209 Q104.395 752.645 100.76 752.645 M100.76 748.941 Q106.571 748.941 109.626 753.547 Q112.705 758.131 112.705 766.881 Q112.705 775.608 109.626 780.214 Q106.571 784.797 100.76 784.797 Q94.9502 784.797 91.8715 780.214 Q88.816 775.608 88.816 766.881 Q88.816 758.131 91.8715 753.547 Q94.9502 748.941 100.76 748.941 Z" fill="#000000" fill-rule="nonzero" fill-opacity="1" /><path clip-path="url(#clip710)" d="M120.922 778.246 L125.807 778.246 L125.807 784.126 L120.922 784.126 L120.922 778.246 Z" fill="#000000" fill-rule="nonzero" fill-opacity="1" /><path clip-path="url(#clip710)" d="M145.992 752.645 Q142.381 752.645 140.552 756.209 Q138.746 759.751 138.746 766.881 Q138.746 773.987 140.552 777.552 Q142.381 781.094 145.992 781.094 Q149.626 781.094 151.431 777.552 Q153.26 773.987 153.26 766.881 Q153.26 759.751 151.431 756.209 Q149.626 752.645 145.992 752.645 M145.992 748.941 Q151.802 748.941 154.857 753.547 Q157.936 758.131 157.936 766.881 Q157.936 775.608 154.857 780.214 Q151.802 784.797 145.992 784.797 Q140.181 784.797 137.103 780.214 Q134.047 775.608 134.047 766.881 Q134.047 758.131 137.103 753.547 Q140.181 748.941 145.992 748.941 Z" fill="#000000" fill-rule="nonzero" fill-opacity="1" /><path clip-path="url(#clip710)" d="M95.7836 420.39 L112.103 420.39 L112.103 424.325 L90.1586 424.325 L90.1586 420.39 Q92.8206 417.635 97.4039 413.006 Q102.01 408.353 103.191 407.01 Q105.436 404.487 106.316 402.751 Q107.219 400.992 107.219 399.302 Q107.219 396.547 105.274 394.811 Q103.353 393.075 100.251 393.075 Q98.0521 393.075 95.5984 393.839 Q93.1678 394.603 90.3901 396.154 L90.3901 391.432 Q93.2141 390.297 95.6678 389.719 Q98.1215 389.14 100.159 389.14 Q105.529 389.14 108.723 391.825 Q111.918 394.51 111.918 399.001 Q111.918 401.131 111.108 403.052 Q110.321 404.95 108.214 407.543 Q107.635 408.214 104.534 411.432 Q101.432 414.626 95.7836 420.39 Z" fill="#000000" fill-rule="nonzero" fill-opacity="1" /><path clip-path="url(#clip710)" d="M121.918 418.445 L126.802 418.445 L126.802 424.325 L121.918 424.325 L121.918 418.445 Z" fill="#000000" fill-rule="nonzero" fill-opacity="1" /><path clip-path="url(#clip710)" d="M137.033 389.765 L155.39 389.765 L155.39 393.7 L141.316 393.7 L141.316 402.172 Q142.334 401.825 143.353 401.663 Q144.371 401.478 145.39 401.478 Q151.177 401.478 154.556 404.649 Q157.936 407.82 157.936 413.237 Q157.936 418.816 154.464 421.918 Q150.992 424.996 144.672 424.996 Q142.496 424.996 140.228 424.626 Q137.982 424.256 135.575 423.515 L135.575 418.816 Q137.658 419.95 139.881 420.506 Q142.103 421.061 144.58 421.061 Q148.584 421.061 150.922 418.955 Q153.26 416.848 153.26 413.237 Q153.26 409.626 150.922 407.52 Q148.584 405.413 144.58 405.413 Q142.705 405.413 140.83 405.83 Q138.978 406.246 137.033 407.126 L137.033 389.765 Z" fill="#000000" fill-rule="nonzero" fill-opacity="1" /><path clip-path="url(#clip710)" d="M90.8067 29.9641 L109.163 29.9641 L109.163 33.8993 L95.0891 33.8993 L95.0891 42.3714 Q96.1076 42.0242 97.1261 41.8622 Q98.1447 41.677 99.1632 41.677 Q104.95 41.677 108.33 44.8483 Q111.709 48.0196 111.709 53.4362 Q111.709 59.0149 108.237 62.1167 Q104.765 65.1954 98.4456 65.1954 Q96.2697 65.1954 94.0012 64.825 Q91.7558 64.4547 89.3484 63.7139 L89.3484 59.0149 Q91.4317 60.1491 93.6539 60.7047 Q95.8761 61.2602 98.353 61.2602 Q102.358 61.2602 104.696 59.1538 Q107.033 57.0473 107.033 53.4362 Q107.033 49.8251 104.696 47.7186 Q102.358 45.6122 98.353 45.6122 Q96.478 45.6122 94.603 46.0288 Q92.7512 46.4455 90.8067 47.3251 L90.8067 29.9641 Z" fill="#000000" fill-rule="nonzero" fill-opacity="1" /><path clip-path="url(#clip710)" d="M120.922 58.6445 L125.807 58.6445 L125.807 64.5241 L120.922 64.5241 L120.922 58.6445 Z" fill="#000000" fill-rule="nonzero" fill-opacity="1" /><path clip-path="url(#clip710)" d="M145.992 33.0428 Q142.381 33.0428 140.552 36.6076 Q138.746 40.1492 138.746 47.2788 Q138.746 54.3853 140.552 57.9501 Q142.381 61.4917 145.992 61.4917 Q149.626 61.4917 151.431 57.9501 Q153.26 54.3853 153.26 47.2788 Q153.26 40.1492 151.431 36.6076 Q149.626 33.0428 145.992 33.0428 M145.992 29.3391 Q151.802 29.3391 154.857 33.9456 Q157.936 38.5289 157.936 47.2788 Q157.936 56.0056 154.857 60.6121 Q151.802 65.1954 145.992 65.1954 Q140.181 65.1954 137.103 60.6121 Q134.047 56.0056 134.047 47.2788 Q134.047 38.5289 137.103 33.9456 Q140.181 29.3391 145.992 29.3391 Z" fill="#000000" fill-rule="nonzero" fill-opacity="1" /><polyline clip-path="url(#clip712)" style="stroke:#000000; stroke-linecap:round; stroke-linejoin:round; stroke-width:4; stroke-opacity:0.5; fill:none" points="193.936,766.846 196.097,766.846 198.258,766.846 200.419,766.846 202.58,766.846 204.741,766.846 206.902,766.846 209.063,766.846 211.224,766.846 213.385,766.846 215.546,766.846 217.707,766.846 219.868,766.846 222.029,766.846 224.19,766.846 226.351,766.846 228.512,766.846 230.673,766.846 232.834,766.846 234.995,766.846 237.156,766.846 239.317,766.846 241.478,766.846 243.639,766.846 245.8,766.846 247.961,766.846 250.122,766.846 252.282,766.846 254.443,766.846 256.604,766.846 258.765,766.846 260.926,766.846 263.087,766.846 265.248,766.846 267.409,766.846 269.57,766.846 271.731,766.846 273.892,766.846 276.053,766.846 278.214,766.846 280.375,766.846 282.536,766.846 284.697,766.846 286.858,766.846 289.019,766.846 291.18,766.846 293.341,766.846 295.502,766.846 297.663,766.846 299.824,766.846 301.985,766.846 304.146,766.846 306.307,766.846 308.468,766.846 310.629,766.846 312.79,766.846 314.951,766.846 317.112,766.846 319.273,766.846 321.434,766.846 323.595,766.846 325.756,766.846 327.917,766.846 330.078,766.846 332.239,766.846 334.4,766.846 336.561,766.846 338.722,766.846 340.883,766.846 343.044,766.846 345.205,766.846 347.366,766.846 349.527,766.846 351.688,766.846 353.849,766.846 356.01,766.846 358.171,766.846 360.332,766.846 362.493,766.846 364.653,766.846 366.814,766.846 368.975,766.846 371.136,766.846 373.297,766.846 375.458,766.846 377.619,766.846 379.78,766.846 381.941,766.846 384.102,766.846 386.263,766.846 388.424,766.846 390.585,766.846 392.746,766.846 394.907,766.846 397.068,766.846 399.229,766.846 401.39,766.846 403.551,766.846 405.712,766.846 407.873,766.846 410.034,766.846 412.195,766.846 414.356,766.846 416.517,766.846 418.678,766.846 420.839,766.846 423,766.846 425.161,766.846 427.322,766.846 429.483,766.846 431.644,766.846 433.805,766.846 435.966,766.846 438.127,766.846 440.288,766.846 442.449,766.846 444.61,766.846 446.771,766.846 448.932,766.846 451.093,766.846 453.254,766.846 455.415,766.846 457.576,766.846 459.737,766.846 461.898,766.846 464.059,766.846 466.22,766.846 468.381,766.846 470.542,766.846 472.703,766.846 474.864,766.846 477.024,766.846 479.185,766.846 481.346,766.846 483.507,766.846 485.668,766.846 487.829,766.846 489.99,766.846 492.151,766.846 494.312,766.846 496.473,766.846 498.634,766.846 500.795,766.846 502.956,766.846 505.117,766.846 507.278,766.846 509.439,766.846 511.6,766.846 513.761,766.846 515.922,766.846 518.083,766.846 520.244,766.846 522.405,766.846 524.566,766.846 526.727,766.846 528.888,766.846 531.049,766.846 533.21,766.846 535.371,766.846 537.532,766.846 539.693,766.846 541.854,766.846 544.015,766.846 546.176,766.846 548.337,766.846 550.498,766.846 552.659,766.846 554.82,766.846 556.981,766.846 559.142,766.846 561.303,766.846 563.464,766.846 565.625,766.846 567.786,766.846 569.947,766.846 572.108,766.846 574.269,766.846 576.43,766.846 578.591,766.846 580.752,766.846 582.913,766.846 585.074,766.846 587.235,766.846 589.396,766.846 591.556,766.846 593.717,766.846 595.878,766.846 598.039,766.846 600.2,766.846 602.361,766.846 604.522,766.846 606.683,766.846 608.844,766.846 611.005,766.846 613.166,766.846 615.327,766.846 617.488,766.846 619.649,766.846 621.81,766.846 623.971,766.846 626.132,766.846 628.293,766.846 630.454,766.846 632.615,766.846 634.776,766.846 636.937,766.846 639.098,766.846 641.259,766.846 643.42,766.846 645.581,766.846 647.742,766.846 649.903,766.846 652.064,766.846 654.225,766.846 656.386,766.846 658.547,766.846 660.708,766.846 662.869,766.846 665.03,766.846 667.191,766.846 669.352,766.846 671.513,766.846 673.674,766.846 675.835,766.846 677.996,766.846 680.157,766.846 682.318,766.846 684.479,766.846 686.64,766.846 688.801,766.846 690.962,766.846 693.123,766.846 695.284,766.846 697.445,766.846 699.606,766.846 701.767,766.846 703.927,766.846 706.088,766.846 708.249,766.846 710.41,766.846 712.571,766.846 714.732,766.846 716.893,766.846 719.054,766.846 721.215,766.846 723.376,766.846 725.537,766.846 727.698,766.846 729.859,766.846 732.02,766.846 734.181,766.846 736.342,766.846 738.503,766.846 740.664,766.846 742.825,766.846 744.986,766.846 747.147,766.846 749.308,766.846 751.469,766.846 753.63,766.846 755.791,766.846 757.952,766.846 760.113,766.846 762.274,766.846 764.435,766.846 766.596,766.846 768.757,766.846 770.918,766.846 773.079,766.846 775.24,766.846 777.401,766.846 779.562,766.846 781.723,766.846 783.884,766.846 786.045,766.846 788.206,766.846 790.367,766.846 792.528,766.846 794.689,766.846 796.85,766.846 799.011,766.846 801.172,766.846 803.333,766.846 805.494,766.846 807.655,766.846 809.816,766.846 811.977,766.846 814.138,766.846 816.298,766.846 818.459,766.846 820.62,766.846 822.781,766.846 824.942,766.846 827.103,766.846 829.264,766.846 831.425,766.846 833.586,766.846 835.747,766.846 837.908,766.846 840.069,766.846 842.23,766.846 844.391,766.846 846.552,766.846 848.713,766.846 850.874,766.846 853.035,766.846 855.196,766.846 857.357,766.846 859.518,766.846 861.679,766.846 863.84,766.846 866.001,766.846 868.162,766.846 870.323,766.846 872.484,766.846 874.645,766.846 876.806,766.846 878.967,766.846 881.128,766.846 883.289,766.846 885.45,766.846 887.611,766.846 889.772,766.846 891.933,766.846 894.094,766.846 896.255,766.846 898.416,766.846 900.577,766.846 902.738,766.846 904.899,766.846 907.06,766.846 909.221,766.846 911.382,766.846 913.543,766.846 915.704,766.846 917.865,766.846 920.026,766.846 922.187,766.846 924.348,766.846 926.509,766.846 928.669,766.846 930.83,766.846 932.991,766.846 935.152,766.846 937.313,766.846 939.474,766.846 941.635,766.846 943.796,766.846 945.957,766.846 948.118,766.846 950.279,766.846 952.44,766.846 954.601,766.846 956.762,766.846 958.923,766.846 961.084,766.846 963.245,766.846 965.406,766.846 967.567,766.846 969.728,766.846 971.889,766.846 974.05,766.846 976.211,766.846 978.372,766.846 980.533,766.846 982.694,766.846 984.855,766.846 987.016,766.846 989.177,766.846 991.338,766.846 993.499,766.846 995.66,766.846 997.821,766.846 999.982,766.846 1002.14,766.846 1004.3,766.846 1006.46,766.846 1008.63,766.846 1010.79,766.846 1012.95,766.846 1015.11,766.846 1017.27,766.846 1019.43,766.846 1021.59,766.846 1023.75,766.846 1025.91,766.846 1028.07,766.846 1030.24,766.846 1032.4,766.846 1034.56,766.846 1036.72,766.846 1038.88,766.846 1041.04,766.846 1043.2,766.846 1045.36,766.846 1047.52,766.846 1049.68,766.846 1051.85,766.846 1054.01,766.846 1056.17,766.846 1058.33,766.846 1060.49,766.846 1062.65,766.846 1064.81,766.846 1066.97,766.846 1069.13,766.846 1071.29,766.846 1073.46,766.846 1075.62,766.846 1077.78,766.846 1079.94,766.846 1082.1,766.846 1084.26,766.846 1086.42,766.846 1088.58,766.846 1090.74,766.846 1092.9,766.846 1095.07,766.846 1097.23,766.846 1099.39,766.846 1101.55,766.846 1103.71,766.846 1105.87,766.846 1108.03,766.846 1110.19,766.846 1112.35,766.846 1114.51,766.846 1116.67,766.846 1118.84,766.846 1121,766.846 1123.16,766.846 1125.32,766.846 1127.48,766.846 1129.64,766.846 1131.8,766.846 1133.96,766.846 1136.12,766.846 1138.28,766.846 1140.45,766.846 1142.61,766.846 1144.77,766.846 1146.93,766.846 1149.09,766.846 1151.25,766.846 1153.41,766.846 1155.57,766.846 1157.73,766.846 1159.89,766.846 1162.06,766.846 1164.22,766.846 1166.38,766.846 1168.54,766.846 1170.7,766.846 1172.86,766.846 1175.02,766.846 1177.18,766.846 1179.34,766.846 1181.5,766.846 1183.67,766.846 1185.83,766.846 1187.99,766.846 1190.15,766.846 1192.31,766.846 1194.47,766.846 1196.63,766.846 1198.79,766.846 1200.95,766.846 1203.11,766.846 1205.28,766.846 1207.44,766.846 1209.6,766.846 1211.76,766.846 1213.92,766.846 1216.08,766.846 1218.24,766.846 1220.4,766.846 1222.56,766.846 1224.72,766.846 1226.88,766.846 1229.05,766.846 1231.21,766.846 1233.37,766.846 1235.53,766.846 1237.69,766.846 1239.85,766.846 1242.01,766.846 1244.17,766.846 1246.33,766.846 1248.49,766.846 1250.66,766.846 1252.82,766.846 1254.98,766.846 1257.14,766.846 1259.3,766.846 1261.46,766.846 1263.62,766.846 1265.78,766.846 1267.94,766.846 1270.1,766.846 1272.27,766.846 1274.43,766.846 1276.59,766.846 1278.75,766.846 1280.91,766.846 1283.07,766.846 1285.23,766.846 1287.39,766.846 1289.55,766.846 1291.71,766.846 1293.88,766.846 1296.04,766.846 1298.2,766.846 1300.36,766.846 1302.52,766.846 1304.68,766.846 1306.84,766.846 1309,766.846 1311.16,766.846 1313.32,766.846 1315.49,766.846 1317.65,766.846 1319.81,766.846 1321.97,766.846 1324.13,766.846 1326.29,766.846 1328.45,766.846 1330.61,766.846 1332.77,766.846 1334.93,766.846 1337.09,766.846 1339.26,766.846 1341.42,766.846 1343.58,766.846 1345.74,766.846 1347.9,766.846 1350.06,766.846 1352.22,766.846 1354.38,766.846 1356.54,766.846 1358.7,766.846 1360.87,766.846 1363.03,766.846 1365.19,766.846 1367.35,766.846 1369.51,766.846 1371.67,766.846 1373.83,766.846 1375.99,766.846 1378.15,766.846 1380.31,766.846 1382.48,766.846 1384.64,766.846 1386.8,766.846 1388.96,766.846 1391.12,766.846 1393.28,766.846 1395.44,766.846 1397.6,766.846 1399.76,766.846 1401.92,766.846 1404.09,766.846 1406.25,766.846 1408.41,766.846 1410.57,766.846 1412.73,766.846 1414.89,766.846 1417.05,766.846 1419.21,766.846 1421.37,766.846 1423.53,766.846 1425.7,766.846 1427.86,766.846 1430.02,766.846 1432.18,766.846 1434.34,766.846 1436.5,766.846 1438.66,766.846 1440.82,766.846 1442.98,766.846 1445.14,766.846 1447.3,766.846 1449.47,766.846 1451.63,766.846 1453.79,766.846 1455.95,766.846 1458.11,766.846 1460.27,766.846 1462.43,766.846 1464.59,766.846 1466.75,766.846 1468.91,766.846 1471.08,766.846 1473.24,766.846 1475.4,766.846 1477.56,766.846 1479.72,766.846 1481.88,766.846 1484.04,766.846 1486.2,766.846 1488.36,766.846 1490.52,766.846 1492.69,766.846 1494.85,766.846 1497.01,766.846 1499.17,766.846 1501.33,766.846 1503.49,766.846 1505.65,766.846 1507.81,766.846 1509.97,766.846 1512.13,766.846 1514.3,766.846 1516.46,766.846 1518.62,766.846 1520.78,766.846 1522.94,766.846 1525.1,766.846 1527.26,766.846 1529.42,766.846 1531.58,766.846 1533.74,766.846 1535.91,766.846 1538.07,766.846 1540.23,766.846 1542.39,766.846 1544.55,766.846 1546.71,766.846 1548.87,766.846 1551.03,766.846 1553.19,766.846 1555.35,766.846 1557.51,766.846 1559.68,766.846 1561.84,766.846 1564,766.846 1566.16,766.846 1568.32,766.846 1570.48,766.846 1572.64,766.846 1574.8,766.846 1576.96,766.846 1579.12,766.846 1581.29,766.846 1583.45,766.846 1585.61,766.846 1587.77,766.846 1589.93,766.846 1592.09,766.846 1594.25,766.846 1596.41,766.846 1598.57,766.846 1600.73,766.846 1602.9,766.846 1605.06,766.846 1607.22,766.846 1609.38,766.846 1611.54,766.846 1613.7,766.846 1615.86,766.846 1618.02,766.846 1620.18,766.846 1622.34,766.846 1624.51,766.846 1626.67,766.846 1628.83,766.846 1630.99,766.846 1633.15,766.846 1635.31,766.846 1637.47,766.846 1639.63,766.846 1641.79,766.846 1643.95,766.846 1646.12,766.846 1648.28,766.846 1650.44,766.846 1652.6,766.846 1654.76,766.846 1656.92,766.846 1659.08,766.846 1661.24,766.846 1663.4,766.846 1665.56,766.846 1667.72,766.846 1669.89,766.846 1672.05,766.846 1674.21,766.846 1676.37,766.846 1678.53,766.846 1680.69,766.846 1682.85,766.846 1685.01,766.846 1687.17,766.846 1689.33,766.846 1691.5,766.846 1693.66,766.846 1695.82,766.846 1697.98,766.846 1700.14,766.846 1702.3,766.846 1704.46,766.846 1706.62,766.846 1708.78,766.846 1710.94,766.846 1713.11,766.846 1715.27,766.846 1717.43,766.846 1719.59,766.846 1721.75,766.846 1723.91,766.846 1726.07,766.846 1728.23,766.846 1730.39,766.846 1732.55,766.846 1734.72,766.846 1736.88,766.846 1739.04,766.846 1741.2,766.846 1743.36,766.846 1745.52,766.846 1747.68,766.846 1749.84,766.846 1752,766.846 1754.16,766.846 1756.33,766.846 1758.49,766.846 1760.65,766.846 1762.81,766.846 1764.97,766.846 1767.13,766.846 1769.29,766.846 1771.45,766.846 1773.61,766.846 1775.77,766.846 1777.93,766.846 1780.1,766.846 1782.26,766.846 1784.42,766.846 1786.58,766.846 1788.74,766.846 1790.9,766.846 1793.06,766.846 1795.22,766.846 1797.38,766.846 1799.54,766.846 1801.71,766.846 1803.87,766.846 1806.03,766.846 1808.19,766.846 1810.35,766.846 1812.51,766.846 1814.67,766.846 1816.83,766.846 1818.99,766.846 1821.15,766.846 1823.32,766.846 1825.48,766.846 1827.64,766.846 1829.8,766.846 1831.96,766.846 1834.12,766.846 1836.28,766.846 1838.44,766.846 1840.6,766.846 1842.76,766.846 1844.93,766.846 1847.09,766.846 1849.25,766.846 1851.41,766.846 1853.57,766.846 1855.73,766.846 1857.89,766.846 1860.05,766.846 1862.21,766.846 1864.37,766.846 1866.54,766.846 1868.7,766.846 1870.86,766.846 1873.02,766.846 1875.18,766.846 1877.34,766.846 1879.5,766.846 1881.66,766.846 1883.82,766.846 1885.98,766.846 1888.15,766.846 1890.31,766.846 1892.47,766.846 1894.63,766.846 1896.79,766.846 1898.95,766.846 1901.11,766.846 1903.27,766.846 1905.43,766.846 1907.59,766.846 1909.75,766.846 1911.92,766.846 1914.08,766.846 1916.24,766.846 1918.4,766.846 1920.56,766.846 1922.72,766.846 1924.88,766.846 1927.04,766.846 1929.2,766.846 1931.36,766.846 1933.53,766.846 1935.69,766.846 1937.85,766.846 1940.01,766.846 1942.17,766.846 1944.33,766.846 1946.49,766.846 1948.65,766.846 1950.81,766.846 1952.97,766.846 1955.14,766.846 1957.3,766.846 1959.46,766.846 1961.62,766.846 1963.78,766.846 1965.94,766.846 1968.1,766.846 1970.26,766.846 1972.42,766.846 1974.58,766.846 1976.75,766.846 1978.91,766.846 1981.07,766.846 1983.23,766.846 1985.39,766.846 1987.55,766.846 1989.71,766.846 1991.87,766.846 1994.03,766.846 1996.19,766.846 1998.36,766.846 2000.52,766.846 2002.68,766.846 2004.84,766.846 2007,766.846 2009.16,766.846 2011.32,766.846 2013.48,766.846 2015.64,766.846 2017.8,766.846 2019.96,766.846 2022.13,766.846 2024.29,766.846 2026.45,766.846 2028.61,766.846 2030.77,766.846 2032.93,766.846 2035.09,766.846 2037.25,766.846 2039.41,766.846 2041.57,766.846 2043.74,766.846 2045.9,766.846 2048.06,766.846 2050.22,766.846 2052.38,766.846 2054.54,766.846 2056.7,766.846 2058.86,766.846 2061.02,766.846 2063.18,766.846 2065.35,766.846 2067.51,766.846 2069.67,766.846 2071.83,766.846 2073.99,766.846 2076.15,766.846 2078.31,766.846 2080.47,766.846 2082.63,766.846 2084.79,766.846 2086.96,766.846 2089.12,766.846 2091.28,766.846 2093.44,766.846 2095.6,766.846 2097.76,766.846 2099.92,766.846 2102.08,766.846 2104.24,766.846 2106.4,766.846 2108.57,766.846 2110.73,766.846 2112.89,766.846 2115.05,766.846 2117.21,766.846 2119.37,766.846 2121.53,766.846 2123.69,766.846 2125.85,766.846 2128.01,766.846 2130.17,766.846 2132.34,766.846 2134.5,766.846 2136.66,766.846 2138.82,766.846 2140.98,766.846 2143.14,766.846 2145.3,766.846 2147.46,766.846 2149.62,766.846 2151.78,766.846 2153.95,766.846 2156.11,766.846 2158.27,766.846 2160.43,766.846 2162.59,766.846 2164.75,766.846 2166.91,766.846 2169.07,766.846 2171.23,766.846 2173.39,766.846 2175.56,766.846 2177.72,766.846 2179.88,766.846 2182.04,766.846 2184.2,766.846 2186.36,766.846 2188.52,766.846 2190.68,766.846 2192.84,766.846 2195,766.846 2197.17,766.846 2199.33,766.846 2201.49,766.846 2203.65,766.846 2205.81,766.846 2207.97,766.846 2210.13,766.846 2212.29,766.846 2214.45,766.846 2216.61,766.846 2218.78,766.846 2220.94,766.846 2223.1,766.846 2225.26,766.846 2227.42,766.846 2229.58,766.846 2231.74,766.846 2233.9,766.846 2236.06,766.846 2238.22,766.846 2240.38,766.846 2242.55,766.846 2244.71,766.846 2246.87,766.846 2249.03,766.846 2251.19,766.846 2253.35,766.846 2255.51,766.846 2257.67,766.846 2259.83,766.846 2261.99,766.846 2264.16,766.846 2266.32,766.846 2268.48,766.846 2270.64,766.846 2272.8,766.846 2274.96,766.846 2277.12,766.846 2279.28,766.846 2281.44,766.846 2283.6,766.846 2285.77,766.846 2287.93,766.846 2290.09,766.846 2292.25,766.846 2294.41,766.846 2296.57,766.846 2298.73,766.846 2300.89,766.846 2303.05,766.846 2305.21,766.846 2307.38,766.846 2309.54,766.846 2311.7,766.846 2313.86,766.846 2316.02,766.846 2318.18,766.846 2320.34,766.846 2322.5,766.846 2324.66,766.846 2326.82,766.846 2328.99,766.846 2331.15,766.846 2333.31,766.846 2335.47,766.846 2337.63,766.846 2339.79,766.846 2341.95,766.846 2344.11,766.846 2346.27,766.846 2348.43,766.846 2350.59,766.846 2352.76,766.846 "/>
<circle clip-path="url(#clip712)" cx="193.936" cy="754.156" r="14.4" fill="#000000" fill-rule="evenodd" fill-opacity="1" stroke="none"/>
<circle clip-path="url(#clip712)" cx="409.818" cy="782.515" r="14.4" fill="#000000" fill-rule="evenodd" fill-opacity="1" stroke="none"/>
<circle clip-path="url(#clip712)" cx="625.7" cy="779.501" r="14.4" fill="#000000" fill-rule="evenodd" fill-opacity="1" stroke="none"/>
<circle clip-path="url(#clip712)" cx="841.582" cy="757.41" r="14.4" fill="#000000" fill-rule="evenodd" fill-opacity="1" stroke="none"/>
<circle clip-path="url(#clip712)" cx="1057.46" cy="775.75" r="14.4" fill="#000000" fill-rule="evenodd" fill-opacity="1" stroke="none"/>
<circle clip-path="url(#clip712)" cx="1273.35" cy="735.437" r="14.4" fill="#000000" fill-rule="evenodd" fill-opacity="1" stroke="none"/>
<circle clip-path="url(#clip712)" cx="1489.23" cy="747.736" r="14.4" fill="#000000" fill-rule="evenodd" fill-opacity="1" stroke="none"/>
<circle clip-path="url(#clip712)" cx="1705.11" cy="768.18" r="14.4" fill="#000000" fill-rule="evenodd" fill-opacity="1" stroke="none"/>
<circle clip-path="url(#clip712)" cx="1920.99" cy="775.009" r="14.4" fill="#000000" fill-rule="evenodd" fill-opacity="1" stroke="none"/>
<circle clip-path="url(#clip712)" cx="2136.87" cy="766.476" r="14.4" fill="#000000" fill-rule="evenodd" fill-opacity="1" stroke="none"/>
<circle clip-path="url(#clip712)" cx="2352.76" cy="777.269" r="14.4" fill="#000000" fill-rule="evenodd" fill-opacity="1" stroke="none"/>
</svg>
