<?xml version="1.0" encoding="utf-8"?>
<svg xmlns="http://www.w3.org/2000/svg" xmlns:xlink="http://www.w3.org/1999/xlink" width="600" height="400" viewBox="0 0 2400 1600">
<defs>
  <clipPath id="clip470">
    <rect x="0" y="0" width="2400" height="1600"/>
  </clipPath>
</defs>
<path clip-path="url(#clip470)" d="M0 1600 L2400 1600 L2400 0 L0 0  Z" fill="#ffffff" fill-rule="evenodd" fill-opacity="1"/>
<defs>
  <clipPath id="clip471">
    <rect x="480" y="0" width="1681" height="1600"/>
  </clipPath>
</defs>
<path clip-path="url(#clip470)" d="M193.936 1486.45 L2352.76 1486.45 L2352.76 47.2441 L193.936 47.2441  Z" fill="#ffffff" fill-rule="evenodd" fill-opacity="1"/>
<defs>
  <clipPath id="clip472">
    <rect x="193" y="47" width="2160" height="1440"/>
  </clipPath>
</defs>
<polyline clip-path="url(#clip472)" style="stroke:#000000; stroke-linecap:round; stroke-linejoin:round; stroke-width:2; stroke-opacity:0.1; fill:none" points="193.936,1486.45 193.936,47.2441 "/>
<polyline clip-path="url(#clip472)" style="stroke:#000000; stroke-linecap:round; stroke-linejoin:round; stroke-width:2; stroke-opacity:0.1; fill:none" points="733.641,1486.45 733.641,47.2441 "/>
<polyline clip-path="url(#clip472)" style="stroke:#000000; stroke-linecap:round; stroke-linejoin:round; stroke-width:2; stroke-opacity:0.1; fill:none" points="1273.35,1486.45 1273.35,47.2441 "/>
<polyline clip-path="url(#clip472)" style="stroke:#000000; stroke-linecap:round; stroke-linejoin:round; stroke-width:2; stroke-opacity:0.1; fill:none" points="1813.05,1486.45 1813.05,47.2441 "/>
<polyline clip-path="url(#clip472)" style="stroke:#000000; stroke-linecap:round; stroke-linejoin:round; stroke-width:2; stroke-opacity:0.1; fill:none" points="2352.76,1486.45 2352.76,47.2441 "/>
<polyline clip-path="url(#clip472)" style="stroke:#000000; stroke-linecap:round; stroke-linejoin:round; stroke-width:2; stroke-opacity:0.1; fill:none" points="193.936,1486.45 2352.76,1486.45 "/>
<polyline clip-path="url(#clip472)" style="stroke:#000000; stroke-linecap:round; stroke-linejoin:round; stroke-width:2; stroke-opacity:0.1; fill:none" points="193.936,1126.65 2352.76,1126.65 "/>
<polyline clip-path="url(#clip472)" style="stroke:#000000; stroke-linecap:round; stroke-linejoin:round; stroke-width:2; stroke-opacity:0.1; fill:none" points="193.936,766.846 2352.76,766.846 "/>
<polyline clip-path="url(#clip472)" style="stroke:#000000; stroke-linecap:round; stroke-linejoin:round; stroke-width:2; stroke-opacity:0.1; fill:none" points="193.936,407.045 2352.76,407.045 "/>
<polyline clip-path="url(#clip472)" style="stroke:#000000; stroke-linecap:round; stroke-linejoin:round; stroke-width:2; stroke-opacity:0.1; fill:none" points="193.936,47.2441 2352.76,47.2441 "/>
<polyline clip-path="url(#clip470)" style="stroke:#000000; stroke-linecap:round; stroke-linejoin:round; stroke-width:4; stroke-opacity:1; fill:none" points="193.936,1486.45 2352.76,1486.45 "/>
<polyline clip-path="url(#clip470)" style="stroke:#000000; stroke-linecap:round; stroke-linejoin:round; stroke-width:4; stroke-opacity:1; fill:none" points="193.936,1486.45 193.936,1467.55 "/>
<polyline clip-path="url(#clip470)" style="stroke:#000000; stroke-linecap:round; stroke-linejoin:round; stroke-width:4; stroke-opacity:1; fill:none" points="733.641,1486.45 733.641,1467.55 "/>
<polyline clip-path="url(#clip470)" style="stroke:#000000; stroke-linecap:round; stroke-linejoin:round; stroke-width:4; stroke-opacity:1; fill:none" points="1273.35,1486.45 1273.35,1467.55 "/>
<polyline clip-path="url(#clip470)" style="stroke:#000000; stroke-linecap:round; stroke-linejoin:round; stroke-width:4; stroke-opacity:1; fill:none" points="1813.05,1486.45 1813.05,1467.55 "/>
<polyline clip-path="url(#clip470)" style="stroke:#000000; stroke-linecap:round; stroke-linejoin:round; stroke-width:4; stroke-opacity:1; fill:none" points="2352.76,1486.45 2352.76,1467.55 "/>
<path clip-path="url(#clip470)" d="M140.464 1532.02 L170.14 1532.02 L170.14 1535.95 L140.464 1535.95 L140.464 1532.02 Z" fill="#000000" fill-rule="nonzero" fill-opacity="1" /><path clip-path="url(#clip470)" d="M180.279 1514.29 L198.635 1514.29 L198.635 1518.22 L184.561 1518.22 L184.561 1526.7 Q185.58 1526.35 186.598 1526.19 Q187.617 1526 188.635 1526 Q194.422 1526 197.802 1529.17 Q201.181 1532.34 201.181 1537.76 Q201.181 1543.34 197.709 1546.44 Q194.237 1549.52 187.918 1549.52 Q185.742 1549.52 183.473 1549.15 Q181.228 1548.78 178.82 1548.04 L178.82 1543.34 Q180.904 1544.47 183.126 1545.03 Q185.348 1545.58 187.825 1545.58 Q191.83 1545.58 194.167 1543.48 Q196.505 1541.37 196.505 1537.76 Q196.505 1534.15 194.167 1532.04 Q191.83 1529.94 187.825 1529.94 Q185.95 1529.94 184.075 1530.35 Q182.223 1530.77 180.279 1531.65 L180.279 1514.29 Z" fill="#000000" fill-rule="nonzero" fill-opacity="1" /><path clip-path="url(#clip470)" d="M210.394 1542.97 L215.278 1542.97 L215.278 1548.85 L210.394 1548.85 L210.394 1542.97 Z" fill="#000000" fill-rule="nonzero" fill-opacity="1" /><path clip-path="url(#clip470)" d="M235.464 1517.37 Q231.852 1517.37 230.024 1520.93 Q228.218 1524.47 228.218 1531.6 Q228.218 1538.71 230.024 1542.27 Q231.852 1545.82 235.464 1545.82 Q239.098 1545.82 240.903 1542.27 Q242.732 1538.71 242.732 1531.6 Q242.732 1524.47 240.903 1520.93 Q239.098 1517.37 235.464 1517.37 M235.464 1513.66 Q241.274 1513.66 244.329 1518.27 Q247.408 1522.85 247.408 1531.6 Q247.408 1540.33 244.329 1544.94 Q241.274 1549.52 235.464 1549.52 Q229.653 1549.52 226.575 1544.94 Q223.519 1540.33 223.519 1531.6 Q223.519 1522.85 226.575 1518.27 Q229.653 1513.66 235.464 1513.66 Z" fill="#000000" fill-rule="nonzero" fill-opacity="1" /><path clip-path="url(#clip470)" d="M680.667 1532.02 L710.342 1532.02 L710.342 1535.95 L680.667 1535.95 L680.667 1532.02 Z" fill="#000000" fill-rule="nonzero" fill-opacity="1" /><path clip-path="url(#clip470)" d="M724.463 1544.91 L740.782 1544.91 L740.782 1548.85 L718.838 1548.85 L718.838 1544.91 Q721.5 1542.16 726.083 1537.53 Q730.69 1532.88 731.87 1531.53 Q734.116 1529.01 734.995 1527.27 Q735.898 1525.51 735.898 1523.82 Q735.898 1521.07 733.953 1519.33 Q732.032 1517.6 728.93 1517.6 Q726.731 1517.6 724.278 1518.36 Q721.847 1519.13 719.069 1520.68 L719.069 1515.95 Q721.893 1514.82 724.347 1514.24 Q726.801 1513.66 728.838 1513.66 Q734.208 1513.66 737.403 1516.35 Q740.597 1519.03 740.597 1523.52 Q740.597 1525.65 739.787 1527.57 Q739 1529.47 736.893 1532.07 Q736.315 1532.74 733.213 1535.95 Q730.111 1539.15 724.463 1544.91 Z" fill="#000000" fill-rule="nonzero" fill-opacity="1" /><path clip-path="url(#clip470)" d="M750.597 1542.97 L755.481 1542.97 L755.481 1548.85 L750.597 1548.85 L750.597 1542.97 Z" fill="#000000" fill-rule="nonzero" fill-opacity="1" /><path clip-path="url(#clip470)" d="M765.713 1514.29 L784.069 1514.29 L784.069 1518.22 L769.995 1518.22 L769.995 1526.7 Q771.013 1526.35 772.032 1526.19 Q773.05 1526 774.069 1526 Q779.856 1526 783.236 1529.17 Q786.615 1532.34 786.615 1537.76 Q786.615 1543.34 783.143 1546.44 Q779.671 1549.52 773.351 1549.52 Q771.175 1549.52 768.907 1549.15 Q766.662 1548.78 764.254 1548.04 L764.254 1543.34 Q766.338 1544.47 768.56 1545.03 Q770.782 1545.58 773.259 1545.58 Q777.263 1545.58 779.601 1543.48 Q781.939 1541.37 781.939 1537.76 Q781.939 1534.15 779.601 1532.04 Q777.263 1529.94 773.259 1529.94 Q771.384 1529.94 769.509 1530.35 Q767.657 1530.77 765.713 1531.65 L765.713 1514.29 Z" fill="#000000" fill-rule="nonzero" fill-opacity="1" /><path clip-path="url(#clip470)" d="M1250.73 1517.37 Q1247.12 1517.37 1245.29 1520.93 Q1243.49 1524.47 1243.49 1531.6 Q1243.49 1538.71 1245.29 1542.27 Q1247.12 1545.82 1250.73 1545.82 Q1254.36 1545.82 1256.17 1542.27 Q1258 1538.71 1258 1531.6 Q1258 1524.47 1256.17 1520.93 Q1254.36 1517.37 1250.73 1517.37 M1250.73 1513.66 Q1256.54 1513.66 1259.6 1518.27 Q1262.67 1522.85 1262.67 1531.6 Q1262.67 1540.33 1259.6 1544.94 Q1256.54 1549.52 1250.73 1549.52 Q1244.92 1549.52 1241.84 1544.94 Q1238.79 1540.33 1238.79 1531.6 Q1238.79 1522.85 1241.84 1518.27 Q1244.92 1513.66 1250.73 1513.66 Z" fill="#000000" fill-rule="nonzero" fill-opacity="1" /><path clip-path="url(#clip470)" d="M1270.89 1542.97 L1275.78 1542.97 L1275.78 1548.85 L1270.89 1548.85 L1270.89 1542.97 Z" fill="#000000" fill-rule="nonzero" fill-opacity="1" /><path clip-path="url(#clip470)" d="M1295.96 1517.37 Q1292.35 1517.37 1290.52 1520.93 Q1288.72 1524.47 1288.72 1531.6 Q1288.72 1538.71 1290.52 1542.27 Q1292.35 1545.82 1295.96 1545.82 Q1299.6 1545.82 1301.4 1542.27 Q1303.23 1538.71 1303.23 1531.6 Q1303.23 1524.47 1301.4 1520.93 Q1299.6 1517.37 1295.96 1517.37 M1295.96 1513.66 Q1301.77 1513.66 1304.83 1518.27 Q1307.91 1522.85 1307.91 1531.6 Q1307.91 1540.33 1304.83 1544.94 Q1301.77 1549.52 1295.96 1549.52 Q1290.15 1549.52 1287.07 1544.94 Q1284.02 1540.33 1284.02 1531.6 Q1284.02 1522.85 1287.07 1518.27 Q1290.15 1513.66 1295.96 1513.66 Z" fill="#000000" fill-rule="nonzero" fill-opacity="1" /><path clip-path="url(#clip470)" d="M1784.79 1544.91 L1801.11 1544.91 L1801.11 1548.85 L1779.16 1548.85 L1779.16 1544.91 Q1781.82 1542.16 1786.41 1537.53 Q1791.01 1532.88 1792.19 1531.53 Q1794.44 1529.01 1795.32 1527.27 Q1796.22 1525.51 1796.22 1523.82 Q1796.22 1521.07 1794.28 1519.33 Q1792.36 1517.6 1789.25 1517.6 Q1787.06 1517.6 1784.6 1518.36 Q1782.17 1519.13 1779.39 1520.68 L1779.39 1515.95 Q1782.22 1514.82 1784.67 1514.24 Q1787.13 1513.66 1789.16 1513.66 Q1794.53 1513.66 1797.73 1516.35 Q1800.92 1519.03 1800.92 1523.52 Q1800.92 1525.65 1800.11 1527.57 Q1799.32 1529.47 1797.22 1532.07 Q1796.64 1532.74 1793.54 1535.95 Q1790.44 1539.15 1784.79 1544.91 Z" fill="#000000" fill-rule="nonzero" fill-opacity="1" /><path clip-path="url(#clip470)" d="M1810.92 1542.97 L1815.81 1542.97 L1815.81 1548.85 L1810.92 1548.85 L1810.92 1542.97 Z" fill="#000000" fill-rule="nonzero" fill-opacity="1" /><path clip-path="url(#clip470)" d="M1826.04 1514.29 L1844.39 1514.29 L1844.39 1518.22 L1830.32 1518.22 L1830.32 1526.7 Q1831.34 1526.35 1832.36 1526.19 Q1833.37 1526 1834.39 1526 Q1840.18 1526 1843.56 1529.17 Q1846.94 1532.34 1846.94 1537.76 Q1846.94 1543.34 1843.47 1546.44 Q1840 1549.52 1833.68 1549.52 Q1831.5 1549.52 1829.23 1549.15 Q1826.99 1548.78 1824.58 1548.04 L1824.58 1543.34 Q1826.66 1544.47 1828.88 1545.03 Q1831.11 1545.58 1833.58 1545.58 Q1837.59 1545.58 1839.93 1543.48 Q1842.26 1541.37 1842.26 1537.76 Q1842.26 1534.15 1839.93 1532.04 Q1837.59 1529.94 1833.58 1529.94 Q1831.71 1529.94 1829.83 1530.35 Q1827.98 1530.77 1826.04 1531.65 L1826.04 1514.29 Z" fill="#000000" fill-rule="nonzero" fill-opacity="1" /><path clip-path="url(#clip470)" d="M2319.92 1514.29 L2338.28 1514.29 L2338.28 1518.22 L2324.2 1518.22 L2324.2 1526.7 Q2325.22 1526.35 2326.24 1526.19 Q2327.26 1526 2328.28 1526 Q2334.06 1526 2337.44 1529.17 Q2340.82 1532.34 2340.82 1537.76 Q2340.82 1543.34 2337.35 1546.44 Q2333.88 1549.52 2327.56 1549.52 Q2325.38 1549.52 2323.11 1549.15 Q2320.87 1548.78 2318.46 1548.04 L2318.46 1543.34 Q2320.55 1544.47 2322.77 1545.03 Q2324.99 1545.58 2327.47 1545.58 Q2331.47 1545.58 2333.81 1543.48 Q2336.15 1541.37 2336.15 1537.76 Q2336.15 1534.15 2333.81 1532.04 Q2331.47 1529.94 2327.47 1529.94 Q2325.59 1529.94 2323.72 1530.35 Q2321.86 1530.77 2319.92 1531.65 L2319.92 1514.29 Z" fill="#000000" fill-rule="nonzero" fill-opacity="1" /><path clip-path="url(#clip470)" d="M2350.04 1542.97 L2354.92 1542.97 L2354.92 1548.85 L2350.04 1548.85 L2350.04 1542.97 Z" fill="#000000" fill-rule="nonzero" fill-opacity="1" /><path clip-path="url(#clip470)" d="M2375.11 1517.37 Q2371.49 1517.37 2369.67 1520.93 Q2367.86 1524.47 2367.86 1531.6 Q2367.86 1538.71 2369.67 1542.27 Q2371.49 1545.82 2375.11 1545.82 Q2378.74 1545.82 2380.55 1542.27 Q2382.37 1538.71 2382.37 1531.6 Q2382.37 1524.47 2380.55 1520.93 Q2378.74 1517.37 2375.11 1517.37 M2375.11 1513.66 Q2380.92 1513.66 2383.97 1518.27 Q2387.05 1522.85 2387.05 1531.6 Q2387.05 1540.33 2383.97 1544.94 Q2380.92 1549.52 2375.11 1549.52 Q2369.3 1549.52 2366.22 1544.94 Q2363.16 1540.33 2363.16 1531.6 Q2363.16 1522.85 2366.22 1518.27 Q2369.3 1513.66 2375.11 1513.66 Z" fill="#000000" fill-rule="nonzero" fill-opacity="1" /><polyline clip-path="url(#clip470)" style="stroke:#000000; stroke-linecap:round; stroke-linejoin:round; stroke-width:4; stroke-opacity:1; fill:none" points="193.936,1486.45 193.936,47.2441 "/>
<polyline clip-path="url(#clip470)" style="stroke:#000000; stroke-linecap:round; stroke-linejoin:round; stroke-width:4; stroke-opacity:1; fill:none" points="193.936,1486.45 212.834,1486.45 "/>
<polyline clip-path="url(#clip470)" style="stroke:#000000; stroke-linecap:round; stroke-linejoin:round; stroke-width:4; stroke-opacity:1; fill:none" points="193.936,1126.65 212.834,1126.65 "/>
<polyline clip-path="url(#clip470)" style="stroke:#000000; stroke-linecap:round; stroke-linejoin:round; stroke-width:4; stroke-opacity:1; fill:none" points="193.936,766.846 212.834,766.846 "/>
<polyline clip-path="url(#clip470)" style="stroke:#000000; stroke-linecap:round; stroke-linejoin:round; stroke-width:4; stroke-opacity:1; fill:none" points="193.936,407.045 212.834,407.045 "/>
<polyline clip-path="url(#clip470)" style="stroke:#000000; stroke-linecap:round; stroke-linejoin:round; stroke-width:4; stroke-opacity:1; fill:none" points="193.936,47.2441 212.834,47.2441 "/>
<path clip-path="url(#clip470)" d="M50.9921 1486.9 L80.6679 1486.9 L80.6679 1490.83 L50.9921 1490.83 L50.9921 1486.9 Z" fill="#000000" fill-rule="nonzero" fill-opacity="1" /><path clip-path="url(#clip470)" d="M90.8067 1469.17 L109.163 1469.17 L109.163 1473.1 L95.0891 1473.1 L95.0891 1481.58 Q96.1076 1481.23 97.1261 1481.07 Q98.1447 1480.88 99.1632 1480.88 Q104.95 1480.88 108.33 1484.05 Q111.709 1487.22 111.709 1492.64 Q111.709 1498.22 108.237 1501.32 Q104.765 1504.4 98.4456 1504.4 Q96.2697 1504.4 94.0012 1504.03 Q91.7558 1503.66 89.3484 1502.92 L89.3484 1498.22 Q91.4317 1499.35 93.6539 1499.91 Q95.8761 1500.46 98.353 1500.46 Q102.358 1500.46 104.696 1498.36 Q107.033 1496.25 107.033 1492.64 Q107.033 1489.03 104.696 1486.92 Q102.358 1484.82 98.353 1484.82 Q96.478 1484.82 94.603 1485.23 Q92.7512 1485.65 90.8067 1486.53 L90.8067 1469.17 Z" fill="#000000" fill-rule="nonzero" fill-opacity="1" /><path clip-path="url(#clip470)" d="M120.922 1497.85 L125.807 1497.85 L125.807 1503.73 L120.922 1503.73 L120.922 1497.85 Z" fill="#000000" fill-rule="nonzero" fill-opacity="1" /><path clip-path="url(#clip470)" d="M145.992 1472.25 Q142.381 1472.25 140.552 1475.81 Q138.746 1479.35 138.746 1486.48 Q138.746 1493.59 140.552 1497.15 Q142.381 1500.7 145.992 1500.7 Q149.626 1500.7 151.431 1497.15 Q153.26 1493.59 153.26 1486.48 Q153.26 1479.35 151.431 1475.81 Q149.626 1472.25 145.992 1472.25 M145.992 1468.54 Q151.802 1468.54 154.857 1473.15 Q157.936 1477.73 157.936 1486.48 Q157.936 1495.21 154.857 1499.82 Q151.802 1504.4 145.992 1504.4 Q140.181 1504.4 137.103 1499.82 Q134.047 1495.21 134.047 1486.48 Q134.047 1477.73 137.103 1473.15 Q140.181 1468.54 145.992 1468.54 Z" fill="#000000" fill-rule="nonzero" fill-opacity="1" /><path clip-path="url(#clip470)" d="M51.9875 1127.1 L81.6633 1127.1 L81.6633 1131.03 L51.9875 1131.03 L51.9875 1127.1 Z" fill="#000000" fill-rule="nonzero" fill-opacity="1" /><path clip-path="url(#clip470)" d="M95.7836 1139.99 L112.103 1139.99 L112.103 1143.93 L90.1586 1143.93 L90.1586 1139.99 Q92.8206 1137.24 97.4039 1132.61 Q102.01 1127.95 103.191 1126.61 Q105.436 1124.09 106.316 1122.35 Q107.219 1120.59 107.219 1118.9 Q107.219 1116.15 105.274 1114.41 Q103.353 1112.68 100.251 1112.68 Q98.0521 1112.68 95.5984 1113.44 Q93.1678 1114.2 90.3901 1115.76 L90.3901 1111.03 Q93.2141 1109.9 95.6678 1109.32 Q98.1215 1108.74 100.159 1108.74 Q105.529 1108.74 108.723 1111.43 Q111.918 1114.11 111.918 1118.6 Q111.918 1120.73 111.108 1122.65 Q110.321 1124.55 108.214 1127.14 Q107.635 1127.82 104.534 1131.03 Q101.432 1134.23 95.7836 1139.99 Z" fill="#000000" fill-rule="nonzero" fill-opacity="1" /><path clip-path="url(#clip470)" d="M121.918 1138.05 L126.802 1138.05 L126.802 1143.93 L121.918 1143.93 L121.918 1138.05 Z" fill="#000000" fill-rule="nonzero" fill-opacity="1" /><path clip-path="url(#clip470)" d="M137.033 1109.37 L155.39 1109.37 L155.39 1113.3 L141.316 1113.3 L141.316 1121.77 Q142.334 1121.43 143.353 1121.27 Q144.371 1121.08 145.39 1121.08 Q151.177 1121.08 154.556 1124.25 Q157.936 1127.42 157.936 1132.84 Q157.936 1138.42 154.464 1141.52 Q150.992 1144.6 144.672 1144.6 Q142.496 1144.6 140.228 1144.23 Q137.982 1143.86 135.575 1143.12 L135.575 1138.42 Q137.658 1139.55 139.881 1140.11 Q142.103 1140.66 144.58 1140.66 Q148.584 1140.66 150.922 1138.56 Q153.26 1136.45 153.26 1132.84 Q153.26 1129.23 150.922 1127.12 Q148.584 1125.01 144.58 1125.01 Q142.705 1125.01 140.83 1125.43 Q138.978 1125.85 137.033 1126.73 L137.033 1109.37 Z" fill="#000000" fill-rule="nonzero" fill-opacity="1" /><path clip-path="url(#clip470)" d="M100.76 752.645 Q97.1493 752.645 95.3206 756.209 Q93.515 759.751 93.515 766.881 Q93.515 773.987 95.3206 777.552 Q97.1493 781.094 100.76 781.094 Q104.395 781.094 106.2 777.552 Q108.029 773.987 108.029 766.881 Q108.029 759.751 106.2 756.209 Q104.395 752.645 100.76 752.645 M100.76 748.941 Q106.571 748.941 109.626 753.547 Q112.705 758.131 112.705 766.881 Q112.705 775.608 109.626 780.214 Q106.571 784.797 100.76 784.797 Q94.9502 784.797 91.8715 780.214 Q88.816 775.608 88.816 766.881 Q88.816 758.131 91.8715 753.547 Q94.9502 748.941 100.76 748.941 Z" fill="#000000" fill-rule="nonzero" fill-opacity="1" /><path clip-path="url(#clip470)" d="M120.922 778.246 L125.807 778.246 L125.807 784.126 L120.922 784.126 L120.922 778.246 Z" fill="#000000" fill-rule="nonzero" fill-opacity="1" /><path clip-path="url(#clip470)" d="M145.992 752.645 Q142.381 752.645 140.552 756.209 Q138.746 759.751 138.746 766.881 Q138.746 773.987 140.552 777.552 Q142.381 781.094 145.992 781.094 Q149.626 781.094 151.431 777.552 Q153.26 773.987 153.26 766.881 Q153.26 759.751 151.431 756.209 Q149.626 752.645 145.992 752.645 M145.992 748.941 Q151.802 748.941 154.857 753.547 Q157.936 758.131 157.936 766.881 Q157.936 775.608 154.857 780.214 Q151.802 784.797 145.992 784.797 Q140.181 784.797 137.103 780.214 Q134.047 775.608 134.047 766.881 Q134.047 758.131 137.103 753.547 Q140.181 748.941 145.992 748.941 Z" fill="#000000" fill-rule="nonzero" fill-opacity="1" /><path clip-path="url(#clip470)" d="M95.7836 420.39 L112.103 420.39 L112.103 424.325 L90.1586 424.325 L90.1586 420.39 Q92.8206 417.635 97.4039 413.006 Q102.01 408.353 103.191 407.01 Q105.436 404.487 106.316 402.751 Q107.219 400.992 107.219 399.302 Q107.219 396.547 105.274 394.811 Q103.353 393.075 100.251 393.075 Q98.0521 393.075 95.5984 393.839 Q93.1678 394.603 90.3901 396.154 L90.3901 391.432 Q93.2141 390.297 95.6678 389.719 Q98.1215 389.14 100.159 389.14 Q105.529 389.14 108.723 391.825 Q111.918 394.51 111.918 399.001 Q111.918 401.131 111.108 403.052 Q110.321 404.95 108.214 407.543 Q107.635 408.214 104.534 411.432 Q101.432 414.626 95.7836 420.39 Z" fill="#000000" fill-rule="nonzero" fill-opacity="1" /><path clip-path="url(#clip470)" d="M121.918 418.445 L126.802 418.445 L126.802 424.325 L121.918 424.325 L121.918 418.445 Z" fill="#000000" fill-rule="nonzero" fill-opacity="1" /><path clip-path="url(#clip470)" d="M137.033 389.765 L155.39 389.765 L155.39 393.7 L141.316 393.7 L141.316 402.172 Q142.334 401.825 143.353 401.663 Q144.371 401.478 145.39 401.478 Q151.177 401.478 154.556 404.649 Q157.936 407.82 157.936 413.237 Q157.936 418.816 154.464 421.918 Q150.992 424.996 144.672 424.996 Q142.496 424.996 140.228 424.626 Q137.982 424.256 135.575 423.515 L135.575 418.816 Q137.658 419.95 139.881 420.506 Q142.103 421.061 144.58 421.061 Q148.584 421.061 150.922 418.955 Q153.26 416.848 153.26 413.237 Q153.26 409.626 150.922 407.52 Q148.584 405.413 144.58 405.413 Q142.705 405.413 140.83 405.83 Q138.978 406.246 137.033 407.126 L137.033 389.765 Z" fill="#000000" fill-rule="nonzero" fill-opacity="1" /><path clip-path="url(#clip470)" d="M90.8067 29.9641 L109.163 29.9641 L109.163 33.8993 L95.0891 33.8993 L95.0891 42.3714 Q96.1076 42.0242 97.1261 41.8622 Q98.1447 41.677 99.1632 41.677 Q104.95 41.677 108.33 44.8483 Q111.709 48.0196 111.709 53.4362 Q111.709 59.0149 108.237 62.1167 Q104.765 65.1954 98.4456 65.1954 Q96.2697 65.1954 94.0012 64.825 Q91.7558 64.4547 89.3484 63.7139 L89.3484 59.0149 Q91.4317 60.1491 93.6539 60.7047 Q95.8761 61.2602 98.353 61.2602 Q102.358 61.2602 104.696 59.1538 Q107.033 57.0473 107.033 53.4362 Q107.033 49.8251 104.696 47.7186 Q102.358 45.6122 98.353 45.6122 Q96.478 45.6122 94.603 46.0288 Q92.7512 46.4455 90.8067 47.3251 L90.8067 29.9641 Z" fill="#000000" fill-rule="nonzero" fill-opacity="1" /><path clip-path="url(#clip470)" d="M120.922 58.6445 L125.807 58.6445 L125.807 64.5241 L120.922 64.5241 L120.922 58.6445 Z" fill="#000000" fill-rule="nonzero" fill-opacity="1" /><path clip-path="url(#clip470)" d="M145.992 33.0428 Q142.381 33.0428 140.552 36.6076 Q138.746 40.1492 138.746 47.2788 Q138.746 54.3853 140.552 57.9501 Q142.381 61.4917 145.992 61.4917 Q149.626 61.4917 151.431 57.9501 Q153.26 54.3853 153.26 47.2788 Q153.26 40.1492 151.431 36.6076 Q149.626 33.0428 145.992 33.0428 M145.992 29.3391 Q151.802 29.3391 154.857 33.9456 Q157.936 38.5289 157.936 47.2788 Q157.936 56.0056 154.857 60.6121 Q151.802 65.1954 145.992 65.1954 Q140.181 65.1954 137.103 60.6121 Q134.047 56.0056 134.047 47.2788 Q134.047 38.5289 137.103 33.9456 Q140.181 29.3391 145.992 29.3391 Z" fill="#000000" fill-rule="nonzero" fill-opacity="1" /><polyline clip-path="url(#clip472)" style="stroke:#000000; stroke-linecap:round; stroke-linejoin:round; stroke-width:4; stroke-opacity:0.5; fill:none" points="193.936,-134.869 196.097,-133.673 198.258,-132.476 200.419,-131.28 202.58,-130.083 204.741,-128.887 206.902,-127.69 209.063,-126.494 211.224,-125.297 213.385,-124.1 215.546,-122.904 217.707,-121.707 219.868,-120.511 222.029,-119.314 224.19,-118.118 226.351,-116.921 228.512,-115.725 230.673,-114.528 232.834,-113.331 234.995,-112.135 237.156,-110.938 239.317,-109.742 241.478,-108.545 243.639,-107.349 245.8,-106.152 247.961,-104.956 250.122,-103.759 252.282,-102.563 254.443,-101.366 256.604,-100.169 258.765,-98.9728 260.926,-97.7763 263.087,-96.5797 265.248,-95.3832 267.409,-94.1866 269.57,-92.9901 271.731,-91.7935 273.892,-90.597 276.053,-89.4004 278.214,-88.2038 280.375,-87.0073 282.536,-85.8107 284.697,-84.6142 286.858,-83.4176 289.019,-82.2211 291.18,-81.0245 293.341,-79.828 295.502,-78.6314 297.663,-77.4349 299.824,-76.2383 301.985,-75.0417 304.146,-73.8452 306.307,-72.6486 308.468,-71.4521 310.629,-70.2555 312.79,-69.059 314.951,-67.8624 317.112,-66.6659 319.273,-65.4693 321.434,-64.2728 323.595,-63.0762 325.756,-61.8796 327.917,-60.6831 330.078,-59.4865 332.239,-58.29 334.4,-57.0934 336.561,-55.8969 338.722,-54.7003 340.883,-53.5038 343.044,-52.3072 345.205,-51.1106 347.366,-49.9141 349.527,-48.7175 351.688,-47.521 353.849,-46.3244 356.01,-45.1279 358.171,-43.9313 360.332,-42.7348 362.493,-41.5382 364.653,-40.3417 366.814,-39.1451 368.975,-37.9485 371.136,-36.752 373.297,-35.5554 375.458,-34.3589 377.619,-33.1623 379.78,-31.9658 381.941,-30.7692 384.102,-29.5727 386.263,-28.3761 388.424,-27.1796 390.585,-25.983 392.746,-24.7864 394.907,-23.5899 397.068,-22.3933 399.229,-21.1968 401.39,-20.0002 403.551,-18.8037 405.712,-17.6071 407.873,-16.4106 410.034,-15.214 412.195,-14.0175 414.356,-12.8209 416.517,-11.6243 418.678,-10.4278 420.839,-9.23123 423,-8.03468 425.161,-6.83812 427.322,-5.64157 429.483,-4.44501 431.644,-3.24846 433.805,-2.0519 435.966,-0.855349 438.127,0.341206 440.288,1.53776 442.449,2.73432 444.61,3.93087 446.771,5.12743 448.932,6.32398 451.093,7.52053 453.254,8.71709 455.415,9.91364 457.576,11.1102 459.737,12.3068 461.898,13.5033 464.059,14.6999 466.22,15.8964 468.381,17.093 470.542,18.2895 472.703,19.4861 474.864,20.6826 477.024,21.8792 479.185,23.0757 481.346,24.2723 483.507,25.4689 485.668,26.6654 487.829,27.862 489.99,29.0585 492.151,30.2551 494.312,31.4516 496.473,32.6482 498.634,33.8447 500.795,35.0413 502.956,36.2378 505.117,37.4344 507.278,38.631 509.439,39.8275 511.6,41.0241 513.761,42.2206 515.922,43.4172 518.083,44.6137 520.244,45.8103 522.405,47.0068 524.566,48.2034 526.727,49.4 528.888,50.5965 531.049,51.7931 533.21,52.9896 535.371,54.1862 537.532,55.3827 539.693,56.5793 541.854,57.7758 544.015,58.9724 546.176,60.1689 548.337,61.3655 550.498,62.5621 552.659,63.7586 554.82,64.9552 556.981,66.1517 559.142,67.3483 561.303,68.5448 563.464,69.7414 565.625,70.9379 567.786,72.1345 569.947,73.331 572.108,74.5276 574.269,75.7242 576.43,76.9207 578.591,78.1173 580.752,79.3138 582.913,80.5104 585.074,81.7069 587.235,82.9035 589.396,84.1 591.556,85.2966 593.717,86.4932 595.878,87.6897 598.039,88.8863 600.2,90.0828 602.361,91.2794 604.522,92.4759 606.683,93.6725 608.844,94.869 611.005,96.0656 613.166,97.2621 615.327,98.4587 617.488,99.6553 619.649,100.852 621.81,102.048 623.971,103.245 626.132,104.441 628.293,105.638 630.454,106.835 632.615,108.031 634.776,109.228 636.937,110.424 639.098,111.621 641.259,112.817 643.42,114.014 645.581,115.21 647.742,116.407 649.903,117.604 652.064,118.8 654.225,119.997 656.386,121.193 658.547,122.39 660.708,123.586 662.869,124.783 665.03,125.979 667.191,127.176 669.352,128.373 671.513,129.569 673.674,130.766 675.835,131.962 677.996,133.159 680.157,134.355 682.318,135.552 684.479,136.748 686.64,137.945 688.801,139.142 690.962,140.338 693.123,141.535 695.284,142.731 697.445,143.928 699.606,145.124 701.767,146.321 703.927,147.517 706.088,148.714 708.249,149.911 710.41,151.107 712.571,152.304 714.732,153.5 716.893,154.697 719.054,155.893 721.215,157.09 723.376,158.286 725.537,159.483 727.698,160.68 729.859,161.876 732.02,163.073 734.181,164.269 736.342,165.466 738.503,166.662 740.664,167.859 742.825,169.055 744.986,170.252 747.147,171.449 749.308,172.645 751.469,173.842 753.63,175.038 755.791,176.235 757.952,177.431 760.113,178.628 762.274,179.824 764.435,181.021 766.596,182.218 768.757,183.414 770.918,184.611 773.079,185.807 775.24,187.004 777.401,188.2 779.562,189.397 781.723,190.593 783.884,191.79 786.045,192.987 788.206,194.183 790.367,195.38 792.528,196.576 794.689,197.773 796.85,198.969 799.011,200.166 801.172,201.362 803.333,202.559 805.494,203.756 807.655,204.952 809.816,206.149 811.977,207.345 814.138,208.542 816.298,209.738 818.459,210.935 820.62,212.131 822.781,213.328 824.942,214.525 827.103,215.721 829.264,216.918 831.425,218.114 833.586,219.311 835.747,220.507 837.908,221.704 840.069,222.9 842.23,224.097 844.391,225.294 846.552,226.49 848.713,227.687 850.874,228.883 853.035,230.08 855.196,231.276 857.357,232.473 859.518,233.669 861.679,234.866 863.84,236.062 866.001,237.259 868.162,238.456 870.323,239.652 872.484,240.849 874.645,242.045 876.806,243.242 878.967,244.438 881.128,245.635 883.289,246.831 885.45,248.028 887.611,249.225 889.772,250.421 891.933,251.618 894.094,252.814 896.255,254.011 898.416,255.207 900.577,256.404 902.738,257.6 904.899,258.797 907.06,259.994 909.221,261.19 911.382,262.387 913.543,263.583 915.704,264.78 917.865,265.976 920.026,267.173 922.187,268.369 924.348,269.566 926.509,270.763 928.669,271.959 930.83,273.156 932.991,274.352 935.152,275.549 937.313,276.745 939.474,277.942 941.635,279.138 943.796,280.335 945.957,281.532 948.118,282.728 950.279,283.925 952.44,285.121 954.601,286.318 956.762,287.514 958.923,288.711 961.084,289.907 963.245,291.104 965.406,292.301 967.567,293.497 969.728,294.694 971.889,295.89 974.05,297.087 976.211,298.283 978.372,299.48 980.533,300.676 982.694,301.873 984.855,303.07 987.016,304.266 989.177,305.463 991.338,306.659 993.499,307.856 995.66,309.052 997.821,310.249 999.982,311.445 1002.14,312.642 1004.3,313.839 1006.46,315.035 1008.63,316.232 1010.79,317.428 1012.95,318.625 1015.11,319.821 1017.27,321.018 1019.43,322.214 1021.59,323.411 1023.75,324.608 1025.91,325.804 1028.07,327.001 1030.24,328.197 1032.4,329.394 1034.56,330.59 1036.72,331.787 1038.88,332.983 1041.04,334.18 1043.2,335.377 1045.36,336.573 1047.52,337.77 1049.68,338.966 1051.85,340.163 1054.01,341.359 1056.17,342.556 1058.33,343.752 1060.49,344.949 1062.65,346.146 1064.81,347.342 1066.97,348.539 1069.13,349.735 1071.29,350.932 1073.46,352.128 1075.62,353.325 1077.78,354.521 1079.94,355.718 1082.1,356.915 1084.26,358.111 1086.42,359.308 1088.58,360.504 1090.74,361.701 1092.9,362.897 1095.07,364.094 1097.23,365.29 1099.39,366.487 1101.55,367.684 1103.71,368.88 1105.87,370.077 1108.03,371.273 1110.19,372.47 1112.35,373.666 1114.51,374.863 1116.67,376.059 1118.84,377.256 1121,378.453 1123.16,379.649 1125.32,380.846 1127.48,382.042 1129.64,383.239 1131.8,384.435 1133.96,385.632 1136.12,386.828 1138.28,388.025 1140.45,389.222 1142.61,390.418 1144.77,391.615 1146.93,392.811 1149.09,394.008 1151.25,395.204 1153.41,396.401 1155.57,397.597 1157.73,398.794 1159.89,399.991 1162.06,401.187 1164.22,402.384 1166.38,403.58 1168.54,404.777 1170.7,405.973 1172.86,407.17 1175.02,408.366 1177.18,409.563 1179.34,410.759 1181.5,411.956 1183.67,413.153 1185.83,414.349 1187.99,415.546 1190.15,416.742 1192.31,417.939 1194.47,419.135 1196.63,420.332 1198.79,421.528 1200.95,422.725 1203.11,423.922 1205.28,425.118 1207.44,426.315 1209.6,427.511 1211.76,428.708 1213.92,429.904 1216.08,431.101 1218.24,432.297 1220.4,433.494 1222.56,434.691 1224.72,435.887 1226.88,437.084 1229.05,438.28 1231.21,439.477 1233.37,440.673 1235.53,441.87 1237.69,443.066 1239.85,444.263 1242.01,445.46 1244.17,446.656 1246.33,447.853 1248.49,449.049 1250.66,450.246 1252.82,451.442 1254.98,452.639 1257.14,453.835 1259.3,455.032 1261.46,456.229 1263.62,457.425 1265.78,458.622 1267.94,459.818 1270.1,461.015 1272.27,462.211 1274.43,463.408 1276.59,464.604 1278.75,465.801 1280.91,466.998 1283.07,468.194 1285.23,469.391 1287.39,470.587 1289.55,471.784 1291.71,472.98 1293.88,474.177 1296.04,475.373 1298.2,476.57 1300.36,477.767 1302.52,478.963 1304.68,480.16 1306.84,481.356 1309,482.553 1311.16,483.749 1313.32,484.946 1315.49,486.142 1317.65,487.339 1319.81,488.536 1321.97,489.732 1324.13,490.929 1326.29,492.125 1328.45,493.322 1330.61,494.518 1332.77,495.715 1334.93,496.911 1337.09,498.108 1339.26,499.305 1341.42,500.501 1343.58,501.698 1345.74,502.894 1347.9,504.091 1350.06,505.287 1352.22,506.484 1354.38,507.68 1356.54,508.877 1358.7,510.074 1360.87,511.27 1363.03,512.467 1365.19,513.663 1367.35,514.86 1369.51,516.056 1371.67,517.253 1373.83,518.449 1375.99,519.646 1378.15,520.843 1380.31,522.039 1382.48,523.236 1384.64,524.432 1386.8,525.629 1388.96,526.825 1391.12,528.022 1393.28,529.218 1395.44,530.415 1397.6,531.612 1399.76,532.808 1401.92,534.005 1404.09,535.201 1406.25,536.398 1408.41,537.594 1410.57,538.791 1412.73,539.987 1414.89,541.184 1417.05,542.381 1419.21,543.577 1421.37,544.774 1423.53,545.97 1425.7,547.167 1427.86,548.363 1430.02,549.56 1432.18,550.756 1434.34,551.953 1436.5,553.15 1438.66,554.346 1440.82,555.543 1442.98,556.739 1445.14,557.936 1447.3,559.132 1449.47,560.329 1451.63,561.525 1453.79,562.722 1455.95,563.919 1458.11,565.115 1460.27,566.312 1462.43,567.508 1464.59,568.705 1466.75,569.901 1468.91,571.098 1471.08,572.294 1473.24,573.491 1475.4,574.688 1477.56,575.884 1479.72,577.081 1481.88,578.277 1484.04,579.474 1486.2,580.67 1488.36,581.867 1490.52,583.063 1492.69,584.26 1494.85,585.456 1497.01,586.653 1499.17,587.85 1501.33,589.046 1503.49,590.243 1505.65,591.439 1507.81,592.636 1509.97,593.832 1512.13,595.029 1514.3,596.225 1516.46,597.422 1518.62,598.619 1520.78,599.815 1522.94,601.012 1525.1,602.208 1527.26,603.405 1529.42,604.601 1531.58,605.798 1533.74,606.994 1535.91,608.191 1538.07,609.388 1540.23,610.584 1542.39,611.781 1544.55,612.977 1546.71,614.174 1548.87,615.37 1551.03,616.567 1553.19,617.763 1555.35,618.96 1557.51,620.157 1559.68,621.353 1561.84,622.55 1564,623.746 1566.16,624.943 1568.32,626.139 1570.48,627.336 1572.64,628.532 1574.8,629.729 1576.96,630.926 1579.12,632.122 1581.29,633.319 1583.45,634.515 1585.61,635.712 1587.77,636.908 1589.93,638.105 1592.09,639.301 1594.25,640.498 1596.41,641.695 1598.57,642.891 1600.73,644.088 1602.9,645.284 1605.06,646.481 1607.22,647.677 1609.38,648.874 1611.54,650.07 1613.7,651.267 1615.86,652.464 1618.02,653.66 1620.18,654.857 1622.34,656.053 1624.51,657.25 1626.67,658.446 1628.83,659.643 1630.99,660.839 1633.15,662.036 1635.31,663.233 1637.47,664.429 1639.63,665.626 1641.79,666.822 1643.95,668.019 1646.12,669.215 1648.28,670.412 1650.44,671.608 1652.6,672.805 1654.76,674.002 1656.92,675.198 1659.08,676.395 1661.24,677.591 1663.4,678.788 1665.56,679.984 1667.72,681.181 1669.89,682.377 1672.05,683.574 1674.21,684.771 1676.37,685.967 1678.53,687.164 1680.69,688.36 1682.85,689.557 1685.01,690.753 1687.17,691.95 1689.33,693.146 1691.5,694.343 1693.66,695.54 1695.82,696.736 1697.98,697.933 1700.14,699.129 1702.3,700.326 1704.46,701.522 1706.62,702.719 1708.78,703.915 1710.94,705.112 1713.11,706.309 1715.27,707.505 1717.43,708.702 1719.59,709.898 1721.75,711.095 1723.91,712.291 1726.07,713.488 1728.23,714.684 1730.39,715.881 1732.55,717.078 1734.72,718.274 1736.88,719.471 1739.04,720.667 1741.2,721.864 1743.36,723.06 1745.52,724.257 1747.68,725.453 1749.84,726.65 1752,727.847 1754.16,729.043 1756.33,730.24 1758.49,731.436 1760.65,732.633 1762.81,733.829 1764.97,735.026 1767.13,736.222 1769.29,737.419 1771.45,738.616 1773.61,739.812 1775.77,741.009 1777.93,742.205 1780.1,743.402 1782.26,744.598 1784.42,745.795 1786.58,746.991 1788.74,748.188 1790.9,749.385 1793.06,750.581 1795.22,751.778 1797.38,752.974 1799.54,754.171 1801.71,755.367 1803.87,756.564 1806.03,757.76 1808.19,758.957 1810.35,760.153 1812.51,761.35 1814.67,762.547 1816.83,763.743 1818.99,764.94 1821.15,766.136 1823.32,767.333 1825.48,768.529 1827.64,769.726 1829.8,770.922 1831.96,772.119 1834.12,773.316 1836.28,774.512 1838.44,775.709 1840.6,776.905 1842.76,778.102 1844.93,779.298 1847.09,780.495 1849.25,781.691 1851.41,782.888 1853.57,784.085 1855.73,785.281 1857.89,786.478 1860.05,787.674 1862.21,788.871 1864.37,790.067 1866.54,791.264 1868.7,792.46 1870.86,793.657 1873.02,794.854 1875.18,796.05 1877.34,797.247 1879.5,798.443 1881.66,799.64 1883.82,800.836 1885.98,802.033 1888.15,803.229 1890.31,804.426 1892.47,805.623 1894.63,806.819 1896.79,808.016 1898.95,809.212 1901.11,810.409 1903.27,811.605 1905.43,812.802 1907.59,813.998 1909.75,815.195 1911.92,816.392 1914.08,817.588 1916.24,818.785 1918.4,819.981 1920.56,821.178 1922.72,822.374 1924.88,823.571 1927.04,824.767 1929.2,825.964 1931.36,827.161 1933.53,828.357 1935.69,829.554 1937.85,830.75 1940.01,831.947 1942.17,833.143 1944.33,834.34 1946.49,835.536 1948.65,836.733 1950.81,837.93 1952.97,839.126 1955.14,840.323 1957.3,841.519 1959.46,842.716 1961.62,843.912 1963.78,845.109 1965.94,846.305 1968.1,847.502 1970.26,848.699 1972.42,849.895 1974.58,851.092 1976.75,852.288 1978.91,853.485 1981.07,854.681 1983.23,855.878 1985.39,857.074 1987.55,858.271 1989.71,859.468 1991.87,860.664 1994.03,861.861 1996.19,863.057 1998.36,864.254 2000.52,865.45 2002.68,866.647 2004.84,867.843 2007,869.04 2009.16,870.237 2011.32,871.433 2013.48,872.63 2015.64,873.826 2017.8,875.023 2019.96,876.219 2022.13,877.416 2024.29,878.612 2026.45,879.809 2028.61,881.006 2030.77,882.202 2032.93,883.399 2035.09,884.595 2037.25,885.792 2039.41,886.988 2041.57,888.185 2043.74,889.381 2045.9,890.578 2048.06,891.775 2050.22,892.971 2052.38,894.168 2054.54,895.364 2056.7,896.561 2058.86,897.757 2061.02,898.954 2063.18,900.15 2065.35,901.347 2067.51,902.544 2069.67,903.74 2071.83,904.937 2073.99,906.133 2076.15,907.33 2078.31,908.526 2080.47,909.723 2082.63,910.919 2084.79,912.116 2086.96,913.313 2089.12,914.509 2091.28,915.706 2093.44,916.902 2095.6,918.099 2097.76,919.295 2099.92,920.492 2102.08,921.688 2104.24,922.885 2106.4,924.081 2108.57,925.278 2110.73,926.475 2112.89,927.671 2115.05,928.868 2117.21,930.064 2119.37,931.261 2121.53,932.457 2123.69,933.654 2125.85,934.85 2128.01,936.047 2130.17,937.244 2132.34,938.44 2134.5,939.637 2136.66,940.833 2138.82,942.03 2140.98,943.226 2143.14,944.423 2145.3,945.619 2147.46,946.816 2149.62,948.013 2151.78,949.209 2153.95,950.406 2156.11,951.602 2158.27,952.799 2160.43,953.995 2162.59,955.192 2164.75,956.388 2166.91,957.585 2169.07,958.782 2171.23,959.978 2173.39,961.175 2175.56,962.371 2177.72,963.568 2179.88,964.764 2182.04,965.961 2184.2,967.157 2186.36,968.354 2188.52,969.551 2190.68,970.747 2192.84,971.944 2195,973.14 2197.17,974.337 2199.33,975.533 2201.49,976.73 2203.65,977.926 2205.81,979.123 2207.97,980.32 2210.13,981.516 2212.29,982.713 2214.45,983.909 2216.61,985.106 2218.78,986.302 2220.94,987.499 2223.1,988.695 2225.26,989.892 2227.42,991.089 2229.58,992.285 2231.74,993.482 2233.9,994.678 2236.06,995.875 2238.22,997.071 2240.38,998.268 2242.55,999.464 2244.71,1000.66 2246.87,1001.86 2249.03,1003.05 2251.19,1004.25 2253.35,1005.45 2255.51,1006.64 2257.67,1007.84 2259.83,1009.04 2261.99,1010.23 2264.16,1011.43 2266.32,1012.63 2268.48,1013.82 2270.64,1015.02 2272.8,1016.22 2274.96,1017.41 2277.12,1018.61 2279.28,1019.81 2281.44,1021 2283.6,1022.2 2285.77,1023.4 2287.93,1024.59 2290.09,1025.79 2292.25,1026.99 2294.41,1028.18 2296.57,1029.38 2298.73,1030.57 2300.89,1031.77 2303.05,1032.97 2305.21,1034.16 2307.38,1035.36 2309.54,1036.56 2311.7,1037.75 2313.86,1038.95 2316.02,1040.15 2318.18,1041.34 2320.34,1042.54 2322.5,1043.74 2324.66,1044.93 2326.82,1046.13 2328.99,1047.33 2331.15,1048.52 2333.31,1049.72 2335.47,1050.92 2337.63,1052.11 2339.79,1053.31 2341.95,1054.51 2344.11,1055.7 2346.27,1056.9 2348.43,1058.1 2350.59,1059.29 2352.76,1060.49 "/>
<circle clip-path="url(#clip472)" cx="625.7" cy="153.149" r="14.4" fill="#000000" fill-rule="evenodd" fill-opacity="1" stroke="none"/>
<circle clip-path="url(#clip472)" cx="841.582" cy="500.746" r="14.4" fill="#000000" fill-rule="evenodd" fill-opacity="1" stroke="none"/>
<circle clip-path="url(#clip472)" cx="1057.46" cy="321.145" r="14.4" fill="#000000" fill-rule="evenodd" fill-opacity="1" stroke="none"/>
<circle clip-path="url(#clip472)" cx="1273.35" cy="487.603" r="14.4" fill="#000000" fill-rule="evenodd" fill-opacity="1" stroke="none"/>
<circle clip-path="url(#clip472)" cx="1489.23" cy="570.523" r="14.4" fill="#000000" fill-rule="evenodd" fill-opacity="1" stroke="none"/>
<circle clip-path="url(#clip472)" cx="1705.11" cy="887.68" r="14.4" fill="#000000" fill-rule="evenodd" fill-opacity="1" stroke="none"/>
<circle clip-path="url(#clip472)" cx="1920.99" cy="907.312" r="14.4" fill="#000000" fill-rule="evenodd" fill-opacity="1" stroke="none"/>
<circle clip-path="url(#clip472)" cx="2136.87" cy="1045.13" r="14.4" fill="#000000" fill-rule="evenodd" fill-opacity="1" stroke="none"/>
<circle clip-path="url(#clip472)" cx="2352.76" cy="1186.09" r="14.4" fill="#000000" fill-rule="evenodd" fill-opacity="1" stroke="none"/>
</svg>
