<?xml version="1.0" encoding="utf-8"?>
<svg xmlns="http://www.w3.org/2000/svg" xmlns:xlink="http://www.w3.org/1999/xlink" width="600" height="400" viewBox="0 0 2400 1600">
<defs>
  <clipPath id="clip410">
    <rect x="0" y="0" width="2400" height="1600"/>
  </clipPath>
</defs>
<path clip-path="url(#clip410)" d="M0 1600 L2400 1600 L2400 0 L0 0  Z" fill="#ffffff" fill-rule="evenodd" fill-opacity="1"/>
<defs>
  <clipPath id="clip411">
    <rect x="480" y="0" width="1681" height="1600"/>
  </clipPath>
</defs>
<path clip-path="url(#clip410)" d="M210.376 1423.18 L2352.76 1423.18 L2352.76 123.472 L210.376 123.472  Z" fill="#ffffff" fill-rule="evenodd" fill-opacity="1"/>
<defs>
  <clipPath id="clip412">
    <rect x="210" y="123" width="2143" height="1301"/>
  </clipPath>
</defs>
<polyline clip-path="url(#clip412)" style="stroke:#000000; stroke-linecap:round; stroke-linejoin:round; stroke-width:2; stroke-opacity:0.1; fill:none" points="473.12,1423.18 473.12,123.472 "/>
<polyline clip-path="url(#clip412)" style="stroke:#000000; stroke-linecap:round; stroke-linejoin:round; stroke-width:2; stroke-opacity:0.1; fill:none" points="877.343,1423.18 877.343,123.472 "/>
<polyline clip-path="url(#clip412)" style="stroke:#000000; stroke-linecap:round; stroke-linejoin:round; stroke-width:2; stroke-opacity:0.1; fill:none" points="1281.57,1423.18 1281.57,123.472 "/>
<polyline clip-path="url(#clip412)" style="stroke:#000000; stroke-linecap:round; stroke-linejoin:round; stroke-width:2; stroke-opacity:0.1; fill:none" points="1685.79,1423.18 1685.79,123.472 "/>
<polyline clip-path="url(#clip412)" style="stroke:#000000; stroke-linecap:round; stroke-linejoin:round; stroke-width:2; stroke-opacity:0.1; fill:none" points="2090.01,1423.18 2090.01,123.472 "/>
<polyline clip-path="url(#clip412)" style="stroke:#000000; stroke-linecap:round; stroke-linejoin:round; stroke-width:2; stroke-opacity:0.1; fill:none" points="210.376,1270.54 2352.76,1270.54 "/>
<polyline clip-path="url(#clip412)" style="stroke:#000000; stroke-linecap:round; stroke-linejoin:round; stroke-width:2; stroke-opacity:0.1; fill:none" points="210.376,1016.76 2352.76,1016.76 "/>
<polyline clip-path="url(#clip412)" style="stroke:#000000; stroke-linecap:round; stroke-linejoin:round; stroke-width:2; stroke-opacity:0.1; fill:none" points="210.376,762.985 2352.76,762.985 "/>
<polyline clip-path="url(#clip412)" style="stroke:#000000; stroke-linecap:round; stroke-linejoin:round; stroke-width:2; stroke-opacity:0.1; fill:none" points="210.376,509.206 2352.76,509.206 "/>
<polyline clip-path="url(#clip412)" style="stroke:#000000; stroke-linecap:round; stroke-linejoin:round; stroke-width:2; stroke-opacity:0.1; fill:none" points="210.376,255.427 2352.76,255.427 "/>
<polyline clip-path="url(#clip410)" style="stroke:#000000; stroke-linecap:round; stroke-linejoin:round; stroke-width:4; stroke-opacity:1; fill:none" points="210.376,1423.18 2352.76,1423.18 "/>
<polyline clip-path="url(#clip410)" style="stroke:#000000; stroke-linecap:round; stroke-linejoin:round; stroke-width:4; stroke-opacity:1; fill:none" points="473.12,1423.18 473.12,1404.28 "/>
<polyline clip-path="url(#clip410)" style="stroke:#000000; stroke-linecap:round; stroke-linejoin:round; stroke-width:4; stroke-opacity:1; fill:none" points="877.343,1423.18 877.343,1404.28 "/>
<polyline clip-path="url(#clip410)" style="stroke:#000000; stroke-linecap:round; stroke-linejoin:round; stroke-width:4; stroke-opacity:1; fill:none" points="1281.57,1423.18 1281.57,1404.28 "/>
<polyline clip-path="url(#clip410)" style="stroke:#000000; stroke-linecap:round; stroke-linejoin:round; stroke-width:4; stroke-opacity:1; fill:none" points="1685.79,1423.18 1685.79,1404.28 "/>
<polyline clip-path="url(#clip410)" style="stroke:#000000; stroke-linecap:round; stroke-linejoin:round; stroke-width:4; stroke-opacity:1; fill:none" points="2090.01,1423.18 2090.01,1404.28 "/>
<path clip-path="url(#clip410)" d="M442.021 1468.75 L471.697 1468.75 L471.697 1472.69 L442.021 1472.69 L442.021 1468.75 Z" fill="#000000" fill-rule="nonzero" fill-opacity="1" /><path clip-path="url(#clip410)" d="M494.636 1455.09 L482.831 1473.54 L494.636 1473.54 L494.636 1455.09 M493.41 1451.02 L499.289 1451.02 L499.289 1473.54 L504.22 1473.54 L504.22 1477.43 L499.289 1477.43 L499.289 1485.58 L494.636 1485.58 L494.636 1477.43 L479.035 1477.43 L479.035 1472.92 L493.41 1451.02 Z" fill="#000000" fill-rule="nonzero" fill-opacity="1" /><path clip-path="url(#clip410)" d="M847.285 1468.75 L876.961 1468.75 L876.961 1472.69 L847.285 1472.69 L847.285 1468.75 Z" fill="#000000" fill-rule="nonzero" fill-opacity="1" /><path clip-path="url(#clip410)" d="M891.081 1481.64 L907.401 1481.64 L907.401 1485.58 L885.456 1485.58 L885.456 1481.64 Q888.118 1478.89 892.702 1474.26 Q897.308 1469.61 898.489 1468.27 Q900.734 1465.74 901.614 1464.01 Q902.517 1462.25 902.517 1460.56 Q902.517 1457.8 900.572 1456.07 Q898.651 1454.33 895.549 1454.33 Q893.35 1454.33 890.896 1455.09 Q888.466 1455.86 885.688 1457.41 L885.688 1452.69 Q888.512 1451.55 890.966 1450.97 Q893.419 1450.39 895.456 1450.39 Q900.827 1450.39 904.021 1453.08 Q907.216 1455.77 907.216 1460.26 Q907.216 1462.39 906.405 1464.31 Q905.618 1466.2 903.512 1468.8 Q902.933 1469.47 899.831 1472.69 Q896.73 1475.88 891.081 1481.64 Z" fill="#000000" fill-rule="nonzero" fill-opacity="1" /><path clip-path="url(#clip410)" d="M1281.57 1454.1 Q1277.95 1454.1 1276.13 1457.66 Q1274.32 1461.2 1274.32 1468.33 Q1274.32 1475.44 1276.13 1479.01 Q1277.95 1482.55 1281.57 1482.55 Q1285.2 1482.55 1287.01 1479.01 Q1288.83 1475.44 1288.83 1468.33 Q1288.83 1461.2 1287.01 1457.66 Q1285.2 1454.1 1281.57 1454.1 M1281.57 1450.39 Q1287.38 1450.39 1290.43 1455 Q1293.51 1459.58 1293.51 1468.33 Q1293.51 1477.06 1290.43 1481.67 Q1287.38 1486.25 1281.57 1486.25 Q1275.76 1486.25 1272.68 1481.67 Q1269.62 1477.06 1269.62 1468.33 Q1269.62 1459.58 1272.68 1455 Q1275.76 1450.39 1281.57 1450.39 Z" fill="#000000" fill-rule="nonzero" fill-opacity="1" /><path clip-path="url(#clip410)" d="M1680.44 1481.64 L1696.76 1481.64 L1696.76 1485.58 L1674.82 1485.58 L1674.82 1481.64 Q1677.48 1478.89 1682.06 1474.26 Q1686.67 1469.61 1687.85 1468.27 Q1690.09 1465.74 1690.97 1464.01 Q1691.88 1462.25 1691.88 1460.56 Q1691.88 1457.8 1689.93 1456.07 Q1688.01 1454.33 1684.91 1454.33 Q1682.71 1454.33 1680.26 1455.09 Q1677.83 1455.86 1675.05 1457.41 L1675.05 1452.69 Q1677.87 1451.55 1680.33 1450.97 Q1682.78 1450.39 1684.82 1450.39 Q1690.19 1450.39 1693.38 1453.08 Q1696.58 1455.77 1696.58 1460.26 Q1696.58 1462.39 1695.77 1464.31 Q1694.98 1466.2 1692.87 1468.8 Q1692.29 1469.47 1689.19 1472.69 Q1686.09 1475.88 1680.44 1481.64 Z" fill="#000000" fill-rule="nonzero" fill-opacity="1" /><path clip-path="url(#clip410)" d="M2093.02 1455.09 L2081.21 1473.54 L2093.02 1473.54 L2093.02 1455.09 M2091.79 1451.02 L2097.67 1451.02 L2097.67 1473.54 L2102.6 1473.54 L2102.6 1477.43 L2097.67 1477.43 L2097.67 1485.58 L2093.02 1485.58 L2093.02 1477.43 L2077.42 1477.43 L2077.42 1472.92 L2091.79 1451.02 Z" fill="#000000" fill-rule="nonzero" fill-opacity="1" /><path clip-path="url(#clip410)" d="M1263.39 1520.52 L1270.3 1520.52 L1282.11 1538.19 L1293.98 1520.52 L1300.89 1520.52 L1285.61 1543.34 L1301.9 1568.04 L1295 1568.04 L1281.63 1547.83 L1268.17 1568.04 L1261.23 1568.04 L1278.19 1542.68 L1263.39 1520.52 Z" fill="#000000" fill-rule="nonzero" fill-opacity="1" /><polyline clip-path="url(#clip410)" style="stroke:#000000; stroke-linecap:round; stroke-linejoin:round; stroke-width:4; stroke-opacity:1; fill:none" points="210.376,1423.18 210.376,123.472 "/>
<polyline clip-path="url(#clip410)" style="stroke:#000000; stroke-linecap:round; stroke-linejoin:round; stroke-width:4; stroke-opacity:1; fill:none" points="210.376,1270.54 229.273,1270.54 "/>
<polyline clip-path="url(#clip410)" style="stroke:#000000; stroke-linecap:round; stroke-linejoin:round; stroke-width:4; stroke-opacity:1; fill:none" points="210.376,1016.76 229.273,1016.76 "/>
<polyline clip-path="url(#clip410)" style="stroke:#000000; stroke-linecap:round; stroke-linejoin:round; stroke-width:4; stroke-opacity:1; fill:none" points="210.376,762.985 229.273,762.985 "/>
<polyline clip-path="url(#clip410)" style="stroke:#000000; stroke-linecap:round; stroke-linejoin:round; stroke-width:4; stroke-opacity:1; fill:none" points="210.376,509.206 229.273,509.206 "/>
<polyline clip-path="url(#clip410)" style="stroke:#000000; stroke-linecap:round; stroke-linejoin:round; stroke-width:4; stroke-opacity:1; fill:none" points="210.376,255.427 229.273,255.427 "/>
<path clip-path="url(#clip410)" d="M114.26 1270.99 L143.936 1270.99 L143.936 1274.93 L114.26 1274.93 L114.26 1270.99 Z" fill="#000000" fill-rule="nonzero" fill-opacity="1" /><path clip-path="url(#clip410)" d="M158.056 1283.89 L174.376 1283.89 L174.376 1287.82 L152.431 1287.82 L152.431 1283.89 Q155.093 1281.13 159.677 1276.5 Q164.283 1271.85 165.464 1270.51 Q167.709 1267.98 168.589 1266.25 Q169.491 1264.49 169.491 1262.8 Q169.491 1260.04 167.547 1258.31 Q165.626 1256.57 162.524 1256.57 Q160.325 1256.57 157.871 1257.34 Q155.44 1258.1 152.663 1259.65 L152.663 1254.93 Q155.487 1253.79 157.94 1253.22 Q160.394 1252.64 162.431 1252.64 Q167.802 1252.64 170.996 1255.32 Q174.19 1258.01 174.19 1262.5 Q174.19 1264.63 173.38 1266.55 Q172.593 1268.45 170.487 1271.04 Q169.908 1271.71 166.806 1274.93 Q163.704 1278.12 158.056 1283.89 Z" fill="#000000" fill-rule="nonzero" fill-opacity="1" /><path clip-path="url(#clip410)" d="M162.431 1002.56 Q158.82 1002.56 156.991 1006.13 Q155.186 1009.67 155.186 1016.8 Q155.186 1023.9 156.991 1027.47 Q158.82 1031.01 162.431 1031.01 Q166.065 1031.01 167.871 1027.47 Q169.7 1023.9 169.7 1016.8 Q169.7 1009.67 167.871 1006.13 Q166.065 1002.56 162.431 1002.56 M162.431 998.858 Q168.241 998.858 171.297 1003.46 Q174.376 1008.05 174.376 1016.8 Q174.376 1025.52 171.297 1030.13 Q168.241 1034.71 162.431 1034.71 Q156.621 1034.71 153.542 1030.13 Q150.487 1025.52 150.487 1016.8 Q150.487 1008.05 153.542 1003.46 Q156.621 998.858 162.431 998.858 Z" fill="#000000" fill-rule="nonzero" fill-opacity="1" /><path clip-path="url(#clip410)" d="M158.056 776.329 L174.376 776.329 L174.376 780.265 L152.431 780.265 L152.431 776.329 Q155.093 773.575 159.677 768.945 Q164.283 764.292 165.464 762.95 Q167.709 760.427 168.589 758.691 Q169.491 756.931 169.491 755.241 Q169.491 752.487 167.547 750.751 Q165.626 749.015 162.524 749.015 Q160.325 749.015 157.871 749.779 Q155.44 750.542 152.663 752.093 L152.663 747.371 Q155.487 746.237 157.94 745.658 Q160.394 745.08 162.431 745.08 Q167.802 745.08 170.996 747.765 Q174.19 750.45 174.19 754.941 Q174.19 757.07 173.38 758.991 Q172.593 760.89 170.487 763.482 Q169.908 764.153 166.806 767.371 Q163.704 770.565 158.056 776.329 Z" fill="#000000" fill-rule="nonzero" fill-opacity="1" /><path clip-path="url(#clip410)" d="M164.792 496 L152.987 514.449 L164.792 514.449 L164.792 496 M163.565 491.926 L169.445 491.926 L169.445 514.449 L174.376 514.449 L174.376 518.338 L169.445 518.338 L169.445 526.486 L164.792 526.486 L164.792 518.338 L149.191 518.338 L149.191 513.824 L163.565 491.926 Z" fill="#000000" fill-rule="nonzero" fill-opacity="1" /><path clip-path="url(#clip410)" d="M162.848 253.564 Q159.7 253.564 157.848 255.716 Q156.019 257.869 156.019 261.619 Q156.019 265.346 157.848 267.522 Q159.7 269.675 162.848 269.675 Q165.996 269.675 167.825 267.522 Q169.677 265.346 169.677 261.619 Q169.677 257.869 167.825 255.716 Q165.996 253.564 162.848 253.564 M172.13 238.911 L172.13 243.17 Q170.371 242.337 168.565 241.897 Q166.783 241.457 165.024 241.457 Q160.394 241.457 157.94 244.582 Q155.51 247.707 155.163 254.027 Q156.528 252.013 158.589 250.948 Q160.649 249.86 163.126 249.86 Q168.334 249.86 171.343 253.031 Q174.376 256.179 174.376 261.619 Q174.376 266.943 171.227 270.161 Q168.079 273.378 162.848 273.378 Q156.853 273.378 153.681 268.795 Q150.51 264.189 150.51 255.462 Q150.51 247.267 154.399 242.406 Q158.288 237.522 164.839 237.522 Q166.598 237.522 168.38 237.869 Q170.186 238.217 172.13 238.911 Z" fill="#000000" fill-rule="nonzero" fill-opacity="1" /><path clip-path="url(#clip410)" d="M16.4842 793.362 L16.4842 786.455 L36.0269 773.278 L16.4842 760.197 L16.4842 753.29 L41.3741 770.095 L64.0042 770.095 L64.0042 776.557 L41.3741 776.557 L16.4842 793.362 Z" fill="#000000" fill-rule="nonzero" fill-opacity="1" /><path clip-path="url(#clip410)" d="M846.418 17.6457 Q837.506 17.6457 832.239 24.2892 Q827.014 30.9327 827.014 42.3968 Q827.014 53.8203 832.239 60.4638 Q837.506 67.1073 846.418 67.1073 Q855.33 67.1073 860.515 60.4638 Q865.74 53.8203 865.74 42.3968 Q865.74 30.9327 860.515 24.2892 Q855.33 17.6457 846.418 17.6457 M846.418 11.0023 Q859.137 11.0023 866.753 19.5497 Q874.369 28.0566 874.369 42.3968 Q874.369 56.6965 866.753 65.2439 Q859.137 73.7508 846.418 73.7508 Q833.657 73.7508 826.001 65.2439 Q818.385 56.737 818.385 42.3968 Q818.385 28.0566 826.001 19.5497 Q833.657 11.0023 846.418 11.0023 Z" fill="#000000" fill-rule="nonzero" fill-opacity="1" /><path clip-path="url(#clip410)" d="M919.415 49.9314 Q919.415 41.7081 916.012 37.0496 Q912.65 32.3505 906.736 32.3505 Q900.821 32.3505 897.418 37.0496 Q894.056 41.7081 894.056 49.9314 Q894.056 58.1548 897.418 62.8538 Q900.821 67.5124 906.736 67.5124 Q912.65 67.5124 916.012 62.8538 Q919.415 58.1548 919.415 49.9314 M894.056 34.0924 Q896.406 30.0415 899.971 28.0971 Q903.576 26.1121 908.558 26.1121 Q916.822 26.1121 921.967 32.6746 Q927.152 39.2371 927.152 49.9314 Q927.152 60.6258 921.967 67.1883 Q916.822 73.7508 908.558 73.7508 Q903.576 73.7508 899.971 71.8063 Q896.406 69.8214 894.056 65.7705 L894.056 72.576 L886.562 72.576 L886.562 9.54393 L894.056 9.54393 L894.056 34.0924 Z" fill="#000000" fill-rule="nonzero" fill-opacity="1" /><path clip-path="url(#clip410)" d="M968.431 28.5427 L968.431 35.5912 Q965.271 33.9709 961.868 33.1607 Q958.466 32.3505 954.82 32.3505 Q949.27 32.3505 946.475 34.0519 Q943.72 35.7533 943.72 39.156 Q943.72 41.7486 945.705 43.2475 Q947.69 44.7058 953.686 46.0426 L956.238 46.6097 Q964.177 48.3111 967.499 51.4303 Q970.861 54.509 970.861 60.0587 Q970.861 66.3781 965.838 70.0644 Q960.856 73.7508 952.106 73.7508 Q948.46 73.7508 944.49 73.0216 Q940.561 72.3329 936.186 70.9151 L936.186 63.2184 Q940.318 65.3654 944.328 66.4591 Q948.338 67.5124 952.268 67.5124 Q957.534 67.5124 960.37 65.73 Q963.205 63.9071 963.205 60.6258 Q963.205 57.5877 961.139 55.9673 Q959.114 54.3469 952.187 52.8481 L949.594 52.2405 Q942.667 50.7821 939.588 47.7845 Q936.51 44.7463 936.51 39.4801 Q936.51 33.0797 941.047 29.5959 Q945.584 26.1121 953.929 26.1121 Q958.061 26.1121 961.706 26.7198 Q965.352 27.3274 968.431 28.5427 Z" fill="#000000" fill-rule="nonzero" fill-opacity="1" /><path clip-path="url(#clip410)" d="M1021.54 48.0275 L1021.54 51.6733 L987.268 51.6733 Q987.754 59.3701 991.886 63.421 Q996.058 67.4314 1003.47 67.4314 Q1007.77 67.4314 1011.78 66.3781 Q1015.83 65.3249 1019.8 63.2184 L1019.8 70.267 Q1015.79 71.9684 1011.57 72.8596 Q1007.36 73.7508 1003.03 73.7508 Q992.169 73.7508 985.809 67.4314 Q979.49 61.1119 979.49 50.3365 Q979.49 39.1965 985.485 32.6746 Q991.521 26.1121 1001.73 26.1121 Q1010.88 26.1121 1016.19 32.0264 Q1021.54 37.9003 1021.54 48.0275 M1014.08 45.84 Q1014 39.7232 1010.64 36.0774 Q1007.32 32.4315 1001.81 32.4315 Q995.572 32.4315 991.805 35.9558 Q988.078 39.4801 987.511 45.8805 L1014.08 45.84 Z" fill="#000000" fill-rule="nonzero" fill-opacity="1" /><path clip-path="url(#clip410)" d="M1060.06 34.1734 Q1058.81 33.4443 1057.31 33.1202 Q1055.85 32.7556 1054.07 32.7556 Q1047.75 32.7556 1044.34 36.8875 Q1040.98 40.9789 1040.98 48.6757 L1040.98 72.576 L1033.49 72.576 L1033.49 27.2059 L1040.98 27.2059 L1040.98 34.2544 Q1043.33 30.1225 1047.1 28.1376 Q1050.87 26.1121 1056.25 26.1121 Q1057.02 26.1121 1057.96 26.2337 Q1058.89 26.3147 1060.02 26.5172 L1060.06 34.1734 Z" fill="#000000" fill-rule="nonzero" fill-opacity="1" /><path clip-path="url(#clip410)" d="M1062.53 27.2059 L1070.43 27.2059 L1084.61 65.2844 L1098.79 27.2059 L1106.69 27.2059 L1089.67 72.576 L1079.55 72.576 L1062.53 27.2059 Z" fill="#000000" fill-rule="nonzero" fill-opacity="1" /><path clip-path="url(#clip410)" d="M1155.79 48.0275 L1155.79 51.6733 L1121.51 51.6733 Q1122 59.3701 1126.13 63.421 Q1130.3 67.4314 1137.72 67.4314 Q1142.01 67.4314 1146.02 66.3781 Q1150.07 65.3249 1154.04 63.2184 L1154.04 70.267 Q1150.03 71.9684 1145.82 72.8596 Q1141.61 73.7508 1137.27 73.7508 Q1126.42 73.7508 1120.06 67.4314 Q1113.74 61.1119 1113.74 50.3365 Q1113.74 39.1965 1119.73 32.6746 Q1125.77 26.1121 1135.98 26.1121 Q1145.13 26.1121 1150.44 32.0264 Q1155.79 37.9003 1155.79 48.0275 M1148.33 45.84 Q1148.25 39.7232 1144.89 36.0774 Q1141.57 32.4315 1136.06 32.4315 Q1129.82 32.4315 1126.05 35.9558 Q1122.32 39.4801 1121.76 45.8805 L1148.33 45.84 Z" fill="#000000" fill-rule="nonzero" fill-opacity="1" /><path clip-path="url(#clip410)" d="M1197.87 34.0924 L1197.87 9.54393 L1205.33 9.54393 L1205.33 72.576 L1197.87 72.576 L1197.87 65.7705 Q1195.52 69.8214 1191.92 71.8063 Q1188.35 73.7508 1183.33 73.7508 Q1175.11 73.7508 1169.92 67.1883 Q1164.78 60.6258 1164.78 49.9314 Q1164.78 39.2371 1169.92 32.6746 Q1175.11 26.1121 1183.33 26.1121 Q1188.35 26.1121 1191.92 28.0971 Q1195.52 30.0415 1197.87 34.0924 M1172.47 49.9314 Q1172.47 58.1548 1175.84 62.8538 Q1179.24 67.5124 1185.15 67.5124 Q1191.07 67.5124 1194.47 62.8538 Q1197.87 58.1548 1197.87 49.9314 Q1197.87 41.7081 1194.47 37.0496 Q1191.07 32.3505 1185.15 32.3505 Q1179.24 32.3505 1175.84 37.0496 Q1172.47 41.7081 1172.47 49.9314 Z" fill="#000000" fill-rule="nonzero" fill-opacity="1" /><path clip-path="url(#clip410)" d="M1276.91 34.0924 L1276.91 9.54393 L1284.36 9.54393 L1284.36 72.576 L1276.91 72.576 L1276.91 65.7705 Q1274.56 69.8214 1270.95 71.8063 Q1267.39 73.7508 1262.36 73.7508 Q1254.14 73.7508 1248.96 67.1883 Q1243.81 60.6258 1243.81 49.9314 Q1243.81 39.2371 1248.96 32.6746 Q1254.14 26.1121 1262.36 26.1121 Q1267.39 26.1121 1270.95 28.0971 Q1274.56 30.0415 1276.91 34.0924 M1251.51 49.9314 Q1251.51 58.1548 1254.87 62.8538 Q1258.27 67.5124 1264.19 67.5124 Q1270.1 67.5124 1273.5 62.8538 Q1276.91 58.1548 1276.91 49.9314 Q1276.91 41.7081 1273.5 37.0496 Q1270.1 32.3505 1264.19 32.3505 Q1258.27 32.3505 1254.87 37.0496 Q1251.51 41.7081 1251.51 49.9314 Z" fill="#000000" fill-rule="nonzero" fill-opacity="1" /><path clip-path="url(#clip410)" d="M1320.33 49.7694 Q1311.3 49.7694 1307.82 51.8354 Q1304.33 53.9013 1304.33 58.8839 Q1304.33 62.8538 1306.92 65.2034 Q1309.56 67.5124 1314.05 67.5124 Q1320.25 67.5124 1323.98 63.1374 Q1327.75 58.7219 1327.75 51.4303 L1327.75 49.7694 L1320.33 49.7694 M1335.2 46.6907 L1335.2 72.576 L1327.75 72.576 L1327.75 65.6895 Q1325.19 69.8214 1321.39 71.8063 Q1317.58 73.7508 1312.07 73.7508 Q1305.1 73.7508 1300.97 69.8619 Q1296.88 65.9325 1296.88 59.3701 Q1296.88 51.7138 1301.98 47.825 Q1307.13 43.9361 1317.29 43.9361 L1327.75 43.9361 L1327.75 43.2069 Q1327.75 38.0623 1324.34 35.2672 Q1320.98 32.4315 1314.86 32.4315 Q1310.98 32.4315 1307.29 33.3632 Q1303.6 34.295 1300.2 36.1584 L1300.2 29.2718 Q1304.29 27.692 1308.14 26.9223 Q1311.99 26.1121 1315.63 26.1121 Q1325.48 26.1121 1330.34 31.2163 Q1335.2 36.3204 1335.2 46.6907 Z" fill="#000000" fill-rule="nonzero" fill-opacity="1" /><path clip-path="url(#clip410)" d="M1357.93 14.324 L1357.93 27.2059 L1373.28 27.2059 L1373.28 32.9987 L1357.93 32.9987 L1357.93 57.6282 Q1357.93 63.1779 1359.42 64.7578 Q1360.96 66.3376 1365.62 66.3376 L1373.28 66.3376 L1373.28 72.576 L1365.62 72.576 Q1356.99 72.576 1353.71 69.3758 Q1350.43 66.1351 1350.43 57.6282 L1350.43 32.9987 L1344.96 32.9987 L1344.96 27.2059 L1350.43 27.2059 L1350.43 14.324 L1357.93 14.324 Z" fill="#000000" fill-rule="nonzero" fill-opacity="1" /><path clip-path="url(#clip410)" d="M1403.7 49.7694 Q1394.67 49.7694 1391.18 51.8354 Q1387.7 53.9013 1387.7 58.8839 Q1387.7 62.8538 1390.29 65.2034 Q1392.93 67.5124 1397.42 67.5124 Q1403.62 67.5124 1407.35 63.1374 Q1411.11 58.7219 1411.11 51.4303 L1411.11 49.7694 L1403.7 49.7694 M1418.57 46.6907 L1418.57 72.576 L1411.11 72.576 L1411.11 65.6895 Q1408.56 69.8214 1404.75 71.8063 Q1400.95 73.7508 1395.44 73.7508 Q1388.47 73.7508 1384.34 69.8619 Q1380.25 65.9325 1380.25 59.3701 Q1380.25 51.7138 1385.35 47.825 Q1390.49 43.9361 1400.66 43.9361 L1411.11 43.9361 L1411.11 43.2069 Q1411.11 38.0623 1407.71 35.2672 Q1404.35 32.4315 1398.23 32.4315 Q1394.34 32.4315 1390.66 33.3632 Q1386.97 34.295 1383.57 36.1584 L1383.57 29.2718 Q1387.66 27.692 1391.51 26.9223 Q1395.36 26.1121 1399 26.1121 Q1408.85 26.1121 1413.71 31.2163 Q1418.57 36.3204 1418.57 46.6907 Z" fill="#000000" fill-rule="nonzero" fill-opacity="1" /><path clip-path="url(#clip410)" d="M1478.2 9.62495 Q1472.77 18.942 1470.14 28.0566 Q1467.5 37.1711 1467.5 46.5287 Q1467.5 55.8863 1470.14 65.0818 Q1472.81 74.2369 1478.2 83.5134 L1471.72 83.5134 Q1465.64 73.9938 1462.6 64.7983 Q1459.6 55.6027 1459.6 46.5287 Q1459.6 37.4952 1462.6 28.3401 Q1465.6 19.1851 1471.72 9.62495 L1478.2 9.62495 Z" fill="#000000" fill-rule="nonzero" fill-opacity="1" /><path clip-path="url(#clip410)" d="M1492.66 9.54393 L1500.11 9.54393 L1500.11 72.576 L1492.66 72.576 L1492.66 9.54393 Z" fill="#000000" fill-rule="nonzero" fill-opacity="1" /><path clip-path="url(#clip410)" d="M1515.71 27.2059 L1523.16 27.2059 L1523.16 72.576 L1515.71 72.576 L1515.71 27.2059 M1515.71 9.54393 L1523.16 9.54393 L1523.16 18.9825 L1515.71 18.9825 L1515.71 9.54393 Z" fill="#000000" fill-rule="nonzero" fill-opacity="1" /><path clip-path="url(#clip410)" d="M1576.47 45.1919 L1576.47 72.576 L1569.02 72.576 L1569.02 45.4349 Q1569.02 38.994 1566.51 35.7938 Q1563.99 32.5936 1558.97 32.5936 Q1552.94 32.5936 1549.45 36.4419 Q1545.97 40.2903 1545.97 46.9338 L1545.97 72.576 L1538.47 72.576 L1538.47 27.2059 L1545.97 27.2059 L1545.97 34.2544 Q1548.64 30.163 1552.25 28.1376 Q1555.89 26.1121 1560.63 26.1121 Q1568.45 26.1121 1572.46 30.9732 Q1576.47 35.7938 1576.47 45.1919 Z" fill="#000000" fill-rule="nonzero" fill-opacity="1" /><path clip-path="url(#clip410)" d="M1630.15 48.0275 L1630.15 51.6733 L1595.88 51.6733 Q1596.36 59.3701 1600.49 63.421 Q1604.67 67.4314 1612.08 67.4314 Q1616.37 67.4314 1620.38 66.3781 Q1624.43 65.3249 1628.4 63.2184 L1628.4 70.267 Q1624.39 71.9684 1620.18 72.8596 Q1615.97 73.7508 1611.63 73.7508 Q1600.78 73.7508 1594.42 67.4314 Q1588.1 61.1119 1588.1 50.3365 Q1588.1 39.1965 1594.09 32.6746 Q1600.13 26.1121 1610.34 26.1121 Q1619.49 26.1121 1624.8 32.0264 Q1630.15 37.9003 1630.15 48.0275 M1622.69 45.84 Q1622.61 39.7232 1619.25 36.0774 Q1615.93 32.4315 1610.42 32.4315 Q1604.18 32.4315 1600.41 35.9558 Q1596.69 39.4801 1596.12 45.8805 L1622.69 45.84 Z" fill="#000000" fill-rule="nonzero" fill-opacity="1" /><path clip-path="url(#clip410)" d="M1663 49.7694 Q1653.97 49.7694 1650.48 51.8354 Q1647 53.9013 1647 58.8839 Q1647 62.8538 1649.59 65.2034 Q1652.22 67.5124 1656.72 67.5124 Q1662.92 67.5124 1666.64 63.1374 Q1670.41 58.7219 1670.41 51.4303 L1670.41 49.7694 L1663 49.7694 M1677.87 46.6907 L1677.87 72.576 L1670.41 72.576 L1670.41 65.6895 Q1667.86 69.8214 1664.05 71.8063 Q1660.24 73.7508 1654.74 73.7508 Q1647.77 73.7508 1643.64 69.8619 Q1639.54 65.9325 1639.54 59.3701 Q1639.54 51.7138 1644.65 47.825 Q1649.79 43.9361 1659.96 43.9361 L1670.41 43.9361 L1670.41 43.2069 Q1670.41 38.0623 1667.01 35.2672 Q1663.65 32.4315 1657.53 32.4315 Q1653.64 32.4315 1649.95 33.3632 Q1646.27 34.295 1642.87 36.1584 L1642.87 29.2718 Q1646.96 27.692 1650.81 26.9223 Q1654.65 26.1121 1658.3 26.1121 Q1668.14 26.1121 1673 31.2163 Q1677.87 36.3204 1677.87 46.6907 Z" fill="#000000" fill-rule="nonzero" fill-opacity="1" /><path clip-path="url(#clip410)" d="M1719.51 34.1734 Q1718.25 33.4443 1716.75 33.1202 Q1715.3 32.7556 1713.51 32.7556 Q1707.19 32.7556 1703.79 36.8875 Q1700.43 40.9789 1700.43 48.6757 L1700.43 72.576 L1692.94 72.576 L1692.94 27.2059 L1700.43 27.2059 L1700.43 34.2544 Q1702.78 30.1225 1706.55 28.1376 Q1710.31 26.1121 1715.7 26.1121 Q1716.47 26.1121 1717.4 26.2337 Q1718.33 26.3147 1719.47 26.5172 L1719.51 34.1734 Z" fill="#000000" fill-rule="nonzero" fill-opacity="1" /><path clip-path="url(#clip410)" d="M1726.15 9.62495 L1732.63 9.62495 Q1738.71 19.1851 1741.71 28.3401 Q1744.75 37.4952 1744.75 46.5287 Q1744.75 55.6027 1741.71 64.7983 Q1738.71 73.9938 1732.63 83.5134 L1726.15 83.5134 Q1731.54 74.2369 1734.17 65.0818 Q1736.85 55.8863 1736.85 46.5287 Q1736.85 37.1711 1734.17 28.0566 Q1731.54 18.942 1726.15 9.62495 Z" fill="#000000" fill-rule="nonzero" fill-opacity="1" /><circle clip-path="url(#clip412)" cx="271.009" cy="160.256" r="14.4" fill="#000000" fill-rule="evenodd" fill-opacity="1" stroke="none"/>
<circle clip-path="url(#clip412)" cx="473.12" cy="235.531" r="14.4" fill="#000000" fill-rule="evenodd" fill-opacity="1" stroke="none"/>
<circle clip-path="url(#clip412)" cx="675.232" cy="475.689" r="14.4" fill="#000000" fill-rule="evenodd" fill-opacity="1" stroke="none"/>
<circle clip-path="url(#clip412)" cx="877.343" cy="782.152" r="14.4" fill="#000000" fill-rule="evenodd" fill-opacity="1" stroke="none"/>
<circle clip-path="url(#clip412)" cx="1079.45" cy="623.805" r="14.4" fill="#000000" fill-rule="evenodd" fill-opacity="1" stroke="none"/>
<circle clip-path="url(#clip412)" cx="1281.57" cy="770.565" r="14.4" fill="#000000" fill-rule="evenodd" fill-opacity="1" stroke="none"/>
<circle clip-path="url(#clip412)" cx="1483.68" cy="843.672" r="14.4" fill="#000000" fill-rule="evenodd" fill-opacity="1" stroke="none"/>
<circle clip-path="url(#clip412)" cx="1685.79" cy="1123.3" r="14.4" fill="#000000" fill-rule="evenodd" fill-opacity="1" stroke="none"/>
<circle clip-path="url(#clip412)" cx="1887.9" cy="1140.61" r="14.4" fill="#000000" fill-rule="evenodd" fill-opacity="1" stroke="none"/>
<circle clip-path="url(#clip412)" cx="2090.01" cy="1262.12" r="14.4" fill="#000000" fill-rule="evenodd" fill-opacity="1" stroke="none"/>
<circle clip-path="url(#clip412)" cx="2292.12" cy="1386.4" r="14.4" fill="#000000" fill-rule="evenodd" fill-opacity="1" stroke="none"/>
</svg>
