<?xml version="1.0" encoding="utf-8"?>
<svg xmlns="http://www.w3.org/2000/svg" xmlns:xlink="http://www.w3.org/1999/xlink" width="600" height="400" viewBox="0 0 2400 1600">
<defs>
  <clipPath id="clip470">
    <rect x="0" y="0" width="2400" height="1600"/>
  </clipPath>
</defs>
<path clip-path="url(#clip470)" d="M0 1600 L2400 1600 L2400 0 L0 0  Z" fill="#ffffff" fill-rule="evenodd" fill-opacity="1"/>
<defs>
  <clipPath id="clip471">
    <rect x="480" y="0" width="1681" height="1600"/>
  </clipPath>
</defs>
<path clip-path="url(#clip470)" d="M175.445 1423.18 L2352.76 1423.18 L2352.76 47.2441 L175.445 47.2441  Z" fill="#ffffff" fill-rule="evenodd" fill-opacity="1"/>
<defs>
  <clipPath id="clip472">
    <rect x="175" y="47" width="2178" height="1377"/>
  </clipPath>
</defs>
<polyline clip-path="url(#clip472)" style="stroke:#000000; stroke-linecap:round; stroke-linejoin:round; stroke-width:2; stroke-opacity:0.1; fill:none" points="237.067,1423.18 237.067,47.2441 "/>
<polyline clip-path="url(#clip472)" style="stroke:#000000; stroke-linecap:round; stroke-linejoin:round; stroke-width:2; stroke-opacity:0.1; fill:none" points="750.584,1423.18 750.584,47.2441 "/>
<polyline clip-path="url(#clip472)" style="stroke:#000000; stroke-linecap:round; stroke-linejoin:round; stroke-width:2; stroke-opacity:0.1; fill:none" points="1264.1,1423.18 1264.1,47.2441 "/>
<polyline clip-path="url(#clip472)" style="stroke:#000000; stroke-linecap:round; stroke-linejoin:round; stroke-width:2; stroke-opacity:0.1; fill:none" points="1777.62,1423.18 1777.62,47.2441 "/>
<polyline clip-path="url(#clip472)" style="stroke:#000000; stroke-linecap:round; stroke-linejoin:round; stroke-width:2; stroke-opacity:0.1; fill:none" points="2291.13,1423.18 2291.13,47.2441 "/>
<polyline clip-path="url(#clip472)" style="stroke:#000000; stroke-linecap:round; stroke-linejoin:round; stroke-width:2; stroke-opacity:0.1; fill:none" points="175.445,1384.24 2352.76,1384.24 "/>
<polyline clip-path="url(#clip472)" style="stroke:#000000; stroke-linecap:round; stroke-linejoin:round; stroke-width:2; stroke-opacity:0.1; fill:none" points="175.445,1138.94 2352.76,1138.94 "/>
<polyline clip-path="url(#clip472)" style="stroke:#000000; stroke-linecap:round; stroke-linejoin:round; stroke-width:2; stroke-opacity:0.1; fill:none" points="175.445,893.65 2352.76,893.65 "/>
<polyline clip-path="url(#clip472)" style="stroke:#000000; stroke-linecap:round; stroke-linejoin:round; stroke-width:2; stroke-opacity:0.1; fill:none" points="175.445,648.355 2352.76,648.355 "/>
<polyline clip-path="url(#clip472)" style="stroke:#000000; stroke-linecap:round; stroke-linejoin:round; stroke-width:2; stroke-opacity:0.1; fill:none" points="175.445,403.061 2352.76,403.061 "/>
<polyline clip-path="url(#clip472)" style="stroke:#000000; stroke-linecap:round; stroke-linejoin:round; stroke-width:2; stroke-opacity:0.1; fill:none" points="175.445,157.767 2352.76,157.767 "/>
<polyline clip-path="url(#clip470)" style="stroke:#000000; stroke-linecap:round; stroke-linejoin:round; stroke-width:4; stroke-opacity:1; fill:none" points="175.445,1423.18 2352.76,1423.18 "/>
<polyline clip-path="url(#clip470)" style="stroke:#000000; stroke-linecap:round; stroke-linejoin:round; stroke-width:4; stroke-opacity:1; fill:none" points="237.067,1423.18 237.067,1404.28 "/>
<polyline clip-path="url(#clip470)" style="stroke:#000000; stroke-linecap:round; stroke-linejoin:round; stroke-width:4; stroke-opacity:1; fill:none" points="750.584,1423.18 750.584,1404.28 "/>
<polyline clip-path="url(#clip470)" style="stroke:#000000; stroke-linecap:round; stroke-linejoin:round; stroke-width:4; stroke-opacity:1; fill:none" points="1264.1,1423.18 1264.1,1404.28 "/>
<polyline clip-path="url(#clip470)" style="stroke:#000000; stroke-linecap:round; stroke-linejoin:round; stroke-width:4; stroke-opacity:1; fill:none" points="1777.62,1423.18 1777.62,1404.28 "/>
<polyline clip-path="url(#clip470)" style="stroke:#000000; stroke-linecap:round; stroke-linejoin:round; stroke-width:4; stroke-opacity:1; fill:none" points="2291.13,1423.18 2291.13,1404.28 "/>
<path clip-path="url(#clip470)" d="M207.009 1468.75 L236.685 1468.75 L236.685 1472.69 L207.009 1472.69 L207.009 1468.75 Z" fill="#000000" fill-rule="nonzero" fill-opacity="1" /><path clip-path="url(#clip470)" d="M250.806 1481.64 L267.125 1481.64 L267.125 1485.58 L245.181 1485.58 L245.181 1481.64 Q247.843 1478.89 252.426 1474.26 Q257.032 1469.61 258.213 1468.27 Q260.458 1465.74 261.338 1464.01 Q262.241 1462.25 262.241 1460.56 Q262.241 1457.8 260.296 1456.07 Q258.375 1454.33 255.273 1454.33 Q253.074 1454.33 250.62 1455.09 Q248.19 1455.86 245.412 1457.41 L245.412 1452.69 Q248.236 1451.55 250.69 1450.97 Q253.144 1450.39 255.181 1450.39 Q260.551 1450.39 263.745 1453.08 Q266.94 1455.77 266.94 1460.26 Q266.94 1462.39 266.13 1464.31 Q265.343 1466.2 263.236 1468.8 Q262.657 1469.47 259.556 1472.69 Q256.454 1475.88 250.806 1481.64 Z" fill="#000000" fill-rule="nonzero" fill-opacity="1" /><path clip-path="url(#clip470)" d="M720.341 1468.75 L750.017 1468.75 L750.017 1472.69 L720.341 1472.69 L720.341 1468.75 Z" fill="#000000" fill-rule="nonzero" fill-opacity="1" /><path clip-path="url(#clip470)" d="M760.919 1481.64 L768.558 1481.64 L768.558 1455.28 L760.248 1456.95 L760.248 1452.69 L768.512 1451.02 L773.188 1451.02 L773.188 1481.64 L780.827 1481.64 L780.827 1485.58 L760.919 1485.58 L760.919 1481.64 Z" fill="#000000" fill-rule="nonzero" fill-opacity="1" /><path clip-path="url(#clip470)" d="M1264.1 1454.1 Q1260.49 1454.1 1258.66 1457.66 Q1256.86 1461.2 1256.86 1468.33 Q1256.86 1475.44 1258.66 1479.01 Q1260.49 1482.55 1264.1 1482.55 Q1267.73 1482.55 1269.54 1479.01 Q1271.37 1475.44 1271.37 1468.33 Q1271.37 1461.2 1269.54 1457.66 Q1267.73 1454.1 1264.1 1454.1 M1264.1 1450.39 Q1269.91 1450.39 1272.97 1455 Q1276.04 1459.58 1276.04 1468.33 Q1276.04 1477.06 1272.97 1481.67 Q1269.91 1486.25 1264.1 1486.25 Q1258.29 1486.25 1255.21 1481.67 Q1252.16 1477.06 1252.16 1468.33 Q1252.16 1459.58 1255.21 1455 Q1258.29 1450.39 1264.1 1450.39 Z" fill="#000000" fill-rule="nonzero" fill-opacity="1" /><path clip-path="url(#clip470)" d="M1768 1481.64 L1775.64 1481.64 L1775.64 1455.28 L1767.33 1456.95 L1767.33 1452.69 L1775.59 1451.02 L1780.27 1451.02 L1780.27 1481.64 L1787.91 1481.64 L1787.91 1485.58 L1768 1485.58 L1768 1481.64 Z" fill="#000000" fill-rule="nonzero" fill-opacity="1" /><path clip-path="url(#clip470)" d="M2285.79 1481.64 L2302.11 1481.64 L2302.11 1485.58 L2280.16 1485.58 L2280.16 1481.64 Q2282.82 1478.89 2287.41 1474.26 Q2292.01 1469.61 2293.19 1468.27 Q2295.44 1465.74 2296.32 1464.01 Q2297.22 1462.25 2297.22 1460.56 Q2297.22 1457.8 2295.28 1456.07 Q2293.36 1454.33 2290.25 1454.33 Q2288.06 1454.33 2285.6 1455.09 Q2283.17 1455.86 2280.39 1457.41 L2280.39 1452.69 Q2283.22 1451.55 2285.67 1450.97 Q2288.12 1450.39 2290.16 1450.39 Q2295.53 1450.39 2298.73 1453.08 Q2301.92 1455.77 2301.92 1460.26 Q2301.92 1462.39 2301.11 1464.31 Q2300.32 1466.2 2298.22 1468.8 Q2297.64 1469.47 2294.54 1472.69 Q2291.43 1475.88 2285.79 1481.64 Z" fill="#000000" fill-rule="nonzero" fill-opacity="1" /><path clip-path="url(#clip470)" d="M1280.72 1532.4 L1267.82 1549.74 L1281.38 1568.04 L1274.48 1568.04 L1264.1 1554.04 L1253.72 1568.04 L1246.82 1568.04 L1260.66 1549.39 L1248 1532.4 L1254.9 1532.4 L1264.36 1545.1 L1273.81 1532.4 L1280.72 1532.4 Z" fill="#000000" fill-rule="nonzero" fill-opacity="1" /><polyline clip-path="url(#clip470)" style="stroke:#000000; stroke-linecap:round; stroke-linejoin:round; stroke-width:4; stroke-opacity:1; fill:none" points="175.445,1423.18 175.445,47.2441 "/>
<polyline clip-path="url(#clip470)" style="stroke:#000000; stroke-linecap:round; stroke-linejoin:round; stroke-width:4; stroke-opacity:1; fill:none" points="175.445,1384.24 194.343,1384.24 "/>
<polyline clip-path="url(#clip470)" style="stroke:#000000; stroke-linecap:round; stroke-linejoin:round; stroke-width:4; stroke-opacity:1; fill:none" points="175.445,1138.94 194.343,1138.94 "/>
<polyline clip-path="url(#clip470)" style="stroke:#000000; stroke-linecap:round; stroke-linejoin:round; stroke-width:4; stroke-opacity:1; fill:none" points="175.445,893.65 194.343,893.65 "/>
<polyline clip-path="url(#clip470)" style="stroke:#000000; stroke-linecap:round; stroke-linejoin:round; stroke-width:4; stroke-opacity:1; fill:none" points="175.445,648.355 194.343,648.355 "/>
<polyline clip-path="url(#clip470)" style="stroke:#000000; stroke-linecap:round; stroke-linejoin:round; stroke-width:4; stroke-opacity:1; fill:none" points="175.445,403.061 194.343,403.061 "/>
<polyline clip-path="url(#clip470)" style="stroke:#000000; stroke-linecap:round; stroke-linejoin:round; stroke-width:4; stroke-opacity:1; fill:none" points="175.445,157.767 194.343,157.767 "/>
<path clip-path="url(#clip470)" d="M127.501 1370.04 Q123.89 1370.04 122.061 1373.6 Q120.255 1377.14 120.255 1384.27 Q120.255 1391.38 122.061 1394.94 Q123.89 1398.49 127.501 1398.49 Q131.135 1398.49 132.941 1394.94 Q134.769 1391.38 134.769 1384.27 Q134.769 1377.14 132.941 1373.6 Q131.135 1370.04 127.501 1370.04 M127.501 1366.33 Q133.311 1366.33 136.367 1370.94 Q139.445 1375.52 139.445 1384.27 Q139.445 1393 136.367 1397.61 Q133.311 1402.19 127.501 1402.19 Q121.691 1402.19 118.612 1397.61 Q115.556 1393 115.556 1384.27 Q115.556 1375.52 118.612 1370.94 Q121.691 1366.33 127.501 1366.33 Z" fill="#000000" fill-rule="nonzero" fill-opacity="1" /><path clip-path="url(#clip470)" d="M119.538 1152.29 L127.177 1152.29 L127.177 1125.92 L118.867 1127.59 L118.867 1123.33 L127.13 1121.66 L131.806 1121.66 L131.806 1152.29 L139.445 1152.29 L139.445 1156.22 L119.538 1156.22 L119.538 1152.29 Z" fill="#000000" fill-rule="nonzero" fill-opacity="1" /><path clip-path="url(#clip470)" d="M123.126 906.994 L139.445 906.994 L139.445 910.93 L117.501 910.93 L117.501 906.994 Q120.163 904.24 124.746 899.61 Q129.353 894.958 130.533 893.615 Q132.779 891.092 133.658 889.356 Q134.561 887.596 134.561 885.907 Q134.561 883.152 132.617 881.416 Q130.695 879.68 127.593 879.68 Q125.394 879.68 122.941 880.444 Q120.51 881.208 117.732 882.759 L117.732 878.036 Q120.556 876.902 123.01 876.323 Q125.464 875.745 127.501 875.745 Q132.871 875.745 136.066 878.43 Q139.26 881.115 139.26 885.606 Q139.26 887.735 138.45 889.657 Q137.663 891.555 135.556 894.147 Q134.978 894.819 131.876 898.036 Q128.774 901.231 123.126 906.994 Z" fill="#000000" fill-rule="nonzero" fill-opacity="1" /><path clip-path="url(#clip470)" d="M132.316 647.001 Q135.672 647.719 137.547 649.987 Q139.445 652.256 139.445 655.589 Q139.445 660.705 135.927 663.506 Q132.408 666.307 125.927 666.307 Q123.751 666.307 121.436 665.867 Q119.144 665.45 116.691 664.594 L116.691 660.08 Q118.635 661.214 120.95 661.793 Q123.265 662.371 125.788 662.371 Q130.186 662.371 132.478 660.635 Q134.792 658.899 134.792 655.589 Q134.792 652.534 132.64 650.821 Q130.51 649.085 126.691 649.085 L122.663 649.085 L122.663 645.242 L126.876 645.242 Q130.325 645.242 132.154 643.876 Q133.982 642.487 133.982 639.895 Q133.982 637.233 132.084 635.821 Q130.209 634.386 126.691 634.386 Q124.769 634.386 122.57 634.802 Q120.371 635.219 117.732 636.098 L117.732 631.932 Q120.394 631.191 122.709 630.821 Q125.047 630.45 127.107 630.45 Q132.431 630.45 135.533 632.881 Q138.635 635.288 138.635 639.409 Q138.635 642.279 136.992 644.27 Q135.348 646.237 132.316 647.001 Z" fill="#000000" fill-rule="nonzero" fill-opacity="1" /><path clip-path="url(#clip470)" d="M129.862 389.855 L118.056 408.304 L129.862 408.304 L129.862 389.855 M128.635 385.781 L134.515 385.781 L134.515 408.304 L139.445 408.304 L139.445 412.193 L134.515 412.193 L134.515 420.341 L129.862 420.341 L129.862 412.193 L114.26 412.193 L114.26 407.679 L128.635 385.781 Z" fill="#000000" fill-rule="nonzero" fill-opacity="1" /><path clip-path="url(#clip470)" d="M118.543 140.487 L136.899 140.487 L136.899 144.422 L122.825 144.422 L122.825 152.894 Q123.843 152.547 124.862 152.385 Q125.88 152.2 126.899 152.2 Q132.686 152.2 136.066 155.371 Q139.445 158.542 139.445 163.959 Q139.445 169.538 135.973 172.639 Q132.501 175.718 126.181 175.718 Q124.005 175.718 121.737 175.348 Q119.492 174.977 117.084 174.237 L117.084 169.538 Q119.168 170.672 121.39 171.227 Q123.612 171.783 126.089 171.783 Q130.093 171.783 132.431 169.676 Q134.769 167.57 134.769 163.959 Q134.769 160.348 132.431 158.241 Q130.093 156.135 126.089 156.135 Q124.214 156.135 122.339 156.551 Q120.487 156.968 118.543 157.848 L118.543 140.487 Z" fill="#000000" fill-rule="nonzero" fill-opacity="1" /><path clip-path="url(#clip470)" d="M67.3143 733.525 Q73.68 736.008 75.6216 738.363 Q77.5631 740.718 77.5631 744.665 L77.5631 749.344 L72.6615 749.344 L72.6615 745.906 Q72.6615 743.487 71.5157 742.151 Q70.3699 740.814 66.1048 739.191 L63.4312 738.14 L28.3562 752.559 L28.3562 746.352 L56.238 735.212 L28.3562 724.072 L28.3562 717.865 L67.3143 733.525 Z" fill="#000000" fill-rule="nonzero" fill-opacity="1" /><circle clip-path="url(#clip472)" cx="237.067" cy="86.1857" r="21.6" fill="#0000ff" fill-rule="evenodd" fill-opacity="1" stroke="#000000" stroke-opacity="1" stroke-width="3.2"/>
<circle clip-path="url(#clip472)" cx="750.584" cy="1384.24" r="21.6" fill="#ff0000" fill-rule="evenodd" fill-opacity="1" stroke="#000000" stroke-opacity="1" stroke-width="3.2"/>
<circle clip-path="url(#clip472)" cx="1264.1" cy="1023.01" r="21.6" fill="#0000ff" fill-rule="evenodd" fill-opacity="1" stroke="#000000" stroke-opacity="1" stroke-width="3.2"/>
<circle clip-path="url(#clip472)" cx="1777.62" cy="939.689" r="21.6" fill="#0000ff" fill-rule="evenodd" fill-opacity="1" stroke="#000000" stroke-opacity="1" stroke-width="3.2"/>
<circle clip-path="url(#clip472)" cx="2291.13" cy="1369.67" r="21.6" fill="#0000ff" fill-rule="evenodd" fill-opacity="1" stroke="#000000" stroke-opacity="1" stroke-width="3.2"/>
<polyline clip-path="url(#clip472)" style="stroke:#000000; stroke-linecap:round; stroke-linejoin:round; stroke-width:8; stroke-opacity:1; fill:none" stroke-dasharray="32, 20" points="237.067,162.673 750.584,459.479 1264.1,756.285 1777.62,1053.09 2291.13,1349.9 "/>
<path clip-path="url(#clip470)" d="M1754.05 248.629 L2280.18 248.629 L2280.18 93.1086 L1754.05 93.1086  Z" fill="#ffffff" fill-rule="evenodd" fill-opacity="1"/>
<polyline clip-path="url(#clip470)" style="stroke:#000000; stroke-linecap:round; stroke-linejoin:round; stroke-width:4; stroke-opacity:1; fill:none" points="1754.05,248.629 2280.18,248.629 2280.18,93.1086 1754.05,93.1086 1754.05,248.629 "/>
<circle clip-path="url(#clip470)" cx="1850.82" cy="144.949" r="21.2677" fill="#0000ff" fill-rule="evenodd" fill-opacity="1" stroke="#000000" stroke-opacity="1" stroke-width="3.15077"/>
<path clip-path="url(#clip470)" d="M1963.6 130.84 Q1958.51 130.84 1955.5 134.636 Q1952.52 138.432 1952.52 144.983 Q1952.52 151.511 1955.5 155.307 Q1958.51 159.104 1963.6 159.104 Q1968.7 159.104 1971.66 155.307 Q1974.65 151.511 1974.65 144.983 Q1974.65 138.432 1971.66 134.636 Q1968.7 130.84 1963.6 130.84 M1963.6 127.044 Q1970.87 127.044 1975.22 131.928 Q1979.58 136.789 1979.58 144.983 Q1979.58 153.155 1975.22 158.039 Q1970.87 162.9 1963.6 162.9 Q1956.31 162.9 1951.94 158.039 Q1947.59 153.178 1947.59 144.983 Q1947.59 136.789 1951.94 131.928 Q1956.31 127.044 1963.6 127.044 Z" fill="#000000" fill-rule="nonzero" fill-opacity="1" /><path clip-path="url(#clip470)" d="M2005.32 149.289 Q2005.32 144.59 2003.37 141.928 Q2001.45 139.243 1998.07 139.243 Q1994.69 139.243 1992.75 141.928 Q1990.83 144.59 1990.83 149.289 Q1990.83 153.988 1992.75 156.673 Q1994.69 159.335 1998.07 159.335 Q2001.45 159.335 2003.37 156.673 Q2005.32 153.988 2005.32 149.289 M1990.83 140.238 Q1992.17 137.923 1994.21 136.812 Q1996.27 135.678 1999.11 135.678 Q2003.84 135.678 2006.77 139.428 Q2009.74 143.178 2009.74 149.289 Q2009.74 155.4 2006.77 159.15 Q2003.84 162.9 1999.11 162.9 Q1996.27 162.9 1994.21 161.789 Q1992.17 160.655 1990.83 158.34 L1990.83 162.229 L1986.54 162.229 L1986.54 126.21 L1990.83 126.21 L1990.83 140.238 Z" fill="#000000" fill-rule="nonzero" fill-opacity="1" /><path clip-path="url(#clip470)" d="M2033.33 137.067 L2033.33 141.094 Q2031.52 140.169 2029.58 139.706 Q2027.63 139.243 2025.55 139.243 Q2022.38 139.243 2020.78 140.215 Q2019.21 141.187 2019.21 143.131 Q2019.21 144.613 2020.34 145.469 Q2021.47 146.303 2024.9 147.067 L2026.36 147.391 Q2030.9 148.363 2032.79 150.145 Q2034.71 151.905 2034.71 155.076 Q2034.71 158.687 2031.84 160.793 Q2029 162.9 2024 162.9 Q2021.91 162.9 2019.65 162.483 Q2017.4 162.09 2014.9 161.28 L2014.9 156.881 Q2017.26 158.108 2019.55 158.733 Q2021.84 159.335 2024.09 159.335 Q2027.1 159.335 2028.72 158.317 Q2030.34 157.275 2030.34 155.4 Q2030.34 153.664 2029.16 152.738 Q2028 151.812 2024.04 150.956 L2022.56 150.608 Q2018.6 149.775 2016.84 148.062 Q2015.09 146.326 2015.09 143.317 Q2015.09 139.659 2017.68 137.669 Q2020.27 135.678 2025.04 135.678 Q2027.4 135.678 2029.48 136.025 Q2031.57 136.372 2033.33 137.067 Z" fill="#000000" fill-rule="nonzero" fill-opacity="1" /><path clip-path="url(#clip470)" d="M2063.67 148.201 L2063.67 150.284 L2044.09 150.284 Q2044.37 154.682 2046.73 156.997 Q2049.11 159.289 2053.35 159.289 Q2055.8 159.289 2058.09 158.687 Q2060.41 158.085 2062.68 156.881 L2062.68 160.909 Q2060.39 161.881 2057.98 162.391 Q2055.57 162.9 2053.09 162.9 Q2046.89 162.9 2043.26 159.289 Q2039.65 155.678 2039.65 149.52 Q2039.65 143.155 2043.07 139.428 Q2046.52 135.678 2052.35 135.678 Q2057.58 135.678 2060.62 139.057 Q2063.67 142.414 2063.67 148.201 M2059.41 146.951 Q2059.37 143.456 2057.45 141.372 Q2055.55 139.289 2052.4 139.289 Q2048.83 139.289 2046.68 141.303 Q2044.55 143.317 2044.23 146.974 L2059.41 146.951 Z" fill="#000000" fill-rule="nonzero" fill-opacity="1" /><path clip-path="url(#clip470)" d="M2085.69 140.284 Q2084.97 139.868 2084.11 139.682 Q2083.28 139.474 2082.26 139.474 Q2078.65 139.474 2076.71 141.835 Q2074.78 144.173 2074.78 148.571 L2074.78 162.229 L2070.5 162.229 L2070.5 136.303 L2074.78 136.303 L2074.78 140.331 Q2076.13 137.969 2078.28 136.835 Q2080.43 135.678 2083.51 135.678 Q2083.95 135.678 2084.48 135.747 Q2085.02 135.794 2085.66 135.909 L2085.69 140.284 Z" fill="#000000" fill-rule="nonzero" fill-opacity="1" /><path clip-path="url(#clip470)" d="M2087.1 136.303 L2091.61 136.303 L2099.71 158.062 L2107.82 136.303 L2112.33 136.303 L2102.61 162.229 L2096.82 162.229 L2087.1 136.303 Z" fill="#000000" fill-rule="nonzero" fill-opacity="1" /><path clip-path="url(#clip470)" d="M2129.99 149.196 Q2124.83 149.196 2122.84 150.377 Q2120.85 151.557 2120.85 154.405 Q2120.85 156.673 2122.33 158.016 Q2123.83 159.335 2126.4 159.335 Q2129.95 159.335 2132.08 156.835 Q2134.23 154.312 2134.23 150.145 L2134.23 149.196 L2129.99 149.196 M2138.49 147.437 L2138.49 162.229 L2134.23 162.229 L2134.23 158.293 Q2132.77 160.655 2130.59 161.789 Q2128.42 162.9 2125.27 162.9 Q2121.29 162.9 2118.93 160.678 Q2116.59 158.432 2116.59 154.682 Q2116.59 150.307 2119.51 148.085 Q2122.45 145.863 2128.26 145.863 L2134.23 145.863 L2134.23 145.446 Q2134.23 142.507 2132.28 140.909 Q2130.36 139.289 2126.87 139.289 Q2124.64 139.289 2122.54 139.821 Q2120.43 140.354 2118.49 141.419 L2118.49 137.483 Q2120.83 136.581 2123.02 136.141 Q2125.22 135.678 2127.31 135.678 Q2132.93 135.678 2135.71 138.594 Q2138.49 141.511 2138.49 147.437 Z" fill="#000000" fill-rule="nonzero" fill-opacity="1" /><path clip-path="url(#clip470)" d="M2151.47 128.942 L2151.47 136.303 L2160.25 136.303 L2160.25 139.613 L2151.47 139.613 L2151.47 153.687 Q2151.47 156.858 2152.33 157.761 Q2153.21 158.664 2155.87 158.664 L2160.25 158.664 L2160.25 162.229 L2155.87 162.229 Q2150.94 162.229 2149.07 160.4 Q2147.19 158.548 2147.19 153.687 L2147.19 139.613 L2144.07 139.613 L2144.07 136.303 L2147.19 136.303 L2147.19 128.942 L2151.47 128.942 Z" fill="#000000" fill-rule="nonzero" fill-opacity="1" /><path clip-path="url(#clip470)" d="M2165.85 136.303 L2170.11 136.303 L2170.11 162.229 L2165.85 162.229 L2165.85 136.303 M2165.85 126.21 L2170.11 126.21 L2170.11 131.604 L2165.85 131.604 L2165.85 126.21 Z" fill="#000000" fill-rule="nonzero" fill-opacity="1" /><path clip-path="url(#clip470)" d="M2189.07 139.289 Q2185.64 139.289 2183.65 141.974 Q2181.66 144.636 2181.66 149.289 Q2181.66 153.942 2183.63 156.627 Q2185.62 159.289 2189.07 159.289 Q2192.47 159.289 2194.46 156.604 Q2196.45 153.918 2196.45 149.289 Q2196.45 144.682 2194.46 141.997 Q2192.47 139.289 2189.07 139.289 M2189.07 135.678 Q2194.62 135.678 2197.79 139.289 Q2200.96 142.9 2200.96 149.289 Q2200.96 155.655 2197.79 159.289 Q2194.62 162.9 2189.07 162.9 Q2183.49 162.9 2180.32 159.289 Q2177.17 155.655 2177.17 149.289 Q2177.17 142.9 2180.32 139.289 Q2183.49 135.678 2189.07 135.678 Z" fill="#000000" fill-rule="nonzero" fill-opacity="1" /><path clip-path="url(#clip470)" d="M2229.57 146.581 L2229.57 162.229 L2225.32 162.229 L2225.32 146.719 Q2225.32 143.039 2223.88 141.21 Q2222.45 139.382 2219.57 139.382 Q2216.13 139.382 2214.13 141.581 Q2212.14 143.78 2212.14 147.576 L2212.14 162.229 L2207.86 162.229 L2207.86 136.303 L2212.14 136.303 L2212.14 140.331 Q2213.67 137.993 2215.73 136.835 Q2217.82 135.678 2220.52 135.678 Q2224.99 135.678 2227.28 138.456 Q2229.57 141.21 2229.57 146.581 Z" fill="#000000" fill-rule="nonzero" fill-opacity="1" /><path clip-path="url(#clip470)" d="M2254.6 137.067 L2254.6 141.094 Q2252.79 140.169 2250.85 139.706 Q2248.9 139.243 2246.82 139.243 Q2243.65 139.243 2242.05 140.215 Q2240.48 141.187 2240.48 143.131 Q2240.48 144.613 2241.61 145.469 Q2242.75 146.303 2246.17 147.067 L2247.63 147.391 Q2252.17 148.363 2254.07 150.145 Q2255.99 151.905 2255.99 155.076 Q2255.99 158.687 2253.12 160.793 Q2250.27 162.9 2245.27 162.9 Q2243.19 162.9 2240.92 162.483 Q2238.67 162.09 2236.17 161.28 L2236.17 156.881 Q2238.53 158.108 2240.82 158.733 Q2243.12 159.335 2245.36 159.335 Q2248.37 159.335 2249.99 158.317 Q2251.61 157.275 2251.61 155.4 Q2251.61 153.664 2250.43 152.738 Q2249.27 151.812 2245.32 150.956 L2243.83 150.608 Q2239.88 149.775 2238.12 148.062 Q2236.36 146.326 2236.36 143.317 Q2236.36 139.659 2238.95 137.669 Q2241.54 135.678 2246.31 135.678 Q2248.67 135.678 2250.76 136.025 Q2252.84 136.372 2254.6 137.067 Z" fill="#000000" fill-rule="nonzero" fill-opacity="1" /><polyline clip-path="url(#clip470)" style="stroke:#000000; stroke-linecap:round; stroke-linejoin:round; stroke-width:8; stroke-opacity:1; fill:none" stroke-dasharray="32, 20" points="1778.24,196.789 1923.39,196.789 "/>
<path clip-path="url(#clip470)" d="M1947.59 179.509 L1976.82 179.509 L1976.82 183.444 L1964.55 183.444 L1964.55 214.069 L1959.85 214.069 L1959.85 183.444 L1947.59 183.444 L1947.59 179.509 Z" fill="#000000" fill-rule="nonzero" fill-opacity="1" /><path clip-path="url(#clip470)" d="M1989.21 192.124 Q1988.49 191.708 1987.63 191.522 Q1986.8 191.314 1985.78 191.314 Q1982.17 191.314 1980.22 193.675 Q1978.3 196.013 1978.3 200.411 L1978.3 214.069 L1974.02 214.069 L1974.02 188.143 L1978.3 188.143 L1978.3 192.171 Q1979.65 189.809 1981.8 188.675 Q1983.95 187.518 1987.03 187.518 Q1987.47 187.518 1988 187.587 Q1988.53 187.634 1989.18 187.749 L1989.21 192.124 Z" fill="#000000" fill-rule="nonzero" fill-opacity="1" /><path clip-path="url(#clip470)" d="M1993.23 203.837 L1993.23 188.143 L1997.49 188.143 L1997.49 203.675 Q1997.49 207.356 1998.93 209.208 Q2000.36 211.036 2003.23 211.036 Q2006.68 211.036 2008.67 208.837 Q2010.69 206.638 2010.69 202.842 L2010.69 188.143 L2014.95 188.143 L2014.95 214.069 L2010.69 214.069 L2010.69 210.087 Q2009.14 212.448 2007.08 213.606 Q2005.04 214.74 2002.33 214.74 Q1997.86 214.74 1995.55 211.962 Q1993.23 209.184 1993.23 203.837 M2003.95 187.518 L2003.95 187.518 Z" fill="#000000" fill-rule="nonzero" fill-opacity="1" /><path clip-path="url(#clip470)" d="M2045.9 200.041 L2045.9 202.124 L2026.31 202.124 Q2026.59 206.522 2028.95 208.837 Q2031.33 211.129 2035.57 211.129 Q2038.02 211.129 2040.32 210.527 Q2042.63 209.925 2044.9 208.721 L2044.9 212.749 Q2042.61 213.721 2040.2 214.231 Q2037.79 214.74 2035.32 214.74 Q2029.11 214.74 2025.48 211.129 Q2021.87 207.518 2021.87 201.36 Q2021.87 194.995 2025.29 191.268 Q2028.74 187.518 2034.58 187.518 Q2039.81 187.518 2042.84 190.897 Q2045.9 194.254 2045.9 200.041 M2041.64 198.791 Q2041.59 195.296 2039.67 193.212 Q2037.77 191.129 2034.62 191.129 Q2031.06 191.129 2028.9 193.143 Q2026.77 195.157 2026.45 198.814 L2041.64 198.791 Z" fill="#000000" fill-rule="nonzero" fill-opacity="1" /><path clip-path="url(#clip470)" d="M2067.96 178.05 L2072.21 178.05 L2072.21 214.069 L2067.96 214.069 L2067.96 178.05 Z" fill="#000000" fill-rule="nonzero" fill-opacity="1" /><path clip-path="url(#clip470)" d="M2081.13 188.143 L2085.39 188.143 L2085.39 214.069 L2081.13 214.069 L2081.13 188.143 M2081.13 178.05 L2085.39 178.05 L2085.39 183.444 L2081.13 183.444 L2081.13 178.05 Z" fill="#000000" fill-rule="nonzero" fill-opacity="1" /><path clip-path="url(#clip470)" d="M2115.85 198.421 L2115.85 214.069 L2111.59 214.069 L2111.59 198.559 Q2111.59 194.879 2110.15 193.05 Q2108.72 191.222 2105.85 191.222 Q2102.4 191.222 2100.41 193.421 Q2098.42 195.62 2098.42 199.416 L2098.42 214.069 L2094.14 214.069 L2094.14 188.143 L2098.42 188.143 L2098.42 192.171 Q2099.95 189.833 2102.01 188.675 Q2104.09 187.518 2106.8 187.518 Q2111.27 187.518 2113.56 190.296 Q2115.85 193.05 2115.85 198.421 Z" fill="#000000" fill-rule="nonzero" fill-opacity="1" /><path clip-path="url(#clip470)" d="M2146.52 200.041 L2146.52 202.124 L2126.94 202.124 Q2127.21 206.522 2129.58 208.837 Q2131.96 211.129 2136.2 211.129 Q2138.65 211.129 2140.94 210.527 Q2143.26 209.925 2145.52 208.721 L2145.52 212.749 Q2143.23 213.721 2140.83 214.231 Q2138.42 214.74 2135.94 214.74 Q2129.74 214.74 2126.1 211.129 Q2122.49 207.518 2122.49 201.36 Q2122.49 194.995 2125.92 191.268 Q2129.37 187.518 2135.2 187.518 Q2140.43 187.518 2143.46 190.897 Q2146.52 194.254 2146.52 200.041 M2142.26 198.791 Q2142.21 195.296 2140.29 193.212 Q2138.39 191.129 2135.25 191.129 Q2131.68 191.129 2129.53 193.143 Q2127.4 195.157 2127.08 198.814 L2142.26 198.791 Z" fill="#000000" fill-rule="nonzero" fill-opacity="1" /></svg>
