<?xml version="1.0" encoding="utf-8"?>
<svg xmlns="http://www.w3.org/2000/svg" xmlns:xlink="http://www.w3.org/1999/xlink" width="600" height="400" viewBox="0 0 2400 1600">
<defs>
  <clipPath id="clip250">
    <rect x="0" y="0" width="2400" height="1600"/>
  </clipPath>
</defs>
<path clip-path="url(#clip250)" d="M0 1600 L2400 1600 L2400 0 L0 0  Z" fill="#ffffff" fill-rule="evenodd" fill-opacity="1"/>
<defs>
  <clipPath id="clip251">
    <rect x="480" y="0" width="1681" height="1600"/>
  </clipPath>
</defs>
<path clip-path="url(#clip250)" d="M219.38 1423.18 L2352.76 1423.18 L2352.76 47.2441 L219.38 47.2441  Z" fill="#ffffff" fill-rule="evenodd" fill-opacity="1"/>
<defs>
  <clipPath id="clip252">
    <rect x="219" y="47" width="2134" height="1377"/>
  </clipPath>
</defs>
<polyline clip-path="url(#clip252)" style="stroke:#000000; stroke-linecap:round; stroke-linejoin:round; stroke-width:2; stroke-opacity:0.1; fill:none" points="219.38,1423.18 219.38,47.2441 "/>
<polyline clip-path="url(#clip252)" style="stroke:#000000; stroke-linecap:round; stroke-linejoin:round; stroke-width:2; stroke-opacity:0.1; fill:none" points="646.055,1423.18 646.055,47.2441 "/>
<polyline clip-path="url(#clip252)" style="stroke:#000000; stroke-linecap:round; stroke-linejoin:round; stroke-width:2; stroke-opacity:0.1; fill:none" points="1072.73,1423.18 1072.73,47.2441 "/>
<polyline clip-path="url(#clip252)" style="stroke:#000000; stroke-linecap:round; stroke-linejoin:round; stroke-width:2; stroke-opacity:0.1; fill:none" points="1499.41,1423.18 1499.41,47.2441 "/>
<polyline clip-path="url(#clip252)" style="stroke:#000000; stroke-linecap:round; stroke-linejoin:round; stroke-width:2; stroke-opacity:0.1; fill:none" points="1926.08,1423.18 1926.08,47.2441 "/>
<polyline clip-path="url(#clip252)" style="stroke:#000000; stroke-linecap:round; stroke-linejoin:round; stroke-width:2; stroke-opacity:0.1; fill:none" points="2352.76,1423.18 2352.76,47.2441 "/>
<polyline clip-path="url(#clip252)" style="stroke:#000000; stroke-linecap:round; stroke-linejoin:round; stroke-width:2; stroke-opacity:0.1; fill:none" points="219.38,1423.18 2352.76,1423.18 "/>
<polyline clip-path="url(#clip252)" style="stroke:#000000; stroke-linecap:round; stroke-linejoin:round; stroke-width:2; stroke-opacity:0.1; fill:none" points="219.38,1052.74 2352.76,1052.74 "/>
<polyline clip-path="url(#clip252)" style="stroke:#000000; stroke-linecap:round; stroke-linejoin:round; stroke-width:2; stroke-opacity:0.1; fill:none" points="219.38,682.29 2352.76,682.29 "/>
<polyline clip-path="url(#clip252)" style="stroke:#000000; stroke-linecap:round; stroke-linejoin:round; stroke-width:2; stroke-opacity:0.1; fill:none" points="219.38,311.846 2352.76,311.846 "/>
<polyline clip-path="url(#clip250)" style="stroke:#000000; stroke-linecap:round; stroke-linejoin:round; stroke-width:4; stroke-opacity:1; fill:none" points="219.38,1423.18 2352.76,1423.18 "/>
<polyline clip-path="url(#clip250)" style="stroke:#000000; stroke-linecap:round; stroke-linejoin:round; stroke-width:4; stroke-opacity:1; fill:none" points="219.38,1423.18 219.38,1404.28 "/>
<polyline clip-path="url(#clip250)" style="stroke:#000000; stroke-linecap:round; stroke-linejoin:round; stroke-width:4; stroke-opacity:1; fill:none" points="646.055,1423.18 646.055,1404.28 "/>
<polyline clip-path="url(#clip250)" style="stroke:#000000; stroke-linecap:round; stroke-linejoin:round; stroke-width:4; stroke-opacity:1; fill:none" points="1072.73,1423.18 1072.73,1404.28 "/>
<polyline clip-path="url(#clip250)" style="stroke:#000000; stroke-linecap:round; stroke-linejoin:round; stroke-width:4; stroke-opacity:1; fill:none" points="1499.41,1423.18 1499.41,1404.28 "/>
<polyline clip-path="url(#clip250)" style="stroke:#000000; stroke-linecap:round; stroke-linejoin:round; stroke-width:4; stroke-opacity:1; fill:none" points="1926.08,1423.18 1926.08,1404.28 "/>
<polyline clip-path="url(#clip250)" style="stroke:#000000; stroke-linecap:round; stroke-linejoin:round; stroke-width:4; stroke-opacity:1; fill:none" points="2352.76,1423.18 2352.76,1404.28 "/>
<path clip-path="url(#clip250)" d="M196.765 1454.1 Q193.153 1454.1 191.325 1457.66 Q189.519 1461.2 189.519 1468.33 Q189.519 1475.44 191.325 1479.01 Q193.153 1482.55 196.765 1482.55 Q200.399 1482.55 202.204 1479.01 Q204.033 1475.44 204.033 1468.33 Q204.033 1461.2 202.204 1457.66 Q200.399 1454.1 196.765 1454.1 M196.765 1450.39 Q202.575 1450.39 205.63 1455 Q208.709 1459.58 208.709 1468.33 Q208.709 1477.06 205.63 1481.67 Q202.575 1486.25 196.765 1486.25 Q190.954 1486.25 187.876 1481.67 Q184.82 1477.06 184.82 1468.33 Q184.82 1459.58 187.876 1455 Q190.954 1450.39 196.765 1450.39 Z" fill="#000000" fill-rule="nonzero" fill-opacity="1" /><path clip-path="url(#clip250)" d="M216.926 1479.7 L221.811 1479.7 L221.811 1485.58 L216.926 1485.58 L216.926 1479.7 Z" fill="#000000" fill-rule="nonzero" fill-opacity="1" /><path clip-path="url(#clip250)" d="M241.996 1454.1 Q238.385 1454.1 236.556 1457.66 Q234.75 1461.2 234.75 1468.33 Q234.75 1475.44 236.556 1479.01 Q238.385 1482.55 241.996 1482.55 Q245.63 1482.55 247.436 1479.01 Q249.264 1475.44 249.264 1468.33 Q249.264 1461.2 247.436 1457.66 Q245.63 1454.1 241.996 1454.1 M241.996 1450.39 Q247.806 1450.39 250.861 1455 Q253.94 1459.58 253.94 1468.33 Q253.94 1477.06 250.861 1481.67 Q247.806 1486.25 241.996 1486.25 Q236.186 1486.25 233.107 1481.67 Q230.051 1477.06 230.051 1468.33 Q230.051 1459.58 233.107 1455 Q236.186 1450.39 241.996 1450.39 Z" fill="#000000" fill-rule="nonzero" fill-opacity="1" /><path clip-path="url(#clip250)" d="M624.238 1454.1 Q620.627 1454.1 618.799 1457.66 Q616.993 1461.2 616.993 1468.33 Q616.993 1475.44 618.799 1479.01 Q620.627 1482.55 624.238 1482.55 Q627.873 1482.55 629.678 1479.01 Q631.507 1475.44 631.507 1468.33 Q631.507 1461.2 629.678 1457.66 Q627.873 1454.1 624.238 1454.1 M624.238 1450.39 Q630.048 1450.39 633.104 1455 Q636.183 1459.58 636.183 1468.33 Q636.183 1477.06 633.104 1481.67 Q630.048 1486.25 624.238 1486.25 Q618.428 1486.25 615.349 1481.67 Q612.294 1477.06 612.294 1468.33 Q612.294 1459.58 615.349 1455 Q618.428 1450.39 624.238 1450.39 Z" fill="#000000" fill-rule="nonzero" fill-opacity="1" /><path clip-path="url(#clip250)" d="M644.4 1479.7 L649.284 1479.7 L649.284 1485.58 L644.4 1485.58 L644.4 1479.7 Z" fill="#000000" fill-rule="nonzero" fill-opacity="1" /><path clip-path="url(#clip250)" d="M663.497 1481.64 L679.817 1481.64 L679.817 1485.58 L657.872 1485.58 L657.872 1481.64 Q660.534 1478.89 665.118 1474.26 Q669.724 1469.61 670.905 1468.27 Q673.15 1465.74 674.03 1464.01 Q674.932 1462.25 674.932 1460.56 Q674.932 1457.8 672.988 1456.07 Q671.067 1454.33 667.965 1454.33 Q665.766 1454.33 663.312 1455.09 Q660.882 1455.86 658.104 1457.41 L658.104 1452.69 Q660.928 1451.55 663.382 1450.97 Q665.835 1450.39 667.872 1450.39 Q673.243 1450.39 676.437 1453.08 Q679.632 1455.77 679.632 1460.26 Q679.632 1462.39 678.821 1464.31 Q678.034 1466.2 675.928 1468.8 Q675.349 1469.47 672.247 1472.69 Q669.145 1475.88 663.497 1481.64 Z" fill="#000000" fill-rule="nonzero" fill-opacity="1" /><path clip-path="url(#clip250)" d="M1049.87 1454.1 Q1046.26 1454.1 1044.43 1457.66 Q1042.63 1461.2 1042.63 1468.33 Q1042.63 1475.44 1044.43 1479.01 Q1046.26 1482.55 1049.87 1482.55 Q1053.51 1482.55 1055.31 1479.01 Q1057.14 1475.44 1057.14 1468.33 Q1057.14 1461.2 1055.31 1457.66 Q1053.51 1454.1 1049.87 1454.1 M1049.87 1450.39 Q1055.68 1450.39 1058.74 1455 Q1061.82 1459.58 1061.82 1468.33 Q1061.82 1477.06 1058.74 1481.67 Q1055.68 1486.25 1049.87 1486.25 Q1044.06 1486.25 1040.98 1481.67 Q1037.93 1477.06 1037.93 1468.33 Q1037.93 1459.58 1040.98 1455 Q1044.06 1450.39 1049.87 1450.39 Z" fill="#000000" fill-rule="nonzero" fill-opacity="1" /><path clip-path="url(#clip250)" d="M1070.03 1479.7 L1074.92 1479.7 L1074.92 1485.58 L1070.03 1485.58 L1070.03 1479.7 Z" fill="#000000" fill-rule="nonzero" fill-opacity="1" /><path clip-path="url(#clip250)" d="M1097.95 1455.09 L1086.14 1473.54 L1097.95 1473.54 L1097.95 1455.09 M1096.72 1451.02 L1102.6 1451.02 L1102.6 1473.54 L1107.53 1473.54 L1107.53 1477.43 L1102.6 1477.43 L1102.6 1485.58 L1097.95 1485.58 L1097.95 1477.43 L1082.35 1477.43 L1082.35 1472.92 L1096.72 1451.02 Z" fill="#000000" fill-rule="nonzero" fill-opacity="1" /><path clip-path="url(#clip250)" d="M1476.71 1454.1 Q1473.1 1454.1 1471.27 1457.66 Q1469.46 1461.2 1469.46 1468.33 Q1469.46 1475.44 1471.27 1479.01 Q1473.1 1482.55 1476.71 1482.55 Q1480.34 1482.55 1482.15 1479.01 Q1483.98 1475.44 1483.98 1468.33 Q1483.98 1461.2 1482.15 1457.66 Q1480.34 1454.1 1476.71 1454.1 M1476.71 1450.39 Q1482.52 1450.39 1485.57 1455 Q1488.65 1459.58 1488.65 1468.33 Q1488.65 1477.06 1485.57 1481.67 Q1482.52 1486.25 1476.71 1486.25 Q1470.9 1486.25 1467.82 1481.67 Q1464.76 1477.06 1464.76 1468.33 Q1464.76 1459.58 1467.82 1455 Q1470.9 1450.39 1476.71 1450.39 Z" fill="#000000" fill-rule="nonzero" fill-opacity="1" /><path clip-path="url(#clip250)" d="M1496.87 1479.7 L1501.76 1479.7 L1501.76 1485.58 L1496.87 1485.58 L1496.87 1479.7 Z" fill="#000000" fill-rule="nonzero" fill-opacity="1" /><path clip-path="url(#clip250)" d="M1522.52 1466.44 Q1519.37 1466.44 1517.52 1468.59 Q1515.69 1470.74 1515.69 1474.49 Q1515.69 1478.22 1517.52 1480.39 Q1519.37 1482.55 1522.52 1482.55 Q1525.67 1482.55 1527.5 1480.39 Q1529.35 1478.22 1529.35 1474.49 Q1529.35 1470.74 1527.5 1468.59 Q1525.67 1466.44 1522.52 1466.44 M1531.8 1451.78 L1531.8 1456.04 Q1530.04 1455.21 1528.24 1454.77 Q1526.45 1454.33 1524.69 1454.33 Q1520.07 1454.33 1517.61 1457.45 Q1515.18 1460.58 1514.83 1466.9 Q1516.2 1464.89 1518.26 1463.82 Q1520.32 1462.73 1522.8 1462.73 Q1528 1462.73 1531.01 1465.9 Q1534.05 1469.05 1534.05 1474.49 Q1534.05 1479.82 1530.9 1483.03 Q1527.75 1486.25 1522.52 1486.25 Q1516.52 1486.25 1513.35 1481.67 Q1510.18 1477.06 1510.18 1468.33 Q1510.18 1460.14 1514.07 1455.28 Q1517.96 1450.39 1524.51 1450.39 Q1526.27 1450.39 1528.05 1450.74 Q1529.86 1451.09 1531.8 1451.78 Z" fill="#000000" fill-rule="nonzero" fill-opacity="1" /><path clip-path="url(#clip250)" d="M1903.51 1454.1 Q1899.9 1454.1 1898.07 1457.66 Q1896.27 1461.2 1896.27 1468.33 Q1896.27 1475.44 1898.07 1479.01 Q1899.9 1482.55 1903.51 1482.55 Q1907.15 1482.55 1908.95 1479.01 Q1910.78 1475.44 1910.78 1468.33 Q1910.78 1461.2 1908.95 1457.66 Q1907.15 1454.1 1903.51 1454.1 M1903.51 1450.39 Q1909.32 1450.39 1912.38 1455 Q1915.46 1459.58 1915.46 1468.33 Q1915.46 1477.06 1912.38 1481.67 Q1909.32 1486.25 1903.51 1486.25 Q1897.7 1486.25 1894.62 1481.67 Q1891.57 1477.06 1891.57 1468.33 Q1891.57 1459.58 1894.62 1455 Q1897.7 1450.39 1903.51 1450.39 Z" fill="#000000" fill-rule="nonzero" fill-opacity="1" /><path clip-path="url(#clip250)" d="M1923.67 1479.7 L1928.56 1479.7 L1928.56 1485.58 L1923.67 1485.58 L1923.67 1479.7 Z" fill="#000000" fill-rule="nonzero" fill-opacity="1" /><path clip-path="url(#clip250)" d="M1948.74 1469.17 Q1945.41 1469.17 1943.49 1470.95 Q1941.59 1472.73 1941.59 1475.86 Q1941.59 1478.98 1943.49 1480.77 Q1945.41 1482.55 1948.74 1482.55 Q1952.08 1482.55 1954 1480.77 Q1955.92 1478.96 1955.92 1475.86 Q1955.92 1472.73 1954 1470.95 Q1952.1 1469.17 1948.74 1469.17 M1944.07 1467.18 Q1941.06 1466.44 1939.37 1464.38 Q1937.7 1462.32 1937.7 1459.35 Q1937.7 1455.21 1940.64 1452.8 Q1943.6 1450.39 1948.74 1450.39 Q1953.9 1450.39 1956.84 1452.8 Q1959.78 1455.21 1959.78 1459.35 Q1959.78 1462.32 1958.09 1464.38 Q1956.43 1466.44 1953.44 1467.18 Q1956.82 1467.96 1958.7 1470.26 Q1960.59 1472.55 1960.59 1475.86 Q1960.59 1480.88 1957.52 1483.57 Q1954.46 1486.25 1948.74 1486.25 Q1943.03 1486.25 1939.95 1483.57 Q1936.89 1480.88 1936.89 1475.86 Q1936.89 1472.55 1938.79 1470.26 Q1940.69 1467.96 1944.07 1467.18 M1942.35 1459.79 Q1942.35 1462.48 1944.02 1463.98 Q1945.71 1465.49 1948.74 1465.49 Q1951.75 1465.49 1953.44 1463.98 Q1955.15 1462.48 1955.15 1459.79 Q1955.15 1457.11 1953.44 1455.6 Q1951.75 1454.1 1948.74 1454.1 Q1945.71 1454.1 1944.02 1455.6 Q1942.35 1457.11 1942.35 1459.79 Z" fill="#000000" fill-rule="nonzero" fill-opacity="1" /><path clip-path="url(#clip250)" d="M2319.91 1481.64 L2327.55 1481.64 L2327.55 1455.28 L2319.24 1456.95 L2319.24 1452.69 L2327.5 1451.02 L2332.18 1451.02 L2332.18 1481.64 L2339.82 1481.64 L2339.82 1485.58 L2319.91 1485.58 L2319.91 1481.64 Z" fill="#000000" fill-rule="nonzero" fill-opacity="1" /><path clip-path="url(#clip250)" d="M2349.26 1479.7 L2354.14 1479.7 L2354.14 1485.58 L2349.26 1485.58 L2349.26 1479.7 Z" fill="#000000" fill-rule="nonzero" fill-opacity="1" /><path clip-path="url(#clip250)" d="M2374.33 1454.1 Q2370.72 1454.1 2368.89 1457.66 Q2367.08 1461.2 2367.08 1468.33 Q2367.08 1475.44 2368.89 1479.01 Q2370.72 1482.55 2374.33 1482.55 Q2377.96 1482.55 2379.77 1479.01 Q2381.6 1475.44 2381.6 1468.33 Q2381.6 1461.2 2379.77 1457.66 Q2377.96 1454.1 2374.33 1454.1 M2374.33 1450.39 Q2380.14 1450.39 2383.2 1455 Q2386.27 1459.58 2386.27 1468.33 Q2386.27 1477.06 2383.2 1481.67 Q2380.14 1486.25 2374.33 1486.25 Q2368.52 1486.25 2365.44 1481.67 Q2362.39 1477.06 2362.39 1468.33 Q2362.39 1459.58 2365.44 1455 Q2368.52 1450.39 2374.33 1450.39 Z" fill="#000000" fill-rule="nonzero" fill-opacity="1" /><path clip-path="url(#clip250)" d="M788.397 1524.88 Q781.395 1524.88 777.257 1530.1 Q773.151 1535.32 773.151 1544.33 Q773.151 1553.31 777.257 1558.53 Q781.395 1563.75 788.397 1563.75 Q795.399 1563.75 799.473 1558.53 Q803.579 1553.31 803.579 1544.33 Q803.579 1535.32 799.473 1530.1 Q795.399 1524.88 788.397 1524.88 M788.397 1519.66 Q798.391 1519.66 804.375 1526.38 Q810.359 1533.06 810.359 1544.33 Q810.359 1555.57 804.375 1562.28 Q798.391 1568.97 788.397 1568.97 Q778.371 1568.97 772.356 1562.28 Q766.372 1555.6 766.372 1544.33 Q766.372 1533.06 772.356 1526.38 Q778.371 1519.66 788.397 1519.66 Z" fill="#000000" fill-rule="nonzero" fill-opacity="1" /><path clip-path="url(#clip250)" d="M819.557 1553.98 L819.557 1532.4 L825.414 1532.4 L825.414 1553.75 Q825.414 1558.81 827.387 1561.36 Q829.36 1563.87 833.307 1563.87 Q838.05 1563.87 840.787 1560.85 Q843.556 1557.83 843.556 1552.61 L843.556 1532.4 L849.412 1532.4 L849.412 1568.04 L843.556 1568.04 L843.556 1562.57 Q841.423 1565.82 838.591 1567.41 Q835.79 1568.97 832.066 1568.97 Q825.923 1568.97 822.74 1565.15 Q819.557 1561.33 819.557 1553.98 M834.294 1531.54 L834.294 1531.54 Z" fill="#000000" fill-rule="nonzero" fill-opacity="1" /><path clip-path="url(#clip250)" d="M867.268 1522.27 L867.268 1532.4 L879.331 1532.4 L879.331 1536.95 L867.268 1536.95 L867.268 1556.3 Q867.268 1560.66 868.446 1561.9 Q869.655 1563.14 873.316 1563.14 L879.331 1563.14 L879.331 1568.04 L873.316 1568.04 Q866.536 1568.04 863.958 1565.53 Q861.38 1562.98 861.38 1556.3 L861.38 1536.95 L857.083 1536.95 L857.083 1532.4 L861.38 1532.4 L861.38 1522.27 L867.268 1522.27 Z" fill="#000000" fill-rule="nonzero" fill-opacity="1" /><path clip-path="url(#clip250)" d="M887.034 1518.52 L892.89 1518.52 L892.89 1568.04 L887.034 1568.04 L887.034 1518.52 Z" fill="#000000" fill-rule="nonzero" fill-opacity="1" /><path clip-path="url(#clip250)" d="M905.144 1532.4 L911.001 1532.4 L911.001 1568.04 L905.144 1568.04 L905.144 1532.4 M905.144 1518.52 L911.001 1518.52 L911.001 1525.93 L905.144 1525.93 L905.144 1518.52 Z" fill="#000000" fill-rule="nonzero" fill-opacity="1" /><path clip-path="url(#clip250)" d="M953.746 1548.76 L953.746 1551.62 L926.819 1551.62 Q927.201 1557.67 930.448 1560.85 Q933.726 1564 939.551 1564 Q942.925 1564 946.076 1563.17 Q949.258 1562.35 952.378 1560.69 L952.378 1566.23 Q949.227 1567.57 945.916 1568.27 Q942.606 1568.97 939.201 1568.97 Q930.671 1568.97 925.674 1564 Q920.708 1559.04 920.708 1550.57 Q920.708 1541.82 925.419 1536.69 Q930.161 1531.54 938.182 1531.54 Q945.375 1531.54 949.545 1536.18 Q953.746 1540.8 953.746 1548.76 M947.89 1547.04 Q947.826 1542.23 945.184 1539.37 Q942.575 1536.5 938.246 1536.5 Q933.344 1536.5 930.384 1539.27 Q927.456 1542.04 927.01 1547.07 L947.89 1547.04 Z" fill="#000000" fill-rule="nonzero" fill-opacity="1" /><path clip-path="url(#clip250)" d="M984.015 1537.87 Q983.029 1537.3 981.851 1537.04 Q980.705 1536.76 979.305 1536.76 Q974.339 1536.76 971.666 1540 Q969.024 1543.22 969.024 1549.27 L969.024 1568.04 L963.136 1568.04 L963.136 1532.4 L969.024 1532.4 L969.024 1537.93 Q970.87 1534.69 973.83 1533.13 Q976.79 1531.54 981.023 1531.54 Q981.628 1531.54 982.36 1531.63 Q983.092 1531.7 983.983 1531.85 L984.015 1537.87 Z" fill="#000000" fill-rule="nonzero" fill-opacity="1" /><path clip-path="url(#clip250)" d="M1017.56 1525.81 L1017.56 1543.66 L1025.65 1543.66 Q1030.13 1543.66 1032.59 1541.34 Q1035.04 1539.02 1035.04 1534.72 Q1035.04 1530.45 1032.59 1528.13 Q1030.13 1525.81 1025.65 1525.81 L1017.56 1525.81 M1011.13 1520.52 L1025.65 1520.52 Q1033.64 1520.52 1037.71 1524.15 Q1041.82 1527.75 1041.82 1534.72 Q1041.82 1541.75 1037.71 1545.35 Q1033.64 1548.95 1025.65 1548.95 L1017.56 1548.95 L1017.56 1568.04 L1011.13 1568.04 L1011.13 1520.52 Z" fill="#000000" fill-rule="nonzero" fill-opacity="1" /><path clip-path="url(#clip250)" d="M1069.7 1537.87 Q1068.71 1537.3 1067.53 1537.04 Q1066.39 1536.76 1064.99 1536.76 Q1060.02 1536.76 1057.35 1540 Q1054.71 1543.22 1054.71 1549.27 L1054.71 1568.04 L1048.82 1568.04 L1048.82 1532.4 L1054.71 1532.4 L1054.71 1537.93 Q1056.55 1534.69 1059.51 1533.13 Q1062.47 1531.54 1066.71 1531.54 Q1067.31 1531.54 1068.04 1531.63 Q1068.77 1531.7 1069.67 1531.85 L1069.7 1537.87 Z" fill="#000000" fill-rule="nonzero" fill-opacity="1" /><path clip-path="url(#clip250)" d="M1088.22 1536.5 Q1083.51 1536.5 1080.77 1540.19 Q1078.04 1543.85 1078.04 1550.25 Q1078.04 1556.65 1080.74 1560.34 Q1083.48 1564 1088.22 1564 Q1092.9 1564 1095.64 1560.31 Q1098.38 1556.62 1098.38 1550.25 Q1098.38 1543.92 1095.64 1540.23 Q1092.9 1536.5 1088.22 1536.5 M1088.22 1531.54 Q1095.86 1531.54 1100.22 1536.5 Q1104.58 1541.47 1104.58 1550.25 Q1104.58 1559 1100.22 1564 Q1095.86 1568.97 1088.22 1568.97 Q1080.55 1568.97 1076.19 1564 Q1071.86 1559 1071.86 1550.25 Q1071.86 1541.47 1076.19 1536.5 Q1080.55 1531.54 1088.22 1531.54 Z" fill="#000000" fill-rule="nonzero" fill-opacity="1" /><path clip-path="url(#clip250)" d="M1139.88 1550.25 Q1139.88 1543.79 1137.21 1540.13 Q1134.56 1536.44 1129.92 1536.44 Q1125.27 1536.44 1122.6 1540.13 Q1119.95 1543.79 1119.95 1550.25 Q1119.95 1556.71 1122.6 1560.4 Q1125.27 1564.07 1129.92 1564.07 Q1134.56 1564.07 1137.21 1560.4 Q1139.88 1556.71 1139.88 1550.25 M1119.95 1537.81 Q1121.8 1534.62 1124.6 1533.1 Q1127.43 1531.54 1131.35 1531.54 Q1137.84 1531.54 1141.88 1536.69 Q1145.96 1541.85 1145.96 1550.25 Q1145.96 1558.65 1141.88 1563.81 Q1137.84 1568.97 1131.35 1568.97 Q1127.43 1568.97 1124.6 1567.44 Q1121.8 1565.88 1119.95 1562.7 L1119.95 1568.04 L1114.07 1568.04 L1114.07 1518.52 L1119.95 1518.52 L1119.95 1537.81 Z" fill="#000000" fill-rule="nonzero" fill-opacity="1" /><path clip-path="url(#clip250)" d="M1171.87 1550.12 Q1164.77 1550.12 1162.03 1551.75 Q1159.29 1553.37 1159.29 1557.29 Q1159.29 1560.4 1161.33 1562.25 Q1163.4 1564.07 1166.93 1564.07 Q1171.8 1564.07 1174.73 1560.63 Q1177.69 1557.16 1177.69 1551.43 L1177.69 1550.12 L1171.87 1550.12 M1183.55 1547.71 L1183.55 1568.04 L1177.69 1568.04 L1177.69 1562.63 Q1175.69 1565.88 1172.69 1567.44 Q1169.7 1568.97 1165.37 1568.97 Q1159.9 1568.97 1156.65 1565.91 Q1153.44 1562.82 1153.44 1557.67 Q1153.44 1551.65 1157.45 1548.6 Q1161.49 1545.54 1169.48 1545.54 L1177.69 1545.54 L1177.69 1544.97 Q1177.69 1540.93 1175.02 1538.73 Q1172.38 1536.5 1167.57 1536.5 Q1164.51 1536.5 1161.62 1537.23 Q1158.72 1537.97 1156.05 1539.43 L1156.05 1534.02 Q1159.26 1532.78 1162.29 1532.17 Q1165.31 1531.54 1168.18 1531.54 Q1175.91 1531.54 1179.73 1535.55 Q1183.55 1539.56 1183.55 1547.71 Z" fill="#000000" fill-rule="nonzero" fill-opacity="1" /><path clip-path="url(#clip250)" d="M1221.2 1550.25 Q1221.2 1543.79 1218.53 1540.13 Q1215.89 1536.44 1211.24 1536.44 Q1206.59 1536.44 1203.92 1540.13 Q1201.28 1543.79 1201.28 1550.25 Q1201.28 1556.71 1203.92 1560.4 Q1206.59 1564.07 1211.24 1564.07 Q1215.89 1564.07 1218.53 1560.4 Q1221.2 1556.71 1221.2 1550.25 M1201.28 1537.81 Q1203.12 1534.62 1205.92 1533.1 Q1208.76 1531.54 1212.67 1531.54 Q1219.16 1531.54 1223.21 1536.69 Q1227.28 1541.85 1227.28 1550.25 Q1227.28 1558.65 1223.21 1563.81 Q1219.16 1568.97 1212.67 1568.97 Q1208.76 1568.97 1205.92 1567.44 Q1203.12 1565.88 1201.28 1562.7 L1201.28 1568.04 L1195.39 1568.04 L1195.39 1518.52 L1201.28 1518.52 L1201.28 1537.81 Z" fill="#000000" fill-rule="nonzero" fill-opacity="1" /><path clip-path="url(#clip250)" d="M1236.99 1532.4 L1242.84 1532.4 L1242.84 1568.04 L1236.99 1568.04 L1236.99 1532.4 M1236.99 1518.52 L1242.84 1518.52 L1242.84 1525.93 L1236.99 1525.93 L1236.99 1518.52 Z" fill="#000000" fill-rule="nonzero" fill-opacity="1" /><path clip-path="url(#clip250)" d="M1255.1 1518.52 L1260.96 1518.52 L1260.96 1568.04 L1255.1 1568.04 L1255.1 1518.52 Z" fill="#000000" fill-rule="nonzero" fill-opacity="1" /><path clip-path="url(#clip250)" d="M1273.21 1532.4 L1279.07 1532.4 L1279.07 1568.04 L1273.21 1568.04 L1273.21 1532.4 M1273.21 1518.52 L1279.07 1518.52 L1279.07 1525.93 L1273.21 1525.93 L1273.21 1518.52 Z" fill="#000000" fill-rule="nonzero" fill-opacity="1" /><path clip-path="url(#clip250)" d="M1297.11 1522.27 L1297.11 1532.4 L1309.18 1532.4 L1309.18 1536.95 L1297.11 1536.95 L1297.11 1556.3 Q1297.11 1560.66 1298.29 1561.9 Q1299.5 1563.14 1303.16 1563.14 L1309.18 1563.14 L1309.18 1568.04 L1303.16 1568.04 Q1296.38 1568.04 1293.8 1565.53 Q1291.22 1562.98 1291.22 1556.3 L1291.22 1536.95 L1286.93 1536.95 L1286.93 1532.4 L1291.22 1532.4 L1291.22 1522.27 L1297.11 1522.27 Z" fill="#000000" fill-rule="nonzero" fill-opacity="1" /><path clip-path="url(#clip250)" d="M1331.71 1571.35 Q1329.23 1577.72 1326.87 1579.66 Q1324.52 1581.6 1320.57 1581.6 L1315.89 1581.6 L1315.89 1576.7 L1319.33 1576.7 Q1321.75 1576.7 1323.08 1575.56 Q1324.42 1574.41 1326.04 1570.14 L1327.1 1567.47 L1312.68 1532.4 L1318.88 1532.4 L1330.02 1560.28 L1341.16 1532.4 L1347.37 1532.4 L1331.71 1571.35 Z" fill="#000000" fill-rule="nonzero" fill-opacity="1" /><path clip-path="url(#clip250)" d="M1390.24 1518.58 Q1385.98 1525.9 1383.91 1533.06 Q1381.84 1540.23 1381.84 1547.58 Q1381.84 1554.93 1383.91 1562.16 Q1386.01 1569.35 1390.24 1576.64 L1385.15 1576.64 Q1380.38 1569.16 1377.99 1561.93 Q1375.63 1554.71 1375.63 1547.58 Q1375.63 1540.48 1377.99 1533.29 Q1380.34 1526.09 1385.15 1518.58 L1390.24 1518.58 Z" fill="#000000" fill-rule="nonzero" fill-opacity="1" /><path clip-path="url(#clip250)" d="M1407.27 1562.7 L1407.27 1581.6 L1401.38 1581.6 L1401.38 1532.4 L1407.27 1532.4 L1407.27 1537.81 Q1409.12 1534.62 1411.92 1533.1 Q1414.75 1531.54 1418.67 1531.54 Q1425.16 1531.54 1429.2 1536.69 Q1433.27 1541.85 1433.27 1550.25 Q1433.27 1558.65 1429.2 1563.81 Q1425.16 1568.97 1418.67 1568.97 Q1414.75 1568.97 1411.92 1567.44 Q1409.12 1565.88 1407.27 1562.7 M1427.2 1550.25 Q1427.2 1543.79 1424.52 1540.13 Q1421.88 1536.44 1417.23 1536.44 Q1412.59 1536.44 1409.91 1540.13 Q1407.27 1543.79 1407.27 1550.25 Q1407.27 1556.71 1409.91 1560.4 Q1412.59 1564.07 1417.23 1564.07 Q1421.88 1564.07 1424.52 1560.4 Q1427.2 1556.71 1427.2 1550.25 Z" fill="#000000" fill-rule="nonzero" fill-opacity="1" /><path clip-path="url(#clip250)" d="M1463.64 1537.87 Q1462.65 1537.3 1461.48 1537.04 Q1460.33 1536.76 1458.93 1536.76 Q1453.96 1536.76 1451.29 1540 Q1448.65 1543.22 1448.65 1549.27 L1448.65 1568.04 L1442.76 1568.04 L1442.76 1532.4 L1448.65 1532.4 L1448.65 1537.93 Q1450.49 1534.69 1453.45 1533.13 Q1456.41 1531.54 1460.65 1531.54 Q1461.25 1531.54 1461.98 1531.63 Q1462.72 1531.7 1463.61 1531.85 L1463.64 1537.87 Z" fill="#000000" fill-rule="nonzero" fill-opacity="1" /><path clip-path="url(#clip250)" d="M1482.16 1536.5 Q1477.45 1536.5 1474.72 1540.19 Q1471.98 1543.85 1471.98 1550.25 Q1471.98 1556.65 1474.68 1560.34 Q1477.42 1564 1482.16 1564 Q1486.84 1564 1489.58 1560.31 Q1492.32 1556.62 1492.32 1550.25 Q1492.32 1543.92 1489.58 1540.23 Q1486.84 1536.5 1482.16 1536.5 M1482.16 1531.54 Q1489.8 1531.54 1494.16 1536.5 Q1498.52 1541.47 1498.52 1550.25 Q1498.52 1559 1494.16 1564 Q1489.8 1568.97 1482.16 1568.97 Q1474.49 1568.97 1470.13 1564 Q1465.8 1559 1465.8 1550.25 Q1465.8 1541.47 1470.13 1536.5 Q1474.49 1531.54 1482.16 1531.54 Z" fill="#000000" fill-rule="nonzero" fill-opacity="1" /><path clip-path="url(#clip250)" d="M1533.82 1550.25 Q1533.82 1543.79 1531.15 1540.13 Q1528.51 1536.44 1523.86 1536.44 Q1519.21 1536.44 1516.54 1540.13 Q1513.9 1543.79 1513.9 1550.25 Q1513.9 1556.71 1516.54 1560.4 Q1519.21 1564.07 1523.86 1564.07 Q1528.51 1564.07 1531.15 1560.4 Q1533.82 1556.71 1533.82 1550.25 M1513.9 1537.81 Q1515.74 1534.62 1518.54 1533.1 Q1521.38 1531.54 1525.29 1531.54 Q1531.78 1531.54 1535.83 1536.69 Q1539.9 1541.85 1539.9 1550.25 Q1539.9 1558.65 1535.83 1563.81 Q1531.78 1568.97 1525.29 1568.97 Q1521.38 1568.97 1518.54 1567.44 Q1515.74 1565.88 1513.9 1562.7 L1513.9 1568.04 L1508.01 1568.04 L1508.01 1518.52 L1513.9 1518.52 L1513.9 1537.81 Z" fill="#000000" fill-rule="nonzero" fill-opacity="1" /><path clip-path="url(#clip250)" d="M1576.69 1578.87 L1576.69 1583.42 L1542.83 1583.42 L1542.83 1578.87 L1576.69 1578.87 Z" fill="#000000" fill-rule="nonzero" fill-opacity="1" /><path clip-path="url(#clip250)" d="M1596.01 1536.5 Q1591.3 1536.5 1588.57 1540.19 Q1585.83 1543.85 1585.83 1550.25 Q1585.83 1556.65 1588.53 1560.34 Q1591.27 1564 1596.01 1564 Q1600.69 1564 1603.43 1560.31 Q1606.17 1556.62 1606.17 1550.25 Q1606.17 1543.92 1603.43 1540.23 Q1600.69 1536.5 1596.01 1536.5 M1596.01 1531.54 Q1603.65 1531.54 1608.01 1536.5 Q1612.37 1541.47 1612.37 1550.25 Q1612.37 1559 1608.01 1564 Q1603.65 1568.97 1596.01 1568.97 Q1588.34 1568.97 1583.98 1564 Q1579.65 1559 1579.65 1550.25 Q1579.65 1541.47 1583.98 1536.5 Q1588.34 1531.54 1596.01 1531.54 Z" fill="#000000" fill-rule="nonzero" fill-opacity="1" /><path clip-path="url(#clip250)" d="M1621.48 1553.98 L1621.48 1532.4 L1627.33 1532.4 L1627.33 1553.75 Q1627.33 1558.81 1629.31 1561.36 Q1631.28 1563.87 1635.23 1563.87 Q1639.97 1563.87 1642.71 1560.85 Q1645.48 1557.83 1645.48 1552.61 L1645.48 1532.4 L1651.33 1532.4 L1651.33 1568.04 L1645.48 1568.04 L1645.48 1562.57 Q1643.34 1565.82 1640.51 1567.41 Q1637.71 1568.97 1633.99 1568.97 Q1627.84 1568.97 1624.66 1565.15 Q1621.48 1561.33 1621.48 1553.98 M1636.21 1531.54 L1636.21 1531.54 Z" fill="#000000" fill-rule="nonzero" fill-opacity="1" /><path clip-path="url(#clip250)" d="M1669.19 1522.27 L1669.19 1532.4 L1681.25 1532.4 L1681.25 1536.95 L1669.19 1536.95 L1669.19 1556.3 Q1669.19 1560.66 1670.37 1561.9 Q1671.58 1563.14 1675.24 1563.14 L1681.25 1563.14 L1681.25 1568.04 L1675.24 1568.04 Q1668.46 1568.04 1665.88 1565.53 Q1663.3 1562.98 1663.3 1556.3 L1663.3 1536.95 L1659 1536.95 L1659 1532.4 L1663.3 1532.4 L1663.3 1522.27 L1669.19 1522.27 Z" fill="#000000" fill-rule="nonzero" fill-opacity="1" /><path clip-path="url(#clip250)" d="M1688.95 1518.52 L1694.81 1518.52 L1694.81 1568.04 L1688.95 1568.04 L1688.95 1518.52 Z" fill="#000000" fill-rule="nonzero" fill-opacity="1" /><path clip-path="url(#clip250)" d="M1707.06 1532.4 L1712.92 1532.4 L1712.92 1568.04 L1707.06 1568.04 L1707.06 1532.4 M1707.06 1518.52 L1712.92 1518.52 L1712.92 1525.93 L1707.06 1525.93 L1707.06 1518.52 Z" fill="#000000" fill-rule="nonzero" fill-opacity="1" /><path clip-path="url(#clip250)" d="M1755.67 1548.76 L1755.67 1551.62 L1728.74 1551.62 Q1729.12 1557.67 1732.37 1560.85 Q1735.65 1564 1741.47 1564 Q1744.84 1564 1748 1563.17 Q1751.18 1562.35 1754.3 1560.69 L1754.3 1566.23 Q1751.15 1567.57 1747.84 1568.27 Q1744.53 1568.97 1741.12 1568.97 Q1732.59 1568.97 1727.59 1564 Q1722.63 1559.04 1722.63 1550.57 Q1722.63 1541.82 1727.34 1536.69 Q1732.08 1531.54 1740.1 1531.54 Q1747.3 1531.54 1751.46 1536.18 Q1755.67 1540.8 1755.67 1548.76 M1749.81 1547.04 Q1749.75 1542.23 1747.1 1539.37 Q1744.49 1536.5 1740.17 1536.5 Q1735.26 1536.5 1732.3 1539.27 Q1729.38 1542.04 1728.93 1547.07 L1749.81 1547.04 Z" fill="#000000" fill-rule="nonzero" fill-opacity="1" /><path clip-path="url(#clip250)" d="M1785.94 1537.87 Q1784.95 1537.3 1783.77 1537.04 Q1782.62 1536.76 1781.22 1536.76 Q1776.26 1536.76 1773.59 1540 Q1770.94 1543.22 1770.94 1549.27 L1770.94 1568.04 L1765.06 1568.04 L1765.06 1532.4 L1770.94 1532.4 L1770.94 1537.93 Q1772.79 1534.69 1775.75 1533.13 Q1778.71 1531.54 1782.94 1531.54 Q1783.55 1531.54 1784.28 1531.63 Q1785.01 1531.7 1785.9 1531.85 L1785.94 1537.87 Z" fill="#000000" fill-rule="nonzero" fill-opacity="1" /><path clip-path="url(#clip250)" d="M1791.16 1518.58 L1796.25 1518.58 Q1801.02 1526.09 1803.38 1533.29 Q1805.76 1540.48 1805.76 1547.58 Q1805.76 1554.71 1803.38 1561.93 Q1801.02 1569.16 1796.25 1576.64 L1791.16 1576.64 Q1795.39 1569.35 1797.46 1562.16 Q1799.56 1554.93 1799.56 1547.58 Q1799.56 1540.23 1797.46 1533.06 Q1795.39 1525.9 1791.16 1518.58 Z" fill="#000000" fill-rule="nonzero" fill-opacity="1" /><polyline clip-path="url(#clip250)" style="stroke:#000000; stroke-linecap:round; stroke-linejoin:round; stroke-width:4; stroke-opacity:1; fill:none" points="219.38,1423.18 219.38,47.2441 "/>
<polyline clip-path="url(#clip250)" style="stroke:#000000; stroke-linecap:round; stroke-linejoin:round; stroke-width:4; stroke-opacity:1; fill:none" points="219.38,1423.18 238.278,1423.18 "/>
<polyline clip-path="url(#clip250)" style="stroke:#000000; stroke-linecap:round; stroke-linejoin:round; stroke-width:4; stroke-opacity:1; fill:none" points="219.38,1052.74 238.278,1052.74 "/>
<polyline clip-path="url(#clip250)" style="stroke:#000000; stroke-linecap:round; stroke-linejoin:round; stroke-width:4; stroke-opacity:1; fill:none" points="219.38,682.29 238.278,682.29 "/>
<polyline clip-path="url(#clip250)" style="stroke:#000000; stroke-linecap:round; stroke-linejoin:round; stroke-width:4; stroke-opacity:1; fill:none" points="219.38,311.846 238.278,311.846 "/>
<path clip-path="url(#clip250)" d="M126.205 1408.98 Q122.593 1408.98 120.765 1412.54 Q118.959 1416.08 118.959 1423.21 Q118.959 1430.32 120.765 1433.89 Q122.593 1437.43 126.205 1437.43 Q129.839 1437.43 131.644 1433.89 Q133.473 1430.32 133.473 1423.21 Q133.473 1416.08 131.644 1412.54 Q129.839 1408.98 126.205 1408.98 M126.205 1405.27 Q132.015 1405.27 135.07 1409.88 Q138.149 1414.46 138.149 1423.21 Q138.149 1431.94 135.07 1436.55 Q132.015 1441.13 126.205 1441.13 Q120.394 1441.13 117.316 1436.55 Q114.26 1431.94 114.26 1423.21 Q114.26 1414.46 117.316 1409.88 Q120.394 1405.27 126.205 1405.27 Z" fill="#000000" fill-rule="nonzero" fill-opacity="1" /><path clip-path="url(#clip250)" d="M146.366 1434.58 L151.251 1434.58 L151.251 1440.46 L146.366 1440.46 L146.366 1434.58 Z" fill="#000000" fill-rule="nonzero" fill-opacity="1" /><path clip-path="url(#clip250)" d="M171.436 1408.98 Q167.825 1408.98 165.996 1412.54 Q164.19 1416.08 164.19 1423.21 Q164.19 1430.32 165.996 1433.89 Q167.825 1437.43 171.436 1437.43 Q175.07 1437.43 176.876 1433.89 Q178.704 1430.32 178.704 1423.21 Q178.704 1416.08 176.876 1412.54 Q175.07 1408.98 171.436 1408.98 M171.436 1405.27 Q177.246 1405.27 180.301 1409.88 Q183.38 1414.46 183.38 1423.21 Q183.38 1431.94 180.301 1436.55 Q177.246 1441.13 171.436 1441.13 Q165.626 1441.13 162.547 1436.55 Q159.491 1431.94 159.491 1423.21 Q159.491 1414.46 162.547 1409.88 Q165.626 1405.27 171.436 1405.27 Z" fill="#000000" fill-rule="nonzero" fill-opacity="1" /><path clip-path="url(#clip250)" d="M127.431 1038.53 Q123.82 1038.53 121.992 1042.1 Q120.186 1045.64 120.186 1052.77 Q120.186 1059.88 121.992 1063.44 Q123.82 1066.98 127.431 1066.98 Q131.066 1066.98 132.871 1063.44 Q134.7 1059.88 134.7 1052.77 Q134.7 1045.64 132.871 1042.1 Q131.066 1038.53 127.431 1038.53 M127.431 1034.83 Q133.242 1034.83 136.297 1039.44 Q139.376 1044.02 139.376 1052.77 Q139.376 1061.5 136.297 1066.1 Q133.242 1070.69 127.431 1070.69 Q121.621 1070.69 118.543 1066.1 Q115.487 1061.5 115.487 1052.77 Q115.487 1044.02 118.543 1039.44 Q121.621 1034.83 127.431 1034.83 Z" fill="#000000" fill-rule="nonzero" fill-opacity="1" /><path clip-path="url(#clip250)" d="M147.593 1064.14 L152.478 1064.14 L152.478 1070.02 L147.593 1070.02 L147.593 1064.14 Z" fill="#000000" fill-rule="nonzero" fill-opacity="1" /><path clip-path="url(#clip250)" d="M163.473 1066.08 L171.112 1066.08 L171.112 1039.71 L162.802 1041.38 L162.802 1037.12 L171.065 1035.46 L175.741 1035.46 L175.741 1066.08 L183.38 1066.08 L183.38 1070.02 L163.473 1070.02 L163.473 1066.08 Z" fill="#000000" fill-rule="nonzero" fill-opacity="1" /><path clip-path="url(#clip250)" d="M127.802 668.089 Q124.191 668.089 122.362 671.654 Q120.556 675.196 120.556 682.325 Q120.556 689.432 122.362 692.996 Q124.191 696.538 127.802 696.538 Q131.436 696.538 133.242 692.996 Q135.07 689.432 135.07 682.325 Q135.07 675.196 133.242 671.654 Q131.436 668.089 127.802 668.089 M127.802 664.385 Q133.612 664.385 136.667 668.992 Q139.746 673.575 139.746 682.325 Q139.746 691.052 136.667 695.658 Q133.612 700.242 127.802 700.242 Q121.992 700.242 118.913 695.658 Q115.857 691.052 115.857 682.325 Q115.857 673.575 118.913 668.992 Q121.992 664.385 127.802 664.385 Z" fill="#000000" fill-rule="nonzero" fill-opacity="1" /><path clip-path="url(#clip250)" d="M147.964 693.691 L152.848 693.691 L152.848 699.57 L147.964 699.57 L147.964 693.691 Z" fill="#000000" fill-rule="nonzero" fill-opacity="1" /><path clip-path="url(#clip250)" d="M167.061 695.635 L183.38 695.635 L183.38 699.57 L161.436 699.57 L161.436 695.635 Q164.098 692.881 168.681 688.251 Q173.288 683.598 174.468 682.256 Q176.714 679.733 177.593 677.996 Q178.496 676.237 178.496 674.547 Q178.496 671.793 176.551 670.057 Q174.63 668.321 171.528 668.321 Q169.329 668.321 166.876 669.084 Q164.445 669.848 161.667 671.399 L161.667 666.677 Q164.491 665.543 166.945 664.964 Q169.399 664.385 171.436 664.385 Q176.806 664.385 180.001 667.071 Q183.195 669.756 183.195 674.246 Q183.195 676.376 182.385 678.297 Q181.598 680.195 179.491 682.788 Q178.913 683.459 175.811 686.677 Q172.709 689.871 167.061 695.635 Z" fill="#000000" fill-rule="nonzero" fill-opacity="1" /><path clip-path="url(#clip250)" d="M126.853 297.644 Q123.242 297.644 121.413 301.209 Q119.607 304.751 119.607 311.88 Q119.607 318.987 121.413 322.552 Q123.242 326.093 126.853 326.093 Q130.487 326.093 132.292 322.552 Q134.121 318.987 134.121 311.88 Q134.121 304.751 132.292 301.209 Q130.487 297.644 126.853 297.644 M126.853 293.941 Q132.663 293.941 135.718 298.547 Q138.797 303.13 138.797 311.88 Q138.797 320.607 135.718 325.214 Q132.663 329.797 126.853 329.797 Q121.043 329.797 117.964 325.214 Q114.908 320.607 114.908 311.88 Q114.908 303.13 117.964 298.547 Q121.043 293.941 126.853 293.941 Z" fill="#000000" fill-rule="nonzero" fill-opacity="1" /><path clip-path="url(#clip250)" d="M147.015 323.246 L151.899 323.246 L151.899 329.126 L147.015 329.126 L147.015 323.246 Z" fill="#000000" fill-rule="nonzero" fill-opacity="1" /><path clip-path="url(#clip250)" d="M176.251 310.492 Q179.607 311.209 181.482 313.478 Q183.38 315.746 183.38 319.079 Q183.38 324.195 179.862 326.996 Q176.343 329.797 169.862 329.797 Q167.686 329.797 165.371 329.357 Q163.079 328.94 160.626 328.084 L160.626 323.57 Q162.57 324.704 164.885 325.283 Q167.2 325.862 169.723 325.862 Q174.121 325.862 176.413 324.126 Q178.727 322.39 178.727 319.079 Q178.727 316.024 176.575 314.311 Q174.445 312.575 170.626 312.575 L166.598 312.575 L166.598 308.732 L170.811 308.732 Q174.26 308.732 176.089 307.367 Q177.917 305.978 177.917 303.385 Q177.917 300.723 176.019 299.311 Q174.144 297.876 170.626 297.876 Q168.704 297.876 166.505 298.292 Q164.306 298.709 161.667 299.589 L161.667 295.422 Q164.329 294.681 166.644 294.311 Q168.982 293.941 171.042 293.941 Q176.366 293.941 179.468 296.371 Q182.57 298.779 182.57 302.899 Q182.57 305.769 180.926 307.76 Q179.283 309.728 176.251 310.492 Z" fill="#000000" fill-rule="nonzero" fill-opacity="1" /><path clip-path="url(#clip250)" d="M20.1444 1215.7 L26.9239 1215.7 Q23.9002 1218.94 22.4043 1222.63 Q20.9083 1226.29 20.9083 1230.43 Q20.9083 1238.58 25.9054 1242.91 Q30.8707 1247.24 40.2919 1247.24 Q49.6813 1247.24 54.6784 1242.91 Q59.6436 1238.58 59.6436 1230.43 Q59.6436 1226.29 58.1477 1222.63 Q56.6518 1218.94 53.6281 1215.7 L60.3439 1215.7 Q62.6355 1219.07 63.7814 1222.86 Q64.9272 1226.61 64.9272 1230.81 Q64.9272 1241.6 58.3387 1247.81 Q51.7183 1254.02 40.2919 1254.02 Q28.8336 1254.02 22.2451 1247.81 Q15.6248 1241.6 15.6248 1230.81 Q15.6248 1226.55 16.7706 1222.79 Q17.8846 1219.01 20.1444 1215.7 Z" fill="#000000" fill-rule="nonzero" fill-opacity="1" /><path clip-path="url(#clip250)" d="M32.4621 1192.21 Q32.4621 1196.92 36.1542 1199.65 Q39.8145 1202.39 46.212 1202.39 Q52.6095 1202.39 56.3017 1199.69 Q59.9619 1196.95 59.9619 1192.21 Q59.9619 1187.53 56.2698 1184.79 Q52.5777 1182.05 46.212 1182.05 Q39.8781 1182.05 36.186 1184.79 Q32.4621 1187.53 32.4621 1192.21 M27.4968 1192.21 Q27.4968 1184.57 32.4621 1180.21 Q37.4273 1175.85 46.212 1175.85 Q54.9649 1175.85 59.9619 1180.21 Q64.9272 1184.57 64.9272 1192.21 Q64.9272 1199.88 59.9619 1204.24 Q54.9649 1208.57 46.212 1208.57 Q37.4273 1208.57 32.4621 1204.24 Q27.4968 1199.88 27.4968 1192.21 Z" fill="#000000" fill-rule="nonzero" fill-opacity="1" /><path clip-path="url(#clip250)" d="M42.4881 1136.51 L64.0042 1136.51 L64.0042 1142.36 L42.679 1142.36 Q37.6183 1142.36 35.1038 1144.34 Q32.5894 1146.31 32.5894 1150.26 Q32.5894 1155 35.6131 1157.74 Q38.6368 1160.47 43.8567 1160.47 L64.0042 1160.47 L64.0042 1166.36 L28.3562 1166.36 L28.3562 1160.47 L33.8944 1160.47 Q30.6797 1158.37 29.0883 1155.54 Q27.4968 1152.68 27.4968 1148.95 Q27.4968 1142.81 31.3163 1139.66 Q35.1038 1136.51 42.4881 1136.51 Z" fill="#000000" fill-rule="nonzero" fill-opacity="1" /><path clip-path="url(#clip250)" d="M33.7671 1101.37 L14.479 1101.37 L14.479 1095.51 L64.0042 1095.51 L64.0042 1101.37 L58.657 1101.37 Q61.8398 1103.21 63.3994 1106.05 Q64.9272 1108.85 64.9272 1112.79 Q64.9272 1119.26 59.771 1123.33 Q54.6147 1127.37 46.212 1127.37 Q37.8093 1127.37 32.6531 1123.33 Q27.4968 1119.26 27.4968 1112.79 Q27.4968 1108.85 29.0564 1106.05 Q30.5842 1103.21 33.7671 1101.37 M46.212 1121.32 Q52.6732 1121.32 56.3653 1118.68 Q60.0256 1116.01 60.0256 1111.36 Q60.0256 1106.71 56.3653 1104.04 Q52.6732 1101.37 46.212 1101.37 Q39.7508 1101.37 36.0905 1104.04 Q32.3984 1106.71 32.3984 1111.36 Q32.3984 1116.01 36.0905 1118.68 Q39.7508 1121.32 46.212 1121.32 Z" fill="#000000" fill-rule="nonzero" fill-opacity="1" /><path clip-path="url(#clip250)" d="M28.3562 1083.45 L28.3562 1077.59 L64.0042 1077.59 L64.0042 1083.45 L28.3562 1083.45 M14.479 1083.45 L14.479 1077.59 L21.895 1077.59 L21.895 1083.45 L14.479 1083.45 Z" fill="#000000" fill-rule="nonzero" fill-opacity="1" /><path clip-path="url(#clip250)" d="M18.2347 1059.54 L28.3562 1059.54 L28.3562 1047.48 L32.9077 1047.48 L32.9077 1059.54 L52.2594 1059.54 Q56.6199 1059.54 57.8613 1058.37 Q59.1026 1057.16 59.1026 1053.5 L59.1026 1047.48 L64.0042 1047.48 L64.0042 1053.5 Q64.0042 1060.28 61.4897 1062.85 Q58.9434 1065.43 52.2594 1065.43 L32.9077 1065.43 L32.9077 1069.73 L28.3562 1069.73 L28.3562 1065.43 L18.2347 1065.43 L18.2347 1059.54 Z" fill="#000000" fill-rule="nonzero" fill-opacity="1" /><path clip-path="url(#clip250)" d="M28.3562 1039.78 L28.3562 1033.92 L64.0042 1033.92 L64.0042 1039.78 L28.3562 1039.78 M14.479 1039.78 L14.479 1033.92 L21.895 1033.92 L21.895 1039.78 L14.479 1039.78 Z" fill="#000000" fill-rule="nonzero" fill-opacity="1" /><path clip-path="url(#clip250)" d="M32.4621 1007.86 Q32.4621 1012.57 36.1542 1015.3 Q39.8145 1018.04 46.212 1018.04 Q52.6095 1018.04 56.3017 1015.33 Q59.9619 1012.6 59.9619 1007.86 Q59.9619 1003.18 56.2698 1000.44 Q52.5777 997.702 46.212 997.702 Q39.8781 997.702 36.186 1000.44 Q32.4621 1003.18 32.4621 1007.86 M27.4968 1007.86 Q27.4968 1000.22 32.4621 995.856 Q37.4273 991.495 46.212 991.495 Q54.9649 991.495 59.9619 995.856 Q64.9272 1000.22 64.9272 1007.86 Q64.9272 1015.53 59.9619 1019.89 Q54.9649 1024.22 46.212 1024.22 Q37.4273 1024.22 32.4621 1019.89 Q27.4968 1015.53 27.4968 1007.86 Z" fill="#000000" fill-rule="nonzero" fill-opacity="1" /><path clip-path="url(#clip250)" d="M42.4881 952.155 L64.0042 952.155 L64.0042 958.012 L42.679 958.012 Q37.6183 958.012 35.1038 959.985 Q32.5894 961.958 32.5894 965.905 Q32.5894 970.648 35.6131 973.385 Q38.6368 976.122 43.8567 976.122 L64.0042 976.122 L64.0042 982.01 L28.3562 982.01 L28.3562 976.122 L33.8944 976.122 Q30.6797 974.021 29.0883 971.189 Q27.4968 968.324 27.4968 964.6 Q27.4968 958.457 31.3163 955.306 Q35.1038 952.155 42.4881 952.155 Z" fill="#000000" fill-rule="nonzero" fill-opacity="1" /><path clip-path="url(#clip250)" d="M46.0847 924.273 Q46.0847 931.371 47.7079 934.108 Q49.3312 936.846 53.2461 936.846 Q56.3653 936.846 58.2114 934.809 Q60.0256 932.74 60.0256 929.207 Q60.0256 924.337 56.5881 921.409 Q53.1188 918.449 47.3897 918.449 L46.0847 918.449 L46.0847 924.273 M43.6657 912.592 L64.0042 912.592 L64.0042 918.449 L58.5933 918.449 Q61.8398 920.454 63.3994 923.446 Q64.9272 926.438 64.9272 930.766 Q64.9272 936.241 61.8716 939.487 Q58.7843 942.702 53.6281 942.702 Q47.6125 942.702 44.5569 938.692 Q41.5014 934.65 41.5014 926.661 L41.5014 918.449 L40.9285 918.449 Q36.8862 918.449 34.6901 921.122 Q32.4621 923.764 32.4621 928.57 Q32.4621 931.626 33.1941 934.522 Q33.9262 937.419 35.3903 940.092 L29.9795 940.092 Q28.7381 936.878 28.1334 933.854 Q27.4968 930.83 27.4968 927.966 Q27.4968 920.231 31.5072 916.412 Q35.5176 912.592 43.6657 912.592 Z" fill="#000000" fill-rule="nonzero" fill-opacity="1" /><path clip-path="url(#clip250)" d="M14.479 900.529 L14.479 894.673 L64.0042 894.673 L64.0042 900.529 L14.479 900.529 Z" fill="#000000" fill-rule="nonzero" fill-opacity="1" /><path clip-path="url(#clip250)" d="M21.7677 855.015 L39.6235 855.015 L39.6235 846.93 Q39.6235 842.442 37.3 839.991 Q34.9765 837.541 30.6797 837.541 Q26.4147 837.541 24.0912 839.991 Q21.7677 842.442 21.7677 846.93 L21.7677 855.015 M16.4842 861.444 L16.4842 846.93 Q16.4842 838.941 20.1126 834.867 Q23.7092 830.761 30.6797 830.761 Q37.7138 830.761 41.3104 834.867 Q44.907 838.941 44.907 846.93 L44.907 855.015 L64.0042 855.015 L64.0042 861.444 L16.4842 861.444 Z" fill="#000000" fill-rule="nonzero" fill-opacity="1" /><path clip-path="url(#clip250)" d="M32.4621 810.9 Q32.4621 815.611 36.1542 818.348 Q39.8145 821.085 46.212 821.085 Q52.6095 821.085 56.3017 818.38 Q59.9619 815.643 59.9619 810.9 Q59.9619 806.221 56.2698 803.484 Q52.5777 800.747 46.212 800.747 Q39.8781 800.747 36.186 803.484 Q32.4621 806.221 32.4621 810.9 M27.4968 810.9 Q27.4968 803.261 32.4621 798.901 Q37.4273 794.54 46.212 794.54 Q54.9649 794.54 59.9619 798.901 Q64.9272 803.261 64.9272 810.9 Q64.9272 818.571 59.9619 822.931 Q54.9649 827.26 46.212 827.26 Q37.4273 827.26 32.4621 822.931 Q27.4968 818.571 27.4968 810.9 Z" fill="#000000" fill-rule="nonzero" fill-opacity="1" /><path clip-path="url(#clip250)" d="M29.4065 762.107 L34.9447 762.107 Q33.6716 764.59 33.035 767.263 Q32.3984 769.937 32.3984 772.801 Q32.3984 777.162 33.7352 779.358 Q35.072 781.522 37.7456 781.522 Q39.7826 781.522 40.9603 779.963 Q42.1061 778.403 43.1565 773.693 L43.6021 771.687 Q44.9389 765.449 47.3897 762.839 Q49.8086 760.197 54.1691 760.197 Q59.1344 760.197 62.0308 764.144 Q64.9272 768.059 64.9272 774.934 Q64.9272 777.799 64.3543 780.918 Q63.8132 784.005 62.6992 787.443 L56.6518 787.443 Q58.3387 784.196 59.198 781.045 Q60.0256 777.894 60.0256 774.807 Q60.0256 770.669 58.6251 768.441 Q57.1929 766.213 54.6147 766.213 Q52.2276 766.213 50.9545 767.836 Q49.6813 769.428 48.5037 774.87 L48.0262 776.907 Q46.8804 782.35 44.5251 784.769 Q42.138 787.188 38.0002 787.188 Q32.9713 787.188 30.2341 783.623 Q27.4968 780.058 27.4968 773.502 Q27.4968 770.255 27.9743 767.391 Q28.4517 764.526 29.4065 762.107 Z" fill="#000000" fill-rule="nonzero" fill-opacity="1" /><path clip-path="url(#clip250)" d="M18.2347 745.079 L28.3562 745.079 L28.3562 733.016 L32.9077 733.016 L32.9077 745.079 L52.2594 745.079 Q56.6199 745.079 57.8613 743.901 Q59.1026 742.692 59.1026 739.031 L59.1026 733.016 L64.0042 733.016 L64.0042 739.031 Q64.0042 745.811 61.4897 748.389 Q58.9434 750.967 52.2594 750.967 L32.9077 750.967 L32.9077 755.264 L28.3562 755.264 L28.3562 750.967 L18.2347 750.967 L18.2347 745.079 Z" fill="#000000" fill-rule="nonzero" fill-opacity="1" /><path clip-path="url(#clip250)" d="M44.7161 694.822 L47.5806 694.822 L47.5806 721.748 Q53.6281 721.367 56.8109 718.12 Q59.9619 714.842 59.9619 709.017 Q59.9619 705.643 59.1344 702.492 Q58.3069 699.309 56.6518 696.19 L62.1899 696.19 Q63.5267 699.341 64.227 702.651 Q64.9272 705.962 64.9272 709.367 Q64.9272 717.897 59.9619 722.894 Q54.9967 727.86 46.5303 727.86 Q37.7774 727.86 32.6531 723.149 Q27.4968 718.407 27.4968 710.386 Q27.4968 703.192 32.1438 699.023 Q36.7589 694.822 44.7161 694.822 M42.9973 700.678 Q38.1912 700.742 35.3266 703.383 Q32.4621 705.993 32.4621 710.322 Q32.4621 715.224 35.2312 718.184 Q38.0002 721.112 43.0292 721.558 L42.9973 700.678 Z" fill="#000000" fill-rule="nonzero" fill-opacity="1" /><path clip-path="url(#clip250)" d="M33.8307 664.553 Q33.2578 665.539 33.0032 666.717 Q32.7167 667.863 32.7167 669.263 Q32.7167 674.228 35.9632 676.902 Q39.1779 679.544 45.2253 679.544 L64.0042 679.544 L64.0042 685.432 L28.3562 685.432 L28.3562 679.544 L33.8944 679.544 Q30.6479 677.698 29.0883 674.738 Q27.4968 671.778 27.4968 667.545 Q27.4968 666.94 27.5923 666.208 Q27.656 665.476 27.8151 664.584 L33.8307 664.553 Z" fill="#000000" fill-rule="nonzero" fill-opacity="1" /><path clip-path="url(#clip250)" d="M28.3562 658.41 L28.3562 652.553 L64.0042 652.553 L64.0042 658.41 L28.3562 658.41 M14.479 658.41 L14.479 652.553 L21.895 652.553 L21.895 658.41 L14.479 658.41 Z" fill="#000000" fill-rule="nonzero" fill-opacity="1" /><path clip-path="url(#clip250)" d="M32.4621 626.486 Q32.4621 631.196 36.1542 633.934 Q39.8145 636.671 46.212 636.671 Q52.6095 636.671 56.3017 633.965 Q59.9619 631.228 59.9619 626.486 Q59.9619 621.807 56.2698 619.07 Q52.5777 616.332 46.212 616.332 Q39.8781 616.332 36.186 619.07 Q32.4621 621.807 32.4621 626.486 M27.4968 626.486 Q27.4968 618.847 32.4621 614.486 Q37.4273 610.126 46.212 610.126 Q54.9649 610.126 59.9619 614.486 Q64.9272 618.847 64.9272 626.486 Q64.9272 634.156 59.9619 638.517 Q54.9649 642.846 46.212 642.846 Q37.4273 642.846 32.4621 638.517 Q27.4968 634.156 27.4968 626.486 Z" fill="#000000" fill-rule="nonzero" fill-opacity="1" /><path clip-path="url(#clip250)" d="M33.8307 579.761 Q33.2578 580.748 33.0032 581.926 Q32.7167 583.072 32.7167 584.472 Q32.7167 589.437 35.9632 592.111 Q39.1779 594.753 45.2253 594.753 L64.0042 594.753 L64.0042 600.641 L28.3562 600.641 L28.3562 594.753 L33.8944 594.753 Q30.6479 592.907 29.0883 589.947 Q27.4968 586.986 27.4968 582.753 Q27.4968 582.149 27.5923 581.416 Q27.656 580.684 27.8151 579.793 L33.8307 579.761 Z" fill="#000000" fill-rule="nonzero" fill-opacity="1" /><path clip-path="url(#clip250)" d="M21.7677 546.214 L39.6235 546.214 L39.6235 538.13 Q39.6235 533.642 37.3 531.191 Q34.9765 528.74 30.6797 528.74 Q26.4147 528.74 24.0912 531.191 Q21.7677 533.642 21.7677 538.13 L21.7677 546.214 M16.4842 552.644 L16.4842 538.13 Q16.4842 530.141 20.1126 526.067 Q23.7092 521.961 30.6797 521.961 Q37.7138 521.961 41.3104 526.067 Q44.907 530.141 44.907 538.13 L44.907 546.214 L64.0042 546.214 L64.0042 552.644 L16.4842 552.644 Z" fill="#000000" fill-rule="nonzero" fill-opacity="1" /><path clip-path="url(#clip250)" d="M33.8307 494.079 Q33.2578 495.066 33.0032 496.243 Q32.7167 497.389 32.7167 498.79 Q32.7167 503.755 35.9632 506.428 Q39.1779 509.07 45.2253 509.07 L64.0042 509.07 L64.0042 514.959 L28.3562 514.959 L28.3562 509.07 L33.8944 509.07 Q30.6479 507.224 29.0883 504.264 Q27.4968 501.304 27.4968 497.071 Q27.4968 496.466 27.5923 495.734 Q27.656 495.002 27.8151 494.111 L33.8307 494.079 Z" fill="#000000" fill-rule="nonzero" fill-opacity="1" /><path clip-path="url(#clip250)" d="M32.4621 475.555 Q32.4621 480.265 36.1542 483.003 Q39.8145 485.74 46.212 485.74 Q52.6095 485.74 56.3017 483.035 Q59.9619 480.297 59.9619 475.555 Q59.9619 470.876 56.2698 468.139 Q52.5777 465.401 46.212 465.401 Q39.8781 465.401 36.186 468.139 Q32.4621 470.876 32.4621 475.555 M27.4968 475.555 Q27.4968 467.916 32.4621 463.555 Q37.4273 459.195 46.212 459.195 Q54.9649 459.195 59.9619 463.555 Q64.9272 467.916 64.9272 475.555 Q64.9272 483.225 59.9619 487.586 Q54.9649 491.915 46.212 491.915 Q37.4273 491.915 32.4621 487.586 Q27.4968 483.225 27.4968 475.555 Z" fill="#000000" fill-rule="nonzero" fill-opacity="1" /><path clip-path="url(#clip250)" d="M46.212 423.897 Q39.7508 423.897 36.0905 426.571 Q32.3984 429.212 32.3984 433.859 Q32.3984 438.506 36.0905 441.18 Q39.7508 443.822 46.212 443.822 Q52.6732 443.822 56.3653 441.18 Q60.0256 438.506 60.0256 433.859 Q60.0256 429.212 56.3653 426.571 Q52.6732 423.897 46.212 423.897 M33.7671 443.822 Q30.5842 441.976 29.0564 439.175 Q27.4968 436.342 27.4968 432.427 Q27.4968 425.934 32.6531 421.892 Q37.8093 417.818 46.212 417.818 Q54.6147 417.818 59.771 421.892 Q64.9272 425.934 64.9272 432.427 Q64.9272 436.342 63.3994 439.175 Q61.8398 441.976 58.657 443.822 L64.0042 443.822 L64.0042 449.71 L14.479 449.71 L14.479 443.822 L33.7671 443.822 Z" fill="#000000" fill-rule="nonzero" fill-opacity="1" /><path clip-path="url(#clip250)" d="M46.0847 391.909 Q46.0847 399.007 47.7079 401.744 Q49.3312 404.482 53.2461 404.482 Q56.3653 404.482 58.2114 402.445 Q60.0256 400.376 60.0256 396.843 Q60.0256 391.973 56.5881 389.045 Q53.1188 386.085 47.3897 386.085 L46.0847 386.085 L46.0847 391.909 M43.6657 380.228 L64.0042 380.228 L64.0042 386.085 L58.5933 386.085 Q61.8398 388.09 63.3994 391.082 Q64.9272 394.074 64.9272 398.402 Q64.9272 403.877 61.8716 407.123 Q58.7843 410.338 53.6281 410.338 Q47.6125 410.338 44.5569 406.328 Q41.5014 402.286 41.5014 394.297 L41.5014 386.085 L40.9285 386.085 Q36.8862 386.085 34.6901 388.758 Q32.4621 391.4 32.4621 396.206 Q32.4621 399.262 33.1941 402.158 Q33.9262 405.055 35.3903 407.728 L29.9795 407.728 Q28.7381 404.514 28.1334 401.49 Q27.4968 398.466 27.4968 395.602 Q27.4968 387.867 31.5072 384.048 Q35.5176 380.228 43.6657 380.228 Z" fill="#000000" fill-rule="nonzero" fill-opacity="1" /><path clip-path="url(#clip250)" d="M46.212 342.575 Q39.7508 342.575 36.0905 345.249 Q32.3984 347.891 32.3984 352.538 Q32.3984 357.184 36.0905 359.858 Q39.7508 362.5 46.212 362.5 Q52.6732 362.5 56.3653 359.858 Q60.0256 357.184 60.0256 352.538 Q60.0256 347.891 56.3653 345.249 Q52.6732 342.575 46.212 342.575 M33.7671 362.5 Q30.5842 360.654 29.0564 357.853 Q27.4968 355.02 27.4968 351.105 Q27.4968 344.612 32.6531 340.57 Q37.8093 336.496 46.212 336.496 Q54.6147 336.496 59.771 340.57 Q64.9272 344.612 64.9272 351.105 Q64.9272 355.02 63.3994 357.853 Q61.8398 360.654 58.657 362.5 L64.0042 362.5 L64.0042 368.388 L14.479 368.388 L14.479 362.5 L33.7671 362.5 Z" fill="#000000" fill-rule="nonzero" fill-opacity="1" /><path clip-path="url(#clip250)" d="M28.3562 326.788 L28.3562 320.932 L64.0042 320.932 L64.0042 326.788 L28.3562 326.788 M14.479 326.788 L14.479 320.932 L21.895 320.932 L21.895 326.788 L14.479 326.788 Z" fill="#000000" fill-rule="nonzero" fill-opacity="1" /><path clip-path="url(#clip250)" d="M14.479 308.678 L14.479 302.821 L64.0042 302.821 L64.0042 308.678 L14.479 308.678 Z" fill="#000000" fill-rule="nonzero" fill-opacity="1" /><path clip-path="url(#clip250)" d="M28.3562 290.567 L28.3562 284.711 L64.0042 284.711 L64.0042 290.567 L28.3562 290.567 M14.479 290.567 L14.479 284.711 L21.895 284.711 L21.895 290.567 L14.479 290.567 Z" fill="#000000" fill-rule="nonzero" fill-opacity="1" /><path clip-path="url(#clip250)" d="M18.2347 266.664 L28.3562 266.664 L28.3562 254.601 L32.9077 254.601 L32.9077 266.664 L52.2594 266.664 Q56.6199 266.664 57.8613 265.486 Q59.1026 264.277 59.1026 260.617 L59.1026 254.601 L64.0042 254.601 L64.0042 260.617 Q64.0042 267.396 61.4897 269.974 Q58.9434 272.552 52.2594 272.552 L32.9077 272.552 L32.9077 276.849 L28.3562 276.849 L28.3562 272.552 L18.2347 272.552 L18.2347 266.664 Z" fill="#000000" fill-rule="nonzero" fill-opacity="1" /><path clip-path="url(#clip250)" d="M67.3143 232.067 Q73.68 234.549 75.6216 236.904 Q77.5631 239.26 77.5631 243.207 L77.5631 247.885 L72.6615 247.885 L72.6615 244.448 Q72.6615 242.029 71.5157 240.692 Q70.3699 239.355 66.1048 237.732 L63.4312 236.682 L28.3562 251.1 L28.3562 244.893 L56.238 233.753 L28.3562 222.613 L28.3562 216.407 L67.3143 232.067 Z" fill="#000000" fill-rule="nonzero" fill-opacity="1" /><path clip-path="url(#clip252)" d="M219.38 47.2441 L219.38 1423.18 L432.718 1423.18 L432.718 47.2441 L219.38 47.2441 L219.38 47.2441  Z" fill="#000000" fill-rule="evenodd" fill-opacity="1"/>
<polyline clip-path="url(#clip252)" style="stroke:#000000; stroke-linecap:round; stroke-linejoin:round; stroke-width:0; stroke-opacity:1; fill:none" points="219.38,47.2441 219.38,1423.18 432.718,1423.18 432.718,47.2441 219.38,47.2441 "/>
<path clip-path="url(#clip252)" d="M432.718 498.037 L432.718 1423.18 L646.055 1423.18 L646.055 498.037 L432.718 498.037 L432.718 498.037  Z" fill="#000000" fill-rule="evenodd" fill-opacity="1"/>
<polyline clip-path="url(#clip252)" style="stroke:#000000; stroke-linecap:round; stroke-linejoin:round; stroke-width:0; stroke-opacity:1; fill:none" points="432.718,498.037 432.718,1423.18 646.055,1423.18 646.055,498.037 432.718,498.037 "/>
<path clip-path="url(#clip252)" d="M646.055 823.595 L646.055 1423.18 L859.393 1423.18 L859.393 823.595 L646.055 823.595 L646.055 823.595  Z" fill="#000000" fill-rule="evenodd" fill-opacity="1"/>
<polyline clip-path="url(#clip252)" style="stroke:#000000; stroke-linecap:round; stroke-linejoin:round; stroke-width:0; stroke-opacity:1; fill:none" points="646.055,823.595 646.055,1423.18 859.393,1423.18 859.393,823.595 646.055,823.595 "/>
<path clip-path="url(#clip252)" d="M859.393 1051.58 L859.393 1423.18 L1072.73 1423.18 L1072.73 1051.58 L859.393 1051.58 L859.393 1051.58  Z" fill="#000000" fill-rule="evenodd" fill-opacity="1"/>
<polyline clip-path="url(#clip252)" style="stroke:#000000; stroke-linecap:round; stroke-linejoin:round; stroke-width:0; stroke-opacity:1; fill:none" points="859.393,1051.58 859.393,1423.18 1072.73,1423.18 1072.73,1051.58 859.393,1051.58 "/>
<path clip-path="url(#clip252)" d="M1072.73 1205.35 L1072.73 1423.18 L1286.07 1423.18 L1286.07 1205.35 L1072.73 1205.35 L1072.73 1205.35  Z" fill="#000000" fill-rule="evenodd" fill-opacity="1"/>
<polyline clip-path="url(#clip252)" style="stroke:#000000; stroke-linecap:round; stroke-linejoin:round; stroke-width:0; stroke-opacity:1; fill:none" points="1072.73,1205.35 1072.73,1423.18 1286.07,1423.18 1286.07,1205.35 1072.73,1205.35 "/>
<path clip-path="url(#clip252)" d="M1286.07 1304.29 L1286.07 1423.18 L1499.41 1423.18 L1499.41 1304.29 L1286.07 1304.29 L1286.07 1304.29  Z" fill="#000000" fill-rule="evenodd" fill-opacity="1"/>
<polyline clip-path="url(#clip252)" style="stroke:#000000; stroke-linecap:round; stroke-linejoin:round; stroke-width:0; stroke-opacity:1; fill:none" points="1286.07,1304.29 1286.07,1423.18 1499.41,1423.18 1499.41,1304.29 1286.07,1304.29 "/>
<path clip-path="url(#clip252)" d="M1499.41 1364.22 L1499.41 1423.18 L1712.74 1423.18 L1712.74 1364.22 L1499.41 1364.22 L1499.41 1364.22  Z" fill="#000000" fill-rule="evenodd" fill-opacity="1"/>
<polyline clip-path="url(#clip252)" style="stroke:#000000; stroke-linecap:round; stroke-linejoin:round; stroke-width:0; stroke-opacity:1; fill:none" points="1499.41,1364.22 1499.41,1423.18 1712.74,1423.18 1712.74,1364.22 1499.41,1364.22 "/>
<path clip-path="url(#clip252)" d="M1712.74 1397.66 L1712.74 1423.18 L1926.08 1423.18 L1926.08 1397.66 L1712.74 1397.66 L1712.74 1397.66  Z" fill="#000000" fill-rule="evenodd" fill-opacity="1"/>
<polyline clip-path="url(#clip252)" style="stroke:#000000; stroke-linecap:round; stroke-linejoin:round; stroke-width:0; stroke-opacity:1; fill:none" points="1712.74,1397.66 1712.74,1423.18 1926.08,1423.18 1926.08,1397.66 1712.74,1397.66 "/>
<path clip-path="url(#clip252)" d="M1926.08 1414.26 L1926.08 1423.18 L2139.42 1423.18 L2139.42 1414.26 L1926.08 1414.26 L1926.08 1414.26  Z" fill="#000000" fill-rule="evenodd" fill-opacity="1"/>
<polyline clip-path="url(#clip252)" style="stroke:#000000; stroke-linecap:round; stroke-linejoin:round; stroke-width:0; stroke-opacity:1; fill:none" points="1926.08,1414.26 1926.08,1423.18 2139.42,1423.18 2139.42,1414.26 1926.08,1414.26 "/>
<path clip-path="url(#clip252)" d="M2139.42 1421.11 L2139.42 1423.18 L2352.76 1423.18 L2352.76 1421.11 L2139.42 1421.11 L2139.42 1421.11  Z" fill="#000000" fill-rule="evenodd" fill-opacity="1"/>
<polyline clip-path="url(#clip252)" style="stroke:#000000; stroke-linecap:round; stroke-linejoin:round; stroke-width:0; stroke-opacity:1; fill:none" points="2139.42,1421.11 2139.42,1423.18 2352.76,1423.18 2352.76,1421.11 2139.42,1421.11 "/>
<circle clip-path="url(#clip252)" style="fill:#000000; stroke:none; fill-opacity:0" cx="326.049" cy="47.2441" r="2"/>
<circle clip-path="url(#clip252)" style="fill:#000000; stroke:none; fill-opacity:0" cx="539.387" cy="498.037" r="2"/>
<circle clip-path="url(#clip252)" style="fill:#000000; stroke:none; fill-opacity:0" cx="752.724" cy="823.595" r="2"/>
<circle clip-path="url(#clip252)" style="fill:#000000; stroke:none; fill-opacity:0" cx="966.062" cy="1051.58" r="2"/>
<circle clip-path="url(#clip252)" style="fill:#000000; stroke:none; fill-opacity:0" cx="1179.4" cy="1205.35" r="2"/>
<circle clip-path="url(#clip252)" style="fill:#000000; stroke:none; fill-opacity:0" cx="1392.74" cy="1304.29" r="2"/>
<circle clip-path="url(#clip252)" style="fill:#000000; stroke:none; fill-opacity:0" cx="1606.07" cy="1364.22" r="2"/>
<circle clip-path="url(#clip252)" style="fill:#000000; stroke:none; fill-opacity:0" cx="1819.41" cy="1397.66" r="2"/>
<circle clip-path="url(#clip252)" style="fill:#000000; stroke:none; fill-opacity:0" cx="2032.75" cy="1414.26" r="2"/>
<circle clip-path="url(#clip252)" style="fill:#000000; stroke:none; fill-opacity:0" cx="2246.09" cy="1421.11" r="2"/>
</svg>
