<?xml version="1.0" encoding="utf-8"?>
<svg xmlns="http://www.w3.org/2000/svg" xmlns:xlink="http://www.w3.org/1999/xlink" width="600" height="400" viewBox="0 0 2400 1600">
<defs>
  <clipPath id="clip030">
    <rect x="0" y="0" width="2400" height="1600"/>
  </clipPath>
</defs>
<path clip-path="url(#clip030)" d="
M0 1600 L2400 1600 L2400 0 L0 0  Z
  " fill="#ffffff" fill-rule="evenodd" fill-opacity="1"/>
<defs>
  <clipPath id="clip031">
    <rect x="480" y="0" width="1681" height="1600"/>
  </clipPath>
</defs>
<path clip-path="url(#clip030)" d="
M206.906 1436.14 L2352.76 1436.14 L2352.76 47.2441 L206.906 47.2441  Z
  " fill="#ffffff" fill-rule="evenodd" fill-opacity="1"/>
<defs>
  <clipPath id="clip032">
    <rect x="206" y="47" width="2147" height="1390"/>
  </clipPath>
</defs>
<polyline clip-path="url(#clip032)" style="stroke:#000000; stroke-linecap:butt; stroke-linejoin:round; stroke-width:2; stroke-opacity:0.1; fill:none" points="
  257.465,1436.14 257.465,47.2441 
  "/>
<polyline clip-path="url(#clip032)" style="stroke:#000000; stroke-linecap:butt; stroke-linejoin:round; stroke-width:2; stroke-opacity:0.1; fill:none" points="
  766.105,1436.14 766.105,47.2441 
  "/>
<polyline clip-path="url(#clip032)" style="stroke:#000000; stroke-linecap:butt; stroke-linejoin:round; stroke-width:2; stroke-opacity:0.1; fill:none" points="
  1274.74,1436.14 1274.74,47.2441 
  "/>
<polyline clip-path="url(#clip032)" style="stroke:#000000; stroke-linecap:butt; stroke-linejoin:round; stroke-width:2; stroke-opacity:0.1; fill:none" points="
  1783.38,1436.14 1783.38,47.2441 
  "/>
<polyline clip-path="url(#clip032)" style="stroke:#000000; stroke-linecap:butt; stroke-linejoin:round; stroke-width:2; stroke-opacity:0.1; fill:none" points="
  2292.02,1436.14 2292.02,47.2441 
  "/>
<polyline clip-path="url(#clip030)" style="stroke:#000000; stroke-linecap:butt; stroke-linejoin:round; stroke-width:4; stroke-opacity:1; fill:none" points="
  206.906,1436.14 2352.76,1436.14 
  "/>
<polyline clip-path="url(#clip030)" style="stroke:#000000; stroke-linecap:butt; stroke-linejoin:round; stroke-width:4; stroke-opacity:1; fill:none" points="
  257.465,1436.14 257.465,1417.24 
  "/>
<polyline clip-path="url(#clip030)" style="stroke:#000000; stroke-linecap:butt; stroke-linejoin:round; stroke-width:4; stroke-opacity:1; fill:none" points="
  766.105,1436.14 766.105,1417.24 
  "/>
<polyline clip-path="url(#clip030)" style="stroke:#000000; stroke-linecap:butt; stroke-linejoin:round; stroke-width:4; stroke-opacity:1; fill:none" points="
  1274.74,1436.14 1274.74,1417.24 
  "/>
<polyline clip-path="url(#clip030)" style="stroke:#000000; stroke-linecap:butt; stroke-linejoin:round; stroke-width:4; stroke-opacity:1; fill:none" points="
  1783.38,1436.14 1783.38,1417.24 
  "/>
<polyline clip-path="url(#clip030)" style="stroke:#000000; stroke-linecap:butt; stroke-linejoin:round; stroke-width:4; stroke-opacity:1; fill:none" points="
  2292.02,1436.14 2292.02,1417.24 
  "/>
<path clip-path="url(#clip030)" d="M257.465 1467.06 Q253.854 1467.06 252.025 1470.62 Q250.22 1474.16 250.22 1481.29 Q250.22 1488.4 252.025 1491.97 Q253.854 1495.51 257.465 1495.51 Q261.099 1495.51 262.905 1491.97 Q264.734 1488.4 264.734 1481.29 Q264.734 1474.16 262.905 1470.62 Q261.099 1467.06 257.465 1467.06 M257.465 1463.35 Q263.275 1463.35 266.331 1467.96 Q269.409 1472.54 269.409 1481.29 Q269.409 1490.02 266.331 1494.63 Q263.275 1499.21 257.465 1499.21 Q251.655 1499.21 248.576 1494.63 Q245.521 1490.02 245.521 1481.29 Q245.521 1472.54 248.576 1467.96 Q251.655 1463.35 257.465 1463.35 Z" fill="#000000" fill-rule="evenodd" fill-opacity="1" /><path clip-path="url(#clip030)" d="M740.804 1463.98 L759.16 1463.98 L759.16 1467.92 L745.086 1467.92 L745.086 1476.39 Q746.105 1476.04 747.123 1475.88 Q748.142 1475.69 749.161 1475.69 Q754.948 1475.69 758.327 1478.86 Q761.707 1482.04 761.707 1487.45 Q761.707 1493.03 758.235 1496.13 Q754.762 1499.21 748.443 1499.21 Q746.267 1499.21 743.999 1498.84 Q741.753 1498.47 739.346 1497.73 L739.346 1493.03 Q741.429 1494.16 743.651 1494.72 Q745.874 1495.28 748.35 1495.28 Q752.355 1495.28 754.693 1493.17 Q757.031 1491.06 757.031 1487.45 Q757.031 1483.84 754.693 1481.73 Q752.355 1479.63 748.35 1479.63 Q746.475 1479.63 744.6 1480.04 Q742.749 1480.46 740.804 1481.34 L740.804 1463.98 Z" fill="#000000" fill-rule="evenodd" fill-opacity="1" /><path clip-path="url(#clip030)" d="M780.92 1467.06 Q777.309 1467.06 775.48 1470.62 Q773.674 1474.16 773.674 1481.29 Q773.674 1488.4 775.48 1491.97 Q777.309 1495.51 780.92 1495.51 Q784.554 1495.51 786.359 1491.97 Q788.188 1488.4 788.188 1481.29 Q788.188 1474.16 786.359 1470.62 Q784.554 1467.06 780.92 1467.06 M780.92 1463.35 Q786.73 1463.35 789.785 1467.96 Q792.864 1472.54 792.864 1481.29 Q792.864 1490.02 789.785 1494.63 Q786.73 1499.21 780.92 1499.21 Q775.109 1499.21 772.031 1494.63 Q768.975 1490.02 768.975 1481.29 Q768.975 1472.54 772.031 1467.96 Q775.109 1463.35 780.92 1463.35 Z" fill="#000000" fill-rule="evenodd" fill-opacity="1" /><path clip-path="url(#clip030)" d="M1234.35 1494.6 L1241.99 1494.6 L1241.99 1468.24 L1233.68 1469.91 L1233.68 1465.65 L1241.94 1463.98 L1246.62 1463.98 L1246.62 1494.6 L1254.26 1494.6 L1254.26 1498.54 L1234.35 1498.54 L1234.35 1494.6 Z" fill="#000000" fill-rule="evenodd" fill-opacity="1" /><path clip-path="url(#clip030)" d="M1273.7 1467.06 Q1270.09 1467.06 1268.26 1470.62 Q1266.46 1474.16 1266.46 1481.29 Q1266.46 1488.4 1268.26 1491.97 Q1270.09 1495.51 1273.7 1495.51 Q1277.34 1495.51 1279.14 1491.97 Q1280.97 1488.4 1280.97 1481.29 Q1280.97 1474.16 1279.14 1470.62 Q1277.34 1467.06 1273.7 1467.06 M1273.7 1463.35 Q1279.51 1463.35 1282.57 1467.96 Q1285.65 1472.54 1285.65 1481.29 Q1285.65 1490.02 1282.57 1494.63 Q1279.51 1499.21 1273.7 1499.21 Q1267.89 1499.21 1264.81 1494.63 Q1261.76 1490.02 1261.76 1481.29 Q1261.76 1472.54 1264.81 1467.96 Q1267.89 1463.35 1273.7 1463.35 Z" fill="#000000" fill-rule="evenodd" fill-opacity="1" /><path clip-path="url(#clip030)" d="M1303.86 1467.06 Q1300.25 1467.06 1298.43 1470.62 Q1296.62 1474.16 1296.62 1481.29 Q1296.62 1488.4 1298.43 1491.97 Q1300.25 1495.51 1303.86 1495.51 Q1307.5 1495.51 1309.3 1491.97 Q1311.13 1488.4 1311.13 1481.29 Q1311.13 1474.16 1309.3 1470.62 Q1307.5 1467.06 1303.86 1467.06 M1303.86 1463.35 Q1309.68 1463.35 1312.73 1467.96 Q1315.81 1472.54 1315.81 1481.29 Q1315.81 1490.02 1312.73 1494.63 Q1309.68 1499.21 1303.86 1499.21 Q1298.05 1499.21 1294.98 1494.63 Q1291.92 1490.02 1291.92 1481.29 Q1291.92 1472.54 1294.98 1467.96 Q1298.05 1463.35 1303.86 1463.35 Z" fill="#000000" fill-rule="evenodd" fill-opacity="1" /><path clip-path="url(#clip030)" d="M1742.99 1494.6 L1750.63 1494.6 L1750.63 1468.24 L1742.32 1469.91 L1742.32 1465.65 L1750.58 1463.98 L1755.26 1463.98 L1755.26 1494.6 L1762.9 1494.6 L1762.9 1498.54 L1742.99 1498.54 L1742.99 1494.6 Z" fill="#000000" fill-rule="evenodd" fill-opacity="1" /><path clip-path="url(#clip030)" d="M1772.39 1463.98 L1790.75 1463.98 L1790.75 1467.92 L1776.67 1467.92 L1776.67 1476.39 Q1777.69 1476.04 1778.71 1475.88 Q1779.73 1475.69 1780.75 1475.69 Q1786.53 1475.69 1789.91 1478.86 Q1793.29 1482.04 1793.29 1487.45 Q1793.29 1493.03 1789.82 1496.13 Q1786.35 1499.21 1780.03 1499.21 Q1777.85 1499.21 1775.58 1498.84 Q1773.34 1498.47 1770.93 1497.73 L1770.93 1493.03 Q1773.01 1494.16 1775.24 1494.72 Q1777.46 1495.28 1779.94 1495.28 Q1783.94 1495.28 1786.28 1493.17 Q1788.62 1491.06 1788.62 1487.45 Q1788.62 1483.84 1786.28 1481.73 Q1783.94 1479.63 1779.94 1479.63 Q1778.06 1479.63 1776.19 1480.04 Q1774.33 1480.46 1772.39 1481.34 L1772.39 1463.98 Z" fill="#000000" fill-rule="evenodd" fill-opacity="1" /><path clip-path="url(#clip030)" d="M1812.5 1467.06 Q1808.89 1467.06 1807.06 1470.62 Q1805.26 1474.16 1805.26 1481.29 Q1805.26 1488.4 1807.06 1491.97 Q1808.89 1495.51 1812.5 1495.51 Q1816.14 1495.51 1817.94 1491.97 Q1819.77 1488.4 1819.77 1481.29 Q1819.77 1474.16 1817.94 1470.62 Q1816.14 1467.06 1812.5 1467.06 M1812.5 1463.35 Q1818.31 1463.35 1821.37 1467.96 Q1824.45 1472.54 1824.45 1481.29 Q1824.45 1490.02 1821.37 1494.63 Q1818.31 1499.21 1812.5 1499.21 Q1806.69 1499.21 1803.62 1494.63 Q1800.56 1490.02 1800.56 1481.29 Q1800.56 1472.54 1803.62 1467.96 Q1806.69 1463.35 1812.5 1463.35 Z" fill="#000000" fill-rule="evenodd" fill-opacity="1" /><path clip-path="url(#clip030)" d="M2255.72 1494.6 L2272.04 1494.6 L2272.04 1498.54 L2250.09 1498.54 L2250.09 1494.6 Q2252.75 1491.85 2257.34 1487.22 Q2261.94 1482.57 2263.12 1481.23 Q2265.37 1478.7 2266.25 1476.97 Q2267.15 1475.21 2267.15 1473.52 Q2267.15 1470.76 2265.21 1469.03 Q2263.29 1467.29 2260.18 1467.29 Q2257.99 1467.29 2255.53 1468.05 Q2253.1 1468.82 2250.32 1470.37 L2250.32 1465.65 Q2253.15 1464.51 2255.6 1463.93 Q2258.05 1463.35 2260.09 1463.35 Q2265.46 1463.35 2268.66 1466.04 Q2271.85 1468.73 2271.85 1473.22 Q2271.85 1475.35 2271.04 1477.27 Q2270.25 1479.16 2268.15 1481.76 Q2267.57 1482.43 2264.47 1485.65 Q2261.36 1488.84 2255.72 1494.6 Z" fill="#000000" fill-rule="evenodd" fill-opacity="1" /><path clip-path="url(#clip030)" d="M2291.85 1467.06 Q2288.24 1467.06 2286.41 1470.62 Q2284.61 1474.16 2284.61 1481.29 Q2284.61 1488.4 2286.41 1491.97 Q2288.24 1495.51 2291.85 1495.51 Q2295.48 1495.51 2297.29 1491.97 Q2299.12 1488.4 2299.12 1481.29 Q2299.12 1474.16 2297.29 1470.62 Q2295.48 1467.06 2291.85 1467.06 M2291.85 1463.35 Q2297.66 1463.35 2300.72 1467.96 Q2303.8 1472.54 2303.8 1481.29 Q2303.8 1490.02 2300.72 1494.63 Q2297.66 1499.21 2291.85 1499.21 Q2286.04 1499.21 2282.96 1494.63 Q2279.91 1490.02 2279.91 1481.29 Q2279.91 1472.54 2282.96 1467.96 Q2286.04 1463.35 2291.85 1463.35 Z" fill="#000000" fill-rule="evenodd" fill-opacity="1" /><path clip-path="url(#clip030)" d="M2322.01 1467.06 Q2318.4 1467.06 2316.57 1470.62 Q2314.77 1474.16 2314.77 1481.29 Q2314.77 1488.4 2316.57 1491.97 Q2318.4 1495.51 2322.01 1495.51 Q2325.65 1495.51 2327.45 1491.97 Q2329.28 1488.4 2329.28 1481.29 Q2329.28 1474.16 2327.45 1470.62 Q2325.65 1467.06 2322.01 1467.06 M2322.01 1463.35 Q2327.82 1463.35 2330.88 1467.96 Q2333.96 1472.54 2333.96 1481.29 Q2333.96 1490.02 2330.88 1494.63 Q2327.82 1499.21 2322.01 1499.21 Q2316.2 1499.21 2313.12 1494.63 Q2310.07 1490.02 2310.07 1481.29 Q2310.07 1472.54 2313.12 1467.96 Q2316.2 1463.35 2322.01 1463.35 Z" fill="#000000" fill-rule="evenodd" fill-opacity="1" /><path clip-path="url(#clip030)" d="M803.098 1530.89 L807.773 1530.89 L807.773 1565.45 L803.098 1565.45 L803.098 1530.89 Z" fill="#000000" fill-rule="evenodd" fill-opacity="1" /><path clip-path="url(#clip030)" d="M821.107 1532.16 L821.107 1539.53 L829.88 1539.53 L829.88 1542.84 L821.107 1542.84 L821.107 1556.91 Q821.107 1560.08 821.963 1560.98 Q822.843 1561.89 825.505 1561.89 L829.88 1561.89 L829.88 1565.45 L825.505 1565.45 Q820.574 1565.45 818.699 1563.62 Q816.824 1561.77 816.824 1556.91 L816.824 1542.84 L813.699 1542.84 L813.699 1539.53 L816.824 1539.53 L816.824 1532.16 L821.107 1532.16 Z" fill="#000000" fill-rule="evenodd" fill-opacity="1" /><path clip-path="url(#clip030)" d="M857.657 1551.42 L857.657 1553.51 L838.074 1553.51 Q838.352 1557.91 840.713 1560.22 Q843.097 1562.51 847.333 1562.51 Q849.787 1562.51 852.079 1561.91 Q854.394 1561.31 856.662 1560.1 L856.662 1564.13 Q854.37 1565.1 851.963 1565.61 Q849.556 1566.12 847.079 1566.12 Q840.875 1566.12 837.241 1562.51 Q833.63 1558.9 833.63 1552.74 Q833.63 1546.38 837.056 1542.65 Q840.505 1538.9 846.338 1538.9 Q851.569 1538.9 854.602 1542.28 Q857.657 1545.64 857.657 1551.42 M853.398 1550.17 Q853.352 1546.68 851.431 1544.6 Q849.532 1542.51 846.384 1542.51 Q842.82 1542.51 840.667 1544.53 Q838.537 1546.54 838.213 1550.2 L853.398 1550.17 Z" fill="#000000" fill-rule="evenodd" fill-opacity="1" /><path clip-path="url(#clip030)" d="M879.671 1543.51 Q878.954 1543.09 878.097 1542.91 Q877.264 1542.7 876.245 1542.7 Q872.634 1542.7 870.69 1545.06 Q868.768 1547.4 868.768 1551.79 L868.768 1565.45 L864.486 1565.45 L864.486 1539.53 L868.768 1539.53 L868.768 1543.55 Q870.111 1541.19 872.264 1540.06 Q874.417 1538.9 877.495 1538.9 Q877.935 1538.9 878.467 1538.97 Q879 1539.02 879.648 1539.13 L879.671 1543.51 Z" fill="#000000" fill-rule="evenodd" fill-opacity="1" /><path clip-path="url(#clip030)" d="M895.921 1552.42 Q890.759 1552.42 888.768 1553.6 Q886.778 1554.78 886.778 1557.63 Q886.778 1559.9 888.259 1561.24 Q889.764 1562.56 892.333 1562.56 Q895.875 1562.56 898.004 1560.06 Q900.157 1557.54 900.157 1553.37 L900.157 1552.42 L895.921 1552.42 M904.416 1550.66 L904.416 1565.45 L900.157 1565.45 L900.157 1561.52 Q898.699 1563.88 896.523 1565.01 Q894.347 1566.12 891.199 1566.12 Q887.217 1566.12 884.856 1563.9 Q882.518 1561.66 882.518 1557.91 Q882.518 1553.53 885.435 1551.31 Q888.375 1549.09 894.185 1549.09 L900.157 1549.09 L900.157 1548.67 Q900.157 1545.73 898.213 1544.13 Q896.291 1542.51 892.796 1542.51 Q890.574 1542.51 888.467 1543.04 Q886.361 1543.58 884.417 1544.64 L884.417 1540.71 Q886.754 1539.8 888.954 1539.36 Q891.153 1538.9 893.236 1538.9 Q898.861 1538.9 901.639 1541.82 Q904.416 1544.73 904.416 1550.66 Z" fill="#000000" fill-rule="evenodd" fill-opacity="1" /><path clip-path="url(#clip030)" d="M917.402 1532.16 L917.402 1539.53 L926.176 1539.53 L926.176 1542.84 L917.402 1542.84 L917.402 1556.91 Q917.402 1560.08 918.259 1560.98 Q919.139 1561.89 921.801 1561.89 L926.176 1561.89 L926.176 1565.45 L921.801 1565.45 Q916.87 1565.45 914.995 1563.62 Q913.12 1561.77 913.12 1556.91 L913.12 1542.84 L909.995 1542.84 L909.995 1539.53 L913.12 1539.53 L913.12 1532.16 L917.402 1532.16 Z" fill="#000000" fill-rule="evenodd" fill-opacity="1" /><path clip-path="url(#clip030)" d="M931.777 1539.53 L936.037 1539.53 L936.037 1565.45 L931.777 1565.45 L931.777 1539.53 M931.777 1529.43 L936.037 1529.43 L936.037 1534.83 L931.777 1534.83 L931.777 1529.43 Z" fill="#000000" fill-rule="evenodd" fill-opacity="1" /><path clip-path="url(#clip030)" d="M954.995 1542.51 Q951.569 1542.51 949.578 1545.2 Q947.587 1547.86 947.587 1552.51 Q947.587 1557.16 949.555 1559.85 Q951.546 1562.51 954.995 1562.51 Q958.398 1562.51 960.388 1559.83 Q962.379 1557.14 962.379 1552.51 Q962.379 1547.91 960.388 1545.22 Q958.398 1542.51 954.995 1542.51 M954.995 1538.9 Q960.55 1538.9 963.722 1542.51 Q966.893 1546.12 966.893 1552.51 Q966.893 1558.88 963.722 1562.51 Q960.55 1566.12 954.995 1566.12 Q949.416 1566.12 946.245 1562.51 Q943.097 1558.88 943.097 1552.51 Q943.097 1546.12 946.245 1542.51 Q949.416 1538.9 954.995 1538.9 Z" fill="#000000" fill-rule="evenodd" fill-opacity="1" /><path clip-path="url(#clip030)" d="M995.504 1549.8 L995.504 1565.45 L991.245 1565.45 L991.245 1549.94 Q991.245 1546.26 989.809 1544.43 Q988.374 1542.6 985.504 1542.6 Q982.055 1542.6 980.064 1544.8 Q978.073 1547 978.073 1550.8 L978.073 1565.45 L973.791 1565.45 L973.791 1539.53 L978.073 1539.53 L978.073 1543.55 Q979.601 1541.22 981.661 1540.06 Q983.745 1538.9 986.453 1538.9 Q990.921 1538.9 993.212 1541.68 Q995.504 1544.43 995.504 1549.8 Z" fill="#000000" fill-rule="evenodd" fill-opacity="1" /><path clip-path="url(#clip030)" d="M1020.53 1540.29 L1020.53 1544.32 Q1018.72 1543.39 1016.78 1542.93 Q1014.83 1542.47 1012.75 1542.47 Q1009.58 1542.47 1007.98 1543.44 Q1006.41 1544.41 1006.41 1546.35 Q1006.41 1547.84 1007.54 1548.69 Q1008.68 1549.53 1012.1 1550.29 L1013.56 1550.61 Q1018.1 1551.59 1019.99 1553.37 Q1021.92 1555.13 1021.92 1558.3 Q1021.92 1561.91 1019.05 1564.02 Q1016.2 1566.12 1011.2 1566.12 Q1009.11 1566.12 1006.85 1565.71 Q1004.6 1565.31 1002.1 1564.5 L1002.1 1560.1 Q1004.46 1561.33 1006.75 1561.96 Q1009.05 1562.56 1011.29 1562.56 Q1014.3 1562.56 1015.92 1561.54 Q1017.54 1560.5 1017.54 1558.62 Q1017.54 1556.89 1016.36 1555.96 Q1015.2 1555.04 1011.24 1554.18 L1009.76 1553.83 Q1005.8 1553 1004.05 1551.29 Q1002.29 1549.55 1002.29 1546.54 Q1002.29 1542.88 1004.88 1540.89 Q1007.47 1538.9 1012.24 1538.9 Q1014.6 1538.9 1016.68 1539.25 Q1018.77 1539.6 1020.53 1540.29 Z" fill="#000000" fill-rule="evenodd" fill-opacity="1" /><path clip-path="url(#clip030)" d="M1053.81 1542.51 Q1050.39 1542.51 1048.4 1545.2 Q1046.41 1547.86 1046.41 1552.51 Q1046.41 1557.16 1048.37 1559.85 Q1050.36 1562.51 1053.81 1562.51 Q1057.22 1562.51 1059.21 1559.83 Q1061.2 1557.14 1061.2 1552.51 Q1061.2 1547.91 1059.21 1545.22 Q1057.22 1542.51 1053.81 1542.51 M1053.81 1538.9 Q1059.37 1538.9 1062.54 1542.51 Q1065.71 1546.12 1065.71 1552.51 Q1065.71 1558.88 1062.54 1562.51 Q1059.37 1566.12 1053.81 1566.12 Q1048.24 1566.12 1045.06 1562.51 Q1041.92 1558.88 1041.92 1552.51 Q1041.92 1546.12 1045.06 1542.51 Q1048.24 1538.9 1053.81 1538.9 Z" fill="#000000" fill-rule="evenodd" fill-opacity="1" /><path clip-path="url(#clip030)" d="M1085.9 1529.43 L1085.9 1532.98 L1081.82 1532.98 Q1079.53 1532.98 1078.63 1533.9 Q1077.75 1534.83 1077.75 1537.23 L1077.75 1539.53 L1084.76 1539.53 L1084.76 1542.84 L1077.75 1542.84 L1077.75 1565.45 L1073.47 1565.45 L1073.47 1542.84 L1069.39 1542.84 L1069.39 1539.53 L1073.47 1539.53 L1073.47 1537.72 Q1073.47 1533.39 1075.48 1531.42 Q1077.49 1529.43 1081.87 1529.43 L1085.9 1529.43 Z" fill="#000000" fill-rule="evenodd" fill-opacity="1" /><path clip-path="url(#clip030)" d="M1121.06 1540.29 L1121.06 1544.32 Q1119.25 1543.39 1117.31 1542.93 Q1115.36 1542.47 1113.28 1542.47 Q1110.11 1542.47 1108.51 1543.44 Q1106.94 1544.41 1106.94 1546.35 Q1106.94 1547.84 1108.07 1548.69 Q1109.21 1549.53 1112.63 1550.29 L1114.09 1550.61 Q1118.63 1551.59 1120.53 1553.37 Q1122.45 1555.13 1122.45 1558.3 Q1122.45 1561.91 1119.58 1564.02 Q1116.73 1566.12 1111.73 1566.12 Q1109.65 1566.12 1107.38 1565.71 Q1105.13 1565.31 1102.63 1564.5 L1102.63 1560.1 Q1104.99 1561.33 1107.29 1561.96 Q1109.58 1562.56 1111.82 1562.56 Q1114.83 1562.56 1116.45 1561.54 Q1118.07 1560.5 1118.07 1558.62 Q1118.07 1556.89 1116.89 1555.96 Q1115.73 1555.04 1111.78 1554.18 L1110.29 1553.83 Q1106.34 1553 1104.58 1551.29 Q1102.82 1549.55 1102.82 1546.54 Q1102.82 1542.88 1105.41 1540.89 Q1108 1538.9 1112.77 1538.9 Q1115.13 1538.9 1117.22 1539.25 Q1119.3 1539.6 1121.06 1540.29 Z" fill="#000000" fill-rule="evenodd" fill-opacity="1" /><path clip-path="url(#clip030)" d="M1133.44 1532.16 L1133.44 1539.53 L1142.22 1539.53 L1142.22 1542.84 L1133.44 1542.84 L1133.44 1556.91 Q1133.44 1560.08 1134.3 1560.98 Q1135.18 1561.89 1137.84 1561.89 L1142.22 1561.89 L1142.22 1565.45 L1137.84 1565.45 Q1132.91 1565.45 1131.04 1563.62 Q1129.16 1561.77 1129.16 1556.91 L1129.16 1542.84 L1126.04 1542.84 L1126.04 1539.53 L1129.16 1539.53 L1129.16 1532.16 L1133.44 1532.16 Z" fill="#000000" fill-rule="evenodd" fill-opacity="1" /><path clip-path="url(#clip030)" d="M1157.86 1542.51 Q1154.44 1542.51 1152.45 1545.2 Q1150.46 1547.86 1150.46 1552.51 Q1150.46 1557.16 1152.42 1559.85 Q1154.42 1562.51 1157.86 1562.51 Q1161.27 1562.51 1163.26 1559.83 Q1165.25 1557.14 1165.25 1552.51 Q1165.25 1547.91 1163.26 1545.22 Q1161.27 1542.51 1157.86 1542.51 M1157.86 1538.9 Q1163.42 1538.9 1166.59 1542.51 Q1169.76 1546.12 1169.76 1552.51 Q1169.76 1558.88 1166.59 1562.51 Q1163.42 1566.12 1157.86 1566.12 Q1152.29 1566.12 1149.11 1562.51 Q1145.97 1558.88 1145.97 1552.51 Q1145.97 1546.12 1149.11 1542.51 Q1152.29 1538.9 1157.86 1538.9 Z" fill="#000000" fill-rule="evenodd" fill-opacity="1" /><path clip-path="url(#clip030)" d="M1195.48 1540.52 L1195.48 1544.5 Q1193.67 1543.51 1191.85 1543.02 Q1190.04 1542.51 1188.19 1542.51 Q1184.04 1542.51 1181.75 1545.15 Q1179.46 1547.77 1179.46 1552.51 Q1179.46 1557.26 1181.75 1559.9 Q1184.04 1562.51 1188.19 1562.51 Q1190.04 1562.51 1191.85 1562.03 Q1193.67 1561.52 1195.48 1560.52 L1195.48 1564.46 Q1193.7 1565.29 1191.78 1565.71 Q1189.88 1566.12 1187.73 1566.12 Q1181.87 1566.12 1178.42 1562.44 Q1174.97 1558.76 1174.97 1552.51 Q1174.97 1546.17 1178.44 1542.54 Q1181.94 1538.9 1188 1538.9 Q1189.97 1538.9 1191.85 1539.32 Q1193.72 1539.71 1195.48 1540.52 Z" fill="#000000" fill-rule="evenodd" fill-opacity="1" /><path clip-path="url(#clip030)" d="M1224.44 1549.8 L1224.44 1565.45 L1220.18 1565.45 L1220.18 1549.94 Q1220.18 1546.26 1218.74 1544.43 Q1217.31 1542.6 1214.44 1542.6 Q1210.99 1542.6 1209 1544.8 Q1207.01 1547 1207.01 1550.8 L1207.01 1565.45 L1202.73 1565.45 L1202.73 1529.43 L1207.01 1529.43 L1207.01 1543.55 Q1208.54 1541.22 1210.6 1540.06 Q1212.68 1538.9 1215.39 1538.9 Q1219.85 1538.9 1222.15 1541.68 Q1224.44 1544.43 1224.44 1549.8 Z" fill="#000000" fill-rule="evenodd" fill-opacity="1" /><path clip-path="url(#clip030)" d="M1244.72 1552.42 Q1239.55 1552.42 1237.56 1553.6 Q1235.57 1554.78 1235.57 1557.63 Q1235.57 1559.9 1237.05 1561.24 Q1238.56 1562.56 1241.13 1562.56 Q1244.67 1562.56 1246.8 1560.06 Q1248.95 1557.54 1248.95 1553.37 L1248.95 1552.42 L1244.72 1552.42 M1253.21 1550.66 L1253.21 1565.45 L1248.95 1565.45 L1248.95 1561.52 Q1247.49 1563.88 1245.32 1565.01 Q1243.14 1566.12 1239.99 1566.12 Q1236.01 1566.12 1233.65 1563.9 Q1231.31 1561.66 1231.31 1557.91 Q1231.31 1553.53 1234.23 1551.31 Q1237.17 1549.09 1242.98 1549.09 L1248.95 1549.09 L1248.95 1548.67 Q1248.95 1545.73 1247.01 1544.13 Q1245.09 1542.51 1241.59 1542.51 Q1239.37 1542.51 1237.26 1543.04 Q1235.16 1543.58 1233.21 1544.64 L1233.21 1540.71 Q1235.55 1539.8 1237.75 1539.36 Q1239.95 1538.9 1242.03 1538.9 Q1247.66 1538.9 1250.43 1541.82 Q1253.21 1544.73 1253.21 1550.66 Z" fill="#000000" fill-rule="evenodd" fill-opacity="1" /><path clip-path="url(#clip030)" d="M1278.51 1540.29 L1278.51 1544.32 Q1276.71 1543.39 1274.76 1542.93 Q1272.82 1542.47 1270.73 1542.47 Q1267.56 1542.47 1265.97 1543.44 Q1264.39 1544.41 1264.39 1546.35 Q1264.39 1547.84 1265.53 1548.69 Q1266.66 1549.53 1270.09 1550.29 L1271.54 1550.61 Q1276.08 1551.59 1277.98 1553.37 Q1279.9 1555.13 1279.9 1558.3 Q1279.9 1561.91 1277.03 1564.02 Q1274.18 1566.12 1269.18 1566.12 Q1267.1 1566.12 1264.83 1565.71 Q1262.59 1565.31 1260.09 1564.5 L1260.09 1560.1 Q1262.45 1561.33 1264.74 1561.96 Q1267.03 1562.56 1269.28 1562.56 Q1272.28 1562.56 1273.91 1561.54 Q1275.53 1560.5 1275.53 1558.62 Q1275.53 1556.89 1274.35 1555.96 Q1273.19 1555.04 1269.23 1554.18 L1267.75 1553.83 Q1263.79 1553 1262.03 1551.29 Q1260.27 1549.55 1260.27 1546.54 Q1260.27 1542.88 1262.86 1540.89 Q1265.46 1538.9 1270.22 1538.9 Q1272.59 1538.9 1274.67 1539.25 Q1276.75 1539.6 1278.51 1540.29 Z" fill="#000000" fill-rule="evenodd" fill-opacity="1" /><path clip-path="url(#clip030)" d="M1290.9 1532.16 L1290.9 1539.53 L1299.67 1539.53 L1299.67 1542.84 L1290.9 1542.84 L1290.9 1556.91 Q1290.9 1560.08 1291.75 1560.98 Q1292.63 1561.89 1295.29 1561.89 L1299.67 1561.89 L1299.67 1565.45 L1295.29 1565.45 Q1290.36 1565.45 1288.49 1563.62 Q1286.61 1561.77 1286.61 1556.91 L1286.61 1542.84 L1283.49 1542.84 L1283.49 1539.53 L1286.61 1539.53 L1286.61 1532.16 L1290.9 1532.16 Z" fill="#000000" fill-rule="evenodd" fill-opacity="1" /><path clip-path="url(#clip030)" d="M1305.27 1539.53 L1309.53 1539.53 L1309.53 1565.45 L1305.27 1565.45 L1305.27 1539.53 M1305.27 1529.43 L1309.53 1529.43 L1309.53 1534.83 L1305.27 1534.83 L1305.27 1529.43 Z" fill="#000000" fill-rule="evenodd" fill-opacity="1" /><path clip-path="url(#clip030)" d="M1337.1 1540.52 L1337.1 1544.5 Q1335.29 1543.51 1333.47 1543.02 Q1331.66 1542.51 1329.81 1542.51 Q1325.66 1542.51 1323.37 1545.15 Q1321.08 1547.77 1321.08 1552.51 Q1321.08 1557.26 1323.37 1559.9 Q1325.66 1562.51 1329.81 1562.51 Q1331.66 1562.51 1333.47 1562.03 Q1335.29 1561.52 1337.1 1560.52 L1337.1 1564.46 Q1335.32 1565.29 1333.4 1565.71 Q1331.5 1566.12 1329.34 1566.12 Q1323.49 1566.12 1320.04 1562.44 Q1316.59 1558.76 1316.59 1552.51 Q1316.59 1546.17 1320.06 1542.54 Q1323.56 1538.9 1329.62 1538.9 Q1331.59 1538.9 1333.47 1539.32 Q1335.34 1539.71 1337.1 1540.52 Z" fill="#000000" fill-rule="evenodd" fill-opacity="1" /><path clip-path="url(#clip030)" d="M1376.64 1552.19 Q1376.64 1547.56 1374.71 1545.01 Q1372.82 1542.47 1369.37 1542.47 Q1365.94 1542.47 1364.02 1545.01 Q1362.12 1547.56 1362.12 1552.19 Q1362.12 1556.79 1364.02 1559.34 Q1365.94 1561.89 1369.37 1561.89 Q1372.82 1561.89 1374.71 1559.34 Q1376.64 1556.79 1376.64 1552.19 M1380.9 1562.23 Q1380.9 1568.85 1377.96 1572.07 Q1375.02 1575.31 1368.95 1575.31 Q1366.71 1575.31 1364.71 1574.97 Q1362.72 1574.64 1360.85 1573.95 L1360.85 1569.8 Q1362.72 1570.82 1364.55 1571.31 Q1366.38 1571.79 1368.28 1571.79 Q1372.47 1571.79 1374.55 1569.6 Q1376.64 1567.42 1376.64 1563 L1376.64 1560.89 Q1375.32 1563.18 1373.26 1564.32 Q1371.2 1565.45 1368.33 1565.45 Q1363.56 1565.45 1360.64 1561.82 Q1357.72 1558.18 1357.72 1552.19 Q1357.72 1546.17 1360.64 1542.54 Q1363.56 1538.9 1368.33 1538.9 Q1371.2 1538.9 1373.26 1540.04 Q1375.32 1541.17 1376.64 1543.46 L1376.64 1539.53 L1380.9 1539.53 L1380.9 1562.23 Z" fill="#000000" fill-rule="evenodd" fill-opacity="1" /><path clip-path="url(#clip030)" d="M1404.69 1543.51 Q1403.97 1543.09 1403.12 1542.91 Q1402.28 1542.7 1401.27 1542.7 Q1397.65 1542.7 1395.71 1545.06 Q1393.79 1547.4 1393.79 1551.79 L1393.79 1565.45 L1389.51 1565.45 L1389.51 1539.53 L1393.79 1539.53 L1393.79 1543.55 Q1395.13 1541.19 1397.28 1540.06 Q1399.44 1538.9 1402.52 1538.9 Q1402.96 1538.9 1403.49 1538.97 Q1404.02 1539.02 1404.67 1539.13 L1404.69 1543.51 Z" fill="#000000" fill-rule="evenodd" fill-opacity="1" /><path clip-path="url(#clip030)" d="M1420.94 1552.42 Q1415.78 1552.42 1413.79 1553.6 Q1411.8 1554.78 1411.8 1557.63 Q1411.8 1559.9 1413.28 1561.24 Q1414.78 1562.56 1417.35 1562.56 Q1420.9 1562.56 1423.02 1560.06 Q1425.18 1557.54 1425.18 1553.37 L1425.18 1552.42 L1420.94 1552.42 M1429.44 1550.66 L1429.44 1565.45 L1425.18 1565.45 L1425.18 1561.52 Q1423.72 1563.88 1421.54 1565.01 Q1419.37 1566.12 1416.22 1566.12 Q1412.24 1566.12 1409.88 1563.9 Q1407.54 1561.66 1407.54 1557.91 Q1407.54 1553.53 1410.46 1551.31 Q1413.4 1549.09 1419.21 1549.09 L1425.18 1549.09 L1425.18 1548.67 Q1425.18 1545.73 1423.23 1544.13 Q1421.31 1542.51 1417.82 1542.51 Q1415.59 1542.51 1413.49 1543.04 Q1411.38 1543.58 1409.44 1544.64 L1409.44 1540.71 Q1411.77 1539.8 1413.97 1539.36 Q1416.17 1538.9 1418.26 1538.9 Q1423.88 1538.9 1426.66 1541.82 Q1429.44 1544.73 1429.44 1550.66 Z" fill="#000000" fill-rule="evenodd" fill-opacity="1" /><path clip-path="url(#clip030)" d="M1455.27 1543.46 L1455.27 1529.43 L1459.53 1529.43 L1459.53 1565.45 L1455.27 1565.45 L1455.27 1561.56 Q1453.93 1563.88 1451.87 1565.01 Q1449.83 1566.12 1446.96 1566.12 Q1442.26 1566.12 1439.3 1562.37 Q1436.36 1558.62 1436.36 1552.51 Q1436.36 1546.4 1439.3 1542.65 Q1442.26 1538.9 1446.96 1538.9 Q1449.83 1538.9 1451.87 1540.04 Q1453.93 1541.15 1455.27 1543.46 M1440.76 1552.51 Q1440.76 1557.21 1442.68 1559.9 Q1444.62 1562.56 1448 1562.56 Q1451.38 1562.56 1453.33 1559.9 Q1455.27 1557.21 1455.27 1552.51 Q1455.27 1547.81 1453.33 1545.15 Q1451.38 1542.47 1448 1542.47 Q1444.62 1542.47 1442.68 1545.15 Q1440.76 1547.81 1440.76 1552.51 Z" fill="#000000" fill-rule="evenodd" fill-opacity="1" /><path clip-path="url(#clip030)" d="M1468.3 1539.53 L1472.56 1539.53 L1472.56 1565.45 L1468.3 1565.45 L1468.3 1539.53 M1468.3 1529.43 L1472.56 1529.43 L1472.56 1534.83 L1468.3 1534.83 L1468.3 1529.43 Z" fill="#000000" fill-rule="evenodd" fill-opacity="1" /><path clip-path="url(#clip030)" d="M1503.65 1551.42 L1503.65 1553.51 L1484.07 1553.51 Q1484.34 1557.91 1486.7 1560.22 Q1489.09 1562.51 1493.33 1562.51 Q1495.78 1562.51 1498.07 1561.91 Q1500.39 1561.31 1502.65 1560.1 L1502.65 1564.13 Q1500.36 1565.1 1497.95 1565.61 Q1495.55 1566.12 1493.07 1566.12 Q1486.87 1566.12 1483.23 1562.51 Q1479.62 1558.9 1479.62 1552.74 Q1479.62 1546.38 1483.05 1542.65 Q1486.5 1538.9 1492.33 1538.9 Q1497.56 1538.9 1500.59 1542.28 Q1503.65 1545.64 1503.65 1551.42 M1499.39 1550.17 Q1499.34 1546.68 1497.42 1544.6 Q1495.52 1542.51 1492.38 1542.51 Q1488.81 1542.51 1486.66 1544.53 Q1484.53 1546.54 1484.2 1550.2 L1499.39 1550.17 Z" fill="#000000" fill-rule="evenodd" fill-opacity="1" /><path clip-path="url(#clip030)" d="M1532.19 1549.8 L1532.19 1565.45 L1527.93 1565.45 L1527.93 1549.94 Q1527.93 1546.26 1526.5 1544.43 Q1525.06 1542.6 1522.19 1542.6 Q1518.74 1542.6 1516.75 1544.8 Q1514.76 1547 1514.76 1550.8 L1514.76 1565.45 L1510.48 1565.45 L1510.48 1539.53 L1514.76 1539.53 L1514.76 1543.55 Q1516.29 1541.22 1518.35 1540.06 Q1520.43 1538.9 1523.14 1538.9 Q1527.61 1538.9 1529.9 1541.68 Q1532.19 1544.43 1532.19 1549.8 Z" fill="#000000" fill-rule="evenodd" fill-opacity="1" /><path clip-path="url(#clip030)" d="M1544.9 1532.16 L1544.9 1539.53 L1553.67 1539.53 L1553.67 1542.84 L1544.9 1542.84 L1544.9 1556.91 Q1544.9 1560.08 1545.76 1560.98 Q1546.64 1561.89 1549.3 1561.89 L1553.67 1561.89 L1553.67 1565.45 L1549.3 1565.45 Q1544.37 1565.45 1542.49 1563.62 Q1540.62 1561.77 1540.62 1556.91 L1540.62 1542.84 L1537.49 1542.84 L1537.49 1539.53 L1540.62 1539.53 L1540.62 1532.16 L1544.9 1532.16 Z" fill="#000000" fill-rule="evenodd" fill-opacity="1" /><path clip-path="url(#clip030)" d="M1591.4 1543.46 L1591.4 1529.43 L1595.66 1529.43 L1595.66 1565.45 L1591.4 1565.45 L1591.4 1561.56 Q1590.06 1563.88 1588 1565.01 Q1585.96 1566.12 1583.09 1566.12 Q1578.39 1566.12 1575.43 1562.37 Q1572.49 1558.62 1572.49 1552.51 Q1572.49 1546.4 1575.43 1542.65 Q1578.39 1538.9 1583.09 1538.9 Q1585.96 1538.9 1588 1540.04 Q1590.06 1541.15 1591.4 1543.46 M1576.89 1552.51 Q1576.89 1557.21 1578.81 1559.9 Q1580.76 1562.56 1584.14 1562.56 Q1587.51 1562.56 1589.46 1559.9 Q1591.4 1557.21 1591.4 1552.51 Q1591.4 1547.81 1589.46 1545.15 Q1587.51 1542.47 1584.14 1542.47 Q1580.76 1542.47 1578.81 1545.15 Q1576.89 1547.81 1576.89 1552.51 Z" fill="#000000" fill-rule="evenodd" fill-opacity="1" /><path clip-path="url(#clip030)" d="M1626.61 1551.42 L1626.61 1553.51 L1607.03 1553.51 Q1607.31 1557.91 1609.67 1560.22 Q1612.05 1562.51 1616.29 1562.51 Q1618.74 1562.51 1621.03 1561.91 Q1623.35 1561.31 1625.62 1560.1 L1625.62 1564.13 Q1623.32 1565.1 1620.92 1565.61 Q1618.51 1566.12 1616.03 1566.12 Q1609.83 1566.12 1606.2 1562.51 Q1602.58 1558.9 1602.58 1552.74 Q1602.58 1546.38 1606.01 1542.65 Q1609.46 1538.9 1615.29 1538.9 Q1620.52 1538.9 1623.56 1542.28 Q1626.61 1545.64 1626.61 1551.42 M1622.35 1550.17 Q1622.31 1546.68 1620.38 1544.6 Q1618.49 1542.51 1615.34 1542.51 Q1611.77 1542.51 1609.62 1544.53 Q1607.49 1546.54 1607.17 1550.2 L1622.35 1550.17 Z" fill="#000000" fill-rule="evenodd" fill-opacity="1" /><path clip-path="url(#clip030)" d="M1650.13 1540.29 L1650.13 1544.32 Q1648.32 1543.39 1646.38 1542.93 Q1644.44 1542.47 1642.35 1542.47 Q1639.18 1542.47 1637.58 1543.44 Q1636.01 1544.41 1636.01 1546.35 Q1636.01 1547.84 1637.14 1548.69 Q1638.28 1549.53 1641.7 1550.29 L1643.16 1550.61 Q1647.7 1551.59 1649.6 1553.37 Q1651.52 1555.13 1651.52 1558.3 Q1651.52 1561.91 1648.65 1564.02 Q1645.8 1566.12 1640.8 1566.12 Q1638.72 1566.12 1636.45 1565.71 Q1634.2 1565.31 1631.7 1564.5 L1631.7 1560.1 Q1634.07 1561.33 1636.36 1561.96 Q1638.65 1562.56 1640.89 1562.56 Q1643.9 1562.56 1645.52 1561.54 Q1647.14 1560.5 1647.14 1558.62 Q1647.14 1556.89 1645.96 1555.96 Q1644.81 1555.04 1640.85 1554.18 L1639.37 1553.83 Q1635.41 1553 1633.65 1551.29 Q1631.89 1549.55 1631.89 1546.54 Q1631.89 1542.88 1634.48 1540.89 Q1637.07 1538.9 1641.84 1538.9 Q1644.2 1538.9 1646.29 1539.25 Q1648.37 1539.6 1650.13 1540.29 Z" fill="#000000" fill-rule="evenodd" fill-opacity="1" /><path clip-path="url(#clip030)" d="M1676.96 1540.52 L1676.96 1544.5 Q1675.15 1543.51 1673.32 1543.02 Q1671.52 1542.51 1669.67 1542.51 Q1665.52 1542.51 1663.23 1545.15 Q1660.94 1547.77 1660.94 1552.51 Q1660.94 1557.26 1663.23 1559.9 Q1665.52 1562.51 1669.67 1562.51 Q1671.52 1562.51 1673.32 1562.03 Q1675.15 1561.52 1676.96 1560.52 L1676.96 1564.46 Q1675.18 1565.29 1673.25 1565.71 Q1671.36 1566.12 1669.2 1566.12 Q1663.35 1566.12 1659.9 1562.44 Q1656.45 1558.76 1656.45 1552.51 Q1656.45 1546.17 1659.92 1542.54 Q1663.42 1538.9 1669.48 1538.9 Q1671.45 1538.9 1673.32 1539.32 Q1675.2 1539.71 1676.96 1540.52 Z" fill="#000000" fill-rule="evenodd" fill-opacity="1" /><path clip-path="url(#clip030)" d="M1706.54 1551.42 L1706.54 1553.51 L1686.96 1553.51 Q1687.24 1557.91 1689.6 1560.22 Q1691.98 1562.51 1696.22 1562.51 Q1698.67 1562.51 1700.96 1561.91 Q1703.28 1561.31 1705.55 1560.1 L1705.55 1564.13 Q1703.25 1565.1 1700.85 1565.61 Q1698.44 1566.12 1695.96 1566.12 Q1689.76 1566.12 1686.13 1562.51 Q1682.51 1558.9 1682.51 1552.74 Q1682.51 1546.38 1685.94 1542.65 Q1689.39 1538.9 1695.22 1538.9 Q1700.45 1538.9 1703.49 1542.28 Q1706.54 1545.64 1706.54 1551.42 M1702.28 1550.17 Q1702.24 1546.68 1700.31 1544.6 Q1698.42 1542.51 1695.27 1542.51 Q1691.7 1542.51 1689.55 1544.53 Q1687.42 1546.54 1687.1 1550.2 L1702.28 1550.17 Z" fill="#000000" fill-rule="evenodd" fill-opacity="1" /><path clip-path="url(#clip030)" d="M1735.08 1549.8 L1735.08 1565.45 L1730.82 1565.45 L1730.82 1549.94 Q1730.82 1546.26 1729.39 1544.43 Q1727.95 1542.6 1725.08 1542.6 Q1721.63 1542.6 1719.64 1544.8 Q1717.65 1547 1717.65 1550.8 L1717.65 1565.45 L1713.37 1565.45 L1713.37 1539.53 L1717.65 1539.53 L1717.65 1543.55 Q1719.18 1541.22 1721.24 1540.06 Q1723.32 1538.9 1726.03 1538.9 Q1730.5 1538.9 1732.79 1541.68 Q1735.08 1544.43 1735.08 1549.8 Z" fill="#000000" fill-rule="evenodd" fill-opacity="1" /><path clip-path="url(#clip030)" d="M1747.79 1532.16 L1747.79 1539.53 L1756.56 1539.53 L1756.56 1542.84 L1747.79 1542.84 L1747.79 1556.91 Q1747.79 1560.08 1748.65 1560.98 Q1749.53 1561.89 1752.19 1561.89 L1756.56 1561.89 L1756.56 1565.45 L1752.19 1565.45 Q1747.26 1565.45 1745.38 1563.62 Q1743.51 1561.77 1743.51 1556.91 L1743.51 1542.84 L1740.38 1542.84 L1740.38 1539.53 L1743.51 1539.53 L1743.51 1532.16 L1747.79 1532.16 Z" fill="#000000" fill-rule="evenodd" fill-opacity="1" /><polyline clip-path="url(#clip032)" style="stroke:#000000; stroke-linecap:butt; stroke-linejoin:round; stroke-width:2; stroke-opacity:0.1; fill:none" points="
  206.906,1205.46 2352.76,1205.46 
  "/>
<polyline clip-path="url(#clip032)" style="stroke:#000000; stroke-linecap:butt; stroke-linejoin:round; stroke-width:2; stroke-opacity:0.1; fill:none" points="
  206.906,936.203 2352.76,936.203 
  "/>
<polyline clip-path="url(#clip032)" style="stroke:#000000; stroke-linecap:butt; stroke-linejoin:round; stroke-width:2; stroke-opacity:0.1; fill:none" points="
  206.906,666.947 2352.76,666.947 
  "/>
<polyline clip-path="url(#clip032)" style="stroke:#000000; stroke-linecap:butt; stroke-linejoin:round; stroke-width:2; stroke-opacity:0.1; fill:none" points="
  206.906,397.691 2352.76,397.691 
  "/>
<polyline clip-path="url(#clip032)" style="stroke:#000000; stroke-linecap:butt; stroke-linejoin:round; stroke-width:2; stroke-opacity:0.1; fill:none" points="
  206.906,128.435 2352.76,128.435 
  "/>
<polyline clip-path="url(#clip030)" style="stroke:#000000; stroke-linecap:butt; stroke-linejoin:round; stroke-width:4; stroke-opacity:1; fill:none" points="
  206.906,1436.14 206.906,47.2441 
  "/>
<polyline clip-path="url(#clip030)" style="stroke:#000000; stroke-linecap:butt; stroke-linejoin:round; stroke-width:4; stroke-opacity:1; fill:none" points="
  206.906,1205.46 225.804,1205.46 
  "/>
<polyline clip-path="url(#clip030)" style="stroke:#000000; stroke-linecap:butt; stroke-linejoin:round; stroke-width:4; stroke-opacity:1; fill:none" points="
  206.906,936.203 225.804,936.203 
  "/>
<polyline clip-path="url(#clip030)" style="stroke:#000000; stroke-linecap:butt; stroke-linejoin:round; stroke-width:4; stroke-opacity:1; fill:none" points="
  206.906,666.947 225.804,666.947 
  "/>
<polyline clip-path="url(#clip030)" style="stroke:#000000; stroke-linecap:butt; stroke-linejoin:round; stroke-width:4; stroke-opacity:1; fill:none" points="
  206.906,397.691 225.804,397.691 
  "/>
<polyline clip-path="url(#clip030)" style="stroke:#000000; stroke-linecap:butt; stroke-linejoin:round; stroke-width:4; stroke-opacity:1; fill:none" points="
  206.906,128.435 225.804,128.435 
  "/>
<path clip-path="url(#clip030)" d="M115.328 1191.26 Q111.717 1191.26 109.888 1194.82 Q108.083 1198.36 108.083 1205.49 Q108.083 1212.6 109.888 1216.17 Q111.717 1219.71 115.328 1219.71 Q118.962 1219.71 120.768 1216.17 Q122.596 1212.6 122.596 1205.49 Q122.596 1198.36 120.768 1194.82 Q118.962 1191.26 115.328 1191.26 M115.328 1187.55 Q121.138 1187.55 124.194 1192.16 Q127.272 1196.74 127.272 1205.49 Q127.272 1214.22 124.194 1218.83 Q121.138 1223.41 115.328 1223.41 Q109.518 1223.41 106.439 1218.83 Q103.383 1214.22 103.383 1205.49 Q103.383 1196.74 106.439 1192.16 Q109.518 1187.55 115.328 1187.55 Z" fill="#000000" fill-rule="evenodd" fill-opacity="1" /><path clip-path="url(#clip030)" d="M135.49 1216.86 L140.374 1216.86 L140.374 1222.74 L135.49 1222.74 L135.49 1216.86 Z" fill="#000000" fill-rule="evenodd" fill-opacity="1" /><path clip-path="url(#clip030)" d="M154.587 1218.8 L170.906 1218.8 L170.906 1222.74 L148.962 1222.74 L148.962 1218.8 Q151.624 1216.05 156.207 1211.42 Q160.814 1206.77 161.994 1205.42 Q164.24 1202.9 165.119 1201.17 Q166.022 1199.41 166.022 1197.72 Q166.022 1194.96 164.078 1193.23 Q162.156 1191.49 159.054 1191.49 Q156.855 1191.49 154.402 1192.25 Q151.971 1193.02 149.193 1194.57 L149.193 1189.85 Q152.017 1188.71 154.471 1188.13 Q156.925 1187.55 158.962 1187.55 Q164.332 1187.55 167.527 1190.24 Q170.721 1192.92 170.721 1197.42 Q170.721 1199.54 169.911 1201.47 Q169.124 1203.36 167.017 1205.96 Q166.439 1206.63 163.337 1209.85 Q160.235 1213.04 154.587 1218.8 Z" fill="#000000" fill-rule="evenodd" fill-opacity="1" /><path clip-path="url(#clip030)" d="M113.245 922.002 Q109.633 922.002 107.805 925.566 Q105.999 929.108 105.999 936.238 Q105.999 943.344 107.805 946.909 Q109.633 950.451 113.245 950.451 Q116.879 950.451 118.684 946.909 Q120.513 943.344 120.513 936.238 Q120.513 929.108 118.684 925.566 Q116.879 922.002 113.245 922.002 M113.245 918.298 Q119.055 918.298 122.11 922.904 Q125.189 927.488 125.189 936.238 Q125.189 944.965 122.11 949.571 Q119.055 954.154 113.245 954.154 Q107.434 954.154 104.356 949.571 Q101.3 944.965 101.3 936.238 Q101.3 927.488 104.356 922.904 Q107.434 918.298 113.245 918.298 Z" fill="#000000" fill-rule="evenodd" fill-opacity="1" /><path clip-path="url(#clip030)" d="M133.406 947.603 L138.291 947.603 L138.291 953.483 L133.406 953.483 L133.406 947.603 Z" fill="#000000" fill-rule="evenodd" fill-opacity="1" /><path clip-path="url(#clip030)" d="M161.323 922.997 L149.517 941.446 L161.323 941.446 L161.323 922.997 M160.096 918.923 L165.976 918.923 L165.976 941.446 L170.906 941.446 L170.906 945.335 L165.976 945.335 L165.976 953.483 L161.323 953.483 L161.323 945.335 L145.721 945.335 L145.721 940.821 L160.096 918.923 Z" fill="#000000" fill-rule="evenodd" fill-opacity="1" /><path clip-path="url(#clip030)" d="M113.569 652.746 Q109.958 652.746 108.129 656.31 Q106.323 659.852 106.323 666.982 Q106.323 674.088 108.129 677.653 Q109.958 681.195 113.569 681.195 Q117.203 681.195 119.008 677.653 Q120.837 674.088 120.837 666.982 Q120.837 659.852 119.008 656.31 Q117.203 652.746 113.569 652.746 M113.569 649.042 Q119.379 649.042 122.434 653.648 Q125.513 658.232 125.513 666.982 Q125.513 675.708 122.434 680.315 Q119.379 684.898 113.569 684.898 Q107.758 684.898 104.68 680.315 Q101.624 675.708 101.624 666.982 Q101.624 658.232 104.68 653.648 Q107.758 649.042 113.569 649.042 Z" fill="#000000" fill-rule="evenodd" fill-opacity="1" /><path clip-path="url(#clip030)" d="M133.731 678.347 L138.615 678.347 L138.615 684.227 L133.731 684.227 L133.731 678.347 Z" fill="#000000" fill-rule="evenodd" fill-opacity="1" /><path clip-path="url(#clip030)" d="M159.379 665.084 Q156.23 665.084 154.379 667.236 Q152.55 669.389 152.55 673.139 Q152.55 676.866 154.379 679.042 Q156.23 681.195 159.379 681.195 Q162.527 681.195 164.355 679.042 Q166.207 676.866 166.207 673.139 Q166.207 669.389 164.355 667.236 Q162.527 665.084 159.379 665.084 M168.661 650.431 L168.661 654.69 Q166.902 653.857 165.096 653.417 Q163.314 652.977 161.554 652.977 Q156.925 652.977 154.471 656.102 Q152.041 659.227 151.693 665.546 Q153.059 663.533 155.119 662.468 Q157.179 661.38 159.656 661.38 Q164.865 661.38 167.874 664.551 Q170.906 667.699 170.906 673.139 Q170.906 678.463 167.758 681.681 Q164.61 684.898 159.379 684.898 Q153.383 684.898 150.212 680.315 Q147.041 675.708 147.041 666.982 Q147.041 658.787 150.93 653.926 Q154.818 649.042 161.369 649.042 Q163.129 649.042 164.911 649.389 Q166.716 649.736 168.661 650.431 Z" fill="#000000" fill-rule="evenodd" fill-opacity="1" /><path clip-path="url(#clip030)" d="M113.823 383.49 Q110.212 383.49 108.383 387.054 Q106.578 390.596 106.578 397.726 Q106.578 404.832 108.383 408.397 Q110.212 411.938 113.823 411.938 Q117.457 411.938 119.263 408.397 Q121.092 404.832 121.092 397.726 Q121.092 390.596 119.263 387.054 Q117.457 383.49 113.823 383.49 M113.823 379.786 Q119.633 379.786 122.689 384.392 Q125.768 388.976 125.768 397.726 Q125.768 406.452 122.689 411.059 Q119.633 415.642 113.823 415.642 Q108.013 415.642 104.934 411.059 Q101.879 406.452 101.879 397.726 Q101.879 388.976 104.934 384.392 Q108.013 379.786 113.823 379.786 Z" fill="#000000" fill-rule="evenodd" fill-opacity="1" /><path clip-path="url(#clip030)" d="M133.985 409.091 L138.869 409.091 L138.869 414.971 L133.985 414.971 L133.985 409.091 Z" fill="#000000" fill-rule="evenodd" fill-opacity="1" /><path clip-path="url(#clip030)" d="M159.054 398.559 Q155.721 398.559 153.8 400.341 Q151.902 402.124 151.902 405.249 Q151.902 408.374 153.8 410.156 Q155.721 411.938 159.054 411.938 Q162.388 411.938 164.309 410.156 Q166.23 408.351 166.23 405.249 Q166.23 402.124 164.309 400.341 Q162.411 398.559 159.054 398.559 M154.379 396.568 Q151.369 395.827 149.68 393.767 Q148.013 391.707 148.013 388.744 Q148.013 384.601 150.953 382.193 Q153.916 379.786 159.054 379.786 Q164.216 379.786 167.156 382.193 Q170.096 384.601 170.096 388.744 Q170.096 391.707 168.406 393.767 Q166.74 395.827 163.754 396.568 Q167.133 397.355 169.008 399.647 Q170.906 401.939 170.906 405.249 Q170.906 410.272 167.828 412.957 Q164.772 415.642 159.054 415.642 Q153.337 415.642 150.258 412.957 Q147.203 410.272 147.203 405.249 Q147.203 401.939 149.101 399.647 Q150.999 397.355 154.379 396.568 M152.666 389.184 Q152.666 391.869 154.332 393.374 Q156.022 394.878 159.054 394.878 Q162.064 394.878 163.754 393.374 Q165.466 391.869 165.466 389.184 Q165.466 386.499 163.754 384.994 Q162.064 383.49 159.054 383.49 Q156.022 383.49 154.332 384.994 Q152.666 386.499 152.666 389.184 Z" fill="#000000" fill-rule="evenodd" fill-opacity="1" /><path clip-path="url(#clip030)" d="M104.541 141.78 L112.18 141.78 L112.18 115.414 L103.87 117.081 L103.87 112.821 L112.133 111.155 L116.809 111.155 L116.809 141.78 L124.448 141.78 L124.448 145.715 L104.541 145.715 L104.541 141.78 Z" fill="#000000" fill-rule="evenodd" fill-opacity="1" /><path clip-path="url(#clip030)" d="M133.893 139.835 L138.777 139.835 L138.777 145.715 L133.893 145.715 L133.893 139.835 Z" fill="#000000" fill-rule="evenodd" fill-opacity="1" /><path clip-path="url(#clip030)" d="M158.962 114.233 Q155.351 114.233 153.522 117.798 Q151.717 121.34 151.717 128.47 Q151.717 135.576 153.522 139.141 Q155.351 142.682 158.962 142.682 Q162.596 142.682 164.402 139.141 Q166.23 135.576 166.23 128.47 Q166.23 121.34 164.402 117.798 Q162.596 114.233 158.962 114.233 M158.962 110.53 Q164.772 110.53 167.828 115.136 Q170.906 119.72 170.906 128.47 Q170.906 137.196 167.828 141.803 Q164.772 146.386 158.962 146.386 Q153.152 146.386 150.073 141.803 Q147.018 137.196 147.018 128.47 Q147.018 119.72 150.073 115.136 Q153.152 110.53 158.962 110.53 Z" fill="#000000" fill-rule="evenodd" fill-opacity="1" /><path clip-path="url(#clip030)" d="M20.3722 1401.41 L20.3722 1379.56 L24.3073 1379.56 L24.3073 1396.73 L34.5387 1396.73 L34.5387 1380.28 L38.4739 1380.28 L38.4739 1396.73 L50.997 1396.73 L50.997 1379.14 L54.9322 1379.14 L54.9322 1401.41 L20.3722 1401.41 Z" fill="#000000" fill-rule="evenodd" fill-opacity="1" /><path clip-path="url(#clip030)" d="M29.7703 1355.11 L33.798 1355.11 Q32.8721 1356.92 32.4091 1358.86 Q31.9462 1360.81 31.9462 1362.89 Q31.9462 1366.06 32.9184 1367.66 Q33.8906 1369.23 35.835 1369.23 Q37.3165 1369.23 38.173 1368.1 Q39.0063 1366.97 39.7702 1363.54 L40.0943 1362.08 Q41.0665 1357.55 42.8489 1355.65 Q44.6081 1353.73 47.7794 1353.73 Q51.3905 1353.73 53.497 1356.6 Q55.6035 1359.44 55.6035 1364.44 Q55.6035 1366.53 55.1868 1368.8 Q54.7933 1371.04 53.9831 1373.54 L49.585 1373.54 Q50.8118 1371.18 51.4368 1368.89 Q52.0387 1366.6 52.0387 1364.35 Q52.0387 1361.34 51.0201 1359.72 Q49.9785 1358.1 48.1035 1358.1 Q46.3674 1358.1 45.4415 1359.28 Q44.5155 1360.44 43.6591 1364.4 L43.3118 1365.88 Q42.4785 1369.84 40.7656 1371.6 Q39.0295 1373.36 36.0202 1373.36 Q32.3628 1373.36 30.3721 1370.76 Q28.3814 1368.17 28.3814 1363.4 Q28.3814 1361.04 28.7286 1358.96 Q29.0758 1356.87 29.7703 1355.11 Z" fill="#000000" fill-rule="evenodd" fill-opacity="1" /><path clip-path="url(#clip030)" d="M21.6453 1342.73 L29.0064 1342.73 L29.0064 1333.96 L32.3165 1333.96 L32.3165 1342.73 L46.3905 1342.73 Q49.5618 1342.73 50.4646 1341.87 Q51.3674 1340.99 51.3674 1338.33 L51.3674 1333.96 L54.9322 1333.96 L54.9322 1338.33 Q54.9322 1343.26 53.1035 1345.14 Q51.2516 1347.01 46.3905 1347.01 L32.3165 1347.01 L32.3165 1350.14 L29.0064 1350.14 L29.0064 1347.01 L21.6453 1347.01 L21.6453 1342.73 Z" fill="#000000" fill-rule="evenodd" fill-opacity="1" /><path clip-path="url(#clip030)" d="M29.0064 1328.36 L29.0064 1324.1 L54.9322 1324.1 L54.9322 1328.36 L29.0064 1328.36 M18.9138 1328.36 L18.9138 1324.1 L24.3073 1324.1 L24.3073 1328.36 L18.9138 1328.36 Z" fill="#000000" fill-rule="evenodd" fill-opacity="1" /><path clip-path="url(#clip030)" d="M33.9832 1295 Q31.1128 1293.4 29.7471 1291.18 Q28.3814 1288.96 28.3814 1285.95 Q28.3814 1281.9 31.2286 1279.7 Q34.0526 1277.5 39.2841 1277.5 L54.9322 1277.5 L54.9322 1281.78 L39.423 1281.78 Q35.6961 1281.78 33.8906 1283.1 Q32.0851 1284.42 32.0851 1287.13 Q32.0851 1290.44 34.2841 1292.36 Q36.4832 1294.28 40.2795 1294.28 L54.9322 1294.28 L54.9322 1298.56 L39.423 1298.56 Q35.673 1298.56 33.8906 1299.88 Q32.0851 1301.2 32.0851 1303.96 Q32.0851 1307.22 34.3073 1309.14 Q36.5063 1311.06 40.2795 1311.06 L54.9322 1311.06 L54.9322 1315.35 L29.0064 1315.35 L29.0064 1311.06 L33.0341 1311.06 Q30.6499 1309.61 29.5156 1307.57 Q28.3814 1305.53 28.3814 1302.73 Q28.3814 1299.91 29.8166 1297.94 Q31.2517 1295.95 33.9832 1295 Z" fill="#000000" fill-rule="evenodd" fill-opacity="1" /><path clip-path="url(#clip030)" d="M41.8998 1257.22 Q41.8998 1262.38 43.0804 1264.37 Q44.2609 1266.37 47.1081 1266.37 Q49.3766 1266.37 50.7192 1264.88 Q52.0387 1263.38 52.0387 1260.81 Q52.0387 1257.27 49.5387 1255.14 Q47.0155 1252.99 42.8489 1252.99 L41.8998 1252.99 L41.8998 1257.22 M40.1406 1248.73 L54.9322 1248.73 L54.9322 1252.99 L50.997 1252.99 Q53.3581 1254.44 54.4923 1256.62 Q55.6035 1258.8 55.6035 1261.94 Q55.6035 1265.93 53.3812 1268.29 Q51.1359 1270.62 47.3859 1270.62 Q43.0109 1270.62 40.7887 1267.71 Q38.5665 1264.77 38.5665 1258.96 L38.5665 1252.99 L38.1498 1252.99 Q35.21 1252.99 33.6128 1254.93 Q31.9925 1256.85 31.9925 1260.35 Q31.9925 1262.57 32.5249 1264.68 Q33.0573 1266.78 34.1221 1268.73 L30.1869 1268.73 Q29.2841 1266.39 28.8443 1264.19 Q28.3814 1261.99 28.3814 1259.91 Q28.3814 1254.28 31.298 1251.5 Q34.2147 1248.73 40.1406 1248.73 Z" fill="#000000" fill-rule="evenodd" fill-opacity="1" /><path clip-path="url(#clip030)" d="M21.6453 1235.74 L29.0064 1235.74 L29.0064 1226.97 L32.3165 1226.97 L32.3165 1235.74 L46.3905 1235.74 Q49.5618 1235.74 50.4646 1234.88 Q51.3674 1234 51.3674 1231.34 L51.3674 1226.97 L54.9322 1226.97 L54.9322 1231.34 Q54.9322 1236.27 53.1035 1238.15 Q51.2516 1240.02 46.3905 1240.02 L32.3165 1240.02 L32.3165 1243.15 L29.0064 1243.15 L29.0064 1240.02 L21.6453 1240.02 L21.6453 1235.74 Z" fill="#000000" fill-rule="evenodd" fill-opacity="1" /><path clip-path="url(#clip030)" d="M40.9045 1199.19 L42.9878 1199.19 L42.9878 1218.77 Q47.3859 1218.49 49.7007 1216.13 Q51.9924 1213.75 51.9924 1209.51 Q51.9924 1207.06 51.3905 1204.77 Q50.7887 1202.45 49.585 1200.18 L53.6127 1200.18 Q54.5849 1202.48 55.0942 1204.88 Q55.6035 1207.29 55.6035 1209.77 Q55.6035 1215.97 51.9924 1219.61 Q48.3813 1223.22 42.2239 1223.22 Q35.8582 1223.22 32.1314 1219.79 Q28.3814 1216.34 28.3814 1210.51 Q28.3814 1205.28 31.761 1202.25 Q35.1174 1199.19 40.9045 1199.19 M39.6545 1203.45 Q36.1591 1203.5 34.0758 1205.42 Q31.9925 1207.31 31.9925 1210.46 Q31.9925 1214.03 34.0063 1216.18 Q36.0202 1218.31 39.6776 1218.63 L39.6545 1203.45 Z" fill="#000000" fill-rule="evenodd" fill-opacity="1" /><path clip-path="url(#clip030)" d="M31.9925 1167.08 Q31.9925 1170.51 34.6776 1172.5 Q37.3397 1174.49 41.9924 1174.49 Q46.6452 1174.49 49.3303 1172.52 Q51.9924 1170.53 51.9924 1167.08 Q51.9924 1163.68 49.3072 1161.69 Q46.622 1159.7 41.9924 1159.7 Q37.386 1159.7 34.7008 1161.69 Q31.9925 1163.68 31.9925 1167.08 M28.3814 1167.08 Q28.3814 1161.53 31.9925 1158.36 Q35.6036 1155.19 41.9924 1155.19 Q48.3581 1155.19 51.9924 1158.36 Q55.6035 1161.53 55.6035 1167.08 Q55.6035 1172.66 51.9924 1175.83 Q48.3581 1178.98 41.9924 1178.98 Q35.6036 1178.98 31.9925 1175.83 Q28.3814 1172.66 28.3814 1167.08 Z" fill="#000000" fill-rule="evenodd" fill-opacity="1" /><path clip-path="url(#clip030)" d="M18.9138 1135 L22.4555 1135 L22.4555 1139.07 Q22.4555 1141.37 23.3814 1142.27 Q24.3073 1143.15 26.7147 1143.15 L29.0064 1143.15 L29.0064 1136.13 L32.3165 1136.13 L32.3165 1143.15 L54.9322 1143.15 L54.9322 1147.43 L32.3165 1147.43 L32.3165 1151.5 L29.0064 1151.5 L29.0064 1147.43 L27.2008 1147.43 Q22.8721 1147.43 20.9046 1145.42 Q18.9138 1143.4 18.9138 1139.03 L18.9138 1135 Z" fill="#000000" fill-rule="evenodd" fill-opacity="1" /><path clip-path="url(#clip030)" d="M40.9045 1094.19 L42.9878 1094.19 L42.9878 1113.77 Q47.3859 1113.5 49.7007 1111.13 Q51.9924 1108.75 51.9924 1104.51 Q51.9924 1102.06 51.3905 1099.77 Q50.7887 1097.45 49.585 1095.19 L53.6127 1095.19 Q54.5849 1097.48 55.0942 1099.88 Q55.6035 1102.29 55.6035 1104.77 Q55.6035 1110.97 51.9924 1114.61 Q48.3813 1118.22 42.2239 1118.22 Q35.8582 1118.22 32.1314 1114.79 Q28.3814 1111.34 28.3814 1105.51 Q28.3814 1100.28 31.761 1097.25 Q35.1174 1094.19 40.9045 1094.19 M39.6545 1098.45 Q36.1591 1098.5 34.0758 1100.42 Q31.9925 1102.32 31.9925 1105.46 Q31.9925 1109.03 34.0063 1111.18 Q36.0202 1113.31 39.6776 1113.63 L39.6545 1098.45 Z" fill="#000000" fill-rule="evenodd" fill-opacity="1" /><path clip-path="url(#clip030)" d="M29.0064 1066.48 L41.622 1075.86 L54.9322 1066 L54.9322 1071.02 L44.747 1078.57 L54.9322 1086.11 L54.9322 1091.13 L41.3674 1081.07 L29.0064 1090.28 L29.0064 1085.25 L38.2424 1078.38 L29.0064 1071.51 L29.0064 1066.48 Z" fill="#000000" fill-rule="evenodd" fill-opacity="1" /><path clip-path="url(#clip030)" d="M51.0433 1055.86 L64.7932 1055.86 L64.7932 1060.14 L29.0064 1060.14 L29.0064 1055.86 L32.9415 1055.86 Q30.6267 1054.51 29.5156 1052.48 Q28.3814 1050.42 28.3814 1047.57 Q28.3814 1042.85 32.1314 1039.91 Q35.8813 1036.95 41.9924 1036.95 Q48.1035 1036.95 51.8535 1039.91 Q55.6035 1042.85 55.6035 1047.57 Q55.6035 1050.42 54.4923 1052.48 Q53.3581 1054.51 51.0433 1055.86 M41.9924 1041.37 Q37.2934 1041.37 34.6313 1043.31 Q31.9462 1045.23 31.9462 1048.61 Q31.9462 1051.99 34.6313 1053.94 Q37.2934 1055.86 41.9924 1055.86 Q46.6915 1055.86 49.3766 1053.94 Q52.0387 1051.99 52.0387 1048.61 Q52.0387 1045.23 49.3766 1043.31 Q46.6915 1041.37 41.9924 1041.37 Z" fill="#000000" fill-rule="evenodd" fill-opacity="1" /><path clip-path="url(#clip030)" d="M40.9045 1007.71 L42.9878 1007.71 L42.9878 1027.29 Q47.3859 1027.01 49.7007 1024.65 Q51.9924 1022.27 51.9924 1018.03 Q51.9924 1015.58 51.3905 1013.29 Q50.7887 1010.97 49.585 1008.7 L53.6127 1008.7 Q54.5849 1011 55.0942 1013.4 Q55.6035 1015.81 55.6035 1018.29 Q55.6035 1024.49 51.9924 1028.13 Q48.3813 1031.74 42.2239 1031.74 Q35.8582 1031.74 32.1314 1028.31 Q28.3814 1024.86 28.3814 1019.03 Q28.3814 1013.8 31.761 1010.76 Q35.1174 1007.71 40.9045 1007.71 M39.6545 1011.97 Q36.1591 1012.01 34.0758 1013.94 Q31.9925 1015.83 31.9925 1018.98 Q31.9925 1022.55 34.0063 1024.7 Q36.0202 1026.83 39.6776 1027.15 L39.6545 1011.97 Z" fill="#000000" fill-rule="evenodd" fill-opacity="1" /><path clip-path="url(#clip030)" d="M30.0017 982.061 L33.9832 982.061 Q32.9878 983.867 32.5017 985.695 Q31.9925 987.501 31.9925 989.353 Q31.9925 993.496 34.6313 995.788 Q37.2471 998.079 41.9924 998.079 Q46.7378 998.079 49.3766 995.788 Q51.9924 993.496 51.9924 989.353 Q51.9924 987.501 51.5062 985.695 Q50.997 983.867 50.0016 982.061 L53.9368 982.061 Q54.7701 983.843 55.1868 985.765 Q55.6035 987.663 55.6035 989.816 Q55.6035 995.672 51.9229 999.121 Q48.2424 1002.57 41.9924 1002.57 Q35.6499 1002.57 32.0156 999.098 Q28.3814 995.603 28.3814 989.538 Q28.3814 987.57 28.798 985.695 Q29.1916 983.82 30.0017 982.061 Z" fill="#000000" fill-rule="evenodd" fill-opacity="1" /><path clip-path="url(#clip030)" d="M21.6453 970.441 L29.0064 970.441 L29.0064 961.668 L32.3165 961.668 L32.3165 970.441 L46.3905 970.441 Q49.5618 970.441 50.4646 969.584 Q51.3674 968.705 51.3674 966.043 L51.3674 961.668 L54.9322 961.668 L54.9322 966.043 Q54.9322 970.973 53.1035 972.848 Q51.2516 974.723 46.3905 974.723 L32.3165 974.723 L32.3165 977.848 L29.0064 977.848 L29.0064 974.723 L21.6453 974.723 L21.6453 970.441 Z" fill="#000000" fill-rule="evenodd" fill-opacity="1" /><path clip-path="url(#clip030)" d="M40.9045 933.89 L42.9878 933.89 L42.9878 953.473 Q47.3859 953.195 49.7007 950.834 Q51.9924 948.45 51.9924 944.214 Q51.9924 941.76 51.3905 939.469 Q50.7887 937.154 49.585 934.885 L53.6127 934.885 Q54.5849 937.177 55.0942 939.584 Q55.6035 941.992 55.6035 944.469 Q55.6035 950.672 51.9924 954.307 Q48.3813 957.918 42.2239 957.918 Q35.8582 957.918 32.1314 954.492 Q28.3814 951.043 28.3814 945.209 Q28.3814 939.978 31.761 936.946 Q35.1174 933.89 40.9045 933.89 M39.6545 938.149 Q36.1591 938.196 34.0758 940.117 Q31.9925 942.015 31.9925 945.163 Q31.9925 948.728 34.0063 950.881 Q36.0202 953.01 39.6776 953.334 L39.6545 938.149 Z" fill="#000000" fill-rule="evenodd" fill-opacity="1" /><path clip-path="url(#clip030)" d="M32.9415 909.839 L18.9138 909.839 L18.9138 905.58 L54.9322 905.58 L54.9322 909.839 L51.0433 909.839 Q53.3581 911.182 54.4923 913.242 Q55.6035 915.279 55.6035 918.149 Q55.6035 922.848 51.8535 925.811 Q48.1035 928.751 41.9924 928.751 Q35.8813 928.751 32.1314 925.811 Q28.3814 922.848 28.3814 918.149 Q28.3814 915.279 29.5156 913.242 Q30.6267 911.182 32.9415 909.839 M41.9924 924.353 Q46.6915 924.353 49.3766 922.432 Q52.0387 920.487 52.0387 917.108 Q52.0387 913.728 49.3766 911.784 Q46.6915 909.839 41.9924 909.839 Q37.2934 909.839 34.6313 911.784 Q31.9462 913.728 31.9462 917.108 Q31.9462 920.487 34.6313 922.432 Q37.2934 924.353 41.9924 924.353 Z" fill="#000000" fill-rule="evenodd" fill-opacity="1" /><path clip-path="url(#clip030)" d="M30.0017 863.08 L33.9832 863.08 Q32.9878 864.886 32.5017 866.714 Q31.9925 868.52 31.9925 870.372 Q31.9925 874.515 34.6313 876.807 Q37.2471 879.099 41.9924 879.099 Q46.7378 879.099 49.3766 876.807 Q51.9924 874.515 51.9924 870.372 Q51.9924 868.52 51.5062 866.714 Q50.997 864.886 50.0016 863.08 L53.9368 863.08 Q54.7701 864.863 55.1868 866.784 Q55.6035 868.682 55.6035 870.835 Q55.6035 876.691 51.9229 880.14 Q48.2424 883.589 41.9924 883.589 Q35.6499 883.589 32.0156 880.117 Q28.3814 876.622 28.3814 870.557 Q28.3814 868.589 28.798 866.714 Q29.1916 864.839 30.0017 863.08 Z" fill="#000000" fill-rule="evenodd" fill-opacity="1" /><path clip-path="url(#clip030)" d="M31.9925 845.627 Q31.9925 849.053 34.6776 851.043 Q37.3397 853.034 41.9924 853.034 Q46.6452 853.034 49.3303 851.066 Q51.9924 849.076 51.9924 845.627 Q51.9924 842.224 49.3072 840.233 Q46.622 838.242 41.9924 838.242 Q37.386 838.242 34.7008 840.233 Q31.9925 842.224 31.9925 845.627 M28.3814 845.627 Q28.3814 840.071 31.9925 836.9 Q35.6036 833.729 41.9924 833.729 Q48.3581 833.729 51.9924 836.9 Q55.6035 840.071 55.6035 845.627 Q55.6035 851.205 51.9924 854.377 Q48.3581 857.525 41.9924 857.525 Q35.6036 857.525 31.9925 854.377 Q28.3814 851.205 28.3814 845.627 Z" fill="#000000" fill-rule="evenodd" fill-opacity="1" /><path clip-path="url(#clip030)" d="M39.2841 805.118 L54.9322 805.118 L54.9322 809.377 L39.423 809.377 Q35.7424 809.377 33.9138 810.812 Q32.0851 812.247 32.0851 815.118 Q32.0851 818.567 34.2841 820.557 Q36.4832 822.548 40.2795 822.548 L54.9322 822.548 L54.9322 826.83 L29.0064 826.83 L29.0064 822.548 L33.0341 822.548 Q30.6962 821.02 29.5388 818.96 Q28.3814 816.877 28.3814 814.168 Q28.3814 809.701 31.1591 807.409 Q33.9138 805.118 39.2841 805.118 Z" fill="#000000" fill-rule="evenodd" fill-opacity="1" /><path clip-path="url(#clip030)" d="M32.9415 779.562 L18.9138 779.562 L18.9138 775.303 L54.9322 775.303 L54.9322 779.562 L51.0433 779.562 Q53.3581 780.905 54.4923 782.965 Q55.6035 785.002 55.6035 787.872 Q55.6035 792.571 51.8535 795.534 Q48.1035 798.474 41.9924 798.474 Q35.8813 798.474 32.1314 795.534 Q28.3814 792.571 28.3814 787.872 Q28.3814 785.002 29.5156 782.965 Q30.6267 780.905 32.9415 779.562 M41.9924 794.076 Q46.6915 794.076 49.3766 792.155 Q52.0387 790.21 52.0387 786.831 Q52.0387 783.451 49.3766 781.507 Q46.6915 779.562 41.9924 779.562 Q37.2934 779.562 34.6313 781.507 Q31.9462 783.451 31.9462 786.831 Q31.9462 790.21 34.6313 792.155 Q37.2934 794.076 41.9924 794.076 Z" fill="#000000" fill-rule="evenodd" fill-opacity="1" /><path clip-path="url(#clip030)" d="M29.0064 766.53 L29.0064 762.271 L54.9322 762.271 L54.9322 766.53 L29.0064 766.53 M18.9138 766.53 L18.9138 762.271 L24.3073 762.271 L24.3073 766.53 L18.9138 766.53 Z" fill="#000000" fill-rule="evenodd" fill-opacity="1" /><path clip-path="url(#clip030)" d="M21.6453 749.146 L29.0064 749.146 L29.0064 740.373 L32.3165 740.373 L32.3165 749.146 L46.3905 749.146 Q49.5618 749.146 50.4646 748.289 Q51.3674 747.41 51.3674 744.748 L51.3674 740.373 L54.9322 740.373 L54.9322 744.748 Q54.9322 749.678 53.1035 751.553 Q51.2516 753.428 46.3905 753.428 L32.3165 753.428 L32.3165 756.553 L29.0064 756.553 L29.0064 753.428 L21.6453 753.428 L21.6453 749.146 Z" fill="#000000" fill-rule="evenodd" fill-opacity="1" /><path clip-path="url(#clip030)" d="M29.0064 734.771 L29.0064 730.511 L54.9322 730.511 L54.9322 734.771 L29.0064 734.771 M18.9138 734.771 L18.9138 730.511 L24.3073 730.511 L24.3073 734.771 L18.9138 734.771 Z" fill="#000000" fill-rule="evenodd" fill-opacity="1" /><path clip-path="url(#clip030)" d="M31.9925 711.553 Q31.9925 714.979 34.6776 716.97 Q37.3397 718.961 41.9924 718.961 Q46.6452 718.961 49.3303 716.993 Q51.9924 715.002 51.9924 711.553 Q51.9924 708.15 49.3072 706.16 Q46.622 704.169 41.9924 704.169 Q37.386 704.169 34.7008 706.16 Q31.9925 708.15 31.9925 711.553 M28.3814 711.553 Q28.3814 705.998 31.9925 702.826 Q35.6036 699.655 41.9924 699.655 Q48.3581 699.655 51.9924 702.826 Q55.6035 705.998 55.6035 711.553 Q55.6035 717.132 51.9924 720.303 Q48.3581 723.451 41.9924 723.451 Q35.6036 723.451 31.9925 720.303 Q28.3814 717.132 28.3814 711.553 Z" fill="#000000" fill-rule="evenodd" fill-opacity="1" /><path clip-path="url(#clip030)" d="M39.2841 671.044 L54.9322 671.044 L54.9322 675.303 L39.423 675.303 Q35.7424 675.303 33.9138 676.739 Q32.0851 678.174 32.0851 681.044 Q32.0851 684.493 34.2841 686.484 Q36.4832 688.475 40.2795 688.475 L54.9322 688.475 L54.9322 692.757 L29.0064 692.757 L29.0064 688.475 L33.0341 688.475 Q30.6962 686.947 29.5388 684.887 Q28.3814 682.803 28.3814 680.095 Q28.3814 675.628 31.1591 673.336 Q33.9138 671.044 39.2841 671.044 Z" fill="#000000" fill-rule="evenodd" fill-opacity="1" /><path clip-path="url(#clip030)" d="M41.8998 650.767 Q41.8998 655.929 43.0804 657.919 Q44.2609 659.91 47.1081 659.91 Q49.3766 659.91 50.7192 658.429 Q52.0387 656.924 52.0387 654.354 Q52.0387 650.813 49.5387 648.683 Q47.0155 646.53 42.8489 646.53 L41.8998 646.53 L41.8998 650.767 M40.1406 642.271 L54.9322 642.271 L54.9322 646.53 L50.997 646.53 Q53.3581 647.989 54.4923 650.165 Q55.6035 652.341 55.6035 655.489 Q55.6035 659.47 53.3812 661.831 Q51.1359 664.169 47.3859 664.169 Q43.0109 664.169 40.7887 661.253 Q38.5665 658.313 38.5665 652.503 L38.5665 646.53 L38.1498 646.53 Q35.21 646.53 33.6128 648.475 Q31.9925 650.396 31.9925 653.892 Q31.9925 656.114 32.5249 658.22 Q33.0573 660.327 34.1221 662.271 L30.1869 662.271 Q29.2841 659.933 28.8443 657.734 Q28.3814 655.535 28.3814 653.452 Q28.3814 647.827 31.298 645.049 Q34.2147 642.271 40.1406 642.271 Z" fill="#000000" fill-rule="evenodd" fill-opacity="1" /><path clip-path="url(#clip030)" d="M18.9138 633.498 L18.9138 629.239 L54.9322 629.239 L54.9322 633.498 L18.9138 633.498 Z" fill="#000000" fill-rule="evenodd" fill-opacity="1" /><path clip-path="url(#clip030)" d="M18.9138 605.258 L18.9138 600.998 L54.9322 600.998 L54.9322 605.258 L18.9138 605.258 Z" fill="#000000" fill-rule="evenodd" fill-opacity="1" /><path clip-path="url(#clip030)" d="M31.9925 582.04 Q31.9925 585.466 34.6776 587.457 Q37.3397 589.447 41.9924 589.447 Q46.6452 589.447 49.3303 587.48 Q51.9924 585.489 51.9924 582.04 Q51.9924 578.637 49.3072 576.647 Q46.622 574.656 41.9924 574.656 Q37.386 574.656 34.7008 576.647 Q31.9925 578.637 31.9925 582.04 M28.3814 582.04 Q28.3814 576.485 31.9925 573.313 Q35.6036 570.142 41.9924 570.142 Q48.3581 570.142 51.9924 573.313 Q55.6035 576.485 55.6035 582.04 Q55.6035 587.619 51.9924 590.79 Q48.3581 593.938 41.9924 593.938 Q35.6036 593.938 31.9925 590.79 Q28.3814 587.619 28.3814 582.04 Z" fill="#000000" fill-rule="evenodd" fill-opacity="1" /><path clip-path="url(#clip030)" d="M41.6683 546.022 Q37.0387 546.022 34.4925 547.943 Q31.9462 549.841 31.9462 553.29 Q31.9462 556.716 34.4925 558.637 Q37.0387 560.536 41.6683 560.536 Q46.2748 560.536 48.8211 558.637 Q51.3674 556.716 51.3674 553.29 Q51.3674 549.841 48.8211 547.943 Q46.2748 546.022 41.6683 546.022 M51.7146 541.762 Q58.3349 541.762 61.5525 544.702 Q64.7932 547.642 64.7932 553.707 Q64.7932 555.952 64.446 557.943 Q64.1219 559.934 63.4275 561.809 L59.284 561.809 Q60.3025 559.934 60.7886 558.105 Q61.2747 556.276 61.2747 554.378 Q61.2747 550.188 59.0757 548.105 Q56.8997 546.022 52.4785 546.022 L50.372 546.022 Q52.6637 547.341 53.7979 549.401 Q54.9322 551.462 54.9322 554.332 Q54.9322 559.1 51.2979 562.017 Q47.6637 564.934 41.6683 564.934 Q35.6499 564.934 32.0156 562.017 Q28.3814 559.1 28.3814 554.332 Q28.3814 551.462 29.5156 549.401 Q30.6499 547.341 32.9415 546.022 L29.0064 546.022 L29.0064 541.762 L51.7146 541.762 Z" fill="#000000" fill-rule="evenodd" fill-opacity="1" /><path clip-path="url(#clip030)" d="M51.0433 513.8 L64.7932 513.8 L64.7932 518.082 L29.0064 518.082 L29.0064 513.8 L32.9415 513.8 Q30.6267 512.457 29.5156 510.42 Q28.3814 508.36 28.3814 505.513 Q28.3814 500.79 32.1314 497.851 Q35.8813 494.888 41.9924 494.888 Q48.1035 494.888 51.8535 497.851 Q55.6035 500.79 55.6035 505.513 Q55.6035 508.36 54.4923 510.42 Q53.3581 512.457 51.0433 513.8 M41.9924 499.309 Q37.2934 499.309 34.6313 501.253 Q31.9462 503.175 31.9462 506.554 Q31.9462 509.934 34.6313 511.878 Q37.2934 513.8 41.9924 513.8 Q46.6915 513.8 49.3766 511.878 Q52.0387 509.934 52.0387 506.554 Q52.0387 503.175 49.3766 501.253 Q46.6915 499.309 41.9924 499.309 Z" fill="#000000" fill-rule="evenodd" fill-opacity="1" /><path clip-path="url(#clip030)" d="M32.9878 472.805 Q32.5712 473.522 32.386 474.379 Q32.1776 475.212 32.1776 476.23 Q32.1776 479.842 34.5387 481.786 Q36.8767 483.707 41.2748 483.707 L54.9322 483.707 L54.9322 487.99 L29.0064 487.99 L29.0064 483.707 L33.0341 483.707 Q30.673 482.365 29.5388 480.212 Q28.3814 478.059 28.3814 474.98 Q28.3814 474.541 28.4508 474.008 Q28.4971 473.476 28.6129 472.828 L32.9878 472.805 Z" fill="#000000" fill-rule="evenodd" fill-opacity="1" /><path clip-path="url(#clip030)" d="M31.9925 459.332 Q31.9925 462.758 34.6776 464.749 Q37.3397 466.74 41.9924 466.74 Q46.6452 466.74 49.3303 464.772 Q51.9924 462.781 51.9924 459.332 Q51.9924 455.93 49.3072 453.939 Q46.622 451.948 41.9924 451.948 Q37.386 451.948 34.7008 453.939 Q31.9925 455.93 31.9925 459.332 M28.3814 459.332 Q28.3814 453.777 31.9925 450.606 Q35.6036 447.434 41.9924 447.434 Q48.3581 447.434 51.9924 450.606 Q55.6035 453.777 55.6035 459.332 Q55.6035 464.911 51.9924 468.082 Q48.3581 471.23 41.9924 471.23 Q35.6036 471.23 31.9925 468.082 Q28.3814 464.911 28.3814 459.332 Z" fill="#000000" fill-rule="evenodd" fill-opacity="1" /><path clip-path="url(#clip030)" d="M41.9924 421.763 Q37.2934 421.763 34.6313 423.708 Q31.9462 425.629 31.9462 429.008 Q31.9462 432.388 34.6313 434.333 Q37.2934 436.254 41.9924 436.254 Q46.6915 436.254 49.3766 434.333 Q52.0387 432.388 52.0387 429.008 Q52.0387 425.629 49.3766 423.708 Q46.6915 421.763 41.9924 421.763 M32.9415 436.254 Q30.6267 434.911 29.5156 432.874 Q28.3814 430.814 28.3814 427.967 Q28.3814 423.245 32.1314 420.305 Q35.8813 417.342 41.9924 417.342 Q48.1035 417.342 51.8535 420.305 Q55.6035 423.245 55.6035 427.967 Q55.6035 430.814 54.4923 432.874 Q53.3581 434.911 51.0433 436.254 L54.9322 436.254 L54.9322 440.536 L18.9138 440.536 L18.9138 436.254 L32.9415 436.254 Z" fill="#000000" fill-rule="evenodd" fill-opacity="1" /><path clip-path="url(#clip030)" d="M41.8998 398.499 Q41.8998 403.661 43.0804 405.652 Q44.2609 407.643 47.1081 407.643 Q49.3766 407.643 50.7192 406.161 Q52.0387 404.657 52.0387 402.087 Q52.0387 398.546 49.5387 396.416 Q47.0155 394.263 42.8489 394.263 L41.8998 394.263 L41.8998 398.499 M40.1406 390.004 L54.9322 390.004 L54.9322 394.263 L50.997 394.263 Q53.3581 395.722 54.4923 397.898 Q55.6035 400.073 55.6035 403.222 Q55.6035 407.203 53.3812 409.564 Q51.1359 411.902 47.3859 411.902 Q43.0109 411.902 40.7887 408.985 Q38.5665 406.046 38.5665 400.235 L38.5665 394.263 L38.1498 394.263 Q35.21 394.263 33.6128 396.208 Q31.9925 398.129 31.9925 401.624 Q31.9925 403.847 32.5249 405.953 Q33.0573 408.059 34.1221 410.004 L30.1869 410.004 Q29.2841 407.666 28.8443 405.467 Q28.3814 403.268 28.3814 401.185 Q28.3814 395.56 31.298 392.782 Q34.2147 390.004 40.1406 390.004 Z" fill="#000000" fill-rule="evenodd" fill-opacity="1" /><path clip-path="url(#clip030)" d="M41.9924 362.62 Q37.2934 362.62 34.6313 364.564 Q31.9462 366.486 31.9462 369.865 Q31.9462 373.245 34.6313 375.189 Q37.2934 377.111 41.9924 377.111 Q46.6915 377.111 49.3766 375.189 Q52.0387 373.245 52.0387 369.865 Q52.0387 366.486 49.3766 364.564 Q46.6915 362.62 41.9924 362.62 M32.9415 377.111 Q30.6267 375.768 29.5156 373.731 Q28.3814 371.671 28.3814 368.824 Q28.3814 364.101 32.1314 361.162 Q35.8813 358.199 41.9924 358.199 Q48.1035 358.199 51.8535 361.162 Q55.6035 364.101 55.6035 368.824 Q55.6035 371.671 54.4923 373.731 Q53.3581 375.768 51.0433 377.111 L54.9322 377.111 L54.9322 381.393 L18.9138 381.393 L18.9138 377.111 L32.9415 377.111 Z" fill="#000000" fill-rule="evenodd" fill-opacity="1" /><path clip-path="url(#clip030)" d="M29.0064 351.139 L29.0064 346.879 L54.9322 346.879 L54.9322 351.139 L29.0064 351.139 M18.9138 351.139 L18.9138 346.879 L24.3073 346.879 L24.3073 351.139 L18.9138 351.139 Z" fill="#000000" fill-rule="evenodd" fill-opacity="1" /><path clip-path="url(#clip030)" d="M18.9138 337.967 L18.9138 333.708 L54.9322 333.708 L54.9322 337.967 L18.9138 337.967 Z" fill="#000000" fill-rule="evenodd" fill-opacity="1" /><path clip-path="url(#clip030)" d="M29.0064 324.796 L29.0064 320.537 L54.9322 320.537 L54.9322 324.796 L29.0064 324.796 M18.9138 324.796 L18.9138 320.537 L24.3073 320.537 L24.3073 324.796 L18.9138 324.796 Z" fill="#000000" fill-rule="evenodd" fill-opacity="1" /><path clip-path="url(#clip030)" d="M21.6453 307.412 L29.0064 307.412 L29.0064 298.639 L32.3165 298.639 L32.3165 307.412 L46.3905 307.412 Q49.5618 307.412 50.4646 306.555 Q51.3674 305.676 51.3674 303.014 L51.3674 298.639 L54.9322 298.639 L54.9322 303.014 Q54.9322 307.944 53.1035 309.819 Q51.2516 311.694 46.3905 311.694 L32.3165 311.694 L32.3165 314.819 L29.0064 314.819 L29.0064 311.694 L21.6453 311.694 L21.6453 307.412 Z" fill="#000000" fill-rule="evenodd" fill-opacity="1" /><path clip-path="url(#clip030)" d="M57.3396 282.25 Q61.9692 284.056 63.3812 285.768 Q64.7932 287.481 64.7932 290.352 L64.7932 293.755 L61.2284 293.755 L61.2284 291.255 Q61.2284 289.495 60.3951 288.523 Q59.5618 287.551 56.4599 286.37 L54.5155 285.606 L29.0064 296.093 L29.0064 291.579 L49.284 283.477 L29.0064 275.375 L29.0064 270.861 L57.3396 282.25 Z" fill="#000000" fill-rule="evenodd" fill-opacity="1" /><path clip-path="url(#clip030)" d="M32.9415 232.852 L18.9138 232.852 L18.9138 228.593 L54.9322 228.593 L54.9322 232.852 L51.0433 232.852 Q53.3581 234.195 54.4923 236.255 Q55.6035 238.292 55.6035 241.162 Q55.6035 245.861 51.8535 248.824 Q48.1035 251.764 41.9924 251.764 Q35.8813 251.764 32.1314 248.824 Q28.3814 245.861 28.3814 241.162 Q28.3814 238.292 29.5156 236.255 Q30.6267 234.195 32.9415 232.852 M41.9924 247.366 Q46.6915 247.366 49.3766 245.445 Q52.0387 243.5 52.0387 240.121 Q52.0387 236.741 49.3766 234.797 Q46.6915 232.852 41.9924 232.852 Q37.2934 232.852 34.6313 234.797 Q31.9462 236.741 31.9462 240.121 Q31.9462 243.5 34.6313 245.445 Q37.2934 247.366 41.9924 247.366 Z" fill="#000000" fill-rule="evenodd" fill-opacity="1" /><path clip-path="url(#clip030)" d="M40.9045 197.644 L42.9878 197.644 L42.9878 217.227 Q47.3859 216.949 49.7007 214.588 Q51.9924 212.204 51.9924 207.968 Q51.9924 205.514 51.3905 203.223 Q50.7887 200.908 49.585 198.639 L53.6127 198.639 Q54.5849 200.931 55.0942 203.338 Q55.6035 205.746 55.6035 208.223 Q55.6035 214.426 51.9924 218.061 Q48.3813 221.672 42.2239 221.672 Q35.8582 221.672 32.1314 218.246 Q28.3814 214.797 28.3814 208.963 Q28.3814 203.732 31.761 200.699 Q35.1174 197.644 40.9045 197.644 M39.6545 201.903 Q36.1591 201.949 34.0758 203.871 Q31.9925 205.769 31.9925 208.917 Q31.9925 212.482 34.0063 214.635 Q36.0202 216.764 39.6776 217.088 L39.6545 201.903 Z" fill="#000000" fill-rule="evenodd" fill-opacity="1" /><path clip-path="url(#clip030)" d="M39.2841 169.102 L54.9322 169.102 L54.9322 173.362 L39.423 173.362 Q35.7424 173.362 33.9138 174.797 Q32.0851 176.232 32.0851 179.102 Q32.0851 182.551 34.2841 184.542 Q36.4832 186.533 40.2795 186.533 L54.9322 186.533 L54.9322 190.815 L29.0064 190.815 L29.0064 186.533 L33.0341 186.533 Q30.6962 185.005 29.5388 182.945 Q28.3814 180.862 28.3814 178.153 Q28.3814 173.686 31.1591 171.394 Q33.9138 169.102 39.2841 169.102 Z" fill="#000000" fill-rule="evenodd" fill-opacity="1" /><path clip-path="url(#clip030)" d="M29.7703 144.079 L33.798 144.079 Q32.8721 145.885 32.4091 147.829 Q31.9462 149.774 31.9462 151.857 Q31.9462 155.028 32.9184 156.626 Q33.8906 158.2 35.835 158.2 Q37.3165 158.2 38.173 157.065 Q39.0063 155.931 39.7702 152.505 L40.0943 151.047 Q41.0665 146.51 42.8489 144.612 Q44.6081 142.691 47.7794 142.691 Q51.3905 142.691 53.497 145.561 Q55.6035 148.408 55.6035 153.408 Q55.6035 155.491 55.1868 157.76 Q54.7933 160.005 53.9831 162.505 L49.585 162.505 Q50.8118 160.144 51.4368 157.853 Q52.0387 155.561 52.0387 153.315 Q52.0387 150.306 51.0201 148.686 Q49.9785 147.066 48.1035 147.066 Q46.3674 147.066 45.4415 148.246 Q44.5155 149.403 43.6591 153.362 L43.3118 154.843 Q42.4785 158.802 40.7656 160.561 Q39.0295 162.32 36.0202 162.32 Q32.3628 162.32 30.3721 159.727 Q28.3814 157.135 28.3814 152.366 Q28.3814 150.005 28.7286 147.922 Q29.0758 145.839 29.7703 144.079 Z" fill="#000000" fill-rule="evenodd" fill-opacity="1" /><path clip-path="url(#clip030)" d="M29.0064 135.908 L29.0064 131.649 L54.9322 131.649 L54.9322 135.908 L29.0064 135.908 M18.9138 135.908 L18.9138 131.649 L24.3073 131.649 L24.3073 135.908 L18.9138 135.908 Z" fill="#000000" fill-rule="evenodd" fill-opacity="1" /><path clip-path="url(#clip030)" d="M21.6453 118.524 L29.0064 118.524 L29.0064 109.751 L32.3165 109.751 L32.3165 118.524 L46.3905 118.524 Q49.5618 118.524 50.4646 117.668 Q51.3674 116.788 51.3674 114.126 L51.3674 109.751 L54.9322 109.751 L54.9322 114.126 Q54.9322 119.056 53.1035 120.931 Q51.2516 122.806 46.3905 122.806 L32.3165 122.806 L32.3165 125.931 L29.0064 125.931 L29.0064 122.806 L21.6453 122.806 L21.6453 118.524 Z" fill="#000000" fill-rule="evenodd" fill-opacity="1" /><path clip-path="url(#clip030)" d="M57.3396 93.3621 Q61.9692 95.1677 63.3812 96.8806 Q64.7932 98.5936 64.7932 101.464 L64.7932 104.867 L61.2284 104.867 L61.2284 102.367 Q61.2284 100.607 60.3951 99.6352 Q59.5618 98.663 56.4599 97.4825 L54.5155 96.7186 L29.0064 107.205 L29.0064 102.691 L49.284 94.589 L29.0064 86.4871 L29.0064 81.9733 L57.3396 93.3621 Z" fill="#000000" fill-rule="evenodd" fill-opacity="1" /><polyline clip-path="url(#clip032)" style="stroke:#009af9; stroke-linecap:butt; stroke-linejoin:round; stroke-width:4; stroke-opacity:1; fill:none" points="
  267.638,1396.83 277.811,1328.58 287.983,1235.05 298.156,1246.61 308.329,1135.13 318.502,1124.68 328.675,1086.22 338.847,1035.02 349.02,1007.49 359.193,955.084 
  369.366,897.959 379.539,895.578 389.711,905.424 399.884,848.07 410.057,788.399 420.23,823.392 430.403,708.187 440.575,785.342 450.748,721.594 460.921,514.987 
  471.094,688.547 481.267,618.319 491.439,782.062 501.612,731.344 511.785,502.5 521.958,508.171 532.131,614.984 542.303,752.827 552.476,507.017 562.649,650.694 
  572.822,613.13 582.995,577.047 593.167,658.808 603.34,533.244 613.513,684.714 623.686,478.818 633.859,601.765 644.031,622.261 654.204,519.927 664.377,501.836 
  674.55,358.735 684.723,634.805 694.895,419.834 705.068,497.491 715.241,605.911 725.414,484.933 735.586,618.158 745.759,567.622 755.932,426.602 766.105,417.05 
  776.278,346.039 786.45,670.244 796.623,640.248 806.796,536.892 816.969,321.672 827.142,489.835 837.314,227.793 847.487,551.599 857.66,692.515 867.833,431.233 
  878.006,522.878 888.178,347.299 898.351,602.543 908.524,636.476 918.697,539.114 928.87,474.243 939.042,364.52 949.215,635.026 959.388,600.045 969.561,452.784 
  979.734,636.854 989.906,617.073 1000.08,805.012 1010.25,717.391 1020.42,715.126 1030.6,329.87 1040.77,588.126 1050.94,406.932 1061.12,485.354 1071.29,539.942 
  1081.46,489.207 1091.63,404.273 1101.81,454.061 1111.98,507.207 1122.15,569.906 1132.33,280.092 1142.5,539.199 1152.67,403.736 1162.84,282.343 1173.02,366.323 
  1183.19,633.03 1193.36,409.905 1203.54,408.965 1213.71,285.187 1223.88,382.654 1234.05,713.898 1244.23,287.255 1254.4,399.763 1264.57,332.593 1274.74,597.117 
  1284.92,628 1295.09,504.282 1305.26,462.654 1315.44,430.174 1325.61,483.756 1335.78,422.042 1345.95,605.534 1356.13,247.247 1366.3,274.803 1376.47,502.683 
  1386.65,440.874 1396.82,515.713 1406.99,649.683 1417.16,549.267 1427.34,482.318 1437.51,492.383 1447.68,575.73 1457.86,418.421 1468.03,419.164 1478.2,515.778 
  1488.37,460.177 1498.55,394.644 1508.72,535.321 1518.89,459.729 1529.06,696.678 1539.24,721.202 1549.41,670.063 1559.58,497.409 1569.76,598.852 1579.93,740.522 
  1590.1,447.269 1600.27,644.505 1610.45,486.255 1620.62,277.368 1630.79,699.49 1640.97,456.079 1651.14,315.147 1661.31,471.562 1671.48,385.223 1681.66,572.716 
  1691.83,262.478 1702,385.056 1712.17,553.771 1722.35,576.637 1732.52,372.877 1742.69,552.723 1752.87,394.098 1763.04,403.681 1773.21,570.263 1783.38,591.111 
  1793.56,794.351 1803.73,274.016 1813.9,299.865 1824.08,607.044 1834.25,425.258 1844.42,597.153 1854.59,485.697 1864.77,385.627 1874.94,274.67 1885.11,545.322 
  1895.29,424.362 1905.46,661.066 1915.63,588.521 1925.8,375.951 1935.98,587.997 1946.15,191.291 1956.32,394.116 1966.49,453.516 1976.67,316.881 1986.84,562.942 
  1997.01,748.181 2007.19,849.547 2017.36,467.936 2027.53,86.5525 2037.7,474.002 2047.88,268.075 2058.05,205.229 2068.22,640.248 2078.4,625.656 2088.57,512.422 
  2098.74,475.647 2108.91,447.03 2119.09,417.416 2129.26,448.948 2139.43,593.999 2149.61,191.196 2159.78,443.654 2169.95,538.861 2180.12,148.671 2190.3,366.289 
  2200.47,451.145 2210.64,706.775 2220.81,344.925 2230.99,269.907 2241.16,292.378 2251.33,490.925 2261.51,281.94 2271.68,276.676 2281.85,513.16 2292.02,825.446 
  
  "/>
</svg>
