<?xml version="1.0" encoding="utf-8"?>
<svg xmlns="http://www.w3.org/2000/svg" xmlns:xlink="http://www.w3.org/1999/xlink" width="600" height="400" viewBox="0 0 2400 1600">
<defs>
  <clipPath id="clip070">
    <rect x="0" y="0" width="2400" height="1600"/>
  </clipPath>
</defs>
<path clip-path="url(#clip070)" d="
M0 1600 L2400 1600 L2400 0 L0 0  Z
  " fill="#ffffff" fill-rule="evenodd" fill-opacity="1"/>
<defs>
  <clipPath id="clip071">
    <rect x="480" y="0" width="1681" height="1600"/>
  </clipPath>
</defs>
<path clip-path="url(#clip070)" d="
M206.906 1436.14 L2352.76 1436.14 L2352.76 47.2441 L206.906 47.2441  Z
  " fill="#ffffff" fill-rule="evenodd" fill-opacity="1"/>
<defs>
  <clipPath id="clip072">
    <rect x="206" y="47" width="2147" height="1390"/>
  </clipPath>
</defs>
<polyline clip-path="url(#clip072)" style="stroke:#000000; stroke-linecap:butt; stroke-linejoin:round; stroke-width:2; stroke-opacity:0.1; fill:none" points="
  226.324,1436.14 226.324,47.2441 
  "/>
<polyline clip-path="url(#clip072)" style="stroke:#000000; stroke-linecap:butt; stroke-linejoin:round; stroke-width:2; stroke-opacity:0.1; fill:none" points="
  639.464,1436.14 639.464,47.2441 
  "/>
<polyline clip-path="url(#clip072)" style="stroke:#000000; stroke-linecap:butt; stroke-linejoin:round; stroke-width:2; stroke-opacity:0.1; fill:none" points="
  1052.6,1436.14 1052.6,47.2441 
  "/>
<polyline clip-path="url(#clip072)" style="stroke:#000000; stroke-linecap:butt; stroke-linejoin:round; stroke-width:2; stroke-opacity:0.1; fill:none" points="
  1465.74,1436.14 1465.74,47.2441 
  "/>
<polyline clip-path="url(#clip072)" style="stroke:#000000; stroke-linecap:butt; stroke-linejoin:round; stroke-width:2; stroke-opacity:0.1; fill:none" points="
  1878.88,1436.14 1878.88,47.2441 
  "/>
<polyline clip-path="url(#clip072)" style="stroke:#000000; stroke-linecap:butt; stroke-linejoin:round; stroke-width:2; stroke-opacity:0.1; fill:none" points="
  2292.02,1436.14 2292.02,47.2441 
  "/>
<polyline clip-path="url(#clip070)" style="stroke:#000000; stroke-linecap:butt; stroke-linejoin:round; stroke-width:4; stroke-opacity:1; fill:none" points="
  206.906,1436.14 2352.76,1436.14 
  "/>
<polyline clip-path="url(#clip070)" style="stroke:#000000; stroke-linecap:butt; stroke-linejoin:round; stroke-width:4; stroke-opacity:1; fill:none" points="
  226.324,1436.14 226.324,1417.24 
  "/>
<polyline clip-path="url(#clip070)" style="stroke:#000000; stroke-linecap:butt; stroke-linejoin:round; stroke-width:4; stroke-opacity:1; fill:none" points="
  639.464,1436.14 639.464,1417.24 
  "/>
<polyline clip-path="url(#clip070)" style="stroke:#000000; stroke-linecap:butt; stroke-linejoin:round; stroke-width:4; stroke-opacity:1; fill:none" points="
  1052.6,1436.14 1052.6,1417.24 
  "/>
<polyline clip-path="url(#clip070)" style="stroke:#000000; stroke-linecap:butt; stroke-linejoin:round; stroke-width:4; stroke-opacity:1; fill:none" points="
  1465.74,1436.14 1465.74,1417.24 
  "/>
<polyline clip-path="url(#clip070)" style="stroke:#000000; stroke-linecap:butt; stroke-linejoin:round; stroke-width:4; stroke-opacity:1; fill:none" points="
  1878.88,1436.14 1878.88,1417.24 
  "/>
<polyline clip-path="url(#clip070)" style="stroke:#000000; stroke-linecap:butt; stroke-linejoin:round; stroke-width:4; stroke-opacity:1; fill:none" points="
  2292.02,1436.14 2292.02,1417.24 
  "/>
<path clip-path="url(#clip070)" d="M226.324 1467.06 Q222.713 1467.06 220.884 1470.62 Q219.079 1474.16 219.079 1481.29 Q219.079 1488.4 220.884 1491.97 Q222.713 1495.51 226.324 1495.51 Q229.958 1495.51 231.764 1491.97 Q233.592 1488.4 233.592 1481.29 Q233.592 1474.16 231.764 1470.62 Q229.958 1467.06 226.324 1467.06 M226.324 1463.35 Q232.134 1463.35 235.19 1467.96 Q238.268 1472.54 238.268 1481.29 Q238.268 1490.02 235.19 1494.63 Q232.134 1499.21 226.324 1499.21 Q220.514 1499.21 217.435 1494.63 Q214.379 1490.02 214.379 1481.29 Q214.379 1472.54 217.435 1467.96 Q220.514 1463.35 226.324 1463.35 Z" fill="#000000" fill-rule="evenodd" fill-opacity="1" /><path clip-path="url(#clip070)" d="M614.152 1494.6 L621.79 1494.6 L621.79 1468.24 L613.48 1469.91 L613.48 1465.65 L621.744 1463.98 L626.42 1463.98 L626.42 1494.6 L634.059 1494.6 L634.059 1498.54 L614.152 1498.54 L614.152 1494.6 Z" fill="#000000" fill-rule="evenodd" fill-opacity="1" /><path clip-path="url(#clip070)" d="M653.503 1467.06 Q649.892 1467.06 648.063 1470.62 Q646.258 1474.16 646.258 1481.29 Q646.258 1488.4 648.063 1491.97 Q649.892 1495.51 653.503 1495.51 Q657.137 1495.51 658.943 1491.97 Q660.772 1488.4 660.772 1481.29 Q660.772 1474.16 658.943 1470.62 Q657.137 1467.06 653.503 1467.06 M653.503 1463.35 Q659.313 1463.35 662.369 1467.96 Q665.448 1472.54 665.448 1481.29 Q665.448 1490.02 662.369 1494.63 Q659.313 1499.21 653.503 1499.21 Q647.693 1499.21 644.614 1494.63 Q641.559 1490.02 641.559 1481.29 Q641.559 1472.54 644.614 1467.96 Q647.693 1463.35 653.503 1463.35 Z" fill="#000000" fill-rule="evenodd" fill-opacity="1" /><path clip-path="url(#clip070)" d="M1031.38 1494.6 L1047.7 1494.6 L1047.7 1498.54 L1025.75 1498.54 L1025.75 1494.6 Q1028.41 1491.85 1033 1487.22 Q1037.6 1482.57 1038.78 1481.23 Q1041.03 1478.7 1041.91 1476.97 Q1042.81 1475.21 1042.81 1473.52 Q1042.81 1470.76 1040.87 1469.03 Q1038.95 1467.29 1035.84 1467.29 Q1033.65 1467.29 1031.19 1468.05 Q1028.76 1468.82 1025.98 1470.37 L1025.98 1465.65 Q1028.81 1464.51 1031.26 1463.93 Q1033.72 1463.35 1035.75 1463.35 Q1041.12 1463.35 1044.32 1466.04 Q1047.51 1468.73 1047.51 1473.22 Q1047.51 1475.35 1046.7 1477.27 Q1045.91 1479.16 1043.81 1481.76 Q1043.23 1482.43 1040.13 1485.65 Q1037.03 1488.84 1031.38 1494.6 Z" fill="#000000" fill-rule="evenodd" fill-opacity="1" /><path clip-path="url(#clip070)" d="M1067.51 1467.06 Q1063.9 1467.06 1062.07 1470.62 Q1060.27 1474.16 1060.27 1481.29 Q1060.27 1488.4 1062.07 1491.97 Q1063.9 1495.51 1067.51 1495.51 Q1071.15 1495.51 1072.95 1491.97 Q1074.78 1488.4 1074.78 1481.29 Q1074.78 1474.16 1072.95 1470.62 Q1071.15 1467.06 1067.51 1467.06 M1067.51 1463.35 Q1073.32 1463.35 1076.38 1467.96 Q1079.46 1472.54 1079.46 1481.29 Q1079.46 1490.02 1076.38 1494.63 Q1073.32 1499.21 1067.51 1499.21 Q1061.7 1499.21 1058.62 1494.63 Q1055.57 1490.02 1055.57 1481.29 Q1055.57 1472.54 1058.62 1467.96 Q1061.7 1463.35 1067.51 1463.35 Z" fill="#000000" fill-rule="evenodd" fill-opacity="1" /><path clip-path="url(#clip070)" d="M1454.59 1479.91 Q1457.94 1480.62 1459.82 1482.89 Q1461.72 1485.16 1461.72 1488.49 Q1461.72 1493.61 1458.2 1496.41 Q1454.68 1499.21 1448.2 1499.21 Q1446.02 1499.21 1443.71 1498.77 Q1441.42 1498.35 1438.96 1497.5 L1438.96 1492.98 Q1440.91 1494.12 1443.22 1494.7 Q1445.54 1495.28 1448.06 1495.28 Q1452.46 1495.28 1454.75 1493.54 Q1457.06 1491.8 1457.06 1488.49 Q1457.06 1485.44 1454.91 1483.73 Q1452.78 1481.99 1448.96 1481.99 L1444.93 1481.99 L1444.93 1478.15 L1449.15 1478.15 Q1452.6 1478.15 1454.42 1476.78 Q1456.25 1475.39 1456.25 1472.8 Q1456.25 1470.14 1454.36 1468.73 Q1452.48 1467.29 1448.96 1467.29 Q1447.04 1467.29 1444.84 1467.71 Q1442.64 1468.12 1440 1469 L1440 1464.84 Q1442.67 1464.1 1444.98 1463.73 Q1447.32 1463.35 1449.38 1463.35 Q1454.7 1463.35 1457.8 1465.79 Q1460.91 1468.19 1460.91 1472.31 Q1460.91 1475.18 1459.26 1477.17 Q1457.62 1479.14 1454.59 1479.91 Z" fill="#000000" fill-rule="evenodd" fill-opacity="1" /><path clip-path="url(#clip070)" d="M1480.58 1467.06 Q1476.97 1467.06 1475.14 1470.62 Q1473.34 1474.16 1473.34 1481.29 Q1473.34 1488.4 1475.14 1491.97 Q1476.97 1495.51 1480.58 1495.51 Q1484.22 1495.51 1486.02 1491.97 Q1487.85 1488.4 1487.85 1481.29 Q1487.85 1474.16 1486.02 1470.62 Q1484.22 1467.06 1480.58 1467.06 M1480.58 1463.35 Q1486.39 1463.35 1489.45 1467.96 Q1492.53 1472.54 1492.53 1481.29 Q1492.53 1490.02 1489.45 1494.63 Q1486.39 1499.21 1480.58 1499.21 Q1474.77 1499.21 1471.69 1494.63 Q1468.64 1490.02 1468.64 1481.29 Q1468.64 1472.54 1471.69 1467.96 Q1474.77 1463.35 1480.58 1463.35 Z" fill="#000000" fill-rule="evenodd" fill-opacity="1" /><path clip-path="url(#clip070)" d="M1867.06 1468.05 L1855.25 1486.5 L1867.06 1486.5 L1867.06 1468.05 M1865.83 1463.98 L1871.71 1463.98 L1871.71 1486.5 L1876.64 1486.5 L1876.64 1490.39 L1871.71 1490.39 L1871.71 1498.54 L1867.06 1498.54 L1867.06 1490.39 L1851.45 1490.39 L1851.45 1485.88 L1865.83 1463.98 Z" fill="#000000" fill-rule="evenodd" fill-opacity="1" /><path clip-path="url(#clip070)" d="M1894.37 1467.06 Q1890.76 1467.06 1888.93 1470.62 Q1887.12 1474.16 1887.12 1481.29 Q1887.12 1488.4 1888.93 1491.97 Q1890.76 1495.51 1894.37 1495.51 Q1898 1495.51 1899.81 1491.97 Q1901.64 1488.4 1901.64 1481.29 Q1901.64 1474.16 1899.81 1470.62 Q1898 1467.06 1894.37 1467.06 M1894.37 1463.35 Q1900.18 1463.35 1903.24 1467.96 Q1906.31 1472.54 1906.31 1481.29 Q1906.31 1490.02 1903.24 1494.63 Q1900.18 1499.21 1894.37 1499.21 Q1888.56 1499.21 1885.48 1494.63 Q1882.43 1490.02 1882.43 1481.29 Q1882.43 1472.54 1885.48 1467.96 Q1888.56 1463.35 1894.37 1463.35 Z" fill="#000000" fill-rule="evenodd" fill-opacity="1" /><path clip-path="url(#clip070)" d="M2266.72 1463.98 L2285.08 1463.98 L2285.08 1467.92 L2271.01 1467.92 L2271.01 1476.39 Q2272.02 1476.04 2273.04 1475.88 Q2274.06 1475.69 2275.08 1475.69 Q2280.87 1475.69 2284.25 1478.86 Q2287.63 1482.04 2287.63 1487.45 Q2287.63 1493.03 2284.15 1496.13 Q2280.68 1499.21 2274.36 1499.21 Q2272.19 1499.21 2269.92 1498.84 Q2267.67 1498.47 2265.27 1497.73 L2265.27 1493.03 Q2267.35 1494.16 2269.57 1494.72 Q2271.79 1495.28 2274.27 1495.28 Q2278.27 1495.28 2280.61 1493.17 Q2282.95 1491.06 2282.95 1487.45 Q2282.95 1483.84 2280.61 1481.73 Q2278.27 1479.63 2274.27 1479.63 Q2272.39 1479.63 2270.52 1480.04 Q2268.67 1480.46 2266.72 1481.34 L2266.72 1463.98 Z" fill="#000000" fill-rule="evenodd" fill-opacity="1" /><path clip-path="url(#clip070)" d="M2306.84 1467.06 Q2303.23 1467.06 2301.4 1470.62 Q2299.59 1474.16 2299.59 1481.29 Q2299.59 1488.4 2301.4 1491.97 Q2303.23 1495.51 2306.84 1495.51 Q2310.47 1495.51 2312.28 1491.97 Q2314.11 1488.4 2314.11 1481.29 Q2314.11 1474.16 2312.28 1470.62 Q2310.47 1467.06 2306.84 1467.06 M2306.84 1463.35 Q2312.65 1463.35 2315.7 1467.96 Q2318.78 1472.54 2318.78 1481.29 Q2318.78 1490.02 2315.7 1494.63 Q2312.65 1499.21 2306.84 1499.21 Q2301.03 1499.21 2297.95 1494.63 Q2294.89 1490.02 2294.89 1481.29 Q2294.89 1472.54 2297.95 1467.96 Q2301.03 1463.35 2306.84 1463.35 Z" fill="#000000" fill-rule="evenodd" fill-opacity="1" /><path clip-path="url(#clip070)" d="M1198.38 1530.89 L1220.24 1530.89 L1220.24 1534.83 L1203.06 1534.83 L1203.06 1545.06 L1219.52 1545.06 L1219.52 1548.99 L1203.06 1548.99 L1203.06 1561.52 L1220.65 1561.52 L1220.65 1565.45 L1198.38 1565.45 L1198.38 1530.89 Z" fill="#000000" fill-rule="evenodd" fill-opacity="1" /><path clip-path="url(#clip070)" d="M1232.27 1561.56 L1232.27 1575.31 L1227.99 1575.31 L1227.99 1539.53 L1232.27 1539.53 L1232.27 1543.46 Q1233.62 1541.15 1235.65 1540.04 Q1237.71 1538.9 1240.56 1538.9 Q1245.28 1538.9 1248.22 1542.65 Q1251.19 1546.4 1251.19 1552.51 Q1251.19 1558.62 1248.22 1562.37 Q1245.28 1566.12 1240.56 1566.12 Q1237.71 1566.12 1235.65 1565.01 Q1233.62 1563.88 1232.27 1561.56 M1246.76 1552.51 Q1246.76 1547.81 1244.82 1545.15 Q1242.9 1542.47 1239.52 1542.47 Q1236.14 1542.47 1234.19 1545.15 Q1232.27 1547.81 1232.27 1552.51 Q1232.27 1557.21 1234.19 1559.9 Q1236.14 1562.56 1239.52 1562.56 Q1242.9 1562.56 1244.82 1559.9 Q1246.76 1557.21 1246.76 1552.51 Z" fill="#000000" fill-rule="evenodd" fill-opacity="1" /><path clip-path="url(#clip070)" d="M1268.29 1542.51 Q1264.87 1542.51 1262.88 1545.2 Q1260.88 1547.86 1260.88 1552.51 Q1260.88 1557.16 1262.85 1559.85 Q1264.84 1562.51 1268.29 1562.51 Q1271.69 1562.51 1273.69 1559.83 Q1275.68 1557.14 1275.68 1552.51 Q1275.68 1547.91 1273.69 1545.22 Q1271.69 1542.51 1268.29 1542.51 M1268.29 1538.9 Q1273.85 1538.9 1277.02 1542.51 Q1280.19 1546.12 1280.19 1552.51 Q1280.19 1558.88 1277.02 1562.51 Q1273.85 1566.12 1268.29 1566.12 Q1262.71 1566.12 1259.54 1562.51 Q1256.39 1558.88 1256.39 1552.51 Q1256.39 1546.12 1259.54 1542.51 Q1262.71 1538.9 1268.29 1538.9 Z" fill="#000000" fill-rule="evenodd" fill-opacity="1" /><path clip-path="url(#clip070)" d="M1305.91 1540.52 L1305.91 1544.5 Q1304.1 1543.51 1302.27 1543.02 Q1300.47 1542.51 1298.62 1542.51 Q1294.47 1542.51 1292.18 1545.15 Q1289.89 1547.77 1289.89 1552.51 Q1289.89 1557.26 1292.18 1559.9 Q1294.47 1562.51 1298.62 1562.51 Q1300.47 1562.51 1302.27 1562.03 Q1304.1 1561.52 1305.91 1560.52 L1305.91 1564.46 Q1304.12 1565.29 1302.2 1565.71 Q1300.31 1566.12 1298.15 1566.12 Q1292.3 1566.12 1288.85 1562.44 Q1285.4 1558.76 1285.4 1552.51 Q1285.4 1546.17 1288.87 1542.54 Q1292.37 1538.9 1298.43 1538.9 Q1300.4 1538.9 1302.27 1539.32 Q1304.15 1539.71 1305.91 1540.52 Z" fill="#000000" fill-rule="evenodd" fill-opacity="1" /><path clip-path="url(#clip070)" d="M1334.87 1549.8 L1334.87 1565.45 L1330.61 1565.45 L1330.61 1549.94 Q1330.61 1546.26 1329.17 1544.43 Q1327.74 1542.6 1324.87 1542.6 Q1321.42 1542.6 1319.43 1544.8 Q1317.44 1547 1317.44 1550.8 L1317.44 1565.45 L1313.15 1565.45 L1313.15 1529.43 L1317.44 1529.43 L1317.44 1543.55 Q1318.96 1541.22 1321.02 1540.06 Q1323.11 1538.9 1325.81 1538.9 Q1330.28 1538.9 1332.57 1541.68 Q1334.87 1544.43 1334.87 1549.8 Z" fill="#000000" fill-rule="evenodd" fill-opacity="1" /><path clip-path="url(#clip070)" d="M1359.89 1540.29 L1359.89 1544.32 Q1358.08 1543.39 1356.14 1542.93 Q1354.19 1542.47 1352.11 1542.47 Q1348.94 1542.47 1347.34 1543.44 Q1345.77 1544.41 1345.77 1546.35 Q1345.77 1547.84 1346.9 1548.69 Q1348.04 1549.53 1351.46 1550.29 L1352.92 1550.61 Q1357.46 1551.59 1359.36 1553.37 Q1361.28 1555.13 1361.28 1558.3 Q1361.28 1561.91 1358.41 1564.02 Q1355.56 1566.12 1350.56 1566.12 Q1348.48 1566.12 1346.21 1565.71 Q1343.96 1565.31 1341.46 1564.5 L1341.46 1560.1 Q1343.82 1561.33 1346.12 1561.96 Q1348.41 1562.56 1350.65 1562.56 Q1353.66 1562.56 1355.28 1561.54 Q1356.9 1560.5 1356.9 1558.62 Q1356.9 1556.89 1355.72 1555.96 Q1354.56 1555.04 1350.61 1554.18 L1349.12 1553.83 Q1345.17 1553 1343.41 1551.29 Q1341.65 1549.55 1341.65 1546.54 Q1341.65 1542.88 1344.24 1540.89 Q1346.83 1538.9 1351.6 1538.9 Q1353.96 1538.9 1356.05 1539.25 Q1358.13 1539.6 1359.89 1540.29 Z" fill="#000000" fill-rule="evenodd" fill-opacity="1" /><polyline clip-path="url(#clip072)" style="stroke:#000000; stroke-linecap:butt; stroke-linejoin:round; stroke-width:2; stroke-opacity:0.1; fill:none" points="
  206.906,1204.42 2352.76,1204.42 
  "/>
<polyline clip-path="url(#clip072)" style="stroke:#000000; stroke-linecap:butt; stroke-linejoin:round; stroke-width:2; stroke-opacity:0.1; fill:none" points="
  206.906,819.233 2352.76,819.233 
  "/>
<polyline clip-path="url(#clip072)" style="stroke:#000000; stroke-linecap:butt; stroke-linejoin:round; stroke-width:2; stroke-opacity:0.1; fill:none" points="
  206.906,434.048 2352.76,434.048 
  "/>
<polyline clip-path="url(#clip072)" style="stroke:#000000; stroke-linecap:butt; stroke-linejoin:round; stroke-width:2; stroke-opacity:0.1; fill:none" points="
  206.906,48.8634 2352.76,48.8634 
  "/>
<polyline clip-path="url(#clip070)" style="stroke:#000000; stroke-linecap:butt; stroke-linejoin:round; stroke-width:4; stroke-opacity:1; fill:none" points="
  206.906,1436.14 206.906,47.2441 
  "/>
<polyline clip-path="url(#clip070)" style="stroke:#000000; stroke-linecap:butt; stroke-linejoin:round; stroke-width:4; stroke-opacity:1; fill:none" points="
  206.906,1204.42 225.804,1204.42 
  "/>
<polyline clip-path="url(#clip070)" style="stroke:#000000; stroke-linecap:butt; stroke-linejoin:round; stroke-width:4; stroke-opacity:1; fill:none" points="
  206.906,819.233 225.804,819.233 
  "/>
<polyline clip-path="url(#clip070)" style="stroke:#000000; stroke-linecap:butt; stroke-linejoin:round; stroke-width:4; stroke-opacity:1; fill:none" points="
  206.906,434.048 225.804,434.048 
  "/>
<polyline clip-path="url(#clip070)" style="stroke:#000000; stroke-linecap:butt; stroke-linejoin:round; stroke-width:4; stroke-opacity:1; fill:none" points="
  206.906,48.8634 225.804,48.8634 
  "/>
<path clip-path="url(#clip070)" d="M113.245 1190.22 Q109.633 1190.22 107.805 1193.78 Q105.999 1197.32 105.999 1204.45 Q105.999 1211.56 107.805 1215.12 Q109.633 1218.67 113.245 1218.67 Q116.879 1218.67 118.684 1215.12 Q120.513 1211.56 120.513 1204.45 Q120.513 1197.32 118.684 1193.78 Q116.879 1190.22 113.245 1190.22 M113.245 1186.51 Q119.055 1186.51 122.11 1191.12 Q125.189 1195.7 125.189 1204.45 Q125.189 1213.18 122.11 1217.79 Q119.055 1222.37 113.245 1222.37 Q107.434 1222.37 104.356 1217.79 Q101.3 1213.18 101.3 1204.45 Q101.3 1195.7 104.356 1191.12 Q107.434 1186.51 113.245 1186.51 Z" fill="#000000" fill-rule="evenodd" fill-opacity="1" /><path clip-path="url(#clip070)" d="M133.406 1215.82 L138.291 1215.82 L138.291 1221.7 L133.406 1221.7 L133.406 1215.82 Z" fill="#000000" fill-rule="evenodd" fill-opacity="1" /><path clip-path="url(#clip070)" d="M161.323 1191.21 L149.517 1209.66 L161.323 1209.66 L161.323 1191.21 M160.096 1187.14 L165.976 1187.14 L165.976 1209.66 L170.906 1209.66 L170.906 1213.55 L165.976 1213.55 L165.976 1221.7 L161.323 1221.7 L161.323 1213.55 L145.721 1213.55 L145.721 1209.04 L160.096 1187.14 Z" fill="#000000" fill-rule="evenodd" fill-opacity="1" /><path clip-path="url(#clip070)" d="M113.569 805.032 Q109.958 805.032 108.129 808.597 Q106.323 812.138 106.323 819.268 Q106.323 826.374 108.129 829.939 Q109.958 833.481 113.569 833.481 Q117.203 833.481 119.008 829.939 Q120.837 826.374 120.837 819.268 Q120.837 812.138 119.008 808.597 Q117.203 805.032 113.569 805.032 M113.569 801.328 Q119.379 801.328 122.434 805.935 Q125.513 810.518 125.513 819.268 Q125.513 827.995 122.434 832.601 Q119.379 837.185 113.569 837.185 Q107.758 837.185 104.68 832.601 Q101.624 827.995 101.624 819.268 Q101.624 810.518 104.68 805.935 Q107.758 801.328 113.569 801.328 Z" fill="#000000" fill-rule="evenodd" fill-opacity="1" /><path clip-path="url(#clip070)" d="M133.731 830.634 L138.615 830.634 L138.615 836.513 L133.731 836.513 L133.731 830.634 Z" fill="#000000" fill-rule="evenodd" fill-opacity="1" /><path clip-path="url(#clip070)" d="M159.379 817.37 Q156.23 817.37 154.379 819.523 Q152.55 821.675 152.55 825.425 Q152.55 829.152 154.379 831.328 Q156.23 833.481 159.379 833.481 Q162.527 833.481 164.355 831.328 Q166.207 829.152 166.207 825.425 Q166.207 821.675 164.355 819.523 Q162.527 817.37 159.379 817.37 M168.661 802.717 L168.661 806.976 Q166.902 806.143 165.096 805.703 Q163.314 805.263 161.554 805.263 Q156.925 805.263 154.471 808.388 Q152.041 811.513 151.693 817.833 Q153.059 815.819 155.119 814.754 Q157.179 813.666 159.656 813.666 Q164.865 813.666 167.874 816.837 Q170.906 819.986 170.906 825.425 Q170.906 830.749 167.758 833.967 Q164.61 837.185 159.379 837.185 Q153.383 837.185 150.212 832.601 Q147.041 827.995 147.041 819.268 Q147.041 811.074 150.93 806.212 Q154.818 801.328 161.369 801.328 Q163.129 801.328 164.911 801.675 Q166.716 802.023 168.661 802.717 Z" fill="#000000" fill-rule="evenodd" fill-opacity="1" /><path clip-path="url(#clip070)" d="M113.823 419.847 Q110.212 419.847 108.383 423.412 Q106.578 426.953 106.578 434.083 Q106.578 441.189 108.383 444.754 Q110.212 448.296 113.823 448.296 Q117.457 448.296 119.263 444.754 Q121.092 441.189 121.092 434.083 Q121.092 426.953 119.263 423.412 Q117.457 419.847 113.823 419.847 M113.823 416.143 Q119.633 416.143 122.689 420.75 Q125.768 425.333 125.768 434.083 Q125.768 442.81 122.689 447.416 Q119.633 452 113.823 452 Q108.013 452 104.934 447.416 Q101.879 442.81 101.879 434.083 Q101.879 425.333 104.934 420.75 Q108.013 416.143 113.823 416.143 Z" fill="#000000" fill-rule="evenodd" fill-opacity="1" /><path clip-path="url(#clip070)" d="M133.985 445.449 L138.869 445.449 L138.869 451.328 L133.985 451.328 L133.985 445.449 Z" fill="#000000" fill-rule="evenodd" fill-opacity="1" /><path clip-path="url(#clip070)" d="M159.054 434.916 Q155.721 434.916 153.8 436.699 Q151.902 438.481 151.902 441.606 Q151.902 444.731 153.8 446.514 Q155.721 448.296 159.054 448.296 Q162.388 448.296 164.309 446.514 Q166.23 444.708 166.23 441.606 Q166.23 438.481 164.309 436.699 Q162.411 434.916 159.054 434.916 M154.379 432.926 Q151.369 432.185 149.68 430.125 Q148.013 428.065 148.013 425.102 Q148.013 420.958 150.953 418.551 Q153.916 416.143 159.054 416.143 Q164.216 416.143 167.156 418.551 Q170.096 420.958 170.096 425.102 Q170.096 428.065 168.406 430.125 Q166.74 432.185 163.754 432.926 Q167.133 433.713 169.008 436.004 Q170.906 438.296 170.906 441.606 Q170.906 446.629 167.828 449.314 Q164.772 452 159.054 452 Q153.337 452 150.258 449.314 Q147.203 446.629 147.203 441.606 Q147.203 438.296 149.101 436.004 Q150.999 433.713 154.379 432.926 M152.666 425.541 Q152.666 428.227 154.332 429.731 Q156.022 431.236 159.054 431.236 Q162.064 431.236 163.754 429.731 Q165.466 428.227 165.466 425.541 Q165.466 422.856 163.754 421.352 Q162.064 419.847 159.054 419.847 Q156.022 419.847 154.332 421.352 Q152.666 422.856 152.666 425.541 Z" fill="#000000" fill-rule="evenodd" fill-opacity="1" /><path clip-path="url(#clip070)" d="M104.541 62.2083 L112.18 62.2083 L112.18 35.8427 L103.87 37.5093 L103.87 33.2501 L112.133 31.5834 L116.809 31.5834 L116.809 62.2083 L124.448 62.2083 L124.448 66.1434 L104.541 66.1434 L104.541 62.2083 Z" fill="#000000" fill-rule="evenodd" fill-opacity="1" /><path clip-path="url(#clip070)" d="M133.893 60.2639 L138.777 60.2639 L138.777 66.1434 L133.893 66.1434 L133.893 60.2639 Z" fill="#000000" fill-rule="evenodd" fill-opacity="1" /><path clip-path="url(#clip070)" d="M158.962 34.6621 Q155.351 34.6621 153.522 38.2269 Q151.717 41.7686 151.717 48.8982 Q151.717 56.0046 153.522 59.5694 Q155.351 63.1111 158.962 63.1111 Q162.596 63.1111 164.402 59.5694 Q166.23 56.0046 166.23 48.8982 Q166.23 41.7686 164.402 38.2269 Q162.596 34.6621 158.962 34.6621 M158.962 30.9585 Q164.772 30.9585 167.828 35.5649 Q170.906 40.1482 170.906 48.8982 Q170.906 57.625 167.828 62.2314 Q164.772 66.8147 158.962 66.8147 Q153.152 66.8147 150.073 62.2314 Q147.018 57.625 147.018 48.8982 Q147.018 40.1482 150.073 35.5649 Q153.152 30.9585 158.962 30.9585 Z" fill="#000000" fill-rule="evenodd" fill-opacity="1" /><path clip-path="url(#clip070)" d="M20.3722 1401.41 L20.3722 1379.56 L24.3073 1379.56 L24.3073 1396.73 L34.5387 1396.73 L34.5387 1380.28 L38.4739 1380.28 L38.4739 1396.73 L50.997 1396.73 L50.997 1379.14 L54.9322 1379.14 L54.9322 1401.41 L20.3722 1401.41 Z" fill="#000000" fill-rule="evenodd" fill-opacity="1" /><path clip-path="url(#clip070)" d="M29.7703 1355.11 L33.798 1355.11 Q32.8721 1356.92 32.4091 1358.86 Q31.9462 1360.81 31.9462 1362.89 Q31.9462 1366.06 32.9184 1367.66 Q33.8906 1369.23 35.835 1369.23 Q37.3165 1369.23 38.173 1368.1 Q39.0063 1366.97 39.7702 1363.54 L40.0943 1362.08 Q41.0665 1357.55 42.8489 1355.65 Q44.6081 1353.73 47.7794 1353.73 Q51.3905 1353.73 53.497 1356.6 Q55.6035 1359.44 55.6035 1364.44 Q55.6035 1366.53 55.1868 1368.8 Q54.7933 1371.04 53.9831 1373.54 L49.585 1373.54 Q50.8118 1371.18 51.4368 1368.89 Q52.0387 1366.6 52.0387 1364.35 Q52.0387 1361.34 51.0201 1359.72 Q49.9785 1358.1 48.1035 1358.1 Q46.3674 1358.1 45.4415 1359.28 Q44.5155 1360.44 43.6591 1364.4 L43.3118 1365.88 Q42.4785 1369.84 40.7656 1371.6 Q39.0295 1373.36 36.0202 1373.36 Q32.3628 1373.36 30.3721 1370.76 Q28.3814 1368.17 28.3814 1363.4 Q28.3814 1361.04 28.7286 1358.96 Q29.0758 1356.87 29.7703 1355.11 Z" fill="#000000" fill-rule="evenodd" fill-opacity="1" /><path clip-path="url(#clip070)" d="M21.6453 1342.73 L29.0064 1342.73 L29.0064 1333.96 L32.3165 1333.96 L32.3165 1342.73 L46.3905 1342.73 Q49.5618 1342.73 50.4646 1341.87 Q51.3674 1340.99 51.3674 1338.33 L51.3674 1333.96 L54.9322 1333.96 L54.9322 1338.33 Q54.9322 1343.26 53.1035 1345.14 Q51.2516 1347.01 46.3905 1347.01 L32.3165 1347.01 L32.3165 1350.14 L29.0064 1350.14 L29.0064 1347.01 L21.6453 1347.01 L21.6453 1342.73 Z" fill="#000000" fill-rule="evenodd" fill-opacity="1" /><path clip-path="url(#clip070)" d="M29.0064 1328.36 L29.0064 1324.1 L54.9322 1324.1 L54.9322 1328.36 L29.0064 1328.36 M18.9138 1328.36 L18.9138 1324.1 L24.3073 1324.1 L24.3073 1328.36 L18.9138 1328.36 Z" fill="#000000" fill-rule="evenodd" fill-opacity="1" /><path clip-path="url(#clip070)" d="M33.9832 1295 Q31.1128 1293.4 29.7471 1291.18 Q28.3814 1288.96 28.3814 1285.95 Q28.3814 1281.9 31.2286 1279.7 Q34.0526 1277.5 39.2841 1277.5 L54.9322 1277.5 L54.9322 1281.78 L39.423 1281.78 Q35.6961 1281.78 33.8906 1283.1 Q32.0851 1284.42 32.0851 1287.13 Q32.0851 1290.44 34.2841 1292.36 Q36.4832 1294.28 40.2795 1294.28 L54.9322 1294.28 L54.9322 1298.56 L39.423 1298.56 Q35.673 1298.56 33.8906 1299.88 Q32.0851 1301.2 32.0851 1303.96 Q32.0851 1307.22 34.3073 1309.14 Q36.5063 1311.06 40.2795 1311.06 L54.9322 1311.06 L54.9322 1315.35 L29.0064 1315.35 L29.0064 1311.06 L33.0341 1311.06 Q30.6499 1309.61 29.5156 1307.57 Q28.3814 1305.53 28.3814 1302.73 Q28.3814 1299.91 29.8166 1297.94 Q31.2517 1295.95 33.9832 1295 Z" fill="#000000" fill-rule="evenodd" fill-opacity="1" /><path clip-path="url(#clip070)" d="M41.8998 1257.22 Q41.8998 1262.38 43.0804 1264.37 Q44.2609 1266.37 47.1081 1266.37 Q49.3766 1266.37 50.7192 1264.88 Q52.0387 1263.38 52.0387 1260.81 Q52.0387 1257.27 49.5387 1255.14 Q47.0155 1252.99 42.8489 1252.99 L41.8998 1252.99 L41.8998 1257.22 M40.1406 1248.73 L54.9322 1248.73 L54.9322 1252.99 L50.997 1252.99 Q53.3581 1254.44 54.4923 1256.62 Q55.6035 1258.8 55.6035 1261.94 Q55.6035 1265.93 53.3812 1268.29 Q51.1359 1270.62 47.3859 1270.62 Q43.0109 1270.62 40.7887 1267.71 Q38.5665 1264.77 38.5665 1258.96 L38.5665 1252.99 L38.1498 1252.99 Q35.21 1252.99 33.6128 1254.93 Q31.9925 1256.85 31.9925 1260.35 Q31.9925 1262.57 32.5249 1264.68 Q33.0573 1266.78 34.1221 1268.73 L30.1869 1268.73 Q29.2841 1266.39 28.8443 1264.19 Q28.3814 1261.99 28.3814 1259.91 Q28.3814 1254.28 31.298 1251.5 Q34.2147 1248.73 40.1406 1248.73 Z" fill="#000000" fill-rule="evenodd" fill-opacity="1" /><path clip-path="url(#clip070)" d="M21.6453 1235.74 L29.0064 1235.74 L29.0064 1226.97 L32.3165 1226.97 L32.3165 1235.74 L46.3905 1235.74 Q49.5618 1235.74 50.4646 1234.88 Q51.3674 1234 51.3674 1231.34 L51.3674 1226.97 L54.9322 1226.97 L54.9322 1231.34 Q54.9322 1236.27 53.1035 1238.15 Q51.2516 1240.02 46.3905 1240.02 L32.3165 1240.02 L32.3165 1243.15 L29.0064 1243.15 L29.0064 1240.02 L21.6453 1240.02 L21.6453 1235.74 Z" fill="#000000" fill-rule="evenodd" fill-opacity="1" /><path clip-path="url(#clip070)" d="M40.9045 1199.19 L42.9878 1199.19 L42.9878 1218.77 Q47.3859 1218.49 49.7007 1216.13 Q51.9924 1213.75 51.9924 1209.51 Q51.9924 1207.06 51.3905 1204.77 Q50.7887 1202.45 49.585 1200.18 L53.6127 1200.18 Q54.5849 1202.48 55.0942 1204.88 Q55.6035 1207.29 55.6035 1209.77 Q55.6035 1215.97 51.9924 1219.61 Q48.3813 1223.22 42.2239 1223.22 Q35.8582 1223.22 32.1314 1219.79 Q28.3814 1216.34 28.3814 1210.51 Q28.3814 1205.28 31.761 1202.25 Q35.1174 1199.19 40.9045 1199.19 M39.6545 1203.45 Q36.1591 1203.5 34.0758 1205.42 Q31.9925 1207.31 31.9925 1210.46 Q31.9925 1214.03 34.0063 1216.18 Q36.0202 1218.31 39.6776 1218.63 L39.6545 1203.45 Z" fill="#000000" fill-rule="evenodd" fill-opacity="1" /><path clip-path="url(#clip070)" d="M31.9925 1167.08 Q31.9925 1170.51 34.6776 1172.5 Q37.3397 1174.49 41.9924 1174.49 Q46.6452 1174.49 49.3303 1172.52 Q51.9924 1170.53 51.9924 1167.08 Q51.9924 1163.68 49.3072 1161.69 Q46.622 1159.7 41.9924 1159.7 Q37.386 1159.7 34.7008 1161.69 Q31.9925 1163.68 31.9925 1167.08 M28.3814 1167.08 Q28.3814 1161.53 31.9925 1158.36 Q35.6036 1155.19 41.9924 1155.19 Q48.3581 1155.19 51.9924 1158.36 Q55.6035 1161.53 55.6035 1167.08 Q55.6035 1172.66 51.9924 1175.83 Q48.3581 1178.98 41.9924 1178.98 Q35.6036 1178.98 31.9925 1175.83 Q28.3814 1172.66 28.3814 1167.08 Z" fill="#000000" fill-rule="evenodd" fill-opacity="1" /><path clip-path="url(#clip070)" d="M18.9138 1135 L22.4555 1135 L22.4555 1139.07 Q22.4555 1141.37 23.3814 1142.27 Q24.3073 1143.15 26.7147 1143.15 L29.0064 1143.15 L29.0064 1136.13 L32.3165 1136.13 L32.3165 1143.15 L54.9322 1143.15 L54.9322 1147.43 L32.3165 1147.43 L32.3165 1151.5 L29.0064 1151.5 L29.0064 1147.43 L27.2008 1147.43 Q22.8721 1147.43 20.9046 1145.42 Q18.9138 1143.4 18.9138 1139.03 L18.9138 1135 Z" fill="#000000" fill-rule="evenodd" fill-opacity="1" /><path clip-path="url(#clip070)" d="M40.9045 1094.19 L42.9878 1094.19 L42.9878 1113.77 Q47.3859 1113.5 49.7007 1111.13 Q51.9924 1108.75 51.9924 1104.51 Q51.9924 1102.06 51.3905 1099.77 Q50.7887 1097.45 49.585 1095.19 L53.6127 1095.19 Q54.5849 1097.48 55.0942 1099.88 Q55.6035 1102.29 55.6035 1104.77 Q55.6035 1110.97 51.9924 1114.61 Q48.3813 1118.22 42.2239 1118.22 Q35.8582 1118.22 32.1314 1114.79 Q28.3814 1111.34 28.3814 1105.51 Q28.3814 1100.28 31.761 1097.25 Q35.1174 1094.19 40.9045 1094.19 M39.6545 1098.45 Q36.1591 1098.5 34.0758 1100.42 Q31.9925 1102.32 31.9925 1105.46 Q31.9925 1109.03 34.0063 1111.18 Q36.0202 1113.31 39.6776 1113.63 L39.6545 1098.45 Z" fill="#000000" fill-rule="evenodd" fill-opacity="1" /><path clip-path="url(#clip070)" d="M29.0064 1066.48 L41.622 1075.86 L54.9322 1066 L54.9322 1071.02 L44.747 1078.57 L54.9322 1086.11 L54.9322 1091.13 L41.3674 1081.07 L29.0064 1090.28 L29.0064 1085.25 L38.2424 1078.38 L29.0064 1071.51 L29.0064 1066.48 Z" fill="#000000" fill-rule="evenodd" fill-opacity="1" /><path clip-path="url(#clip070)" d="M51.0433 1055.86 L64.7932 1055.86 L64.7932 1060.14 L29.0064 1060.14 L29.0064 1055.86 L32.9415 1055.86 Q30.6267 1054.51 29.5156 1052.48 Q28.3814 1050.42 28.3814 1047.57 Q28.3814 1042.85 32.1314 1039.91 Q35.8813 1036.95 41.9924 1036.95 Q48.1035 1036.95 51.8535 1039.91 Q55.6035 1042.85 55.6035 1047.57 Q55.6035 1050.42 54.4923 1052.48 Q53.3581 1054.51 51.0433 1055.86 M41.9924 1041.37 Q37.2934 1041.37 34.6313 1043.31 Q31.9462 1045.23 31.9462 1048.61 Q31.9462 1051.99 34.6313 1053.94 Q37.2934 1055.86 41.9924 1055.86 Q46.6915 1055.86 49.3766 1053.94 Q52.0387 1051.99 52.0387 1048.61 Q52.0387 1045.23 49.3766 1043.31 Q46.6915 1041.37 41.9924 1041.37 Z" fill="#000000" fill-rule="evenodd" fill-opacity="1" /><path clip-path="url(#clip070)" d="M40.9045 1007.71 L42.9878 1007.71 L42.9878 1027.29 Q47.3859 1027.01 49.7007 1024.65 Q51.9924 1022.27 51.9924 1018.03 Q51.9924 1015.58 51.3905 1013.29 Q50.7887 1010.97 49.585 1008.7 L53.6127 1008.7 Q54.5849 1011 55.0942 1013.4 Q55.6035 1015.81 55.6035 1018.29 Q55.6035 1024.49 51.9924 1028.13 Q48.3813 1031.74 42.2239 1031.74 Q35.8582 1031.74 32.1314 1028.31 Q28.3814 1024.86 28.3814 1019.03 Q28.3814 1013.8 31.761 1010.76 Q35.1174 1007.71 40.9045 1007.71 M39.6545 1011.97 Q36.1591 1012.01 34.0758 1013.94 Q31.9925 1015.83 31.9925 1018.98 Q31.9925 1022.55 34.0063 1024.7 Q36.0202 1026.83 39.6776 1027.15 L39.6545 1011.97 Z" fill="#000000" fill-rule="evenodd" fill-opacity="1" /><path clip-path="url(#clip070)" d="M30.0017 982.061 L33.9832 982.061 Q32.9878 983.867 32.5017 985.695 Q31.9925 987.501 31.9925 989.353 Q31.9925 993.496 34.6313 995.788 Q37.2471 998.079 41.9924 998.079 Q46.7378 998.079 49.3766 995.788 Q51.9924 993.496 51.9924 989.353 Q51.9924 987.501 51.5062 985.695 Q50.997 983.867 50.0016 982.061 L53.9368 982.061 Q54.7701 983.843 55.1868 985.765 Q55.6035 987.663 55.6035 989.816 Q55.6035 995.672 51.9229 999.121 Q48.2424 1002.57 41.9924 1002.57 Q35.6499 1002.57 32.0156 999.098 Q28.3814 995.603 28.3814 989.538 Q28.3814 987.57 28.798 985.695 Q29.1916 983.82 30.0017 982.061 Z" fill="#000000" fill-rule="evenodd" fill-opacity="1" /><path clip-path="url(#clip070)" d="M21.6453 970.441 L29.0064 970.441 L29.0064 961.668 L32.3165 961.668 L32.3165 970.441 L46.3905 970.441 Q49.5618 970.441 50.4646 969.584 Q51.3674 968.705 51.3674 966.043 L51.3674 961.668 L54.9322 961.668 L54.9322 966.043 Q54.9322 970.973 53.1035 972.848 Q51.2516 974.723 46.3905 974.723 L32.3165 974.723 L32.3165 977.848 L29.0064 977.848 L29.0064 974.723 L21.6453 974.723 L21.6453 970.441 Z" fill="#000000" fill-rule="evenodd" fill-opacity="1" /><path clip-path="url(#clip070)" d="M40.9045 933.89 L42.9878 933.89 L42.9878 953.473 Q47.3859 953.195 49.7007 950.834 Q51.9924 948.45 51.9924 944.214 Q51.9924 941.76 51.3905 939.469 Q50.7887 937.154 49.585 934.885 L53.6127 934.885 Q54.5849 937.177 55.0942 939.584 Q55.6035 941.992 55.6035 944.469 Q55.6035 950.672 51.9924 954.307 Q48.3813 957.918 42.2239 957.918 Q35.8582 957.918 32.1314 954.492 Q28.3814 951.043 28.3814 945.209 Q28.3814 939.978 31.761 936.946 Q35.1174 933.89 40.9045 933.89 M39.6545 938.149 Q36.1591 938.196 34.0758 940.117 Q31.9925 942.015 31.9925 945.163 Q31.9925 948.728 34.0063 950.881 Q36.0202 953.01 39.6776 953.334 L39.6545 938.149 Z" fill="#000000" fill-rule="evenodd" fill-opacity="1" /><path clip-path="url(#clip070)" d="M32.9415 909.839 L18.9138 909.839 L18.9138 905.58 L54.9322 905.58 L54.9322 909.839 L51.0433 909.839 Q53.3581 911.182 54.4923 913.242 Q55.6035 915.279 55.6035 918.149 Q55.6035 922.848 51.8535 925.811 Q48.1035 928.751 41.9924 928.751 Q35.8813 928.751 32.1314 925.811 Q28.3814 922.848 28.3814 918.149 Q28.3814 915.279 29.5156 913.242 Q30.6267 911.182 32.9415 909.839 M41.9924 924.353 Q46.6915 924.353 49.3766 922.432 Q52.0387 920.487 52.0387 917.108 Q52.0387 913.728 49.3766 911.784 Q46.6915 909.839 41.9924 909.839 Q37.2934 909.839 34.6313 911.784 Q31.9462 913.728 31.9462 917.108 Q31.9462 920.487 34.6313 922.432 Q37.2934 924.353 41.9924 924.353 Z" fill="#000000" fill-rule="evenodd" fill-opacity="1" /><path clip-path="url(#clip070)" d="M30.0017 863.08 L33.9832 863.08 Q32.9878 864.886 32.5017 866.714 Q31.9925 868.52 31.9925 870.372 Q31.9925 874.515 34.6313 876.807 Q37.2471 879.099 41.9924 879.099 Q46.7378 879.099 49.3766 876.807 Q51.9924 874.515 51.9924 870.372 Q51.9924 868.52 51.5062 866.714 Q50.997 864.886 50.0016 863.08 L53.9368 863.08 Q54.7701 864.863 55.1868 866.784 Q55.6035 868.682 55.6035 870.835 Q55.6035 876.691 51.9229 880.14 Q48.2424 883.589 41.9924 883.589 Q35.6499 883.589 32.0156 880.117 Q28.3814 876.622 28.3814 870.557 Q28.3814 868.589 28.798 866.714 Q29.1916 864.839 30.0017 863.08 Z" fill="#000000" fill-rule="evenodd" fill-opacity="1" /><path clip-path="url(#clip070)" d="M31.9925 845.627 Q31.9925 849.053 34.6776 851.043 Q37.3397 853.034 41.9924 853.034 Q46.6452 853.034 49.3303 851.066 Q51.9924 849.076 51.9924 845.627 Q51.9924 842.224 49.3072 840.233 Q46.622 838.242 41.9924 838.242 Q37.386 838.242 34.7008 840.233 Q31.9925 842.224 31.9925 845.627 M28.3814 845.627 Q28.3814 840.071 31.9925 836.9 Q35.6036 833.729 41.9924 833.729 Q48.3581 833.729 51.9924 836.9 Q55.6035 840.071 55.6035 845.627 Q55.6035 851.205 51.9924 854.377 Q48.3581 857.525 41.9924 857.525 Q35.6036 857.525 31.9925 854.377 Q28.3814 851.205 28.3814 845.627 Z" fill="#000000" fill-rule="evenodd" fill-opacity="1" /><path clip-path="url(#clip070)" d="M39.2841 805.118 L54.9322 805.118 L54.9322 809.377 L39.423 809.377 Q35.7424 809.377 33.9138 810.812 Q32.0851 812.247 32.0851 815.118 Q32.0851 818.567 34.2841 820.557 Q36.4832 822.548 40.2795 822.548 L54.9322 822.548 L54.9322 826.83 L29.0064 826.83 L29.0064 822.548 L33.0341 822.548 Q30.6962 821.02 29.5388 818.96 Q28.3814 816.877 28.3814 814.168 Q28.3814 809.701 31.1591 807.409 Q33.9138 805.118 39.2841 805.118 Z" fill="#000000" fill-rule="evenodd" fill-opacity="1" /><path clip-path="url(#clip070)" d="M32.9415 779.562 L18.9138 779.562 L18.9138 775.303 L54.9322 775.303 L54.9322 779.562 L51.0433 779.562 Q53.3581 780.905 54.4923 782.965 Q55.6035 785.002 55.6035 787.872 Q55.6035 792.571 51.8535 795.534 Q48.1035 798.474 41.9924 798.474 Q35.8813 798.474 32.1314 795.534 Q28.3814 792.571 28.3814 787.872 Q28.3814 785.002 29.5156 782.965 Q30.6267 780.905 32.9415 779.562 M41.9924 794.076 Q46.6915 794.076 49.3766 792.155 Q52.0387 790.21 52.0387 786.831 Q52.0387 783.451 49.3766 781.507 Q46.6915 779.562 41.9924 779.562 Q37.2934 779.562 34.6313 781.507 Q31.9462 783.451 31.9462 786.831 Q31.9462 790.21 34.6313 792.155 Q37.2934 794.076 41.9924 794.076 Z" fill="#000000" fill-rule="evenodd" fill-opacity="1" /><path clip-path="url(#clip070)" d="M29.0064 766.53 L29.0064 762.271 L54.9322 762.271 L54.9322 766.53 L29.0064 766.53 M18.9138 766.53 L18.9138 762.271 L24.3073 762.271 L24.3073 766.53 L18.9138 766.53 Z" fill="#000000" fill-rule="evenodd" fill-opacity="1" /><path clip-path="url(#clip070)" d="M21.6453 749.146 L29.0064 749.146 L29.0064 740.373 L32.3165 740.373 L32.3165 749.146 L46.3905 749.146 Q49.5618 749.146 50.4646 748.289 Q51.3674 747.41 51.3674 744.748 L51.3674 740.373 L54.9322 740.373 L54.9322 744.748 Q54.9322 749.678 53.1035 751.553 Q51.2516 753.428 46.3905 753.428 L32.3165 753.428 L32.3165 756.553 L29.0064 756.553 L29.0064 753.428 L21.6453 753.428 L21.6453 749.146 Z" fill="#000000" fill-rule="evenodd" fill-opacity="1" /><path clip-path="url(#clip070)" d="M29.0064 734.771 L29.0064 730.511 L54.9322 730.511 L54.9322 734.771 L29.0064 734.771 M18.9138 734.771 L18.9138 730.511 L24.3073 730.511 L24.3073 734.771 L18.9138 734.771 Z" fill="#000000" fill-rule="evenodd" fill-opacity="1" /><path clip-path="url(#clip070)" d="M31.9925 711.553 Q31.9925 714.979 34.6776 716.97 Q37.3397 718.961 41.9924 718.961 Q46.6452 718.961 49.3303 716.993 Q51.9924 715.002 51.9924 711.553 Q51.9924 708.15 49.3072 706.16 Q46.622 704.169 41.9924 704.169 Q37.386 704.169 34.7008 706.16 Q31.9925 708.15 31.9925 711.553 M28.3814 711.553 Q28.3814 705.998 31.9925 702.826 Q35.6036 699.655 41.9924 699.655 Q48.3581 699.655 51.9924 702.826 Q55.6035 705.998 55.6035 711.553 Q55.6035 717.132 51.9924 720.303 Q48.3581 723.451 41.9924 723.451 Q35.6036 723.451 31.9925 720.303 Q28.3814 717.132 28.3814 711.553 Z" fill="#000000" fill-rule="evenodd" fill-opacity="1" /><path clip-path="url(#clip070)" d="M39.2841 671.044 L54.9322 671.044 L54.9322 675.303 L39.423 675.303 Q35.7424 675.303 33.9138 676.739 Q32.0851 678.174 32.0851 681.044 Q32.0851 684.493 34.2841 686.484 Q36.4832 688.475 40.2795 688.475 L54.9322 688.475 L54.9322 692.757 L29.0064 692.757 L29.0064 688.475 L33.0341 688.475 Q30.6962 686.947 29.5388 684.887 Q28.3814 682.803 28.3814 680.095 Q28.3814 675.628 31.1591 673.336 Q33.9138 671.044 39.2841 671.044 Z" fill="#000000" fill-rule="evenodd" fill-opacity="1" /><path clip-path="url(#clip070)" d="M41.8998 650.767 Q41.8998 655.929 43.0804 657.919 Q44.2609 659.91 47.1081 659.91 Q49.3766 659.91 50.7192 658.429 Q52.0387 656.924 52.0387 654.354 Q52.0387 650.813 49.5387 648.683 Q47.0155 646.53 42.8489 646.53 L41.8998 646.53 L41.8998 650.767 M40.1406 642.271 L54.9322 642.271 L54.9322 646.53 L50.997 646.53 Q53.3581 647.989 54.4923 650.165 Q55.6035 652.341 55.6035 655.489 Q55.6035 659.47 53.3812 661.831 Q51.1359 664.169 47.3859 664.169 Q43.0109 664.169 40.7887 661.253 Q38.5665 658.313 38.5665 652.503 L38.5665 646.53 L38.1498 646.53 Q35.21 646.53 33.6128 648.475 Q31.9925 650.396 31.9925 653.892 Q31.9925 656.114 32.5249 658.22 Q33.0573 660.327 34.1221 662.271 L30.1869 662.271 Q29.2841 659.933 28.8443 657.734 Q28.3814 655.535 28.3814 653.452 Q28.3814 647.827 31.298 645.049 Q34.2147 642.271 40.1406 642.271 Z" fill="#000000" fill-rule="evenodd" fill-opacity="1" /><path clip-path="url(#clip070)" d="M18.9138 633.498 L18.9138 629.239 L54.9322 629.239 L54.9322 633.498 L18.9138 633.498 Z" fill="#000000" fill-rule="evenodd" fill-opacity="1" /><path clip-path="url(#clip070)" d="M18.9138 605.258 L18.9138 600.998 L54.9322 600.998 L54.9322 605.258 L18.9138 605.258 Z" fill="#000000" fill-rule="evenodd" fill-opacity="1" /><path clip-path="url(#clip070)" d="M31.9925 582.04 Q31.9925 585.466 34.6776 587.457 Q37.3397 589.447 41.9924 589.447 Q46.6452 589.447 49.3303 587.48 Q51.9924 585.489 51.9924 582.04 Q51.9924 578.637 49.3072 576.647 Q46.622 574.656 41.9924 574.656 Q37.386 574.656 34.7008 576.647 Q31.9925 578.637 31.9925 582.04 M28.3814 582.04 Q28.3814 576.485 31.9925 573.313 Q35.6036 570.142 41.9924 570.142 Q48.3581 570.142 51.9924 573.313 Q55.6035 576.485 55.6035 582.04 Q55.6035 587.619 51.9924 590.79 Q48.3581 593.938 41.9924 593.938 Q35.6036 593.938 31.9925 590.79 Q28.3814 587.619 28.3814 582.04 Z" fill="#000000" fill-rule="evenodd" fill-opacity="1" /><path clip-path="url(#clip070)" d="M41.6683 546.022 Q37.0387 546.022 34.4925 547.943 Q31.9462 549.841 31.9462 553.29 Q31.9462 556.716 34.4925 558.637 Q37.0387 560.536 41.6683 560.536 Q46.2748 560.536 48.8211 558.637 Q51.3674 556.716 51.3674 553.29 Q51.3674 549.841 48.8211 547.943 Q46.2748 546.022 41.6683 546.022 M51.7146 541.762 Q58.3349 541.762 61.5525 544.702 Q64.7932 547.642 64.7932 553.707 Q64.7932 555.952 64.446 557.943 Q64.1219 559.934 63.4275 561.809 L59.284 561.809 Q60.3025 559.934 60.7886 558.105 Q61.2747 556.276 61.2747 554.378 Q61.2747 550.188 59.0757 548.105 Q56.8997 546.022 52.4785 546.022 L50.372 546.022 Q52.6637 547.341 53.7979 549.401 Q54.9322 551.462 54.9322 554.332 Q54.9322 559.1 51.2979 562.017 Q47.6637 564.934 41.6683 564.934 Q35.6499 564.934 32.0156 562.017 Q28.3814 559.1 28.3814 554.332 Q28.3814 551.462 29.5156 549.401 Q30.6499 547.341 32.9415 546.022 L29.0064 546.022 L29.0064 541.762 L51.7146 541.762 Z" fill="#000000" fill-rule="evenodd" fill-opacity="1" /><path clip-path="url(#clip070)" d="M51.0433 513.8 L64.7932 513.8 L64.7932 518.082 L29.0064 518.082 L29.0064 513.8 L32.9415 513.8 Q30.6267 512.457 29.5156 510.42 Q28.3814 508.36 28.3814 505.513 Q28.3814 500.79 32.1314 497.851 Q35.8813 494.888 41.9924 494.888 Q48.1035 494.888 51.8535 497.851 Q55.6035 500.79 55.6035 505.513 Q55.6035 508.36 54.4923 510.42 Q53.3581 512.457 51.0433 513.8 M41.9924 499.309 Q37.2934 499.309 34.6313 501.253 Q31.9462 503.175 31.9462 506.554 Q31.9462 509.934 34.6313 511.878 Q37.2934 513.8 41.9924 513.8 Q46.6915 513.8 49.3766 511.878 Q52.0387 509.934 52.0387 506.554 Q52.0387 503.175 49.3766 501.253 Q46.6915 499.309 41.9924 499.309 Z" fill="#000000" fill-rule="evenodd" fill-opacity="1" /><path clip-path="url(#clip070)" d="M32.9878 472.805 Q32.5712 473.522 32.386 474.379 Q32.1776 475.212 32.1776 476.23 Q32.1776 479.842 34.5387 481.786 Q36.8767 483.707 41.2748 483.707 L54.9322 483.707 L54.9322 487.99 L29.0064 487.99 L29.0064 483.707 L33.0341 483.707 Q30.673 482.365 29.5388 480.212 Q28.3814 478.059 28.3814 474.98 Q28.3814 474.541 28.4508 474.008 Q28.4971 473.476 28.6129 472.828 L32.9878 472.805 Z" fill="#000000" fill-rule="evenodd" fill-opacity="1" /><path clip-path="url(#clip070)" d="M31.9925 459.332 Q31.9925 462.758 34.6776 464.749 Q37.3397 466.74 41.9924 466.74 Q46.6452 466.74 49.3303 464.772 Q51.9924 462.781 51.9924 459.332 Q51.9924 455.93 49.3072 453.939 Q46.622 451.948 41.9924 451.948 Q37.386 451.948 34.7008 453.939 Q31.9925 455.93 31.9925 459.332 M28.3814 459.332 Q28.3814 453.777 31.9925 450.606 Q35.6036 447.434 41.9924 447.434 Q48.3581 447.434 51.9924 450.606 Q55.6035 453.777 55.6035 459.332 Q55.6035 464.911 51.9924 468.082 Q48.3581 471.23 41.9924 471.23 Q35.6036 471.23 31.9925 468.082 Q28.3814 464.911 28.3814 459.332 Z" fill="#000000" fill-rule="evenodd" fill-opacity="1" /><path clip-path="url(#clip070)" d="M41.9924 421.763 Q37.2934 421.763 34.6313 423.708 Q31.9462 425.629 31.9462 429.008 Q31.9462 432.388 34.6313 434.333 Q37.2934 436.254 41.9924 436.254 Q46.6915 436.254 49.3766 434.333 Q52.0387 432.388 52.0387 429.008 Q52.0387 425.629 49.3766 423.708 Q46.6915 421.763 41.9924 421.763 M32.9415 436.254 Q30.6267 434.911 29.5156 432.874 Q28.3814 430.814 28.3814 427.967 Q28.3814 423.245 32.1314 420.305 Q35.8813 417.342 41.9924 417.342 Q48.1035 417.342 51.8535 420.305 Q55.6035 423.245 55.6035 427.967 Q55.6035 430.814 54.4923 432.874 Q53.3581 434.911 51.0433 436.254 L54.9322 436.254 L54.9322 440.536 L18.9138 440.536 L18.9138 436.254 L32.9415 436.254 Z" fill="#000000" fill-rule="evenodd" fill-opacity="1" /><path clip-path="url(#clip070)" d="M41.8998 398.499 Q41.8998 403.661 43.0804 405.652 Q44.2609 407.643 47.1081 407.643 Q49.3766 407.643 50.7192 406.161 Q52.0387 404.657 52.0387 402.087 Q52.0387 398.546 49.5387 396.416 Q47.0155 394.263 42.8489 394.263 L41.8998 394.263 L41.8998 398.499 M40.1406 390.004 L54.9322 390.004 L54.9322 394.263 L50.997 394.263 Q53.3581 395.722 54.4923 397.898 Q55.6035 400.073 55.6035 403.222 Q55.6035 407.203 53.3812 409.564 Q51.1359 411.902 47.3859 411.902 Q43.0109 411.902 40.7887 408.985 Q38.5665 406.046 38.5665 400.235 L38.5665 394.263 L38.1498 394.263 Q35.21 394.263 33.6128 396.208 Q31.9925 398.129 31.9925 401.624 Q31.9925 403.847 32.5249 405.953 Q33.0573 408.059 34.1221 410.004 L30.1869 410.004 Q29.2841 407.666 28.8443 405.467 Q28.3814 403.268 28.3814 401.185 Q28.3814 395.56 31.298 392.782 Q34.2147 390.004 40.1406 390.004 Z" fill="#000000" fill-rule="evenodd" fill-opacity="1" /><path clip-path="url(#clip070)" d="M41.9924 362.62 Q37.2934 362.62 34.6313 364.564 Q31.9462 366.486 31.9462 369.865 Q31.9462 373.245 34.6313 375.189 Q37.2934 377.111 41.9924 377.111 Q46.6915 377.111 49.3766 375.189 Q52.0387 373.245 52.0387 369.865 Q52.0387 366.486 49.3766 364.564 Q46.6915 362.62 41.9924 362.62 M32.9415 377.111 Q30.6267 375.768 29.5156 373.731 Q28.3814 371.671 28.3814 368.824 Q28.3814 364.101 32.1314 361.162 Q35.8813 358.199 41.9924 358.199 Q48.1035 358.199 51.8535 361.162 Q55.6035 364.101 55.6035 368.824 Q55.6035 371.671 54.4923 373.731 Q53.3581 375.768 51.0433 377.111 L54.9322 377.111 L54.9322 381.393 L18.9138 381.393 L18.9138 377.111 L32.9415 377.111 Z" fill="#000000" fill-rule="evenodd" fill-opacity="1" /><path clip-path="url(#clip070)" d="M29.0064 351.139 L29.0064 346.879 L54.9322 346.879 L54.9322 351.139 L29.0064 351.139 M18.9138 351.139 L18.9138 346.879 L24.3073 346.879 L24.3073 351.139 L18.9138 351.139 Z" fill="#000000" fill-rule="evenodd" fill-opacity="1" /><path clip-path="url(#clip070)" d="M18.9138 337.967 L18.9138 333.708 L54.9322 333.708 L54.9322 337.967 L18.9138 337.967 Z" fill="#000000" fill-rule="evenodd" fill-opacity="1" /><path clip-path="url(#clip070)" d="M29.0064 324.796 L29.0064 320.537 L54.9322 320.537 L54.9322 324.796 L29.0064 324.796 M18.9138 324.796 L18.9138 320.537 L24.3073 320.537 L24.3073 324.796 L18.9138 324.796 Z" fill="#000000" fill-rule="evenodd" fill-opacity="1" /><path clip-path="url(#clip070)" d="M21.6453 307.412 L29.0064 307.412 L29.0064 298.639 L32.3165 298.639 L32.3165 307.412 L46.3905 307.412 Q49.5618 307.412 50.4646 306.555 Q51.3674 305.676 51.3674 303.014 L51.3674 298.639 L54.9322 298.639 L54.9322 303.014 Q54.9322 307.944 53.1035 309.819 Q51.2516 311.694 46.3905 311.694 L32.3165 311.694 L32.3165 314.819 L29.0064 314.819 L29.0064 311.694 L21.6453 311.694 L21.6453 307.412 Z" fill="#000000" fill-rule="evenodd" fill-opacity="1" /><path clip-path="url(#clip070)" d="M57.3396 282.25 Q61.9692 284.056 63.3812 285.768 Q64.7932 287.481 64.7932 290.352 L64.7932 293.755 L61.2284 293.755 L61.2284 291.255 Q61.2284 289.495 60.3951 288.523 Q59.5618 287.551 56.4599 286.37 L54.5155 285.606 L29.0064 296.093 L29.0064 291.579 L49.284 283.477 L29.0064 275.375 L29.0064 270.861 L57.3396 282.25 Z" fill="#000000" fill-rule="evenodd" fill-opacity="1" /><path clip-path="url(#clip070)" d="M32.9415 232.852 L18.9138 232.852 L18.9138 228.593 L54.9322 228.593 L54.9322 232.852 L51.0433 232.852 Q53.3581 234.195 54.4923 236.255 Q55.6035 238.292 55.6035 241.162 Q55.6035 245.861 51.8535 248.824 Q48.1035 251.764 41.9924 251.764 Q35.8813 251.764 32.1314 248.824 Q28.3814 245.861 28.3814 241.162 Q28.3814 238.292 29.5156 236.255 Q30.6267 234.195 32.9415 232.852 M41.9924 247.366 Q46.6915 247.366 49.3766 245.445 Q52.0387 243.5 52.0387 240.121 Q52.0387 236.741 49.3766 234.797 Q46.6915 232.852 41.9924 232.852 Q37.2934 232.852 34.6313 234.797 Q31.9462 236.741 31.9462 240.121 Q31.9462 243.5 34.6313 245.445 Q37.2934 247.366 41.9924 247.366 Z" fill="#000000" fill-rule="evenodd" fill-opacity="1" /><path clip-path="url(#clip070)" d="M40.9045 197.644 L42.9878 197.644 L42.9878 217.227 Q47.3859 216.949 49.7007 214.588 Q51.9924 212.204 51.9924 207.968 Q51.9924 205.514 51.3905 203.223 Q50.7887 200.908 49.585 198.639 L53.6127 198.639 Q54.5849 200.931 55.0942 203.338 Q55.6035 205.746 55.6035 208.223 Q55.6035 214.426 51.9924 218.061 Q48.3813 221.672 42.2239 221.672 Q35.8582 221.672 32.1314 218.246 Q28.3814 214.797 28.3814 208.963 Q28.3814 203.732 31.761 200.699 Q35.1174 197.644 40.9045 197.644 M39.6545 201.903 Q36.1591 201.949 34.0758 203.871 Q31.9925 205.769 31.9925 208.917 Q31.9925 212.482 34.0063 214.635 Q36.0202 216.764 39.6776 217.088 L39.6545 201.903 Z" fill="#000000" fill-rule="evenodd" fill-opacity="1" /><path clip-path="url(#clip070)" d="M39.2841 169.102 L54.9322 169.102 L54.9322 173.362 L39.423 173.362 Q35.7424 173.362 33.9138 174.797 Q32.0851 176.232 32.0851 179.102 Q32.0851 182.551 34.2841 184.542 Q36.4832 186.533 40.2795 186.533 L54.9322 186.533 L54.9322 190.815 L29.0064 190.815 L29.0064 186.533 L33.0341 186.533 Q30.6962 185.005 29.5388 182.945 Q28.3814 180.862 28.3814 178.153 Q28.3814 173.686 31.1591 171.394 Q33.9138 169.102 39.2841 169.102 Z" fill="#000000" fill-rule="evenodd" fill-opacity="1" /><path clip-path="url(#clip070)" d="M29.7703 144.079 L33.798 144.079 Q32.8721 145.885 32.4091 147.829 Q31.9462 149.774 31.9462 151.857 Q31.9462 155.028 32.9184 156.626 Q33.8906 158.2 35.835 158.2 Q37.3165 158.2 38.173 157.065 Q39.0063 155.931 39.7702 152.505 L40.0943 151.047 Q41.0665 146.51 42.8489 144.612 Q44.6081 142.691 47.7794 142.691 Q51.3905 142.691 53.497 145.561 Q55.6035 148.408 55.6035 153.408 Q55.6035 155.491 55.1868 157.76 Q54.7933 160.005 53.9831 162.505 L49.585 162.505 Q50.8118 160.144 51.4368 157.853 Q52.0387 155.561 52.0387 153.315 Q52.0387 150.306 51.0201 148.686 Q49.9785 147.066 48.1035 147.066 Q46.3674 147.066 45.4415 148.246 Q44.5155 149.403 43.6591 153.362 L43.3118 154.843 Q42.4785 158.802 40.7656 160.561 Q39.0295 162.32 36.0202 162.32 Q32.3628 162.32 30.3721 159.727 Q28.3814 157.135 28.3814 152.366 Q28.3814 150.005 28.7286 147.922 Q29.0758 145.839 29.7703 144.079 Z" fill="#000000" fill-rule="evenodd" fill-opacity="1" /><path clip-path="url(#clip070)" d="M29.0064 135.908 L29.0064 131.649 L54.9322 131.649 L54.9322 135.908 L29.0064 135.908 M18.9138 135.908 L18.9138 131.649 L24.3073 131.649 L24.3073 135.908 L18.9138 135.908 Z" fill="#000000" fill-rule="evenodd" fill-opacity="1" /><path clip-path="url(#clip070)" d="M21.6453 118.524 L29.0064 118.524 L29.0064 109.751 L32.3165 109.751 L32.3165 118.524 L46.3905 118.524 Q49.5618 118.524 50.4646 117.668 Q51.3674 116.788 51.3674 114.126 L51.3674 109.751 L54.9322 109.751 L54.9322 114.126 Q54.9322 119.056 53.1035 120.931 Q51.2516 122.806 46.3905 122.806 L32.3165 122.806 L32.3165 125.931 L29.0064 125.931 L29.0064 122.806 L21.6453 122.806 L21.6453 118.524 Z" fill="#000000" fill-rule="evenodd" fill-opacity="1" /><path clip-path="url(#clip070)" d="M57.3396 93.3621 Q61.9692 95.1677 63.3812 96.8806 Q64.7932 98.5936 64.7932 101.464 L64.7932 104.867 L61.2284 104.867 L61.2284 102.367 Q61.2284 100.607 60.3951 99.6352 Q59.5618 98.663 56.4599 97.4825 L54.5155 96.7186 L29.0064 107.205 L29.0064 102.691 L49.284 94.589 L29.0064 86.4871 L29.0064 81.9733 L57.3396 93.3621 Z" fill="#000000" fill-rule="evenodd" fill-opacity="1" /><polyline clip-path="url(#clip072)" style="stroke:#009af9; stroke-linecap:butt; stroke-linejoin:round; stroke-width:4; stroke-opacity:1; fill:none" points="
  267.638,1002.7 308.952,1011.39 350.266,938.948 391.58,1396.83 432.894,724.159 474.208,800.01 515.522,906.8 556.836,526.701 598.15,1081.03 639.464,703.108 
  680.778,817.247 722.092,800.363 763.406,736.811 804.72,366.908 846.034,644.774 887.348,706.039 928.662,924.17 969.976,481.17 1011.29,513.731 1052.6,467.118 
  1093.92,457.661 1135.23,613.598 1176.55,583.595 1217.86,710.83 1259.17,410.164 1300.49,278.093 1341.8,228.357 1383.12,474.235 1424.43,370.453 1465.74,86.5525 
  1507.06,394.095 1548.37,713.534 1589.69,149.544 1631,550.453 1672.31,590.518 1713.63,435.745 1754.94,358.272 1796.26,680.619 1837.57,401.772 1878.88,441.054 
  1920.2,361.243 1961.51,564.699 2002.83,608.258 2044.14,518.205 2085.45,769.328 2126.77,666.322 2168.08,454.728 2209.4,522.527 2250.71,394.596 2292.02,564.307 
  
  "/>
</svg>
