<?xml version="1.0" encoding="utf-8"?>
<svg xmlns="http://www.w3.org/2000/svg" xmlns:xlink="http://www.w3.org/1999/xlink" width="600" height="400" viewBox="0 0 2400 1600">
<defs>
  <clipPath id="clip450">
    <rect x="0" y="0" width="2400" height="1600"/>
  </clipPath>
</defs>
<path clip-path="url(#clip450)" d="
M0 1600 L2400 1600 L2400 0 L0 0  Z
  " fill="#ffffff" fill-rule="evenodd" fill-opacity="1"/>
<defs>
  <clipPath id="clip451">
    <rect x="480" y="0" width="1681" height="1600"/>
  </clipPath>
</defs>
<path clip-path="url(#clip450)" d="
M247.459 1423.18 L2352.76 1423.18 L2352.76 47.2441 L247.459 47.2441  Z
  " fill="#ffffff" fill-rule="evenodd" fill-opacity="1"/>
<defs>
  <clipPath id="clip452">
    <rect x="247" y="47" width="2106" height="1377"/>
  </clipPath>
</defs>
<polyline clip-path="url(#clip452)" style="stroke:#000000; stroke-linecap:butt; stroke-linejoin:round; stroke-width:2; stroke-opacity:0.1; fill:none" points="
  286.981,1423.18 286.981,47.2441 
  "/>
<polyline clip-path="url(#clip452)" style="stroke:#000000; stroke-linecap:butt; stroke-linejoin:round; stroke-width:2; stroke-opacity:0.1; fill:none" points="
  788.529,1423.18 788.529,47.2441 
  "/>
<polyline clip-path="url(#clip452)" style="stroke:#000000; stroke-linecap:butt; stroke-linejoin:round; stroke-width:2; stroke-opacity:0.1; fill:none" points="
  1290.08,1423.18 1290.08,47.2441 
  "/>
<polyline clip-path="url(#clip452)" style="stroke:#000000; stroke-linecap:butt; stroke-linejoin:round; stroke-width:2; stroke-opacity:0.1; fill:none" points="
  1791.62,1423.18 1791.62,47.2441 
  "/>
<polyline clip-path="url(#clip452)" style="stroke:#000000; stroke-linecap:butt; stroke-linejoin:round; stroke-width:2; stroke-opacity:0.1; fill:none" points="
  2293.17,1423.18 2293.17,47.2441 
  "/>
<polyline clip-path="url(#clip450)" style="stroke:#000000; stroke-linecap:butt; stroke-linejoin:round; stroke-width:4; stroke-opacity:1; fill:none" points="
  247.459,1423.18 2352.76,1423.18 
  "/>
<polyline clip-path="url(#clip450)" style="stroke:#000000; stroke-linecap:butt; stroke-linejoin:round; stroke-width:4; stroke-opacity:1; fill:none" points="
  286.981,1423.18 286.981,1404.28 
  "/>
<polyline clip-path="url(#clip450)" style="stroke:#000000; stroke-linecap:butt; stroke-linejoin:round; stroke-width:4; stroke-opacity:1; fill:none" points="
  788.529,1423.18 788.529,1404.28 
  "/>
<polyline clip-path="url(#clip450)" style="stroke:#000000; stroke-linecap:butt; stroke-linejoin:round; stroke-width:4; stroke-opacity:1; fill:none" points="
  1290.08,1423.18 1290.08,1404.28 
  "/>
<polyline clip-path="url(#clip450)" style="stroke:#000000; stroke-linecap:butt; stroke-linejoin:round; stroke-width:4; stroke-opacity:1; fill:none" points="
  1791.62,1423.18 1791.62,1404.28 
  "/>
<polyline clip-path="url(#clip450)" style="stroke:#000000; stroke-linecap:butt; stroke-linejoin:round; stroke-width:4; stroke-opacity:1; fill:none" points="
  2293.17,1423.18 2293.17,1404.28 
  "/>
<path clip-path="url(#clip450)" d="M286.981 1454.1 Q283.37 1454.1 281.541 1457.66 Q279.735 1461.2 279.735 1468.33 Q279.735 1475.44 281.541 1479.01 Q283.37 1482.55 286.981 1482.55 Q290.615 1482.55 292.42 1479.01 Q294.249 1475.44 294.249 1468.33 Q294.249 1461.2 292.42 1457.66 Q290.615 1454.1 286.981 1454.1 M286.981 1450.39 Q292.791 1450.39 295.846 1455 Q298.925 1459.58 298.925 1468.33 Q298.925 1477.06 295.846 1481.67 Q292.791 1486.25 286.981 1486.25 Q281.171 1486.25 278.092 1481.67 Q275.036 1477.06 275.036 1468.33 Q275.036 1459.58 278.092 1455 Q281.171 1450.39 286.981 1450.39 Z" fill="#000000" fill-rule="evenodd" fill-opacity="1" /><path clip-path="url(#clip450)" d="M767.799 1481.64 L784.119 1481.64 L784.119 1485.58 L762.174 1485.58 L762.174 1481.64 Q764.837 1478.89 769.42 1474.26 Q774.026 1469.61 775.207 1468.27 Q777.452 1465.74 778.332 1464.01 Q779.235 1462.25 779.235 1460.56 Q779.235 1457.8 777.29 1456.07 Q775.369 1454.33 772.267 1454.33 Q770.068 1454.33 767.614 1455.09 Q765.184 1455.86 762.406 1457.41 L762.406 1452.69 Q765.23 1451.55 767.684 1450.97 Q770.137 1450.39 772.174 1450.39 Q777.545 1450.39 780.739 1453.08 Q783.934 1455.77 783.934 1460.26 Q783.934 1462.39 783.123 1464.31 Q782.336 1466.2 780.23 1468.8 Q779.651 1469.47 776.549 1472.69 Q773.448 1475.88 767.799 1481.64 Z" fill="#000000" fill-rule="evenodd" fill-opacity="1" /><path clip-path="url(#clip450)" d="M793.98 1451.02 L812.336 1451.02 L812.336 1454.96 L798.262 1454.96 L798.262 1463.43 Q799.281 1463.08 800.299 1462.92 Q801.318 1462.73 802.336 1462.73 Q808.123 1462.73 811.503 1465.9 Q814.883 1469.08 814.883 1474.49 Q814.883 1480.07 811.41 1483.17 Q807.938 1486.25 801.619 1486.25 Q799.443 1486.25 797.174 1485.88 Q794.929 1485.51 792.522 1484.77 L792.522 1480.07 Q794.605 1481.2 796.827 1481.76 Q799.049 1482.32 801.526 1482.32 Q805.531 1482.32 807.869 1480.21 Q810.207 1478.1 810.207 1474.49 Q810.207 1470.88 807.869 1468.77 Q805.531 1466.67 801.526 1466.67 Q799.651 1466.67 797.776 1467.08 Q795.924 1467.5 793.98 1468.38 L793.98 1451.02 Z" fill="#000000" fill-rule="evenodd" fill-opacity="1" /><path clip-path="url(#clip450)" d="M1264.78 1451.02 L1283.13 1451.02 L1283.13 1454.96 L1269.06 1454.96 L1269.06 1463.43 Q1270.08 1463.08 1271.09 1462.92 Q1272.11 1462.73 1273.13 1462.73 Q1278.92 1462.73 1282.3 1465.9 Q1285.68 1469.08 1285.68 1474.49 Q1285.68 1480.07 1282.21 1483.17 Q1278.73 1486.25 1272.41 1486.25 Q1270.24 1486.25 1267.97 1485.88 Q1265.72 1485.51 1263.32 1484.77 L1263.32 1480.07 Q1265.4 1481.2 1267.62 1481.76 Q1269.84 1482.32 1272.32 1482.32 Q1276.33 1482.32 1278.66 1480.21 Q1281 1478.1 1281 1474.49 Q1281 1470.88 1278.66 1468.77 Q1276.33 1466.67 1272.32 1466.67 Q1270.45 1466.67 1268.57 1467.08 Q1266.72 1467.5 1264.78 1468.38 L1264.78 1451.02 Z" fill="#000000" fill-rule="evenodd" fill-opacity="1" /><path clip-path="url(#clip450)" d="M1304.89 1454.1 Q1301.28 1454.1 1299.45 1457.66 Q1297.65 1461.2 1297.65 1468.33 Q1297.65 1475.44 1299.45 1479.01 Q1301.28 1482.55 1304.89 1482.55 Q1308.53 1482.55 1310.33 1479.01 Q1312.16 1475.44 1312.16 1468.33 Q1312.16 1461.2 1310.33 1457.66 Q1308.53 1454.1 1304.89 1454.1 M1304.89 1450.39 Q1310.7 1450.39 1313.76 1455 Q1316.84 1459.58 1316.84 1468.33 Q1316.84 1477.06 1313.76 1481.67 Q1310.7 1486.25 1304.89 1486.25 Q1299.08 1486.25 1296 1481.67 Q1292.95 1477.06 1292.95 1468.33 Q1292.95 1459.58 1296 1455 Q1299.08 1450.39 1304.89 1450.39 Z" fill="#000000" fill-rule="evenodd" fill-opacity="1" /><path clip-path="url(#clip450)" d="M1765.48 1451.02 L1787.7 1451.02 L1787.7 1453.01 L1775.15 1485.58 L1770.27 1485.58 L1782.08 1454.96 L1765.48 1454.96 L1765.48 1451.02 Z" fill="#000000" fill-rule="evenodd" fill-opacity="1" /><path clip-path="url(#clip450)" d="M1796.87 1451.02 L1815.22 1451.02 L1815.22 1454.96 L1801.15 1454.96 L1801.15 1463.43 Q1802.17 1463.08 1803.19 1462.92 Q1804.21 1462.73 1805.22 1462.73 Q1811.01 1462.73 1814.39 1465.9 Q1817.77 1469.08 1817.77 1474.49 Q1817.77 1480.07 1814.3 1483.17 Q1810.83 1486.25 1804.51 1486.25 Q1802.33 1486.25 1800.06 1485.88 Q1797.82 1485.51 1795.41 1484.77 L1795.41 1480.07 Q1797.49 1481.2 1799.71 1481.76 Q1801.94 1482.32 1804.41 1482.32 Q1808.42 1482.32 1810.76 1480.21 Q1813.09 1478.1 1813.09 1474.49 Q1813.09 1470.88 1810.76 1468.77 Q1808.42 1466.67 1804.41 1466.67 Q1802.54 1466.67 1800.66 1467.08 Q1798.81 1467.5 1796.87 1468.38 L1796.87 1451.02 Z" fill="#000000" fill-rule="evenodd" fill-opacity="1" /><path clip-path="url(#clip450)" d="M2252.78 1481.64 L2260.42 1481.64 L2260.42 1455.28 L2252.11 1456.95 L2252.11 1452.69 L2260.37 1451.02 L2265.05 1451.02 L2265.05 1481.64 L2272.69 1481.64 L2272.69 1485.58 L2252.78 1485.58 L2252.78 1481.64 Z" fill="#000000" fill-rule="evenodd" fill-opacity="1" /><path clip-path="url(#clip450)" d="M2292.13 1454.1 Q2288.52 1454.1 2286.69 1457.66 Q2284.89 1461.2 2284.89 1468.33 Q2284.89 1475.44 2286.69 1479.01 Q2288.52 1482.55 2292.13 1482.55 Q2295.76 1482.55 2297.57 1479.01 Q2299.4 1475.44 2299.4 1468.33 Q2299.4 1461.2 2297.57 1457.66 Q2295.76 1454.1 2292.13 1454.1 M2292.13 1450.39 Q2297.94 1450.39 2301 1455 Q2304.07 1459.58 2304.07 1468.33 Q2304.07 1477.06 2301 1481.67 Q2297.94 1486.25 2292.13 1486.25 Q2286.32 1486.25 2283.24 1481.67 Q2280.19 1477.06 2280.19 1468.33 Q2280.19 1459.58 2283.24 1455 Q2286.32 1450.39 2292.13 1450.39 Z" fill="#000000" fill-rule="evenodd" fill-opacity="1" /><path clip-path="url(#clip450)" d="M2322.29 1454.1 Q2318.68 1454.1 2316.85 1457.66 Q2315.05 1461.2 2315.05 1468.33 Q2315.05 1475.44 2316.85 1479.01 Q2318.68 1482.55 2322.29 1482.55 Q2325.93 1482.55 2327.73 1479.01 Q2329.56 1475.44 2329.56 1468.33 Q2329.56 1461.2 2327.73 1457.66 Q2325.93 1454.1 2322.29 1454.1 M2322.29 1450.39 Q2328.1 1450.39 2331.16 1455 Q2334.24 1459.58 2334.24 1468.33 Q2334.24 1477.06 2331.16 1481.67 Q2328.1 1486.25 2322.29 1486.25 Q2316.48 1486.25 2313.4 1481.67 Q2310.35 1477.06 2310.35 1468.33 Q2310.35 1459.58 2313.4 1455 Q2316.48 1450.39 2322.29 1450.39 Z" fill="#000000" fill-rule="evenodd" fill-opacity="1" /><path clip-path="url(#clip450)" d="M971.303 1546.53 L971.303 1568.04 L965.446 1568.04 L965.446 1546.72 Q965.446 1541.66 963.473 1539.14 Q961.499 1536.63 957.553 1536.63 Q952.81 1536.63 950.073 1539.65 Q947.336 1542.68 947.336 1547.9 L947.336 1568.04 L941.447 1568.04 L941.447 1532.4 L947.336 1532.4 L947.336 1537.93 Q949.436 1534.72 952.269 1533.13 Q955.134 1531.54 958.858 1531.54 Q965.001 1531.54 968.152 1535.36 Q971.303 1539.14 971.303 1546.53 Z" fill="#000000" fill-rule="evenodd" fill-opacity="1" /><path clip-path="url(#clip450)" d="M982.379 1553.98 L982.379 1532.4 L988.235 1532.4 L988.235 1553.75 Q988.235 1558.81 990.209 1561.36 Q992.182 1563.87 996.129 1563.87 Q1000.87 1563.87 1003.61 1560.85 Q1006.38 1557.83 1006.38 1552.61 L1006.38 1532.4 L1012.23 1532.4 L1012.23 1568.04 L1006.38 1568.04 L1006.38 1562.57 Q1004.25 1565.82 1001.41 1567.41 Q998.612 1568.97 994.888 1568.97 Q988.745 1568.97 985.562 1565.15 Q982.379 1561.33 982.379 1553.98 M997.116 1531.54 L997.116 1531.54 Z" fill="#000000" fill-rule="evenodd" fill-opacity="1" /><path clip-path="url(#clip450)" d="M1052.05 1539.24 Q1054.25 1535.29 1057.3 1533.41 Q1060.36 1531.54 1064.5 1531.54 Q1070.07 1531.54 1073.09 1535.45 Q1076.11 1539.33 1076.11 1546.53 L1076.11 1568.04 L1070.23 1568.04 L1070.23 1546.72 Q1070.23 1541.59 1068.41 1539.11 Q1066.6 1536.63 1062.87 1536.63 Q1058.32 1536.63 1055.68 1539.65 Q1053.04 1542.68 1053.04 1547.9 L1053.04 1568.04 L1047.15 1568.04 L1047.15 1546.72 Q1047.15 1541.56 1045.34 1539.11 Q1043.52 1536.63 1039.73 1536.63 Q1035.25 1536.63 1032.6 1539.68 Q1029.96 1542.71 1029.96 1547.9 L1029.96 1568.04 L1024.07 1568.04 L1024.07 1532.4 L1029.96 1532.4 L1029.96 1537.93 Q1031.97 1534.66 1034.77 1533.1 Q1037.57 1531.54 1041.42 1531.54 Q1045.3 1531.54 1048.01 1533.51 Q1050.75 1535.48 1052.05 1539.24 Z" fill="#000000" fill-rule="evenodd" fill-opacity="1" /><path clip-path="url(#clip450)" d="M1113.39 1550.25 Q1113.39 1543.79 1110.71 1540.13 Q1108.07 1536.44 1103.42 1536.44 Q1098.78 1536.44 1096.1 1540.13 Q1093.46 1543.79 1093.46 1550.25 Q1093.46 1556.71 1096.1 1560.4 Q1098.78 1564.07 1103.42 1564.07 Q1108.07 1564.07 1110.71 1560.4 Q1113.39 1556.71 1113.39 1550.25 M1093.46 1537.81 Q1095.31 1534.62 1098.11 1533.1 Q1100.94 1531.54 1104.86 1531.54 Q1111.35 1531.54 1115.39 1536.69 Q1119.46 1541.85 1119.46 1550.25 Q1119.46 1558.65 1115.39 1563.81 Q1111.35 1568.97 1104.86 1568.97 Q1100.94 1568.97 1098.11 1567.44 Q1095.31 1565.88 1093.46 1562.7 L1093.46 1568.04 L1087.57 1568.04 L1087.57 1518.52 L1093.46 1518.52 L1093.46 1537.81 Z" fill="#000000" fill-rule="evenodd" fill-opacity="1" /><path clip-path="url(#clip450)" d="M1159.66 1548.76 L1159.66 1551.62 L1132.74 1551.62 Q1133.12 1557.67 1136.37 1560.85 Q1139.64 1564 1145.47 1564 Q1148.84 1564 1151.99 1563.17 Q1155.18 1562.35 1158.3 1560.69 L1158.3 1566.23 Q1155.14 1567.57 1151.83 1568.27 Q1148.52 1568.97 1145.12 1568.97 Q1136.59 1568.97 1131.59 1564 Q1126.63 1559.04 1126.63 1550.57 Q1126.63 1541.82 1131.34 1536.69 Q1136.08 1531.54 1144.1 1531.54 Q1151.29 1531.54 1155.46 1536.18 Q1159.66 1540.8 1159.66 1548.76 M1153.81 1547.04 Q1153.74 1542.23 1151.1 1539.37 Q1148.49 1536.5 1144.16 1536.5 Q1139.26 1536.5 1136.3 1539.27 Q1133.37 1542.04 1132.93 1547.07 L1153.81 1547.04 Z" fill="#000000" fill-rule="evenodd" fill-opacity="1" /><path clip-path="url(#clip450)" d="M1189.93 1537.87 Q1188.95 1537.3 1187.77 1537.04 Q1186.62 1536.76 1185.22 1536.76 Q1180.26 1536.76 1177.58 1540 Q1174.94 1543.22 1174.94 1549.27 L1174.94 1568.04 L1169.05 1568.04 L1169.05 1532.4 L1174.94 1532.4 L1174.94 1537.93 Q1176.79 1534.69 1179.75 1533.13 Q1182.71 1531.54 1186.94 1531.54 Q1187.55 1531.54 1188.28 1531.63 Q1189.01 1531.7 1189.9 1531.85 L1189.93 1537.87 Z" fill="#000000" fill-rule="evenodd" fill-opacity="1" /><path clip-path="url(#clip450)" d="M1230.61 1536.5 Q1225.9 1536.5 1223.16 1540.19 Q1220.42 1543.85 1220.42 1550.25 Q1220.42 1556.65 1223.13 1560.34 Q1225.87 1564 1230.61 1564 Q1235.29 1564 1238.03 1560.31 Q1240.76 1556.62 1240.76 1550.25 Q1240.76 1543.92 1238.03 1540.23 Q1235.29 1536.5 1230.61 1536.5 M1230.61 1531.54 Q1238.25 1531.54 1242.61 1536.5 Q1246.97 1541.47 1246.97 1550.25 Q1246.97 1559 1242.61 1564 Q1238.25 1568.97 1230.61 1568.97 Q1222.94 1568.97 1218.58 1564 Q1214.25 1559 1214.25 1550.25 Q1214.25 1541.47 1218.58 1536.5 Q1222.94 1531.54 1230.61 1531.54 Z" fill="#000000" fill-rule="evenodd" fill-opacity="1" /><path clip-path="url(#clip450)" d="M1274.72 1518.52 L1274.72 1523.39 L1269.12 1523.39 Q1265.97 1523.39 1264.73 1524.66 Q1263.52 1525.93 1263.52 1529.24 L1263.52 1532.4 L1273.16 1532.4 L1273.16 1536.95 L1263.52 1536.95 L1263.52 1568.04 L1257.63 1568.04 L1257.63 1536.95 L1252.03 1536.95 L1252.03 1532.4 L1257.63 1532.4 L1257.63 1529.91 Q1257.63 1523.96 1260.4 1521.26 Q1263.17 1518.52 1269.19 1518.52 L1274.72 1518.52 Z" fill="#000000" fill-rule="evenodd" fill-opacity="1" /><path clip-path="url(#clip450)" d="M1323.8 1537.81 L1323.8 1518.52 L1329.66 1518.52 L1329.66 1568.04 L1323.8 1568.04 L1323.8 1562.7 Q1321.96 1565.88 1319.12 1567.44 Q1316.32 1568.97 1312.38 1568.97 Q1305.92 1568.97 1301.84 1563.81 Q1297.8 1558.65 1297.8 1550.25 Q1297.8 1541.85 1301.84 1536.69 Q1305.92 1531.54 1312.38 1531.54 Q1316.32 1531.54 1319.12 1533.1 Q1321.96 1534.62 1323.8 1537.81 M1303.85 1550.25 Q1303.85 1556.71 1306.49 1560.4 Q1309.16 1564.07 1313.81 1564.07 Q1318.46 1564.07 1321.13 1560.4 Q1323.8 1556.71 1323.8 1550.25 Q1323.8 1543.79 1321.13 1540.13 Q1318.46 1536.44 1313.81 1536.44 Q1309.16 1536.44 1306.49 1540.13 Q1303.85 1543.79 1303.85 1550.25 Z" fill="#000000" fill-rule="evenodd" fill-opacity="1" /><path clip-path="url(#clip450)" d="M1357.92 1550.12 Q1350.83 1550.12 1348.09 1551.75 Q1345.35 1553.37 1345.35 1557.29 Q1345.35 1560.4 1347.39 1562.25 Q1349.46 1564.07 1352.99 1564.07 Q1357.86 1564.07 1360.79 1560.63 Q1363.75 1557.16 1363.75 1551.43 L1363.75 1550.12 L1357.92 1550.12 M1369.6 1547.71 L1369.6 1568.04 L1363.75 1568.04 L1363.75 1562.63 Q1361.74 1565.88 1358.75 1567.44 Q1355.76 1568.97 1351.43 1568.97 Q1345.96 1568.97 1342.71 1565.91 Q1339.5 1562.82 1339.5 1557.67 Q1339.5 1551.65 1343.51 1548.6 Q1347.55 1545.54 1355.54 1545.54 L1363.75 1545.54 L1363.75 1544.97 Q1363.75 1540.93 1361.07 1538.73 Q1358.43 1536.5 1353.63 1536.5 Q1350.57 1536.5 1347.68 1537.23 Q1344.78 1537.97 1342.11 1539.43 L1342.11 1534.02 Q1345.32 1532.78 1348.34 1532.17 Q1351.37 1531.54 1354.23 1531.54 Q1361.97 1531.54 1365.79 1535.55 Q1369.6 1539.56 1369.6 1547.71 Z" fill="#000000" fill-rule="evenodd" fill-opacity="1" /><path clip-path="url(#clip450)" d="M1387.46 1522.27 L1387.46 1532.4 L1399.52 1532.4 L1399.52 1536.95 L1387.46 1536.95 L1387.46 1556.3 Q1387.46 1560.66 1388.64 1561.9 Q1389.85 1563.14 1393.51 1563.14 L1399.52 1563.14 L1399.52 1568.04 L1393.51 1568.04 Q1386.73 1568.04 1384.15 1565.53 Q1381.57 1562.98 1381.57 1556.3 L1381.57 1536.95 L1377.28 1536.95 L1377.28 1532.4 L1381.57 1532.4 L1381.57 1522.27 L1387.46 1522.27 Z" fill="#000000" fill-rule="evenodd" fill-opacity="1" /><path clip-path="url(#clip450)" d="M1423.43 1550.12 Q1416.33 1550.12 1413.59 1551.75 Q1410.85 1553.37 1410.85 1557.29 Q1410.85 1560.4 1412.89 1562.25 Q1414.96 1564.07 1418.49 1564.07 Q1423.36 1564.07 1426.29 1560.63 Q1429.25 1557.16 1429.25 1551.43 L1429.25 1550.12 L1423.43 1550.12 M1435.11 1547.71 L1435.11 1568.04 L1429.25 1568.04 L1429.25 1562.63 Q1427.25 1565.88 1424.25 1567.44 Q1421.26 1568.97 1416.93 1568.97 Q1411.46 1568.97 1408.21 1565.91 Q1405 1562.82 1405 1557.67 Q1405 1551.65 1409.01 1548.6 Q1413.05 1545.54 1421.04 1545.54 L1429.25 1545.54 L1429.25 1544.97 Q1429.25 1540.93 1426.58 1538.73 Q1423.94 1536.5 1419.13 1536.5 Q1416.07 1536.5 1413.18 1537.23 Q1410.28 1537.97 1407.61 1539.43 L1407.61 1534.02 Q1410.82 1532.78 1413.85 1532.17 Q1416.87 1531.54 1419.73 1531.54 Q1427.47 1531.54 1431.29 1535.55 Q1435.11 1539.56 1435.11 1547.71 Z" fill="#000000" fill-rule="evenodd" fill-opacity="1" /><path clip-path="url(#clip450)" d="M1473.56 1562.7 L1473.56 1581.6 L1467.67 1581.6 L1467.67 1532.4 L1473.56 1532.4 L1473.56 1537.81 Q1475.4 1534.62 1478.2 1533.1 Q1481.04 1531.54 1484.95 1531.54 Q1491.44 1531.54 1495.49 1536.69 Q1499.56 1541.85 1499.56 1550.25 Q1499.56 1558.65 1495.49 1563.81 Q1491.44 1568.97 1484.95 1568.97 Q1481.04 1568.97 1478.2 1567.44 Q1475.4 1565.88 1473.56 1562.7 M1493.48 1550.25 Q1493.48 1543.79 1490.81 1540.13 Q1488.17 1536.44 1483.52 1536.44 Q1478.87 1536.44 1476.2 1540.13 Q1473.56 1543.79 1473.56 1550.25 Q1473.56 1556.71 1476.2 1560.4 Q1478.87 1564.07 1483.52 1564.07 Q1488.17 1564.07 1490.81 1560.4 Q1493.48 1556.71 1493.48 1550.25 Z" fill="#000000" fill-rule="evenodd" fill-opacity="1" /><path clip-path="url(#clip450)" d="M1523.08 1536.5 Q1518.37 1536.5 1515.63 1540.19 Q1512.9 1543.85 1512.9 1550.25 Q1512.9 1556.65 1515.6 1560.34 Q1518.34 1564 1523.08 1564 Q1527.76 1564 1530.5 1560.31 Q1533.24 1556.62 1533.24 1550.25 Q1533.24 1543.92 1530.5 1540.23 Q1527.76 1536.5 1523.08 1536.5 M1523.08 1531.54 Q1530.72 1531.54 1535.08 1536.5 Q1539.44 1541.47 1539.44 1550.25 Q1539.44 1559 1535.08 1564 Q1530.72 1568.97 1523.08 1568.97 Q1515.41 1568.97 1511.05 1564 Q1506.72 1559 1506.72 1550.25 Q1506.72 1541.47 1511.05 1536.5 Q1515.41 1531.54 1523.08 1531.54 Z" fill="#000000" fill-rule="evenodd" fill-opacity="1" /><path clip-path="url(#clip450)" d="M1549.15 1532.4 L1555.01 1532.4 L1555.01 1568.04 L1549.15 1568.04 L1549.15 1532.4 M1549.15 1518.52 L1555.01 1518.52 L1555.01 1525.93 L1549.15 1525.93 L1549.15 1518.52 Z" fill="#000000" fill-rule="evenodd" fill-opacity="1" /><path clip-path="url(#clip450)" d="M1596.89 1546.53 L1596.89 1568.04 L1591.04 1568.04 L1591.04 1546.72 Q1591.04 1541.66 1589.06 1539.14 Q1587.09 1536.63 1583.14 1536.63 Q1578.4 1536.63 1575.66 1539.65 Q1572.93 1542.68 1572.93 1547.9 L1572.93 1568.04 L1567.04 1568.04 L1567.04 1532.4 L1572.93 1532.4 L1572.93 1537.93 Q1575.03 1534.72 1577.86 1533.13 Q1580.72 1531.54 1584.45 1531.54 Q1590.59 1531.54 1593.74 1535.36 Q1596.89 1539.14 1596.89 1546.53 Z" fill="#000000" fill-rule="evenodd" fill-opacity="1" /><path clip-path="url(#clip450)" d="M1614.37 1522.27 L1614.37 1532.4 L1626.43 1532.4 L1626.43 1536.95 L1614.37 1536.95 L1614.37 1556.3 Q1614.37 1560.66 1615.54 1561.9 Q1616.75 1563.14 1620.41 1563.14 L1626.43 1563.14 L1626.43 1568.04 L1620.41 1568.04 Q1613.63 1568.04 1611.06 1565.53 Q1608.48 1562.98 1608.48 1556.3 L1608.48 1536.95 L1604.18 1536.95 L1604.18 1532.4 L1608.48 1532.4 L1608.48 1522.27 L1614.37 1522.27 Z" fill="#000000" fill-rule="evenodd" fill-opacity="1" /><path clip-path="url(#clip450)" d="M1656.86 1533.45 L1656.86 1538.98 Q1654.37 1537.71 1651.7 1537.07 Q1649.03 1536.44 1646.16 1536.44 Q1641.8 1536.44 1639.61 1537.77 Q1637.44 1539.11 1637.44 1541.79 Q1637.44 1543.82 1639 1545 Q1640.56 1546.15 1645.27 1547.2 L1647.28 1547.64 Q1653.52 1548.98 1656.13 1551.43 Q1658.77 1553.85 1658.77 1558.21 Q1658.77 1563.17 1654.82 1566.07 Q1650.91 1568.97 1644.03 1568.97 Q1641.17 1568.97 1638.05 1568.39 Q1634.96 1567.85 1631.52 1566.74 L1631.52 1560.69 Q1634.77 1562.38 1637.92 1563.24 Q1641.07 1564.07 1644.16 1564.07 Q1648.3 1564.07 1650.52 1562.66 Q1652.75 1561.23 1652.75 1558.65 Q1652.75 1556.27 1651.13 1554.99 Q1649.54 1553.72 1644.09 1552.54 L1642.06 1552.07 Q1636.61 1550.92 1634.2 1548.56 Q1631.78 1546.18 1631.78 1542.04 Q1631.78 1537.01 1635.34 1534.27 Q1638.91 1531.54 1645.46 1531.54 Q1648.71 1531.54 1651.57 1532.01 Q1654.44 1532.49 1656.86 1533.45 Z" fill="#000000" fill-rule="evenodd" fill-opacity="1" /><polyline clip-path="url(#clip452)" style="stroke:#000000; stroke-linecap:butt; stroke-linejoin:round; stroke-width:2; stroke-opacity:0.1; fill:none" points="
  247.459,1386.91 2352.76,1386.91 
  "/>
<polyline clip-path="url(#clip452)" style="stroke:#000000; stroke-linecap:butt; stroke-linejoin:round; stroke-width:2; stroke-opacity:0.1; fill:none" points="
  247.459,1109.35 2352.76,1109.35 
  "/>
<polyline clip-path="url(#clip452)" style="stroke:#000000; stroke-linecap:butt; stroke-linejoin:round; stroke-width:2; stroke-opacity:0.1; fill:none" points="
  247.459,831.792 2352.76,831.792 
  "/>
<polyline clip-path="url(#clip452)" style="stroke:#000000; stroke-linecap:butt; stroke-linejoin:round; stroke-width:2; stroke-opacity:0.1; fill:none" points="
  247.459,554.234 2352.76,554.234 
  "/>
<polyline clip-path="url(#clip452)" style="stroke:#000000; stroke-linecap:butt; stroke-linejoin:round; stroke-width:2; stroke-opacity:0.1; fill:none" points="
  247.459,276.675 2352.76,276.675 
  "/>
<polyline clip-path="url(#clip450)" style="stroke:#000000; stroke-linecap:butt; stroke-linejoin:round; stroke-width:4; stroke-opacity:1; fill:none" points="
  247.459,1423.18 247.459,47.2441 
  "/>
<polyline clip-path="url(#clip450)" style="stroke:#000000; stroke-linecap:butt; stroke-linejoin:round; stroke-width:4; stroke-opacity:1; fill:none" points="
  247.459,1386.91 266.356,1386.91 
  "/>
<polyline clip-path="url(#clip450)" style="stroke:#000000; stroke-linecap:butt; stroke-linejoin:round; stroke-width:4; stroke-opacity:1; fill:none" points="
  247.459,1109.35 266.356,1109.35 
  "/>
<polyline clip-path="url(#clip450)" style="stroke:#000000; stroke-linecap:butt; stroke-linejoin:round; stroke-width:4; stroke-opacity:1; fill:none" points="
  247.459,831.792 266.356,831.792 
  "/>
<polyline clip-path="url(#clip450)" style="stroke:#000000; stroke-linecap:butt; stroke-linejoin:round; stroke-width:4; stroke-opacity:1; fill:none" points="
  247.459,554.234 266.356,554.234 
  "/>
<polyline clip-path="url(#clip450)" style="stroke:#000000; stroke-linecap:butt; stroke-linejoin:round; stroke-width:4; stroke-opacity:1; fill:none" points="
  247.459,276.675 266.356,276.675 
  "/>
<path clip-path="url(#clip450)" d="M154.283 1372.71 Q150.672 1372.71 148.843 1376.27 Q147.038 1379.81 147.038 1386.94 Q147.038 1394.05 148.843 1397.62 Q150.672 1401.16 154.283 1401.16 Q157.917 1401.16 159.723 1397.62 Q161.552 1394.05 161.552 1386.94 Q161.552 1379.81 159.723 1376.27 Q157.917 1372.71 154.283 1372.71 M154.283 1369 Q160.093 1369 163.149 1373.61 Q166.227 1378.19 166.227 1386.94 Q166.227 1395.67 163.149 1400.28 Q160.093 1404.86 154.283 1404.86 Q148.473 1404.86 145.394 1400.28 Q142.339 1395.67 142.339 1386.94 Q142.339 1378.19 145.394 1373.61 Q148.473 1369 154.283 1369 Z" fill="#000000" fill-rule="evenodd" fill-opacity="1" /><path clip-path="url(#clip450)" d="M174.445 1398.31 L179.329 1398.31 L179.329 1404.19 L174.445 1404.19 L174.445 1398.31 Z" fill="#000000" fill-rule="evenodd" fill-opacity="1" /><path clip-path="url(#clip450)" d="M199.514 1372.71 Q195.903 1372.71 194.075 1376.27 Q192.269 1379.81 192.269 1386.94 Q192.269 1394.05 194.075 1397.62 Q195.903 1401.16 199.514 1401.16 Q203.149 1401.16 204.954 1397.62 Q206.783 1394.05 206.783 1386.94 Q206.783 1379.81 204.954 1376.27 Q203.149 1372.71 199.514 1372.71 M199.514 1369 Q205.324 1369 208.38 1373.61 Q211.459 1378.19 211.459 1386.94 Q211.459 1395.67 208.38 1400.28 Q205.324 1404.86 199.514 1404.86 Q193.704 1404.86 190.625 1400.28 Q187.57 1395.67 187.57 1386.94 Q187.57 1378.19 190.625 1373.61 Q193.704 1369 199.514 1369 Z" fill="#000000" fill-rule="evenodd" fill-opacity="1" /><path clip-path="url(#clip450)" d="M149.306 1122.7 L165.626 1122.7 L165.626 1126.63 L143.681 1126.63 L143.681 1122.7 Q146.343 1119.94 150.927 1115.31 Q155.533 1110.66 156.714 1109.32 Q158.959 1106.79 159.839 1105.06 Q160.741 1103.3 160.741 1101.61 Q160.741 1098.85 158.797 1097.12 Q156.876 1095.38 153.774 1095.38 Q151.575 1095.38 149.121 1096.14 Q146.691 1096.91 143.913 1098.46 L143.913 1093.74 Q146.737 1092.6 149.191 1092.02 Q151.644 1091.45 153.681 1091.45 Q159.052 1091.45 162.246 1094.13 Q165.44 1096.82 165.44 1101.31 Q165.44 1103.44 164.63 1105.36 Q163.843 1107.26 161.737 1109.85 Q161.158 1110.52 158.056 1113.74 Q154.954 1116.93 149.306 1122.7 Z" fill="#000000" fill-rule="evenodd" fill-opacity="1" /><path clip-path="url(#clip450)" d="M175.44 1120.75 L180.325 1120.75 L180.325 1126.63 L175.44 1126.63 L175.44 1120.75 Z" fill="#000000" fill-rule="evenodd" fill-opacity="1" /><path clip-path="url(#clip450)" d="M190.556 1092.07 L208.912 1092.07 L208.912 1096.01 L194.838 1096.01 L194.838 1104.48 Q195.857 1104.13 196.875 1103.97 Q197.894 1103.78 198.912 1103.78 Q204.699 1103.78 208.079 1106.95 Q211.459 1110.13 211.459 1115.54 Q211.459 1121.12 207.987 1124.22 Q204.514 1127.3 198.195 1127.3 Q196.019 1127.3 193.75 1126.93 Q191.505 1126.56 189.098 1125.82 L189.098 1121.12 Q191.181 1122.26 193.403 1122.81 Q195.625 1123.37 198.102 1123.37 Q202.107 1123.37 204.445 1121.26 Q206.783 1119.15 206.783 1115.54 Q206.783 1111.93 204.445 1109.83 Q202.107 1107.72 198.102 1107.72 Q196.227 1107.72 194.352 1108.14 Q192.5 1108.55 190.556 1109.43 L190.556 1092.07 Z" fill="#000000" fill-rule="evenodd" fill-opacity="1" /><path clip-path="url(#clip450)" d="M144.329 814.512 L162.686 814.512 L162.686 818.447 L148.612 818.447 L148.612 826.92 Q149.63 826.572 150.649 826.41 Q151.667 826.225 152.686 826.225 Q158.473 826.225 161.852 829.396 Q165.232 832.568 165.232 837.984 Q165.232 843.563 161.76 846.665 Q158.288 849.744 151.968 849.744 Q149.792 849.744 147.524 849.373 Q145.279 849.003 142.871 848.262 L142.871 843.563 Q144.954 844.697 147.177 845.253 Q149.399 845.808 151.876 845.808 Q155.88 845.808 158.218 843.702 Q160.556 841.595 160.556 837.984 Q160.556 834.373 158.218 832.267 Q155.88 830.16 151.876 830.16 Q150.001 830.16 148.126 830.577 Q146.274 830.994 144.329 831.873 L144.329 814.512 Z" fill="#000000" fill-rule="evenodd" fill-opacity="1" /><path clip-path="url(#clip450)" d="M174.445 843.193 L179.329 843.193 L179.329 849.072 L174.445 849.072 L174.445 843.193 Z" fill="#000000" fill-rule="evenodd" fill-opacity="1" /><path clip-path="url(#clip450)" d="M199.514 817.591 Q195.903 817.591 194.075 821.156 Q192.269 824.697 192.269 831.827 Q192.269 838.933 194.075 842.498 Q195.903 846.04 199.514 846.04 Q203.149 846.04 204.954 842.498 Q206.783 838.933 206.783 831.827 Q206.783 824.697 204.954 821.156 Q203.149 817.591 199.514 817.591 M199.514 813.887 Q205.324 813.887 208.38 818.494 Q211.459 823.077 211.459 831.827 Q211.459 840.554 208.38 845.16 Q205.324 849.744 199.514 849.744 Q193.704 849.744 190.625 845.16 Q187.57 840.554 187.57 831.827 Q187.57 823.077 190.625 818.494 Q193.704 813.887 199.514 813.887 Z" fill="#000000" fill-rule="evenodd" fill-opacity="1" /><path clip-path="url(#clip450)" d="M144.098 536.954 L166.32 536.954 L166.32 538.944 L153.774 571.514 L148.89 571.514 L160.695 540.889 L144.098 540.889 L144.098 536.954 Z" fill="#000000" fill-rule="evenodd" fill-opacity="1" /><path clip-path="url(#clip450)" d="M175.44 565.634 L180.325 565.634 L180.325 571.514 L175.44 571.514 L175.44 565.634 Z" fill="#000000" fill-rule="evenodd" fill-opacity="1" /><path clip-path="url(#clip450)" d="M190.556 536.954 L208.912 536.954 L208.912 540.889 L194.838 540.889 L194.838 549.361 Q195.857 549.014 196.875 548.852 Q197.894 548.667 198.912 548.667 Q204.699 548.667 208.079 551.838 Q211.459 555.009 211.459 560.426 Q211.459 566.004 207.987 569.106 Q204.514 572.185 198.195 572.185 Q196.019 572.185 193.75 571.815 Q191.505 571.444 189.098 570.704 L189.098 566.004 Q191.181 567.139 193.403 567.694 Q195.625 568.25 198.102 568.25 Q202.107 568.25 204.445 566.143 Q206.783 564.037 206.783 560.426 Q206.783 556.815 204.445 554.708 Q202.107 552.602 198.102 552.602 Q196.227 552.602 194.352 553.018 Q192.5 553.435 190.556 554.315 L190.556 536.954 Z" fill="#000000" fill-rule="evenodd" fill-opacity="1" /><path clip-path="url(#clip450)" d="M114.931 290.02 L122.57 290.02 L122.57 263.654 L114.26 265.321 L114.26 261.062 L122.524 259.395 L127.2 259.395 L127.2 290.02 L134.839 290.02 L134.839 293.955 L114.931 293.955 L114.931 290.02 Z" fill="#000000" fill-rule="evenodd" fill-opacity="1" /><path clip-path="url(#clip450)" d="M154.283 262.474 Q150.672 262.474 148.843 266.039 Q147.038 269.58 147.038 276.71 Q147.038 283.816 148.843 287.381 Q150.672 290.923 154.283 290.923 Q157.917 290.923 159.723 287.381 Q161.552 283.816 161.552 276.71 Q161.552 269.58 159.723 266.039 Q157.917 262.474 154.283 262.474 M154.283 258.77 Q160.093 258.77 163.149 263.377 Q166.227 267.96 166.227 276.71 Q166.227 285.437 163.149 290.043 Q160.093 294.626 154.283 294.626 Q148.473 294.626 145.394 290.043 Q142.339 285.437 142.339 276.71 Q142.339 267.96 145.394 263.377 Q148.473 258.77 154.283 258.77 Z" fill="#000000" fill-rule="evenodd" fill-opacity="1" /><path clip-path="url(#clip450)" d="M174.445 288.076 L179.329 288.076 L179.329 293.955 L174.445 293.955 L174.445 288.076 Z" fill="#000000" fill-rule="evenodd" fill-opacity="1" /><path clip-path="url(#clip450)" d="M199.514 262.474 Q195.903 262.474 194.075 266.039 Q192.269 269.58 192.269 276.71 Q192.269 283.816 194.075 287.381 Q195.903 290.923 199.514 290.923 Q203.149 290.923 204.954 287.381 Q206.783 283.816 206.783 276.71 Q206.783 269.58 204.954 266.039 Q203.149 262.474 199.514 262.474 M199.514 258.77 Q205.324 258.77 208.38 263.377 Q211.459 267.96 211.459 276.71 Q211.459 285.437 208.38 290.043 Q205.324 294.626 199.514 294.626 Q193.704 294.626 190.625 290.043 Q187.57 285.437 187.57 276.71 Q187.57 267.96 190.625 263.377 Q193.704 258.77 199.514 258.77 Z" fill="#000000" fill-rule="evenodd" fill-opacity="1" /><path clip-path="url(#clip450)" d="M33.8307 1087.35 Q33.2578 1088.33 33.0032 1089.51 Q32.7167 1090.66 32.7167 1092.06 Q32.7167 1097.02 35.9632 1099.7 Q39.1779 1102.34 45.2253 1102.34 L64.0042 1102.34 L64.0042 1108.23 L28.3562 1108.23 L28.3562 1102.34 L33.8944 1102.34 Q30.6479 1100.49 29.0883 1097.53 Q27.4968 1094.57 27.4968 1090.34 Q27.4968 1089.73 27.5923 1089 Q27.656 1088.27 27.8151 1087.38 L33.8307 1087.35 Z" fill="#000000" fill-rule="evenodd" fill-opacity="1" /><path clip-path="url(#clip450)" d="M49.9359 1081.81 L28.3562 1081.81 L28.3562 1075.95 L49.7131 1075.95 Q54.7739 1075.95 57.3202 1073.98 Q59.8346 1072.01 59.8346 1068.06 Q59.8346 1063.32 56.8109 1060.58 Q53.7872 1057.81 48.5673 1057.81 L28.3562 1057.81 L28.3562 1051.95 L64.0042 1051.95 L64.0042 1057.81 L58.5296 1057.81 Q61.7762 1059.94 63.3676 1062.78 Q64.9272 1065.58 64.9272 1069.3 Q64.9272 1075.44 61.1078 1078.63 Q57.2883 1081.81 49.9359 1081.81 M27.4968 1067.07 L27.4968 1067.07 Z" fill="#000000" fill-rule="evenodd" fill-opacity="1" /><path clip-path="url(#clip450)" d="M42.4881 1010.26 L64.0042 1010.26 L64.0042 1016.11 L42.679 1016.11 Q37.6183 1016.11 35.1038 1018.09 Q32.5894 1020.06 32.5894 1024.01 Q32.5894 1028.75 35.6131 1031.49 Q38.6368 1034.23 43.8567 1034.23 L64.0042 1034.23 L64.0042 1040.11 L28.3562 1040.11 L28.3562 1034.23 L33.8944 1034.23 Q30.6797 1032.12 29.0883 1029.29 Q27.4968 1026.43 27.4968 1022.7 Q27.4968 1016.56 31.3163 1013.41 Q35.1038 1010.26 42.4881 1010.26 Z" fill="#000000" fill-rule="evenodd" fill-opacity="1" /><path clip-path="url(#clip450)" d="M42.4881 968.945 L64.0042 968.945 L64.0042 974.801 L42.679 974.801 Q37.6183 974.801 35.1038 976.775 Q32.5894 978.748 32.5894 982.695 Q32.5894 987.437 35.6131 990.174 Q38.6368 992.912 43.8567 992.912 L64.0042 992.912 L64.0042 998.8 L28.3562 998.8 L28.3562 992.912 L33.8944 992.912 Q30.6797 990.811 29.0883 987.978 Q27.4968 985.114 27.4968 981.39 Q27.4968 975.247 31.3163 972.096 Q35.1038 968.945 42.4881 968.945 Z" fill="#000000" fill-rule="evenodd" fill-opacity="1" /><path clip-path="url(#clip450)" d="M28.3562 957.264 L28.3562 951.407 L64.0042 951.407 L64.0042 957.264 L28.3562 957.264 M14.479 957.264 L14.479 951.407 L21.895 951.407 L21.895 957.264 L14.479 957.264 Z" fill="#000000" fill-rule="evenodd" fill-opacity="1" /><path clip-path="url(#clip450)" d="M42.4881 909.521 L64.0042 909.521 L64.0042 915.377 L42.679 915.377 Q37.6183 915.377 35.1038 917.351 Q32.5894 919.324 32.5894 923.271 Q32.5894 928.013 35.6131 930.751 Q38.6368 933.488 43.8567 933.488 L64.0042 933.488 L64.0042 939.376 L28.3562 939.376 L28.3562 933.488 L33.8944 933.488 Q30.6797 931.387 29.0883 928.554 Q27.4968 925.69 27.4968 921.966 Q27.4968 915.823 31.3163 912.672 Q35.1038 909.521 42.4881 909.521 Z" fill="#000000" fill-rule="evenodd" fill-opacity="1" /><path clip-path="url(#clip450)" d="M45.7664 874.382 Q39.4007 874.382 35.8996 877.024 Q32.3984 879.634 32.3984 884.376 Q32.3984 889.087 35.8996 891.729 Q39.4007 894.339 45.7664 894.339 Q52.1003 894.339 55.6014 891.729 Q59.1026 889.087 59.1026 884.376 Q59.1026 879.634 55.6014 877.024 Q52.1003 874.382 45.7664 874.382 M59.58 868.526 Q68.683 868.526 73.1071 872.568 Q77.5631 876.61 77.5631 884.949 Q77.5631 888.037 77.0857 890.774 Q76.6401 893.511 75.6852 896.089 L69.9879 896.089 Q71.3884 893.511 72.0568 890.997 Q72.7252 888.482 72.7252 885.872 Q72.7252 880.111 69.7015 877.247 Q66.7096 874.382 60.6303 874.382 L57.7339 874.382 Q60.885 876.196 62.4446 879.029 Q64.0042 881.862 64.0042 885.809 Q64.0042 892.365 59.0071 896.376 Q54.01 900.386 45.7664 900.386 Q37.491 900.386 32.4939 896.376 Q27.4968 892.365 27.4968 885.809 Q27.4968 881.862 29.0564 879.029 Q30.616 876.196 33.7671 874.382 L28.3562 874.382 L28.3562 868.526 L59.58 868.526 Z" fill="#000000" fill-rule="evenodd" fill-opacity="1" /><path clip-path="url(#clip450)" d="M18.2347 829.95 L28.3562 829.95 L28.3562 817.887 L32.9077 817.887 L32.9077 829.95 L52.2594 829.95 Q56.6199 829.95 57.8613 828.772 Q59.1026 827.562 59.1026 823.902 L59.1026 817.887 L64.0042 817.887 L64.0042 823.902 Q64.0042 830.682 61.4897 833.26 Q58.9434 835.838 52.2594 835.838 L32.9077 835.838 L32.9077 840.135 L28.3562 840.135 L28.3562 835.838 L18.2347 835.838 L18.2347 829.95 Z" fill="#000000" fill-rule="evenodd" fill-opacity="1" /><path clip-path="url(#clip450)" d="M28.3562 810.184 L28.3562 804.328 L64.0042 804.328 L64.0042 810.184 L28.3562 810.184 M14.479 810.184 L14.479 804.328 L21.895 804.328 L21.895 810.184 L14.479 810.184 Z" fill="#000000" fill-rule="evenodd" fill-opacity="1" /><path clip-path="url(#clip450)" d="M35.1993 764.319 Q31.2526 762.123 29.3747 759.067 Q27.4968 756.012 27.4968 751.874 Q27.4968 746.304 31.4117 743.281 Q35.2948 740.257 42.4881 740.257 L64.0042 740.257 L64.0042 746.145 L42.679 746.145 Q37.5546 746.145 35.072 747.959 Q32.5894 749.774 32.5894 753.497 Q32.5894 758.049 35.6131 760.691 Q38.6368 763.332 43.8567 763.332 L64.0042 763.332 L64.0042 769.221 L42.679 769.221 Q37.5228 769.221 35.072 771.035 Q32.5894 772.849 32.5894 776.637 Q32.5894 781.125 35.6449 783.766 Q38.6686 786.408 43.8567 786.408 L64.0042 786.408 L64.0042 792.296 L28.3562 792.296 L28.3562 786.408 L33.8944 786.408 Q30.616 784.403 29.0564 781.602 Q27.4968 778.801 27.4968 774.95 Q27.4968 771.067 29.4702 768.361 Q31.4436 765.624 35.1993 764.319 Z" fill="#000000" fill-rule="evenodd" fill-opacity="1" /><path clip-path="url(#clip450)" d="M44.7161 698.084 L47.5806 698.084 L47.5806 725.011 Q53.6281 724.629 56.8109 721.382 Q59.9619 718.104 59.9619 712.28 Q59.9619 708.906 59.1344 705.755 Q58.3069 702.572 56.6518 699.453 L62.1899 699.453 Q63.5267 702.604 64.227 705.914 Q64.9272 709.224 64.9272 712.63 Q64.9272 721.16 59.9619 726.157 Q54.9967 731.122 46.5303 731.122 Q37.7774 731.122 32.6531 726.411 Q27.4968 721.669 27.4968 713.648 Q27.4968 706.455 32.1438 702.285 Q36.7589 698.084 44.7161 698.084 M42.9973 703.94 Q38.1912 704.004 35.3266 706.646 Q32.4621 709.256 32.4621 713.584 Q32.4621 718.486 35.2312 721.446 Q38.0002 724.374 43.0292 724.82 L42.9973 703.94 Z" fill="#000000" fill-rule="evenodd" fill-opacity="1" /><path clip-path="url(#clip450)" d="M14.5426 653.683 Q21.8632 657.948 29.0246 660.017 Q36.186 662.086 43.5384 662.086 Q50.8908 662.086 58.1159 660.017 Q65.3091 657.916 72.5979 653.683 L72.5979 658.776 Q65.1182 663.55 57.8931 665.937 Q50.668 668.292 43.5384 668.292 Q36.4406 668.292 29.2474 665.937 Q22.0542 663.582 14.5426 658.776 L14.5426 653.683 Z" fill="#000000" fill-rule="evenodd" fill-opacity="1" /><path clip-path="url(#clip450)" d="M29.4065 619.595 L34.9447 619.595 Q33.6716 622.077 33.035 624.751 Q32.3984 627.425 32.3984 630.289 Q32.3984 634.65 33.7352 636.846 Q35.072 639.01 37.7456 639.01 Q39.7826 639.01 40.9603 637.451 Q42.1061 635.891 43.1565 631.18 L43.6021 629.175 Q44.9389 622.937 47.3897 620.327 Q49.8086 617.685 54.1691 617.685 Q59.1344 617.685 62.0308 621.632 Q64.9272 625.547 64.9272 632.422 Q64.9272 635.286 64.3543 638.405 Q63.8132 641.493 62.6992 644.93 L56.6518 644.93 Q58.3387 641.684 59.198 638.533 Q60.0256 635.382 60.0256 632.294 Q60.0256 628.157 58.6251 625.929 Q57.1929 623.701 54.6147 623.701 Q52.2276 623.701 50.9545 625.324 Q49.6813 626.915 48.5037 632.358 L48.0262 634.395 Q46.8804 639.838 44.5251 642.257 Q42.138 644.676 38.0002 644.676 Q32.9713 644.676 30.2341 641.111 Q27.4968 637.546 27.4968 630.989 Q27.4968 627.743 27.9743 624.878 Q28.4517 622.014 29.4065 619.595 Z" fill="#000000" fill-rule="evenodd" fill-opacity="1" /><path clip-path="url(#clip450)" d="M44.7161 577.868 L47.5806 577.868 L47.5806 604.795 Q53.6281 604.413 56.8109 601.166 Q59.9619 597.888 59.9619 592.063 Q59.9619 588.689 59.1344 585.538 Q58.3069 582.355 56.6518 579.236 L62.1899 579.236 Q63.5267 582.387 64.227 585.697 Q64.9272 589.008 64.9272 592.413 Q64.9272 600.943 59.9619 605.94 Q54.9967 610.906 46.5303 610.906 Q37.7774 610.906 32.6531 606.195 Q27.4968 601.453 27.4968 593.432 Q27.4968 586.239 32.1438 582.069 Q36.7589 577.868 44.7161 577.868 M42.9973 583.724 Q38.1912 583.788 35.3266 586.429 Q32.4621 589.039 32.4621 593.368 Q32.4621 598.27 35.2312 601.23 Q38.0002 604.158 43.0292 604.604 L42.9973 583.724 Z" fill="#000000" fill-rule="evenodd" fill-opacity="1" /><path clip-path="url(#clip450)" d="M29.7248 542.602 L35.1993 542.602 Q33.8307 545.084 33.1623 547.599 Q32.4621 550.081 32.4621 552.628 Q32.4621 558.325 36.0905 561.476 Q39.6872 564.627 46.212 564.627 Q52.7369 564.627 56.3653 561.476 Q59.9619 558.325 59.9619 552.628 Q59.9619 550.081 59.2935 547.599 Q58.5933 545.084 57.2247 542.602 L62.6355 542.602 Q63.7814 545.052 64.3543 547.694 Q64.9272 550.304 64.9272 553.264 Q64.9272 561.317 59.8664 566.059 Q54.8057 570.802 46.212 570.802 Q37.491 570.802 32.4939 566.027 Q27.4968 561.221 27.4968 552.882 Q27.4968 550.177 28.0697 547.599 Q28.6108 545.021 29.7248 542.602 Z" fill="#000000" fill-rule="evenodd" fill-opacity="1" /><path clip-path="url(#clip450)" d="M32.4621 518.603 Q32.4621 523.314 36.1542 526.051 Q39.8145 528.788 46.212 528.788 Q52.6095 528.788 56.3017 526.083 Q59.9619 523.345 59.9619 518.603 Q59.9619 513.924 56.2698 511.187 Q52.5777 508.45 46.212 508.45 Q39.8781 508.45 36.186 511.187 Q32.4621 513.924 32.4621 518.603 M27.4968 518.603 Q27.4968 510.964 32.4621 506.604 Q37.4273 502.243 46.212 502.243 Q54.9649 502.243 59.9619 506.604 Q64.9272 510.964 64.9272 518.603 Q64.9272 526.274 59.9619 530.634 Q54.9649 534.963 46.212 534.963 Q37.4273 534.963 32.4621 530.634 Q27.4968 526.274 27.4968 518.603 Z" fill="#000000" fill-rule="evenodd" fill-opacity="1" /><path clip-path="url(#clip450)" d="M42.4881 462.903 L64.0042 462.903 L64.0042 468.759 L42.679 468.759 Q37.6183 468.759 35.1038 470.733 Q32.5894 472.706 32.5894 476.653 Q32.5894 481.395 35.6131 484.133 Q38.6368 486.87 43.8567 486.87 L64.0042 486.87 L64.0042 492.758 L28.3562 492.758 L28.3562 486.87 L33.8944 486.87 Q30.6797 484.769 29.0883 481.936 Q27.4968 479.072 27.4968 475.348 Q27.4968 469.205 31.3163 466.054 Q35.1038 462.903 42.4881 462.903 Z" fill="#000000" fill-rule="evenodd" fill-opacity="1" /><path clip-path="url(#clip450)" d="M33.7671 427.764 L14.479 427.764 L14.479 421.908 L64.0042 421.908 L64.0042 427.764 L58.657 427.764 Q61.8398 429.61 63.3994 432.443 Q64.9272 435.244 64.9272 439.191 Q64.9272 445.652 59.771 449.726 Q54.6147 453.768 46.212 453.768 Q37.8093 453.768 32.6531 449.726 Q27.4968 445.652 27.4968 439.191 Q27.4968 435.244 29.0564 432.443 Q30.5842 429.61 33.7671 427.764 M46.212 447.721 Q52.6732 447.721 56.3653 445.079 Q60.0256 442.405 60.0256 437.758 Q60.0256 433.111 56.3653 430.438 Q52.6732 427.764 46.212 427.764 Q39.7508 427.764 36.0905 430.438 Q32.3984 433.111 32.3984 437.758 Q32.3984 442.405 36.0905 445.079 Q39.7508 447.721 46.212 447.721 Z" fill="#000000" fill-rule="evenodd" fill-opacity="1" /><path clip-path="url(#clip450)" d="M29.4065 387.119 L34.9447 387.119 Q33.6716 389.602 33.035 392.275 Q32.3984 394.949 32.3984 397.814 Q32.3984 402.174 33.7352 404.37 Q35.072 406.535 37.7456 406.535 Q39.7826 406.535 40.9603 404.975 Q42.1061 403.415 43.1565 398.705 L43.6021 396.7 Q44.9389 390.461 47.3897 387.851 Q49.8086 385.21 54.1691 385.21 Q59.1344 385.21 62.0308 389.156 Q64.9272 393.071 64.9272 399.946 Q64.9272 402.811 64.3543 405.93 Q63.8132 409.017 62.6992 412.455 L56.6518 412.455 Q58.3387 409.208 59.198 406.057 Q60.0256 402.906 60.0256 399.819 Q60.0256 395.681 58.6251 393.453 Q57.1929 391.225 54.6147 391.225 Q52.2276 391.225 50.9545 392.848 Q49.6813 394.44 48.5037 399.882 L48.0262 401.919 Q46.8804 407.362 44.5251 409.781 Q42.138 412.2 38.0002 412.2 Q32.9713 412.2 30.2341 408.635 Q27.4968 405.071 27.4968 398.514 Q27.4968 395.267 27.9743 392.403 Q28.4517 389.538 29.4065 387.119 Z" fill="#000000" fill-rule="evenodd" fill-opacity="1" /><path clip-path="url(#clip450)" d="M14.5426 376.807 L14.5426 371.714 Q22.0542 366.94 29.2474 364.585 Q36.4406 362.197 43.5384 362.197 Q50.668 362.197 57.8931 364.585 Q65.1182 366.94 72.5979 371.714 L72.5979 376.807 Q65.3091 372.574 58.1159 370.505 Q50.8908 368.404 43.5384 368.404 Q36.186 368.404 29.0246 370.505 Q21.8632 372.574 14.5426 376.807 Z" fill="#000000" fill-rule="evenodd" fill-opacity="1" /><polyline clip-path="url(#clip452)" style="stroke:#009af9; stroke-linecap:butt; stroke-linejoin:round; stroke-width:4; stroke-opacity:1; fill:none" points="
  307.043,1319.15 347.166,1384.15 427.414,1378.64 487.6,1372.38 888.838,1270.66 1691.31,783.824 2293.17,180.062 
  "/>
<polyline clip-path="url(#clip452)" style="stroke:#e26f46; stroke-linecap:butt; stroke-linejoin:round; stroke-width:4; stroke-opacity:1; fill:none" points="
  307.043,1332.33 347.166,1384.24 427.414,1376.14 487.6,1369.37 888.838,1262.78 1691.31,721.543 2293.17,86.1857 
  "/>
<path clip-path="url(#clip450)" d="
M1832.27 248.629 L2282.58 248.629 L2282.58 93.1086 L1832.27 93.1086  Z
  " fill="#ffffff" fill-rule="evenodd" fill-opacity="1"/>
<polyline clip-path="url(#clip450)" style="stroke:#000000; stroke-linecap:butt; stroke-linejoin:round; stroke-width:4; stroke-opacity:1; fill:none" points="
  1832.27,248.629 2282.58,248.629 2282.58,93.1086 1832.27,93.1086 1832.27,248.629 
  "/>
<polyline clip-path="url(#clip450)" style="stroke:#009af9; stroke-linecap:butt; stroke-linejoin:round; stroke-width:4; stroke-opacity:1; fill:none" points="
  1855.66,144.949 1996.02,144.949 
  "/>
<path clip-path="url(#clip450)" d="M2031.31 139.289 Q2027.88 139.289 2025.89 141.974 Q2023.9 144.636 2023.9 149.289 Q2023.9 153.942 2025.87 156.627 Q2027.86 159.289 2031.31 159.289 Q2034.71 159.289 2036.7 156.604 Q2038.69 153.918 2038.69 149.289 Q2038.69 144.682 2036.7 141.997 Q2034.71 139.289 2031.31 139.289 M2031.31 135.678 Q2036.86 135.678 2040.03 139.289 Q2043.2 142.9 2043.2 149.289 Q2043.2 155.655 2040.03 159.289 Q2036.86 162.9 2031.31 162.9 Q2025.73 162.9 2022.56 159.289 Q2019.41 155.655 2019.41 149.289 Q2019.41 142.9 2022.56 139.289 Q2025.73 135.678 2031.31 135.678 Z" fill="#000000" fill-rule="evenodd" fill-opacity="1" /><path clip-path="url(#clip450)" d="M2065.29 140.284 Q2064.57 139.868 2063.71 139.682 Q2062.88 139.474 2061.86 139.474 Q2058.25 139.474 2056.31 141.835 Q2054.38 144.173 2054.38 148.571 L2054.38 162.229 L2050.1 162.229 L2050.1 136.303 L2054.38 136.303 L2054.38 140.331 Q2055.73 137.969 2057.88 136.835 Q2060.03 135.678 2063.11 135.678 Q2063.55 135.678 2064.08 135.747 Q2064.62 135.794 2065.26 135.909 L2065.29 140.284 Z" fill="#000000" fill-rule="evenodd" fill-opacity="1" /><path clip-path="url(#clip450)" d="M2069.75 136.303 L2074.01 136.303 L2074.01 162.229 L2069.75 162.229 L2069.75 136.303 M2069.75 126.21 L2074.01 126.21 L2074.01 131.604 L2069.75 131.604 L2069.75 126.21 Z" fill="#000000" fill-rule="evenodd" fill-opacity="1" /><path clip-path="url(#clip450)" d="M2099.99 148.965 Q2099.99 144.335 2098.06 141.789 Q2096.17 139.243 2092.72 139.243 Q2089.29 139.243 2087.37 141.789 Q2085.47 144.335 2085.47 148.965 Q2085.47 153.571 2087.37 156.118 Q2089.29 158.664 2092.72 158.664 Q2096.17 158.664 2098.06 156.118 Q2099.99 153.571 2099.99 148.965 M2104.24 159.011 Q2104.24 165.631 2101.3 168.849 Q2098.37 172.09 2092.3 172.09 Q2090.05 172.09 2088.06 171.742 Q2086.07 171.418 2084.2 170.724 L2084.2 166.58 Q2086.07 167.599 2087.9 168.085 Q2089.73 168.571 2091.63 168.571 Q2095.82 168.571 2097.9 166.372 Q2099.99 164.196 2099.99 159.775 L2099.99 157.668 Q2098.67 159.96 2096.61 161.094 Q2094.55 162.229 2091.68 162.229 Q2086.91 162.229 2083.99 158.594 Q2081.07 154.96 2081.07 148.965 Q2081.07 142.946 2083.99 139.312 Q2086.91 135.678 2091.68 135.678 Q2094.55 135.678 2096.61 136.812 Q2098.67 137.946 2099.99 140.238 L2099.99 136.303 L2104.24 136.303 L2104.24 159.011 Z" fill="#000000" fill-rule="evenodd" fill-opacity="1" /><path clip-path="url(#clip450)" d="M2113.02 136.303 L2117.28 136.303 L2117.28 162.229 L2113.02 162.229 L2113.02 136.303 M2113.02 126.21 L2117.28 126.21 L2117.28 131.604 L2113.02 131.604 L2113.02 126.21 Z" fill="#000000" fill-rule="evenodd" fill-opacity="1" /><path clip-path="url(#clip450)" d="M2147.74 146.581 L2147.74 162.229 L2143.48 162.229 L2143.48 146.719 Q2143.48 143.039 2142.05 141.21 Q2140.61 139.382 2137.74 139.382 Q2134.29 139.382 2132.3 141.581 Q2130.31 143.78 2130.31 147.576 L2130.31 162.229 L2126.03 162.229 L2126.03 136.303 L2130.31 136.303 L2130.31 140.331 Q2131.84 137.993 2133.9 136.835 Q2135.98 135.678 2138.69 135.678 Q2143.16 135.678 2145.45 138.456 Q2147.74 141.21 2147.74 146.581 Z" fill="#000000" fill-rule="evenodd" fill-opacity="1" /><path clip-path="url(#clip450)" d="M2168.02 149.196 Q2162.86 149.196 2160.86 150.377 Q2158.87 151.557 2158.87 154.405 Q2158.87 156.673 2160.36 158.016 Q2161.86 159.335 2164.43 159.335 Q2167.97 159.335 2170.1 156.835 Q2172.25 154.312 2172.25 150.145 L2172.25 149.196 L2168.02 149.196 M2176.51 147.437 L2176.51 162.229 L2172.25 162.229 L2172.25 158.293 Q2170.8 160.655 2168.62 161.789 Q2166.44 162.9 2163.3 162.9 Q2159.31 162.9 2156.95 160.678 Q2154.61 158.432 2154.61 154.682 Q2154.61 150.307 2157.53 148.085 Q2160.47 145.863 2166.28 145.863 L2172.25 145.863 L2172.25 145.446 Q2172.25 142.507 2170.31 140.909 Q2168.39 139.289 2164.89 139.289 Q2162.67 139.289 2160.56 139.821 Q2158.46 140.354 2156.51 141.419 L2156.51 137.483 Q2158.85 136.581 2161.05 136.141 Q2163.25 135.678 2165.33 135.678 Q2170.96 135.678 2173.74 138.594 Q2176.51 141.511 2176.51 147.437 Z" fill="#000000" fill-rule="evenodd" fill-opacity="1" /><path clip-path="url(#clip450)" d="M2185.29 126.21 L2189.55 126.21 L2189.55 162.229 L2185.29 162.229 L2185.29 126.21 Z" fill="#000000" fill-rule="evenodd" fill-opacity="1" /><polyline clip-path="url(#clip450)" style="stroke:#e26f46; stroke-linecap:butt; stroke-linejoin:round; stroke-width:4; stroke-opacity:1; fill:none" points="
  1855.66,196.789 1996.02,196.789 
  "/>
<path clip-path="url(#clip450)" d="M2019.41 188.143 L2023.67 188.143 L2028.99 208.374 L2034.29 188.143 L2039.31 188.143 L2044.64 208.374 L2049.94 188.143 L2054.2 188.143 L2047.42 214.069 L2042.39 214.069 L2036.81 192.819 L2031.21 214.069 L2026.19 214.069 L2019.41 188.143 Z" fill="#000000" fill-rule="evenodd" fill-opacity="1" /><path clip-path="url(#clip450)" d="M2060.66 188.143 L2064.92 188.143 L2064.92 214.069 L2060.66 214.069 L2060.66 188.143 M2060.66 178.05 L2064.92 178.05 L2064.92 183.444 L2060.66 183.444 L2060.66 178.05 Z" fill="#000000" fill-rule="evenodd" fill-opacity="1" /><path clip-path="url(#clip450)" d="M2078.04 180.782 L2078.04 188.143 L2086.81 188.143 L2086.81 191.453 L2078.04 191.453 L2078.04 205.527 Q2078.04 208.698 2078.9 209.601 Q2079.78 210.504 2082.44 210.504 L2086.81 210.504 L2086.81 214.069 L2082.44 214.069 Q2077.51 214.069 2075.63 212.24 Q2073.76 210.388 2073.76 205.527 L2073.76 191.453 L2070.63 191.453 L2070.63 188.143 L2073.76 188.143 L2073.76 180.782 L2078.04 180.782 Z" fill="#000000" fill-rule="evenodd" fill-opacity="1" /><path clip-path="url(#clip450)" d="M2113.97 198.421 L2113.97 214.069 L2109.71 214.069 L2109.71 198.559 Q2109.71 194.879 2108.27 193.05 Q2106.84 191.222 2103.97 191.222 Q2100.52 191.222 2098.53 193.421 Q2096.54 195.62 2096.54 199.416 L2096.54 214.069 L2092.25 214.069 L2092.25 178.05 L2096.54 178.05 L2096.54 192.171 Q2098.06 189.833 2100.12 188.675 Q2102.21 187.518 2104.92 187.518 Q2109.38 187.518 2111.68 190.296 Q2113.97 193.05 2113.97 198.421 Z" fill="#000000" fill-rule="evenodd" fill-opacity="1" /><path clip-path="url(#clip450)" d="M2157.72 193.12 Q2159.31 190.249 2161.54 188.884 Q2163.76 187.518 2166.77 187.518 Q2170.82 187.518 2173.02 190.365 Q2175.22 193.189 2175.22 198.421 L2175.22 214.069 L2170.93 214.069 L2170.93 198.559 Q2170.93 194.833 2169.61 193.027 Q2168.3 191.222 2165.59 191.222 Q2162.28 191.222 2160.36 193.421 Q2158.43 195.62 2158.43 199.416 L2158.43 214.069 L2154.15 214.069 L2154.15 198.559 Q2154.15 194.809 2152.83 193.027 Q2151.51 191.222 2148.76 191.222 Q2145.49 191.222 2143.57 193.444 Q2141.65 195.643 2141.65 199.416 L2141.65 214.069 L2137.37 214.069 L2137.37 188.143 L2141.65 188.143 L2141.65 192.171 Q2143.11 189.786 2145.15 188.652 Q2147.18 187.518 2149.99 187.518 Q2152.81 187.518 2154.78 188.953 Q2156.77 190.388 2157.72 193.12 Z" fill="#000000" fill-rule="evenodd" fill-opacity="1" /><path clip-path="url(#clip450)" d="M2195.49 201.036 Q2190.33 201.036 2188.34 202.217 Q2186.35 203.397 2186.35 206.245 Q2186.35 208.513 2187.83 209.856 Q2189.34 211.175 2191.91 211.175 Q2195.45 211.175 2197.58 208.675 Q2199.73 206.152 2199.73 201.985 L2199.73 201.036 L2195.49 201.036 M2203.99 199.277 L2203.99 214.069 L2199.73 214.069 L2199.73 210.133 Q2198.27 212.495 2196.1 213.629 Q2193.92 214.74 2190.77 214.74 Q2186.79 214.74 2184.43 212.518 Q2182.09 210.272 2182.09 206.522 Q2182.09 202.147 2185.01 199.925 Q2187.95 197.703 2193.76 197.703 L2199.73 197.703 L2199.73 197.286 Q2199.73 194.347 2197.79 192.749 Q2195.86 191.129 2192.37 191.129 Q2190.15 191.129 2188.04 191.661 Q2185.93 192.194 2183.99 193.259 L2183.99 189.323 Q2186.33 188.421 2188.53 187.981 Q2190.73 187.518 2192.81 187.518 Q2198.43 187.518 2201.21 190.434 Q2203.99 193.351 2203.99 199.277 Z" fill="#000000" fill-rule="evenodd" fill-opacity="1" /><path clip-path="url(#clip450)" d="M2216.88 210.18 L2216.88 223.93 L2212.6 223.93 L2212.6 188.143 L2216.88 188.143 L2216.88 192.078 Q2218.23 189.763 2220.26 188.652 Q2222.32 187.518 2225.17 187.518 Q2229.89 187.518 2232.83 191.268 Q2235.79 195.018 2235.79 201.129 Q2235.79 207.24 2232.83 210.99 Q2229.89 214.74 2225.17 214.74 Q2222.32 214.74 2220.26 213.629 Q2218.23 212.495 2216.88 210.18 M2231.37 201.129 Q2231.37 196.43 2229.43 193.768 Q2227.51 191.083 2224.13 191.083 Q2220.75 191.083 2218.8 193.768 Q2216.88 196.43 2216.88 201.129 Q2216.88 205.828 2218.8 208.513 Q2220.75 211.175 2224.13 211.175 Q2227.51 211.175 2229.43 208.513 Q2231.37 205.828 2231.37 201.129 Z" fill="#000000" fill-rule="evenodd" fill-opacity="1" /></svg>
