<?xml version="1.0" encoding="utf-8"?>
<svg xmlns="http://www.w3.org/2000/svg" xmlns:xlink="http://www.w3.org/1999/xlink" width="600" height="400" viewBox="0 0 2400 1600">
<defs>
  <clipPath id="clip090">
    <rect x="0" y="0" width="2400" height="1600"/>
  </clipPath>
</defs>
<path clip-path="url(#clip090)" d="
M0 1600 L2400 1600 L2400 0 L0 0  Z
  " fill="#ffffff" fill-rule="evenodd" fill-opacity="1"/>
<defs>
  <clipPath id="clip091">
    <rect x="480" y="0" width="1681" height="1600"/>
  </clipPath>
</defs>
<path clip-path="url(#clip090)" d="
M247.459 1423.18 L2352.76 1423.18 L2352.76 47.2441 L247.459 47.2441  Z
  " fill="#ffffff" fill-rule="evenodd" fill-opacity="1"/>
<defs>
  <clipPath id="clip092">
    <rect x="247" y="47" width="2106" height="1377"/>
  </clipPath>
</defs>
<polyline clip-path="url(#clip092)" style="stroke:#000000; stroke-linecap:butt; stroke-linejoin:round; stroke-width:2; stroke-opacity:0.1; fill:none" points="
  286.981,1423.18 286.981,47.2441 
  "/>
<polyline clip-path="url(#clip092)" style="stroke:#000000; stroke-linecap:butt; stroke-linejoin:round; stroke-width:2; stroke-opacity:0.1; fill:none" points="
  788.529,1423.18 788.529,47.2441 
  "/>
<polyline clip-path="url(#clip092)" style="stroke:#000000; stroke-linecap:butt; stroke-linejoin:round; stroke-width:2; stroke-opacity:0.1; fill:none" points="
  1290.08,1423.18 1290.08,47.2441 
  "/>
<polyline clip-path="url(#clip092)" style="stroke:#000000; stroke-linecap:butt; stroke-linejoin:round; stroke-width:2; stroke-opacity:0.1; fill:none" points="
  1791.62,1423.18 1791.62,47.2441 
  "/>
<polyline clip-path="url(#clip092)" style="stroke:#000000; stroke-linecap:butt; stroke-linejoin:round; stroke-width:2; stroke-opacity:0.1; fill:none" points="
  2293.17,1423.18 2293.17,47.2441 
  "/>
<polyline clip-path="url(#clip090)" style="stroke:#000000; stroke-linecap:butt; stroke-linejoin:round; stroke-width:4; stroke-opacity:1; fill:none" points="
  247.459,1423.18 2352.76,1423.18 
  "/>
<polyline clip-path="url(#clip090)" style="stroke:#000000; stroke-linecap:butt; stroke-linejoin:round; stroke-width:4; stroke-opacity:1; fill:none" points="
  286.981,1423.18 286.981,1404.28 
  "/>
<polyline clip-path="url(#clip090)" style="stroke:#000000; stroke-linecap:butt; stroke-linejoin:round; stroke-width:4; stroke-opacity:1; fill:none" points="
  788.529,1423.18 788.529,1404.28 
  "/>
<polyline clip-path="url(#clip090)" style="stroke:#000000; stroke-linecap:butt; stroke-linejoin:round; stroke-width:4; stroke-opacity:1; fill:none" points="
  1290.08,1423.18 1290.08,1404.28 
  "/>
<polyline clip-path="url(#clip090)" style="stroke:#000000; stroke-linecap:butt; stroke-linejoin:round; stroke-width:4; stroke-opacity:1; fill:none" points="
  1791.62,1423.18 1791.62,1404.28 
  "/>
<polyline clip-path="url(#clip090)" style="stroke:#000000; stroke-linecap:butt; stroke-linejoin:round; stroke-width:4; stroke-opacity:1; fill:none" points="
  2293.17,1423.18 2293.17,1404.28 
  "/>
<path clip-path="url(#clip090)" d="M286.981 1454.1 Q283.37 1454.1 281.541 1457.66 Q279.735 1461.2 279.735 1468.33 Q279.735 1475.44 281.541 1479.01 Q283.37 1482.55 286.981 1482.55 Q290.615 1482.55 292.42 1479.01 Q294.249 1475.44 294.249 1468.33 Q294.249 1461.2 292.42 1457.66 Q290.615 1454.1 286.981 1454.1 M286.981 1450.39 Q292.791 1450.39 295.846 1455 Q298.925 1459.58 298.925 1468.33 Q298.925 1477.06 295.846 1481.67 Q292.791 1486.25 286.981 1486.25 Q281.171 1486.25 278.092 1481.67 Q275.036 1477.06 275.036 1468.33 Q275.036 1459.58 278.092 1455 Q281.171 1450.39 286.981 1450.39 Z" fill="#000000" fill-rule="evenodd" fill-opacity="1" /><path clip-path="url(#clip090)" d="M767.799 1481.64 L784.119 1481.64 L784.119 1485.58 L762.174 1485.58 L762.174 1481.64 Q764.837 1478.89 769.42 1474.26 Q774.026 1469.61 775.207 1468.27 Q777.452 1465.74 778.332 1464.01 Q779.235 1462.25 779.235 1460.56 Q779.235 1457.8 777.29 1456.07 Q775.369 1454.33 772.267 1454.33 Q770.068 1454.33 767.614 1455.09 Q765.184 1455.86 762.406 1457.41 L762.406 1452.69 Q765.23 1451.55 767.684 1450.97 Q770.137 1450.39 772.174 1450.39 Q777.545 1450.39 780.739 1453.08 Q783.934 1455.77 783.934 1460.26 Q783.934 1462.39 783.123 1464.31 Q782.336 1466.2 780.23 1468.8 Q779.651 1469.47 776.549 1472.69 Q773.448 1475.88 767.799 1481.64 Z" fill="#000000" fill-rule="evenodd" fill-opacity="1" /><path clip-path="url(#clip090)" d="M793.98 1451.02 L812.336 1451.02 L812.336 1454.96 L798.262 1454.96 L798.262 1463.43 Q799.281 1463.08 800.299 1462.92 Q801.318 1462.73 802.336 1462.73 Q808.123 1462.73 811.503 1465.9 Q814.883 1469.08 814.883 1474.49 Q814.883 1480.07 811.41 1483.17 Q807.938 1486.25 801.619 1486.25 Q799.443 1486.25 797.174 1485.88 Q794.929 1485.51 792.522 1484.77 L792.522 1480.07 Q794.605 1481.2 796.827 1481.76 Q799.049 1482.32 801.526 1482.32 Q805.531 1482.32 807.869 1480.21 Q810.207 1478.1 810.207 1474.49 Q810.207 1470.88 807.869 1468.77 Q805.531 1466.67 801.526 1466.67 Q799.651 1466.67 797.776 1467.08 Q795.924 1467.5 793.98 1468.38 L793.98 1451.02 Z" fill="#000000" fill-rule="evenodd" fill-opacity="1" /><path clip-path="url(#clip090)" d="M1264.78 1451.02 L1283.13 1451.02 L1283.13 1454.96 L1269.06 1454.96 L1269.06 1463.43 Q1270.08 1463.08 1271.09 1462.92 Q1272.11 1462.73 1273.13 1462.73 Q1278.92 1462.73 1282.3 1465.9 Q1285.68 1469.08 1285.68 1474.49 Q1285.68 1480.07 1282.21 1483.17 Q1278.73 1486.25 1272.41 1486.25 Q1270.24 1486.25 1267.97 1485.88 Q1265.72 1485.51 1263.32 1484.77 L1263.32 1480.07 Q1265.4 1481.2 1267.62 1481.76 Q1269.84 1482.32 1272.32 1482.32 Q1276.33 1482.32 1278.66 1480.21 Q1281 1478.1 1281 1474.49 Q1281 1470.88 1278.66 1468.77 Q1276.33 1466.67 1272.32 1466.67 Q1270.45 1466.67 1268.57 1467.08 Q1266.72 1467.5 1264.78 1468.38 L1264.78 1451.02 Z" fill="#000000" fill-rule="evenodd" fill-opacity="1" /><path clip-path="url(#clip090)" d="M1304.89 1454.1 Q1301.28 1454.1 1299.45 1457.66 Q1297.65 1461.2 1297.65 1468.33 Q1297.65 1475.44 1299.45 1479.01 Q1301.28 1482.55 1304.89 1482.55 Q1308.53 1482.55 1310.33 1479.01 Q1312.16 1475.44 1312.16 1468.33 Q1312.16 1461.2 1310.33 1457.66 Q1308.53 1454.1 1304.89 1454.1 M1304.89 1450.39 Q1310.7 1450.39 1313.76 1455 Q1316.84 1459.58 1316.84 1468.33 Q1316.84 1477.06 1313.76 1481.67 Q1310.7 1486.25 1304.89 1486.25 Q1299.08 1486.25 1296 1481.67 Q1292.95 1477.06 1292.95 1468.33 Q1292.95 1459.58 1296 1455 Q1299.08 1450.39 1304.89 1450.39 Z" fill="#000000" fill-rule="evenodd" fill-opacity="1" /><path clip-path="url(#clip090)" d="M1765.48 1451.02 L1787.7 1451.02 L1787.7 1453.01 L1775.15 1485.58 L1770.27 1485.58 L1782.08 1454.96 L1765.48 1454.96 L1765.48 1451.02 Z" fill="#000000" fill-rule="evenodd" fill-opacity="1" /><path clip-path="url(#clip090)" d="M1796.87 1451.02 L1815.22 1451.02 L1815.22 1454.96 L1801.15 1454.96 L1801.15 1463.43 Q1802.17 1463.08 1803.19 1462.92 Q1804.21 1462.73 1805.22 1462.73 Q1811.01 1462.73 1814.39 1465.9 Q1817.77 1469.08 1817.77 1474.49 Q1817.77 1480.07 1814.3 1483.17 Q1810.83 1486.25 1804.51 1486.25 Q1802.33 1486.25 1800.06 1485.88 Q1797.82 1485.51 1795.41 1484.77 L1795.41 1480.07 Q1797.49 1481.2 1799.71 1481.76 Q1801.94 1482.32 1804.41 1482.32 Q1808.42 1482.32 1810.76 1480.21 Q1813.09 1478.1 1813.09 1474.49 Q1813.09 1470.88 1810.76 1468.77 Q1808.42 1466.67 1804.41 1466.67 Q1802.54 1466.67 1800.66 1467.08 Q1798.81 1467.5 1796.87 1468.38 L1796.87 1451.02 Z" fill="#000000" fill-rule="evenodd" fill-opacity="1" /><path clip-path="url(#clip090)" d="M2252.78 1481.64 L2260.42 1481.64 L2260.42 1455.28 L2252.11 1456.95 L2252.11 1452.69 L2260.37 1451.02 L2265.05 1451.02 L2265.05 1481.64 L2272.69 1481.64 L2272.69 1485.58 L2252.78 1485.58 L2252.78 1481.64 Z" fill="#000000" fill-rule="evenodd" fill-opacity="1" /><path clip-path="url(#clip090)" d="M2292.13 1454.1 Q2288.52 1454.1 2286.69 1457.66 Q2284.89 1461.2 2284.89 1468.33 Q2284.89 1475.44 2286.69 1479.01 Q2288.52 1482.55 2292.13 1482.55 Q2295.76 1482.55 2297.57 1479.01 Q2299.4 1475.44 2299.4 1468.33 Q2299.4 1461.2 2297.57 1457.66 Q2295.76 1454.1 2292.13 1454.1 M2292.13 1450.39 Q2297.94 1450.39 2301 1455 Q2304.07 1459.58 2304.07 1468.33 Q2304.07 1477.06 2301 1481.67 Q2297.94 1486.25 2292.13 1486.25 Q2286.32 1486.25 2283.24 1481.67 Q2280.19 1477.06 2280.19 1468.33 Q2280.19 1459.58 2283.24 1455 Q2286.32 1450.39 2292.13 1450.39 Z" fill="#000000" fill-rule="evenodd" fill-opacity="1" /><path clip-path="url(#clip090)" d="M2322.29 1454.1 Q2318.68 1454.1 2316.85 1457.66 Q2315.05 1461.2 2315.05 1468.33 Q2315.05 1475.44 2316.85 1479.01 Q2318.68 1482.55 2322.29 1482.55 Q2325.93 1482.55 2327.73 1479.01 Q2329.56 1475.44 2329.56 1468.33 Q2329.56 1461.2 2327.73 1457.66 Q2325.93 1454.1 2322.29 1454.1 M2322.29 1450.39 Q2328.1 1450.39 2331.16 1455 Q2334.24 1459.58 2334.24 1468.33 Q2334.24 1477.06 2331.16 1481.67 Q2328.1 1486.25 2322.29 1486.25 Q2316.48 1486.25 2313.4 1481.67 Q2310.35 1477.06 2310.35 1468.33 Q2310.35 1459.58 2313.4 1455 Q2316.48 1450.39 2322.29 1450.39 Z" fill="#000000" fill-rule="evenodd" fill-opacity="1" /><path clip-path="url(#clip090)" d="M971.303 1546.53 L971.303 1568.04 L965.446 1568.04 L965.446 1546.72 Q965.446 1541.66 963.473 1539.14 Q961.499 1536.63 957.553 1536.63 Q952.81 1536.63 950.073 1539.65 Q947.336 1542.68 947.336 1547.9 L947.336 1568.04 L941.447 1568.04 L941.447 1532.4 L947.336 1532.4 L947.336 1537.93 Q949.436 1534.72 952.269 1533.13 Q955.134 1531.54 958.858 1531.54 Q965.001 1531.54 968.152 1535.36 Q971.303 1539.14 971.303 1546.53 Z" fill="#000000" fill-rule="evenodd" fill-opacity="1" /><path clip-path="url(#clip090)" d="M982.379 1553.98 L982.379 1532.4 L988.235 1532.4 L988.235 1553.75 Q988.235 1558.81 990.209 1561.36 Q992.182 1563.87 996.129 1563.87 Q1000.87 1563.87 1003.61 1560.85 Q1006.38 1557.83 1006.38 1552.61 L1006.38 1532.4 L1012.23 1532.4 L1012.23 1568.04 L1006.38 1568.04 L1006.38 1562.57 Q1004.25 1565.82 1001.41 1567.41 Q998.612 1568.97 994.888 1568.97 Q988.745 1568.97 985.562 1565.15 Q982.379 1561.33 982.379 1553.98 M997.116 1531.54 L997.116 1531.54 Z" fill="#000000" fill-rule="evenodd" fill-opacity="1" /><path clip-path="url(#clip090)" d="M1052.05 1539.24 Q1054.25 1535.29 1057.3 1533.41 Q1060.36 1531.54 1064.5 1531.54 Q1070.07 1531.54 1073.09 1535.45 Q1076.11 1539.33 1076.11 1546.53 L1076.11 1568.04 L1070.23 1568.04 L1070.23 1546.72 Q1070.23 1541.59 1068.41 1539.11 Q1066.6 1536.63 1062.87 1536.63 Q1058.32 1536.63 1055.68 1539.65 Q1053.04 1542.68 1053.04 1547.9 L1053.04 1568.04 L1047.15 1568.04 L1047.15 1546.72 Q1047.15 1541.56 1045.34 1539.11 Q1043.52 1536.63 1039.73 1536.63 Q1035.25 1536.63 1032.6 1539.68 Q1029.96 1542.71 1029.96 1547.9 L1029.96 1568.04 L1024.07 1568.04 L1024.07 1532.4 L1029.96 1532.4 L1029.96 1537.93 Q1031.97 1534.66 1034.77 1533.1 Q1037.57 1531.54 1041.42 1531.54 Q1045.3 1531.54 1048.01 1533.51 Q1050.75 1535.48 1052.05 1539.24 Z" fill="#000000" fill-rule="evenodd" fill-opacity="1" /><path clip-path="url(#clip090)" d="M1113.39 1550.25 Q1113.39 1543.79 1110.71 1540.13 Q1108.07 1536.44 1103.42 1536.44 Q1098.78 1536.44 1096.1 1540.13 Q1093.46 1543.79 1093.46 1550.25 Q1093.46 1556.71 1096.1 1560.4 Q1098.78 1564.07 1103.42 1564.07 Q1108.07 1564.07 1110.71 1560.4 Q1113.39 1556.71 1113.39 1550.25 M1093.46 1537.81 Q1095.31 1534.62 1098.11 1533.1 Q1100.94 1531.54 1104.86 1531.54 Q1111.35 1531.54 1115.39 1536.69 Q1119.46 1541.85 1119.46 1550.25 Q1119.46 1558.65 1115.39 1563.81 Q1111.35 1568.97 1104.86 1568.97 Q1100.94 1568.97 1098.11 1567.44 Q1095.31 1565.88 1093.46 1562.7 L1093.46 1568.04 L1087.57 1568.04 L1087.57 1518.52 L1093.46 1518.52 L1093.46 1537.81 Z" fill="#000000" fill-rule="evenodd" fill-opacity="1" /><path clip-path="url(#clip090)" d="M1159.66 1548.76 L1159.66 1551.62 L1132.74 1551.62 Q1133.12 1557.67 1136.37 1560.85 Q1139.64 1564 1145.47 1564 Q1148.84 1564 1151.99 1563.17 Q1155.18 1562.35 1158.3 1560.69 L1158.3 1566.23 Q1155.14 1567.57 1151.83 1568.27 Q1148.52 1568.97 1145.12 1568.97 Q1136.59 1568.97 1131.59 1564 Q1126.63 1559.04 1126.63 1550.57 Q1126.63 1541.82 1131.34 1536.69 Q1136.08 1531.54 1144.1 1531.54 Q1151.29 1531.54 1155.46 1536.18 Q1159.66 1540.8 1159.66 1548.76 M1153.81 1547.04 Q1153.74 1542.23 1151.1 1539.37 Q1148.49 1536.5 1144.16 1536.5 Q1139.26 1536.5 1136.3 1539.27 Q1133.37 1542.04 1132.93 1547.07 L1153.81 1547.04 Z" fill="#000000" fill-rule="evenodd" fill-opacity="1" /><path clip-path="url(#clip090)" d="M1189.93 1537.87 Q1188.95 1537.3 1187.77 1537.04 Q1186.62 1536.76 1185.22 1536.76 Q1180.26 1536.76 1177.58 1540 Q1174.94 1543.22 1174.94 1549.27 L1174.94 1568.04 L1169.05 1568.04 L1169.05 1532.4 L1174.94 1532.4 L1174.94 1537.93 Q1176.79 1534.69 1179.75 1533.13 Q1182.71 1531.54 1186.94 1531.54 Q1187.55 1531.54 1188.28 1531.63 Q1189.01 1531.7 1189.9 1531.85 L1189.93 1537.87 Z" fill="#000000" fill-rule="evenodd" fill-opacity="1" /><path clip-path="url(#clip090)" d="M1230.61 1536.5 Q1225.9 1536.5 1223.16 1540.19 Q1220.42 1543.85 1220.42 1550.25 Q1220.42 1556.65 1223.13 1560.34 Q1225.87 1564 1230.61 1564 Q1235.29 1564 1238.03 1560.31 Q1240.76 1556.62 1240.76 1550.25 Q1240.76 1543.92 1238.03 1540.23 Q1235.29 1536.5 1230.61 1536.5 M1230.61 1531.54 Q1238.25 1531.54 1242.61 1536.5 Q1246.97 1541.47 1246.97 1550.25 Q1246.97 1559 1242.61 1564 Q1238.25 1568.97 1230.61 1568.97 Q1222.94 1568.97 1218.58 1564 Q1214.25 1559 1214.25 1550.25 Q1214.25 1541.47 1218.58 1536.5 Q1222.94 1531.54 1230.61 1531.54 Z" fill="#000000" fill-rule="evenodd" fill-opacity="1" /><path clip-path="url(#clip090)" d="M1274.72 1518.52 L1274.72 1523.39 L1269.12 1523.39 Q1265.97 1523.39 1264.73 1524.66 Q1263.52 1525.93 1263.52 1529.24 L1263.52 1532.4 L1273.16 1532.4 L1273.16 1536.95 L1263.52 1536.95 L1263.52 1568.04 L1257.63 1568.04 L1257.63 1536.95 L1252.03 1536.95 L1252.03 1532.4 L1257.63 1532.4 L1257.63 1529.91 Q1257.63 1523.96 1260.4 1521.26 Q1263.17 1518.52 1269.19 1518.52 L1274.72 1518.52 Z" fill="#000000" fill-rule="evenodd" fill-opacity="1" /><path clip-path="url(#clip090)" d="M1323.8 1537.81 L1323.8 1518.52 L1329.66 1518.52 L1329.66 1568.04 L1323.8 1568.04 L1323.8 1562.7 Q1321.96 1565.88 1319.12 1567.44 Q1316.32 1568.97 1312.38 1568.97 Q1305.92 1568.97 1301.84 1563.81 Q1297.8 1558.65 1297.8 1550.25 Q1297.8 1541.85 1301.84 1536.69 Q1305.92 1531.54 1312.38 1531.54 Q1316.32 1531.54 1319.12 1533.1 Q1321.96 1534.62 1323.8 1537.81 M1303.85 1550.25 Q1303.85 1556.71 1306.49 1560.4 Q1309.16 1564.07 1313.81 1564.07 Q1318.46 1564.07 1321.13 1560.4 Q1323.8 1556.71 1323.8 1550.25 Q1323.8 1543.79 1321.13 1540.13 Q1318.46 1536.44 1313.81 1536.44 Q1309.16 1536.44 1306.49 1540.13 Q1303.85 1543.79 1303.85 1550.25 Z" fill="#000000" fill-rule="evenodd" fill-opacity="1" /><path clip-path="url(#clip090)" d="M1357.92 1550.12 Q1350.83 1550.12 1348.09 1551.75 Q1345.35 1553.37 1345.35 1557.29 Q1345.35 1560.4 1347.39 1562.25 Q1349.46 1564.07 1352.99 1564.07 Q1357.86 1564.07 1360.79 1560.63 Q1363.75 1557.16 1363.75 1551.43 L1363.75 1550.12 L1357.92 1550.12 M1369.6 1547.71 L1369.6 1568.04 L1363.75 1568.04 L1363.75 1562.63 Q1361.74 1565.88 1358.75 1567.44 Q1355.76 1568.97 1351.43 1568.97 Q1345.96 1568.97 1342.71 1565.91 Q1339.5 1562.82 1339.5 1557.67 Q1339.5 1551.65 1343.51 1548.6 Q1347.55 1545.54 1355.54 1545.54 L1363.75 1545.54 L1363.75 1544.97 Q1363.75 1540.93 1361.07 1538.73 Q1358.43 1536.5 1353.63 1536.5 Q1350.57 1536.5 1347.68 1537.23 Q1344.78 1537.97 1342.11 1539.43 L1342.11 1534.02 Q1345.32 1532.78 1348.34 1532.17 Q1351.37 1531.54 1354.23 1531.54 Q1361.97 1531.54 1365.79 1535.55 Q1369.6 1539.56 1369.6 1547.71 Z" fill="#000000" fill-rule="evenodd" fill-opacity="1" /><path clip-path="url(#clip090)" d="M1387.46 1522.27 L1387.46 1532.4 L1399.52 1532.4 L1399.52 1536.95 L1387.46 1536.95 L1387.46 1556.3 Q1387.46 1560.66 1388.64 1561.9 Q1389.85 1563.14 1393.51 1563.14 L1399.52 1563.14 L1399.52 1568.04 L1393.51 1568.04 Q1386.73 1568.04 1384.15 1565.53 Q1381.57 1562.98 1381.57 1556.3 L1381.57 1536.95 L1377.28 1536.95 L1377.28 1532.4 L1381.57 1532.4 L1381.57 1522.27 L1387.46 1522.27 Z" fill="#000000" fill-rule="evenodd" fill-opacity="1" /><path clip-path="url(#clip090)" d="M1423.43 1550.12 Q1416.33 1550.12 1413.59 1551.75 Q1410.85 1553.37 1410.85 1557.29 Q1410.85 1560.4 1412.89 1562.25 Q1414.96 1564.07 1418.49 1564.07 Q1423.36 1564.07 1426.29 1560.63 Q1429.25 1557.16 1429.25 1551.43 L1429.25 1550.12 L1423.43 1550.12 M1435.11 1547.71 L1435.11 1568.04 L1429.25 1568.04 L1429.25 1562.63 Q1427.25 1565.88 1424.25 1567.44 Q1421.26 1568.97 1416.93 1568.97 Q1411.46 1568.97 1408.21 1565.91 Q1405 1562.82 1405 1557.67 Q1405 1551.65 1409.01 1548.6 Q1413.05 1545.54 1421.04 1545.54 L1429.25 1545.54 L1429.25 1544.97 Q1429.25 1540.93 1426.58 1538.73 Q1423.94 1536.5 1419.13 1536.5 Q1416.07 1536.5 1413.18 1537.23 Q1410.28 1537.97 1407.61 1539.43 L1407.61 1534.02 Q1410.82 1532.78 1413.85 1532.17 Q1416.87 1531.54 1419.73 1531.54 Q1427.47 1531.54 1431.29 1535.55 Q1435.11 1539.56 1435.11 1547.71 Z" fill="#000000" fill-rule="evenodd" fill-opacity="1" /><path clip-path="url(#clip090)" d="M1473.56 1562.7 L1473.56 1581.6 L1467.67 1581.6 L1467.67 1532.4 L1473.56 1532.4 L1473.56 1537.81 Q1475.4 1534.62 1478.2 1533.1 Q1481.04 1531.54 1484.95 1531.54 Q1491.44 1531.54 1495.49 1536.69 Q1499.56 1541.85 1499.56 1550.25 Q1499.56 1558.65 1495.49 1563.81 Q1491.44 1568.97 1484.95 1568.97 Q1481.04 1568.97 1478.2 1567.44 Q1475.4 1565.88 1473.56 1562.7 M1493.48 1550.25 Q1493.48 1543.79 1490.81 1540.13 Q1488.17 1536.44 1483.52 1536.44 Q1478.87 1536.44 1476.2 1540.13 Q1473.56 1543.79 1473.56 1550.25 Q1473.56 1556.71 1476.2 1560.4 Q1478.87 1564.07 1483.52 1564.07 Q1488.17 1564.07 1490.81 1560.4 Q1493.48 1556.71 1493.48 1550.25 Z" fill="#000000" fill-rule="evenodd" fill-opacity="1" /><path clip-path="url(#clip090)" d="M1523.08 1536.5 Q1518.37 1536.5 1515.63 1540.19 Q1512.9 1543.85 1512.9 1550.25 Q1512.9 1556.65 1515.6 1560.34 Q1518.34 1564 1523.08 1564 Q1527.76 1564 1530.5 1560.31 Q1533.24 1556.62 1533.24 1550.25 Q1533.24 1543.92 1530.5 1540.23 Q1527.76 1536.5 1523.08 1536.5 M1523.08 1531.54 Q1530.72 1531.54 1535.08 1536.5 Q1539.44 1541.47 1539.44 1550.25 Q1539.44 1559 1535.08 1564 Q1530.72 1568.97 1523.08 1568.97 Q1515.41 1568.97 1511.05 1564 Q1506.72 1559 1506.72 1550.25 Q1506.72 1541.47 1511.05 1536.5 Q1515.41 1531.54 1523.08 1531.54 Z" fill="#000000" fill-rule="evenodd" fill-opacity="1" /><path clip-path="url(#clip090)" d="M1549.15 1532.4 L1555.01 1532.4 L1555.01 1568.04 L1549.15 1568.04 L1549.15 1532.4 M1549.15 1518.52 L1555.01 1518.52 L1555.01 1525.93 L1549.15 1525.93 L1549.15 1518.52 Z" fill="#000000" fill-rule="evenodd" fill-opacity="1" /><path clip-path="url(#clip090)" d="M1596.89 1546.53 L1596.89 1568.04 L1591.04 1568.04 L1591.04 1546.72 Q1591.04 1541.66 1589.06 1539.14 Q1587.09 1536.63 1583.14 1536.63 Q1578.4 1536.63 1575.66 1539.65 Q1572.93 1542.68 1572.93 1547.9 L1572.93 1568.04 L1567.04 1568.04 L1567.04 1532.4 L1572.93 1532.4 L1572.93 1537.93 Q1575.03 1534.72 1577.86 1533.13 Q1580.72 1531.54 1584.45 1531.54 Q1590.59 1531.54 1593.74 1535.36 Q1596.89 1539.14 1596.89 1546.53 Z" fill="#000000" fill-rule="evenodd" fill-opacity="1" /><path clip-path="url(#clip090)" d="M1614.37 1522.27 L1614.37 1532.4 L1626.43 1532.4 L1626.43 1536.95 L1614.37 1536.95 L1614.37 1556.3 Q1614.37 1560.66 1615.54 1561.9 Q1616.75 1563.14 1620.41 1563.14 L1626.43 1563.14 L1626.43 1568.04 L1620.41 1568.04 Q1613.63 1568.04 1611.06 1565.53 Q1608.48 1562.98 1608.48 1556.3 L1608.48 1536.95 L1604.18 1536.95 L1604.18 1532.4 L1608.48 1532.4 L1608.48 1522.27 L1614.37 1522.27 Z" fill="#000000" fill-rule="evenodd" fill-opacity="1" /><path clip-path="url(#clip090)" d="M1656.86 1533.45 L1656.86 1538.98 Q1654.37 1537.71 1651.7 1537.07 Q1649.03 1536.44 1646.16 1536.44 Q1641.8 1536.44 1639.61 1537.77 Q1637.44 1539.11 1637.44 1541.79 Q1637.44 1543.82 1639 1545 Q1640.56 1546.15 1645.27 1547.2 L1647.28 1547.64 Q1653.52 1548.98 1656.13 1551.43 Q1658.77 1553.85 1658.77 1558.21 Q1658.77 1563.17 1654.82 1566.07 Q1650.91 1568.97 1644.03 1568.97 Q1641.17 1568.97 1638.05 1568.39 Q1634.96 1567.85 1631.52 1566.74 L1631.52 1560.69 Q1634.77 1562.38 1637.92 1563.24 Q1641.07 1564.07 1644.16 1564.07 Q1648.3 1564.07 1650.52 1562.66 Q1652.75 1561.23 1652.75 1558.65 Q1652.75 1556.27 1651.13 1554.99 Q1649.54 1553.72 1644.09 1552.54 L1642.06 1552.07 Q1636.61 1550.92 1634.2 1548.56 Q1631.78 1546.18 1631.78 1542.04 Q1631.78 1537.01 1635.34 1534.27 Q1638.91 1531.54 1645.46 1531.54 Q1648.71 1531.54 1651.57 1532.01 Q1654.44 1532.49 1656.86 1533.45 Z" fill="#000000" fill-rule="evenodd" fill-opacity="1" /><polyline clip-path="url(#clip092)" style="stroke:#000000; stroke-linecap:butt; stroke-linejoin:round; stroke-width:2; stroke-opacity:0.1; fill:none" points="
  247.459,1385.16 2352.76,1385.16 
  "/>
<polyline clip-path="url(#clip092)" style="stroke:#000000; stroke-linecap:butt; stroke-linejoin:round; stroke-width:2; stroke-opacity:0.1; fill:none" points="
  247.459,1107.97 2352.76,1107.97 
  "/>
<polyline clip-path="url(#clip092)" style="stroke:#000000; stroke-linecap:butt; stroke-linejoin:round; stroke-width:2; stroke-opacity:0.1; fill:none" points="
  247.459,830.787 2352.76,830.787 
  "/>
<polyline clip-path="url(#clip092)" style="stroke:#000000; stroke-linecap:butt; stroke-linejoin:round; stroke-width:2; stroke-opacity:0.1; fill:none" points="
  247.459,553.603 2352.76,553.603 
  "/>
<polyline clip-path="url(#clip092)" style="stroke:#000000; stroke-linecap:butt; stroke-linejoin:round; stroke-width:2; stroke-opacity:0.1; fill:none" points="
  247.459,276.418 2352.76,276.418 
  "/>
<polyline clip-path="url(#clip090)" style="stroke:#000000; stroke-linecap:butt; stroke-linejoin:round; stroke-width:4; stroke-opacity:1; fill:none" points="
  247.459,1423.18 247.459,47.2441 
  "/>
<polyline clip-path="url(#clip090)" style="stroke:#000000; stroke-linecap:butt; stroke-linejoin:round; stroke-width:4; stroke-opacity:1; fill:none" points="
  247.459,1385.16 266.356,1385.16 
  "/>
<polyline clip-path="url(#clip090)" style="stroke:#000000; stroke-linecap:butt; stroke-linejoin:round; stroke-width:4; stroke-opacity:1; fill:none" points="
  247.459,1107.97 266.356,1107.97 
  "/>
<polyline clip-path="url(#clip090)" style="stroke:#000000; stroke-linecap:butt; stroke-linejoin:round; stroke-width:4; stroke-opacity:1; fill:none" points="
  247.459,830.787 266.356,830.787 
  "/>
<polyline clip-path="url(#clip090)" style="stroke:#000000; stroke-linecap:butt; stroke-linejoin:round; stroke-width:4; stroke-opacity:1; fill:none" points="
  247.459,553.603 266.356,553.603 
  "/>
<polyline clip-path="url(#clip090)" style="stroke:#000000; stroke-linecap:butt; stroke-linejoin:round; stroke-width:4; stroke-opacity:1; fill:none" points="
  247.459,276.418 266.356,276.418 
  "/>
<path clip-path="url(#clip090)" d="M154.283 1370.95 Q150.672 1370.95 148.843 1374.52 Q147.038 1378.06 147.038 1385.19 Q147.038 1392.3 148.843 1395.86 Q150.672 1399.4 154.283 1399.4 Q157.917 1399.4 159.723 1395.86 Q161.552 1392.3 161.552 1385.19 Q161.552 1378.06 159.723 1374.52 Q157.917 1370.95 154.283 1370.95 M154.283 1367.25 Q160.093 1367.25 163.149 1371.86 Q166.227 1376.44 166.227 1385.19 Q166.227 1393.92 163.149 1398.52 Q160.093 1403.11 154.283 1403.11 Q148.473 1403.11 145.394 1398.52 Q142.339 1393.92 142.339 1385.19 Q142.339 1376.44 145.394 1371.86 Q148.473 1367.25 154.283 1367.25 Z" fill="#000000" fill-rule="evenodd" fill-opacity="1" /><path clip-path="url(#clip090)" d="M174.445 1396.56 L179.329 1396.56 L179.329 1402.44 L174.445 1402.44 L174.445 1396.56 Z" fill="#000000" fill-rule="evenodd" fill-opacity="1" /><path clip-path="url(#clip090)" d="M199.514 1370.95 Q195.903 1370.95 194.075 1374.52 Q192.269 1378.06 192.269 1385.19 Q192.269 1392.3 194.075 1395.86 Q195.903 1399.4 199.514 1399.4 Q203.149 1399.4 204.954 1395.86 Q206.783 1392.3 206.783 1385.19 Q206.783 1378.06 204.954 1374.52 Q203.149 1370.95 199.514 1370.95 M199.514 1367.25 Q205.324 1367.25 208.38 1371.86 Q211.459 1376.44 211.459 1385.19 Q211.459 1393.92 208.38 1398.52 Q205.324 1403.11 199.514 1403.11 Q193.704 1403.11 190.625 1398.52 Q187.57 1393.92 187.57 1385.19 Q187.57 1376.44 190.625 1371.86 Q193.704 1367.25 199.514 1367.25 Z" fill="#000000" fill-rule="evenodd" fill-opacity="1" /><path clip-path="url(#clip090)" d="M149.306 1121.32 L165.626 1121.32 L165.626 1125.25 L143.681 1125.25 L143.681 1121.32 Q146.343 1118.56 150.927 1113.93 Q155.533 1109.28 156.714 1107.94 Q158.959 1105.41 159.839 1103.68 Q160.741 1101.92 160.741 1100.23 Q160.741 1097.47 158.797 1095.74 Q156.876 1094 153.774 1094 Q151.575 1094 149.121 1094.77 Q146.691 1095.53 143.913 1097.08 L143.913 1092.36 Q146.737 1091.22 149.191 1090.65 Q151.644 1090.07 153.681 1090.07 Q159.052 1090.07 162.246 1092.75 Q165.44 1095.44 165.44 1099.93 Q165.44 1102.06 164.63 1103.98 Q163.843 1105.88 161.737 1108.47 Q161.158 1109.14 158.056 1112.36 Q154.954 1115.55 149.306 1121.32 Z" fill="#000000" fill-rule="evenodd" fill-opacity="1" /><path clip-path="url(#clip090)" d="M175.44 1119.37 L180.325 1119.37 L180.325 1125.25 L175.44 1125.25 L175.44 1119.37 Z" fill="#000000" fill-rule="evenodd" fill-opacity="1" /><path clip-path="url(#clip090)" d="M190.556 1090.69 L208.912 1090.69 L208.912 1094.63 L194.838 1094.63 L194.838 1103.1 Q195.857 1102.75 196.875 1102.59 Q197.894 1102.4 198.912 1102.4 Q204.699 1102.4 208.079 1105.58 Q211.459 1108.75 211.459 1114.16 Q211.459 1119.74 207.987 1122.84 Q204.514 1125.92 198.195 1125.92 Q196.019 1125.92 193.75 1125.55 Q191.505 1125.18 189.098 1124.44 L189.098 1119.74 Q191.181 1120.88 193.403 1121.43 Q195.625 1121.99 198.102 1121.99 Q202.107 1121.99 204.445 1119.88 Q206.783 1117.77 206.783 1114.16 Q206.783 1110.55 204.445 1108.45 Q202.107 1106.34 198.102 1106.34 Q196.227 1106.34 194.352 1106.76 Q192.5 1107.17 190.556 1108.05 L190.556 1090.69 Z" fill="#000000" fill-rule="evenodd" fill-opacity="1" /><path clip-path="url(#clip090)" d="M144.329 813.507 L162.686 813.507 L162.686 817.442 L148.612 817.442 L148.612 825.915 Q149.63 825.567 150.649 825.405 Q151.667 825.22 152.686 825.22 Q158.473 825.22 161.852 828.391 Q165.232 831.563 165.232 836.979 Q165.232 842.558 161.76 845.66 Q158.288 848.739 151.968 848.739 Q149.792 848.739 147.524 848.368 Q145.279 847.998 142.871 847.257 L142.871 842.558 Q144.954 843.692 147.177 844.248 Q149.399 844.803 151.876 844.803 Q155.88 844.803 158.218 842.697 Q160.556 840.59 160.556 836.979 Q160.556 833.368 158.218 831.262 Q155.88 829.155 151.876 829.155 Q150.001 829.155 148.126 829.572 Q146.274 829.989 144.329 830.868 L144.329 813.507 Z" fill="#000000" fill-rule="evenodd" fill-opacity="1" /><path clip-path="url(#clip090)" d="M174.445 842.188 L179.329 842.188 L179.329 848.067 L174.445 848.067 L174.445 842.188 Z" fill="#000000" fill-rule="evenodd" fill-opacity="1" /><path clip-path="url(#clip090)" d="M199.514 816.586 Q195.903 816.586 194.075 820.151 Q192.269 823.692 192.269 830.822 Q192.269 837.928 194.075 841.493 Q195.903 845.035 199.514 845.035 Q203.149 845.035 204.954 841.493 Q206.783 837.928 206.783 830.822 Q206.783 823.692 204.954 820.151 Q203.149 816.586 199.514 816.586 M199.514 812.882 Q205.324 812.882 208.38 817.489 Q211.459 822.072 211.459 830.822 Q211.459 839.549 208.38 844.155 Q205.324 848.739 199.514 848.739 Q193.704 848.739 190.625 844.155 Q187.57 839.549 187.57 830.822 Q187.57 822.072 190.625 817.489 Q193.704 812.882 199.514 812.882 Z" fill="#000000" fill-rule="evenodd" fill-opacity="1" /><path clip-path="url(#clip090)" d="M144.098 536.323 L166.32 536.323 L166.32 538.314 L153.774 570.883 L148.89 570.883 L160.695 540.258 L144.098 540.258 L144.098 536.323 Z" fill="#000000" fill-rule="evenodd" fill-opacity="1" /><path clip-path="url(#clip090)" d="M175.44 565.003 L180.325 565.003 L180.325 570.883 L175.44 570.883 L175.44 565.003 Z" fill="#000000" fill-rule="evenodd" fill-opacity="1" /><path clip-path="url(#clip090)" d="M190.556 536.323 L208.912 536.323 L208.912 540.258 L194.838 540.258 L194.838 548.73 Q195.857 548.383 196.875 548.221 Q197.894 548.036 198.912 548.036 Q204.699 548.036 208.079 551.207 Q211.459 554.378 211.459 559.795 Q211.459 565.374 207.987 568.475 Q204.514 571.554 198.195 571.554 Q196.019 571.554 193.75 571.184 Q191.505 570.813 189.098 570.073 L189.098 565.374 Q191.181 566.508 193.403 567.063 Q195.625 567.619 198.102 567.619 Q202.107 567.619 204.445 565.513 Q206.783 563.406 206.783 559.795 Q206.783 556.184 204.445 554.077 Q202.107 551.971 198.102 551.971 Q196.227 551.971 194.352 552.388 Q192.5 552.804 190.556 553.684 L190.556 536.323 Z" fill="#000000" fill-rule="evenodd" fill-opacity="1" /><path clip-path="url(#clip090)" d="M114.931 289.763 L122.57 289.763 L122.57 263.398 L114.26 265.064 L114.26 260.805 L122.524 259.138 L127.2 259.138 L127.2 289.763 L134.839 289.763 L134.839 293.698 L114.931 293.698 L114.931 289.763 Z" fill="#000000" fill-rule="evenodd" fill-opacity="1" /><path clip-path="url(#clip090)" d="M154.283 262.217 Q150.672 262.217 148.843 265.782 Q147.038 269.324 147.038 276.453 Q147.038 283.56 148.843 287.124 Q150.672 290.666 154.283 290.666 Q157.917 290.666 159.723 287.124 Q161.552 283.56 161.552 276.453 Q161.552 269.324 159.723 265.782 Q157.917 262.217 154.283 262.217 M154.283 258.513 Q160.093 258.513 163.149 263.12 Q166.227 267.703 166.227 276.453 Q166.227 285.18 163.149 289.786 Q160.093 294.37 154.283 294.37 Q148.473 294.37 145.394 289.786 Q142.339 285.18 142.339 276.453 Q142.339 267.703 145.394 263.12 Q148.473 258.513 154.283 258.513 Z" fill="#000000" fill-rule="evenodd" fill-opacity="1" /><path clip-path="url(#clip090)" d="M174.445 287.819 L179.329 287.819 L179.329 293.698 L174.445 293.698 L174.445 287.819 Z" fill="#000000" fill-rule="evenodd" fill-opacity="1" /><path clip-path="url(#clip090)" d="M199.514 262.217 Q195.903 262.217 194.075 265.782 Q192.269 269.324 192.269 276.453 Q192.269 283.56 194.075 287.124 Q195.903 290.666 199.514 290.666 Q203.149 290.666 204.954 287.124 Q206.783 283.56 206.783 276.453 Q206.783 269.324 204.954 265.782 Q203.149 262.217 199.514 262.217 M199.514 258.513 Q205.324 258.513 208.38 263.12 Q211.459 267.703 211.459 276.453 Q211.459 285.18 208.38 289.786 Q205.324 294.37 199.514 294.37 Q193.704 294.37 190.625 289.786 Q187.57 285.18 187.57 276.453 Q187.57 267.703 190.625 263.12 Q193.704 258.513 199.514 258.513 Z" fill="#000000" fill-rule="evenodd" fill-opacity="1" /><path clip-path="url(#clip090)" d="M33.8307 1087.35 Q33.2578 1088.33 33.0032 1089.51 Q32.7167 1090.66 32.7167 1092.06 Q32.7167 1097.02 35.9632 1099.7 Q39.1779 1102.34 45.2253 1102.34 L64.0042 1102.34 L64.0042 1108.23 L28.3562 1108.23 L28.3562 1102.34 L33.8944 1102.34 Q30.6479 1100.49 29.0883 1097.53 Q27.4968 1094.57 27.4968 1090.34 Q27.4968 1089.73 27.5923 1089 Q27.656 1088.27 27.8151 1087.38 L33.8307 1087.35 Z" fill="#000000" fill-rule="evenodd" fill-opacity="1" /><path clip-path="url(#clip090)" d="M49.9359 1081.81 L28.3562 1081.81 L28.3562 1075.95 L49.7131 1075.95 Q54.7739 1075.95 57.3202 1073.98 Q59.8346 1072.01 59.8346 1068.06 Q59.8346 1063.32 56.8109 1060.58 Q53.7872 1057.81 48.5673 1057.81 L28.3562 1057.81 L28.3562 1051.95 L64.0042 1051.95 L64.0042 1057.81 L58.5296 1057.81 Q61.7762 1059.94 63.3676 1062.78 Q64.9272 1065.58 64.9272 1069.3 Q64.9272 1075.44 61.1078 1078.63 Q57.2883 1081.81 49.9359 1081.81 M27.4968 1067.07 L27.4968 1067.07 Z" fill="#000000" fill-rule="evenodd" fill-opacity="1" /><path clip-path="url(#clip090)" d="M42.4881 1010.26 L64.0042 1010.26 L64.0042 1016.11 L42.679 1016.11 Q37.6183 1016.11 35.1038 1018.09 Q32.5894 1020.06 32.5894 1024.01 Q32.5894 1028.75 35.6131 1031.49 Q38.6368 1034.23 43.8567 1034.23 L64.0042 1034.23 L64.0042 1040.11 L28.3562 1040.11 L28.3562 1034.23 L33.8944 1034.23 Q30.6797 1032.12 29.0883 1029.29 Q27.4968 1026.43 27.4968 1022.7 Q27.4968 1016.56 31.3163 1013.41 Q35.1038 1010.26 42.4881 1010.26 Z" fill="#000000" fill-rule="evenodd" fill-opacity="1" /><path clip-path="url(#clip090)" d="M42.4881 968.945 L64.0042 968.945 L64.0042 974.801 L42.679 974.801 Q37.6183 974.801 35.1038 976.775 Q32.5894 978.748 32.5894 982.695 Q32.5894 987.437 35.6131 990.174 Q38.6368 992.912 43.8567 992.912 L64.0042 992.912 L64.0042 998.8 L28.3562 998.8 L28.3562 992.912 L33.8944 992.912 Q30.6797 990.811 29.0883 987.978 Q27.4968 985.114 27.4968 981.39 Q27.4968 975.247 31.3163 972.096 Q35.1038 968.945 42.4881 968.945 Z" fill="#000000" fill-rule="evenodd" fill-opacity="1" /><path clip-path="url(#clip090)" d="M28.3562 957.264 L28.3562 951.407 L64.0042 951.407 L64.0042 957.264 L28.3562 957.264 M14.479 957.264 L14.479 951.407 L21.895 951.407 L21.895 957.264 L14.479 957.264 Z" fill="#000000" fill-rule="evenodd" fill-opacity="1" /><path clip-path="url(#clip090)" d="M42.4881 909.521 L64.0042 909.521 L64.0042 915.377 L42.679 915.377 Q37.6183 915.377 35.1038 917.351 Q32.5894 919.324 32.5894 923.271 Q32.5894 928.013 35.6131 930.751 Q38.6368 933.488 43.8567 933.488 L64.0042 933.488 L64.0042 939.376 L28.3562 939.376 L28.3562 933.488 L33.8944 933.488 Q30.6797 931.387 29.0883 928.554 Q27.4968 925.69 27.4968 921.966 Q27.4968 915.823 31.3163 912.672 Q35.1038 909.521 42.4881 909.521 Z" fill="#000000" fill-rule="evenodd" fill-opacity="1" /><path clip-path="url(#clip090)" d="M45.7664 874.382 Q39.4007 874.382 35.8996 877.024 Q32.3984 879.634 32.3984 884.376 Q32.3984 889.087 35.8996 891.729 Q39.4007 894.339 45.7664 894.339 Q52.1003 894.339 55.6014 891.729 Q59.1026 889.087 59.1026 884.376 Q59.1026 879.634 55.6014 877.024 Q52.1003 874.382 45.7664 874.382 M59.58 868.526 Q68.683 868.526 73.1071 872.568 Q77.5631 876.61 77.5631 884.949 Q77.5631 888.037 77.0857 890.774 Q76.6401 893.511 75.6852 896.089 L69.9879 896.089 Q71.3884 893.511 72.0568 890.997 Q72.7252 888.482 72.7252 885.872 Q72.7252 880.111 69.7015 877.247 Q66.7096 874.382 60.6303 874.382 L57.7339 874.382 Q60.885 876.196 62.4446 879.029 Q64.0042 881.862 64.0042 885.809 Q64.0042 892.365 59.0071 896.376 Q54.01 900.386 45.7664 900.386 Q37.491 900.386 32.4939 896.376 Q27.4968 892.365 27.4968 885.809 Q27.4968 881.862 29.0564 879.029 Q30.616 876.196 33.7671 874.382 L28.3562 874.382 L28.3562 868.526 L59.58 868.526 Z" fill="#000000" fill-rule="evenodd" fill-opacity="1" /><path clip-path="url(#clip090)" d="M18.2347 829.95 L28.3562 829.95 L28.3562 817.887 L32.9077 817.887 L32.9077 829.95 L52.2594 829.95 Q56.6199 829.95 57.8613 828.772 Q59.1026 827.562 59.1026 823.902 L59.1026 817.887 L64.0042 817.887 L64.0042 823.902 Q64.0042 830.682 61.4897 833.26 Q58.9434 835.838 52.2594 835.838 L32.9077 835.838 L32.9077 840.135 L28.3562 840.135 L28.3562 835.838 L18.2347 835.838 L18.2347 829.95 Z" fill="#000000" fill-rule="evenodd" fill-opacity="1" /><path clip-path="url(#clip090)" d="M28.3562 810.184 L28.3562 804.328 L64.0042 804.328 L64.0042 810.184 L28.3562 810.184 M14.479 810.184 L14.479 804.328 L21.895 804.328 L21.895 810.184 L14.479 810.184 Z" fill="#000000" fill-rule="evenodd" fill-opacity="1" /><path clip-path="url(#clip090)" d="M35.1993 764.319 Q31.2526 762.123 29.3747 759.067 Q27.4968 756.012 27.4968 751.874 Q27.4968 746.304 31.4117 743.281 Q35.2948 740.257 42.4881 740.257 L64.0042 740.257 L64.0042 746.145 L42.679 746.145 Q37.5546 746.145 35.072 747.959 Q32.5894 749.774 32.5894 753.497 Q32.5894 758.049 35.6131 760.691 Q38.6368 763.332 43.8567 763.332 L64.0042 763.332 L64.0042 769.221 L42.679 769.221 Q37.5228 769.221 35.072 771.035 Q32.5894 772.849 32.5894 776.637 Q32.5894 781.125 35.6449 783.766 Q38.6686 786.408 43.8567 786.408 L64.0042 786.408 L64.0042 792.296 L28.3562 792.296 L28.3562 786.408 L33.8944 786.408 Q30.616 784.403 29.0564 781.602 Q27.4968 778.801 27.4968 774.95 Q27.4968 771.067 29.4702 768.361 Q31.4436 765.624 35.1993 764.319 Z" fill="#000000" fill-rule="evenodd" fill-opacity="1" /><path clip-path="url(#clip090)" d="M44.7161 698.084 L47.5806 698.084 L47.5806 725.011 Q53.6281 724.629 56.8109 721.382 Q59.9619 718.104 59.9619 712.28 Q59.9619 708.906 59.1344 705.755 Q58.3069 702.572 56.6518 699.453 L62.1899 699.453 Q63.5267 702.604 64.227 705.914 Q64.9272 709.224 64.9272 712.63 Q64.9272 721.16 59.9619 726.157 Q54.9967 731.122 46.5303 731.122 Q37.7774 731.122 32.6531 726.411 Q27.4968 721.669 27.4968 713.648 Q27.4968 706.455 32.1438 702.285 Q36.7589 698.084 44.7161 698.084 M42.9973 703.94 Q38.1912 704.004 35.3266 706.646 Q32.4621 709.256 32.4621 713.584 Q32.4621 718.486 35.2312 721.446 Q38.0002 724.374 43.0292 724.82 L42.9973 703.94 Z" fill="#000000" fill-rule="evenodd" fill-opacity="1" /><path clip-path="url(#clip090)" d="M14.5426 653.683 Q21.8632 657.948 29.0246 660.017 Q36.186 662.086 43.5384 662.086 Q50.8908 662.086 58.1159 660.017 Q65.3091 657.916 72.5979 653.683 L72.5979 658.776 Q65.1182 663.55 57.8931 665.937 Q50.668 668.292 43.5384 668.292 Q36.4406 668.292 29.2474 665.937 Q22.0542 663.582 14.5426 658.776 L14.5426 653.683 Z" fill="#000000" fill-rule="evenodd" fill-opacity="1" /><path clip-path="url(#clip090)" d="M29.4065 619.595 L34.9447 619.595 Q33.6716 622.077 33.035 624.751 Q32.3984 627.425 32.3984 630.289 Q32.3984 634.65 33.7352 636.846 Q35.072 639.01 37.7456 639.01 Q39.7826 639.01 40.9603 637.451 Q42.1061 635.891 43.1565 631.18 L43.6021 629.175 Q44.9389 622.937 47.3897 620.327 Q49.8086 617.685 54.1691 617.685 Q59.1344 617.685 62.0308 621.632 Q64.9272 625.547 64.9272 632.422 Q64.9272 635.286 64.3543 638.405 Q63.8132 641.493 62.6992 644.93 L56.6518 644.93 Q58.3387 641.684 59.198 638.533 Q60.0256 635.382 60.0256 632.294 Q60.0256 628.157 58.6251 625.929 Q57.1929 623.701 54.6147 623.701 Q52.2276 623.701 50.9545 625.324 Q49.6813 626.915 48.5037 632.358 L48.0262 634.395 Q46.8804 639.838 44.5251 642.257 Q42.138 644.676 38.0002 644.676 Q32.9713 644.676 30.2341 641.111 Q27.4968 637.546 27.4968 630.989 Q27.4968 627.743 27.9743 624.878 Q28.4517 622.014 29.4065 619.595 Z" fill="#000000" fill-rule="evenodd" fill-opacity="1" /><path clip-path="url(#clip090)" d="M44.7161 577.868 L47.5806 577.868 L47.5806 604.795 Q53.6281 604.413 56.8109 601.166 Q59.9619 597.888 59.9619 592.063 Q59.9619 588.689 59.1344 585.538 Q58.3069 582.355 56.6518 579.236 L62.1899 579.236 Q63.5267 582.387 64.227 585.697 Q64.9272 589.008 64.9272 592.413 Q64.9272 600.943 59.9619 605.94 Q54.9967 610.906 46.5303 610.906 Q37.7774 610.906 32.6531 606.195 Q27.4968 601.453 27.4968 593.432 Q27.4968 586.239 32.1438 582.069 Q36.7589 577.868 44.7161 577.868 M42.9973 583.724 Q38.1912 583.788 35.3266 586.429 Q32.4621 589.039 32.4621 593.368 Q32.4621 598.27 35.2312 601.23 Q38.0002 604.158 43.0292 604.604 L42.9973 583.724 Z" fill="#000000" fill-rule="evenodd" fill-opacity="1" /><path clip-path="url(#clip090)" d="M29.7248 542.602 L35.1993 542.602 Q33.8307 545.084 33.1623 547.599 Q32.4621 550.081 32.4621 552.628 Q32.4621 558.325 36.0905 561.476 Q39.6872 564.627 46.212 564.627 Q52.7369 564.627 56.3653 561.476 Q59.9619 558.325 59.9619 552.628 Q59.9619 550.081 59.2935 547.599 Q58.5933 545.084 57.2247 542.602 L62.6355 542.602 Q63.7814 545.052 64.3543 547.694 Q64.9272 550.304 64.9272 553.264 Q64.9272 561.317 59.8664 566.059 Q54.8057 570.802 46.212 570.802 Q37.491 570.802 32.4939 566.027 Q27.4968 561.221 27.4968 552.882 Q27.4968 550.177 28.0697 547.599 Q28.6108 545.021 29.7248 542.602 Z" fill="#000000" fill-rule="evenodd" fill-opacity="1" /><path clip-path="url(#clip090)" d="M32.4621 518.603 Q32.4621 523.314 36.1542 526.051 Q39.8145 528.788 46.212 528.788 Q52.6095 528.788 56.3017 526.083 Q59.9619 523.345 59.9619 518.603 Q59.9619 513.924 56.2698 511.187 Q52.5777 508.45 46.212 508.45 Q39.8781 508.45 36.186 511.187 Q32.4621 513.924 32.4621 518.603 M27.4968 518.603 Q27.4968 510.964 32.4621 506.604 Q37.4273 502.243 46.212 502.243 Q54.9649 502.243 59.9619 506.604 Q64.9272 510.964 64.9272 518.603 Q64.9272 526.274 59.9619 530.634 Q54.9649 534.963 46.212 534.963 Q37.4273 534.963 32.4621 530.634 Q27.4968 526.274 27.4968 518.603 Z" fill="#000000" fill-rule="evenodd" fill-opacity="1" /><path clip-path="url(#clip090)" d="M42.4881 462.903 L64.0042 462.903 L64.0042 468.759 L42.679 468.759 Q37.6183 468.759 35.1038 470.733 Q32.5894 472.706 32.5894 476.653 Q32.5894 481.395 35.6131 484.133 Q38.6368 486.87 43.8567 486.87 L64.0042 486.87 L64.0042 492.758 L28.3562 492.758 L28.3562 486.87 L33.8944 486.87 Q30.6797 484.769 29.0883 481.936 Q27.4968 479.072 27.4968 475.348 Q27.4968 469.205 31.3163 466.054 Q35.1038 462.903 42.4881 462.903 Z" fill="#000000" fill-rule="evenodd" fill-opacity="1" /><path clip-path="url(#clip090)" d="M33.7671 427.764 L14.479 427.764 L14.479 421.908 L64.0042 421.908 L64.0042 427.764 L58.657 427.764 Q61.8398 429.61 63.3994 432.443 Q64.9272 435.244 64.9272 439.191 Q64.9272 445.652 59.771 449.726 Q54.6147 453.768 46.212 453.768 Q37.8093 453.768 32.6531 449.726 Q27.4968 445.652 27.4968 439.191 Q27.4968 435.244 29.0564 432.443 Q30.5842 429.61 33.7671 427.764 M46.212 447.721 Q52.6732 447.721 56.3653 445.079 Q60.0256 442.405 60.0256 437.758 Q60.0256 433.111 56.3653 430.438 Q52.6732 427.764 46.212 427.764 Q39.7508 427.764 36.0905 430.438 Q32.3984 433.111 32.3984 437.758 Q32.3984 442.405 36.0905 445.079 Q39.7508 447.721 46.212 447.721 Z" fill="#000000" fill-rule="evenodd" fill-opacity="1" /><path clip-path="url(#clip090)" d="M29.4065 387.119 L34.9447 387.119 Q33.6716 389.602 33.035 392.275 Q32.3984 394.949 32.3984 397.814 Q32.3984 402.174 33.7352 404.37 Q35.072 406.535 37.7456 406.535 Q39.7826 406.535 40.9603 404.975 Q42.1061 403.415 43.1565 398.705 L43.6021 396.7 Q44.9389 390.461 47.3897 387.851 Q49.8086 385.21 54.1691 385.21 Q59.1344 385.21 62.0308 389.156 Q64.9272 393.071 64.9272 399.946 Q64.9272 402.811 64.3543 405.93 Q63.8132 409.017 62.6992 412.455 L56.6518 412.455 Q58.3387 409.208 59.198 406.057 Q60.0256 402.906 60.0256 399.819 Q60.0256 395.681 58.6251 393.453 Q57.1929 391.225 54.6147 391.225 Q52.2276 391.225 50.9545 392.848 Q49.6813 394.44 48.5037 399.882 L48.0262 401.919 Q46.8804 407.362 44.5251 409.781 Q42.138 412.2 38.0002 412.2 Q32.9713 412.2 30.2341 408.635 Q27.4968 405.071 27.4968 398.514 Q27.4968 395.267 27.9743 392.403 Q28.4517 389.538 29.4065 387.119 Z" fill="#000000" fill-rule="evenodd" fill-opacity="1" /><path clip-path="url(#clip090)" d="M14.5426 376.807 L14.5426 371.714 Q22.0542 366.94 29.2474 364.585 Q36.4406 362.197 43.5384 362.197 Q50.668 362.197 57.8931 364.585 Q65.1182 366.94 72.5979 371.714 L72.5979 376.807 Q65.3091 372.574 58.1159 370.505 Q50.8908 368.404 43.5384 368.404 Q36.186 368.404 29.0246 370.505 Q21.8632 372.574 14.5426 376.807 Z" fill="#000000" fill-rule="evenodd" fill-opacity="1" /><polyline clip-path="url(#clip092)" style="stroke:#009af9; stroke-linecap:butt; stroke-linejoin:round; stroke-width:4; stroke-opacity:1; fill:none" points="
  307.043,1317.49 347.166,1382.4 427.414,1376.9 487.6,1370.65 888.838,1269.06 1691.31,782.884 2293.17,179.935 
  "/>
<polyline clip-path="url(#clip092)" style="stroke:#e26f46; stroke-linecap:butt; stroke-linejoin:round; stroke-width:4; stroke-opacity:1; fill:none" points="
  307.043,1330.65 347.166,1382.49 427.414,1374.4 487.6,1367.64 888.838,1261.19 1691.31,720.687 2293.17,86.1857 
  "/>
<polyline clip-path="url(#clip092)" style="stroke:#3da44d; stroke-linecap:butt; stroke-linejoin:round; stroke-width:4; stroke-opacity:1; fill:none" points="
  307.043,1372.26 347.166,1383.01 427.414,1381.83 487.6,1380.95 888.838,1373.28 1691.31,1357.84 2293.17,1346.2 
  "/>
<polyline clip-path="url(#clip092)" style="stroke:#c271d2; stroke-linecap:butt; stroke-linejoin:round; stroke-width:4; stroke-opacity:1; fill:none" points="
  307.043,1384.24 347.166,1382.3 427.414,1381.52 487.6,1380.54 888.838,1370.96 1691.31,1352.33 2293.17,1334.42 
  "/>
<path clip-path="url(#clip090)" d="
M1113.38 352.309 L2282.58 352.309 L2282.58 93.1086 L1113.38 93.1086  Z
  " fill="#ffffff" fill-rule="evenodd" fill-opacity="1"/>
<polyline clip-path="url(#clip090)" style="stroke:#000000; stroke-linecap:butt; stroke-linejoin:round; stroke-width:4; stroke-opacity:1; fill:none" points="
  1113.38,352.309 2282.58,352.309 2282.58,93.1086 1113.38,93.1086 1113.38,352.309 
  "/>
<polyline clip-path="url(#clip090)" style="stroke:#009af9; stroke-linecap:butt; stroke-linejoin:round; stroke-width:4; stroke-opacity:1; fill:none" points="
  1136.78,144.949 1277.13,144.949 
  "/>
<path clip-path="url(#clip090)" d="M1312.42 139.289 Q1308.99 139.289 1307 141.974 Q1305.01 144.636 1305.01 149.289 Q1305.01 153.942 1306.98 156.627 Q1308.97 159.289 1312.42 159.289 Q1315.82 159.289 1317.81 156.604 Q1319.8 153.918 1319.8 149.289 Q1319.8 144.682 1317.81 141.997 Q1315.82 139.289 1312.42 139.289 M1312.42 135.678 Q1317.98 135.678 1321.15 139.289 Q1324.32 142.9 1324.32 149.289 Q1324.32 155.655 1321.15 159.289 Q1317.98 162.9 1312.42 162.9 Q1306.84 162.9 1303.67 159.289 Q1300.52 155.655 1300.52 149.289 Q1300.52 142.9 1303.67 139.289 Q1306.84 135.678 1312.42 135.678 Z" fill="#000000" fill-rule="evenodd" fill-opacity="1" /><path clip-path="url(#clip090)" d="M1346.4 140.284 Q1345.68 139.868 1344.83 139.682 Q1343.99 139.474 1342.98 139.474 Q1339.36 139.474 1337.42 141.835 Q1335.5 144.173 1335.5 148.571 L1335.5 162.229 L1331.22 162.229 L1331.22 136.303 L1335.5 136.303 L1335.5 140.331 Q1336.84 137.969 1338.99 136.835 Q1341.15 135.678 1344.23 135.678 Q1344.67 135.678 1345.2 135.747 Q1345.73 135.794 1346.38 135.909 L1346.4 140.284 Z" fill="#000000" fill-rule="evenodd" fill-opacity="1" /><path clip-path="url(#clip090)" d="M1350.87 136.303 L1355.13 136.303 L1355.13 162.229 L1350.87 162.229 L1350.87 136.303 M1350.87 126.21 L1355.13 126.21 L1355.13 131.604 L1350.87 131.604 L1350.87 126.21 Z" fill="#000000" fill-rule="evenodd" fill-opacity="1" /><path clip-path="url(#clip090)" d="M1381.1 148.965 Q1381.1 144.335 1379.18 141.789 Q1377.28 139.243 1373.83 139.243 Q1370.41 139.243 1368.48 141.789 Q1366.59 144.335 1366.59 148.965 Q1366.59 153.571 1368.48 156.118 Q1370.41 158.664 1373.83 158.664 Q1377.28 158.664 1379.18 156.118 Q1381.1 153.571 1381.1 148.965 M1385.36 159.011 Q1385.36 165.631 1382.42 168.849 Q1379.48 172.09 1373.42 172.09 Q1371.17 172.09 1369.18 171.742 Q1367.19 171.418 1365.31 170.724 L1365.31 166.58 Q1367.19 167.599 1369.02 168.085 Q1370.85 168.571 1372.74 168.571 Q1376.93 168.571 1379.02 166.372 Q1381.1 164.196 1381.1 159.775 L1381.1 157.668 Q1379.78 159.96 1377.72 161.094 Q1375.66 162.229 1372.79 162.229 Q1368.02 162.229 1365.11 158.594 Q1362.19 154.96 1362.19 148.965 Q1362.19 142.946 1365.11 139.312 Q1368.02 135.678 1372.79 135.678 Q1375.66 135.678 1377.72 136.812 Q1379.78 137.946 1381.1 140.238 L1381.1 136.303 L1385.36 136.303 L1385.36 159.011 Z" fill="#000000" fill-rule="evenodd" fill-opacity="1" /><path clip-path="url(#clip090)" d="M1394.13 136.303 L1398.39 136.303 L1398.39 162.229 L1394.13 162.229 L1394.13 136.303 M1394.13 126.21 L1398.39 126.21 L1398.39 131.604 L1394.13 131.604 L1394.13 126.21 Z" fill="#000000" fill-rule="evenodd" fill-opacity="1" /><path clip-path="url(#clip090)" d="M1428.85 146.581 L1428.85 162.229 L1424.6 162.229 L1424.6 146.719 Q1424.6 143.039 1423.16 141.21 Q1421.73 139.382 1418.85 139.382 Q1415.41 139.382 1413.42 141.581 Q1411.42 143.78 1411.42 147.576 L1411.42 162.229 L1407.14 162.229 L1407.14 136.303 L1411.42 136.303 L1411.42 140.331 Q1412.95 137.993 1415.01 136.835 Q1417.1 135.678 1419.8 135.678 Q1424.27 135.678 1426.56 138.456 Q1428.85 141.21 1428.85 146.581 Z" fill="#000000" fill-rule="evenodd" fill-opacity="1" /><path clip-path="url(#clip090)" d="M1449.13 149.196 Q1443.97 149.196 1441.98 150.377 Q1439.99 151.557 1439.99 154.405 Q1439.99 156.673 1441.47 158.016 Q1442.98 159.335 1445.54 159.335 Q1449.09 159.335 1451.22 156.835 Q1453.37 154.312 1453.37 150.145 L1453.37 149.196 L1449.13 149.196 M1457.63 147.437 L1457.63 162.229 L1453.37 162.229 L1453.37 158.293 Q1451.91 160.655 1449.73 161.789 Q1447.56 162.9 1444.41 162.9 Q1440.43 162.9 1438.07 160.678 Q1435.73 158.432 1435.73 154.682 Q1435.73 150.307 1438.65 148.085 Q1441.59 145.863 1447.4 145.863 L1453.37 145.863 L1453.37 145.446 Q1453.37 142.507 1451.42 140.909 Q1449.5 139.289 1446.01 139.289 Q1443.79 139.289 1441.68 139.821 Q1439.57 140.354 1437.63 141.419 L1437.63 137.483 Q1439.97 136.581 1442.16 136.141 Q1444.36 135.678 1446.45 135.678 Q1452.07 135.678 1454.85 138.594 Q1457.63 141.511 1457.63 147.437 Z" fill="#000000" fill-rule="evenodd" fill-opacity="1" /><path clip-path="url(#clip090)" d="M1466.4 126.21 L1470.66 126.21 L1470.66 162.229 L1466.4 162.229 L1466.4 126.21 Z" fill="#000000" fill-rule="evenodd" fill-opacity="1" /><polyline clip-path="url(#clip090)" style="stroke:#e26f46; stroke-linecap:butt; stroke-linejoin:round; stroke-width:4; stroke-opacity:1; fill:none" points="
  1136.78,196.789 1277.13,196.789 
  "/>
<path clip-path="url(#clip090)" d="M1300.52 188.143 L1304.78 188.143 L1310.11 208.374 L1315.41 188.143 L1320.43 188.143 L1325.75 208.374 L1331.05 188.143 L1335.31 188.143 L1328.53 214.069 L1323.51 214.069 L1317.93 192.819 L1312.33 214.069 L1307.3 214.069 L1300.52 188.143 Z" fill="#000000" fill-rule="evenodd" fill-opacity="1" /><path clip-path="url(#clip090)" d="M1341.77 188.143 L1346.03 188.143 L1346.03 214.069 L1341.77 214.069 L1341.77 188.143 M1341.77 178.05 L1346.03 178.05 L1346.03 183.444 L1341.77 183.444 L1341.77 178.05 Z" fill="#000000" fill-rule="evenodd" fill-opacity="1" /><path clip-path="url(#clip090)" d="M1359.16 180.782 L1359.16 188.143 L1367.93 188.143 L1367.93 191.453 L1359.16 191.453 L1359.16 205.527 Q1359.16 208.698 1360.01 209.601 Q1360.89 210.504 1363.55 210.504 L1367.93 210.504 L1367.93 214.069 L1363.55 214.069 Q1358.62 214.069 1356.75 212.24 Q1354.87 210.388 1354.87 205.527 L1354.87 191.453 L1351.75 191.453 L1351.75 188.143 L1354.87 188.143 L1354.87 180.782 L1359.16 180.782 Z" fill="#000000" fill-rule="evenodd" fill-opacity="1" /><path clip-path="url(#clip090)" d="M1395.08 198.421 L1395.08 214.069 L1390.82 214.069 L1390.82 198.559 Q1390.82 194.879 1389.39 193.05 Q1387.95 191.222 1385.08 191.222 Q1381.63 191.222 1379.64 193.421 Q1377.65 195.62 1377.65 199.416 L1377.65 214.069 L1373.37 214.069 L1373.37 178.05 L1377.65 178.05 L1377.65 192.171 Q1379.18 189.833 1381.24 188.675 Q1383.32 187.518 1386.03 187.518 Q1390.5 187.518 1392.79 190.296 Q1395.08 193.05 1395.08 198.421 Z" fill="#000000" fill-rule="evenodd" fill-opacity="1" /><path clip-path="url(#clip090)" d="M1438.83 193.12 Q1440.43 190.249 1442.65 188.884 Q1444.87 187.518 1447.88 187.518 Q1451.93 187.518 1454.13 190.365 Q1456.33 193.189 1456.33 198.421 L1456.33 214.069 L1452.05 214.069 L1452.05 198.559 Q1452.05 194.833 1450.73 193.027 Q1449.41 191.222 1446.7 191.222 Q1443.39 191.222 1441.47 193.421 Q1439.55 195.62 1439.55 199.416 L1439.55 214.069 L1435.27 214.069 L1435.27 198.559 Q1435.27 194.809 1433.95 193.027 Q1432.63 191.222 1429.87 191.222 Q1426.61 191.222 1424.69 193.444 Q1422.77 195.643 1422.77 199.416 L1422.77 214.069 L1418.48 214.069 L1418.48 188.143 L1422.77 188.143 L1422.77 192.171 Q1424.23 189.786 1426.26 188.652 Q1428.3 187.518 1431.1 187.518 Q1433.92 187.518 1435.89 188.953 Q1437.88 190.388 1438.83 193.12 Z" fill="#000000" fill-rule="evenodd" fill-opacity="1" /><path clip-path="url(#clip090)" d="M1476.61 201.036 Q1471.45 201.036 1469.46 202.217 Q1467.47 203.397 1467.47 206.245 Q1467.47 208.513 1468.95 209.856 Q1470.45 211.175 1473.02 211.175 Q1476.56 211.175 1478.69 208.675 Q1480.85 206.152 1480.85 201.985 L1480.85 201.036 L1476.61 201.036 M1485.1 199.277 L1485.1 214.069 L1480.85 214.069 L1480.85 210.133 Q1479.39 212.495 1477.21 213.629 Q1475.04 214.74 1471.89 214.74 Q1467.91 214.74 1465.54 212.518 Q1463.21 210.272 1463.21 206.522 Q1463.21 202.147 1466.12 199.925 Q1469.06 197.703 1474.87 197.703 L1480.85 197.703 L1480.85 197.286 Q1480.85 194.347 1478.9 192.749 Q1476.98 191.129 1473.48 191.129 Q1471.26 191.129 1469.16 191.661 Q1467.05 192.194 1465.1 193.259 L1465.1 189.323 Q1467.44 188.421 1469.64 187.981 Q1471.84 187.518 1473.92 187.518 Q1479.55 187.518 1482.33 190.434 Q1485.1 193.351 1485.1 199.277 Z" fill="#000000" fill-rule="evenodd" fill-opacity="1" /><path clip-path="url(#clip090)" d="M1498 210.18 L1498 223.93 L1493.72 223.93 L1493.72 188.143 L1498 188.143 L1498 192.078 Q1499.34 189.763 1501.38 188.652 Q1503.44 187.518 1506.28 187.518 Q1511.01 187.518 1513.95 191.268 Q1516.91 195.018 1516.91 201.129 Q1516.91 207.24 1513.95 210.99 Q1511.01 214.74 1506.28 214.74 Q1503.44 214.74 1501.38 213.629 Q1499.34 212.495 1498 210.18 M1512.49 201.129 Q1512.49 196.43 1510.54 193.768 Q1508.62 191.083 1505.24 191.083 Q1501.86 191.083 1499.92 193.768 Q1498 196.43 1498 201.129 Q1498 205.828 1499.92 208.513 Q1501.86 211.175 1505.24 211.175 Q1508.62 211.175 1510.54 208.513 Q1512.49 205.828 1512.49 201.129 Z" fill="#000000" fill-rule="evenodd" fill-opacity="1" /><polyline clip-path="url(#clip090)" style="stroke:#3da44d; stroke-linecap:butt; stroke-linejoin:round; stroke-width:4; stroke-opacity:1; fill:none" points="
  1136.78,248.629 1277.13,248.629 
  "/>
<path clip-path="url(#clip090)" d="M1300.52 239.983 L1304.78 239.983 L1310.11 260.214 L1315.41 239.983 L1320.43 239.983 L1325.75 260.214 L1331.05 239.983 L1335.31 239.983 L1328.53 265.909 L1323.51 265.909 L1317.93 244.659 L1312.33 265.909 L1307.3 265.909 L1300.52 239.983 Z" fill="#000000" fill-rule="evenodd" fill-opacity="1" /><path clip-path="url(#clip090)" d="M1341.77 239.983 L1346.03 239.983 L1346.03 265.909 L1341.77 265.909 L1341.77 239.983 M1341.77 229.89 L1346.03 229.89 L1346.03 235.284 L1341.77 235.284 L1341.77 229.89 Z" fill="#000000" fill-rule="evenodd" fill-opacity="1" /><path clip-path="url(#clip090)" d="M1359.16 232.622 L1359.16 239.983 L1367.93 239.983 L1367.93 243.293 L1359.16 243.293 L1359.16 257.367 Q1359.16 260.538 1360.01 261.441 Q1360.89 262.344 1363.55 262.344 L1367.93 262.344 L1367.93 265.909 L1363.55 265.909 Q1358.62 265.909 1356.75 264.08 Q1354.87 262.228 1354.87 257.367 L1354.87 243.293 L1351.75 243.293 L1351.75 239.983 L1354.87 239.983 L1354.87 232.622 L1359.16 232.622 Z" fill="#000000" fill-rule="evenodd" fill-opacity="1" /><path clip-path="url(#clip090)" d="M1395.08 250.261 L1395.08 265.909 L1390.82 265.909 L1390.82 250.399 Q1390.82 246.719 1389.39 244.89 Q1387.95 243.062 1385.08 243.062 Q1381.63 243.062 1379.64 245.261 Q1377.65 247.46 1377.65 251.256 L1377.65 265.909 L1373.37 265.909 L1373.37 229.89 L1377.65 229.89 L1377.65 244.011 Q1379.18 241.673 1381.24 240.515 Q1383.32 239.358 1386.03 239.358 Q1390.5 239.358 1392.79 242.136 Q1395.08 244.89 1395.08 250.261 Z" fill="#000000" fill-rule="evenodd" fill-opacity="1" /><path clip-path="url(#clip090)" d="M1438.83 244.96 Q1440.43 242.089 1442.65 240.724 Q1444.87 239.358 1447.88 239.358 Q1451.93 239.358 1454.13 242.205 Q1456.33 245.029 1456.33 250.261 L1456.33 265.909 L1452.05 265.909 L1452.05 250.399 Q1452.05 246.673 1450.73 244.867 Q1449.41 243.062 1446.7 243.062 Q1443.39 243.062 1441.47 245.261 Q1439.55 247.46 1439.55 251.256 L1439.55 265.909 L1435.27 265.909 L1435.27 250.399 Q1435.27 246.649 1433.95 244.867 Q1432.63 243.062 1429.87 243.062 Q1426.61 243.062 1424.69 245.284 Q1422.77 247.483 1422.77 251.256 L1422.77 265.909 L1418.48 265.909 L1418.48 239.983 L1422.77 239.983 L1422.77 244.011 Q1424.23 241.626 1426.26 240.492 Q1428.3 239.358 1431.1 239.358 Q1433.92 239.358 1435.89 240.793 Q1437.88 242.228 1438.83 244.96 Z" fill="#000000" fill-rule="evenodd" fill-opacity="1" /><path clip-path="url(#clip090)" d="M1476.61 252.876 Q1471.45 252.876 1469.46 254.057 Q1467.47 255.237 1467.47 258.085 Q1467.47 260.353 1468.95 261.696 Q1470.45 263.015 1473.02 263.015 Q1476.56 263.015 1478.69 260.515 Q1480.85 257.992 1480.85 253.825 L1480.85 252.876 L1476.61 252.876 M1485.1 251.117 L1485.1 265.909 L1480.85 265.909 L1480.85 261.973 Q1479.39 264.335 1477.21 265.469 Q1475.04 266.58 1471.89 266.58 Q1467.91 266.58 1465.54 264.358 Q1463.21 262.112 1463.21 258.362 Q1463.21 253.987 1466.12 251.765 Q1469.06 249.543 1474.87 249.543 L1480.85 249.543 L1480.85 249.126 Q1480.85 246.187 1478.9 244.589 Q1476.98 242.969 1473.48 242.969 Q1471.26 242.969 1469.16 243.501 Q1467.05 244.034 1465.1 245.099 L1465.1 241.163 Q1467.44 240.261 1469.64 239.821 Q1471.84 239.358 1473.92 239.358 Q1479.55 239.358 1482.33 242.274 Q1485.1 245.191 1485.1 251.117 Z" fill="#000000" fill-rule="evenodd" fill-opacity="1" /><path clip-path="url(#clip090)" d="M1498 262.02 L1498 275.77 L1493.72 275.77 L1493.72 239.983 L1498 239.983 L1498 243.918 Q1499.34 241.603 1501.38 240.492 Q1503.44 239.358 1506.28 239.358 Q1511.01 239.358 1513.95 243.108 Q1516.91 246.858 1516.91 252.969 Q1516.91 259.08 1513.95 262.83 Q1511.01 266.58 1506.28 266.58 Q1503.44 266.58 1501.38 265.469 Q1499.34 264.335 1498 262.02 M1512.49 252.969 Q1512.49 248.27 1510.54 245.608 Q1508.62 242.923 1505.24 242.923 Q1501.86 242.923 1499.92 245.608 Q1498 248.27 1498 252.969 Q1498 257.668 1499.92 260.353 Q1501.86 263.015 1505.24 263.015 Q1508.62 263.015 1510.54 260.353 Q1512.49 257.668 1512.49 252.969 Z" fill="#000000" fill-rule="evenodd" fill-opacity="1" /><path clip-path="url(#clip090)" d="M1550.82 252.876 Q1545.66 252.876 1543.67 254.057 Q1541.68 255.237 1541.68 258.085 Q1541.68 260.353 1543.16 261.696 Q1544.66 263.015 1547.23 263.015 Q1550.78 263.015 1552.91 260.515 Q1555.06 257.992 1555.06 253.825 L1555.06 252.876 L1550.82 252.876 M1559.32 251.117 L1559.32 265.909 L1555.06 265.909 L1555.06 261.973 Q1553.6 264.335 1551.42 265.469 Q1549.25 266.58 1546.1 266.58 Q1542.12 266.58 1539.76 264.358 Q1537.42 262.112 1537.42 258.362 Q1537.42 253.987 1540.34 251.765 Q1543.28 249.543 1549.09 249.543 L1555.06 249.543 L1555.06 249.126 Q1555.06 246.187 1553.11 244.589 Q1551.19 242.969 1547.7 242.969 Q1545.47 242.969 1543.37 243.501 Q1541.26 244.034 1539.32 245.099 L1539.32 241.163 Q1541.66 240.261 1543.85 239.821 Q1546.05 239.358 1548.14 239.358 Q1553.76 239.358 1556.54 242.274 Q1559.32 245.191 1559.32 251.117 Z" fill="#000000" fill-rule="evenodd" fill-opacity="1" /><path clip-path="url(#clip090)" d="M1589.64 250.261 L1589.64 265.909 L1585.38 265.909 L1585.38 250.399 Q1585.38 246.719 1583.95 244.89 Q1582.51 243.062 1579.64 243.062 Q1576.19 243.062 1574.2 245.261 Q1572.21 247.46 1572.21 251.256 L1572.21 265.909 L1567.93 265.909 L1567.93 239.983 L1572.21 239.983 L1572.21 244.011 Q1573.74 241.673 1575.8 240.515 Q1577.88 239.358 1580.59 239.358 Q1585.06 239.358 1587.35 242.136 Q1589.64 244.89 1589.64 250.261 Z" fill="#000000" fill-rule="evenodd" fill-opacity="1" /><path clip-path="url(#clip090)" d="M1615.2 243.918 L1615.2 229.89 L1619.46 229.89 L1619.46 265.909 L1615.2 265.909 L1615.2 262.02 Q1613.85 264.335 1611.79 265.469 Q1609.76 266.58 1606.89 266.58 Q1602.19 266.58 1599.22 262.83 Q1596.28 259.08 1596.28 252.969 Q1596.28 246.858 1599.22 243.108 Q1602.19 239.358 1606.89 239.358 Q1609.76 239.358 1611.79 240.492 Q1613.85 241.603 1615.2 243.918 M1600.68 252.969 Q1600.68 257.668 1602.6 260.353 Q1604.55 263.015 1607.93 263.015 Q1611.31 263.015 1613.25 260.353 Q1615.2 257.668 1615.2 252.969 Q1615.2 248.27 1613.25 245.608 Q1611.31 242.923 1607.93 242.923 Q1604.55 242.923 1602.6 245.608 Q1600.68 248.27 1600.68 252.969 Z" fill="#000000" fill-rule="evenodd" fill-opacity="1" /><path clip-path="url(#clip090)" d="M1659.83 240.747 L1659.83 244.774 Q1658.02 243.849 1656.08 243.386 Q1654.13 242.923 1652.05 242.923 Q1648.88 242.923 1647.28 243.895 Q1645.71 244.867 1645.71 246.811 Q1645.71 248.293 1646.84 249.149 Q1647.97 249.983 1651.4 250.747 L1652.86 251.071 Q1657.4 252.043 1659.29 253.825 Q1661.21 255.585 1661.21 258.756 Q1661.21 262.367 1658.34 264.473 Q1655.5 266.58 1650.5 266.58 Q1648.41 266.58 1646.15 266.163 Q1643.9 265.77 1641.4 264.96 L1641.4 260.561 Q1643.76 261.788 1646.05 262.413 Q1648.34 263.015 1650.59 263.015 Q1653.6 263.015 1655.22 261.997 Q1656.84 260.955 1656.84 259.08 Q1656.84 257.344 1655.66 256.418 Q1654.5 255.492 1650.54 254.636 L1649.06 254.288 Q1645.1 253.455 1643.34 251.742 Q1641.59 250.006 1641.59 246.997 Q1641.59 243.339 1644.18 241.349 Q1646.77 239.358 1651.54 239.358 Q1653.9 239.358 1655.98 239.705 Q1658.07 240.052 1659.83 240.747 Z" fill="#000000" fill-rule="evenodd" fill-opacity="1" /><path clip-path="url(#clip090)" d="M1672.21 232.622 L1672.21 239.983 L1680.98 239.983 L1680.98 243.293 L1672.21 243.293 L1672.21 257.367 Q1672.21 260.538 1673.07 261.441 Q1673.95 262.344 1676.61 262.344 L1680.98 262.344 L1680.98 265.909 L1676.61 265.909 Q1671.68 265.909 1669.8 264.08 Q1667.93 262.228 1667.93 257.367 L1667.93 243.293 L1664.8 243.293 L1664.8 239.983 L1667.93 239.983 L1667.93 232.622 L1672.21 232.622 Z" fill="#000000" fill-rule="evenodd" fill-opacity="1" /><path clip-path="url(#clip090)" d="M1698.37 252.876 Q1693.21 252.876 1691.21 254.057 Q1689.22 255.237 1689.22 258.085 Q1689.22 260.353 1690.71 261.696 Q1692.21 263.015 1694.78 263.015 Q1698.32 263.015 1700.45 260.515 Q1702.6 257.992 1702.6 253.825 L1702.6 252.876 L1698.37 252.876 M1706.86 251.117 L1706.86 265.909 L1702.6 265.909 L1702.6 261.973 Q1701.15 264.335 1698.97 265.469 Q1696.79 266.58 1693.65 266.58 Q1689.66 266.58 1687.3 264.358 Q1684.96 262.112 1684.96 258.362 Q1684.96 253.987 1687.88 251.765 Q1690.82 249.543 1696.63 249.543 L1702.6 249.543 L1702.6 249.126 Q1702.6 246.187 1700.66 244.589 Q1698.74 242.969 1695.24 242.969 Q1693.02 242.969 1690.91 243.501 Q1688.81 244.034 1686.86 245.099 L1686.86 241.163 Q1689.2 240.261 1691.4 239.821 Q1693.6 239.358 1695.68 239.358 Q1701.31 239.358 1704.08 242.274 Q1706.86 245.191 1706.86 251.117 Z" fill="#000000" fill-rule="evenodd" fill-opacity="1" /><path clip-path="url(#clip090)" d="M1719.85 232.622 L1719.85 239.983 L1728.62 239.983 L1728.62 243.293 L1719.85 243.293 L1719.85 257.367 Q1719.85 260.538 1720.71 261.441 Q1721.58 262.344 1724.25 262.344 L1728.62 262.344 L1728.62 265.909 L1724.25 265.909 Q1719.32 265.909 1717.44 264.08 Q1715.57 262.228 1715.57 257.367 L1715.57 243.293 L1712.44 243.293 L1712.44 239.983 L1715.57 239.983 L1715.57 232.622 L1719.85 232.622 Z" fill="#000000" fill-rule="evenodd" fill-opacity="1" /><path clip-path="url(#clip090)" d="M1734.22 239.983 L1738.48 239.983 L1738.48 265.909 L1734.22 265.909 L1734.22 239.983 M1734.22 229.89 L1738.48 229.89 L1738.48 235.284 L1734.22 235.284 L1734.22 229.89 Z" fill="#000000" fill-rule="evenodd" fill-opacity="1" /><path clip-path="url(#clip090)" d="M1766.05 240.978 L1766.05 244.96 Q1764.25 243.964 1762.42 243.478 Q1760.61 242.969 1758.76 242.969 Q1754.62 242.969 1752.33 245.608 Q1750.03 248.224 1750.03 252.969 Q1750.03 257.714 1752.33 260.353 Q1754.62 262.969 1758.76 262.969 Q1760.61 262.969 1762.42 262.483 Q1764.25 261.973 1766.05 260.978 L1766.05 264.913 Q1764.27 265.747 1762.35 266.163 Q1760.45 266.58 1758.3 266.58 Q1752.44 266.58 1748.99 262.899 Q1745.54 259.219 1745.54 252.969 Q1745.54 246.626 1749.02 242.992 Q1752.51 239.358 1758.58 239.358 Q1760.54 239.358 1762.42 239.775 Q1764.29 240.168 1766.05 240.978 Z" fill="#000000" fill-rule="evenodd" fill-opacity="1" /><path clip-path="url(#clip090)" d="M1798.58 242.969 Q1795.15 242.969 1793.16 245.654 Q1791.17 248.316 1791.17 252.969 Q1791.17 257.622 1793.14 260.307 Q1795.13 262.969 1798.58 262.969 Q1801.98 262.969 1803.97 260.284 Q1805.96 257.598 1805.96 252.969 Q1805.96 248.362 1803.97 245.677 Q1801.98 242.969 1798.58 242.969 M1798.58 239.358 Q1804.13 239.358 1807.3 242.969 Q1810.47 246.58 1810.47 252.969 Q1810.47 259.335 1807.3 262.969 Q1804.13 266.58 1798.58 266.58 Q1793 266.58 1789.83 262.969 Q1786.68 259.335 1786.68 252.969 Q1786.68 246.58 1789.83 242.969 Q1793 239.358 1798.58 239.358 Z" fill="#000000" fill-rule="evenodd" fill-opacity="1" /><path clip-path="url(#clip090)" d="M1817.09 255.677 L1817.09 239.983 L1821.35 239.983 L1821.35 255.515 Q1821.35 259.196 1822.79 261.048 Q1824.22 262.876 1827.09 262.876 Q1830.54 262.876 1832.53 260.677 Q1834.55 258.478 1834.55 254.682 L1834.55 239.983 L1838.81 239.983 L1838.81 265.909 L1834.55 265.909 L1834.55 261.927 Q1833 264.288 1830.94 265.446 Q1828.9 266.58 1826.19 266.58 Q1821.72 266.58 1819.41 263.802 Q1817.09 261.024 1817.09 255.677 M1827.81 239.358 L1827.81 239.358 Z" fill="#000000" fill-rule="evenodd" fill-opacity="1" /><path clip-path="url(#clip090)" d="M1851.79 232.622 L1851.79 239.983 L1860.57 239.983 L1860.57 243.293 L1851.79 243.293 L1851.79 257.367 Q1851.79 260.538 1852.65 261.441 Q1853.53 262.344 1856.19 262.344 L1860.57 262.344 L1860.57 265.909 L1856.19 265.909 Q1851.26 265.909 1849.38 264.08 Q1847.51 262.228 1847.51 257.367 L1847.51 243.293 L1844.39 243.293 L1844.39 239.983 L1847.51 239.983 L1847.51 232.622 L1851.79 232.622 Z" fill="#000000" fill-rule="evenodd" fill-opacity="1" /><path clip-path="url(#clip090)" d="M1888.34 251.881 L1888.34 253.964 L1868.76 253.964 Q1869.04 258.362 1871.4 260.677 Q1873.78 262.969 1878.02 262.969 Q1880.47 262.969 1882.76 262.367 Q1885.08 261.765 1887.35 260.561 L1887.35 264.589 Q1885.06 265.561 1882.65 266.071 Q1880.24 266.58 1877.76 266.58 Q1871.56 266.58 1867.93 262.969 Q1864.32 259.358 1864.32 253.2 Q1864.32 246.835 1867.74 243.108 Q1871.19 239.358 1877.02 239.358 Q1882.26 239.358 1885.29 242.737 Q1888.34 246.094 1888.34 251.881 M1884.08 250.631 Q1884.04 247.136 1882.12 245.052 Q1880.22 242.969 1877.07 242.969 Q1873.51 242.969 1871.35 244.983 Q1869.22 246.997 1868.9 250.654 L1884.08 250.631 Z" fill="#000000" fill-rule="evenodd" fill-opacity="1" /><path clip-path="url(#clip090)" d="M1910.36 243.964 Q1909.64 243.548 1908.78 243.362 Q1907.95 243.154 1906.93 243.154 Q1903.32 243.154 1901.38 245.515 Q1899.45 247.853 1899.45 252.251 L1899.45 265.909 L1895.17 265.909 L1895.17 239.983 L1899.45 239.983 L1899.45 244.011 Q1900.8 241.649 1902.95 240.515 Q1905.1 239.358 1908.18 239.358 Q1908.62 239.358 1909.15 239.427 Q1909.69 239.474 1910.33 239.589 L1910.36 243.964 Z" fill="#000000" fill-rule="evenodd" fill-opacity="1" /><path clip-path="url(#clip090)" d="M1943.02 229.89 L1943.02 233.432 L1938.94 233.432 Q1936.65 233.432 1935.75 234.358 Q1934.87 235.284 1934.87 237.691 L1934.87 239.983 L1941.88 239.983 L1941.88 243.293 L1934.87 243.293 L1934.87 265.909 L1930.59 265.909 L1930.59 243.293 L1926.51 243.293 L1926.51 239.983 L1930.59 239.983 L1930.59 238.177 Q1930.59 233.849 1932.6 231.881 Q1934.62 229.89 1938.99 229.89 L1943.02 229.89 Z" fill="#000000" fill-rule="evenodd" fill-opacity="1" /><path clip-path="url(#clip090)" d="M1968.13 250.261 L1968.13 265.909 L1963.88 265.909 L1963.88 250.399 Q1963.88 246.719 1962.44 244.89 Q1961 243.062 1958.13 243.062 Q1954.69 243.062 1952.69 245.261 Q1950.7 247.46 1950.7 251.256 L1950.7 265.909 L1946.42 265.909 L1946.42 239.983 L1950.7 239.983 L1950.7 244.011 Q1952.23 241.673 1954.29 240.515 Q1956.38 239.358 1959.08 239.358 Q1963.55 239.358 1965.84 242.136 Q1968.13 244.89 1968.13 250.261 Z" fill="#000000" fill-rule="evenodd" fill-opacity="1" /><polyline clip-path="url(#clip090)" style="stroke:#c271d2; stroke-linecap:butt; stroke-linejoin:round; stroke-width:4; stroke-opacity:1; fill:none" points="
  1136.78,300.469 1277.13,300.469 
  "/>
<path clip-path="url(#clip090)" d="M1300.52 291.823 L1304.78 291.823 L1310.11 312.054 L1315.41 291.823 L1320.43 291.823 L1325.75 312.054 L1331.05 291.823 L1335.31 291.823 L1328.53 317.749 L1323.51 317.749 L1317.93 296.499 L1312.33 317.749 L1307.3 317.749 L1300.52 291.823 Z" fill="#000000" fill-rule="evenodd" fill-opacity="1" /><path clip-path="url(#clip090)" d="M1341.77 291.823 L1346.03 291.823 L1346.03 317.749 L1341.77 317.749 L1341.77 291.823 M1341.77 281.73 L1346.03 281.73 L1346.03 287.124 L1341.77 287.124 L1341.77 281.73 Z" fill="#000000" fill-rule="evenodd" fill-opacity="1" /><path clip-path="url(#clip090)" d="M1359.16 284.462 L1359.16 291.823 L1367.93 291.823 L1367.93 295.133 L1359.16 295.133 L1359.16 309.207 Q1359.16 312.378 1360.01 313.281 Q1360.89 314.184 1363.55 314.184 L1367.93 314.184 L1367.93 317.749 L1363.55 317.749 Q1358.62 317.749 1356.75 315.92 Q1354.87 314.068 1354.87 309.207 L1354.87 295.133 L1351.75 295.133 L1351.75 291.823 L1354.87 291.823 L1354.87 284.462 L1359.16 284.462 Z" fill="#000000" fill-rule="evenodd" fill-opacity="1" /><path clip-path="url(#clip090)" d="M1395.08 302.101 L1395.08 317.749 L1390.82 317.749 L1390.82 302.239 Q1390.82 298.559 1389.39 296.73 Q1387.95 294.902 1385.08 294.902 Q1381.63 294.902 1379.64 297.101 Q1377.65 299.3 1377.65 303.096 L1377.65 317.749 L1373.37 317.749 L1373.37 281.73 L1377.65 281.73 L1377.65 295.851 Q1379.18 293.513 1381.24 292.355 Q1383.32 291.198 1386.03 291.198 Q1390.5 291.198 1392.79 293.976 Q1395.08 296.73 1395.08 302.101 Z" fill="#000000" fill-rule="evenodd" fill-opacity="1" /><path clip-path="url(#clip090)" d="M1438.83 296.8 Q1440.43 293.929 1442.65 292.564 Q1444.87 291.198 1447.88 291.198 Q1451.93 291.198 1454.13 294.045 Q1456.33 296.869 1456.33 302.101 L1456.33 317.749 L1452.05 317.749 L1452.05 302.239 Q1452.05 298.513 1450.73 296.707 Q1449.41 294.902 1446.7 294.902 Q1443.39 294.902 1441.47 297.101 Q1439.55 299.3 1439.55 303.096 L1439.55 317.749 L1435.27 317.749 L1435.27 302.239 Q1435.27 298.489 1433.95 296.707 Q1432.63 294.902 1429.87 294.902 Q1426.61 294.902 1424.69 297.124 Q1422.77 299.323 1422.77 303.096 L1422.77 317.749 L1418.48 317.749 L1418.48 291.823 L1422.77 291.823 L1422.77 295.851 Q1424.23 293.466 1426.26 292.332 Q1428.3 291.198 1431.1 291.198 Q1433.92 291.198 1435.89 292.633 Q1437.88 294.068 1438.83 296.8 Z" fill="#000000" fill-rule="evenodd" fill-opacity="1" /><path clip-path="url(#clip090)" d="M1476.61 304.716 Q1471.45 304.716 1469.46 305.897 Q1467.47 307.077 1467.47 309.925 Q1467.47 312.193 1468.95 313.536 Q1470.45 314.855 1473.02 314.855 Q1476.56 314.855 1478.69 312.355 Q1480.85 309.832 1480.85 305.665 L1480.85 304.716 L1476.61 304.716 M1485.1 302.957 L1485.1 317.749 L1480.85 317.749 L1480.85 313.813 Q1479.39 316.175 1477.21 317.309 Q1475.04 318.42 1471.89 318.42 Q1467.91 318.42 1465.54 316.198 Q1463.21 313.952 1463.21 310.202 Q1463.21 305.827 1466.12 303.605 Q1469.06 301.383 1474.87 301.383 L1480.85 301.383 L1480.85 300.966 Q1480.85 298.027 1478.9 296.429 Q1476.98 294.809 1473.48 294.809 Q1471.26 294.809 1469.16 295.341 Q1467.05 295.874 1465.1 296.939 L1465.1 293.003 Q1467.44 292.101 1469.64 291.661 Q1471.84 291.198 1473.92 291.198 Q1479.55 291.198 1482.33 294.114 Q1485.1 297.031 1485.1 302.957 Z" fill="#000000" fill-rule="evenodd" fill-opacity="1" /><path clip-path="url(#clip090)" d="M1498 313.86 L1498 327.61 L1493.72 327.61 L1493.72 291.823 L1498 291.823 L1498 295.758 Q1499.34 293.443 1501.38 292.332 Q1503.44 291.198 1506.28 291.198 Q1511.01 291.198 1513.95 294.948 Q1516.91 298.698 1516.91 304.809 Q1516.91 310.92 1513.95 314.67 Q1511.01 318.42 1506.28 318.42 Q1503.44 318.42 1501.38 317.309 Q1499.34 316.175 1498 313.86 M1512.49 304.809 Q1512.49 300.11 1510.54 297.448 Q1508.62 294.763 1505.24 294.763 Q1501.86 294.763 1499.92 297.448 Q1498 300.11 1498 304.809 Q1498 309.508 1499.92 312.193 Q1501.86 314.855 1505.24 314.855 Q1508.62 314.855 1510.54 312.193 Q1512.49 309.508 1512.49 304.809 Z" fill="#000000" fill-rule="evenodd" fill-opacity="1" /><path clip-path="url(#clip090)" d="M1550.82 304.716 Q1545.66 304.716 1543.67 305.897 Q1541.68 307.077 1541.68 309.925 Q1541.68 312.193 1543.16 313.536 Q1544.66 314.855 1547.23 314.855 Q1550.78 314.855 1552.91 312.355 Q1555.06 309.832 1555.06 305.665 L1555.06 304.716 L1550.82 304.716 M1559.32 302.957 L1559.32 317.749 L1555.06 317.749 L1555.06 313.813 Q1553.6 316.175 1551.42 317.309 Q1549.25 318.42 1546.1 318.42 Q1542.12 318.42 1539.76 316.198 Q1537.42 313.952 1537.42 310.202 Q1537.42 305.827 1540.34 303.605 Q1543.28 301.383 1549.09 301.383 L1555.06 301.383 L1555.06 300.966 Q1555.06 298.027 1553.11 296.429 Q1551.19 294.809 1547.7 294.809 Q1545.47 294.809 1543.37 295.341 Q1541.26 295.874 1539.32 296.939 L1539.32 293.003 Q1541.66 292.101 1543.85 291.661 Q1546.05 291.198 1548.14 291.198 Q1553.76 291.198 1556.54 294.114 Q1559.32 297.031 1559.32 302.957 Z" fill="#000000" fill-rule="evenodd" fill-opacity="1" /><path clip-path="url(#clip090)" d="M1589.64 302.101 L1589.64 317.749 L1585.38 317.749 L1585.38 302.239 Q1585.38 298.559 1583.95 296.73 Q1582.51 294.902 1579.64 294.902 Q1576.19 294.902 1574.2 297.101 Q1572.21 299.3 1572.21 303.096 L1572.21 317.749 L1567.93 317.749 L1567.93 291.823 L1572.21 291.823 L1572.21 295.851 Q1573.74 293.513 1575.8 292.355 Q1577.88 291.198 1580.59 291.198 Q1585.06 291.198 1587.35 293.976 Q1589.64 296.73 1589.64 302.101 Z" fill="#000000" fill-rule="evenodd" fill-opacity="1" /><path clip-path="url(#clip090)" d="M1615.2 295.758 L1615.2 281.73 L1619.46 281.73 L1619.46 317.749 L1615.2 317.749 L1615.2 313.86 Q1613.85 316.175 1611.79 317.309 Q1609.76 318.42 1606.89 318.42 Q1602.19 318.42 1599.22 314.67 Q1596.28 310.92 1596.28 304.809 Q1596.28 298.698 1599.22 294.948 Q1602.19 291.198 1606.89 291.198 Q1609.76 291.198 1611.79 292.332 Q1613.85 293.443 1615.2 295.758 M1600.68 304.809 Q1600.68 309.508 1602.6 312.193 Q1604.55 314.855 1607.93 314.855 Q1611.31 314.855 1613.25 312.193 Q1615.2 309.508 1615.2 304.809 Q1615.2 300.11 1613.25 297.448 Q1611.31 294.763 1607.93 294.763 Q1604.55 294.763 1602.6 297.448 Q1600.68 300.11 1600.68 304.809 Z" fill="#000000" fill-rule="evenodd" fill-opacity="1" /><path clip-path="url(#clip090)" d="M1659.83 292.587 L1659.83 296.614 Q1658.02 295.689 1656.08 295.226 Q1654.13 294.763 1652.05 294.763 Q1648.88 294.763 1647.28 295.735 Q1645.71 296.707 1645.71 298.651 Q1645.71 300.133 1646.84 300.989 Q1647.97 301.823 1651.4 302.587 L1652.86 302.911 Q1657.4 303.883 1659.29 305.665 Q1661.21 307.425 1661.21 310.596 Q1661.21 314.207 1658.34 316.313 Q1655.5 318.42 1650.5 318.42 Q1648.41 318.42 1646.15 318.003 Q1643.9 317.61 1641.4 316.8 L1641.4 312.401 Q1643.76 313.628 1646.05 314.253 Q1648.34 314.855 1650.59 314.855 Q1653.6 314.855 1655.22 313.837 Q1656.84 312.795 1656.84 310.92 Q1656.84 309.184 1655.66 308.258 Q1654.5 307.332 1650.54 306.476 L1649.06 306.128 Q1645.1 305.295 1643.34 303.582 Q1641.59 301.846 1641.59 298.837 Q1641.59 295.179 1644.18 293.189 Q1646.77 291.198 1651.54 291.198 Q1653.9 291.198 1655.98 291.545 Q1658.07 291.892 1659.83 292.587 Z" fill="#000000" fill-rule="evenodd" fill-opacity="1" /><path clip-path="url(#clip090)" d="M1672.21 284.462 L1672.21 291.823 L1680.98 291.823 L1680.98 295.133 L1672.21 295.133 L1672.21 309.207 Q1672.21 312.378 1673.07 313.281 Q1673.95 314.184 1676.61 314.184 L1680.98 314.184 L1680.98 317.749 L1676.61 317.749 Q1671.68 317.749 1669.8 315.92 Q1667.93 314.068 1667.93 309.207 L1667.93 295.133 L1664.8 295.133 L1664.8 291.823 L1667.93 291.823 L1667.93 284.462 L1672.21 284.462 Z" fill="#000000" fill-rule="evenodd" fill-opacity="1" /><path clip-path="url(#clip090)" d="M1698.37 304.716 Q1693.21 304.716 1691.21 305.897 Q1689.22 307.077 1689.22 309.925 Q1689.22 312.193 1690.71 313.536 Q1692.21 314.855 1694.78 314.855 Q1698.32 314.855 1700.45 312.355 Q1702.6 309.832 1702.6 305.665 L1702.6 304.716 L1698.37 304.716 M1706.86 302.957 L1706.86 317.749 L1702.6 317.749 L1702.6 313.813 Q1701.15 316.175 1698.97 317.309 Q1696.79 318.42 1693.65 318.42 Q1689.66 318.42 1687.3 316.198 Q1684.96 313.952 1684.96 310.202 Q1684.96 305.827 1687.88 303.605 Q1690.82 301.383 1696.63 301.383 L1702.6 301.383 L1702.6 300.966 Q1702.6 298.027 1700.66 296.429 Q1698.74 294.809 1695.24 294.809 Q1693.02 294.809 1690.91 295.341 Q1688.81 295.874 1686.86 296.939 L1686.86 293.003 Q1689.2 292.101 1691.4 291.661 Q1693.6 291.198 1695.68 291.198 Q1701.31 291.198 1704.08 294.114 Q1706.86 297.031 1706.86 302.957 Z" fill="#000000" fill-rule="evenodd" fill-opacity="1" /><path clip-path="url(#clip090)" d="M1719.85 284.462 L1719.85 291.823 L1728.62 291.823 L1728.62 295.133 L1719.85 295.133 L1719.85 309.207 Q1719.85 312.378 1720.71 313.281 Q1721.58 314.184 1724.25 314.184 L1728.62 314.184 L1728.62 317.749 L1724.25 317.749 Q1719.32 317.749 1717.44 315.92 Q1715.57 314.068 1715.57 309.207 L1715.57 295.133 L1712.44 295.133 L1712.44 291.823 L1715.57 291.823 L1715.57 284.462 L1719.85 284.462 Z" fill="#000000" fill-rule="evenodd" fill-opacity="1" /><path clip-path="url(#clip090)" d="M1734.22 291.823 L1738.48 291.823 L1738.48 317.749 L1734.22 317.749 L1734.22 291.823 M1734.22 281.73 L1738.48 281.73 L1738.48 287.124 L1734.22 287.124 L1734.22 281.73 Z" fill="#000000" fill-rule="evenodd" fill-opacity="1" /><path clip-path="url(#clip090)" d="M1766.05 292.818 L1766.05 296.8 Q1764.25 295.804 1762.42 295.318 Q1760.61 294.809 1758.76 294.809 Q1754.62 294.809 1752.33 297.448 Q1750.03 300.064 1750.03 304.809 Q1750.03 309.554 1752.33 312.193 Q1754.62 314.809 1758.76 314.809 Q1760.61 314.809 1762.42 314.323 Q1764.25 313.813 1766.05 312.818 L1766.05 316.753 Q1764.27 317.587 1762.35 318.003 Q1760.45 318.42 1758.3 318.42 Q1752.44 318.42 1748.99 314.739 Q1745.54 311.059 1745.54 304.809 Q1745.54 298.466 1749.02 294.832 Q1752.51 291.198 1758.58 291.198 Q1760.54 291.198 1762.42 291.615 Q1764.29 292.008 1766.05 292.818 Z" fill="#000000" fill-rule="evenodd" fill-opacity="1" /><path clip-path="url(#clip090)" d="M1798.58 294.809 Q1795.15 294.809 1793.16 297.494 Q1791.17 300.156 1791.17 304.809 Q1791.17 309.462 1793.14 312.147 Q1795.13 314.809 1798.58 314.809 Q1801.98 314.809 1803.97 312.124 Q1805.96 309.438 1805.96 304.809 Q1805.96 300.202 1803.97 297.517 Q1801.98 294.809 1798.58 294.809 M1798.58 291.198 Q1804.13 291.198 1807.3 294.809 Q1810.47 298.42 1810.47 304.809 Q1810.47 311.175 1807.3 314.809 Q1804.13 318.42 1798.58 318.42 Q1793 318.42 1789.83 314.809 Q1786.68 311.175 1786.68 304.809 Q1786.68 298.42 1789.83 294.809 Q1793 291.198 1798.58 291.198 Z" fill="#000000" fill-rule="evenodd" fill-opacity="1" /><path clip-path="url(#clip090)" d="M1817.09 307.517 L1817.09 291.823 L1821.35 291.823 L1821.35 307.355 Q1821.35 311.036 1822.79 312.888 Q1824.22 314.716 1827.09 314.716 Q1830.54 314.716 1832.53 312.517 Q1834.55 310.318 1834.55 306.522 L1834.55 291.823 L1838.81 291.823 L1838.81 317.749 L1834.55 317.749 L1834.55 313.767 Q1833 316.128 1830.94 317.286 Q1828.9 318.42 1826.19 318.42 Q1821.72 318.42 1819.41 315.642 Q1817.09 312.864 1817.09 307.517 M1827.81 291.198 L1827.81 291.198 Z" fill="#000000" fill-rule="evenodd" fill-opacity="1" /><path clip-path="url(#clip090)" d="M1851.79 284.462 L1851.79 291.823 L1860.57 291.823 L1860.57 295.133 L1851.79 295.133 L1851.79 309.207 Q1851.79 312.378 1852.65 313.281 Q1853.53 314.184 1856.19 314.184 L1860.57 314.184 L1860.57 317.749 L1856.19 317.749 Q1851.26 317.749 1849.38 315.92 Q1847.51 314.068 1847.51 309.207 L1847.51 295.133 L1844.39 295.133 L1844.39 291.823 L1847.51 291.823 L1847.51 284.462 L1851.79 284.462 Z" fill="#000000" fill-rule="evenodd" fill-opacity="1" /><path clip-path="url(#clip090)" d="M1888.34 303.721 L1888.34 305.804 L1868.76 305.804 Q1869.04 310.202 1871.4 312.517 Q1873.78 314.809 1878.02 314.809 Q1880.47 314.809 1882.76 314.207 Q1885.08 313.605 1887.35 312.401 L1887.35 316.429 Q1885.06 317.401 1882.65 317.911 Q1880.24 318.42 1877.76 318.42 Q1871.56 318.42 1867.93 314.809 Q1864.32 311.198 1864.32 305.04 Q1864.32 298.675 1867.74 294.948 Q1871.19 291.198 1877.02 291.198 Q1882.26 291.198 1885.29 294.577 Q1888.34 297.934 1888.34 303.721 M1884.08 302.471 Q1884.04 298.976 1882.12 296.892 Q1880.22 294.809 1877.07 294.809 Q1873.51 294.809 1871.35 296.823 Q1869.22 298.837 1868.9 302.494 L1884.08 302.471 Z" fill="#000000" fill-rule="evenodd" fill-opacity="1" /><path clip-path="url(#clip090)" d="M1910.36 295.804 Q1909.64 295.388 1908.78 295.202 Q1907.95 294.994 1906.93 294.994 Q1903.32 294.994 1901.38 297.355 Q1899.45 299.693 1899.45 304.091 L1899.45 317.749 L1895.17 317.749 L1895.17 291.823 L1899.45 291.823 L1899.45 295.851 Q1900.8 293.489 1902.95 292.355 Q1905.1 291.198 1908.18 291.198 Q1908.62 291.198 1909.15 291.267 Q1909.69 291.314 1910.33 291.429 L1910.36 295.804 Z" fill="#000000" fill-rule="evenodd" fill-opacity="1" /><path clip-path="url(#clip090)" d="M1941.68 304.716 Q1936.51 304.716 1934.52 305.897 Q1932.53 307.077 1932.53 309.925 Q1932.53 312.193 1934.01 313.536 Q1935.52 314.855 1938.09 314.855 Q1941.63 314.855 1943.76 312.355 Q1945.91 309.832 1945.91 305.665 L1945.91 304.716 L1941.68 304.716 M1950.17 302.957 L1950.17 317.749 L1945.91 317.749 L1945.91 313.813 Q1944.45 316.175 1942.28 317.309 Q1940.1 318.42 1936.95 318.42 Q1932.97 318.42 1930.61 316.198 Q1928.27 313.952 1928.27 310.202 Q1928.27 305.827 1931.19 303.605 Q1934.13 301.383 1939.94 301.383 L1945.91 301.383 L1945.91 300.966 Q1945.91 298.027 1943.97 296.429 Q1942.05 294.809 1938.55 294.809 Q1936.33 294.809 1934.22 295.341 Q1932.12 295.874 1930.17 296.939 L1930.17 293.003 Q1932.51 292.101 1934.71 291.661 Q1936.91 291.198 1938.99 291.198 Q1944.62 291.198 1947.39 294.114 Q1950.17 297.031 1950.17 302.957 Z" fill="#000000" fill-rule="evenodd" fill-opacity="1" /><path clip-path="url(#clip090)" d="M1980.5 302.101 L1980.5 317.749 L1976.24 317.749 L1976.24 302.239 Q1976.24 298.559 1974.8 296.73 Q1973.37 294.902 1970.5 294.902 Q1967.05 294.902 1965.06 297.101 Q1963.06 299.3 1963.06 303.096 L1963.06 317.749 L1958.78 317.749 L1958.78 291.823 L1963.06 291.823 L1963.06 295.851 Q1964.59 293.513 1966.65 292.355 Q1968.74 291.198 1971.44 291.198 Q1975.91 291.198 1978.2 293.976 Q1980.5 296.73 1980.5 302.101 Z" fill="#000000" fill-rule="evenodd" fill-opacity="1" /><path clip-path="url(#clip090)" d="M2006.05 295.758 L2006.05 281.73 L2010.31 281.73 L2010.31 317.749 L2006.05 317.749 L2006.05 313.86 Q2004.71 316.175 2002.65 317.309 Q2000.61 318.42 1997.74 318.42 Q1993.04 318.42 1990.08 314.67 Q1987.14 310.92 1987.14 304.809 Q1987.14 298.698 1990.08 294.948 Q1993.04 291.198 1997.74 291.198 Q2000.61 291.198 2002.65 292.332 Q2004.71 293.443 2006.05 295.758 M1991.54 304.809 Q1991.54 309.508 1993.46 312.193 Q1995.4 314.855 1998.78 314.855 Q2002.16 314.855 2004.11 312.193 Q2006.05 309.508 2006.05 304.809 Q2006.05 300.11 2004.11 297.448 Q2002.16 294.763 1998.78 294.763 Q1995.4 294.763 1993.46 297.448 Q1991.54 300.11 1991.54 304.809 Z" fill="#000000" fill-rule="evenodd" fill-opacity="1" /><path clip-path="url(#clip090)" d="M2034.15 291.823 L2038.41 291.823 L2038.41 317.749 L2034.15 317.749 L2034.15 291.823 M2034.15 281.73 L2038.41 281.73 L2038.41 287.124 L2034.15 287.124 L2034.15 281.73 Z" fill="#000000" fill-rule="evenodd" fill-opacity="1" /><path clip-path="url(#clip090)" d="M2068.87 302.101 L2068.87 317.749 L2064.62 317.749 L2064.62 302.239 Q2064.62 298.559 2063.18 296.73 Q2061.74 294.902 2058.87 294.902 Q2055.43 294.902 2053.43 297.101 Q2051.44 299.3 2051.44 303.096 L2051.44 317.749 L2047.16 317.749 L2047.16 291.823 L2051.44 291.823 L2051.44 295.851 Q2052.97 293.513 2055.03 292.355 Q2057.12 291.198 2059.82 291.198 Q2064.29 291.198 2066.58 293.976 Q2068.87 296.73 2068.87 302.101 Z" fill="#000000" fill-rule="evenodd" fill-opacity="1" /><path clip-path="url(#clip090)" d="M2098.92 302.101 L2098.92 317.749 L2094.66 317.749 L2094.66 302.239 Q2094.66 298.559 2093.23 296.73 Q2091.79 294.902 2088.92 294.902 Q2085.47 294.902 2083.48 297.101 Q2081.49 299.3 2081.49 303.096 L2081.49 317.749 L2077.21 317.749 L2077.21 291.823 L2081.49 291.823 L2081.49 295.851 Q2083.02 293.513 2085.08 292.355 Q2087.16 291.198 2089.87 291.198 Q2094.34 291.198 2096.63 293.976 Q2098.92 296.73 2098.92 302.101 Z" fill="#000000" fill-rule="evenodd" fill-opacity="1" /><path clip-path="url(#clip090)" d="M2129.59 303.721 L2129.59 305.804 L2110.01 305.804 Q2110.29 310.202 2112.65 312.517 Q2115.03 314.809 2119.27 314.809 Q2121.72 314.809 2124.01 314.207 Q2126.33 313.605 2128.6 312.401 L2128.6 316.429 Q2126.3 317.401 2123.9 317.911 Q2121.49 318.42 2119.01 318.42 Q2112.81 318.42 2109.18 314.809 Q2105.56 311.198 2105.56 305.04 Q2105.56 298.675 2108.99 294.948 Q2112.44 291.198 2118.27 291.198 Q2123.5 291.198 2126.54 294.577 Q2129.59 297.934 2129.59 303.721 M2125.33 302.471 Q2125.29 298.976 2123.36 296.892 Q2121.47 294.809 2118.32 294.809 Q2114.75 294.809 2112.6 296.823 Q2110.47 298.837 2110.15 302.494 L2125.33 302.471 Z" fill="#000000" fill-rule="evenodd" fill-opacity="1" /><path clip-path="url(#clip090)" d="M2151.61 295.804 Q2150.89 295.388 2150.03 295.202 Q2149.2 294.994 2148.18 294.994 Q2144.57 294.994 2142.62 297.355 Q2140.7 299.693 2140.7 304.091 L2140.7 317.749 L2136.42 317.749 L2136.42 291.823 L2140.7 291.823 L2140.7 295.851 Q2142.05 293.489 2144.2 292.355 Q2146.35 291.198 2149.43 291.198 Q2149.87 291.198 2150.4 291.267 Q2150.93 291.314 2151.58 291.429 L2151.61 295.804 Z" fill="#000000" fill-rule="evenodd" fill-opacity="1" /><path clip-path="url(#clip090)" d="M2184.27 281.73 L2184.27 285.272 L2180.19 285.272 Q2177.9 285.272 2177 286.198 Q2176.12 287.124 2176.12 289.531 L2176.12 291.823 L2183.13 291.823 L2183.13 295.133 L2176.12 295.133 L2176.12 317.749 L2171.84 317.749 L2171.84 295.133 L2167.76 295.133 L2167.76 291.823 L2171.84 291.823 L2171.84 290.017 Q2171.84 285.689 2173.85 283.721 Q2175.86 281.73 2180.24 281.73 L2184.27 281.73 Z" fill="#000000" fill-rule="evenodd" fill-opacity="1" /><path clip-path="url(#clip090)" d="M2209.38 302.101 L2209.38 317.749 L2205.12 317.749 L2205.12 302.239 Q2205.12 298.559 2203.69 296.73 Q2202.25 294.902 2199.38 294.902 Q2195.93 294.902 2193.94 297.101 Q2191.95 299.3 2191.95 303.096 L2191.95 317.749 L2187.67 317.749 L2187.67 291.823 L2191.95 291.823 L2191.95 295.851 Q2193.48 293.513 2195.54 292.355 Q2197.62 291.198 2200.33 291.198 Q2204.8 291.198 2207.09 293.976 Q2209.38 296.73 2209.38 302.101 Z" fill="#000000" fill-rule="evenodd" fill-opacity="1" /><path clip-path="url(#clip090)" d="M2234.41 292.587 L2234.41 296.614 Q2232.6 295.689 2230.66 295.226 Q2228.71 294.763 2226.63 294.763 Q2223.46 294.763 2221.86 295.735 Q2220.29 296.707 2220.29 298.651 Q2220.29 300.133 2221.42 300.989 Q2222.55 301.823 2225.98 302.587 L2227.44 302.911 Q2231.98 303.883 2233.87 305.665 Q2235.79 307.425 2235.79 310.596 Q2235.79 314.207 2232.92 316.313 Q2230.08 318.42 2225.08 318.42 Q2222.99 318.42 2220.73 318.003 Q2218.48 317.61 2215.98 316.8 L2215.98 312.401 Q2218.34 313.628 2220.63 314.253 Q2222.92 314.855 2225.17 314.855 Q2228.18 314.855 2229.8 313.837 Q2231.42 312.795 2231.42 310.92 Q2231.42 309.184 2230.24 308.258 Q2229.08 307.332 2225.12 306.476 L2223.64 306.128 Q2219.68 305.295 2217.92 303.582 Q2216.17 301.846 2216.17 298.837 Q2216.17 295.179 2218.76 293.189 Q2221.35 291.198 2226.12 291.198 Q2228.48 291.198 2230.56 291.545 Q2232.65 291.892 2234.41 292.587 Z" fill="#000000" fill-rule="evenodd" fill-opacity="1" /></svg>
