<?xml version="1.0" encoding="utf-8"?>
<svg xmlns="http://www.w3.org/2000/svg" xmlns:xlink="http://www.w3.org/1999/xlink" width="600" height="400" viewBox="0 0 2400 1600">
<defs>
  <clipPath id="clip610">
    <rect x="0" y="0" width="2400" height="1600"/>
  </clipPath>
</defs>
<path clip-path="url(#clip610)" d="
M0 1600 L2400 1600 L2400 0 L0 0  Z
  " fill="#ffffff" fill-rule="evenodd" fill-opacity="1"/>
<defs>
  <clipPath id="clip611">
    <rect x="480" y="0" width="1681" height="1600"/>
  </clipPath>
</defs>
<path clip-path="url(#clip610)" d="
M247.459 1423.18 L2352.76 1423.18 L2352.76 47.2441 L247.459 47.2441  Z
  " fill="#ffffff" fill-rule="evenodd" fill-opacity="1"/>
<defs>
  <clipPath id="clip612">
    <rect x="247" y="47" width="2106" height="1377"/>
  </clipPath>
</defs>
<polyline clip-path="url(#clip612)" style="stroke:#000000; stroke-linecap:butt; stroke-linejoin:round; stroke-width:2; stroke-opacity:0.1; fill:none" points="
  286.981,1423.18 286.981,47.2441 
  "/>
<polyline clip-path="url(#clip612)" style="stroke:#000000; stroke-linecap:butt; stroke-linejoin:round; stroke-width:2; stroke-opacity:0.1; fill:none" points="
  788.529,1423.18 788.529,47.2441 
  "/>
<polyline clip-path="url(#clip612)" style="stroke:#000000; stroke-linecap:butt; stroke-linejoin:round; stroke-width:2; stroke-opacity:0.1; fill:none" points="
  1290.08,1423.18 1290.08,47.2441 
  "/>
<polyline clip-path="url(#clip612)" style="stroke:#000000; stroke-linecap:butt; stroke-linejoin:round; stroke-width:2; stroke-opacity:0.1; fill:none" points="
  1791.62,1423.18 1791.62,47.2441 
  "/>
<polyline clip-path="url(#clip612)" style="stroke:#000000; stroke-linecap:butt; stroke-linejoin:round; stroke-width:2; stroke-opacity:0.1; fill:none" points="
  2293.17,1423.18 2293.17,47.2441 
  "/>
<polyline clip-path="url(#clip610)" style="stroke:#000000; stroke-linecap:butt; stroke-linejoin:round; stroke-width:4; stroke-opacity:1; fill:none" points="
  247.459,1423.18 2352.76,1423.18 
  "/>
<polyline clip-path="url(#clip610)" style="stroke:#000000; stroke-linecap:butt; stroke-linejoin:round; stroke-width:4; stroke-opacity:1; fill:none" points="
  286.981,1423.18 286.981,1404.28 
  "/>
<polyline clip-path="url(#clip610)" style="stroke:#000000; stroke-linecap:butt; stroke-linejoin:round; stroke-width:4; stroke-opacity:1; fill:none" points="
  788.529,1423.18 788.529,1404.28 
  "/>
<polyline clip-path="url(#clip610)" style="stroke:#000000; stroke-linecap:butt; stroke-linejoin:round; stroke-width:4; stroke-opacity:1; fill:none" points="
  1290.08,1423.18 1290.08,1404.28 
  "/>
<polyline clip-path="url(#clip610)" style="stroke:#000000; stroke-linecap:butt; stroke-linejoin:round; stroke-width:4; stroke-opacity:1; fill:none" points="
  1791.62,1423.18 1791.62,1404.28 
  "/>
<polyline clip-path="url(#clip610)" style="stroke:#000000; stroke-linecap:butt; stroke-linejoin:round; stroke-width:4; stroke-opacity:1; fill:none" points="
  2293.17,1423.18 2293.17,1404.28 
  "/>
<path clip-path="url(#clip610)" d="M286.981 1454.1 Q283.37 1454.1 281.541 1457.66 Q279.735 1461.2 279.735 1468.33 Q279.735 1475.44 281.541 1479.01 Q283.37 1482.55 286.981 1482.55 Q290.615 1482.55 292.42 1479.01 Q294.249 1475.44 294.249 1468.33 Q294.249 1461.2 292.42 1457.66 Q290.615 1454.1 286.981 1454.1 M286.981 1450.39 Q292.791 1450.39 295.846 1455 Q298.925 1459.58 298.925 1468.33 Q298.925 1477.06 295.846 1481.67 Q292.791 1486.25 286.981 1486.25 Q281.171 1486.25 278.092 1481.67 Q275.036 1477.06 275.036 1468.33 Q275.036 1459.58 278.092 1455 Q281.171 1450.39 286.981 1450.39 Z" fill="#000000" fill-rule="evenodd" fill-opacity="1" /><path clip-path="url(#clip610)" d="M767.799 1481.64 L784.119 1481.64 L784.119 1485.58 L762.174 1485.58 L762.174 1481.64 Q764.837 1478.89 769.42 1474.26 Q774.026 1469.61 775.207 1468.27 Q777.452 1465.74 778.332 1464.01 Q779.235 1462.25 779.235 1460.56 Q779.235 1457.8 777.29 1456.07 Q775.369 1454.33 772.267 1454.33 Q770.068 1454.33 767.614 1455.09 Q765.184 1455.86 762.406 1457.41 L762.406 1452.69 Q765.23 1451.55 767.684 1450.97 Q770.137 1450.39 772.174 1450.39 Q777.545 1450.39 780.739 1453.08 Q783.934 1455.77 783.934 1460.26 Q783.934 1462.39 783.123 1464.31 Q782.336 1466.2 780.23 1468.8 Q779.651 1469.47 776.549 1472.69 Q773.448 1475.88 767.799 1481.64 Z" fill="#000000" fill-rule="evenodd" fill-opacity="1" /><path clip-path="url(#clip610)" d="M793.98 1451.02 L812.336 1451.02 L812.336 1454.96 L798.262 1454.96 L798.262 1463.43 Q799.281 1463.08 800.299 1462.92 Q801.318 1462.73 802.336 1462.73 Q808.123 1462.73 811.503 1465.9 Q814.883 1469.08 814.883 1474.49 Q814.883 1480.07 811.41 1483.17 Q807.938 1486.25 801.619 1486.25 Q799.443 1486.25 797.174 1485.88 Q794.929 1485.51 792.522 1484.77 L792.522 1480.07 Q794.605 1481.2 796.827 1481.76 Q799.049 1482.32 801.526 1482.32 Q805.531 1482.32 807.869 1480.21 Q810.207 1478.1 810.207 1474.49 Q810.207 1470.88 807.869 1468.77 Q805.531 1466.67 801.526 1466.67 Q799.651 1466.67 797.776 1467.08 Q795.924 1467.5 793.98 1468.38 L793.98 1451.02 Z" fill="#000000" fill-rule="evenodd" fill-opacity="1" /><path clip-path="url(#clip610)" d="M1264.78 1451.02 L1283.13 1451.02 L1283.13 1454.96 L1269.06 1454.96 L1269.06 1463.43 Q1270.08 1463.08 1271.09 1462.92 Q1272.11 1462.73 1273.13 1462.73 Q1278.92 1462.73 1282.3 1465.9 Q1285.68 1469.08 1285.68 1474.49 Q1285.68 1480.07 1282.21 1483.17 Q1278.73 1486.25 1272.41 1486.25 Q1270.24 1486.25 1267.97 1485.88 Q1265.72 1485.51 1263.32 1484.77 L1263.32 1480.07 Q1265.4 1481.2 1267.62 1481.76 Q1269.84 1482.32 1272.32 1482.32 Q1276.33 1482.32 1278.66 1480.21 Q1281 1478.1 1281 1474.49 Q1281 1470.88 1278.66 1468.77 Q1276.33 1466.67 1272.32 1466.67 Q1270.45 1466.67 1268.57 1467.08 Q1266.72 1467.5 1264.78 1468.38 L1264.78 1451.02 Z" fill="#000000" fill-rule="evenodd" fill-opacity="1" /><path clip-path="url(#clip610)" d="M1304.89 1454.1 Q1301.28 1454.1 1299.45 1457.66 Q1297.65 1461.2 1297.65 1468.33 Q1297.65 1475.44 1299.45 1479.01 Q1301.28 1482.55 1304.89 1482.55 Q1308.53 1482.55 1310.33 1479.01 Q1312.16 1475.44 1312.16 1468.33 Q1312.16 1461.2 1310.33 1457.66 Q1308.53 1454.1 1304.89 1454.1 M1304.89 1450.39 Q1310.7 1450.39 1313.76 1455 Q1316.84 1459.58 1316.84 1468.33 Q1316.84 1477.06 1313.76 1481.67 Q1310.7 1486.25 1304.89 1486.25 Q1299.08 1486.25 1296 1481.67 Q1292.95 1477.06 1292.95 1468.33 Q1292.95 1459.58 1296 1455 Q1299.08 1450.39 1304.89 1450.39 Z" fill="#000000" fill-rule="evenodd" fill-opacity="1" /><path clip-path="url(#clip610)" d="M1765.48 1451.02 L1787.7 1451.02 L1787.7 1453.01 L1775.15 1485.58 L1770.27 1485.58 L1782.08 1454.96 L1765.48 1454.96 L1765.48 1451.02 Z" fill="#000000" fill-rule="evenodd" fill-opacity="1" /><path clip-path="url(#clip610)" d="M1796.87 1451.02 L1815.22 1451.02 L1815.22 1454.96 L1801.15 1454.96 L1801.15 1463.43 Q1802.17 1463.08 1803.19 1462.92 Q1804.21 1462.73 1805.22 1462.73 Q1811.01 1462.73 1814.39 1465.9 Q1817.77 1469.08 1817.77 1474.49 Q1817.77 1480.07 1814.3 1483.17 Q1810.83 1486.25 1804.51 1486.25 Q1802.33 1486.25 1800.06 1485.88 Q1797.82 1485.51 1795.41 1484.77 L1795.41 1480.07 Q1797.49 1481.2 1799.71 1481.76 Q1801.94 1482.32 1804.41 1482.32 Q1808.42 1482.32 1810.76 1480.21 Q1813.09 1478.1 1813.09 1474.49 Q1813.09 1470.88 1810.76 1468.77 Q1808.42 1466.67 1804.41 1466.67 Q1802.54 1466.67 1800.66 1467.08 Q1798.81 1467.5 1796.87 1468.38 L1796.87 1451.02 Z" fill="#000000" fill-rule="evenodd" fill-opacity="1" /><path clip-path="url(#clip610)" d="M2252.78 1481.64 L2260.42 1481.64 L2260.42 1455.28 L2252.11 1456.95 L2252.11 1452.69 L2260.37 1451.02 L2265.05 1451.02 L2265.05 1481.64 L2272.69 1481.64 L2272.69 1485.58 L2252.78 1485.58 L2252.78 1481.64 Z" fill="#000000" fill-rule="evenodd" fill-opacity="1" /><path clip-path="url(#clip610)" d="M2292.13 1454.1 Q2288.52 1454.1 2286.69 1457.66 Q2284.89 1461.2 2284.89 1468.33 Q2284.89 1475.44 2286.69 1479.01 Q2288.52 1482.55 2292.13 1482.55 Q2295.76 1482.55 2297.57 1479.01 Q2299.4 1475.44 2299.4 1468.33 Q2299.4 1461.2 2297.57 1457.66 Q2295.76 1454.1 2292.13 1454.1 M2292.13 1450.39 Q2297.94 1450.39 2301 1455 Q2304.07 1459.58 2304.07 1468.33 Q2304.07 1477.06 2301 1481.67 Q2297.94 1486.25 2292.13 1486.25 Q2286.32 1486.25 2283.24 1481.67 Q2280.19 1477.06 2280.19 1468.33 Q2280.19 1459.58 2283.24 1455 Q2286.32 1450.39 2292.13 1450.39 Z" fill="#000000" fill-rule="evenodd" fill-opacity="1" /><path clip-path="url(#clip610)" d="M2322.29 1454.1 Q2318.68 1454.1 2316.85 1457.66 Q2315.05 1461.2 2315.05 1468.33 Q2315.05 1475.44 2316.85 1479.01 Q2318.68 1482.55 2322.29 1482.55 Q2325.93 1482.55 2327.73 1479.01 Q2329.56 1475.44 2329.56 1468.33 Q2329.56 1461.2 2327.73 1457.66 Q2325.93 1454.1 2322.29 1454.1 M2322.29 1450.39 Q2328.1 1450.39 2331.16 1455 Q2334.24 1459.58 2334.24 1468.33 Q2334.24 1477.06 2331.16 1481.67 Q2328.1 1486.25 2322.29 1486.25 Q2316.48 1486.25 2313.4 1481.67 Q2310.35 1477.06 2310.35 1468.33 Q2310.35 1459.58 2313.4 1455 Q2316.48 1450.39 2322.29 1450.39 Z" fill="#000000" fill-rule="evenodd" fill-opacity="1" /><path clip-path="url(#clip610)" d="M971.303 1546.53 L971.303 1568.04 L965.446 1568.04 L965.446 1546.72 Q965.446 1541.66 963.473 1539.14 Q961.499 1536.63 957.553 1536.63 Q952.81 1536.63 950.073 1539.65 Q947.336 1542.68 947.336 1547.9 L947.336 1568.04 L941.447 1568.04 L941.447 1532.4 L947.336 1532.4 L947.336 1537.93 Q949.436 1534.72 952.269 1533.13 Q955.134 1531.54 958.858 1531.54 Q965.001 1531.54 968.152 1535.36 Q971.303 1539.14 971.303 1546.53 Z" fill="#000000" fill-rule="evenodd" fill-opacity="1" /><path clip-path="url(#clip610)" d="M982.379 1553.98 L982.379 1532.4 L988.235 1532.4 L988.235 1553.75 Q988.235 1558.81 990.209 1561.36 Q992.182 1563.87 996.129 1563.87 Q1000.87 1563.87 1003.61 1560.85 Q1006.38 1557.83 1006.38 1552.61 L1006.38 1532.4 L1012.23 1532.4 L1012.23 1568.04 L1006.38 1568.04 L1006.38 1562.57 Q1004.25 1565.82 1001.41 1567.41 Q998.612 1568.97 994.888 1568.97 Q988.745 1568.97 985.562 1565.15 Q982.379 1561.33 982.379 1553.98 M997.116 1531.54 L997.116 1531.54 Z" fill="#000000" fill-rule="evenodd" fill-opacity="1" /><path clip-path="url(#clip610)" d="M1052.05 1539.24 Q1054.25 1535.29 1057.3 1533.41 Q1060.36 1531.54 1064.5 1531.54 Q1070.07 1531.54 1073.09 1535.45 Q1076.11 1539.33 1076.11 1546.53 L1076.11 1568.04 L1070.23 1568.04 L1070.23 1546.72 Q1070.23 1541.59 1068.41 1539.11 Q1066.6 1536.63 1062.87 1536.63 Q1058.32 1536.63 1055.68 1539.65 Q1053.04 1542.68 1053.04 1547.9 L1053.04 1568.04 L1047.15 1568.04 L1047.15 1546.72 Q1047.15 1541.56 1045.34 1539.11 Q1043.52 1536.63 1039.73 1536.63 Q1035.25 1536.63 1032.6 1539.68 Q1029.96 1542.71 1029.96 1547.9 L1029.96 1568.04 L1024.07 1568.04 L1024.07 1532.4 L1029.96 1532.4 L1029.96 1537.93 Q1031.97 1534.66 1034.77 1533.1 Q1037.57 1531.54 1041.42 1531.54 Q1045.3 1531.54 1048.01 1533.51 Q1050.75 1535.48 1052.05 1539.24 Z" fill="#000000" fill-rule="evenodd" fill-opacity="1" /><path clip-path="url(#clip610)" d="M1113.39 1550.25 Q1113.39 1543.79 1110.71 1540.13 Q1108.07 1536.44 1103.42 1536.44 Q1098.78 1536.44 1096.1 1540.13 Q1093.46 1543.79 1093.46 1550.25 Q1093.46 1556.71 1096.1 1560.4 Q1098.78 1564.07 1103.42 1564.07 Q1108.07 1564.07 1110.71 1560.4 Q1113.39 1556.71 1113.39 1550.25 M1093.46 1537.81 Q1095.31 1534.62 1098.11 1533.1 Q1100.94 1531.54 1104.86 1531.54 Q1111.35 1531.54 1115.39 1536.69 Q1119.46 1541.85 1119.46 1550.25 Q1119.46 1558.65 1115.39 1563.81 Q1111.35 1568.97 1104.86 1568.97 Q1100.94 1568.97 1098.11 1567.44 Q1095.31 1565.88 1093.46 1562.7 L1093.46 1568.04 L1087.57 1568.04 L1087.57 1518.52 L1093.46 1518.52 L1093.46 1537.81 Z" fill="#000000" fill-rule="evenodd" fill-opacity="1" /><path clip-path="url(#clip610)" d="M1159.66 1548.76 L1159.66 1551.62 L1132.74 1551.62 Q1133.12 1557.67 1136.37 1560.85 Q1139.64 1564 1145.47 1564 Q1148.84 1564 1151.99 1563.17 Q1155.18 1562.35 1158.3 1560.69 L1158.3 1566.23 Q1155.14 1567.57 1151.83 1568.27 Q1148.52 1568.97 1145.12 1568.97 Q1136.59 1568.97 1131.59 1564 Q1126.63 1559.04 1126.63 1550.57 Q1126.63 1541.82 1131.34 1536.69 Q1136.08 1531.54 1144.1 1531.54 Q1151.29 1531.54 1155.46 1536.18 Q1159.66 1540.8 1159.66 1548.76 M1153.81 1547.04 Q1153.74 1542.23 1151.1 1539.37 Q1148.49 1536.5 1144.16 1536.5 Q1139.26 1536.5 1136.3 1539.27 Q1133.37 1542.04 1132.93 1547.07 L1153.81 1547.04 Z" fill="#000000" fill-rule="evenodd" fill-opacity="1" /><path clip-path="url(#clip610)" d="M1189.93 1537.87 Q1188.95 1537.3 1187.77 1537.04 Q1186.62 1536.76 1185.22 1536.76 Q1180.26 1536.76 1177.58 1540 Q1174.94 1543.22 1174.94 1549.27 L1174.94 1568.04 L1169.05 1568.04 L1169.05 1532.4 L1174.94 1532.4 L1174.94 1537.93 Q1176.79 1534.69 1179.75 1533.13 Q1182.71 1531.54 1186.94 1531.54 Q1187.55 1531.54 1188.28 1531.63 Q1189.01 1531.7 1189.9 1531.85 L1189.93 1537.87 Z" fill="#000000" fill-rule="evenodd" fill-opacity="1" /><path clip-path="url(#clip610)" d="M1230.61 1536.5 Q1225.9 1536.5 1223.16 1540.19 Q1220.42 1543.85 1220.42 1550.25 Q1220.42 1556.65 1223.13 1560.34 Q1225.87 1564 1230.61 1564 Q1235.29 1564 1238.03 1560.31 Q1240.76 1556.62 1240.76 1550.25 Q1240.76 1543.92 1238.03 1540.23 Q1235.29 1536.5 1230.61 1536.5 M1230.61 1531.54 Q1238.25 1531.54 1242.61 1536.5 Q1246.97 1541.47 1246.97 1550.25 Q1246.97 1559 1242.61 1564 Q1238.25 1568.97 1230.61 1568.97 Q1222.94 1568.97 1218.58 1564 Q1214.25 1559 1214.25 1550.25 Q1214.25 1541.47 1218.58 1536.5 Q1222.94 1531.54 1230.61 1531.54 Z" fill="#000000" fill-rule="evenodd" fill-opacity="1" /><path clip-path="url(#clip610)" d="M1274.72 1518.52 L1274.72 1523.39 L1269.12 1523.39 Q1265.97 1523.39 1264.73 1524.66 Q1263.52 1525.93 1263.52 1529.24 L1263.52 1532.4 L1273.16 1532.4 L1273.16 1536.95 L1263.52 1536.95 L1263.52 1568.04 L1257.63 1568.04 L1257.63 1536.95 L1252.03 1536.95 L1252.03 1532.4 L1257.63 1532.4 L1257.63 1529.91 Q1257.63 1523.96 1260.4 1521.26 Q1263.17 1518.52 1269.19 1518.52 L1274.72 1518.52 Z" fill="#000000" fill-rule="evenodd" fill-opacity="1" /><path clip-path="url(#clip610)" d="M1323.8 1537.81 L1323.8 1518.52 L1329.66 1518.52 L1329.66 1568.04 L1323.8 1568.04 L1323.8 1562.7 Q1321.96 1565.88 1319.12 1567.44 Q1316.32 1568.97 1312.38 1568.97 Q1305.92 1568.97 1301.84 1563.81 Q1297.8 1558.65 1297.8 1550.25 Q1297.8 1541.85 1301.84 1536.69 Q1305.92 1531.54 1312.38 1531.54 Q1316.32 1531.54 1319.12 1533.1 Q1321.96 1534.62 1323.8 1537.81 M1303.85 1550.25 Q1303.85 1556.71 1306.49 1560.4 Q1309.16 1564.07 1313.81 1564.07 Q1318.46 1564.07 1321.13 1560.4 Q1323.8 1556.71 1323.8 1550.25 Q1323.8 1543.79 1321.13 1540.13 Q1318.46 1536.44 1313.81 1536.44 Q1309.16 1536.44 1306.49 1540.13 Q1303.85 1543.79 1303.85 1550.25 Z" fill="#000000" fill-rule="evenodd" fill-opacity="1" /><path clip-path="url(#clip610)" d="M1357.92 1550.12 Q1350.83 1550.12 1348.09 1551.75 Q1345.35 1553.37 1345.35 1557.29 Q1345.35 1560.4 1347.39 1562.25 Q1349.46 1564.07 1352.99 1564.07 Q1357.86 1564.07 1360.79 1560.63 Q1363.75 1557.16 1363.75 1551.43 L1363.75 1550.12 L1357.92 1550.12 M1369.6 1547.71 L1369.6 1568.04 L1363.75 1568.04 L1363.75 1562.63 Q1361.74 1565.88 1358.75 1567.44 Q1355.76 1568.97 1351.43 1568.97 Q1345.96 1568.97 1342.71 1565.91 Q1339.5 1562.82 1339.5 1557.67 Q1339.5 1551.65 1343.51 1548.6 Q1347.55 1545.54 1355.54 1545.54 L1363.75 1545.54 L1363.75 1544.97 Q1363.75 1540.93 1361.07 1538.73 Q1358.43 1536.5 1353.63 1536.5 Q1350.57 1536.5 1347.68 1537.23 Q1344.78 1537.97 1342.11 1539.43 L1342.11 1534.02 Q1345.32 1532.78 1348.34 1532.17 Q1351.37 1531.54 1354.23 1531.54 Q1361.97 1531.54 1365.79 1535.55 Q1369.6 1539.56 1369.6 1547.71 Z" fill="#000000" fill-rule="evenodd" fill-opacity="1" /><path clip-path="url(#clip610)" d="M1387.46 1522.27 L1387.46 1532.4 L1399.52 1532.4 L1399.52 1536.95 L1387.46 1536.95 L1387.46 1556.3 Q1387.46 1560.66 1388.64 1561.9 Q1389.85 1563.14 1393.51 1563.14 L1399.52 1563.14 L1399.52 1568.04 L1393.51 1568.04 Q1386.73 1568.04 1384.15 1565.53 Q1381.57 1562.98 1381.57 1556.3 L1381.57 1536.95 L1377.28 1536.95 L1377.28 1532.4 L1381.57 1532.4 L1381.57 1522.27 L1387.46 1522.27 Z" fill="#000000" fill-rule="evenodd" fill-opacity="1" /><path clip-path="url(#clip610)" d="M1423.43 1550.12 Q1416.33 1550.12 1413.59 1551.75 Q1410.85 1553.37 1410.85 1557.29 Q1410.85 1560.4 1412.89 1562.25 Q1414.96 1564.07 1418.49 1564.07 Q1423.36 1564.07 1426.29 1560.63 Q1429.25 1557.16 1429.25 1551.43 L1429.25 1550.12 L1423.43 1550.12 M1435.11 1547.71 L1435.11 1568.04 L1429.25 1568.04 L1429.25 1562.63 Q1427.25 1565.88 1424.25 1567.44 Q1421.26 1568.97 1416.93 1568.97 Q1411.46 1568.97 1408.21 1565.91 Q1405 1562.82 1405 1557.67 Q1405 1551.65 1409.01 1548.6 Q1413.05 1545.54 1421.04 1545.54 L1429.25 1545.54 L1429.25 1544.97 Q1429.25 1540.93 1426.58 1538.73 Q1423.94 1536.5 1419.13 1536.5 Q1416.07 1536.5 1413.18 1537.23 Q1410.28 1537.97 1407.61 1539.43 L1407.61 1534.02 Q1410.82 1532.78 1413.85 1532.17 Q1416.87 1531.54 1419.73 1531.54 Q1427.47 1531.54 1431.29 1535.55 Q1435.11 1539.56 1435.11 1547.71 Z" fill="#000000" fill-rule="evenodd" fill-opacity="1" /><path clip-path="url(#clip610)" d="M1473.56 1562.7 L1473.56 1581.6 L1467.67 1581.6 L1467.67 1532.4 L1473.56 1532.4 L1473.56 1537.81 Q1475.4 1534.62 1478.2 1533.1 Q1481.04 1531.54 1484.95 1531.54 Q1491.44 1531.54 1495.49 1536.69 Q1499.56 1541.85 1499.56 1550.25 Q1499.56 1558.65 1495.49 1563.81 Q1491.44 1568.97 1484.95 1568.97 Q1481.04 1568.97 1478.2 1567.44 Q1475.4 1565.88 1473.56 1562.7 M1493.48 1550.25 Q1493.48 1543.79 1490.81 1540.13 Q1488.17 1536.44 1483.52 1536.44 Q1478.87 1536.44 1476.2 1540.13 Q1473.56 1543.79 1473.56 1550.25 Q1473.56 1556.71 1476.2 1560.4 Q1478.87 1564.07 1483.52 1564.07 Q1488.17 1564.07 1490.81 1560.4 Q1493.48 1556.71 1493.48 1550.25 Z" fill="#000000" fill-rule="evenodd" fill-opacity="1" /><path clip-path="url(#clip610)" d="M1523.08 1536.5 Q1518.37 1536.5 1515.63 1540.19 Q1512.9 1543.85 1512.9 1550.25 Q1512.9 1556.65 1515.6 1560.34 Q1518.34 1564 1523.08 1564 Q1527.76 1564 1530.5 1560.31 Q1533.24 1556.62 1533.24 1550.25 Q1533.24 1543.92 1530.5 1540.23 Q1527.76 1536.5 1523.08 1536.5 M1523.08 1531.54 Q1530.72 1531.54 1535.08 1536.5 Q1539.44 1541.47 1539.44 1550.25 Q1539.44 1559 1535.08 1564 Q1530.72 1568.97 1523.08 1568.97 Q1515.41 1568.97 1511.05 1564 Q1506.72 1559 1506.72 1550.25 Q1506.72 1541.47 1511.05 1536.5 Q1515.41 1531.54 1523.08 1531.54 Z" fill="#000000" fill-rule="evenodd" fill-opacity="1" /><path clip-path="url(#clip610)" d="M1549.15 1532.4 L1555.01 1532.4 L1555.01 1568.04 L1549.15 1568.04 L1549.15 1532.4 M1549.15 1518.52 L1555.01 1518.52 L1555.01 1525.93 L1549.15 1525.93 L1549.15 1518.52 Z" fill="#000000" fill-rule="evenodd" fill-opacity="1" /><path clip-path="url(#clip610)" d="M1596.89 1546.53 L1596.89 1568.04 L1591.04 1568.04 L1591.04 1546.72 Q1591.04 1541.66 1589.06 1539.14 Q1587.09 1536.63 1583.14 1536.63 Q1578.4 1536.63 1575.66 1539.65 Q1572.93 1542.68 1572.93 1547.9 L1572.93 1568.04 L1567.04 1568.04 L1567.04 1532.4 L1572.93 1532.4 L1572.93 1537.93 Q1575.03 1534.72 1577.86 1533.13 Q1580.72 1531.54 1584.45 1531.54 Q1590.59 1531.54 1593.74 1535.36 Q1596.89 1539.14 1596.89 1546.53 Z" fill="#000000" fill-rule="evenodd" fill-opacity="1" /><path clip-path="url(#clip610)" d="M1614.37 1522.27 L1614.37 1532.4 L1626.43 1532.4 L1626.43 1536.95 L1614.37 1536.95 L1614.37 1556.3 Q1614.37 1560.66 1615.54 1561.9 Q1616.75 1563.14 1620.41 1563.14 L1626.43 1563.14 L1626.43 1568.04 L1620.41 1568.04 Q1613.63 1568.04 1611.06 1565.53 Q1608.48 1562.98 1608.48 1556.3 L1608.48 1536.95 L1604.18 1536.95 L1604.18 1532.4 L1608.48 1532.4 L1608.48 1522.27 L1614.37 1522.27 Z" fill="#000000" fill-rule="evenodd" fill-opacity="1" /><path clip-path="url(#clip610)" d="M1656.86 1533.45 L1656.86 1538.98 Q1654.37 1537.71 1651.7 1537.07 Q1649.03 1536.44 1646.16 1536.44 Q1641.8 1536.44 1639.61 1537.77 Q1637.44 1539.11 1637.44 1541.79 Q1637.44 1543.82 1639 1545 Q1640.56 1546.15 1645.27 1547.2 L1647.28 1547.64 Q1653.52 1548.98 1656.13 1551.43 Q1658.77 1553.85 1658.77 1558.21 Q1658.77 1563.17 1654.82 1566.07 Q1650.91 1568.97 1644.03 1568.97 Q1641.17 1568.97 1638.05 1568.39 Q1634.96 1567.85 1631.52 1566.74 L1631.52 1560.69 Q1634.77 1562.38 1637.92 1563.24 Q1641.07 1564.07 1644.16 1564.07 Q1648.3 1564.07 1650.52 1562.66 Q1652.75 1561.23 1652.75 1558.65 Q1652.75 1556.27 1651.13 1554.99 Q1649.54 1553.72 1644.09 1552.54 L1642.06 1552.07 Q1636.61 1550.92 1634.2 1548.56 Q1631.78 1546.18 1631.78 1542.04 Q1631.78 1537.01 1635.34 1534.27 Q1638.91 1531.54 1645.46 1531.54 Q1648.71 1531.54 1651.57 1532.01 Q1654.44 1532.49 1656.86 1533.45 Z" fill="#000000" fill-rule="evenodd" fill-opacity="1" /><polyline clip-path="url(#clip612)" style="stroke:#000000; stroke-linecap:butt; stroke-linejoin:round; stroke-width:2; stroke-opacity:0.1; fill:none" points="
  247.459,1386.38 2352.76,1386.38 
  "/>
<polyline clip-path="url(#clip612)" style="stroke:#000000; stroke-linecap:butt; stroke-linejoin:round; stroke-width:2; stroke-opacity:0.1; fill:none" points="
  247.459,1108.94 2352.76,1108.94 
  "/>
<polyline clip-path="url(#clip612)" style="stroke:#000000; stroke-linecap:butt; stroke-linejoin:round; stroke-width:2; stroke-opacity:0.1; fill:none" points="
  247.459,831.49 2352.76,831.49 
  "/>
<polyline clip-path="url(#clip612)" style="stroke:#000000; stroke-linecap:butt; stroke-linejoin:round; stroke-width:2; stroke-opacity:0.1; fill:none" points="
  247.459,554.044 2352.76,554.044 
  "/>
<polyline clip-path="url(#clip612)" style="stroke:#000000; stroke-linecap:butt; stroke-linejoin:round; stroke-width:2; stroke-opacity:0.1; fill:none" points="
  247.459,276.598 2352.76,276.598 
  "/>
<polyline clip-path="url(#clip610)" style="stroke:#000000; stroke-linecap:butt; stroke-linejoin:round; stroke-width:4; stroke-opacity:1; fill:none" points="
  247.459,1423.18 247.459,47.2441 
  "/>
<polyline clip-path="url(#clip610)" style="stroke:#000000; stroke-linecap:butt; stroke-linejoin:round; stroke-width:4; stroke-opacity:1; fill:none" points="
  247.459,1386.38 266.356,1386.38 
  "/>
<polyline clip-path="url(#clip610)" style="stroke:#000000; stroke-linecap:butt; stroke-linejoin:round; stroke-width:4; stroke-opacity:1; fill:none" points="
  247.459,1108.94 266.356,1108.94 
  "/>
<polyline clip-path="url(#clip610)" style="stroke:#000000; stroke-linecap:butt; stroke-linejoin:round; stroke-width:4; stroke-opacity:1; fill:none" points="
  247.459,831.49 266.356,831.49 
  "/>
<polyline clip-path="url(#clip610)" style="stroke:#000000; stroke-linecap:butt; stroke-linejoin:round; stroke-width:4; stroke-opacity:1; fill:none" points="
  247.459,554.044 266.356,554.044 
  "/>
<polyline clip-path="url(#clip610)" style="stroke:#000000; stroke-linecap:butt; stroke-linejoin:round; stroke-width:4; stroke-opacity:1; fill:none" points="
  247.459,276.598 266.356,276.598 
  "/>
<path clip-path="url(#clip610)" d="M154.283 1372.18 Q150.672 1372.18 148.843 1375.75 Q147.038 1379.29 147.038 1386.42 Q147.038 1393.52 148.843 1397.09 Q150.672 1400.63 154.283 1400.63 Q157.917 1400.63 159.723 1397.09 Q161.552 1393.52 161.552 1386.42 Q161.552 1379.29 159.723 1375.75 Q157.917 1372.18 154.283 1372.18 M154.283 1368.48 Q160.093 1368.48 163.149 1373.08 Q166.227 1377.67 166.227 1386.42 Q166.227 1395.14 163.149 1399.75 Q160.093 1404.33 154.283 1404.33 Q148.473 1404.33 145.394 1399.75 Q142.339 1395.14 142.339 1386.42 Q142.339 1377.67 145.394 1373.08 Q148.473 1368.48 154.283 1368.48 Z" fill="#000000" fill-rule="evenodd" fill-opacity="1" /><path clip-path="url(#clip610)" d="M174.445 1397.78 L179.329 1397.78 L179.329 1403.66 L174.445 1403.66 L174.445 1397.78 Z" fill="#000000" fill-rule="evenodd" fill-opacity="1" /><path clip-path="url(#clip610)" d="M199.514 1372.18 Q195.903 1372.18 194.075 1375.75 Q192.269 1379.29 192.269 1386.42 Q192.269 1393.52 194.075 1397.09 Q195.903 1400.63 199.514 1400.63 Q203.149 1400.63 204.954 1397.09 Q206.783 1393.52 206.783 1386.42 Q206.783 1379.29 204.954 1375.75 Q203.149 1372.18 199.514 1372.18 M199.514 1368.48 Q205.324 1368.48 208.38 1373.08 Q211.459 1377.67 211.459 1386.42 Q211.459 1395.14 208.38 1399.75 Q205.324 1404.33 199.514 1404.33 Q193.704 1404.33 190.625 1399.75 Q187.57 1395.14 187.57 1386.42 Q187.57 1377.67 190.625 1373.08 Q193.704 1368.48 199.514 1368.48 Z" fill="#000000" fill-rule="evenodd" fill-opacity="1" /><path clip-path="url(#clip610)" d="M149.306 1122.28 L165.626 1122.28 L165.626 1126.22 L143.681 1126.22 L143.681 1122.28 Q146.343 1119.53 150.927 1114.9 Q155.533 1110.24 156.714 1108.9 Q158.959 1106.38 159.839 1104.64 Q160.741 1102.88 160.741 1101.19 Q160.741 1098.44 158.797 1096.7 Q156.876 1094.97 153.774 1094.97 Q151.575 1094.97 149.121 1095.73 Q146.691 1096.49 143.913 1098.05 L143.913 1093.32 Q146.737 1092.19 149.191 1091.61 Q151.644 1091.03 153.681 1091.03 Q159.052 1091.03 162.246 1093.72 Q165.44 1096.4 165.44 1100.89 Q165.44 1103.02 164.63 1104.94 Q163.843 1106.84 161.737 1109.43 Q161.158 1110.11 158.056 1113.32 Q154.954 1116.52 149.306 1122.28 Z" fill="#000000" fill-rule="evenodd" fill-opacity="1" /><path clip-path="url(#clip610)" d="M175.44 1120.34 L180.325 1120.34 L180.325 1126.22 L175.44 1126.22 L175.44 1120.34 Z" fill="#000000" fill-rule="evenodd" fill-opacity="1" /><path clip-path="url(#clip610)" d="M190.556 1091.66 L208.912 1091.66 L208.912 1095.59 L194.838 1095.59 L194.838 1104.06 Q195.857 1103.72 196.875 1103.55 Q197.894 1103.37 198.912 1103.37 Q204.699 1103.37 208.079 1106.54 Q211.459 1109.71 211.459 1115.13 Q211.459 1120.71 207.987 1123.81 Q204.514 1126.89 198.195 1126.89 Q196.019 1126.89 193.75 1126.52 Q191.505 1126.15 189.098 1125.41 L189.098 1120.71 Q191.181 1121.84 193.403 1122.4 Q195.625 1122.95 198.102 1122.95 Q202.107 1122.95 204.445 1120.85 Q206.783 1118.74 206.783 1115.13 Q206.783 1111.52 204.445 1109.41 Q202.107 1107.3 198.102 1107.3 Q196.227 1107.3 194.352 1107.72 Q192.5 1108.14 190.556 1109.02 L190.556 1091.66 Z" fill="#000000" fill-rule="evenodd" fill-opacity="1" /><path clip-path="url(#clip610)" d="M144.329 814.21 L162.686 814.21 L162.686 818.145 L148.612 818.145 L148.612 826.617 Q149.63 826.27 150.649 826.108 Q151.667 825.923 152.686 825.923 Q158.473 825.923 161.852 829.094 Q165.232 832.266 165.232 837.682 Q165.232 843.261 161.76 846.363 Q158.288 849.441 151.968 849.441 Q149.792 849.441 147.524 849.071 Q145.279 848.701 142.871 847.96 L142.871 843.261 Q144.954 844.395 147.177 844.951 Q149.399 845.506 151.876 845.506 Q155.88 845.506 158.218 843.4 Q160.556 841.293 160.556 837.682 Q160.556 834.071 158.218 831.965 Q155.88 829.858 151.876 829.858 Q150.001 829.858 148.126 830.275 Q146.274 830.692 144.329 831.571 L144.329 814.21 Z" fill="#000000" fill-rule="evenodd" fill-opacity="1" /><path clip-path="url(#clip610)" d="M174.445 842.891 L179.329 842.891 L179.329 848.77 L174.445 848.77 L174.445 842.891 Z" fill="#000000" fill-rule="evenodd" fill-opacity="1" /><path clip-path="url(#clip610)" d="M199.514 817.289 Q195.903 817.289 194.075 820.854 Q192.269 824.395 192.269 831.525 Q192.269 838.631 194.075 842.196 Q195.903 845.738 199.514 845.738 Q203.149 845.738 204.954 842.196 Q206.783 838.631 206.783 831.525 Q206.783 824.395 204.954 820.854 Q203.149 817.289 199.514 817.289 M199.514 813.585 Q205.324 813.585 208.38 818.192 Q211.459 822.775 211.459 831.525 Q211.459 840.252 208.38 844.858 Q205.324 849.441 199.514 849.441 Q193.704 849.441 190.625 844.858 Q187.57 840.252 187.57 831.525 Q187.57 822.775 190.625 818.192 Q193.704 813.585 199.514 813.585 Z" fill="#000000" fill-rule="evenodd" fill-opacity="1" /><path clip-path="url(#clip610)" d="M144.098 536.764 L166.32 536.764 L166.32 538.755 L153.774 571.324 L148.89 571.324 L160.695 540.699 L144.098 540.699 L144.098 536.764 Z" fill="#000000" fill-rule="evenodd" fill-opacity="1" /><path clip-path="url(#clip610)" d="M175.44 565.444 L180.325 565.444 L180.325 571.324 L175.44 571.324 L175.44 565.444 Z" fill="#000000" fill-rule="evenodd" fill-opacity="1" /><path clip-path="url(#clip610)" d="M190.556 536.764 L208.912 536.764 L208.912 540.699 L194.838 540.699 L194.838 549.171 Q195.857 548.824 196.875 548.662 Q197.894 548.477 198.912 548.477 Q204.699 548.477 208.079 551.648 Q211.459 554.82 211.459 560.236 Q211.459 565.815 207.987 568.917 Q204.514 571.995 198.195 571.995 Q196.019 571.995 193.75 571.625 Q191.505 571.255 189.098 570.514 L189.098 565.815 Q191.181 566.949 193.403 567.505 Q195.625 568.06 198.102 568.06 Q202.107 568.06 204.445 565.954 Q206.783 563.847 206.783 560.236 Q206.783 556.625 204.445 554.519 Q202.107 552.412 198.102 552.412 Q196.227 552.412 194.352 552.829 Q192.5 553.245 190.556 554.125 L190.556 536.764 Z" fill="#000000" fill-rule="evenodd" fill-opacity="1" /><path clip-path="url(#clip610)" d="M114.931 289.943 L122.57 289.943 L122.57 263.577 L114.26 265.244 L114.26 260.985 L122.524 259.318 L127.2 259.318 L127.2 289.943 L134.839 289.943 L134.839 293.878 L114.931 293.878 L114.931 289.943 Z" fill="#000000" fill-rule="evenodd" fill-opacity="1" /><path clip-path="url(#clip610)" d="M154.283 262.397 Q150.672 262.397 148.843 265.961 Q147.038 269.503 147.038 276.633 Q147.038 283.739 148.843 287.304 Q150.672 290.846 154.283 290.846 Q157.917 290.846 159.723 287.304 Q161.552 283.739 161.552 276.633 Q161.552 269.503 159.723 265.961 Q157.917 262.397 154.283 262.397 M154.283 258.693 Q160.093 258.693 163.149 263.299 Q166.227 267.883 166.227 276.633 Q166.227 285.359 163.149 289.966 Q160.093 294.549 154.283 294.549 Q148.473 294.549 145.394 289.966 Q142.339 285.359 142.339 276.633 Q142.339 267.883 145.394 263.299 Q148.473 258.693 154.283 258.693 Z" fill="#000000" fill-rule="evenodd" fill-opacity="1" /><path clip-path="url(#clip610)" d="M174.445 287.998 L179.329 287.998 L179.329 293.878 L174.445 293.878 L174.445 287.998 Z" fill="#000000" fill-rule="evenodd" fill-opacity="1" /><path clip-path="url(#clip610)" d="M199.514 262.397 Q195.903 262.397 194.075 265.961 Q192.269 269.503 192.269 276.633 Q192.269 283.739 194.075 287.304 Q195.903 290.846 199.514 290.846 Q203.149 290.846 204.954 287.304 Q206.783 283.739 206.783 276.633 Q206.783 269.503 204.954 265.961 Q203.149 262.397 199.514 262.397 M199.514 258.693 Q205.324 258.693 208.38 263.299 Q211.459 267.883 211.459 276.633 Q211.459 285.359 208.38 289.966 Q205.324 294.549 199.514 294.549 Q193.704 294.549 190.625 289.966 Q187.57 285.359 187.57 276.633 Q187.57 267.883 190.625 263.299 Q193.704 258.693 199.514 258.693 Z" fill="#000000" fill-rule="evenodd" fill-opacity="1" /><path clip-path="url(#clip610)" d="M33.8307 1087.35 Q33.2578 1088.33 33.0032 1089.51 Q32.7167 1090.66 32.7167 1092.06 Q32.7167 1097.02 35.9632 1099.7 Q39.1779 1102.34 45.2253 1102.34 L64.0042 1102.34 L64.0042 1108.23 L28.3562 1108.23 L28.3562 1102.34 L33.8944 1102.34 Q30.6479 1100.49 29.0883 1097.53 Q27.4968 1094.57 27.4968 1090.34 Q27.4968 1089.73 27.5923 1089 Q27.656 1088.27 27.8151 1087.38 L33.8307 1087.35 Z" fill="#000000" fill-rule="evenodd" fill-opacity="1" /><path clip-path="url(#clip610)" d="M49.9359 1081.81 L28.3562 1081.81 L28.3562 1075.95 L49.7131 1075.95 Q54.7739 1075.95 57.3202 1073.98 Q59.8346 1072.01 59.8346 1068.06 Q59.8346 1063.32 56.8109 1060.58 Q53.7872 1057.81 48.5673 1057.81 L28.3562 1057.81 L28.3562 1051.95 L64.0042 1051.95 L64.0042 1057.81 L58.5296 1057.81 Q61.7762 1059.94 63.3676 1062.78 Q64.9272 1065.58 64.9272 1069.3 Q64.9272 1075.44 61.1078 1078.63 Q57.2883 1081.81 49.9359 1081.81 M27.4968 1067.07 L27.4968 1067.07 Z" fill="#000000" fill-rule="evenodd" fill-opacity="1" /><path clip-path="url(#clip610)" d="M42.4881 1010.26 L64.0042 1010.26 L64.0042 1016.11 L42.679 1016.11 Q37.6183 1016.11 35.1038 1018.09 Q32.5894 1020.06 32.5894 1024.01 Q32.5894 1028.75 35.6131 1031.49 Q38.6368 1034.23 43.8567 1034.23 L64.0042 1034.23 L64.0042 1040.11 L28.3562 1040.11 L28.3562 1034.23 L33.8944 1034.23 Q30.6797 1032.12 29.0883 1029.29 Q27.4968 1026.43 27.4968 1022.7 Q27.4968 1016.56 31.3163 1013.41 Q35.1038 1010.26 42.4881 1010.26 Z" fill="#000000" fill-rule="evenodd" fill-opacity="1" /><path clip-path="url(#clip610)" d="M42.4881 968.945 L64.0042 968.945 L64.0042 974.801 L42.679 974.801 Q37.6183 974.801 35.1038 976.775 Q32.5894 978.748 32.5894 982.695 Q32.5894 987.437 35.6131 990.174 Q38.6368 992.912 43.8567 992.912 L64.0042 992.912 L64.0042 998.8 L28.3562 998.8 L28.3562 992.912 L33.8944 992.912 Q30.6797 990.811 29.0883 987.978 Q27.4968 985.114 27.4968 981.39 Q27.4968 975.247 31.3163 972.096 Q35.1038 968.945 42.4881 968.945 Z" fill="#000000" fill-rule="evenodd" fill-opacity="1" /><path clip-path="url(#clip610)" d="M28.3562 957.264 L28.3562 951.407 L64.0042 951.407 L64.0042 957.264 L28.3562 957.264 M14.479 957.264 L14.479 951.407 L21.895 951.407 L21.895 957.264 L14.479 957.264 Z" fill="#000000" fill-rule="evenodd" fill-opacity="1" /><path clip-path="url(#clip610)" d="M42.4881 909.521 L64.0042 909.521 L64.0042 915.377 L42.679 915.377 Q37.6183 915.377 35.1038 917.351 Q32.5894 919.324 32.5894 923.271 Q32.5894 928.013 35.6131 930.751 Q38.6368 933.488 43.8567 933.488 L64.0042 933.488 L64.0042 939.376 L28.3562 939.376 L28.3562 933.488 L33.8944 933.488 Q30.6797 931.387 29.0883 928.554 Q27.4968 925.69 27.4968 921.966 Q27.4968 915.823 31.3163 912.672 Q35.1038 909.521 42.4881 909.521 Z" fill="#000000" fill-rule="evenodd" fill-opacity="1" /><path clip-path="url(#clip610)" d="M45.7664 874.382 Q39.4007 874.382 35.8996 877.024 Q32.3984 879.634 32.3984 884.376 Q32.3984 889.087 35.8996 891.729 Q39.4007 894.339 45.7664 894.339 Q52.1003 894.339 55.6014 891.729 Q59.1026 889.087 59.1026 884.376 Q59.1026 879.634 55.6014 877.024 Q52.1003 874.382 45.7664 874.382 M59.58 868.526 Q68.683 868.526 73.1071 872.568 Q77.5631 876.61 77.5631 884.949 Q77.5631 888.037 77.0857 890.774 Q76.6401 893.511 75.6852 896.089 L69.9879 896.089 Q71.3884 893.511 72.0568 890.997 Q72.7252 888.482 72.7252 885.872 Q72.7252 880.111 69.7015 877.247 Q66.7096 874.382 60.6303 874.382 L57.7339 874.382 Q60.885 876.196 62.4446 879.029 Q64.0042 881.862 64.0042 885.809 Q64.0042 892.365 59.0071 896.376 Q54.01 900.386 45.7664 900.386 Q37.491 900.386 32.4939 896.376 Q27.4968 892.365 27.4968 885.809 Q27.4968 881.862 29.0564 879.029 Q30.616 876.196 33.7671 874.382 L28.3562 874.382 L28.3562 868.526 L59.58 868.526 Z" fill="#000000" fill-rule="evenodd" fill-opacity="1" /><path clip-path="url(#clip610)" d="M18.2347 829.95 L28.3562 829.95 L28.3562 817.887 L32.9077 817.887 L32.9077 829.95 L52.2594 829.95 Q56.6199 829.95 57.8613 828.772 Q59.1026 827.562 59.1026 823.902 L59.1026 817.887 L64.0042 817.887 L64.0042 823.902 Q64.0042 830.682 61.4897 833.26 Q58.9434 835.838 52.2594 835.838 L32.9077 835.838 L32.9077 840.135 L28.3562 840.135 L28.3562 835.838 L18.2347 835.838 L18.2347 829.95 Z" fill="#000000" fill-rule="evenodd" fill-opacity="1" /><path clip-path="url(#clip610)" d="M28.3562 810.184 L28.3562 804.328 L64.0042 804.328 L64.0042 810.184 L28.3562 810.184 M14.479 810.184 L14.479 804.328 L21.895 804.328 L21.895 810.184 L14.479 810.184 Z" fill="#000000" fill-rule="evenodd" fill-opacity="1" /><path clip-path="url(#clip610)" d="M35.1993 764.319 Q31.2526 762.123 29.3747 759.067 Q27.4968 756.012 27.4968 751.874 Q27.4968 746.304 31.4117 743.281 Q35.2948 740.257 42.4881 740.257 L64.0042 740.257 L64.0042 746.145 L42.679 746.145 Q37.5546 746.145 35.072 747.959 Q32.5894 749.774 32.5894 753.497 Q32.5894 758.049 35.6131 760.691 Q38.6368 763.332 43.8567 763.332 L64.0042 763.332 L64.0042 769.221 L42.679 769.221 Q37.5228 769.221 35.072 771.035 Q32.5894 772.849 32.5894 776.637 Q32.5894 781.125 35.6449 783.766 Q38.6686 786.408 43.8567 786.408 L64.0042 786.408 L64.0042 792.296 L28.3562 792.296 L28.3562 786.408 L33.8944 786.408 Q30.616 784.403 29.0564 781.602 Q27.4968 778.801 27.4968 774.95 Q27.4968 771.067 29.4702 768.361 Q31.4436 765.624 35.1993 764.319 Z" fill="#000000" fill-rule="evenodd" fill-opacity="1" /><path clip-path="url(#clip610)" d="M44.7161 698.084 L47.5806 698.084 L47.5806 725.011 Q53.6281 724.629 56.8109 721.382 Q59.9619 718.104 59.9619 712.28 Q59.9619 708.906 59.1344 705.755 Q58.3069 702.572 56.6518 699.453 L62.1899 699.453 Q63.5267 702.604 64.227 705.914 Q64.9272 709.224 64.9272 712.63 Q64.9272 721.16 59.9619 726.157 Q54.9967 731.122 46.5303 731.122 Q37.7774 731.122 32.6531 726.411 Q27.4968 721.669 27.4968 713.648 Q27.4968 706.455 32.1438 702.285 Q36.7589 698.084 44.7161 698.084 M42.9973 703.94 Q38.1912 704.004 35.3266 706.646 Q32.4621 709.256 32.4621 713.584 Q32.4621 718.486 35.2312 721.446 Q38.0002 724.374 43.0292 724.82 L42.9973 703.94 Z" fill="#000000" fill-rule="evenodd" fill-opacity="1" /><path clip-path="url(#clip610)" d="M14.5426 653.683 Q21.8632 657.948 29.0246 660.017 Q36.186 662.086 43.5384 662.086 Q50.8908 662.086 58.1159 660.017 Q65.3091 657.916 72.5979 653.683 L72.5979 658.776 Q65.1182 663.55 57.8931 665.937 Q50.668 668.292 43.5384 668.292 Q36.4406 668.292 29.2474 665.937 Q22.0542 663.582 14.5426 658.776 L14.5426 653.683 Z" fill="#000000" fill-rule="evenodd" fill-opacity="1" /><path clip-path="url(#clip610)" d="M29.4065 619.595 L34.9447 619.595 Q33.6716 622.077 33.035 624.751 Q32.3984 627.425 32.3984 630.289 Q32.3984 634.65 33.7352 636.846 Q35.072 639.01 37.7456 639.01 Q39.7826 639.01 40.9603 637.451 Q42.1061 635.891 43.1565 631.18 L43.6021 629.175 Q44.9389 622.937 47.3897 620.327 Q49.8086 617.685 54.1691 617.685 Q59.1344 617.685 62.0308 621.632 Q64.9272 625.547 64.9272 632.422 Q64.9272 635.286 64.3543 638.405 Q63.8132 641.493 62.6992 644.93 L56.6518 644.93 Q58.3387 641.684 59.198 638.533 Q60.0256 635.382 60.0256 632.294 Q60.0256 628.157 58.6251 625.929 Q57.1929 623.701 54.6147 623.701 Q52.2276 623.701 50.9545 625.324 Q49.6813 626.915 48.5037 632.358 L48.0262 634.395 Q46.8804 639.838 44.5251 642.257 Q42.138 644.676 38.0002 644.676 Q32.9713 644.676 30.2341 641.111 Q27.4968 637.546 27.4968 630.989 Q27.4968 627.743 27.9743 624.878 Q28.4517 622.014 29.4065 619.595 Z" fill="#000000" fill-rule="evenodd" fill-opacity="1" /><path clip-path="url(#clip610)" d="M44.7161 577.868 L47.5806 577.868 L47.5806 604.795 Q53.6281 604.413 56.8109 601.166 Q59.9619 597.888 59.9619 592.063 Q59.9619 588.689 59.1344 585.538 Q58.3069 582.355 56.6518 579.236 L62.1899 579.236 Q63.5267 582.387 64.227 585.697 Q64.9272 589.008 64.9272 592.413 Q64.9272 600.943 59.9619 605.94 Q54.9967 610.906 46.5303 610.906 Q37.7774 610.906 32.6531 606.195 Q27.4968 601.453 27.4968 593.432 Q27.4968 586.239 32.1438 582.069 Q36.7589 577.868 44.7161 577.868 M42.9973 583.724 Q38.1912 583.788 35.3266 586.429 Q32.4621 589.039 32.4621 593.368 Q32.4621 598.27 35.2312 601.23 Q38.0002 604.158 43.0292 604.604 L42.9973 583.724 Z" fill="#000000" fill-rule="evenodd" fill-opacity="1" /><path clip-path="url(#clip610)" d="M29.7248 542.602 L35.1993 542.602 Q33.8307 545.084 33.1623 547.599 Q32.4621 550.081 32.4621 552.628 Q32.4621 558.325 36.0905 561.476 Q39.6872 564.627 46.212 564.627 Q52.7369 564.627 56.3653 561.476 Q59.9619 558.325 59.9619 552.628 Q59.9619 550.081 59.2935 547.599 Q58.5933 545.084 57.2247 542.602 L62.6355 542.602 Q63.7814 545.052 64.3543 547.694 Q64.9272 550.304 64.9272 553.264 Q64.9272 561.317 59.8664 566.059 Q54.8057 570.802 46.212 570.802 Q37.491 570.802 32.4939 566.027 Q27.4968 561.221 27.4968 552.882 Q27.4968 550.177 28.0697 547.599 Q28.6108 545.021 29.7248 542.602 Z" fill="#000000" fill-rule="evenodd" fill-opacity="1" /><path clip-path="url(#clip610)" d="M32.4621 518.603 Q32.4621 523.314 36.1542 526.051 Q39.8145 528.788 46.212 528.788 Q52.6095 528.788 56.3017 526.083 Q59.9619 523.345 59.9619 518.603 Q59.9619 513.924 56.2698 511.187 Q52.5777 508.45 46.212 508.45 Q39.8781 508.45 36.186 511.187 Q32.4621 513.924 32.4621 518.603 M27.4968 518.603 Q27.4968 510.964 32.4621 506.604 Q37.4273 502.243 46.212 502.243 Q54.9649 502.243 59.9619 506.604 Q64.9272 510.964 64.9272 518.603 Q64.9272 526.274 59.9619 530.634 Q54.9649 534.963 46.212 534.963 Q37.4273 534.963 32.4621 530.634 Q27.4968 526.274 27.4968 518.603 Z" fill="#000000" fill-rule="evenodd" fill-opacity="1" /><path clip-path="url(#clip610)" d="M42.4881 462.903 L64.0042 462.903 L64.0042 468.759 L42.679 468.759 Q37.6183 468.759 35.1038 470.733 Q32.5894 472.706 32.5894 476.653 Q32.5894 481.395 35.6131 484.133 Q38.6368 486.87 43.8567 486.87 L64.0042 486.87 L64.0042 492.758 L28.3562 492.758 L28.3562 486.87 L33.8944 486.87 Q30.6797 484.769 29.0883 481.936 Q27.4968 479.072 27.4968 475.348 Q27.4968 469.205 31.3163 466.054 Q35.1038 462.903 42.4881 462.903 Z" fill="#000000" fill-rule="evenodd" fill-opacity="1" /><path clip-path="url(#clip610)" d="M33.7671 427.764 L14.479 427.764 L14.479 421.908 L64.0042 421.908 L64.0042 427.764 L58.657 427.764 Q61.8398 429.61 63.3994 432.443 Q64.9272 435.244 64.9272 439.191 Q64.9272 445.652 59.771 449.726 Q54.6147 453.768 46.212 453.768 Q37.8093 453.768 32.6531 449.726 Q27.4968 445.652 27.4968 439.191 Q27.4968 435.244 29.0564 432.443 Q30.5842 429.61 33.7671 427.764 M46.212 447.721 Q52.6732 447.721 56.3653 445.079 Q60.0256 442.405 60.0256 437.758 Q60.0256 433.111 56.3653 430.438 Q52.6732 427.764 46.212 427.764 Q39.7508 427.764 36.0905 430.438 Q32.3984 433.111 32.3984 437.758 Q32.3984 442.405 36.0905 445.079 Q39.7508 447.721 46.212 447.721 Z" fill="#000000" fill-rule="evenodd" fill-opacity="1" /><path clip-path="url(#clip610)" d="M29.4065 387.119 L34.9447 387.119 Q33.6716 389.602 33.035 392.275 Q32.3984 394.949 32.3984 397.814 Q32.3984 402.174 33.7352 404.37 Q35.072 406.535 37.7456 406.535 Q39.7826 406.535 40.9603 404.975 Q42.1061 403.415 43.1565 398.705 L43.6021 396.7 Q44.9389 390.461 47.3897 387.851 Q49.8086 385.21 54.1691 385.21 Q59.1344 385.21 62.0308 389.156 Q64.9272 393.071 64.9272 399.946 Q64.9272 402.811 64.3543 405.93 Q63.8132 409.017 62.6992 412.455 L56.6518 412.455 Q58.3387 409.208 59.198 406.057 Q60.0256 402.906 60.0256 399.819 Q60.0256 395.681 58.6251 393.453 Q57.1929 391.225 54.6147 391.225 Q52.2276 391.225 50.9545 392.848 Q49.6813 394.44 48.5037 399.882 L48.0262 401.919 Q46.8804 407.362 44.5251 409.781 Q42.138 412.2 38.0002 412.2 Q32.9713 412.2 30.2341 408.635 Q27.4968 405.071 27.4968 398.514 Q27.4968 395.267 27.9743 392.403 Q28.4517 389.538 29.4065 387.119 Z" fill="#000000" fill-rule="evenodd" fill-opacity="1" /><path clip-path="url(#clip610)" d="M14.5426 376.807 L14.5426 371.714 Q22.0542 366.94 29.2474 364.585 Q36.4406 362.197 43.5384 362.197 Q50.668 362.197 57.8931 364.585 Q65.1182 366.94 72.5979 371.714 L72.5979 376.807 Q65.3091 372.574 58.1159 370.505 Q50.8908 368.404 43.5384 368.404 Q36.186 368.404 29.0246 370.505 Q21.8632 372.574 14.5426 376.807 Z" fill="#000000" fill-rule="evenodd" fill-opacity="1" /><polyline clip-path="url(#clip612)" style="stroke:#009af9; stroke-linecap:butt; stroke-linejoin:round; stroke-width:4; stroke-opacity:1; fill:none" points="
  307.043,1318.65 347.166,1383.62 427.414,1378.11 487.6,1371.86 888.838,1270.18 1691.31,783.541 2293.17,180.024 
  "/>
<polyline clip-path="url(#clip612)" style="stroke:#e26f46; stroke-linecap:butt; stroke-linejoin:round; stroke-width:4; stroke-opacity:1; fill:none" points="
  307.043,1331.82 347.166,1383.71 427.414,1375.62 487.6,1368.85 888.838,1262.3 1691.31,721.286 2293.17,86.1857 
  "/>
<polyline clip-path="url(#clip612)" style="stroke:#3da44d; stroke-linecap:butt; stroke-linejoin:round; stroke-width:4; stroke-opacity:1; fill:none" points="
  307.043,1373.48 347.166,1384.24 427.414,1383.05 487.6,1382.17 888.838,1374.5 1691.31,1359.04 2293.17,1347.39 
  "/>
<path clip-path="url(#clip610)" d="
M1381.05 300.469 L2282.58 300.469 L2282.58 93.1086 L1381.05 93.1086  Z
  " fill="#ffffff" fill-rule="evenodd" fill-opacity="1"/>
<polyline clip-path="url(#clip610)" style="stroke:#000000; stroke-linecap:butt; stroke-linejoin:round; stroke-width:4; stroke-opacity:1; fill:none" points="
  1381.05,300.469 2282.58,300.469 2282.58,93.1086 1381.05,93.1086 1381.05,300.469 
  "/>
<polyline clip-path="url(#clip610)" style="stroke:#009af9; stroke-linecap:butt; stroke-linejoin:round; stroke-width:4; stroke-opacity:1; fill:none" points="
  1404.44,144.949 1544.79,144.949 
  "/>
<path clip-path="url(#clip610)" d="M1580.08 139.289 Q1576.65 139.289 1574.66 141.974 Q1572.67 144.636 1572.67 149.289 Q1572.67 153.942 1574.64 156.627 Q1576.63 159.289 1580.08 159.289 Q1583.48 159.289 1585.47 156.604 Q1587.47 153.918 1587.47 149.289 Q1587.47 144.682 1585.47 141.997 Q1583.48 139.289 1580.08 139.289 M1580.08 135.678 Q1585.64 135.678 1588.81 139.289 Q1591.98 142.9 1591.98 149.289 Q1591.98 155.655 1588.81 159.289 Q1585.64 162.9 1580.08 162.9 Q1574.5 162.9 1571.33 159.289 Q1568.18 155.655 1568.18 149.289 Q1568.18 142.9 1571.33 139.289 Q1574.5 135.678 1580.08 135.678 Z" fill="#000000" fill-rule="evenodd" fill-opacity="1" /><path clip-path="url(#clip610)" d="M1614.06 140.284 Q1613.34 139.868 1612.49 139.682 Q1611.65 139.474 1610.64 139.474 Q1607.03 139.474 1605.08 141.835 Q1603.16 144.173 1603.16 148.571 L1603.16 162.229 L1598.88 162.229 L1598.88 136.303 L1603.16 136.303 L1603.16 140.331 Q1604.5 137.969 1606.65 136.835 Q1608.81 135.678 1611.89 135.678 Q1612.33 135.678 1612.86 135.747 Q1613.39 135.794 1614.04 135.909 L1614.06 140.284 Z" fill="#000000" fill-rule="evenodd" fill-opacity="1" /><path clip-path="url(#clip610)" d="M1618.53 136.303 L1622.79 136.303 L1622.79 162.229 L1618.53 162.229 L1618.53 136.303 M1618.53 126.21 L1622.79 126.21 L1622.79 131.604 L1618.53 131.604 L1618.53 126.21 Z" fill="#000000" fill-rule="evenodd" fill-opacity="1" /><path clip-path="url(#clip610)" d="M1648.76 148.965 Q1648.76 144.335 1646.84 141.789 Q1644.94 139.243 1641.49 139.243 Q1638.07 139.243 1636.15 141.789 Q1634.25 144.335 1634.25 148.965 Q1634.25 153.571 1636.15 156.118 Q1638.07 158.664 1641.49 158.664 Q1644.94 158.664 1646.84 156.118 Q1648.76 153.571 1648.76 148.965 M1653.02 159.011 Q1653.02 165.631 1650.08 168.849 Q1647.14 172.09 1641.08 172.09 Q1638.83 172.09 1636.84 171.742 Q1634.85 171.418 1632.97 170.724 L1632.97 166.58 Q1634.85 167.599 1636.68 168.085 Q1638.51 168.571 1640.4 168.571 Q1644.59 168.571 1646.68 166.372 Q1648.76 164.196 1648.76 159.775 L1648.76 157.668 Q1647.44 159.96 1645.38 161.094 Q1643.32 162.229 1640.45 162.229 Q1635.68 162.229 1632.77 158.594 Q1629.85 154.96 1629.85 148.965 Q1629.85 142.946 1632.77 139.312 Q1635.68 135.678 1640.45 135.678 Q1643.32 135.678 1645.38 136.812 Q1647.44 137.946 1648.76 140.238 L1648.76 136.303 L1653.02 136.303 L1653.02 159.011 Z" fill="#000000" fill-rule="evenodd" fill-opacity="1" /><path clip-path="url(#clip610)" d="M1661.79 136.303 L1666.05 136.303 L1666.05 162.229 L1661.79 162.229 L1661.79 136.303 M1661.79 126.21 L1666.05 126.21 L1666.05 131.604 L1661.79 131.604 L1661.79 126.21 Z" fill="#000000" fill-rule="evenodd" fill-opacity="1" /><path clip-path="url(#clip610)" d="M1696.52 146.581 L1696.52 162.229 L1692.26 162.229 L1692.26 146.719 Q1692.26 143.039 1690.82 141.21 Q1689.39 139.382 1686.52 139.382 Q1683.07 139.382 1681.08 141.581 Q1679.08 143.78 1679.08 147.576 L1679.08 162.229 L1674.8 162.229 L1674.8 136.303 L1679.08 136.303 L1679.08 140.331 Q1680.61 137.993 1682.67 136.835 Q1684.76 135.678 1687.46 135.678 Q1691.93 135.678 1694.22 138.456 Q1696.52 141.21 1696.52 146.581 Z" fill="#000000" fill-rule="evenodd" fill-opacity="1" /><path clip-path="url(#clip610)" d="M1716.79 149.196 Q1711.63 149.196 1709.64 150.377 Q1707.65 151.557 1707.65 154.405 Q1707.65 156.673 1709.13 158.016 Q1710.64 159.335 1713.21 159.335 Q1716.75 159.335 1718.88 156.835 Q1721.03 154.312 1721.03 150.145 L1721.03 149.196 L1716.79 149.196 M1725.29 147.437 L1725.29 162.229 L1721.03 162.229 L1721.03 158.293 Q1719.57 160.655 1717.39 161.789 Q1715.22 162.9 1712.07 162.9 Q1708.09 162.9 1705.73 160.678 Q1703.39 158.432 1703.39 154.682 Q1703.39 150.307 1706.31 148.085 Q1709.25 145.863 1715.06 145.863 L1721.03 145.863 L1721.03 145.446 Q1721.03 142.507 1719.08 140.909 Q1717.16 139.289 1713.67 139.289 Q1711.45 139.289 1709.34 139.821 Q1707.23 140.354 1705.29 141.419 L1705.29 137.483 Q1707.63 136.581 1709.83 136.141 Q1712.02 135.678 1714.11 135.678 Q1719.73 135.678 1722.51 138.594 Q1725.29 141.511 1725.29 147.437 Z" fill="#000000" fill-rule="evenodd" fill-opacity="1" /><path clip-path="url(#clip610)" d="M1734.06 126.21 L1738.32 126.21 L1738.32 162.229 L1734.06 162.229 L1734.06 126.21 Z" fill="#000000" fill-rule="evenodd" fill-opacity="1" /><polyline clip-path="url(#clip610)" style="stroke:#e26f46; stroke-linecap:butt; stroke-linejoin:round; stroke-width:4; stroke-opacity:1; fill:none" points="
  1404.44,196.789 1544.79,196.789 
  "/>
<path clip-path="url(#clip610)" d="M1568.18 188.143 L1572.44 188.143 L1577.77 208.374 L1583.07 188.143 L1588.09 188.143 L1593.41 208.374 L1598.72 188.143 L1602.97 188.143 L1596.19 214.069 L1591.17 214.069 L1585.59 192.819 L1579.99 214.069 L1574.97 214.069 L1568.18 188.143 Z" fill="#000000" fill-rule="evenodd" fill-opacity="1" /><path clip-path="url(#clip610)" d="M1609.43 188.143 L1613.69 188.143 L1613.69 214.069 L1609.43 214.069 L1609.43 188.143 M1609.43 178.05 L1613.69 178.05 L1613.69 183.444 L1609.43 183.444 L1609.43 178.05 Z" fill="#000000" fill-rule="evenodd" fill-opacity="1" /><path clip-path="url(#clip610)" d="M1626.82 180.782 L1626.82 188.143 L1635.59 188.143 L1635.59 191.453 L1626.82 191.453 L1626.82 205.527 Q1626.82 208.698 1627.67 209.601 Q1628.55 210.504 1631.21 210.504 L1635.59 210.504 L1635.59 214.069 L1631.21 214.069 Q1626.28 214.069 1624.41 212.24 Q1622.53 210.388 1622.53 205.527 L1622.53 191.453 L1619.41 191.453 L1619.41 188.143 L1622.53 188.143 L1622.53 180.782 L1626.82 180.782 Z" fill="#000000" fill-rule="evenodd" fill-opacity="1" /><path clip-path="url(#clip610)" d="M1662.74 198.421 L1662.74 214.069 L1658.48 214.069 L1658.48 198.559 Q1658.48 194.879 1657.05 193.05 Q1655.61 191.222 1652.74 191.222 Q1649.29 191.222 1647.3 193.421 Q1645.31 195.62 1645.31 199.416 L1645.31 214.069 L1641.03 214.069 L1641.03 178.05 L1645.31 178.05 L1645.31 192.171 Q1646.84 189.833 1648.9 188.675 Q1650.98 187.518 1653.69 187.518 Q1658.16 187.518 1660.45 190.296 Q1662.74 193.05 1662.74 198.421 Z" fill="#000000" fill-rule="evenodd" fill-opacity="1" /><path clip-path="url(#clip610)" d="M1706.49 193.12 Q1708.09 190.249 1710.31 188.884 Q1712.53 187.518 1715.54 187.518 Q1719.59 187.518 1721.79 190.365 Q1723.99 193.189 1723.99 198.421 L1723.99 214.069 L1719.71 214.069 L1719.71 198.559 Q1719.71 194.833 1718.39 193.027 Q1717.07 191.222 1714.36 191.222 Q1711.05 191.222 1709.13 193.421 Q1707.21 195.62 1707.21 199.416 L1707.21 214.069 L1702.93 214.069 L1702.93 198.559 Q1702.93 194.809 1701.61 193.027 Q1700.29 191.222 1697.53 191.222 Q1694.27 191.222 1692.35 193.444 Q1690.43 195.643 1690.43 199.416 L1690.43 214.069 L1686.15 214.069 L1686.15 188.143 L1690.43 188.143 L1690.43 192.171 Q1691.89 189.786 1693.92 188.652 Q1695.96 187.518 1698.76 187.518 Q1701.58 187.518 1703.55 188.953 Q1705.54 190.388 1706.49 193.12 Z" fill="#000000" fill-rule="evenodd" fill-opacity="1" /><path clip-path="url(#clip610)" d="M1744.27 201.036 Q1739.11 201.036 1737.12 202.217 Q1735.13 203.397 1735.13 206.245 Q1735.13 208.513 1736.61 209.856 Q1738.11 211.175 1740.68 211.175 Q1744.22 211.175 1746.35 208.675 Q1748.51 206.152 1748.51 201.985 L1748.51 201.036 L1744.27 201.036 M1752.77 199.277 L1752.77 214.069 L1748.51 214.069 L1748.51 210.133 Q1747.05 212.495 1744.87 213.629 Q1742.7 214.74 1739.55 214.74 Q1735.57 214.74 1733.21 212.518 Q1730.87 210.272 1730.87 206.522 Q1730.87 202.147 1733.78 199.925 Q1736.72 197.703 1742.53 197.703 L1748.51 197.703 L1748.51 197.286 Q1748.51 194.347 1746.56 192.749 Q1744.64 191.129 1741.14 191.129 Q1738.92 191.129 1736.82 191.661 Q1734.71 192.194 1732.77 193.259 L1732.77 189.323 Q1735.1 188.421 1737.3 187.981 Q1739.5 187.518 1741.58 187.518 Q1747.21 187.518 1749.99 190.434 Q1752.77 193.351 1752.77 199.277 Z" fill="#000000" fill-rule="evenodd" fill-opacity="1" /><path clip-path="url(#clip610)" d="M1765.66 210.18 L1765.66 223.93 L1761.38 223.93 L1761.38 188.143 L1765.66 188.143 L1765.66 192.078 Q1767 189.763 1769.04 188.652 Q1771.1 187.518 1773.95 187.518 Q1778.67 187.518 1781.61 191.268 Q1784.57 195.018 1784.57 201.129 Q1784.57 207.24 1781.61 210.99 Q1778.67 214.74 1773.95 214.74 Q1771.1 214.74 1769.04 213.629 Q1767 212.495 1765.66 210.18 M1780.15 201.129 Q1780.15 196.43 1778.2 193.768 Q1776.28 191.083 1772.9 191.083 Q1769.52 191.083 1767.58 193.768 Q1765.66 196.43 1765.66 201.129 Q1765.66 205.828 1767.58 208.513 Q1769.52 211.175 1772.9 211.175 Q1776.28 211.175 1778.2 208.513 Q1780.15 205.828 1780.15 201.129 Z" fill="#000000" fill-rule="evenodd" fill-opacity="1" /><polyline clip-path="url(#clip610)" style="stroke:#3da44d; stroke-linecap:butt; stroke-linejoin:round; stroke-width:4; stroke-opacity:1; fill:none" points="
  1404.44,248.629 1544.79,248.629 
  "/>
<path clip-path="url(#clip610)" d="M1568.18 239.983 L1572.44 239.983 L1577.77 260.214 L1583.07 239.983 L1588.09 239.983 L1593.41 260.214 L1598.72 239.983 L1602.97 239.983 L1596.19 265.909 L1591.17 265.909 L1585.59 244.659 L1579.99 265.909 L1574.97 265.909 L1568.18 239.983 Z" fill="#000000" fill-rule="evenodd" fill-opacity="1" /><path clip-path="url(#clip610)" d="M1609.43 239.983 L1613.69 239.983 L1613.69 265.909 L1609.43 265.909 L1609.43 239.983 M1609.43 229.89 L1613.69 229.89 L1613.69 235.284 L1609.43 235.284 L1609.43 229.89 Z" fill="#000000" fill-rule="evenodd" fill-opacity="1" /><path clip-path="url(#clip610)" d="M1626.82 232.622 L1626.82 239.983 L1635.59 239.983 L1635.59 243.293 L1626.82 243.293 L1626.82 257.367 Q1626.82 260.538 1627.67 261.441 Q1628.55 262.344 1631.21 262.344 L1635.59 262.344 L1635.59 265.909 L1631.21 265.909 Q1626.28 265.909 1624.41 264.08 Q1622.53 262.228 1622.53 257.367 L1622.53 243.293 L1619.41 243.293 L1619.41 239.983 L1622.53 239.983 L1622.53 232.622 L1626.82 232.622 Z" fill="#000000" fill-rule="evenodd" fill-opacity="1" /><path clip-path="url(#clip610)" d="M1662.74 250.261 L1662.74 265.909 L1658.48 265.909 L1658.48 250.399 Q1658.48 246.719 1657.05 244.89 Q1655.61 243.062 1652.74 243.062 Q1649.29 243.062 1647.3 245.261 Q1645.31 247.46 1645.31 251.256 L1645.31 265.909 L1641.03 265.909 L1641.03 229.89 L1645.31 229.89 L1645.31 244.011 Q1646.84 241.673 1648.9 240.515 Q1650.98 239.358 1653.69 239.358 Q1658.16 239.358 1660.45 242.136 Q1662.74 244.89 1662.74 250.261 Z" fill="#000000" fill-rule="evenodd" fill-opacity="1" /><path clip-path="url(#clip610)" d="M1706.49 244.96 Q1708.09 242.089 1710.31 240.724 Q1712.53 239.358 1715.54 239.358 Q1719.59 239.358 1721.79 242.205 Q1723.99 245.029 1723.99 250.261 L1723.99 265.909 L1719.71 265.909 L1719.71 250.399 Q1719.71 246.673 1718.39 244.867 Q1717.07 243.062 1714.36 243.062 Q1711.05 243.062 1709.13 245.261 Q1707.21 247.46 1707.21 251.256 L1707.21 265.909 L1702.93 265.909 L1702.93 250.399 Q1702.93 246.649 1701.61 244.867 Q1700.29 243.062 1697.53 243.062 Q1694.27 243.062 1692.35 245.284 Q1690.43 247.483 1690.43 251.256 L1690.43 265.909 L1686.15 265.909 L1686.15 239.983 L1690.43 239.983 L1690.43 244.011 Q1691.89 241.626 1693.92 240.492 Q1695.96 239.358 1698.76 239.358 Q1701.58 239.358 1703.55 240.793 Q1705.54 242.228 1706.49 244.96 Z" fill="#000000" fill-rule="evenodd" fill-opacity="1" /><path clip-path="url(#clip610)" d="M1744.27 252.876 Q1739.11 252.876 1737.12 254.057 Q1735.13 255.237 1735.13 258.085 Q1735.13 260.353 1736.61 261.696 Q1738.11 263.015 1740.68 263.015 Q1744.22 263.015 1746.35 260.515 Q1748.51 257.992 1748.51 253.825 L1748.51 252.876 L1744.27 252.876 M1752.77 251.117 L1752.77 265.909 L1748.51 265.909 L1748.51 261.973 Q1747.05 264.335 1744.87 265.469 Q1742.7 266.58 1739.55 266.58 Q1735.57 266.58 1733.21 264.358 Q1730.87 262.112 1730.87 258.362 Q1730.87 253.987 1733.78 251.765 Q1736.72 249.543 1742.53 249.543 L1748.51 249.543 L1748.51 249.126 Q1748.51 246.187 1746.56 244.589 Q1744.64 242.969 1741.14 242.969 Q1738.92 242.969 1736.82 243.501 Q1734.71 244.034 1732.77 245.099 L1732.77 241.163 Q1735.1 240.261 1737.3 239.821 Q1739.5 239.358 1741.58 239.358 Q1747.21 239.358 1749.99 242.274 Q1752.77 245.191 1752.77 251.117 Z" fill="#000000" fill-rule="evenodd" fill-opacity="1" /><path clip-path="url(#clip610)" d="M1765.66 262.02 L1765.66 275.77 L1761.38 275.77 L1761.38 239.983 L1765.66 239.983 L1765.66 243.918 Q1767 241.603 1769.04 240.492 Q1771.1 239.358 1773.95 239.358 Q1778.67 239.358 1781.61 243.108 Q1784.57 246.858 1784.57 252.969 Q1784.57 259.08 1781.61 262.83 Q1778.67 266.58 1773.95 266.58 Q1771.1 266.58 1769.04 265.469 Q1767 264.335 1765.66 262.02 M1780.15 252.969 Q1780.15 248.27 1778.2 245.608 Q1776.28 242.923 1772.9 242.923 Q1769.52 242.923 1767.58 245.608 Q1765.66 248.27 1765.66 252.969 Q1765.66 257.668 1767.58 260.353 Q1769.52 263.015 1772.9 263.015 Q1776.28 263.015 1778.2 260.353 Q1780.15 257.668 1780.15 252.969 Z" fill="#000000" fill-rule="evenodd" fill-opacity="1" /><path clip-path="url(#clip610)" d="M1818.48 252.876 Q1813.32 252.876 1811.33 254.057 Q1809.34 255.237 1809.34 258.085 Q1809.34 260.353 1810.82 261.696 Q1812.32 263.015 1814.89 263.015 Q1818.44 263.015 1820.57 260.515 Q1822.72 257.992 1822.72 253.825 L1822.72 252.876 L1818.48 252.876 M1826.98 251.117 L1826.98 265.909 L1822.72 265.909 L1822.72 261.973 Q1821.26 264.335 1819.08 265.469 Q1816.91 266.58 1813.76 266.58 Q1809.78 266.58 1807.42 264.358 Q1805.08 262.112 1805.08 258.362 Q1805.08 253.987 1808 251.765 Q1810.94 249.543 1816.75 249.543 L1822.72 249.543 L1822.72 249.126 Q1822.72 246.187 1820.77 244.589 Q1818.85 242.969 1815.36 242.969 Q1813.14 242.969 1811.03 243.501 Q1808.92 244.034 1806.98 245.099 L1806.98 241.163 Q1809.32 240.261 1811.51 239.821 Q1813.71 239.358 1815.8 239.358 Q1821.42 239.358 1824.2 242.274 Q1826.98 245.191 1826.98 251.117 Z" fill="#000000" fill-rule="evenodd" fill-opacity="1" /><path clip-path="url(#clip610)" d="M1857.3 250.261 L1857.3 265.909 L1853.04 265.909 L1853.04 250.399 Q1853.04 246.719 1851.61 244.89 Q1850.17 243.062 1847.3 243.062 Q1843.85 243.062 1841.86 245.261 Q1839.87 247.46 1839.87 251.256 L1839.87 265.909 L1835.59 265.909 L1835.59 239.983 L1839.87 239.983 L1839.87 244.011 Q1841.4 241.673 1843.46 240.515 Q1845.54 239.358 1848.25 239.358 Q1852.72 239.358 1855.01 242.136 Q1857.3 244.89 1857.3 250.261 Z" fill="#000000" fill-rule="evenodd" fill-opacity="1" /><path clip-path="url(#clip610)" d="M1882.86 243.918 L1882.86 229.89 L1887.12 229.89 L1887.12 265.909 L1882.86 265.909 L1882.86 262.02 Q1881.51 264.335 1879.45 265.469 Q1877.42 266.58 1874.55 266.58 Q1869.85 266.58 1866.88 262.83 Q1863.95 259.08 1863.95 252.969 Q1863.95 246.858 1866.88 243.108 Q1869.85 239.358 1874.55 239.358 Q1877.42 239.358 1879.45 240.492 Q1881.51 241.603 1882.86 243.918 M1868.34 252.969 Q1868.34 257.668 1870.26 260.353 Q1872.21 263.015 1875.59 263.015 Q1878.97 263.015 1880.91 260.353 Q1882.86 257.668 1882.86 252.969 Q1882.86 248.27 1880.91 245.608 Q1878.97 242.923 1875.59 242.923 Q1872.21 242.923 1870.26 245.608 Q1868.34 248.27 1868.34 252.969 Z" fill="#000000" fill-rule="evenodd" fill-opacity="1" /><path clip-path="url(#clip610)" d="M1927.49 240.747 L1927.49 244.774 Q1925.68 243.849 1923.74 243.386 Q1921.79 242.923 1919.71 242.923 Q1916.54 242.923 1914.94 243.895 Q1913.37 244.867 1913.37 246.811 Q1913.37 248.293 1914.5 249.149 Q1915.63 249.983 1919.06 250.747 L1920.52 251.071 Q1925.06 252.043 1926.95 253.825 Q1928.88 255.585 1928.88 258.756 Q1928.88 262.367 1926 264.473 Q1923.16 266.58 1918.16 266.58 Q1916.07 266.58 1913.81 266.163 Q1911.56 265.77 1909.06 264.96 L1909.06 260.561 Q1911.42 261.788 1913.71 262.413 Q1916 263.015 1918.25 263.015 Q1921.26 263.015 1922.88 261.997 Q1924.5 260.955 1924.5 259.08 Q1924.5 257.344 1923.32 256.418 Q1922.16 255.492 1918.2 254.636 L1916.72 254.288 Q1912.76 253.455 1911.01 251.742 Q1909.25 250.006 1909.25 246.997 Q1909.25 243.339 1911.84 241.349 Q1914.43 239.358 1919.2 239.358 Q1921.56 239.358 1923.64 239.705 Q1925.73 240.052 1927.49 240.747 Z" fill="#000000" fill-rule="evenodd" fill-opacity="1" /><path clip-path="url(#clip610)" d="M1939.87 232.622 L1939.87 239.983 L1948.64 239.983 L1948.64 243.293 L1939.87 243.293 L1939.87 257.367 Q1939.87 260.538 1940.73 261.441 Q1941.61 262.344 1944.27 262.344 L1948.64 262.344 L1948.64 265.909 L1944.27 265.909 Q1939.34 265.909 1937.46 264.08 Q1935.59 262.228 1935.59 257.367 L1935.59 243.293 L1932.46 243.293 L1932.46 239.983 L1935.59 239.983 L1935.59 232.622 L1939.87 232.622 Z" fill="#000000" fill-rule="evenodd" fill-opacity="1" /><path clip-path="url(#clip610)" d="M1966.03 252.876 Q1960.87 252.876 1958.88 254.057 Q1956.88 255.237 1956.88 258.085 Q1956.88 260.353 1958.37 261.696 Q1959.87 263.015 1962.44 263.015 Q1965.98 263.015 1968.11 260.515 Q1970.26 257.992 1970.26 253.825 L1970.26 252.876 L1966.03 252.876 M1974.52 251.117 L1974.52 265.909 L1970.26 265.909 L1970.26 261.973 Q1968.81 264.335 1966.63 265.469 Q1964.45 266.58 1961.31 266.58 Q1957.32 266.58 1954.96 264.358 Q1952.63 262.112 1952.63 258.362 Q1952.63 253.987 1955.54 251.765 Q1958.48 249.543 1964.29 249.543 L1970.26 249.543 L1970.26 249.126 Q1970.26 246.187 1968.32 244.589 Q1966.4 242.969 1962.9 242.969 Q1960.68 242.969 1958.57 243.501 Q1956.47 244.034 1954.52 245.099 L1954.52 241.163 Q1956.86 240.261 1959.06 239.821 Q1961.26 239.358 1963.34 239.358 Q1968.97 239.358 1971.75 242.274 Q1974.52 245.191 1974.52 251.117 Z" fill="#000000" fill-rule="evenodd" fill-opacity="1" /><path clip-path="url(#clip610)" d="M1987.51 232.622 L1987.51 239.983 L1996.28 239.983 L1996.28 243.293 L1987.51 243.293 L1987.51 257.367 Q1987.51 260.538 1988.37 261.441 Q1989.25 262.344 1991.91 262.344 L1996.28 262.344 L1996.28 265.909 L1991.91 265.909 Q1986.98 265.909 1985.1 264.08 Q1983.23 262.228 1983.23 257.367 L1983.23 243.293 L1980.1 243.293 L1980.1 239.983 L1983.23 239.983 L1983.23 232.622 L1987.51 232.622 Z" fill="#000000" fill-rule="evenodd" fill-opacity="1" /><path clip-path="url(#clip610)" d="M2001.88 239.983 L2006.14 239.983 L2006.14 265.909 L2001.88 265.909 L2001.88 239.983 M2001.88 229.89 L2006.14 229.89 L2006.14 235.284 L2001.88 235.284 L2001.88 229.89 Z" fill="#000000" fill-rule="evenodd" fill-opacity="1" /><path clip-path="url(#clip610)" d="M2033.71 240.978 L2033.71 244.96 Q2031.91 243.964 2030.08 243.478 Q2028.27 242.969 2026.42 242.969 Q2022.28 242.969 2019.99 245.608 Q2017.69 248.224 2017.69 252.969 Q2017.69 257.714 2019.99 260.353 Q2022.28 262.969 2026.42 262.969 Q2028.27 262.969 2030.08 262.483 Q2031.91 261.973 2033.71 260.978 L2033.71 264.913 Q2031.93 265.747 2030.01 266.163 Q2028.11 266.58 2025.96 266.58 Q2020.1 266.58 2016.65 262.899 Q2013.2 259.219 2013.2 252.969 Q2013.2 246.626 2016.68 242.992 Q2020.17 239.358 2026.24 239.358 Q2028.2 239.358 2030.08 239.775 Q2031.95 240.168 2033.71 240.978 Z" fill="#000000" fill-rule="evenodd" fill-opacity="1" /><path clip-path="url(#clip610)" d="M2066.24 242.969 Q2062.81 242.969 2060.82 245.654 Q2058.83 248.316 2058.83 252.969 Q2058.83 257.622 2060.8 260.307 Q2062.79 262.969 2066.24 262.969 Q2069.64 262.969 2071.63 260.284 Q2073.62 257.598 2073.62 252.969 Q2073.62 248.362 2071.63 245.677 Q2069.64 242.969 2066.24 242.969 M2066.24 239.358 Q2071.79 239.358 2074.96 242.969 Q2078.13 246.58 2078.13 252.969 Q2078.13 259.335 2074.96 262.969 Q2071.79 266.58 2066.24 266.58 Q2060.66 266.58 2057.49 262.969 Q2054.34 259.335 2054.34 252.969 Q2054.34 246.58 2057.49 242.969 Q2060.66 239.358 2066.24 239.358 Z" fill="#000000" fill-rule="evenodd" fill-opacity="1" /><path clip-path="url(#clip610)" d="M2084.75 255.677 L2084.75 239.983 L2089.01 239.983 L2089.01 255.515 Q2089.01 259.196 2090.45 261.048 Q2091.88 262.876 2094.75 262.876 Q2098.2 262.876 2100.19 260.677 Q2102.21 258.478 2102.21 254.682 L2102.21 239.983 L2106.47 239.983 L2106.47 265.909 L2102.21 265.909 L2102.21 261.927 Q2100.66 264.288 2098.6 265.446 Q2096.56 266.58 2093.85 266.58 Q2089.38 266.58 2087.07 263.802 Q2084.75 261.024 2084.75 255.677 M2095.47 239.358 L2095.47 239.358 Z" fill="#000000" fill-rule="evenodd" fill-opacity="1" /><path clip-path="url(#clip610)" d="M2119.45 232.622 L2119.45 239.983 L2128.23 239.983 L2128.23 243.293 L2119.45 243.293 L2119.45 257.367 Q2119.45 260.538 2120.31 261.441 Q2121.19 262.344 2123.85 262.344 L2128.23 262.344 L2128.23 265.909 L2123.85 265.909 Q2118.92 265.909 2117.05 264.08 Q2115.17 262.228 2115.17 257.367 L2115.17 243.293 L2112.05 243.293 L2112.05 239.983 L2115.17 239.983 L2115.17 232.622 L2119.45 232.622 Z" fill="#000000" fill-rule="evenodd" fill-opacity="1" /><path clip-path="url(#clip610)" d="M2156 251.881 L2156 253.964 L2136.42 253.964 Q2136.7 258.362 2139.06 260.677 Q2141.44 262.969 2145.68 262.969 Q2148.13 262.969 2150.43 262.367 Q2152.74 261.765 2155.01 260.561 L2155.01 264.589 Q2152.72 265.561 2150.31 266.071 Q2147.9 266.58 2145.43 266.58 Q2139.22 266.58 2135.59 262.969 Q2131.98 259.358 2131.98 253.2 Q2131.98 246.835 2135.4 243.108 Q2138.85 239.358 2144.68 239.358 Q2149.92 239.358 2152.95 242.737 Q2156 246.094 2156 251.881 M2151.74 250.631 Q2151.7 247.136 2149.78 245.052 Q2147.88 242.969 2144.73 242.969 Q2141.17 242.969 2139.01 244.983 Q2136.88 246.997 2136.56 250.654 L2151.74 250.631 Z" fill="#000000" fill-rule="evenodd" fill-opacity="1" /><path clip-path="url(#clip610)" d="M2178.02 243.964 Q2177.3 243.548 2176.44 243.362 Q2175.61 243.154 2174.59 243.154 Q2170.98 243.154 2169.04 245.515 Q2167.11 247.853 2167.11 252.251 L2167.11 265.909 L2162.83 265.909 L2162.83 239.983 L2167.11 239.983 L2167.11 244.011 Q2168.46 241.649 2170.61 240.515 Q2172.76 239.358 2175.84 239.358 Q2176.28 239.358 2176.81 239.427 Q2177.35 239.474 2177.99 239.589 L2178.02 243.964 Z" fill="#000000" fill-rule="evenodd" fill-opacity="1" /><path clip-path="url(#clip610)" d="M2210.68 229.89 L2210.68 233.432 L2206.61 233.432 Q2204.31 233.432 2203.41 234.358 Q2202.53 235.284 2202.53 237.691 L2202.53 239.983 L2209.55 239.983 L2209.55 243.293 L2202.53 243.293 L2202.53 265.909 L2198.25 265.909 L2198.25 243.293 L2194.17 243.293 L2194.17 239.983 L2198.25 239.983 L2198.25 238.177 Q2198.25 233.849 2200.26 231.881 Q2202.28 229.89 2206.65 229.89 L2210.68 229.89 Z" fill="#000000" fill-rule="evenodd" fill-opacity="1" /><path clip-path="url(#clip610)" d="M2235.79 250.261 L2235.79 265.909 L2231.54 265.909 L2231.54 250.399 Q2231.54 246.719 2230.1 244.89 Q2228.67 243.062 2225.8 243.062 Q2222.35 243.062 2220.36 245.261 Q2218.36 247.46 2218.36 251.256 L2218.36 265.909 L2214.08 265.909 L2214.08 239.983 L2218.36 239.983 L2218.36 244.011 Q2219.89 241.673 2221.95 240.515 Q2224.04 239.358 2226.74 239.358 Q2231.21 239.358 2233.5 242.136 Q2235.79 244.89 2235.79 250.261 Z" fill="#000000" fill-rule="evenodd" fill-opacity="1" /></svg>
