<?xml version="1.0" encoding="utf-8"?>
<svg xmlns="http://www.w3.org/2000/svg" xmlns:xlink="http://www.w3.org/1999/xlink" width="600" height="400" viewBox="0 0 2400 1600">
<defs>
  <clipPath id="clip850">
    <rect x="0" y="0" width="2400" height="1600"/>
  </clipPath>
</defs>
<path clip-path="url(#clip850)" d="M0 1600 L2400 1600 L2400 0 L0 0  Z" fill="#ffffff" fill-rule="evenodd" fill-opacity="1"/>
<defs>
  <clipPath id="clip851">
    <rect x="480" y="0" width="1681" height="1600"/>
  </clipPath>
</defs>
<path clip-path="url(#clip850)" d="M203.964 1423.18 L2352.76 1423.18 L2352.76 47.2441 L203.964 47.2441  Z" fill="#ffffff" fill-rule="evenodd" fill-opacity="1"/>
<defs>
  <clipPath id="clip852">
    <rect x="203" y="47" width="2150" height="1377"/>
  </clipPath>
</defs>
<polyline clip-path="url(#clip852)" style="stroke:#000000; stroke-linecap:round; stroke-linejoin:round; stroke-width:2; stroke-opacity:0.1; fill:none" points="244.302,1423.18 244.302,47.2441 "/>
<polyline clip-path="url(#clip852)" style="stroke:#000000; stroke-linecap:round; stroke-linejoin:round; stroke-width:2; stroke-opacity:0.1; fill:none" points="756.212,1423.18 756.212,47.2441 "/>
<polyline clip-path="url(#clip852)" style="stroke:#000000; stroke-linecap:round; stroke-linejoin:round; stroke-width:2; stroke-opacity:0.1; fill:none" points="1268.12,1423.18 1268.12,47.2441 "/>
<polyline clip-path="url(#clip852)" style="stroke:#000000; stroke-linecap:round; stroke-linejoin:round; stroke-width:2; stroke-opacity:0.1; fill:none" points="1780.03,1423.18 1780.03,47.2441 "/>
<polyline clip-path="url(#clip852)" style="stroke:#000000; stroke-linecap:round; stroke-linejoin:round; stroke-width:2; stroke-opacity:0.1; fill:none" points="2291.94,1423.18 2291.94,47.2441 "/>
<polyline clip-path="url(#clip852)" style="stroke:#000000; stroke-linecap:round; stroke-linejoin:round; stroke-width:2; stroke-opacity:0.1; fill:none" points="203.964,1386.99 2352.76,1386.99 "/>
<polyline clip-path="url(#clip852)" style="stroke:#000000; stroke-linecap:round; stroke-linejoin:round; stroke-width:2; stroke-opacity:0.1; fill:none" points="203.964,1075.93 2352.76,1075.93 "/>
<polyline clip-path="url(#clip852)" style="stroke:#000000; stroke-linecap:round; stroke-linejoin:round; stroke-width:2; stroke-opacity:0.1; fill:none" points="203.964,764.869 2352.76,764.869 "/>
<polyline clip-path="url(#clip852)" style="stroke:#000000; stroke-linecap:round; stroke-linejoin:round; stroke-width:2; stroke-opacity:0.1; fill:none" points="203.964,453.81 2352.76,453.81 "/>
<polyline clip-path="url(#clip852)" style="stroke:#000000; stroke-linecap:round; stroke-linejoin:round; stroke-width:2; stroke-opacity:0.1; fill:none" points="203.964,142.75 2352.76,142.75 "/>
<polyline clip-path="url(#clip850)" style="stroke:#000000; stroke-linecap:round; stroke-linejoin:round; stroke-width:4; stroke-opacity:1; fill:none" points="203.964,1423.18 2352.76,1423.18 "/>
<polyline clip-path="url(#clip850)" style="stroke:#000000; stroke-linecap:round; stroke-linejoin:round; stroke-width:4; stroke-opacity:1; fill:none" points="244.302,1423.18 244.302,1404.28 "/>
<polyline clip-path="url(#clip850)" style="stroke:#000000; stroke-linecap:round; stroke-linejoin:round; stroke-width:4; stroke-opacity:1; fill:none" points="756.212,1423.18 756.212,1404.28 "/>
<polyline clip-path="url(#clip850)" style="stroke:#000000; stroke-linecap:round; stroke-linejoin:round; stroke-width:4; stroke-opacity:1; fill:none" points="1268.12,1423.18 1268.12,1404.28 "/>
<polyline clip-path="url(#clip850)" style="stroke:#000000; stroke-linecap:round; stroke-linejoin:round; stroke-width:4; stroke-opacity:1; fill:none" points="1780.03,1423.18 1780.03,1404.28 "/>
<polyline clip-path="url(#clip850)" style="stroke:#000000; stroke-linecap:round; stroke-linejoin:round; stroke-width:4; stroke-opacity:1; fill:none" points="2291.94,1423.18 2291.94,1404.28 "/>
<path clip-path="url(#clip850)" d="M244.302 1454.1 Q240.691 1454.1 238.862 1457.66 Q237.057 1461.2 237.057 1468.33 Q237.057 1475.44 238.862 1479.01 Q240.691 1482.55 244.302 1482.55 Q247.936 1482.55 249.742 1479.01 Q251.571 1475.44 251.571 1468.33 Q251.571 1461.2 249.742 1457.66 Q247.936 1454.1 244.302 1454.1 M244.302 1450.39 Q250.112 1450.39 253.168 1455 Q256.246 1459.58 256.246 1468.33 Q256.246 1477.06 253.168 1481.67 Q250.112 1486.25 244.302 1486.25 Q238.492 1486.25 235.413 1481.67 Q232.358 1477.06 232.358 1468.33 Q232.358 1459.58 235.413 1455 Q238.492 1450.39 244.302 1450.39 Z" fill="#000000" fill-rule="nonzero" fill-opacity="1" /><path clip-path="url(#clip850)" d="M735.483 1481.64 L751.802 1481.64 L751.802 1485.58 L729.858 1485.58 L729.858 1481.64 Q732.52 1478.89 737.103 1474.26 Q741.71 1469.61 742.89 1468.27 Q745.135 1465.74 746.015 1464.01 Q746.918 1462.25 746.918 1460.56 Q746.918 1457.8 744.973 1456.07 Q743.052 1454.33 739.95 1454.33 Q737.751 1454.33 735.298 1455.09 Q732.867 1455.86 730.089 1457.41 L730.089 1452.69 Q732.913 1451.55 735.367 1450.97 Q737.821 1450.39 739.858 1450.39 Q745.228 1450.39 748.422 1453.08 Q751.617 1455.77 751.617 1460.26 Q751.617 1462.39 750.807 1464.31 Q750.02 1466.2 747.913 1468.8 Q747.335 1469.47 744.233 1472.69 Q741.131 1475.88 735.483 1481.64 Z" fill="#000000" fill-rule="nonzero" fill-opacity="1" /><path clip-path="url(#clip850)" d="M761.663 1451.02 L780.02 1451.02 L780.02 1454.96 L765.946 1454.96 L765.946 1463.43 Q766.964 1463.08 767.983 1462.92 Q769.001 1462.73 770.02 1462.73 Q775.807 1462.73 779.186 1465.9 Q782.566 1469.08 782.566 1474.49 Q782.566 1480.07 779.094 1483.17 Q775.621 1486.25 769.302 1486.25 Q767.126 1486.25 764.858 1485.88 Q762.612 1485.51 760.205 1484.77 L760.205 1480.07 Q762.288 1481.2 764.51 1481.76 Q766.733 1482.32 769.209 1482.32 Q773.214 1482.32 775.552 1480.21 Q777.89 1478.1 777.89 1474.49 Q777.89 1470.88 775.552 1468.77 Q773.214 1466.67 769.209 1466.67 Q767.334 1466.67 765.459 1467.08 Q763.608 1467.5 761.663 1468.38 L761.663 1451.02 Z" fill="#000000" fill-rule="nonzero" fill-opacity="1" /><path clip-path="url(#clip850)" d="M1242.82 1451.02 L1261.18 1451.02 L1261.18 1454.96 L1247.1 1454.96 L1247.1 1463.43 Q1248.12 1463.08 1249.14 1462.92 Q1250.16 1462.73 1251.18 1462.73 Q1256.96 1462.73 1260.34 1465.9 Q1263.72 1469.08 1263.72 1474.49 Q1263.72 1480.07 1260.25 1483.17 Q1256.78 1486.25 1250.46 1486.25 Q1248.28 1486.25 1246.02 1485.88 Q1243.77 1485.51 1241.36 1484.77 L1241.36 1480.07 Q1243.45 1481.2 1245.67 1481.76 Q1247.89 1482.32 1250.37 1482.32 Q1254.37 1482.32 1256.71 1480.21 Q1259.05 1478.1 1259.05 1474.49 Q1259.05 1470.88 1256.71 1468.77 Q1254.37 1466.67 1250.37 1466.67 Q1248.49 1466.67 1246.62 1467.08 Q1244.77 1467.5 1242.82 1468.38 L1242.82 1451.02 Z" fill="#000000" fill-rule="nonzero" fill-opacity="1" /><path clip-path="url(#clip850)" d="M1282.94 1454.1 Q1279.33 1454.1 1277.5 1457.66 Q1275.69 1461.2 1275.69 1468.33 Q1275.69 1475.44 1277.5 1479.01 Q1279.33 1482.55 1282.94 1482.55 Q1286.57 1482.55 1288.38 1479.01 Q1290.2 1475.44 1290.2 1468.33 Q1290.2 1461.2 1288.38 1457.66 Q1286.57 1454.1 1282.94 1454.1 M1282.94 1450.39 Q1288.75 1450.39 1291.8 1455 Q1294.88 1459.58 1294.88 1468.33 Q1294.88 1477.06 1291.8 1481.67 Q1288.75 1486.25 1282.94 1486.25 Q1277.13 1486.25 1274.05 1481.67 Q1270.99 1477.06 1270.99 1468.33 Q1270.99 1459.58 1274.05 1455 Q1277.13 1450.39 1282.94 1450.39 Z" fill="#000000" fill-rule="nonzero" fill-opacity="1" /><path clip-path="url(#clip850)" d="M1753.89 1451.02 L1776.11 1451.02 L1776.11 1453.01 L1763.56 1485.58 L1758.68 1485.58 L1770.48 1454.96 L1753.89 1454.96 L1753.89 1451.02 Z" fill="#000000" fill-rule="nonzero" fill-opacity="1" /><path clip-path="url(#clip850)" d="M1785.27 1451.02 L1803.63 1451.02 L1803.63 1454.96 L1789.56 1454.96 L1789.56 1463.43 Q1790.58 1463.08 1791.59 1462.92 Q1792.61 1462.73 1793.63 1462.73 Q1799.42 1462.73 1802.8 1465.9 Q1806.18 1469.08 1806.18 1474.49 Q1806.18 1480.07 1802.7 1483.17 Q1799.23 1486.25 1792.91 1486.25 Q1790.74 1486.25 1788.47 1485.88 Q1786.22 1485.51 1783.82 1484.77 L1783.82 1480.07 Q1785.9 1481.2 1788.12 1481.76 Q1790.34 1482.32 1792.82 1482.32 Q1796.83 1482.32 1799.16 1480.21 Q1801.5 1478.1 1801.5 1474.49 Q1801.5 1470.88 1799.16 1468.77 Q1796.83 1466.67 1792.82 1466.67 Q1790.95 1466.67 1789.07 1467.08 Q1787.22 1467.5 1785.27 1468.38 L1785.27 1451.02 Z" fill="#000000" fill-rule="nonzero" fill-opacity="1" /><path clip-path="url(#clip850)" d="M2251.55 1481.64 L2259.19 1481.64 L2259.19 1455.28 L2250.88 1456.95 L2250.88 1452.69 L2259.14 1451.02 L2263.82 1451.02 L2263.82 1481.64 L2271.46 1481.64 L2271.46 1485.58 L2251.55 1485.58 L2251.55 1481.64 Z" fill="#000000" fill-rule="nonzero" fill-opacity="1" /><path clip-path="url(#clip850)" d="M2290.9 1454.1 Q2287.29 1454.1 2285.46 1457.66 Q2283.65 1461.2 2283.65 1468.33 Q2283.65 1475.44 2285.46 1479.01 Q2287.29 1482.55 2290.9 1482.55 Q2294.53 1482.55 2296.34 1479.01 Q2298.17 1475.44 2298.17 1468.33 Q2298.17 1461.2 2296.34 1457.66 Q2294.53 1454.1 2290.9 1454.1 M2290.9 1450.39 Q2296.71 1450.39 2299.77 1455 Q2302.84 1459.58 2302.84 1468.33 Q2302.84 1477.06 2299.77 1481.67 Q2296.71 1486.25 2290.9 1486.25 Q2285.09 1486.25 2282.01 1481.67 Q2278.95 1477.06 2278.95 1468.33 Q2278.95 1459.58 2282.01 1455 Q2285.09 1450.39 2290.9 1450.39 Z" fill="#000000" fill-rule="nonzero" fill-opacity="1" /><path clip-path="url(#clip850)" d="M2321.06 1454.1 Q2317.45 1454.1 2315.62 1457.66 Q2313.82 1461.2 2313.82 1468.33 Q2313.82 1475.44 2315.62 1479.01 Q2317.45 1482.55 2321.06 1482.55 Q2324.7 1482.55 2326.5 1479.01 Q2328.33 1475.44 2328.33 1468.33 Q2328.33 1461.2 2326.5 1457.66 Q2324.7 1454.1 2321.06 1454.1 M2321.06 1450.39 Q2326.87 1450.39 2329.93 1455 Q2333.01 1459.58 2333.01 1468.33 Q2333.01 1477.06 2329.93 1481.67 Q2326.87 1486.25 2321.06 1486.25 Q2315.25 1486.25 2312.17 1481.67 Q2309.12 1477.06 2309.12 1468.33 Q2309.12 1459.58 2312.17 1455 Q2315.25 1450.39 2321.06 1450.39 Z" fill="#000000" fill-rule="nonzero" fill-opacity="1" /><path clip-path="url(#clip850)" d="M949.555 1546.53 L949.555 1568.04 L943.699 1568.04 L943.699 1546.72 Q943.699 1541.66 941.725 1539.14 Q939.752 1536.63 935.805 1536.63 Q931.063 1536.63 928.325 1539.65 Q925.588 1542.68 925.588 1547.9 L925.588 1568.04 L919.7 1568.04 L919.7 1532.4 L925.588 1532.4 L925.588 1537.93 Q927.689 1534.72 930.522 1533.13 Q933.386 1531.54 937.11 1531.54 Q943.253 1531.54 946.404 1535.36 Q949.555 1539.14 949.555 1546.53 Z" fill="#000000" fill-rule="nonzero" fill-opacity="1" /><path clip-path="url(#clip850)" d="M960.631 1553.98 L960.631 1532.4 L966.488 1532.4 L966.488 1553.75 Q966.488 1558.81 968.461 1561.36 Q970.435 1563.87 974.381 1563.87 Q979.124 1563.87 981.861 1560.85 Q984.63 1557.83 984.63 1552.61 L984.63 1532.4 L990.487 1532.4 L990.487 1568.04 L984.63 1568.04 L984.63 1562.57 Q982.498 1565.82 979.665 1567.41 Q976.864 1568.97 973.14 1568.97 Q966.997 1568.97 963.814 1565.15 Q960.631 1561.33 960.631 1553.98 M975.368 1531.54 L975.368 1531.54 Z" fill="#000000" fill-rule="nonzero" fill-opacity="1" /><path clip-path="url(#clip850)" d="M1030.3 1539.24 Q1032.5 1535.29 1035.56 1533.41 Q1038.61 1531.54 1042.75 1531.54 Q1048.32 1531.54 1051.34 1535.45 Q1054.37 1539.33 1054.37 1546.53 L1054.37 1568.04 L1048.48 1568.04 L1048.48 1546.72 Q1048.48 1541.59 1046.66 1539.11 Q1044.85 1536.63 1041.13 1536.63 Q1036.57 1536.63 1033.93 1539.65 Q1031.29 1542.68 1031.29 1547.9 L1031.29 1568.04 L1025.4 1568.04 L1025.4 1546.72 Q1025.4 1541.56 1023.59 1539.11 Q1021.77 1536.63 1017.99 1536.63 Q1013.5 1536.63 1010.86 1539.68 Q1008.22 1542.71 1008.22 1547.9 L1008.22 1568.04 L1002.33 1568.04 L1002.33 1532.4 L1008.22 1532.4 L1008.22 1537.93 Q1010.22 1534.66 1013.02 1533.1 Q1015.82 1531.54 1019.67 1531.54 Q1023.56 1531.54 1026.26 1533.51 Q1029 1535.48 1030.3 1539.24 Z" fill="#000000" fill-rule="nonzero" fill-opacity="1" /><path clip-path="url(#clip850)" d="M1091.64 1550.25 Q1091.64 1543.79 1088.96 1540.13 Q1086.32 1536.44 1081.68 1536.44 Q1077.03 1536.44 1074.35 1540.13 Q1071.71 1543.79 1071.71 1550.25 Q1071.71 1556.71 1074.35 1560.4 Q1077.03 1564.07 1081.68 1564.07 Q1086.32 1564.07 1088.96 1560.4 Q1091.64 1556.71 1091.64 1550.25 M1071.71 1537.81 Q1073.56 1534.62 1076.36 1533.1 Q1079.19 1531.54 1083.11 1531.54 Q1089.6 1531.54 1093.64 1536.69 Q1097.72 1541.85 1097.72 1550.25 Q1097.72 1558.65 1093.64 1563.81 Q1089.6 1568.97 1083.11 1568.97 Q1079.19 1568.97 1076.36 1567.44 Q1073.56 1565.88 1071.71 1562.7 L1071.71 1568.04 L1065.82 1568.04 L1065.82 1518.52 L1071.71 1518.52 L1071.71 1537.81 Z" fill="#000000" fill-rule="nonzero" fill-opacity="1" /><path clip-path="url(#clip850)" d="M1137.92 1548.76 L1137.92 1551.62 L1110.99 1551.62 Q1111.37 1557.67 1114.62 1560.85 Q1117.9 1564 1123.72 1564 Q1127.09 1564 1130.25 1563.17 Q1133.43 1562.35 1136.55 1560.69 L1136.55 1566.23 Q1133.4 1567.57 1130.09 1568.27 Q1126.78 1568.97 1123.37 1568.97 Q1114.84 1568.97 1109.84 1564 Q1104.88 1559.04 1104.88 1550.57 Q1104.88 1541.82 1109.59 1536.69 Q1114.33 1531.54 1122.35 1531.54 Q1129.55 1531.54 1133.71 1536.18 Q1137.92 1540.8 1137.92 1548.76 M1132.06 1547.04 Q1132 1542.23 1129.35 1539.37 Q1126.74 1536.5 1122.42 1536.5 Q1117.51 1536.5 1114.55 1539.27 Q1111.63 1542.04 1111.18 1547.07 L1132.06 1547.04 Z" fill="#000000" fill-rule="nonzero" fill-opacity="1" /><path clip-path="url(#clip850)" d="M1168.19 1537.87 Q1167.2 1537.3 1166.02 1537.04 Q1164.88 1536.76 1163.47 1536.76 Q1158.51 1536.76 1155.84 1540 Q1153.19 1543.22 1153.19 1549.27 L1153.19 1568.04 L1147.31 1568.04 L1147.31 1532.4 L1153.19 1532.4 L1153.19 1537.93 Q1155.04 1534.69 1158 1533.13 Q1160.96 1531.54 1165.19 1531.54 Q1165.8 1531.54 1166.53 1531.63 Q1167.26 1531.7 1168.15 1531.85 L1168.19 1537.87 Z" fill="#000000" fill-rule="nonzero" fill-opacity="1" /><path clip-path="url(#clip850)" d="M1208.86 1536.5 Q1204.15 1536.5 1201.41 1540.19 Q1198.68 1543.85 1198.68 1550.25 Q1198.68 1556.65 1201.38 1560.34 Q1204.12 1564 1208.86 1564 Q1213.54 1564 1216.28 1560.31 Q1219.02 1556.62 1219.02 1550.25 Q1219.02 1543.92 1216.28 1540.23 Q1213.54 1536.5 1208.86 1536.5 M1208.86 1531.54 Q1216.5 1531.54 1220.86 1536.5 Q1225.22 1541.47 1225.22 1550.25 Q1225.22 1559 1220.86 1564 Q1216.5 1568.97 1208.86 1568.97 Q1201.19 1568.97 1196.83 1564 Q1192.5 1559 1192.5 1550.25 Q1192.5 1541.47 1196.83 1536.5 Q1201.19 1531.54 1208.86 1531.54 Z" fill="#000000" fill-rule="nonzero" fill-opacity="1" /><path clip-path="url(#clip850)" d="M1252.98 1518.52 L1252.98 1523.39 L1247.37 1523.39 Q1244.22 1523.39 1242.98 1524.66 Q1241.77 1525.93 1241.77 1529.24 L1241.77 1532.4 L1251.42 1532.4 L1251.42 1536.95 L1241.77 1536.95 L1241.77 1568.04 L1235.88 1568.04 L1235.88 1536.95 L1230.28 1536.95 L1230.28 1532.4 L1235.88 1532.4 L1235.88 1529.91 Q1235.88 1523.96 1238.65 1521.26 Q1241.42 1518.52 1247.44 1518.52 L1252.98 1518.52 Z" fill="#000000" fill-rule="nonzero" fill-opacity="1" /><path clip-path="url(#clip850)" d="M1302.06 1537.81 L1302.06 1518.52 L1307.91 1518.52 L1307.91 1568.04 L1302.06 1568.04 L1302.06 1562.7 Q1300.21 1565.88 1297.38 1567.44 Q1294.58 1568.97 1290.63 1568.97 Q1284.17 1568.97 1280.09 1563.81 Q1276.05 1558.65 1276.05 1550.25 Q1276.05 1541.85 1280.09 1536.69 Q1284.17 1531.54 1290.63 1531.54 Q1294.58 1531.54 1297.38 1533.1 Q1300.21 1534.62 1302.06 1537.81 M1282.1 1550.25 Q1282.1 1556.71 1284.74 1560.4 Q1287.41 1564.07 1292.06 1564.07 Q1296.71 1564.07 1299.38 1560.4 Q1302.06 1556.71 1302.06 1550.25 Q1302.06 1543.79 1299.38 1540.13 Q1296.71 1536.44 1292.06 1536.44 Q1287.41 1536.44 1284.74 1540.13 Q1282.1 1543.79 1282.1 1550.25 Z" fill="#000000" fill-rule="nonzero" fill-opacity="1" /><path clip-path="url(#clip850)" d="M1336.18 1550.12 Q1329.08 1550.12 1326.34 1551.75 Q1323.6 1553.37 1323.6 1557.29 Q1323.6 1560.4 1325.64 1562.25 Q1327.71 1564.07 1331.24 1564.07 Q1336.11 1564.07 1339.04 1560.63 Q1342 1557.16 1342 1551.43 L1342 1550.12 L1336.18 1550.12 M1347.86 1547.71 L1347.86 1568.04 L1342 1568.04 L1342 1562.63 Q1340 1565.88 1337 1567.44 Q1334.01 1568.97 1329.68 1568.97 Q1324.21 1568.97 1320.96 1565.91 Q1317.75 1562.82 1317.75 1557.67 Q1317.75 1551.65 1321.76 1548.6 Q1325.8 1545.54 1333.79 1545.54 L1342 1545.54 L1342 1544.97 Q1342 1540.93 1339.33 1538.73 Q1336.69 1536.5 1331.88 1536.5 Q1328.82 1536.5 1325.93 1537.23 Q1323.03 1537.97 1320.36 1539.43 L1320.36 1534.02 Q1323.57 1532.78 1326.6 1532.17 Q1329.62 1531.54 1332.48 1531.54 Q1340.22 1531.54 1344.04 1535.55 Q1347.86 1539.56 1347.86 1547.71 Z" fill="#000000" fill-rule="nonzero" fill-opacity="1" /><path clip-path="url(#clip850)" d="M1365.71 1522.27 L1365.71 1532.4 L1377.78 1532.4 L1377.78 1536.95 L1365.71 1536.95 L1365.71 1556.3 Q1365.71 1560.66 1366.89 1561.9 Q1368.1 1563.14 1371.76 1563.14 L1377.78 1563.14 L1377.78 1568.04 L1371.76 1568.04 Q1364.98 1568.04 1362.4 1565.53 Q1359.82 1562.98 1359.82 1556.3 L1359.82 1536.95 L1355.53 1536.95 L1355.53 1532.4 L1359.82 1532.4 L1359.82 1522.27 L1365.71 1522.27 Z" fill="#000000" fill-rule="nonzero" fill-opacity="1" /><path clip-path="url(#clip850)" d="M1401.68 1550.12 Q1394.58 1550.12 1391.84 1551.75 Q1389.11 1553.37 1389.11 1557.29 Q1389.11 1560.4 1391.14 1562.25 Q1393.21 1564.07 1396.75 1564.07 Q1401.62 1564.07 1404.54 1560.63 Q1407.5 1557.16 1407.5 1551.43 L1407.5 1550.12 L1401.68 1550.12 M1413.36 1547.71 L1413.36 1568.04 L1407.5 1568.04 L1407.5 1562.63 Q1405.5 1565.88 1402.51 1567.44 Q1399.52 1568.97 1395.19 1568.97 Q1389.71 1568.97 1386.47 1565.91 Q1383.25 1562.82 1383.25 1557.67 Q1383.25 1551.65 1387.26 1548.6 Q1391.3 1545.54 1399.29 1545.54 L1407.5 1545.54 L1407.5 1544.97 Q1407.5 1540.93 1404.83 1538.73 Q1402.19 1536.5 1397.38 1536.5 Q1394.33 1536.5 1391.43 1537.23 Q1388.53 1537.97 1385.86 1539.43 L1385.86 1534.02 Q1389.08 1532.78 1392.1 1532.17 Q1395.12 1531.54 1397.99 1531.54 Q1405.72 1531.54 1409.54 1535.55 Q1413.36 1539.56 1413.36 1547.71 Z" fill="#000000" fill-rule="nonzero" fill-opacity="1" /><path clip-path="url(#clip850)" d="M1451.81 1562.7 L1451.81 1581.6 L1445.92 1581.6 L1445.92 1532.4 L1451.81 1532.4 L1451.81 1537.81 Q1453.66 1534.62 1456.46 1533.1 Q1459.29 1531.54 1463.2 1531.54 Q1469.7 1531.54 1473.74 1536.69 Q1477.81 1541.85 1477.81 1550.25 Q1477.81 1558.65 1473.74 1563.81 Q1469.7 1568.97 1463.2 1568.97 Q1459.29 1568.97 1456.46 1567.44 Q1453.66 1565.88 1451.81 1562.7 M1471.73 1550.25 Q1471.73 1543.79 1469.06 1540.13 Q1466.42 1536.44 1461.77 1536.44 Q1457.12 1536.44 1454.45 1540.13 Q1451.81 1543.79 1451.81 1550.25 Q1451.81 1556.71 1454.45 1560.4 Q1457.12 1564.07 1461.77 1564.07 Q1466.42 1564.07 1469.06 1560.4 Q1471.73 1556.71 1471.73 1550.25 Z" fill="#000000" fill-rule="nonzero" fill-opacity="1" /><path clip-path="url(#clip850)" d="M1501.33 1536.5 Q1496.62 1536.5 1493.89 1540.19 Q1491.15 1543.85 1491.15 1550.25 Q1491.15 1556.65 1493.85 1560.34 Q1496.59 1564 1501.33 1564 Q1506.01 1564 1508.75 1560.31 Q1511.49 1556.62 1511.49 1550.25 Q1511.49 1543.92 1508.75 1540.23 Q1506.01 1536.5 1501.33 1536.5 M1501.33 1531.54 Q1508.97 1531.54 1513.33 1536.5 Q1517.69 1541.47 1517.69 1550.25 Q1517.69 1559 1513.33 1564 Q1508.97 1568.97 1501.33 1568.97 Q1493.66 1568.97 1489.3 1564 Q1484.97 1559 1484.97 1550.25 Q1484.97 1541.47 1489.3 1536.5 Q1493.66 1531.54 1501.33 1531.54 Z" fill="#000000" fill-rule="nonzero" fill-opacity="1" /><path clip-path="url(#clip850)" d="M1527.4 1532.4 L1533.26 1532.4 L1533.26 1568.04 L1527.4 1568.04 L1527.4 1532.4 M1527.4 1518.52 L1533.26 1518.52 L1533.26 1525.93 L1527.4 1525.93 L1527.4 1518.52 Z" fill="#000000" fill-rule="nonzero" fill-opacity="1" /><path clip-path="url(#clip850)" d="M1575.14 1546.53 L1575.14 1568.04 L1569.29 1568.04 L1569.29 1546.72 Q1569.29 1541.66 1567.32 1539.14 Q1565.34 1536.63 1561.39 1536.63 Q1556.65 1536.63 1553.92 1539.65 Q1551.18 1542.68 1551.18 1547.9 L1551.18 1568.04 L1545.29 1568.04 L1545.29 1532.4 L1551.18 1532.4 L1551.18 1537.93 Q1553.28 1534.72 1556.11 1533.13 Q1558.98 1531.54 1562.7 1531.54 Q1568.84 1531.54 1571.99 1535.36 Q1575.14 1539.14 1575.14 1546.53 Z" fill="#000000" fill-rule="nonzero" fill-opacity="1" /><path clip-path="url(#clip850)" d="M1592.62 1522.27 L1592.62 1532.4 L1604.68 1532.4 L1604.68 1536.95 L1592.62 1536.95 L1592.62 1556.3 Q1592.62 1560.66 1593.8 1561.9 Q1595.01 1563.14 1598.67 1563.14 L1604.68 1563.14 L1604.68 1568.04 L1598.67 1568.04 Q1591.89 1568.04 1589.31 1565.53 Q1586.73 1562.98 1586.73 1556.3 L1586.73 1536.95 L1582.43 1536.95 L1582.43 1532.4 L1586.73 1532.4 L1586.73 1522.27 L1592.62 1522.27 Z" fill="#000000" fill-rule="nonzero" fill-opacity="1" /><path clip-path="url(#clip850)" d="M1635.11 1533.45 L1635.11 1538.98 Q1632.63 1537.71 1629.95 1537.07 Q1627.28 1536.44 1624.42 1536.44 Q1620.05 1536.44 1617.86 1537.77 Q1615.69 1539.11 1615.69 1541.79 Q1615.69 1543.82 1617.25 1545 Q1618.81 1546.15 1623.52 1547.2 L1625.53 1547.64 Q1631.77 1548.98 1634.38 1551.43 Q1637.02 1553.85 1637.02 1558.21 Q1637.02 1563.17 1633.07 1566.07 Q1629.16 1568.97 1622.28 1568.97 Q1619.42 1568.97 1616.3 1568.39 Q1613.21 1567.85 1609.77 1566.74 L1609.77 1560.69 Q1613.02 1562.38 1616.17 1563.24 Q1619.32 1564.07 1622.41 1564.07 Q1626.55 1564.07 1628.78 1562.66 Q1631 1561.23 1631 1558.65 Q1631 1556.27 1629.38 1554.99 Q1627.79 1553.72 1622.35 1552.54 L1620.31 1552.07 Q1614.87 1550.92 1612.45 1548.56 Q1610.03 1546.18 1610.03 1542.04 Q1610.03 1537.01 1613.59 1534.27 Q1617.16 1531.54 1623.72 1531.54 Q1626.96 1531.54 1629.83 1532.01 Q1632.69 1532.49 1635.11 1533.45 Z" fill="#000000" fill-rule="nonzero" fill-opacity="1" /><polyline clip-path="url(#clip850)" style="stroke:#000000; stroke-linecap:round; stroke-linejoin:round; stroke-width:4; stroke-opacity:1; fill:none" points="203.964,1423.18 203.964,47.2441 "/>
<polyline clip-path="url(#clip850)" style="stroke:#000000; stroke-linecap:round; stroke-linejoin:round; stroke-width:4; stroke-opacity:1; fill:none" points="203.964,1386.99 222.861,1386.99 "/>
<polyline clip-path="url(#clip850)" style="stroke:#000000; stroke-linecap:round; stroke-linejoin:round; stroke-width:4; stroke-opacity:1; fill:none" points="203.964,1075.93 222.861,1075.93 "/>
<polyline clip-path="url(#clip850)" style="stroke:#000000; stroke-linecap:round; stroke-linejoin:round; stroke-width:4; stroke-opacity:1; fill:none" points="203.964,764.869 222.861,764.869 "/>
<polyline clip-path="url(#clip850)" style="stroke:#000000; stroke-linecap:round; stroke-linejoin:round; stroke-width:4; stroke-opacity:1; fill:none" points="203.964,453.81 222.861,453.81 "/>
<polyline clip-path="url(#clip850)" style="stroke:#000000; stroke-linecap:round; stroke-linejoin:round; stroke-width:4; stroke-opacity:1; fill:none" points="203.964,142.75 222.861,142.75 "/>
<path clip-path="url(#clip850)" d="M156.019 1372.79 Q152.408 1372.79 150.579 1376.35 Q148.774 1379.89 148.774 1387.02 Q148.774 1394.13 150.579 1397.69 Q152.408 1401.24 156.019 1401.24 Q159.653 1401.24 161.459 1397.69 Q163.288 1394.13 163.288 1387.02 Q163.288 1379.89 161.459 1376.35 Q159.653 1372.79 156.019 1372.79 M156.019 1369.08 Q161.829 1369.08 164.885 1373.69 Q167.964 1378.27 167.964 1387.02 Q167.964 1395.75 164.885 1400.36 Q161.829 1404.94 156.019 1404.94 Q150.209 1404.94 147.13 1400.36 Q144.075 1395.75 144.075 1387.02 Q144.075 1378.27 147.13 1373.69 Q150.209 1369.08 156.019 1369.08 Z" fill="#000000" fill-rule="nonzero" fill-opacity="1" /><path clip-path="url(#clip850)" d="M147.061 1058.65 L165.417 1058.65 L165.417 1062.58 L151.343 1062.58 L151.343 1071.06 Q152.362 1070.71 153.38 1070.55 Q154.399 1070.36 155.417 1070.36 Q161.204 1070.36 164.584 1073.53 Q167.964 1076.7 167.964 1082.12 Q167.964 1087.7 164.491 1090.8 Q161.019 1093.88 154.7 1093.88 Q152.524 1093.88 150.255 1093.51 Q148.01 1093.14 145.603 1092.4 L145.603 1087.7 Q147.686 1088.83 149.908 1089.39 Q152.13 1089.94 154.607 1089.94 Q158.612 1089.94 160.95 1087.84 Q163.288 1085.73 163.288 1082.12 Q163.288 1078.51 160.95 1076.4 Q158.612 1074.3 154.607 1074.3 Q152.732 1074.3 150.857 1074.71 Q149.005 1075.13 147.061 1076.01 L147.061 1058.65 Z" fill="#000000" fill-rule="nonzero" fill-opacity="1" /><path clip-path="url(#clip850)" d="M116.668 778.214 L124.306 778.214 L124.306 751.848 L115.996 753.515 L115.996 749.256 L124.26 747.589 L128.936 747.589 L128.936 778.214 L136.575 778.214 L136.575 782.149 L116.668 782.149 L116.668 778.214 Z" fill="#000000" fill-rule="nonzero" fill-opacity="1" /><path clip-path="url(#clip850)" d="M156.019 750.668 Q152.408 750.668 150.579 754.233 Q148.774 757.774 148.774 764.904 Q148.774 772.01 150.579 775.575 Q152.408 779.117 156.019 779.117 Q159.653 779.117 161.459 775.575 Q163.288 772.01 163.288 764.904 Q163.288 757.774 161.459 754.233 Q159.653 750.668 156.019 750.668 M156.019 746.964 Q161.829 746.964 164.885 751.571 Q167.964 756.154 167.964 764.904 Q167.964 773.631 164.885 778.237 Q161.829 782.82 156.019 782.82 Q150.209 782.82 147.13 778.237 Q144.075 773.631 144.075 764.904 Q144.075 756.154 147.13 751.571 Q150.209 746.964 156.019 746.964 Z" fill="#000000" fill-rule="nonzero" fill-opacity="1" /><path clip-path="url(#clip850)" d="M117.663 467.155 L125.302 467.155 L125.302 440.789 L116.992 442.456 L116.992 438.196 L125.255 436.53 L129.931 436.53 L129.931 467.155 L137.57 467.155 L137.57 471.09 L117.663 471.09 L117.663 467.155 Z" fill="#000000" fill-rule="nonzero" fill-opacity="1" /><path clip-path="url(#clip850)" d="M147.061 436.53 L165.417 436.53 L165.417 440.465 L151.343 440.465 L151.343 448.937 Q152.362 448.59 153.38 448.428 Q154.399 448.243 155.417 448.243 Q161.204 448.243 164.584 451.414 Q167.964 454.585 167.964 460.002 Q167.964 465.58 164.491 468.682 Q161.019 471.761 154.7 471.761 Q152.524 471.761 150.255 471.391 Q148.01 471.02 145.603 470.279 L145.603 465.58 Q147.686 466.715 149.908 467.27 Q152.13 467.826 154.607 467.826 Q158.612 467.826 160.95 465.719 Q163.288 463.613 163.288 460.002 Q163.288 456.391 160.95 454.284 Q158.612 452.178 154.607 452.178 Q152.732 452.178 150.857 452.594 Q149.005 453.011 147.061 453.891 L147.061 436.53 Z" fill="#000000" fill-rule="nonzero" fill-opacity="1" /><path clip-path="url(#clip850)" d="M119.885 156.095 L136.204 156.095 L136.204 160.03 L114.26 160.03 L114.26 156.095 Q116.922 153.34 121.505 148.711 Q126.112 144.058 127.292 142.716 Q129.538 140.192 130.417 138.456 Q131.32 136.697 131.32 135.007 Q131.32 132.253 129.376 130.517 Q127.455 128.78 124.353 128.78 Q122.154 128.78 119.7 129.544 Q117.269 130.308 114.492 131.859 L114.492 127.137 Q117.316 126.003 119.769 125.424 Q122.223 124.845 124.26 124.845 Q129.63 124.845 132.825 127.53 Q136.019 130.216 136.019 134.706 Q136.019 136.836 135.209 138.757 Q134.422 140.655 132.316 143.248 Q131.737 143.919 128.635 147.137 Q125.533 150.331 119.885 156.095 Z" fill="#000000" fill-rule="nonzero" fill-opacity="1" /><path clip-path="url(#clip850)" d="M156.019 128.549 Q152.408 128.549 150.579 132.114 Q148.774 135.655 148.774 142.785 Q148.774 149.891 150.579 153.456 Q152.408 156.998 156.019 156.998 Q159.653 156.998 161.459 153.456 Q163.288 149.891 163.288 142.785 Q163.288 135.655 161.459 132.114 Q159.653 128.549 156.019 128.549 M156.019 124.845 Q161.829 124.845 164.885 129.452 Q167.964 134.035 167.964 142.785 Q167.964 151.512 164.885 156.118 Q161.829 160.702 156.019 160.702 Q150.209 160.702 147.13 156.118 Q144.075 151.512 144.075 142.785 Q144.075 134.035 147.13 129.452 Q150.209 124.845 156.019 124.845 Z" fill="#000000" fill-rule="nonzero" fill-opacity="1" /><path clip-path="url(#clip850)" d="M33.8307 1087.35 Q33.2578 1088.33 33.0032 1089.51 Q32.7167 1090.66 32.7167 1092.06 Q32.7167 1097.02 35.9632 1099.7 Q39.1779 1102.34 45.2253 1102.34 L64.0042 1102.34 L64.0042 1108.23 L28.3562 1108.23 L28.3562 1102.34 L33.8944 1102.34 Q30.6479 1100.49 29.0883 1097.53 Q27.4968 1094.57 27.4968 1090.34 Q27.4968 1089.73 27.5923 1089 Q27.656 1088.27 27.8151 1087.38 L33.8307 1087.35 Z" fill="#000000" fill-rule="nonzero" fill-opacity="1" /><path clip-path="url(#clip850)" d="M49.9359 1081.81 L28.3562 1081.81 L28.3562 1075.95 L49.7131 1075.95 Q54.7739 1075.95 57.3202 1073.98 Q59.8346 1072.01 59.8346 1068.06 Q59.8346 1063.32 56.8109 1060.58 Q53.7872 1057.81 48.5673 1057.81 L28.3562 1057.81 L28.3562 1051.95 L64.0042 1051.95 L64.0042 1057.81 L58.5296 1057.81 Q61.7762 1059.94 63.3676 1062.78 Q64.9272 1065.58 64.9272 1069.3 Q64.9272 1075.44 61.1078 1078.63 Q57.2883 1081.81 49.9359 1081.81 M27.4968 1067.07 L27.4968 1067.07 Z" fill="#000000" fill-rule="nonzero" fill-opacity="1" /><path clip-path="url(#clip850)" d="M42.4881 1010.26 L64.0042 1010.26 L64.0042 1016.11 L42.679 1016.11 Q37.6183 1016.11 35.1038 1018.09 Q32.5894 1020.06 32.5894 1024.01 Q32.5894 1028.75 35.6131 1031.49 Q38.6368 1034.23 43.8567 1034.23 L64.0042 1034.23 L64.0042 1040.11 L28.3562 1040.11 L28.3562 1034.23 L33.8944 1034.23 Q30.6797 1032.12 29.0883 1029.29 Q27.4968 1026.43 27.4968 1022.7 Q27.4968 1016.56 31.3163 1013.41 Q35.1038 1010.26 42.4881 1010.26 Z" fill="#000000" fill-rule="nonzero" fill-opacity="1" /><path clip-path="url(#clip850)" d="M42.4881 968.945 L64.0042 968.945 L64.0042 974.801 L42.679 974.801 Q37.6183 974.801 35.1038 976.775 Q32.5894 978.748 32.5894 982.695 Q32.5894 987.437 35.6131 990.174 Q38.6368 992.912 43.8567 992.912 L64.0042 992.912 L64.0042 998.8 L28.3562 998.8 L28.3562 992.912 L33.8944 992.912 Q30.6797 990.811 29.0883 987.978 Q27.4968 985.114 27.4968 981.39 Q27.4968 975.247 31.3163 972.096 Q35.1038 968.945 42.4881 968.945 Z" fill="#000000" fill-rule="nonzero" fill-opacity="1" /><path clip-path="url(#clip850)" d="M28.3562 957.264 L28.3562 951.407 L64.0042 951.407 L64.0042 957.264 L28.3562 957.264 M14.479 957.264 L14.479 951.407 L21.895 951.407 L21.895 957.264 L14.479 957.264 Z" fill="#000000" fill-rule="nonzero" fill-opacity="1" /><path clip-path="url(#clip850)" d="M42.4881 909.521 L64.0042 909.521 L64.0042 915.377 L42.679 915.377 Q37.6183 915.377 35.1038 917.351 Q32.5894 919.324 32.5894 923.271 Q32.5894 928.013 35.6131 930.751 Q38.6368 933.488 43.8567 933.488 L64.0042 933.488 L64.0042 939.376 L28.3562 939.376 L28.3562 933.488 L33.8944 933.488 Q30.6797 931.387 29.0883 928.554 Q27.4968 925.69 27.4968 921.966 Q27.4968 915.823 31.3163 912.672 Q35.1038 909.521 42.4881 909.521 Z" fill="#000000" fill-rule="nonzero" fill-opacity="1" /><path clip-path="url(#clip850)" d="M45.7664 874.382 Q39.4007 874.382 35.8996 877.024 Q32.3984 879.634 32.3984 884.376 Q32.3984 889.087 35.8996 891.729 Q39.4007 894.339 45.7664 894.339 Q52.1003 894.339 55.6014 891.729 Q59.1026 889.087 59.1026 884.376 Q59.1026 879.634 55.6014 877.024 Q52.1003 874.382 45.7664 874.382 M59.58 868.526 Q68.683 868.526 73.1071 872.568 Q77.5631 876.61 77.5631 884.949 Q77.5631 888.037 77.0857 890.774 Q76.6401 893.511 75.6852 896.089 L69.9879 896.089 Q71.3884 893.511 72.0568 890.997 Q72.7252 888.482 72.7252 885.872 Q72.7252 880.111 69.7015 877.247 Q66.7096 874.382 60.6303 874.382 L57.7339 874.382 Q60.885 876.196 62.4446 879.029 Q64.0042 881.862 64.0042 885.809 Q64.0042 892.365 59.0071 896.376 Q54.01 900.386 45.7664 900.386 Q37.491 900.386 32.4939 896.376 Q27.4968 892.365 27.4968 885.809 Q27.4968 881.862 29.0564 879.029 Q30.616 876.196 33.7671 874.382 L28.3562 874.382 L28.3562 868.526 L59.58 868.526 Z" fill="#000000" fill-rule="nonzero" fill-opacity="1" /><path clip-path="url(#clip850)" d="M18.2347 829.95 L28.3562 829.95 L28.3562 817.887 L32.9077 817.887 L32.9077 829.95 L52.2594 829.95 Q56.6199 829.95 57.8613 828.772 Q59.1026 827.562 59.1026 823.902 L59.1026 817.887 L64.0042 817.887 L64.0042 823.902 Q64.0042 830.682 61.4897 833.26 Q58.9434 835.838 52.2594 835.838 L32.9077 835.838 L32.9077 840.135 L28.3562 840.135 L28.3562 835.838 L18.2347 835.838 L18.2347 829.95 Z" fill="#000000" fill-rule="nonzero" fill-opacity="1" /><path clip-path="url(#clip850)" d="M28.3562 810.184 L28.3562 804.328 L64.0042 804.328 L64.0042 810.184 L28.3562 810.184 M14.479 810.184 L14.479 804.328 L21.895 804.328 L21.895 810.184 L14.479 810.184 Z" fill="#000000" fill-rule="nonzero" fill-opacity="1" /><path clip-path="url(#clip850)" d="M35.1993 764.319 Q31.2526 762.123 29.3747 759.067 Q27.4968 756.012 27.4968 751.874 Q27.4968 746.304 31.4117 743.281 Q35.2948 740.257 42.4881 740.257 L64.0042 740.257 L64.0042 746.145 L42.679 746.145 Q37.5546 746.145 35.072 747.959 Q32.5894 749.774 32.5894 753.497 Q32.5894 758.049 35.6131 760.691 Q38.6368 763.332 43.8567 763.332 L64.0042 763.332 L64.0042 769.221 L42.679 769.221 Q37.5228 769.221 35.072 771.035 Q32.5894 772.849 32.5894 776.637 Q32.5894 781.125 35.6449 783.766 Q38.6686 786.408 43.8567 786.408 L64.0042 786.408 L64.0042 792.296 L28.3562 792.296 L28.3562 786.408 L33.8944 786.408 Q30.616 784.403 29.0564 781.602 Q27.4968 778.801 27.4968 774.95 Q27.4968 771.067 29.4702 768.361 Q31.4436 765.624 35.1993 764.319 Z" fill="#000000" fill-rule="nonzero" fill-opacity="1" /><path clip-path="url(#clip850)" d="M44.7161 698.084 L47.5806 698.084 L47.5806 725.011 Q53.6281 724.629 56.8109 721.382 Q59.9619 718.104 59.9619 712.28 Q59.9619 708.906 59.1344 705.755 Q58.3069 702.572 56.6518 699.453 L62.1899 699.453 Q63.5267 702.604 64.227 705.914 Q64.9272 709.224 64.9272 712.63 Q64.9272 721.16 59.9619 726.157 Q54.9967 731.122 46.5303 731.122 Q37.7774 731.122 32.6531 726.411 Q27.4968 721.669 27.4968 713.648 Q27.4968 706.455 32.1438 702.285 Q36.7589 698.084 44.7161 698.084 M42.9973 703.94 Q38.1912 704.004 35.3266 706.646 Q32.4621 709.256 32.4621 713.584 Q32.4621 718.486 35.2312 721.446 Q38.0002 724.374 43.0292 724.82 L42.9973 703.94 Z" fill="#000000" fill-rule="nonzero" fill-opacity="1" /><path clip-path="url(#clip850)" d="M14.5426 653.683 Q21.8632 657.948 29.0246 660.017 Q36.186 662.086 43.5384 662.086 Q50.8908 662.086 58.1159 660.017 Q65.3091 657.916 72.5979 653.683 L72.5979 658.776 Q65.1182 663.55 57.8931 665.937 Q50.668 668.292 43.5384 668.292 Q36.4406 668.292 29.2474 665.937 Q22.0542 663.582 14.5426 658.776 L14.5426 653.683 Z" fill="#000000" fill-rule="nonzero" fill-opacity="1" /><path clip-path="url(#clip850)" d="M29.4065 619.595 L34.9447 619.595 Q33.6716 622.077 33.035 624.751 Q32.3984 627.425 32.3984 630.289 Q32.3984 634.65 33.7352 636.846 Q35.072 639.01 37.7456 639.01 Q39.7826 639.01 40.9603 637.451 Q42.1061 635.891 43.1565 631.18 L43.6021 629.175 Q44.9389 622.937 47.3897 620.327 Q49.8086 617.685 54.1691 617.685 Q59.1344 617.685 62.0308 621.632 Q64.9272 625.547 64.9272 632.422 Q64.9272 635.286 64.3543 638.405 Q63.8132 641.493 62.6992 644.93 L56.6518 644.93 Q58.3387 641.684 59.198 638.533 Q60.0256 635.382 60.0256 632.294 Q60.0256 628.157 58.6251 625.929 Q57.1929 623.701 54.6147 623.701 Q52.2276 623.701 50.9545 625.324 Q49.6813 626.915 48.5037 632.358 L48.0262 634.395 Q46.8804 639.838 44.5251 642.257 Q42.138 644.676 38.0002 644.676 Q32.9713 644.676 30.2341 641.111 Q27.4968 637.546 27.4968 630.989 Q27.4968 627.743 27.9743 624.878 Q28.4517 622.014 29.4065 619.595 Z" fill="#000000" fill-rule="nonzero" fill-opacity="1" /><path clip-path="url(#clip850)" d="M44.7161 577.868 L47.5806 577.868 L47.5806 604.795 Q53.6281 604.413 56.8109 601.166 Q59.9619 597.888 59.9619 592.063 Q59.9619 588.689 59.1344 585.538 Q58.3069 582.355 56.6518 579.236 L62.1899 579.236 Q63.5267 582.387 64.227 585.697 Q64.9272 589.008 64.9272 592.413 Q64.9272 600.943 59.9619 605.94 Q54.9967 610.906 46.5303 610.906 Q37.7774 610.906 32.6531 606.195 Q27.4968 601.453 27.4968 593.432 Q27.4968 586.239 32.1438 582.069 Q36.7589 577.868 44.7161 577.868 M42.9973 583.724 Q38.1912 583.788 35.3266 586.429 Q32.4621 589.039 32.4621 593.368 Q32.4621 598.27 35.2312 601.23 Q38.0002 604.158 43.0292 604.604 L42.9973 583.724 Z" fill="#000000" fill-rule="nonzero" fill-opacity="1" /><path clip-path="url(#clip850)" d="M29.7248 542.602 L35.1993 542.602 Q33.8307 545.084 33.1623 547.599 Q32.4621 550.081 32.4621 552.628 Q32.4621 558.325 36.0905 561.476 Q39.6872 564.627 46.212 564.627 Q52.7369 564.627 56.3653 561.476 Q59.9619 558.325 59.9619 552.628 Q59.9619 550.081 59.2935 547.599 Q58.5933 545.084 57.2247 542.602 L62.6355 542.602 Q63.7814 545.052 64.3543 547.694 Q64.9272 550.304 64.9272 553.264 Q64.9272 561.317 59.8664 566.059 Q54.8057 570.802 46.212 570.802 Q37.491 570.802 32.4939 566.027 Q27.4968 561.221 27.4968 552.882 Q27.4968 550.177 28.0697 547.599 Q28.6108 545.021 29.7248 542.602 Z" fill="#000000" fill-rule="nonzero" fill-opacity="1" /><path clip-path="url(#clip850)" d="M32.4621 518.603 Q32.4621 523.314 36.1542 526.051 Q39.8145 528.788 46.212 528.788 Q52.6095 528.788 56.3017 526.083 Q59.9619 523.345 59.9619 518.603 Q59.9619 513.924 56.2698 511.187 Q52.5777 508.45 46.212 508.45 Q39.8781 508.45 36.186 511.187 Q32.4621 513.924 32.4621 518.603 M27.4968 518.603 Q27.4968 510.964 32.4621 506.604 Q37.4273 502.243 46.212 502.243 Q54.9649 502.243 59.9619 506.604 Q64.9272 510.964 64.9272 518.603 Q64.9272 526.274 59.9619 530.634 Q54.9649 534.963 46.212 534.963 Q37.4273 534.963 32.4621 530.634 Q27.4968 526.274 27.4968 518.603 Z" fill="#000000" fill-rule="nonzero" fill-opacity="1" /><path clip-path="url(#clip850)" d="M42.4881 462.903 L64.0042 462.903 L64.0042 468.759 L42.679 468.759 Q37.6183 468.759 35.1038 470.733 Q32.5894 472.706 32.5894 476.653 Q32.5894 481.395 35.6131 484.133 Q38.6368 486.87 43.8567 486.87 L64.0042 486.87 L64.0042 492.758 L28.3562 492.758 L28.3562 486.87 L33.8944 486.87 Q30.6797 484.769 29.0883 481.936 Q27.4968 479.072 27.4968 475.348 Q27.4968 469.205 31.3163 466.054 Q35.1038 462.903 42.4881 462.903 Z" fill="#000000" fill-rule="nonzero" fill-opacity="1" /><path clip-path="url(#clip850)" d="M33.7671 427.764 L14.479 427.764 L14.479 421.908 L64.0042 421.908 L64.0042 427.764 L58.657 427.764 Q61.8398 429.61 63.3994 432.443 Q64.9272 435.244 64.9272 439.191 Q64.9272 445.652 59.771 449.726 Q54.6147 453.768 46.212 453.768 Q37.8093 453.768 32.6531 449.726 Q27.4968 445.652 27.4968 439.191 Q27.4968 435.244 29.0564 432.443 Q30.5842 429.61 33.7671 427.764 M46.212 447.721 Q52.6732 447.721 56.3653 445.079 Q60.0256 442.405 60.0256 437.758 Q60.0256 433.111 56.3653 430.438 Q52.6732 427.764 46.212 427.764 Q39.7508 427.764 36.0905 430.438 Q32.3984 433.111 32.3984 437.758 Q32.3984 442.405 36.0905 445.079 Q39.7508 447.721 46.212 447.721 Z" fill="#000000" fill-rule="nonzero" fill-opacity="1" /><path clip-path="url(#clip850)" d="M29.4065 387.119 L34.9447 387.119 Q33.6716 389.602 33.035 392.275 Q32.3984 394.949 32.3984 397.814 Q32.3984 402.174 33.7352 404.37 Q35.072 406.535 37.7456 406.535 Q39.7826 406.535 40.9603 404.975 Q42.1061 403.415 43.1565 398.705 L43.6021 396.7 Q44.9389 390.461 47.3897 387.851 Q49.8086 385.21 54.1691 385.21 Q59.1344 385.21 62.0308 389.156 Q64.9272 393.071 64.9272 399.946 Q64.9272 402.811 64.3543 405.93 Q63.8132 409.017 62.6992 412.455 L56.6518 412.455 Q58.3387 409.208 59.198 406.057 Q60.0256 402.906 60.0256 399.819 Q60.0256 395.681 58.6251 393.453 Q57.1929 391.225 54.6147 391.225 Q52.2276 391.225 50.9545 392.848 Q49.6813 394.44 48.5037 399.882 L48.0262 401.919 Q46.8804 407.362 44.5251 409.781 Q42.138 412.2 38.0002 412.2 Q32.9713 412.2 30.2341 408.635 Q27.4968 405.071 27.4968 398.514 Q27.4968 395.267 27.9743 392.403 Q28.4517 389.538 29.4065 387.119 Z" fill="#000000" fill-rule="nonzero" fill-opacity="1" /><path clip-path="url(#clip850)" d="M14.5426 376.807 L14.5426 371.714 Q22.0542 366.94 29.2474 364.585 Q36.4406 362.197 43.5384 362.197 Q50.668 362.197 57.8931 364.585 Q65.1182 366.94 72.5979 371.714 L72.5979 376.807 Q65.3091 372.574 58.1159 370.505 Q50.8908 368.404 43.5384 368.404 Q36.186 368.404 29.0246 370.505 Q21.8632 372.574 14.5426 376.807 Z" fill="#000000" fill-rule="nonzero" fill-opacity="1" /><polyline clip-path="url(#clip852)" style="stroke:#009af9; stroke-linecap:round; stroke-linejoin:round; stroke-width:4; stroke-opacity:1; fill:none" points="264.778,1348.08 305.731,1384.24 387.637,1365.27 449.066,1371.19 858.594,1240.03 1677.65,738.323 2291.94,86.1857 "/>
</svg>
