<?xml version="1.0" encoding="utf-8"?>
<svg xmlns="http://www.w3.org/2000/svg" xmlns:xlink="http://www.w3.org/1999/xlink" width="600" height="400" viewBox="0 0 2400 1600">
<defs>
  <clipPath id="clip970">
    <rect x="0" y="0" width="2400" height="1600"/>
  </clipPath>
</defs>
<path clip-path="url(#clip970)" d="M0 1600 L2400 1600 L2400 0 L0 0  Z" fill="#ffffff" fill-rule="evenodd" fill-opacity="1"/>
<defs>
  <clipPath id="clip971">
    <rect x="480" y="0" width="1681" height="1600"/>
  </clipPath>
</defs>
<path clip-path="url(#clip970)" d="M203.964 1423.18 L2352.76 1423.18 L2352.76 47.2441 L203.964 47.2441  Z" fill="#ffffff" fill-rule="evenodd" fill-opacity="1"/>
<defs>
  <clipPath id="clip972">
    <rect x="203" y="47" width="2150" height="1377"/>
  </clipPath>
</defs>
<polyline clip-path="url(#clip972)" style="stroke:#000000; stroke-linecap:round; stroke-linejoin:round; stroke-width:2; stroke-opacity:0.1; fill:none" points="244.302,1423.18 244.302,47.2441 "/>
<polyline clip-path="url(#clip972)" style="stroke:#000000; stroke-linecap:round; stroke-linejoin:round; stroke-width:2; stroke-opacity:0.1; fill:none" points="756.212,1423.18 756.212,47.2441 "/>
<polyline clip-path="url(#clip972)" style="stroke:#000000; stroke-linecap:round; stroke-linejoin:round; stroke-width:2; stroke-opacity:0.1; fill:none" points="1268.12,1423.18 1268.12,47.2441 "/>
<polyline clip-path="url(#clip972)" style="stroke:#000000; stroke-linecap:round; stroke-linejoin:round; stroke-width:2; stroke-opacity:0.1; fill:none" points="1780.03,1423.18 1780.03,47.2441 "/>
<polyline clip-path="url(#clip972)" style="stroke:#000000; stroke-linecap:round; stroke-linejoin:round; stroke-width:2; stroke-opacity:0.1; fill:none" points="2291.94,1423.18 2291.94,47.2441 "/>
<polyline clip-path="url(#clip972)" style="stroke:#000000; stroke-linecap:round; stroke-linejoin:round; stroke-width:2; stroke-opacity:0.1; fill:none" points="203.964,1386.01 2352.76,1386.01 "/>
<polyline clip-path="url(#clip972)" style="stroke:#000000; stroke-linecap:round; stroke-linejoin:round; stroke-width:2; stroke-opacity:0.1; fill:none" points="203.964,1075.18 2352.76,1075.18 "/>
<polyline clip-path="url(#clip972)" style="stroke:#000000; stroke-linecap:round; stroke-linejoin:round; stroke-width:2; stroke-opacity:0.1; fill:none" points="203.964,764.357 2352.76,764.357 "/>
<polyline clip-path="url(#clip972)" style="stroke:#000000; stroke-linecap:round; stroke-linejoin:round; stroke-width:2; stroke-opacity:0.1; fill:none" points="203.964,453.533 2352.76,453.533 "/>
<polyline clip-path="url(#clip972)" style="stroke:#000000; stroke-linecap:round; stroke-linejoin:round; stroke-width:2; stroke-opacity:0.1; fill:none" points="203.964,142.708 2352.76,142.708 "/>
<polyline clip-path="url(#clip970)" style="stroke:#000000; stroke-linecap:round; stroke-linejoin:round; stroke-width:4; stroke-opacity:1; fill:none" points="203.964,1423.18 2352.76,1423.18 "/>
<polyline clip-path="url(#clip970)" style="stroke:#000000; stroke-linecap:round; stroke-linejoin:round; stroke-width:4; stroke-opacity:1; fill:none" points="244.302,1423.18 244.302,1404.28 "/>
<polyline clip-path="url(#clip970)" style="stroke:#000000; stroke-linecap:round; stroke-linejoin:round; stroke-width:4; stroke-opacity:1; fill:none" points="756.212,1423.18 756.212,1404.28 "/>
<polyline clip-path="url(#clip970)" style="stroke:#000000; stroke-linecap:round; stroke-linejoin:round; stroke-width:4; stroke-opacity:1; fill:none" points="1268.12,1423.18 1268.12,1404.28 "/>
<polyline clip-path="url(#clip970)" style="stroke:#000000; stroke-linecap:round; stroke-linejoin:round; stroke-width:4; stroke-opacity:1; fill:none" points="1780.03,1423.18 1780.03,1404.28 "/>
<polyline clip-path="url(#clip970)" style="stroke:#000000; stroke-linecap:round; stroke-linejoin:round; stroke-width:4; stroke-opacity:1; fill:none" points="2291.94,1423.18 2291.94,1404.28 "/>
<path clip-path="url(#clip970)" d="M244.302 1454.1 Q240.691 1454.1 238.862 1457.66 Q237.057 1461.2 237.057 1468.33 Q237.057 1475.44 238.862 1479.01 Q240.691 1482.55 244.302 1482.55 Q247.936 1482.55 249.742 1479.01 Q251.571 1475.44 251.571 1468.33 Q251.571 1461.2 249.742 1457.66 Q247.936 1454.1 244.302 1454.1 M244.302 1450.39 Q250.112 1450.39 253.168 1455 Q256.246 1459.58 256.246 1468.33 Q256.246 1477.06 253.168 1481.67 Q250.112 1486.25 244.302 1486.25 Q238.492 1486.25 235.413 1481.67 Q232.358 1477.06 232.358 1468.33 Q232.358 1459.58 235.413 1455 Q238.492 1450.39 244.302 1450.39 Z" fill="#000000" fill-rule="nonzero" fill-opacity="1" /><path clip-path="url(#clip970)" d="M735.483 1481.64 L751.802 1481.64 L751.802 1485.58 L729.858 1485.58 L729.858 1481.64 Q732.52 1478.89 737.103 1474.26 Q741.71 1469.61 742.89 1468.27 Q745.135 1465.74 746.015 1464.01 Q746.918 1462.25 746.918 1460.56 Q746.918 1457.8 744.973 1456.07 Q743.052 1454.33 739.95 1454.33 Q737.751 1454.33 735.298 1455.09 Q732.867 1455.86 730.089 1457.41 L730.089 1452.69 Q732.913 1451.55 735.367 1450.97 Q737.821 1450.39 739.858 1450.39 Q745.228 1450.39 748.422 1453.08 Q751.617 1455.77 751.617 1460.26 Q751.617 1462.39 750.807 1464.31 Q750.02 1466.2 747.913 1468.8 Q747.335 1469.47 744.233 1472.69 Q741.131 1475.88 735.483 1481.64 Z" fill="#000000" fill-rule="nonzero" fill-opacity="1" /><path clip-path="url(#clip970)" d="M761.663 1451.02 L780.02 1451.02 L780.02 1454.96 L765.946 1454.96 L765.946 1463.43 Q766.964 1463.08 767.983 1462.92 Q769.001 1462.73 770.02 1462.73 Q775.807 1462.73 779.186 1465.9 Q782.566 1469.08 782.566 1474.49 Q782.566 1480.07 779.094 1483.17 Q775.621 1486.25 769.302 1486.25 Q767.126 1486.25 764.858 1485.88 Q762.612 1485.51 760.205 1484.77 L760.205 1480.07 Q762.288 1481.2 764.51 1481.76 Q766.733 1482.32 769.209 1482.32 Q773.214 1482.32 775.552 1480.21 Q777.89 1478.1 777.89 1474.49 Q777.89 1470.88 775.552 1468.77 Q773.214 1466.67 769.209 1466.67 Q767.334 1466.67 765.459 1467.08 Q763.608 1467.5 761.663 1468.38 L761.663 1451.02 Z" fill="#000000" fill-rule="nonzero" fill-opacity="1" /><path clip-path="url(#clip970)" d="M1242.82 1451.02 L1261.18 1451.02 L1261.18 1454.96 L1247.1 1454.96 L1247.1 1463.43 Q1248.12 1463.08 1249.14 1462.92 Q1250.16 1462.73 1251.18 1462.73 Q1256.96 1462.73 1260.34 1465.9 Q1263.72 1469.08 1263.72 1474.49 Q1263.72 1480.07 1260.25 1483.17 Q1256.78 1486.25 1250.46 1486.25 Q1248.28 1486.25 1246.02 1485.88 Q1243.77 1485.51 1241.36 1484.77 L1241.36 1480.07 Q1243.45 1481.2 1245.67 1481.76 Q1247.89 1482.32 1250.37 1482.32 Q1254.37 1482.32 1256.71 1480.21 Q1259.05 1478.1 1259.05 1474.49 Q1259.05 1470.88 1256.71 1468.77 Q1254.37 1466.67 1250.37 1466.67 Q1248.49 1466.67 1246.62 1467.08 Q1244.77 1467.5 1242.82 1468.38 L1242.82 1451.02 Z" fill="#000000" fill-rule="nonzero" fill-opacity="1" /><path clip-path="url(#clip970)" d="M1282.94 1454.1 Q1279.33 1454.1 1277.5 1457.66 Q1275.69 1461.2 1275.69 1468.33 Q1275.69 1475.44 1277.5 1479.01 Q1279.33 1482.55 1282.94 1482.55 Q1286.57 1482.55 1288.38 1479.01 Q1290.2 1475.44 1290.2 1468.33 Q1290.2 1461.2 1288.38 1457.66 Q1286.57 1454.1 1282.94 1454.1 M1282.94 1450.39 Q1288.75 1450.39 1291.8 1455 Q1294.88 1459.58 1294.88 1468.33 Q1294.88 1477.06 1291.8 1481.67 Q1288.75 1486.25 1282.94 1486.25 Q1277.13 1486.25 1274.05 1481.67 Q1270.99 1477.06 1270.99 1468.33 Q1270.99 1459.58 1274.05 1455 Q1277.13 1450.39 1282.94 1450.39 Z" fill="#000000" fill-rule="nonzero" fill-opacity="1" /><path clip-path="url(#clip970)" d="M1753.89 1451.02 L1776.11 1451.02 L1776.11 1453.01 L1763.56 1485.58 L1758.68 1485.58 L1770.48 1454.96 L1753.89 1454.96 L1753.89 1451.02 Z" fill="#000000" fill-rule="nonzero" fill-opacity="1" /><path clip-path="url(#clip970)" d="M1785.27 1451.02 L1803.63 1451.02 L1803.63 1454.96 L1789.56 1454.96 L1789.56 1463.43 Q1790.58 1463.08 1791.59 1462.92 Q1792.61 1462.73 1793.63 1462.73 Q1799.42 1462.73 1802.8 1465.9 Q1806.18 1469.08 1806.18 1474.49 Q1806.18 1480.07 1802.7 1483.17 Q1799.23 1486.25 1792.91 1486.25 Q1790.74 1486.25 1788.47 1485.88 Q1786.22 1485.51 1783.82 1484.77 L1783.82 1480.07 Q1785.9 1481.2 1788.12 1481.76 Q1790.34 1482.32 1792.82 1482.32 Q1796.83 1482.32 1799.16 1480.21 Q1801.5 1478.1 1801.5 1474.49 Q1801.5 1470.88 1799.16 1468.77 Q1796.83 1466.67 1792.82 1466.67 Q1790.95 1466.67 1789.07 1467.08 Q1787.22 1467.5 1785.27 1468.38 L1785.27 1451.02 Z" fill="#000000" fill-rule="nonzero" fill-opacity="1" /><path clip-path="url(#clip970)" d="M2251.55 1481.64 L2259.19 1481.64 L2259.19 1455.28 L2250.88 1456.95 L2250.88 1452.69 L2259.14 1451.02 L2263.82 1451.02 L2263.82 1481.64 L2271.46 1481.64 L2271.46 1485.58 L2251.55 1485.58 L2251.55 1481.64 Z" fill="#000000" fill-rule="nonzero" fill-opacity="1" /><path clip-path="url(#clip970)" d="M2290.9 1454.1 Q2287.29 1454.1 2285.46 1457.66 Q2283.65 1461.2 2283.65 1468.33 Q2283.65 1475.44 2285.46 1479.01 Q2287.29 1482.55 2290.9 1482.55 Q2294.53 1482.55 2296.34 1479.01 Q2298.17 1475.44 2298.17 1468.33 Q2298.17 1461.2 2296.34 1457.66 Q2294.53 1454.1 2290.9 1454.1 M2290.9 1450.39 Q2296.71 1450.39 2299.77 1455 Q2302.84 1459.58 2302.84 1468.33 Q2302.84 1477.06 2299.77 1481.67 Q2296.71 1486.25 2290.9 1486.25 Q2285.09 1486.25 2282.01 1481.67 Q2278.95 1477.06 2278.95 1468.33 Q2278.95 1459.58 2282.01 1455 Q2285.09 1450.39 2290.9 1450.39 Z" fill="#000000" fill-rule="nonzero" fill-opacity="1" /><path clip-path="url(#clip970)" d="M2321.06 1454.1 Q2317.45 1454.1 2315.62 1457.66 Q2313.82 1461.2 2313.82 1468.33 Q2313.82 1475.44 2315.62 1479.01 Q2317.45 1482.55 2321.06 1482.55 Q2324.7 1482.55 2326.5 1479.01 Q2328.33 1475.44 2328.33 1468.33 Q2328.33 1461.2 2326.5 1457.66 Q2324.7 1454.1 2321.06 1454.1 M2321.06 1450.39 Q2326.87 1450.39 2329.93 1455 Q2333.01 1459.58 2333.01 1468.33 Q2333.01 1477.06 2329.93 1481.67 Q2326.87 1486.25 2321.06 1486.25 Q2315.25 1486.25 2312.17 1481.67 Q2309.12 1477.06 2309.12 1468.33 Q2309.12 1459.58 2312.17 1455 Q2315.25 1450.39 2321.06 1450.39 Z" fill="#000000" fill-rule="nonzero" fill-opacity="1" /><path clip-path="url(#clip970)" d="M949.555 1546.53 L949.555 1568.04 L943.699 1568.04 L943.699 1546.72 Q943.699 1541.66 941.725 1539.14 Q939.752 1536.63 935.805 1536.63 Q931.063 1536.63 928.325 1539.65 Q925.588 1542.68 925.588 1547.9 L925.588 1568.04 L919.7 1568.04 L919.7 1532.4 L925.588 1532.4 L925.588 1537.93 Q927.689 1534.72 930.522 1533.13 Q933.386 1531.54 937.11 1531.54 Q943.253 1531.54 946.404 1535.36 Q949.555 1539.14 949.555 1546.53 Z" fill="#000000" fill-rule="nonzero" fill-opacity="1" /><path clip-path="url(#clip970)" d="M960.631 1553.98 L960.631 1532.4 L966.488 1532.4 L966.488 1553.75 Q966.488 1558.81 968.461 1561.36 Q970.435 1563.87 974.381 1563.87 Q979.124 1563.87 981.861 1560.85 Q984.63 1557.83 984.63 1552.61 L984.63 1532.4 L990.487 1532.4 L990.487 1568.04 L984.63 1568.04 L984.63 1562.57 Q982.498 1565.82 979.665 1567.41 Q976.864 1568.97 973.14 1568.97 Q966.997 1568.97 963.814 1565.15 Q960.631 1561.33 960.631 1553.98 M975.368 1531.54 L975.368 1531.54 Z" fill="#000000" fill-rule="nonzero" fill-opacity="1" /><path clip-path="url(#clip970)" d="M1030.3 1539.24 Q1032.5 1535.29 1035.56 1533.41 Q1038.61 1531.54 1042.75 1531.54 Q1048.32 1531.54 1051.34 1535.45 Q1054.37 1539.33 1054.37 1546.53 L1054.37 1568.04 L1048.48 1568.04 L1048.48 1546.72 Q1048.48 1541.59 1046.66 1539.11 Q1044.85 1536.63 1041.13 1536.63 Q1036.57 1536.63 1033.93 1539.65 Q1031.29 1542.68 1031.29 1547.9 L1031.29 1568.04 L1025.4 1568.04 L1025.4 1546.72 Q1025.4 1541.56 1023.59 1539.11 Q1021.77 1536.63 1017.99 1536.63 Q1013.5 1536.63 1010.86 1539.68 Q1008.22 1542.71 1008.22 1547.9 L1008.22 1568.04 L1002.33 1568.04 L1002.33 1532.4 L1008.22 1532.4 L1008.22 1537.93 Q1010.22 1534.66 1013.02 1533.1 Q1015.82 1531.54 1019.67 1531.54 Q1023.56 1531.54 1026.26 1533.51 Q1029 1535.48 1030.3 1539.24 Z" fill="#000000" fill-rule="nonzero" fill-opacity="1" /><path clip-path="url(#clip970)" d="M1091.64 1550.25 Q1091.64 1543.79 1088.96 1540.13 Q1086.32 1536.44 1081.68 1536.44 Q1077.03 1536.44 1074.35 1540.13 Q1071.71 1543.79 1071.71 1550.25 Q1071.71 1556.71 1074.35 1560.4 Q1077.03 1564.07 1081.68 1564.07 Q1086.32 1564.07 1088.96 1560.4 Q1091.64 1556.71 1091.64 1550.25 M1071.71 1537.81 Q1073.56 1534.62 1076.36 1533.1 Q1079.19 1531.54 1083.11 1531.54 Q1089.6 1531.54 1093.64 1536.69 Q1097.72 1541.85 1097.72 1550.25 Q1097.72 1558.65 1093.64 1563.81 Q1089.6 1568.97 1083.11 1568.97 Q1079.19 1568.97 1076.36 1567.44 Q1073.56 1565.88 1071.71 1562.7 L1071.71 1568.04 L1065.82 1568.04 L1065.82 1518.52 L1071.71 1518.52 L1071.71 1537.81 Z" fill="#000000" fill-rule="nonzero" fill-opacity="1" /><path clip-path="url(#clip970)" d="M1137.92 1548.76 L1137.92 1551.62 L1110.99 1551.62 Q1111.37 1557.67 1114.62 1560.85 Q1117.9 1564 1123.72 1564 Q1127.09 1564 1130.25 1563.17 Q1133.43 1562.35 1136.55 1560.69 L1136.55 1566.23 Q1133.4 1567.57 1130.09 1568.27 Q1126.78 1568.97 1123.37 1568.97 Q1114.84 1568.97 1109.84 1564 Q1104.88 1559.04 1104.88 1550.57 Q1104.88 1541.82 1109.59 1536.69 Q1114.33 1531.54 1122.35 1531.54 Q1129.55 1531.54 1133.71 1536.18 Q1137.92 1540.8 1137.92 1548.76 M1132.06 1547.04 Q1132 1542.23 1129.35 1539.37 Q1126.74 1536.5 1122.42 1536.5 Q1117.51 1536.5 1114.55 1539.27 Q1111.63 1542.04 1111.18 1547.07 L1132.06 1547.04 Z" fill="#000000" fill-rule="nonzero" fill-opacity="1" /><path clip-path="url(#clip970)" d="M1168.19 1537.87 Q1167.2 1537.3 1166.02 1537.04 Q1164.88 1536.76 1163.47 1536.76 Q1158.51 1536.76 1155.84 1540 Q1153.19 1543.22 1153.19 1549.27 L1153.19 1568.04 L1147.31 1568.04 L1147.31 1532.4 L1153.19 1532.4 L1153.19 1537.93 Q1155.04 1534.69 1158 1533.13 Q1160.96 1531.54 1165.19 1531.54 Q1165.8 1531.54 1166.53 1531.63 Q1167.26 1531.7 1168.15 1531.85 L1168.19 1537.87 Z" fill="#000000" fill-rule="nonzero" fill-opacity="1" /><path clip-path="url(#clip970)" d="M1208.86 1536.5 Q1204.15 1536.5 1201.41 1540.19 Q1198.68 1543.85 1198.68 1550.25 Q1198.68 1556.65 1201.38 1560.34 Q1204.12 1564 1208.86 1564 Q1213.54 1564 1216.28 1560.31 Q1219.02 1556.62 1219.02 1550.25 Q1219.02 1543.92 1216.28 1540.23 Q1213.54 1536.5 1208.86 1536.5 M1208.86 1531.54 Q1216.5 1531.54 1220.86 1536.5 Q1225.22 1541.47 1225.22 1550.25 Q1225.22 1559 1220.86 1564 Q1216.5 1568.97 1208.86 1568.97 Q1201.19 1568.97 1196.83 1564 Q1192.5 1559 1192.5 1550.25 Q1192.5 1541.47 1196.83 1536.5 Q1201.19 1531.54 1208.86 1531.54 Z" fill="#000000" fill-rule="nonzero" fill-opacity="1" /><path clip-path="url(#clip970)" d="M1252.98 1518.52 L1252.98 1523.39 L1247.37 1523.39 Q1244.22 1523.39 1242.98 1524.66 Q1241.77 1525.93 1241.77 1529.24 L1241.77 1532.4 L1251.42 1532.4 L1251.42 1536.95 L1241.77 1536.95 L1241.77 1568.04 L1235.88 1568.04 L1235.88 1536.95 L1230.28 1536.95 L1230.28 1532.4 L1235.88 1532.4 L1235.88 1529.91 Q1235.88 1523.96 1238.65 1521.26 Q1241.42 1518.52 1247.44 1518.52 L1252.98 1518.52 Z" fill="#000000" fill-rule="nonzero" fill-opacity="1" /><path clip-path="url(#clip970)" d="M1302.06 1537.81 L1302.06 1518.52 L1307.91 1518.52 L1307.91 1568.04 L1302.06 1568.04 L1302.06 1562.7 Q1300.21 1565.88 1297.38 1567.44 Q1294.58 1568.97 1290.63 1568.97 Q1284.17 1568.97 1280.09 1563.81 Q1276.05 1558.65 1276.05 1550.25 Q1276.05 1541.85 1280.09 1536.69 Q1284.17 1531.54 1290.63 1531.54 Q1294.58 1531.54 1297.38 1533.1 Q1300.21 1534.62 1302.06 1537.81 M1282.1 1550.25 Q1282.1 1556.71 1284.74 1560.4 Q1287.41 1564.07 1292.06 1564.07 Q1296.71 1564.07 1299.38 1560.4 Q1302.06 1556.71 1302.06 1550.25 Q1302.06 1543.79 1299.38 1540.13 Q1296.71 1536.44 1292.06 1536.44 Q1287.41 1536.44 1284.74 1540.13 Q1282.1 1543.79 1282.1 1550.25 Z" fill="#000000" fill-rule="nonzero" fill-opacity="1" /><path clip-path="url(#clip970)" d="M1336.18 1550.12 Q1329.08 1550.12 1326.34 1551.75 Q1323.6 1553.37 1323.6 1557.29 Q1323.6 1560.4 1325.64 1562.25 Q1327.71 1564.07 1331.24 1564.07 Q1336.11 1564.07 1339.04 1560.63 Q1342 1557.16 1342 1551.43 L1342 1550.12 L1336.18 1550.12 M1347.86 1547.71 L1347.86 1568.04 L1342 1568.04 L1342 1562.63 Q1340 1565.88 1337 1567.44 Q1334.01 1568.97 1329.68 1568.97 Q1324.21 1568.97 1320.96 1565.91 Q1317.75 1562.82 1317.75 1557.67 Q1317.75 1551.65 1321.76 1548.6 Q1325.8 1545.54 1333.79 1545.54 L1342 1545.54 L1342 1544.97 Q1342 1540.93 1339.33 1538.73 Q1336.69 1536.5 1331.88 1536.5 Q1328.82 1536.5 1325.93 1537.23 Q1323.03 1537.97 1320.36 1539.43 L1320.36 1534.02 Q1323.57 1532.78 1326.6 1532.17 Q1329.62 1531.54 1332.48 1531.54 Q1340.22 1531.54 1344.04 1535.55 Q1347.86 1539.56 1347.86 1547.71 Z" fill="#000000" fill-rule="nonzero" fill-opacity="1" /><path clip-path="url(#clip970)" d="M1365.71 1522.27 L1365.71 1532.4 L1377.78 1532.4 L1377.78 1536.95 L1365.71 1536.95 L1365.71 1556.3 Q1365.71 1560.66 1366.89 1561.9 Q1368.1 1563.14 1371.76 1563.14 L1377.78 1563.14 L1377.78 1568.04 L1371.76 1568.04 Q1364.98 1568.04 1362.4 1565.53 Q1359.82 1562.98 1359.82 1556.3 L1359.82 1536.95 L1355.53 1536.95 L1355.53 1532.4 L1359.82 1532.4 L1359.82 1522.27 L1365.71 1522.27 Z" fill="#000000" fill-rule="nonzero" fill-opacity="1" /><path clip-path="url(#clip970)" d="M1401.68 1550.12 Q1394.58 1550.12 1391.84 1551.75 Q1389.11 1553.37 1389.11 1557.29 Q1389.11 1560.4 1391.14 1562.25 Q1393.21 1564.07 1396.75 1564.07 Q1401.62 1564.07 1404.54 1560.63 Q1407.5 1557.16 1407.5 1551.43 L1407.5 1550.12 L1401.68 1550.12 M1413.36 1547.71 L1413.36 1568.04 L1407.5 1568.04 L1407.5 1562.63 Q1405.5 1565.88 1402.51 1567.44 Q1399.52 1568.97 1395.19 1568.97 Q1389.71 1568.97 1386.47 1565.91 Q1383.25 1562.82 1383.25 1557.67 Q1383.25 1551.65 1387.26 1548.6 Q1391.3 1545.54 1399.29 1545.54 L1407.5 1545.54 L1407.5 1544.97 Q1407.5 1540.93 1404.83 1538.73 Q1402.19 1536.5 1397.38 1536.5 Q1394.33 1536.5 1391.43 1537.23 Q1388.53 1537.97 1385.86 1539.43 L1385.86 1534.02 Q1389.08 1532.78 1392.1 1532.17 Q1395.12 1531.54 1397.99 1531.54 Q1405.72 1531.54 1409.54 1535.55 Q1413.36 1539.56 1413.36 1547.71 Z" fill="#000000" fill-rule="nonzero" fill-opacity="1" /><path clip-path="url(#clip970)" d="M1451.81 1562.7 L1451.81 1581.6 L1445.92 1581.6 L1445.92 1532.4 L1451.81 1532.4 L1451.81 1537.81 Q1453.66 1534.62 1456.46 1533.1 Q1459.29 1531.54 1463.2 1531.54 Q1469.7 1531.54 1473.74 1536.69 Q1477.81 1541.85 1477.81 1550.25 Q1477.81 1558.65 1473.74 1563.81 Q1469.7 1568.97 1463.2 1568.97 Q1459.29 1568.97 1456.46 1567.44 Q1453.66 1565.88 1451.81 1562.7 M1471.73 1550.25 Q1471.73 1543.79 1469.06 1540.13 Q1466.42 1536.44 1461.77 1536.44 Q1457.12 1536.44 1454.45 1540.13 Q1451.81 1543.79 1451.81 1550.25 Q1451.81 1556.71 1454.45 1560.4 Q1457.12 1564.07 1461.77 1564.07 Q1466.42 1564.07 1469.06 1560.4 Q1471.73 1556.71 1471.73 1550.25 Z" fill="#000000" fill-rule="nonzero" fill-opacity="1" /><path clip-path="url(#clip970)" d="M1501.33 1536.5 Q1496.62 1536.5 1493.89 1540.19 Q1491.15 1543.85 1491.15 1550.25 Q1491.15 1556.65 1493.85 1560.34 Q1496.59 1564 1501.33 1564 Q1506.01 1564 1508.75 1560.31 Q1511.49 1556.62 1511.49 1550.25 Q1511.49 1543.92 1508.75 1540.23 Q1506.01 1536.5 1501.33 1536.5 M1501.33 1531.54 Q1508.97 1531.54 1513.33 1536.5 Q1517.69 1541.47 1517.69 1550.25 Q1517.69 1559 1513.33 1564 Q1508.97 1568.97 1501.33 1568.97 Q1493.66 1568.97 1489.3 1564 Q1484.97 1559 1484.97 1550.25 Q1484.97 1541.47 1489.3 1536.5 Q1493.66 1531.54 1501.33 1531.54 Z" fill="#000000" fill-rule="nonzero" fill-opacity="1" /><path clip-path="url(#clip970)" d="M1527.4 1532.4 L1533.26 1532.4 L1533.26 1568.04 L1527.4 1568.04 L1527.4 1532.4 M1527.4 1518.52 L1533.26 1518.52 L1533.26 1525.93 L1527.4 1525.93 L1527.4 1518.52 Z" fill="#000000" fill-rule="nonzero" fill-opacity="1" /><path clip-path="url(#clip970)" d="M1575.14 1546.53 L1575.14 1568.04 L1569.29 1568.04 L1569.29 1546.72 Q1569.29 1541.66 1567.32 1539.14 Q1565.34 1536.63 1561.39 1536.63 Q1556.65 1536.63 1553.92 1539.65 Q1551.18 1542.68 1551.18 1547.9 L1551.18 1568.04 L1545.29 1568.04 L1545.29 1532.4 L1551.18 1532.4 L1551.18 1537.93 Q1553.28 1534.72 1556.11 1533.13 Q1558.98 1531.54 1562.7 1531.54 Q1568.84 1531.54 1571.99 1535.36 Q1575.14 1539.14 1575.14 1546.53 Z" fill="#000000" fill-rule="nonzero" fill-opacity="1" /><path clip-path="url(#clip970)" d="M1592.62 1522.27 L1592.62 1532.4 L1604.68 1532.4 L1604.68 1536.95 L1592.62 1536.95 L1592.62 1556.3 Q1592.62 1560.66 1593.8 1561.9 Q1595.01 1563.14 1598.67 1563.14 L1604.68 1563.14 L1604.68 1568.04 L1598.67 1568.04 Q1591.89 1568.04 1589.31 1565.53 Q1586.73 1562.98 1586.73 1556.3 L1586.73 1536.95 L1582.43 1536.95 L1582.43 1532.4 L1586.73 1532.4 L1586.73 1522.27 L1592.62 1522.27 Z" fill="#000000" fill-rule="nonzero" fill-opacity="1" /><path clip-path="url(#clip970)" d="M1635.11 1533.45 L1635.11 1538.98 Q1632.63 1537.71 1629.95 1537.07 Q1627.28 1536.44 1624.42 1536.44 Q1620.05 1536.44 1617.86 1537.77 Q1615.69 1539.11 1615.69 1541.79 Q1615.69 1543.82 1617.25 1545 Q1618.81 1546.15 1623.52 1547.2 L1625.53 1547.64 Q1631.77 1548.98 1634.38 1551.43 Q1637.02 1553.85 1637.02 1558.21 Q1637.02 1563.17 1633.07 1566.07 Q1629.16 1568.97 1622.28 1568.97 Q1619.42 1568.97 1616.3 1568.39 Q1613.21 1567.85 1609.77 1566.74 L1609.77 1560.69 Q1613.02 1562.38 1616.17 1563.24 Q1619.32 1564.07 1622.41 1564.07 Q1626.55 1564.07 1628.78 1562.66 Q1631 1561.23 1631 1558.65 Q1631 1556.27 1629.38 1554.99 Q1627.79 1553.72 1622.35 1552.54 L1620.31 1552.07 Q1614.87 1550.92 1612.45 1548.56 Q1610.03 1546.18 1610.03 1542.04 Q1610.03 1537.01 1613.59 1534.27 Q1617.16 1531.54 1623.72 1531.54 Q1626.96 1531.54 1629.83 1532.01 Q1632.69 1532.49 1635.11 1533.45 Z" fill="#000000" fill-rule="nonzero" fill-opacity="1" /><polyline clip-path="url(#clip970)" style="stroke:#000000; stroke-linecap:round; stroke-linejoin:round; stroke-width:4; stroke-opacity:1; fill:none" points="203.964,1423.18 203.964,47.2441 "/>
<polyline clip-path="url(#clip970)" style="stroke:#000000; stroke-linecap:round; stroke-linejoin:round; stroke-width:4; stroke-opacity:1; fill:none" points="203.964,1386.01 222.861,1386.01 "/>
<polyline clip-path="url(#clip970)" style="stroke:#000000; stroke-linecap:round; stroke-linejoin:round; stroke-width:4; stroke-opacity:1; fill:none" points="203.964,1075.18 222.861,1075.18 "/>
<polyline clip-path="url(#clip970)" style="stroke:#000000; stroke-linecap:round; stroke-linejoin:round; stroke-width:4; stroke-opacity:1; fill:none" points="203.964,764.357 222.861,764.357 "/>
<polyline clip-path="url(#clip970)" style="stroke:#000000; stroke-linecap:round; stroke-linejoin:round; stroke-width:4; stroke-opacity:1; fill:none" points="203.964,453.533 222.861,453.533 "/>
<polyline clip-path="url(#clip970)" style="stroke:#000000; stroke-linecap:round; stroke-linejoin:round; stroke-width:4; stroke-opacity:1; fill:none" points="203.964,142.708 222.861,142.708 "/>
<path clip-path="url(#clip970)" d="M156.019 1371.81 Q152.408 1371.81 150.579 1375.37 Q148.774 1378.91 148.774 1386.04 Q148.774 1393.15 150.579 1396.71 Q152.408 1400.25 156.019 1400.25 Q159.653 1400.25 161.459 1396.71 Q163.288 1393.15 163.288 1386.04 Q163.288 1378.91 161.459 1375.37 Q159.653 1371.81 156.019 1371.81 M156.019 1368.1 Q161.829 1368.1 164.885 1372.71 Q167.964 1377.29 167.964 1386.04 Q167.964 1394.77 164.885 1399.38 Q161.829 1403.96 156.019 1403.96 Q150.209 1403.96 147.13 1399.38 Q144.075 1394.77 144.075 1386.04 Q144.075 1377.29 147.13 1372.71 Q150.209 1368.1 156.019 1368.1 Z" fill="#000000" fill-rule="nonzero" fill-opacity="1" /><path clip-path="url(#clip970)" d="M147.061 1057.9 L165.417 1057.9 L165.417 1061.84 L151.343 1061.84 L151.343 1070.31 Q152.362 1069.96 153.38 1069.8 Q154.399 1069.62 155.417 1069.62 Q161.204 1069.62 164.584 1072.79 Q167.964 1075.96 167.964 1081.37 Q167.964 1086.95 164.491 1090.05 Q161.019 1093.13 154.7 1093.13 Q152.524 1093.13 150.255 1092.76 Q148.01 1092.39 145.603 1091.65 L145.603 1086.95 Q147.686 1088.09 149.908 1088.64 Q152.13 1089.2 154.607 1089.2 Q158.612 1089.2 160.95 1087.09 Q163.288 1084.99 163.288 1081.37 Q163.288 1077.76 160.95 1075.66 Q158.612 1073.55 154.607 1073.55 Q152.732 1073.55 150.857 1073.97 Q149.005 1074.38 147.061 1075.26 L147.061 1057.9 Z" fill="#000000" fill-rule="nonzero" fill-opacity="1" /><path clip-path="url(#clip970)" d="M116.668 777.702 L124.306 777.702 L124.306 751.337 L115.996 753.003 L115.996 748.744 L124.26 747.077 L128.936 747.077 L128.936 777.702 L136.575 777.702 L136.575 781.637 L116.668 781.637 L116.668 777.702 Z" fill="#000000" fill-rule="nonzero" fill-opacity="1" /><path clip-path="url(#clip970)" d="M156.019 750.156 Q152.408 750.156 150.579 753.721 Q148.774 757.263 148.774 764.392 Q148.774 771.499 150.579 775.063 Q152.408 778.605 156.019 778.605 Q159.653 778.605 161.459 775.063 Q163.288 771.499 163.288 764.392 Q163.288 757.263 161.459 753.721 Q159.653 750.156 156.019 750.156 M156.019 746.452 Q161.829 746.452 164.885 751.059 Q167.964 755.642 167.964 764.392 Q167.964 773.119 164.885 777.725 Q161.829 782.309 156.019 782.309 Q150.209 782.309 147.13 777.725 Q144.075 773.119 144.075 764.392 Q144.075 755.642 147.13 751.059 Q150.209 746.452 156.019 746.452 Z" fill="#000000" fill-rule="nonzero" fill-opacity="1" /><path clip-path="url(#clip970)" d="M117.663 466.877 L125.302 466.877 L125.302 440.512 L116.992 442.178 L116.992 437.919 L125.255 436.253 L129.931 436.253 L129.931 466.877 L137.57 466.877 L137.57 470.813 L117.663 470.813 L117.663 466.877 Z" fill="#000000" fill-rule="nonzero" fill-opacity="1" /><path clip-path="url(#clip970)" d="M147.061 436.253 L165.417 436.253 L165.417 440.188 L151.343 440.188 L151.343 448.66 Q152.362 448.313 153.38 448.151 Q154.399 447.965 155.417 447.965 Q161.204 447.965 164.584 451.137 Q167.964 454.308 167.964 459.725 Q167.964 465.303 164.491 468.405 Q161.019 471.484 154.7 471.484 Q152.524 471.484 150.255 471.113 Q148.01 470.743 145.603 470.002 L145.603 465.303 Q147.686 466.438 149.908 466.993 Q152.13 467.549 154.607 467.549 Q158.612 467.549 160.95 465.442 Q163.288 463.336 163.288 459.725 Q163.288 456.114 160.95 454.007 Q158.612 451.901 154.607 451.901 Q152.732 451.901 150.857 452.317 Q149.005 452.734 147.061 453.614 L147.061 436.253 Z" fill="#000000" fill-rule="nonzero" fill-opacity="1" /><path clip-path="url(#clip970)" d="M119.885 156.052 L136.204 156.052 L136.204 159.988 L114.26 159.988 L114.26 156.052 Q116.922 153.298 121.505 148.668 Q126.112 144.015 127.292 142.673 Q129.538 140.15 130.417 138.414 Q131.32 136.654 131.32 134.965 Q131.32 132.21 129.376 130.474 Q127.455 128.738 124.353 128.738 Q122.154 128.738 119.7 129.502 Q117.269 130.266 114.492 131.816 L114.492 127.094 Q117.316 125.96 119.769 125.381 Q122.223 124.803 124.26 124.803 Q129.63 124.803 132.825 127.488 Q136.019 130.173 136.019 134.664 Q136.019 136.793 135.209 138.715 Q134.422 140.613 132.316 143.205 Q131.737 143.877 128.635 147.094 Q125.533 150.289 119.885 156.052 Z" fill="#000000" fill-rule="nonzero" fill-opacity="1" /><path clip-path="url(#clip970)" d="M156.019 128.506 Q152.408 128.506 150.579 132.071 Q148.774 135.613 148.774 142.742 Q148.774 149.849 150.579 153.414 Q152.408 156.955 156.019 156.955 Q159.653 156.955 161.459 153.414 Q163.288 149.849 163.288 142.742 Q163.288 135.613 161.459 132.071 Q159.653 128.506 156.019 128.506 M156.019 124.803 Q161.829 124.803 164.885 129.409 Q167.964 133.992 167.964 142.742 Q167.964 151.469 164.885 156.076 Q161.829 160.659 156.019 160.659 Q150.209 160.659 147.13 156.076 Q144.075 151.469 144.075 142.742 Q144.075 133.992 147.13 129.409 Q150.209 124.803 156.019 124.803 Z" fill="#000000" fill-rule="nonzero" fill-opacity="1" /><path clip-path="url(#clip970)" d="M33.8307 1087.35 Q33.2578 1088.33 33.0032 1089.51 Q32.7167 1090.66 32.7167 1092.06 Q32.7167 1097.02 35.9632 1099.7 Q39.1779 1102.34 45.2253 1102.34 L64.0042 1102.34 L64.0042 1108.23 L28.3562 1108.23 L28.3562 1102.34 L33.8944 1102.34 Q30.6479 1100.49 29.0883 1097.53 Q27.4968 1094.57 27.4968 1090.34 Q27.4968 1089.73 27.5923 1089 Q27.656 1088.27 27.8151 1087.38 L33.8307 1087.35 Z" fill="#000000" fill-rule="nonzero" fill-opacity="1" /><path clip-path="url(#clip970)" d="M49.9359 1081.81 L28.3562 1081.81 L28.3562 1075.95 L49.7131 1075.95 Q54.7739 1075.95 57.3202 1073.98 Q59.8346 1072.01 59.8346 1068.06 Q59.8346 1063.32 56.8109 1060.58 Q53.7872 1057.81 48.5673 1057.81 L28.3562 1057.81 L28.3562 1051.95 L64.0042 1051.95 L64.0042 1057.81 L58.5296 1057.81 Q61.7762 1059.94 63.3676 1062.78 Q64.9272 1065.58 64.9272 1069.3 Q64.9272 1075.44 61.1078 1078.63 Q57.2883 1081.81 49.9359 1081.81 M27.4968 1067.07 L27.4968 1067.07 Z" fill="#000000" fill-rule="nonzero" fill-opacity="1" /><path clip-path="url(#clip970)" d="M42.4881 1010.26 L64.0042 1010.26 L64.0042 1016.11 L42.679 1016.11 Q37.6183 1016.11 35.1038 1018.09 Q32.5894 1020.06 32.5894 1024.01 Q32.5894 1028.75 35.6131 1031.49 Q38.6368 1034.23 43.8567 1034.23 L64.0042 1034.23 L64.0042 1040.11 L28.3562 1040.11 L28.3562 1034.23 L33.8944 1034.23 Q30.6797 1032.12 29.0883 1029.29 Q27.4968 1026.43 27.4968 1022.7 Q27.4968 1016.56 31.3163 1013.41 Q35.1038 1010.26 42.4881 1010.26 Z" fill="#000000" fill-rule="nonzero" fill-opacity="1" /><path clip-path="url(#clip970)" d="M42.4881 968.945 L64.0042 968.945 L64.0042 974.801 L42.679 974.801 Q37.6183 974.801 35.1038 976.775 Q32.5894 978.748 32.5894 982.695 Q32.5894 987.437 35.6131 990.174 Q38.6368 992.912 43.8567 992.912 L64.0042 992.912 L64.0042 998.8 L28.3562 998.8 L28.3562 992.912 L33.8944 992.912 Q30.6797 990.811 29.0883 987.978 Q27.4968 985.114 27.4968 981.39 Q27.4968 975.247 31.3163 972.096 Q35.1038 968.945 42.4881 968.945 Z" fill="#000000" fill-rule="nonzero" fill-opacity="1" /><path clip-path="url(#clip970)" d="M28.3562 957.264 L28.3562 951.407 L64.0042 951.407 L64.0042 957.264 L28.3562 957.264 M14.479 957.264 L14.479 951.407 L21.895 951.407 L21.895 957.264 L14.479 957.264 Z" fill="#000000" fill-rule="nonzero" fill-opacity="1" /><path clip-path="url(#clip970)" d="M42.4881 909.521 L64.0042 909.521 L64.0042 915.377 L42.679 915.377 Q37.6183 915.377 35.1038 917.351 Q32.5894 919.324 32.5894 923.271 Q32.5894 928.013 35.6131 930.751 Q38.6368 933.488 43.8567 933.488 L64.0042 933.488 L64.0042 939.376 L28.3562 939.376 L28.3562 933.488 L33.8944 933.488 Q30.6797 931.387 29.0883 928.554 Q27.4968 925.69 27.4968 921.966 Q27.4968 915.823 31.3163 912.672 Q35.1038 909.521 42.4881 909.521 Z" fill="#000000" fill-rule="nonzero" fill-opacity="1" /><path clip-path="url(#clip970)" d="M45.7664 874.382 Q39.4007 874.382 35.8996 877.024 Q32.3984 879.634 32.3984 884.376 Q32.3984 889.087 35.8996 891.729 Q39.4007 894.339 45.7664 894.339 Q52.1003 894.339 55.6014 891.729 Q59.1026 889.087 59.1026 884.376 Q59.1026 879.634 55.6014 877.024 Q52.1003 874.382 45.7664 874.382 M59.58 868.526 Q68.683 868.526 73.1071 872.568 Q77.5631 876.61 77.5631 884.949 Q77.5631 888.037 77.0857 890.774 Q76.6401 893.511 75.6852 896.089 L69.9879 896.089 Q71.3884 893.511 72.0568 890.997 Q72.7252 888.482 72.7252 885.872 Q72.7252 880.111 69.7015 877.247 Q66.7096 874.382 60.6303 874.382 L57.7339 874.382 Q60.885 876.196 62.4446 879.029 Q64.0042 881.862 64.0042 885.809 Q64.0042 892.365 59.0071 896.376 Q54.01 900.386 45.7664 900.386 Q37.491 900.386 32.4939 896.376 Q27.4968 892.365 27.4968 885.809 Q27.4968 881.862 29.0564 879.029 Q30.616 876.196 33.7671 874.382 L28.3562 874.382 L28.3562 868.526 L59.58 868.526 Z" fill="#000000" fill-rule="nonzero" fill-opacity="1" /><path clip-path="url(#clip970)" d="M18.2347 829.95 L28.3562 829.95 L28.3562 817.887 L32.9077 817.887 L32.9077 829.95 L52.2594 829.95 Q56.6199 829.95 57.8613 828.772 Q59.1026 827.562 59.1026 823.902 L59.1026 817.887 L64.0042 817.887 L64.0042 823.902 Q64.0042 830.682 61.4897 833.26 Q58.9434 835.838 52.2594 835.838 L32.9077 835.838 L32.9077 840.135 L28.3562 840.135 L28.3562 835.838 L18.2347 835.838 L18.2347 829.95 Z" fill="#000000" fill-rule="nonzero" fill-opacity="1" /><path clip-path="url(#clip970)" d="M28.3562 810.184 L28.3562 804.328 L64.0042 804.328 L64.0042 810.184 L28.3562 810.184 M14.479 810.184 L14.479 804.328 L21.895 804.328 L21.895 810.184 L14.479 810.184 Z" fill="#000000" fill-rule="nonzero" fill-opacity="1" /><path clip-path="url(#clip970)" d="M35.1993 764.319 Q31.2526 762.123 29.3747 759.067 Q27.4968 756.012 27.4968 751.874 Q27.4968 746.304 31.4117 743.281 Q35.2948 740.257 42.4881 740.257 L64.0042 740.257 L64.0042 746.145 L42.679 746.145 Q37.5546 746.145 35.072 747.959 Q32.5894 749.774 32.5894 753.497 Q32.5894 758.049 35.6131 760.691 Q38.6368 763.332 43.8567 763.332 L64.0042 763.332 L64.0042 769.221 L42.679 769.221 Q37.5228 769.221 35.072 771.035 Q32.5894 772.849 32.5894 776.637 Q32.5894 781.125 35.6449 783.766 Q38.6686 786.408 43.8567 786.408 L64.0042 786.408 L64.0042 792.296 L28.3562 792.296 L28.3562 786.408 L33.8944 786.408 Q30.616 784.403 29.0564 781.602 Q27.4968 778.801 27.4968 774.95 Q27.4968 771.067 29.4702 768.361 Q31.4436 765.624 35.1993 764.319 Z" fill="#000000" fill-rule="nonzero" fill-opacity="1" /><path clip-path="url(#clip970)" d="M44.7161 698.084 L47.5806 698.084 L47.5806 725.011 Q53.6281 724.629 56.8109 721.382 Q59.9619 718.104 59.9619 712.28 Q59.9619 708.906 59.1344 705.755 Q58.3069 702.572 56.6518 699.453 L62.1899 699.453 Q63.5267 702.604 64.227 705.914 Q64.9272 709.224 64.9272 712.63 Q64.9272 721.16 59.9619 726.157 Q54.9967 731.122 46.5303 731.122 Q37.7774 731.122 32.6531 726.411 Q27.4968 721.669 27.4968 713.648 Q27.4968 706.455 32.1438 702.285 Q36.7589 698.084 44.7161 698.084 M42.9973 703.94 Q38.1912 704.004 35.3266 706.646 Q32.4621 709.256 32.4621 713.584 Q32.4621 718.486 35.2312 721.446 Q38.0002 724.374 43.0292 724.82 L42.9973 703.94 Z" fill="#000000" fill-rule="nonzero" fill-opacity="1" /><path clip-path="url(#clip970)" d="M14.5426 653.683 Q21.8632 657.948 29.0246 660.017 Q36.186 662.086 43.5384 662.086 Q50.8908 662.086 58.1159 660.017 Q65.3091 657.916 72.5979 653.683 L72.5979 658.776 Q65.1182 663.55 57.8931 665.937 Q50.668 668.292 43.5384 668.292 Q36.4406 668.292 29.2474 665.937 Q22.0542 663.582 14.5426 658.776 L14.5426 653.683 Z" fill="#000000" fill-rule="nonzero" fill-opacity="1" /><path clip-path="url(#clip970)" d="M29.4065 619.595 L34.9447 619.595 Q33.6716 622.077 33.035 624.751 Q32.3984 627.425 32.3984 630.289 Q32.3984 634.65 33.7352 636.846 Q35.072 639.01 37.7456 639.01 Q39.7826 639.01 40.9603 637.451 Q42.1061 635.891 43.1565 631.18 L43.6021 629.175 Q44.9389 622.937 47.3897 620.327 Q49.8086 617.685 54.1691 617.685 Q59.1344 617.685 62.0308 621.632 Q64.9272 625.547 64.9272 632.422 Q64.9272 635.286 64.3543 638.405 Q63.8132 641.493 62.6992 644.93 L56.6518 644.93 Q58.3387 641.684 59.198 638.533 Q60.0256 635.382 60.0256 632.294 Q60.0256 628.157 58.6251 625.929 Q57.1929 623.701 54.6147 623.701 Q52.2276 623.701 50.9545 625.324 Q49.6813 626.915 48.5037 632.358 L48.0262 634.395 Q46.8804 639.838 44.5251 642.257 Q42.138 644.676 38.0002 644.676 Q32.9713 644.676 30.2341 641.111 Q27.4968 637.546 27.4968 630.989 Q27.4968 627.743 27.9743 624.878 Q28.4517 622.014 29.4065 619.595 Z" fill="#000000" fill-rule="nonzero" fill-opacity="1" /><path clip-path="url(#clip970)" d="M44.7161 577.868 L47.5806 577.868 L47.5806 604.795 Q53.6281 604.413 56.8109 601.166 Q59.9619 597.888 59.9619 592.063 Q59.9619 588.689 59.1344 585.538 Q58.3069 582.355 56.6518 579.236 L62.1899 579.236 Q63.5267 582.387 64.227 585.697 Q64.9272 589.008 64.9272 592.413 Q64.9272 600.943 59.9619 605.94 Q54.9967 610.906 46.5303 610.906 Q37.7774 610.906 32.6531 606.195 Q27.4968 601.453 27.4968 593.432 Q27.4968 586.239 32.1438 582.069 Q36.7589 577.868 44.7161 577.868 M42.9973 583.724 Q38.1912 583.788 35.3266 586.429 Q32.4621 589.039 32.4621 593.368 Q32.4621 598.27 35.2312 601.23 Q38.0002 604.158 43.0292 604.604 L42.9973 583.724 Z" fill="#000000" fill-rule="nonzero" fill-opacity="1" /><path clip-path="url(#clip970)" d="M29.7248 542.602 L35.1993 542.602 Q33.8307 545.084 33.1623 547.599 Q32.4621 550.081 32.4621 552.628 Q32.4621 558.325 36.0905 561.476 Q39.6872 564.627 46.212 564.627 Q52.7369 564.627 56.3653 561.476 Q59.9619 558.325 59.9619 552.628 Q59.9619 550.081 59.2935 547.599 Q58.5933 545.084 57.2247 542.602 L62.6355 542.602 Q63.7814 545.052 64.3543 547.694 Q64.9272 550.304 64.9272 553.264 Q64.9272 561.317 59.8664 566.059 Q54.8057 570.802 46.212 570.802 Q37.491 570.802 32.4939 566.027 Q27.4968 561.221 27.4968 552.882 Q27.4968 550.177 28.0697 547.599 Q28.6108 545.021 29.7248 542.602 Z" fill="#000000" fill-rule="nonzero" fill-opacity="1" /><path clip-path="url(#clip970)" d="M32.4621 518.603 Q32.4621 523.314 36.1542 526.051 Q39.8145 528.788 46.212 528.788 Q52.6095 528.788 56.3017 526.083 Q59.9619 523.345 59.9619 518.603 Q59.9619 513.924 56.2698 511.187 Q52.5777 508.45 46.212 508.45 Q39.8781 508.45 36.186 511.187 Q32.4621 513.924 32.4621 518.603 M27.4968 518.603 Q27.4968 510.964 32.4621 506.604 Q37.4273 502.243 46.212 502.243 Q54.9649 502.243 59.9619 506.604 Q64.9272 510.964 64.9272 518.603 Q64.9272 526.274 59.9619 530.634 Q54.9649 534.963 46.212 534.963 Q37.4273 534.963 32.4621 530.634 Q27.4968 526.274 27.4968 518.603 Z" fill="#000000" fill-rule="nonzero" fill-opacity="1" /><path clip-path="url(#clip970)" d="M42.4881 462.903 L64.0042 462.903 L64.0042 468.759 L42.679 468.759 Q37.6183 468.759 35.1038 470.733 Q32.5894 472.706 32.5894 476.653 Q32.5894 481.395 35.6131 484.133 Q38.6368 486.87 43.8567 486.87 L64.0042 486.87 L64.0042 492.758 L28.3562 492.758 L28.3562 486.87 L33.8944 486.87 Q30.6797 484.769 29.0883 481.936 Q27.4968 479.072 27.4968 475.348 Q27.4968 469.205 31.3163 466.054 Q35.1038 462.903 42.4881 462.903 Z" fill="#000000" fill-rule="nonzero" fill-opacity="1" /><path clip-path="url(#clip970)" d="M33.7671 427.764 L14.479 427.764 L14.479 421.908 L64.0042 421.908 L64.0042 427.764 L58.657 427.764 Q61.8398 429.61 63.3994 432.443 Q64.9272 435.244 64.9272 439.191 Q64.9272 445.652 59.771 449.726 Q54.6147 453.768 46.212 453.768 Q37.8093 453.768 32.6531 449.726 Q27.4968 445.652 27.4968 439.191 Q27.4968 435.244 29.0564 432.443 Q30.5842 429.61 33.7671 427.764 M46.212 447.721 Q52.6732 447.721 56.3653 445.079 Q60.0256 442.405 60.0256 437.758 Q60.0256 433.111 56.3653 430.438 Q52.6732 427.764 46.212 427.764 Q39.7508 427.764 36.0905 430.438 Q32.3984 433.111 32.3984 437.758 Q32.3984 442.405 36.0905 445.079 Q39.7508 447.721 46.212 447.721 Z" fill="#000000" fill-rule="nonzero" fill-opacity="1" /><path clip-path="url(#clip970)" d="M29.4065 387.119 L34.9447 387.119 Q33.6716 389.602 33.035 392.275 Q32.3984 394.949 32.3984 397.814 Q32.3984 402.174 33.7352 404.37 Q35.072 406.535 37.7456 406.535 Q39.7826 406.535 40.9603 404.975 Q42.1061 403.415 43.1565 398.705 L43.6021 396.7 Q44.9389 390.461 47.3897 387.851 Q49.8086 385.21 54.1691 385.21 Q59.1344 385.21 62.0308 389.156 Q64.9272 393.071 64.9272 399.946 Q64.9272 402.811 64.3543 405.93 Q63.8132 409.017 62.6992 412.455 L56.6518 412.455 Q58.3387 409.208 59.198 406.057 Q60.0256 402.906 60.0256 399.819 Q60.0256 395.681 58.6251 393.453 Q57.1929 391.225 54.6147 391.225 Q52.2276 391.225 50.9545 392.848 Q49.6813 394.44 48.5037 399.882 L48.0262 401.919 Q46.8804 407.362 44.5251 409.781 Q42.138 412.2 38.0002 412.2 Q32.9713 412.2 30.2341 408.635 Q27.4968 405.071 27.4968 398.514 Q27.4968 395.267 27.9743 392.403 Q28.4517 389.538 29.4065 387.119 Z" fill="#000000" fill-rule="nonzero" fill-opacity="1" /><path clip-path="url(#clip970)" d="M14.5426 376.807 L14.5426 371.714 Q22.0542 366.94 29.2474 364.585 Q36.4406 362.197 43.5384 362.197 Q50.668 362.197 57.8931 364.585 Q65.1182 366.94 72.5979 371.714 L72.5979 376.807 Q65.3091 372.574 58.1159 370.505 Q50.8908 368.404 43.5384 368.404 Q36.186 368.404 29.0246 370.505 Q21.8632 372.574 14.5426 376.807 Z" fill="#000000" fill-rule="nonzero" fill-opacity="1" /><polyline clip-path="url(#clip972)" style="stroke:#009af9; stroke-linecap:round; stroke-linejoin:round; stroke-width:4; stroke-opacity:1; fill:none" points="264.778,1347.13 305.731,1383.26 387.637,1364.3 449.066,1370.22 858.594,1239.16 1677.65,737.831 2291.94,86.1857 "/>
<polyline clip-path="url(#clip972)" style="stroke:#e26f46; stroke-linecap:round; stroke-linejoin:round; stroke-width:4; stroke-opacity:1; fill:none" points="264.778,1333.87 305.731,1383.54 387.637,1376.1 449.066,1370.59 858.594,1271.84 1677.65,775.95 2291.94,151.276 "/>
<polyline clip-path="url(#clip972)" style="stroke:#3da44d; stroke-linecap:round; stroke-linejoin:round; stroke-width:4; stroke-opacity:1; fill:none" points="264.778,1197.55 305.731,1384.24 387.637,1381.09 449.066,1379.9 858.594,1368.48 1677.65,1344.8 2291.94,1325.68 "/>
<path clip-path="url(#clip970)" d="M275.59 300.469 L1158.08 300.469 L1158.08 93.1086 L275.59 93.1086  Z" fill="#ffffff" fill-rule="evenodd" fill-opacity="1"/>
<polyline clip-path="url(#clip970)" style="stroke:#000000; stroke-linecap:round; stroke-linejoin:round; stroke-width:4; stroke-opacity:1; fill:none" points="275.59,300.469 1158.08,300.469 1158.08,93.1086 275.59,93.1086 275.59,300.469 "/>
<polyline clip-path="url(#clip970)" style="stroke:#009af9; stroke-linecap:round; stroke-linejoin:round; stroke-width:4; stroke-opacity:1; fill:none" points="299.465,144.949 442.718,144.949 "/>
<path clip-path="url(#clip970)" d="M478.492 139.289 Q475.066 139.289 473.075 141.974 Q471.084 144.636 471.084 149.289 Q471.084 153.942 473.052 156.627 Q475.043 159.289 478.492 159.289 Q481.895 159.289 483.885 156.604 Q485.876 153.918 485.876 149.289 Q485.876 144.682 483.885 141.997 Q481.895 139.289 478.492 139.289 M478.492 135.678 Q484.047 135.678 487.219 139.289 Q490.39 142.9 490.39 149.289 Q490.39 155.655 487.219 159.289 Q484.047 162.9 478.492 162.9 Q472.913 162.9 469.742 159.289 Q466.594 155.655 466.594 149.289 Q466.594 142.9 469.742 139.289 Q472.913 135.678 478.492 135.678 Z" fill="#000000" fill-rule="nonzero" fill-opacity="1" /><path clip-path="url(#clip970)" d="M512.473 140.284 Q511.756 139.868 510.899 139.682 Q510.066 139.474 509.047 139.474 Q505.436 139.474 503.492 141.835 Q501.57 144.173 501.57 148.571 L501.57 162.229 L497.288 162.229 L497.288 136.303 L501.57 136.303 L501.57 140.331 Q502.913 137.969 505.066 136.835 Q507.219 135.678 510.297 135.678 Q510.737 135.678 511.269 135.747 Q511.802 135.794 512.45 135.909 L512.473 140.284 Z" fill="#000000" fill-rule="nonzero" fill-opacity="1" /><path clip-path="url(#clip970)" d="M516.941 136.303 L521.2 136.303 L521.2 162.229 L516.941 162.229 L516.941 136.303 M516.941 126.21 L521.2 126.21 L521.2 131.604 L516.941 131.604 L516.941 126.21 Z" fill="#000000" fill-rule="nonzero" fill-opacity="1" /><path clip-path="url(#clip970)" d="M547.172 148.965 Q547.172 144.335 545.251 141.789 Q543.353 139.243 539.904 139.243 Q536.478 139.243 534.556 141.789 Q532.658 144.335 532.658 148.965 Q532.658 153.571 534.556 156.118 Q536.478 158.664 539.904 158.664 Q543.353 158.664 545.251 156.118 Q547.172 153.571 547.172 148.965 M551.431 159.011 Q551.431 165.631 548.491 168.849 Q545.552 172.09 539.487 172.09 Q537.242 172.09 535.251 171.742 Q533.26 171.418 531.385 170.724 L531.385 166.58 Q533.26 167.599 535.089 168.085 Q536.917 168.571 538.816 168.571 Q543.005 168.571 545.089 166.372 Q547.172 164.196 547.172 159.775 L547.172 157.668 Q545.853 159.96 543.792 161.094 Q541.732 162.229 538.862 162.229 Q534.093 162.229 531.177 158.594 Q528.26 154.96 528.26 148.965 Q528.26 142.946 531.177 139.312 Q534.093 135.678 538.862 135.678 Q541.732 135.678 543.792 136.812 Q545.853 137.946 547.172 140.238 L547.172 136.303 L551.431 136.303 L551.431 159.011 Z" fill="#000000" fill-rule="nonzero" fill-opacity="1" /><path clip-path="url(#clip970)" d="M560.204 136.303 L564.464 136.303 L564.464 162.229 L560.204 162.229 L560.204 136.303 M560.204 126.21 L564.464 126.21 L564.464 131.604 L560.204 131.604 L560.204 126.21 Z" fill="#000000" fill-rule="nonzero" fill-opacity="1" /><path clip-path="url(#clip970)" d="M594.926 146.581 L594.926 162.229 L590.667 162.229 L590.667 146.719 Q590.667 143.039 589.232 141.21 Q587.797 139.382 584.926 139.382 Q581.477 139.382 579.487 141.581 Q577.496 143.78 577.496 147.576 L577.496 162.229 L573.214 162.229 L573.214 136.303 L577.496 136.303 L577.496 140.331 Q579.024 137.993 581.084 136.835 Q583.167 135.678 585.876 135.678 Q590.343 135.678 592.635 138.456 Q594.926 141.21 594.926 146.581 Z" fill="#000000" fill-rule="nonzero" fill-opacity="1" /><path clip-path="url(#clip970)" d="M615.204 149.196 Q610.042 149.196 608.051 150.377 Q606.061 151.557 606.061 154.405 Q606.061 156.673 607.542 158.016 Q609.047 159.335 611.616 159.335 Q615.158 159.335 617.287 156.835 Q619.44 154.312 619.44 150.145 L619.44 149.196 L615.204 149.196 M623.699 147.437 L623.699 162.229 L619.44 162.229 L619.44 158.293 Q617.982 160.655 615.806 161.789 Q613.63 162.9 610.482 162.9 Q606.5 162.9 604.139 160.678 Q601.801 158.432 601.801 154.682 Q601.801 150.307 604.718 148.085 Q607.658 145.863 613.468 145.863 L619.44 145.863 L619.44 145.446 Q619.44 142.507 617.496 140.909 Q615.574 139.289 612.079 139.289 Q609.857 139.289 607.75 139.821 Q605.644 140.354 603.699 141.419 L603.699 137.483 Q606.037 136.581 608.237 136.141 Q610.436 135.678 612.519 135.678 Q618.144 135.678 620.922 138.594 Q623.699 141.511 623.699 147.437 Z" fill="#000000" fill-rule="nonzero" fill-opacity="1" /><path clip-path="url(#clip970)" d="M632.472 126.21 L636.732 126.21 L636.732 162.229 L632.472 162.229 L632.472 126.21 Z" fill="#000000" fill-rule="nonzero" fill-opacity="1" /><polyline clip-path="url(#clip970)" style="stroke:#e26f46; stroke-linecap:round; stroke-linejoin:round; stroke-width:4; stroke-opacity:1; fill:none" points="299.465,196.789 442.718,196.789 "/>
<path clip-path="url(#clip970)" d="M466.594 188.143 L470.853 188.143 L476.177 208.374 L481.478 188.143 L486.501 188.143 L491.825 208.374 L497.126 188.143 L501.385 188.143 L494.603 214.069 L489.58 214.069 L484.001 192.819 L478.399 214.069 L473.376 214.069 L466.594 188.143 Z" fill="#000000" fill-rule="nonzero" fill-opacity="1" /><path clip-path="url(#clip970)" d="M507.844 188.143 L512.103 188.143 L512.103 214.069 L507.844 214.069 L507.844 188.143 M507.844 178.05 L512.103 178.05 L512.103 183.444 L507.844 183.444 L507.844 178.05 Z" fill="#000000" fill-rule="nonzero" fill-opacity="1" /><path clip-path="url(#clip970)" d="M525.228 180.782 L525.228 188.143 L534.001 188.143 L534.001 191.453 L525.228 191.453 L525.228 205.527 Q525.228 208.698 526.084 209.601 Q526.964 210.504 529.626 210.504 L534.001 210.504 L534.001 214.069 L529.626 214.069 Q524.695 214.069 522.82 212.24 Q520.945 210.388 520.945 205.527 L520.945 191.453 L517.82 191.453 L517.82 188.143 L520.945 188.143 L520.945 180.782 L525.228 180.782 Z" fill="#000000" fill-rule="nonzero" fill-opacity="1" /><path clip-path="url(#clip970)" d="M561.153 198.421 L561.153 214.069 L556.894 214.069 L556.894 198.559 Q556.894 194.879 555.459 193.05 Q554.024 191.222 551.153 191.222 Q547.704 191.222 545.714 193.421 Q543.723 195.62 543.723 199.416 L543.723 214.069 L539.441 214.069 L539.441 178.05 L543.723 178.05 L543.723 192.171 Q545.251 189.833 547.311 188.675 Q549.394 187.518 552.103 187.518 Q556.57 187.518 558.862 190.296 Q561.153 193.05 561.153 198.421 Z" fill="#000000" fill-rule="nonzero" fill-opacity="1" /><path clip-path="url(#clip970)" d="M604.903 193.12 Q606.5 190.249 608.723 188.884 Q610.945 187.518 613.954 187.518 Q618.005 187.518 620.204 190.365 Q622.403 193.189 622.403 198.421 L622.403 214.069 L618.121 214.069 L618.121 198.559 Q618.121 194.833 616.801 193.027 Q615.482 191.222 612.774 191.222 Q609.463 191.222 607.542 193.421 Q605.621 195.62 605.621 199.416 L605.621 214.069 L601.338 214.069 L601.338 198.559 Q601.338 194.809 600.019 193.027 Q598.7 191.222 595.945 191.222 Q592.681 191.222 590.76 193.444 Q588.838 195.643 588.838 199.416 L588.838 214.069 L584.556 214.069 L584.556 188.143 L588.838 188.143 L588.838 192.171 Q590.297 189.786 592.334 188.652 Q594.371 187.518 597.172 187.518 Q599.996 187.518 601.963 188.953 Q603.954 190.388 604.903 193.12 Z" fill="#000000" fill-rule="nonzero" fill-opacity="1" /><path clip-path="url(#clip970)" d="M642.681 201.036 Q637.519 201.036 635.528 202.217 Q633.537 203.397 633.537 206.245 Q633.537 208.513 635.019 209.856 Q636.523 211.175 639.093 211.175 Q642.634 211.175 644.764 208.675 Q646.917 206.152 646.917 201.985 L646.917 201.036 L642.681 201.036 M651.176 199.277 L651.176 214.069 L646.917 214.069 L646.917 210.133 Q645.459 212.495 643.283 213.629 Q641.107 214.74 637.959 214.74 Q633.977 214.74 631.616 212.518 Q629.278 210.272 629.278 206.522 Q629.278 202.147 632.195 199.925 Q635.135 197.703 640.945 197.703 L646.917 197.703 L646.917 197.286 Q646.917 194.347 644.972 192.749 Q643.051 191.129 639.556 191.129 Q637.334 191.129 635.227 191.661 Q633.121 192.194 631.176 193.259 L631.176 189.323 Q633.514 188.421 635.713 187.981 Q637.912 187.518 639.996 187.518 Q645.621 187.518 648.398 190.434 Q651.176 193.351 651.176 199.277 Z" fill="#000000" fill-rule="nonzero" fill-opacity="1" /><path clip-path="url(#clip970)" d="M664.07 210.18 L664.07 223.93 L659.787 223.93 L659.787 188.143 L664.07 188.143 L664.07 192.078 Q665.412 189.763 667.449 188.652 Q669.509 187.518 672.357 187.518 Q677.079 187.518 680.019 191.268 Q682.981 195.018 682.981 201.129 Q682.981 207.24 680.019 210.99 Q677.079 214.74 672.357 214.74 Q669.509 214.74 667.449 213.629 Q665.412 212.495 664.07 210.18 M678.56 201.129 Q678.56 196.43 676.616 193.768 Q674.694 191.083 671.315 191.083 Q667.935 191.083 665.991 193.768 Q664.07 196.43 664.07 201.129 Q664.07 205.828 665.991 208.513 Q667.935 211.175 671.315 211.175 Q674.694 211.175 676.616 208.513 Q678.56 205.828 678.56 201.129 Z" fill="#000000" fill-rule="nonzero" fill-opacity="1" /><polyline clip-path="url(#clip970)" style="stroke:#3da44d; stroke-linecap:round; stroke-linejoin:round; stroke-width:4; stroke-opacity:1; fill:none" points="299.465,248.629 442.718,248.629 "/>
<path clip-path="url(#clip970)" d="M466.594 239.983 L470.853 239.983 L476.177 260.214 L481.478 239.983 L486.501 239.983 L491.825 260.214 L497.126 239.983 L501.385 239.983 L494.603 265.909 L489.58 265.909 L484.001 244.659 L478.399 265.909 L473.376 265.909 L466.594 239.983 Z" fill="#000000" fill-rule="nonzero" fill-opacity="1" /><path clip-path="url(#clip970)" d="M507.844 239.983 L512.103 239.983 L512.103 265.909 L507.844 265.909 L507.844 239.983 M507.844 229.89 L512.103 229.89 L512.103 235.284 L507.844 235.284 L507.844 229.89 Z" fill="#000000" fill-rule="nonzero" fill-opacity="1" /><path clip-path="url(#clip970)" d="M525.228 232.622 L525.228 239.983 L534.001 239.983 L534.001 243.293 L525.228 243.293 L525.228 257.367 Q525.228 260.538 526.084 261.441 Q526.964 262.344 529.626 262.344 L534.001 262.344 L534.001 265.909 L529.626 265.909 Q524.695 265.909 522.82 264.08 Q520.945 262.228 520.945 257.367 L520.945 243.293 L517.82 243.293 L517.82 239.983 L520.945 239.983 L520.945 232.622 L525.228 232.622 Z" fill="#000000" fill-rule="nonzero" fill-opacity="1" /><path clip-path="url(#clip970)" d="M561.153 250.261 L561.153 265.909 L556.894 265.909 L556.894 250.399 Q556.894 246.719 555.459 244.89 Q554.024 243.062 551.153 243.062 Q547.704 243.062 545.714 245.261 Q543.723 247.46 543.723 251.256 L543.723 265.909 L539.441 265.909 L539.441 229.89 L543.723 229.89 L543.723 244.011 Q545.251 241.673 547.311 240.515 Q549.394 239.358 552.103 239.358 Q556.57 239.358 558.862 242.136 Q561.153 244.89 561.153 250.261 Z" fill="#000000" fill-rule="nonzero" fill-opacity="1" /><path clip-path="url(#clip970)" d="M604.903 244.96 Q606.5 242.089 608.723 240.724 Q610.945 239.358 613.954 239.358 Q618.005 239.358 620.204 242.205 Q622.403 245.029 622.403 250.261 L622.403 265.909 L618.121 265.909 L618.121 250.399 Q618.121 246.673 616.801 244.867 Q615.482 243.062 612.774 243.062 Q609.463 243.062 607.542 245.261 Q605.621 247.46 605.621 251.256 L605.621 265.909 L601.338 265.909 L601.338 250.399 Q601.338 246.649 600.019 244.867 Q598.7 243.062 595.945 243.062 Q592.681 243.062 590.76 245.284 Q588.838 247.483 588.838 251.256 L588.838 265.909 L584.556 265.909 L584.556 239.983 L588.838 239.983 L588.838 244.011 Q590.297 241.626 592.334 240.492 Q594.371 239.358 597.172 239.358 Q599.996 239.358 601.963 240.793 Q603.954 242.228 604.903 244.96 Z" fill="#000000" fill-rule="nonzero" fill-opacity="1" /><path clip-path="url(#clip970)" d="M642.681 252.876 Q637.519 252.876 635.528 254.057 Q633.537 255.237 633.537 258.085 Q633.537 260.353 635.019 261.696 Q636.523 263.015 639.093 263.015 Q642.634 263.015 644.764 260.515 Q646.917 257.992 646.917 253.825 L646.917 252.876 L642.681 252.876 M651.176 251.117 L651.176 265.909 L646.917 265.909 L646.917 261.973 Q645.459 264.335 643.283 265.469 Q641.107 266.58 637.959 266.58 Q633.977 266.58 631.616 264.358 Q629.278 262.112 629.278 258.362 Q629.278 253.987 632.195 251.765 Q635.135 249.543 640.945 249.543 L646.917 249.543 L646.917 249.126 Q646.917 246.187 644.972 244.589 Q643.051 242.969 639.556 242.969 Q637.334 242.969 635.227 243.501 Q633.121 244.034 631.176 245.099 L631.176 241.163 Q633.514 240.261 635.713 239.821 Q637.912 239.358 639.996 239.358 Q645.621 239.358 648.398 242.274 Q651.176 245.191 651.176 251.117 Z" fill="#000000" fill-rule="nonzero" fill-opacity="1" /><path clip-path="url(#clip970)" d="M664.07 262.02 L664.07 275.77 L659.787 275.77 L659.787 239.983 L664.07 239.983 L664.07 243.918 Q665.412 241.603 667.449 240.492 Q669.509 239.358 672.357 239.358 Q677.079 239.358 680.019 243.108 Q682.981 246.858 682.981 252.969 Q682.981 259.08 680.019 262.83 Q677.079 266.58 672.357 266.58 Q669.509 266.58 667.449 265.469 Q665.412 264.335 664.07 262.02 M678.56 252.969 Q678.56 248.27 676.616 245.608 Q674.694 242.923 671.315 242.923 Q667.935 242.923 665.991 245.608 Q664.07 248.27 664.07 252.969 Q664.07 257.668 665.991 260.353 Q667.935 263.015 671.315 263.015 Q674.694 263.015 676.616 260.353 Q678.56 257.668 678.56 252.969 Z" fill="#000000" fill-rule="nonzero" fill-opacity="1" /><path clip-path="url(#clip970)" d="M716.893 252.876 Q711.731 252.876 709.741 254.057 Q707.75 255.237 707.75 258.085 Q707.75 260.353 709.231 261.696 Q710.736 263.015 713.305 263.015 Q716.847 263.015 718.977 260.515 Q721.129 257.992 721.129 253.825 L721.129 252.876 L716.893 252.876 M725.389 251.117 L725.389 265.909 L721.129 265.909 L721.129 261.973 Q719.671 264.335 717.495 265.469 Q715.319 266.58 712.171 266.58 Q708.19 266.58 705.829 264.358 Q703.491 262.112 703.491 258.362 Q703.491 253.987 706.407 251.765 Q709.347 249.543 715.157 249.543 L721.129 249.543 L721.129 249.126 Q721.129 246.187 719.185 244.589 Q717.264 242.969 713.768 242.969 Q711.546 242.969 709.44 243.501 Q707.333 244.034 705.389 245.099 L705.389 241.163 Q707.727 240.261 709.926 239.821 Q712.125 239.358 714.208 239.358 Q719.833 239.358 722.611 242.274 Q725.389 245.191 725.389 251.117 Z" fill="#000000" fill-rule="nonzero" fill-opacity="1" /><path clip-path="url(#clip970)" d="M755.713 250.261 L755.713 265.909 L751.453 265.909 L751.453 250.399 Q751.453 246.719 750.018 244.89 Q748.583 243.062 745.713 243.062 Q742.264 243.062 740.273 245.261 Q738.282 247.46 738.282 251.256 L738.282 265.909 L734 265.909 L734 239.983 L738.282 239.983 L738.282 244.011 Q739.81 241.673 741.87 240.515 Q743.953 239.358 746.662 239.358 Q751.129 239.358 753.421 242.136 Q755.713 244.89 755.713 250.261 Z" fill="#000000" fill-rule="nonzero" fill-opacity="1" /><path clip-path="url(#clip970)" d="M781.268 243.918 L781.268 229.89 L785.527 229.89 L785.527 265.909 L781.268 265.909 L781.268 262.02 Q779.925 264.335 777.865 265.469 Q775.828 266.58 772.958 266.58 Q768.259 266.58 765.296 262.83 Q762.356 259.08 762.356 252.969 Q762.356 246.858 765.296 243.108 Q768.259 239.358 772.958 239.358 Q775.828 239.358 777.865 240.492 Q779.925 241.603 781.268 243.918 M766.754 252.969 Q766.754 257.668 768.675 260.353 Q770.62 263.015 774 263.015 Q777.379 263.015 779.324 260.353 Q781.268 257.668 781.268 252.969 Q781.268 248.27 779.324 245.608 Q777.379 242.923 774 242.923 Q770.62 242.923 768.675 245.608 Q766.754 248.27 766.754 252.969 Z" fill="#000000" fill-rule="nonzero" fill-opacity="1" /><path clip-path="url(#clip970)" d="M825.897 240.747 L825.897 244.774 Q824.092 243.849 822.147 243.386 Q820.203 242.923 818.12 242.923 Q814.948 242.923 813.351 243.895 Q811.777 244.867 811.777 246.811 Q811.777 248.293 812.911 249.149 Q814.046 249.983 817.471 250.747 L818.93 251.071 Q823.467 252.043 825.365 253.825 Q827.286 255.585 827.286 258.756 Q827.286 262.367 824.416 264.473 Q821.569 266.58 816.569 266.58 Q814.485 266.58 812.217 266.163 Q809.972 265.77 807.472 264.96 L807.472 260.561 Q809.833 261.788 812.124 262.413 Q814.416 263.015 816.661 263.015 Q819.671 263.015 821.291 261.997 Q822.911 260.955 822.911 259.08 Q822.911 257.344 821.731 256.418 Q820.573 255.492 816.615 254.636 L815.134 254.288 Q811.175 253.455 809.416 251.742 Q807.657 250.006 807.657 246.997 Q807.657 243.339 810.249 241.349 Q812.842 239.358 817.61 239.358 Q819.971 239.358 822.055 239.705 Q824.138 240.052 825.897 240.747 Z" fill="#000000" fill-rule="nonzero" fill-opacity="1" /><path clip-path="url(#clip970)" d="M838.282 232.622 L838.282 239.983 L847.055 239.983 L847.055 243.293 L838.282 243.293 L838.282 257.367 Q838.282 260.538 839.138 261.441 Q840.018 262.344 842.68 262.344 L847.055 262.344 L847.055 265.909 L842.68 265.909 Q837.749 265.909 835.874 264.08 Q833.999 262.228 833.999 257.367 L833.999 243.293 L830.874 243.293 L830.874 239.983 L833.999 239.983 L833.999 232.622 L838.282 232.622 Z" fill="#000000" fill-rule="nonzero" fill-opacity="1" /><path clip-path="url(#clip970)" d="M864.439 252.876 Q859.277 252.876 857.286 254.057 Q855.295 255.237 855.295 258.085 Q855.295 260.353 856.777 261.696 Q858.281 263.015 860.851 263.015 Q864.393 263.015 866.522 260.515 Q868.675 257.992 868.675 253.825 L868.675 252.876 L864.439 252.876 M872.934 251.117 L872.934 265.909 L868.675 265.909 L868.675 261.973 Q867.217 264.335 865.041 265.469 Q862.865 266.58 859.717 266.58 Q855.735 266.58 853.374 264.358 Q851.036 262.112 851.036 258.362 Q851.036 253.987 853.953 251.765 Q856.893 249.543 862.703 249.543 L868.675 249.543 L868.675 249.126 Q868.675 246.187 866.73 244.589 Q864.809 242.969 861.314 242.969 Q859.092 242.969 856.985 243.501 Q854.879 244.034 852.934 245.099 L852.934 241.163 Q855.272 240.261 857.471 239.821 Q859.67 239.358 861.754 239.358 Q867.379 239.358 870.156 242.274 Q872.934 245.191 872.934 251.117 Z" fill="#000000" fill-rule="nonzero" fill-opacity="1" /><path clip-path="url(#clip970)" d="M885.92 232.622 L885.92 239.983 L894.693 239.983 L894.693 243.293 L885.92 243.293 L885.92 257.367 Q885.92 260.538 886.777 261.441 Q887.656 262.344 890.318 262.344 L894.693 262.344 L894.693 265.909 L890.318 265.909 Q885.388 265.909 883.513 264.08 Q881.638 262.228 881.638 257.367 L881.638 243.293 L878.513 243.293 L878.513 239.983 L881.638 239.983 L881.638 232.622 L885.92 232.622 Z" fill="#000000" fill-rule="nonzero" fill-opacity="1" /><path clip-path="url(#clip970)" d="M900.295 239.983 L904.554 239.983 L904.554 265.909 L900.295 265.909 L900.295 239.983 M900.295 229.89 L904.554 229.89 L904.554 235.284 L900.295 235.284 L900.295 229.89 Z" fill="#000000" fill-rule="nonzero" fill-opacity="1" /><path clip-path="url(#clip970)" d="M932.124 240.978 L932.124 244.96 Q930.318 243.964 928.489 243.478 Q926.684 242.969 924.832 242.969 Q920.689 242.969 918.397 245.608 Q916.105 248.224 916.105 252.969 Q916.105 257.714 918.397 260.353 Q920.689 262.969 924.832 262.969 Q926.684 262.969 928.489 262.483 Q930.318 261.973 932.124 260.978 L932.124 264.913 Q930.341 265.747 928.42 266.163 Q926.522 266.58 924.369 266.58 Q918.513 266.58 915.064 262.899 Q911.615 259.219 911.615 252.969 Q911.615 246.626 915.087 242.992 Q918.582 239.358 924.647 239.358 Q926.614 239.358 928.489 239.775 Q930.364 240.168 932.124 240.978 Z" fill="#000000" fill-rule="nonzero" fill-opacity="1" /><path clip-path="url(#clip970)" d="M964.647 242.969 Q961.221 242.969 959.23 245.654 Q957.239 248.316 957.239 252.969 Q957.239 257.622 959.207 260.307 Q961.198 262.969 964.647 262.969 Q968.049 262.969 970.04 260.284 Q972.031 257.598 972.031 252.969 Q972.031 248.362 970.04 245.677 Q968.049 242.969 964.647 242.969 M964.647 239.358 Q970.202 239.358 973.373 242.969 Q976.545 246.58 976.545 252.969 Q976.545 259.335 973.373 262.969 Q970.202 266.58 964.647 266.58 Q959.068 266.58 955.897 262.969 Q952.749 259.335 952.749 252.969 Q952.749 246.58 955.897 242.969 Q959.068 239.358 964.647 239.358 Z" fill="#000000" fill-rule="nonzero" fill-opacity="1" /><path clip-path="url(#clip970)" d="M983.165 255.677 L983.165 239.983 L987.424 239.983 L987.424 255.515 Q987.424 259.196 988.859 261.048 Q990.295 262.876 993.165 262.876 Q996.614 262.876 998.605 260.677 Q1000.62 258.478 1000.62 254.682 L1000.62 239.983 L1004.88 239.983 L1004.88 265.909 L1000.62 265.909 L1000.62 261.927 Q999.068 264.288 997.008 265.446 Q994.971 266.58 992.262 266.58 Q987.795 266.58 985.48 263.802 Q983.165 261.024 983.165 255.677 M993.883 239.358 L993.883 239.358 Z" fill="#000000" fill-rule="nonzero" fill-opacity="1" /><path clip-path="url(#clip970)" d="M1017.86 232.622 L1017.86 239.983 L1026.64 239.983 L1026.64 243.293 L1017.86 243.293 L1017.86 257.367 Q1017.86 260.538 1018.72 261.441 Q1019.6 262.344 1022.26 262.344 L1026.64 262.344 L1026.64 265.909 L1022.26 265.909 Q1017.33 265.909 1015.46 264.08 Q1013.58 262.228 1013.58 257.367 L1013.58 243.293 L1010.46 243.293 L1010.46 239.983 L1013.58 239.983 L1013.58 232.622 L1017.86 232.622 Z" fill="#000000" fill-rule="nonzero" fill-opacity="1" /><path clip-path="url(#clip970)" d="M1054.41 251.881 L1054.41 253.964 L1034.83 253.964 Q1035.11 258.362 1037.47 260.677 Q1039.85 262.969 1044.09 262.969 Q1046.54 262.969 1048.84 262.367 Q1051.15 261.765 1053.42 260.561 L1053.42 264.589 Q1051.13 265.561 1048.72 266.071 Q1046.31 266.58 1043.84 266.58 Q1037.63 266.58 1034 262.969 Q1030.39 259.358 1030.39 253.2 Q1030.39 246.835 1033.81 243.108 Q1037.26 239.358 1043.1 239.358 Q1048.33 239.358 1051.36 242.737 Q1054.41 246.094 1054.41 251.881 M1050.16 250.631 Q1050.11 247.136 1048.19 245.052 Q1046.29 242.969 1043.14 242.969 Q1039.58 242.969 1037.42 244.983 Q1035.29 246.997 1034.97 250.654 L1050.16 250.631 Z" fill="#000000" fill-rule="nonzero" fill-opacity="1" /><path clip-path="url(#clip970)" d="M1076.43 243.964 Q1075.71 243.548 1074.85 243.362 Q1074.02 243.154 1073 243.154 Q1069.39 243.154 1067.45 245.515 Q1065.53 247.853 1065.53 252.251 L1065.53 265.909 L1061.24 265.909 L1061.24 239.983 L1065.53 239.983 L1065.53 244.011 Q1066.87 241.649 1069.02 240.515 Q1071.17 239.358 1074.25 239.358 Q1074.69 239.358 1075.22 239.427 Q1075.76 239.474 1076.41 239.589 L1076.43 243.964 Z" fill="#000000" fill-rule="nonzero" fill-opacity="1" /><path clip-path="url(#clip970)" d="M1109.09 229.89 L1109.09 233.432 L1105.02 233.432 Q1102.72 233.432 1101.82 234.358 Q1100.94 235.284 1100.94 237.691 L1100.94 239.983 L1107.96 239.983 L1107.96 243.293 L1100.94 243.293 L1100.94 265.909 L1096.66 265.909 L1096.66 243.293 L1092.59 243.293 L1092.59 239.983 L1096.66 239.983 L1096.66 238.177 Q1096.66 233.849 1098.67 231.881 Q1100.69 229.89 1105.06 229.89 L1109.09 229.89 Z" fill="#000000" fill-rule="nonzero" fill-opacity="1" /><path clip-path="url(#clip970)" d="M1134.21 250.261 L1134.21 265.909 L1129.95 265.909 L1129.95 250.399 Q1129.95 246.719 1128.51 244.89 Q1127.08 243.062 1124.21 243.062 Q1120.76 243.062 1118.77 245.261 Q1116.78 247.46 1116.78 251.256 L1116.78 265.909 L1112.49 265.909 L1112.49 239.983 L1116.78 239.983 L1116.78 244.011 Q1118.3 241.673 1120.36 240.515 Q1122.45 239.358 1125.16 239.358 Q1129.62 239.358 1131.91 242.136 Q1134.21 244.89 1134.21 250.261 Z" fill="#000000" fill-rule="nonzero" fill-opacity="1" /></svg>
