<?xml version="1.0" encoding="utf-8"?>
<svg xmlns="http://www.w3.org/2000/svg" xmlns:xlink="http://www.w3.org/1999/xlink" width="600" height="400" viewBox="0 0 2400 1600">
<defs>
  <clipPath id="clip550">
    <rect x="0" y="0" width="2400" height="1600"/>
  </clipPath>
</defs>
<path clip-path="url(#clip550)" d="M0 1600 L2400 1600 L2400 0 L0 0  Z" fill="#ffffff" fill-rule="evenodd" fill-opacity="1"/>
<defs>
  <clipPath id="clip551">
    <rect x="480" y="0" width="1681" height="1600"/>
  </clipPath>
</defs>
<path clip-path="url(#clip550)" d="M156.598 1486.45 L2352.76 1486.45 L2352.76 123.472 L156.598 123.472  Z" fill="#ffffff" fill-rule="evenodd" fill-opacity="1"/>
<defs>
  <clipPath id="clip552">
    <rect x="156" y="123" width="2197" height="1364"/>
  </clipPath>
</defs>
<polyline clip-path="url(#clip552)" style="stroke:#000000; stroke-linecap:round; stroke-linejoin:round; stroke-width:2; stroke-opacity:0.1; fill:none" points="342.921,1486.45 342.921,123.472 "/>
<polyline clip-path="url(#clip552)" style="stroke:#000000; stroke-linecap:round; stroke-linejoin:round; stroke-width:2; stroke-opacity:0.1; fill:none" points="824.189,1486.45 824.189,123.472 "/>
<polyline clip-path="url(#clip552)" style="stroke:#000000; stroke-linecap:round; stroke-linejoin:round; stroke-width:2; stroke-opacity:0.1; fill:none" points="1305.46,1486.45 1305.46,123.472 "/>
<polyline clip-path="url(#clip552)" style="stroke:#000000; stroke-linecap:round; stroke-linejoin:round; stroke-width:2; stroke-opacity:0.1; fill:none" points="1786.73,1486.45 1786.73,123.472 "/>
<polyline clip-path="url(#clip552)" style="stroke:#000000; stroke-linecap:round; stroke-linejoin:round; stroke-width:2; stroke-opacity:0.1; fill:none" points="2267.99,1486.45 2267.99,123.472 "/>
<polyline clip-path="url(#clip552)" style="stroke:#000000; stroke-linecap:round; stroke-linejoin:round; stroke-width:2; stroke-opacity:0.1; fill:none" points="156.598,1447.87 2352.76,1447.87 "/>
<polyline clip-path="url(#clip552)" style="stroke:#000000; stroke-linecap:round; stroke-linejoin:round; stroke-width:2; stroke-opacity:0.1; fill:none" points="156.598,1177.17 2352.76,1177.17 "/>
<polyline clip-path="url(#clip552)" style="stroke:#000000; stroke-linecap:round; stroke-linejoin:round; stroke-width:2; stroke-opacity:0.1; fill:none" points="156.598,906.473 2352.76,906.473 "/>
<polyline clip-path="url(#clip552)" style="stroke:#000000; stroke-linecap:round; stroke-linejoin:round; stroke-width:2; stroke-opacity:0.1; fill:none" points="156.598,635.772 2352.76,635.772 "/>
<polyline clip-path="url(#clip552)" style="stroke:#000000; stroke-linecap:round; stroke-linejoin:round; stroke-width:2; stroke-opacity:0.1; fill:none" points="156.598,365.072 2352.76,365.072 "/>
<polyline clip-path="url(#clip550)" style="stroke:#000000; stroke-linecap:round; stroke-linejoin:round; stroke-width:4; stroke-opacity:1; fill:none" points="156.598,1486.45 2352.76,1486.45 "/>
<polyline clip-path="url(#clip550)" style="stroke:#000000; stroke-linecap:round; stroke-linejoin:round; stroke-width:4; stroke-opacity:1; fill:none" points="342.921,1486.45 342.921,1467.55 "/>
<polyline clip-path="url(#clip550)" style="stroke:#000000; stroke-linecap:round; stroke-linejoin:round; stroke-width:4; stroke-opacity:1; fill:none" points="824.189,1486.45 824.189,1467.55 "/>
<polyline clip-path="url(#clip550)" style="stroke:#000000; stroke-linecap:round; stroke-linejoin:round; stroke-width:4; stroke-opacity:1; fill:none" points="1305.46,1486.45 1305.46,1467.55 "/>
<polyline clip-path="url(#clip550)" style="stroke:#000000; stroke-linecap:round; stroke-linejoin:round; stroke-width:4; stroke-opacity:1; fill:none" points="1786.73,1486.45 1786.73,1467.55 "/>
<polyline clip-path="url(#clip550)" style="stroke:#000000; stroke-linecap:round; stroke-linejoin:round; stroke-width:4; stroke-opacity:1; fill:none" points="2267.99,1486.45 2267.99,1467.55 "/>
<path clip-path="url(#clip550)" d="M305.224 1517.37 Q301.613 1517.37 299.784 1520.93 Q297.979 1524.47 297.979 1531.6 Q297.979 1538.71 299.784 1542.27 Q301.613 1545.82 305.224 1545.82 Q308.858 1545.82 310.664 1542.27 Q312.493 1538.71 312.493 1531.6 Q312.493 1524.47 310.664 1520.93 Q308.858 1517.37 305.224 1517.37 M305.224 1513.66 Q311.034 1513.66 314.09 1518.27 Q317.168 1522.85 317.168 1531.6 Q317.168 1540.33 314.09 1544.94 Q311.034 1549.52 305.224 1549.52 Q299.414 1549.52 296.335 1544.94 Q293.28 1540.33 293.28 1531.6 Q293.28 1522.85 296.335 1518.27 Q299.414 1513.66 305.224 1513.66 Z" fill="#000000" fill-rule="nonzero" fill-opacity="1" /><path clip-path="url(#clip550)" d="M325.386 1542.97 L330.27 1542.97 L330.27 1548.85 L325.386 1548.85 L325.386 1542.97 Z" fill="#000000" fill-rule="nonzero" fill-opacity="1" /><path clip-path="url(#clip550)" d="M350.455 1517.37 Q346.844 1517.37 345.016 1520.93 Q343.21 1524.47 343.21 1531.6 Q343.21 1538.71 345.016 1542.27 Q346.844 1545.82 350.455 1545.82 Q354.09 1545.82 355.895 1542.27 Q357.724 1538.71 357.724 1531.6 Q357.724 1524.47 355.895 1520.93 Q354.09 1517.37 350.455 1517.37 M350.455 1513.66 Q356.265 1513.66 359.321 1518.27 Q362.4 1522.85 362.4 1531.6 Q362.4 1540.33 359.321 1544.94 Q356.265 1549.52 350.455 1549.52 Q344.645 1549.52 341.567 1544.94 Q338.511 1540.33 338.511 1531.6 Q338.511 1522.85 341.567 1518.27 Q344.645 1513.66 350.455 1513.66 Z" fill="#000000" fill-rule="nonzero" fill-opacity="1" /><path clip-path="url(#clip550)" d="M380.617 1517.37 Q377.006 1517.37 375.177 1520.93 Q373.372 1524.47 373.372 1531.6 Q373.372 1538.71 375.177 1542.27 Q377.006 1545.82 380.617 1545.82 Q384.251 1545.82 386.057 1542.27 Q387.886 1538.71 387.886 1531.6 Q387.886 1524.47 386.057 1520.93 Q384.251 1517.37 380.617 1517.37 M380.617 1513.66 Q386.427 1513.66 389.483 1518.27 Q392.562 1522.85 392.562 1531.6 Q392.562 1540.33 389.483 1544.94 Q386.427 1549.52 380.617 1549.52 Q374.807 1549.52 371.728 1544.94 Q368.673 1540.33 368.673 1531.6 Q368.673 1522.85 371.728 1518.27 Q374.807 1513.66 380.617 1513.66 Z" fill="#000000" fill-rule="nonzero" fill-opacity="1" /><path clip-path="url(#clip550)" d="M787.291 1517.37 Q783.68 1517.37 781.851 1520.93 Q780.046 1524.47 780.046 1531.6 Q780.046 1538.71 781.851 1542.27 Q783.68 1545.82 787.291 1545.82 Q790.925 1545.82 792.731 1542.27 Q794.56 1538.71 794.56 1531.6 Q794.56 1524.47 792.731 1520.93 Q790.925 1517.37 787.291 1517.37 M787.291 1513.66 Q793.101 1513.66 796.157 1518.27 Q799.235 1522.85 799.235 1531.6 Q799.235 1540.33 796.157 1544.94 Q793.101 1549.52 787.291 1549.52 Q781.481 1549.52 778.402 1544.94 Q775.347 1540.33 775.347 1531.6 Q775.347 1522.85 778.402 1518.27 Q781.481 1513.66 787.291 1513.66 Z" fill="#000000" fill-rule="nonzero" fill-opacity="1" /><path clip-path="url(#clip550)" d="M807.453 1542.97 L812.337 1542.97 L812.337 1548.85 L807.453 1548.85 L807.453 1542.97 Z" fill="#000000" fill-rule="nonzero" fill-opacity="1" /><path clip-path="url(#clip550)" d="M832.522 1517.37 Q828.911 1517.37 827.083 1520.93 Q825.277 1524.47 825.277 1531.6 Q825.277 1538.71 827.083 1542.27 Q828.911 1545.82 832.522 1545.82 Q836.157 1545.82 837.962 1542.27 Q839.791 1538.71 839.791 1531.6 Q839.791 1524.47 837.962 1520.93 Q836.157 1517.37 832.522 1517.37 M832.522 1513.66 Q838.332 1513.66 841.388 1518.27 Q844.467 1522.85 844.467 1531.6 Q844.467 1540.33 841.388 1544.94 Q838.332 1549.52 832.522 1549.52 Q826.712 1549.52 823.633 1544.94 Q820.578 1540.33 820.578 1531.6 Q820.578 1522.85 823.633 1518.27 Q826.712 1513.66 832.522 1513.66 Z" fill="#000000" fill-rule="nonzero" fill-opacity="1" /><path clip-path="url(#clip550)" d="M856.712 1544.91 L873.031 1544.91 L873.031 1548.85 L851.087 1548.85 L851.087 1544.91 Q853.749 1542.16 858.332 1537.53 Q862.939 1532.88 864.119 1531.53 Q866.365 1529.01 867.244 1527.27 Q868.147 1525.51 868.147 1523.82 Q868.147 1521.07 866.203 1519.33 Q864.281 1517.6 861.18 1517.6 Q858.981 1517.6 856.527 1518.36 Q854.096 1519.13 851.319 1520.68 L851.319 1515.95 Q854.143 1514.82 856.596 1514.24 Q859.05 1513.66 861.087 1513.66 Q866.457 1513.66 869.652 1516.35 Q872.846 1519.03 872.846 1523.52 Q872.846 1525.65 872.036 1527.57 Q871.249 1529.47 869.142 1532.07 Q868.564 1532.74 865.462 1535.95 Q862.36 1539.15 856.712 1544.91 Z" fill="#000000" fill-rule="nonzero" fill-opacity="1" /><path clip-path="url(#clip550)" d="M1267.52 1517.37 Q1263.91 1517.37 1262.08 1520.93 Q1260.27 1524.47 1260.27 1531.6 Q1260.27 1538.71 1262.08 1542.27 Q1263.91 1545.82 1267.52 1545.82 Q1271.15 1545.82 1272.96 1542.27 Q1274.79 1538.71 1274.79 1531.6 Q1274.79 1524.47 1272.96 1520.93 Q1271.15 1517.37 1267.52 1517.37 M1267.52 1513.66 Q1273.33 1513.66 1276.38 1518.27 Q1279.46 1522.85 1279.46 1531.6 Q1279.46 1540.33 1276.38 1544.94 Q1273.33 1549.52 1267.52 1549.52 Q1261.71 1549.52 1258.63 1544.94 Q1255.57 1540.33 1255.57 1531.6 Q1255.57 1522.85 1258.63 1518.27 Q1261.71 1513.66 1267.52 1513.66 Z" fill="#000000" fill-rule="nonzero" fill-opacity="1" /><path clip-path="url(#clip550)" d="M1287.68 1542.97 L1292.56 1542.97 L1292.56 1548.85 L1287.68 1548.85 L1287.68 1542.97 Z" fill="#000000" fill-rule="nonzero" fill-opacity="1" /><path clip-path="url(#clip550)" d="M1312.75 1517.37 Q1309.14 1517.37 1307.31 1520.93 Q1305.5 1524.47 1305.5 1531.6 Q1305.5 1538.71 1307.31 1542.27 Q1309.14 1545.82 1312.75 1545.82 Q1316.38 1545.82 1318.19 1542.27 Q1320.02 1538.71 1320.02 1531.6 Q1320.02 1524.47 1318.19 1520.93 Q1316.38 1517.37 1312.75 1517.37 M1312.75 1513.66 Q1318.56 1513.66 1321.61 1518.27 Q1324.69 1522.85 1324.69 1531.6 Q1324.69 1540.33 1321.61 1544.94 Q1318.56 1549.52 1312.75 1549.52 Q1306.94 1549.52 1303.86 1544.94 Q1300.8 1540.33 1300.8 1531.6 Q1300.8 1522.85 1303.86 1518.27 Q1306.94 1513.66 1312.75 1513.66 Z" fill="#000000" fill-rule="nonzero" fill-opacity="1" /><path clip-path="url(#clip550)" d="M1345.76 1518.36 L1333.95 1536.81 L1345.76 1536.81 L1345.76 1518.36 M1344.53 1514.29 L1350.41 1514.29 L1350.41 1536.81 L1355.34 1536.81 L1355.34 1540.7 L1350.41 1540.7 L1350.41 1548.85 L1345.76 1548.85 L1345.76 1540.7 L1330.16 1540.7 L1330.16 1536.19 L1344.53 1514.29 Z" fill="#000000" fill-rule="nonzero" fill-opacity="1" /><path clip-path="url(#clip550)" d="M1748.95 1517.37 Q1745.34 1517.37 1743.51 1520.93 Q1741.7 1524.47 1741.7 1531.6 Q1741.7 1538.71 1743.51 1542.27 Q1745.34 1545.82 1748.95 1545.82 Q1752.58 1545.82 1754.39 1542.27 Q1756.22 1538.71 1756.22 1531.6 Q1756.22 1524.47 1754.39 1520.93 Q1752.58 1517.37 1748.95 1517.37 M1748.95 1513.66 Q1754.76 1513.66 1757.81 1518.27 Q1760.89 1522.85 1760.89 1531.6 Q1760.89 1540.33 1757.81 1544.94 Q1754.76 1549.52 1748.95 1549.52 Q1743.14 1549.52 1740.06 1544.94 Q1737 1540.33 1737 1531.6 Q1737 1522.85 1740.06 1518.27 Q1743.14 1513.66 1748.95 1513.66 Z" fill="#000000" fill-rule="nonzero" fill-opacity="1" /><path clip-path="url(#clip550)" d="M1769.11 1542.97 L1773.99 1542.97 L1773.99 1548.85 L1769.11 1548.85 L1769.11 1542.97 Z" fill="#000000" fill-rule="nonzero" fill-opacity="1" /><path clip-path="url(#clip550)" d="M1794.18 1517.37 Q1790.57 1517.37 1788.74 1520.93 Q1786.93 1524.47 1786.93 1531.6 Q1786.93 1538.71 1788.74 1542.27 Q1790.57 1545.82 1794.18 1545.82 Q1797.81 1545.82 1799.62 1542.27 Q1801.45 1538.71 1801.45 1531.6 Q1801.45 1524.47 1799.62 1520.93 Q1797.81 1517.37 1794.18 1517.37 M1794.18 1513.66 Q1799.99 1513.66 1803.05 1518.27 Q1806.12 1522.85 1806.12 1531.6 Q1806.12 1540.33 1803.05 1544.94 Q1799.99 1549.52 1794.18 1549.52 Q1788.37 1549.52 1785.29 1544.94 Q1782.24 1540.33 1782.24 1531.6 Q1782.24 1522.85 1785.29 1518.27 Q1788.37 1513.66 1794.18 1513.66 Z" fill="#000000" fill-rule="nonzero" fill-opacity="1" /><path clip-path="url(#clip550)" d="M1824.92 1529.7 Q1821.77 1529.7 1819.92 1531.86 Q1818.09 1534.01 1818.09 1537.76 Q1818.09 1541.49 1819.92 1543.66 Q1821.77 1545.82 1824.92 1545.82 Q1828.07 1545.82 1829.9 1543.66 Q1831.75 1541.49 1831.75 1537.76 Q1831.75 1534.01 1829.9 1531.86 Q1828.07 1529.7 1824.92 1529.7 M1834.2 1515.05 L1834.2 1519.31 Q1832.44 1518.48 1830.64 1518.04 Q1828.86 1517.6 1827.1 1517.6 Q1822.47 1517.6 1820.01 1520.72 Q1817.58 1523.85 1817.23 1530.17 Q1818.6 1528.15 1820.66 1527.09 Q1822.72 1526 1825.2 1526 Q1830.41 1526 1833.42 1529.17 Q1836.45 1532.32 1836.45 1537.76 Q1836.45 1543.08 1833.3 1546.3 Q1830.15 1549.52 1824.92 1549.52 Q1818.92 1549.52 1815.75 1544.94 Q1812.58 1540.33 1812.58 1531.6 Q1812.58 1523.41 1816.47 1518.55 Q1820.36 1513.66 1826.91 1513.66 Q1828.67 1513.66 1830.45 1514.01 Q1832.26 1514.36 1834.2 1515.05 Z" fill="#000000" fill-rule="nonzero" fill-opacity="1" /><path clip-path="url(#clip550)" d="M2230.34 1517.37 Q2226.73 1517.37 2224.9 1520.93 Q2223.1 1524.47 2223.1 1531.6 Q2223.1 1538.71 2224.9 1542.27 Q2226.73 1545.82 2230.34 1545.82 Q2233.98 1545.82 2235.78 1542.27 Q2237.61 1538.71 2237.61 1531.6 Q2237.61 1524.47 2235.78 1520.93 Q2233.98 1517.37 2230.34 1517.37 M2230.34 1513.66 Q2236.15 1513.66 2239.21 1518.27 Q2242.29 1522.85 2242.29 1531.6 Q2242.29 1540.33 2239.21 1544.94 Q2236.15 1549.52 2230.34 1549.52 Q2224.53 1549.52 2221.46 1544.94 Q2218.4 1540.33 2218.4 1531.6 Q2218.4 1522.85 2221.46 1518.27 Q2224.53 1513.66 2230.34 1513.66 Z" fill="#000000" fill-rule="nonzero" fill-opacity="1" /><path clip-path="url(#clip550)" d="M2250.51 1542.97 L2255.39 1542.97 L2255.39 1548.85 L2250.51 1548.85 L2250.51 1542.97 Z" fill="#000000" fill-rule="nonzero" fill-opacity="1" /><path clip-path="url(#clip550)" d="M2275.58 1517.37 Q2271.96 1517.37 2270.14 1520.93 Q2268.33 1524.47 2268.33 1531.6 Q2268.33 1538.71 2270.14 1542.27 Q2271.96 1545.82 2275.58 1545.82 Q2279.21 1545.82 2281.01 1542.27 Q2282.84 1538.71 2282.84 1531.6 Q2282.84 1524.47 2281.01 1520.93 Q2279.21 1517.37 2275.58 1517.37 M2275.58 1513.66 Q2281.39 1513.66 2284.44 1518.27 Q2287.52 1522.85 2287.52 1531.6 Q2287.52 1540.33 2284.44 1544.94 Q2281.39 1549.52 2275.58 1549.52 Q2269.76 1549.52 2266.69 1544.94 Q2263.63 1540.33 2263.63 1531.6 Q2263.63 1522.85 2266.69 1518.27 Q2269.76 1513.66 2275.58 1513.66 Z" fill="#000000" fill-rule="nonzero" fill-opacity="1" /><path clip-path="url(#clip550)" d="M2305.74 1532.44 Q2302.4 1532.44 2300.48 1534.22 Q2298.58 1536 2298.58 1539.13 Q2298.58 1542.25 2300.48 1544.03 Q2302.4 1545.82 2305.74 1545.82 Q2309.07 1545.82 2310.99 1544.03 Q2312.91 1542.23 2312.91 1539.13 Q2312.91 1536 2310.99 1534.22 Q2309.09 1532.44 2305.74 1532.44 M2301.06 1530.45 Q2298.05 1529.7 2296.36 1527.64 Q2294.7 1525.58 2294.7 1522.62 Q2294.7 1518.48 2297.64 1516.07 Q2300.6 1513.66 2305.74 1513.66 Q2310.9 1513.66 2313.84 1516.07 Q2316.78 1518.48 2316.78 1522.62 Q2316.78 1525.58 2315.09 1527.64 Q2313.42 1529.7 2310.44 1530.45 Q2313.82 1531.23 2315.69 1533.52 Q2317.59 1535.82 2317.59 1539.13 Q2317.59 1544.15 2314.51 1546.83 Q2311.45 1549.52 2305.74 1549.52 Q2300.02 1549.52 2296.94 1546.83 Q2293.89 1544.15 2293.89 1539.13 Q2293.89 1535.82 2295.78 1533.52 Q2297.68 1531.23 2301.06 1530.45 M2299.35 1523.06 Q2299.35 1525.75 2301.01 1527.25 Q2302.7 1528.76 2305.74 1528.76 Q2308.75 1528.76 2310.44 1527.25 Q2312.15 1525.75 2312.15 1523.06 Q2312.15 1520.38 2310.44 1518.87 Q2308.75 1517.37 2305.74 1517.37 Q2302.7 1517.37 2301.01 1518.87 Q2299.35 1520.38 2299.35 1523.06 Z" fill="#000000" fill-rule="nonzero" fill-opacity="1" /><polyline clip-path="url(#clip550)" style="stroke:#000000; stroke-linecap:round; stroke-linejoin:round; stroke-width:4; stroke-opacity:1; fill:none" points="156.598,1486.45 156.598,123.472 "/>
<polyline clip-path="url(#clip550)" style="stroke:#000000; stroke-linecap:round; stroke-linejoin:round; stroke-width:4; stroke-opacity:1; fill:none" points="156.598,1447.87 175.496,1447.87 "/>
<polyline clip-path="url(#clip550)" style="stroke:#000000; stroke-linecap:round; stroke-linejoin:round; stroke-width:4; stroke-opacity:1; fill:none" points="156.598,1177.17 175.496,1177.17 "/>
<polyline clip-path="url(#clip550)" style="stroke:#000000; stroke-linecap:round; stroke-linejoin:round; stroke-width:4; stroke-opacity:1; fill:none" points="156.598,906.473 175.496,906.473 "/>
<polyline clip-path="url(#clip550)" style="stroke:#000000; stroke-linecap:round; stroke-linejoin:round; stroke-width:4; stroke-opacity:1; fill:none" points="156.598,635.772 175.496,635.772 "/>
<polyline clip-path="url(#clip550)" style="stroke:#000000; stroke-linecap:round; stroke-linejoin:round; stroke-width:4; stroke-opacity:1; fill:none" points="156.598,365.072 175.496,365.072 "/>
<path clip-path="url(#clip550)" d="M63.4226 1433.67 Q59.8115 1433.67 57.9828 1437.24 Q56.1773 1440.78 56.1773 1447.91 Q56.1773 1455.01 57.9828 1458.58 Q59.8115 1462.12 63.4226 1462.12 Q67.0569 1462.12 68.8624 1458.58 Q70.6911 1455.01 70.6911 1447.91 Q70.6911 1440.78 68.8624 1437.24 Q67.0569 1433.67 63.4226 1433.67 M63.4226 1429.97 Q69.2328 1429.97 72.2883 1434.57 Q75.367 1439.16 75.367 1447.91 Q75.367 1456.63 72.2883 1461.24 Q69.2328 1465.82 63.4226 1465.82 Q57.6125 1465.82 54.5338 1461.24 Q51.4782 1456.63 51.4782 1447.91 Q51.4782 1439.16 54.5338 1434.57 Q57.6125 1429.97 63.4226 1429.97 Z" fill="#000000" fill-rule="nonzero" fill-opacity="1" /><path clip-path="url(#clip550)" d="M83.5845 1459.27 L88.4688 1459.27 L88.4688 1465.15 L83.5845 1465.15 L83.5845 1459.27 Z" fill="#000000" fill-rule="nonzero" fill-opacity="1" /><path clip-path="url(#clip550)" d="M108.654 1433.67 Q105.043 1433.67 103.214 1437.24 Q101.409 1440.78 101.409 1447.91 Q101.409 1455.01 103.214 1458.58 Q105.043 1462.12 108.654 1462.12 Q112.288 1462.12 114.094 1458.58 Q115.922 1455.01 115.922 1447.91 Q115.922 1440.78 114.094 1437.24 Q112.288 1433.67 108.654 1433.67 M108.654 1429.97 Q114.464 1429.97 117.52 1434.57 Q120.598 1439.16 120.598 1447.91 Q120.598 1456.63 117.52 1461.24 Q114.464 1465.82 108.654 1465.82 Q102.844 1465.82 99.765 1461.24 Q96.7095 1456.63 96.7095 1447.91 Q96.7095 1439.16 99.765 1434.57 Q102.844 1429.97 108.654 1429.97 Z" fill="#000000" fill-rule="nonzero" fill-opacity="1" /><path clip-path="url(#clip550)" d="M65.0198 1162.97 Q61.4087 1162.97 59.58 1166.54 Q57.7745 1170.08 57.7745 1177.21 Q57.7745 1184.31 59.58 1187.88 Q61.4087 1191.42 65.0198 1191.42 Q68.6541 1191.42 70.4596 1187.88 Q72.2883 1184.31 72.2883 1177.21 Q72.2883 1170.08 70.4596 1166.54 Q68.6541 1162.97 65.0198 1162.97 M65.0198 1159.27 Q70.83 1159.27 73.8855 1163.87 Q76.9642 1168.46 76.9642 1177.21 Q76.9642 1185.93 73.8855 1190.54 Q70.83 1195.12 65.0198 1195.12 Q59.2097 1195.12 56.131 1190.54 Q53.0754 1185.93 53.0754 1177.21 Q53.0754 1168.46 56.131 1163.87 Q59.2097 1159.27 65.0198 1159.27 Z" fill="#000000" fill-rule="nonzero" fill-opacity="1" /><path clip-path="url(#clip550)" d="M85.1818 1188.57 L90.066 1188.57 L90.066 1194.45 L85.1818 1194.45 L85.1818 1188.57 Z" fill="#000000" fill-rule="nonzero" fill-opacity="1" /><path clip-path="url(#clip550)" d="M104.279 1190.52 L120.598 1190.52 L120.598 1194.45 L98.6539 1194.45 L98.6539 1190.52 Q101.316 1187.76 105.899 1183.13 Q110.506 1178.48 111.686 1177.14 Q113.932 1174.61 114.811 1172.88 Q115.714 1171.12 115.714 1169.43 Q115.714 1166.68 113.77 1164.94 Q111.848 1163.2 108.746 1163.2 Q106.547 1163.2 104.094 1163.97 Q101.663 1164.73 98.8854 1166.28 L98.8854 1161.56 Q101.709 1160.43 104.163 1159.85 Q106.617 1159.27 108.654 1159.27 Q114.024 1159.27 117.219 1161.95 Q120.413 1164.64 120.413 1169.13 Q120.413 1171.26 119.603 1173.18 Q118.816 1175.08 116.709 1177.67 Q116.131 1178.34 113.029 1181.56 Q109.927 1184.75 104.279 1190.52 Z" fill="#000000" fill-rule="nonzero" fill-opacity="1" /><path clip-path="url(#clip550)" d="M62.9365 892.271 Q59.3254 892.271 57.4967 895.836 Q55.6912 899.378 55.6912 906.507 Q55.6912 913.614 57.4967 917.179 Q59.3254 920.72 62.9365 920.72 Q66.5707 920.72 68.3763 917.179 Q70.205 913.614 70.205 906.507 Q70.205 899.378 68.3763 895.836 Q66.5707 892.271 62.9365 892.271 M62.9365 888.568 Q68.7467 888.568 71.8022 893.174 Q74.8809 897.757 74.8809 906.507 Q74.8809 915.234 71.8022 919.841 Q68.7467 924.424 62.9365 924.424 Q57.1264 924.424 54.0477 919.841 Q50.9921 915.234 50.9921 906.507 Q50.9921 897.757 54.0477 893.174 Q57.1264 888.568 62.9365 888.568 Z" fill="#000000" fill-rule="nonzero" fill-opacity="1" /><path clip-path="url(#clip550)" d="M83.0984 917.873 L87.9827 917.873 L87.9827 923.753 L83.0984 923.753 L83.0984 917.873 Z" fill="#000000" fill-rule="nonzero" fill-opacity="1" /><path clip-path="url(#clip550)" d="M111.015 893.267 L99.2095 911.716 L111.015 911.716 L111.015 893.267 M109.788 889.193 L115.668 889.193 L115.668 911.716 L120.598 911.716 L120.598 915.604 L115.668 915.604 L115.668 923.753 L111.015 923.753 L111.015 915.604 L95.4132 915.604 L95.4132 911.091 L109.788 889.193 Z" fill="#000000" fill-rule="nonzero" fill-opacity="1" /><path clip-path="url(#clip550)" d="M63.2606 621.571 Q59.6495 621.571 57.8208 625.136 Q56.0152 628.677 56.0152 635.807 Q56.0152 642.914 57.8208 646.478 Q59.6495 650.02 63.2606 650.02 Q66.8948 650.02 68.7004 646.478 Q70.5291 642.914 70.5291 635.807 Q70.5291 628.677 68.7004 625.136 Q66.8948 621.571 63.2606 621.571 M63.2606 617.867 Q69.0707 617.867 72.1263 622.474 Q75.205 627.057 75.205 635.807 Q75.205 644.534 72.1263 649.14 Q69.0707 653.724 63.2606 653.724 Q57.4504 653.724 54.3717 649.14 Q51.3162 644.534 51.3162 635.807 Q51.3162 627.057 54.3717 622.474 Q57.4504 617.867 63.2606 617.867 Z" fill="#000000" fill-rule="nonzero" fill-opacity="1" /><path clip-path="url(#clip550)" d="M83.4225 647.173 L88.3067 647.173 L88.3067 653.052 L83.4225 653.052 L83.4225 647.173 Z" fill="#000000" fill-rule="nonzero" fill-opacity="1" /><path clip-path="url(#clip550)" d="M109.071 633.909 Q105.922 633.909 104.071 636.062 Q102.242 638.214 102.242 641.964 Q102.242 645.691 104.071 647.867 Q105.922 650.02 109.071 650.02 Q112.219 650.02 114.047 647.867 Q115.899 645.691 115.899 641.964 Q115.899 638.214 114.047 636.062 Q112.219 633.909 109.071 633.909 M118.353 619.256 L118.353 623.515 Q116.594 622.682 114.788 622.242 Q113.006 621.803 111.246 621.803 Q106.617 621.803 104.163 624.927 Q101.733 628.052 101.385 634.372 Q102.751 632.358 104.811 631.293 Q106.871 630.205 109.348 630.205 Q114.557 630.205 117.566 633.377 Q120.598 636.525 120.598 641.964 Q120.598 647.288 117.45 650.506 Q114.302 653.724 109.071 653.724 Q103.075 653.724 99.9039 649.14 Q96.7326 644.534 96.7326 635.807 Q96.7326 627.613 100.621 622.752 Q104.51 617.867 111.061 617.867 Q112.82 617.867 114.603 618.215 Q116.408 618.562 118.353 619.256 Z" fill="#000000" fill-rule="nonzero" fill-opacity="1" /><path clip-path="url(#clip550)" d="M63.5152 350.871 Q59.9041 350.871 58.0754 354.436 Q56.2699 357.977 56.2699 365.107 Q56.2699 372.213 58.0754 375.778 Q59.9041 379.32 63.5152 379.32 Q67.1494 379.32 68.955 375.778 Q70.7837 372.213 70.7837 365.107 Q70.7837 357.977 68.955 354.436 Q67.1494 350.871 63.5152 350.871 M63.5152 347.167 Q69.3254 347.167 72.3809 351.774 Q75.4596 356.357 75.4596 365.107 Q75.4596 373.834 72.3809 378.44 Q69.3254 383.023 63.5152 383.023 Q57.7051 383.023 54.6264 378.44 Q51.5708 373.834 51.5708 365.107 Q51.5708 356.357 54.6264 351.774 Q57.7051 347.167 63.5152 347.167 Z" fill="#000000" fill-rule="nonzero" fill-opacity="1" /><path clip-path="url(#clip550)" d="M83.6771 376.472 L88.5614 376.472 L88.5614 382.352 L83.6771 382.352 L83.6771 376.472 Z" fill="#000000" fill-rule="nonzero" fill-opacity="1" /><path clip-path="url(#clip550)" d="M108.746 365.94 Q105.413 365.94 103.492 367.723 Q101.594 369.505 101.594 372.63 Q101.594 375.755 103.492 377.537 Q105.413 379.32 108.746 379.32 Q112.08 379.32 114.001 377.537 Q115.922 375.732 115.922 372.63 Q115.922 369.505 114.001 367.723 Q112.103 365.94 108.746 365.94 M104.071 363.949 Q101.061 363.209 99.3715 361.149 Q97.7048 359.088 97.7048 356.125 Q97.7048 351.982 100.645 349.574 Q103.608 347.167 108.746 347.167 Q113.908 347.167 116.848 349.574 Q119.788 351.982 119.788 356.125 Q119.788 359.088 118.098 361.149 Q116.432 363.209 113.445 363.949 Q116.825 364.736 118.7 367.028 Q120.598 369.32 120.598 372.63 Q120.598 377.653 117.52 380.338 Q114.464 383.023 108.746 383.023 Q103.029 383.023 99.9502 380.338 Q96.8947 377.653 96.8947 372.63 Q96.8947 369.32 98.7928 367.028 Q100.691 364.736 104.071 363.949 M102.358 356.565 Q102.358 359.25 104.024 360.755 Q105.714 362.26 108.746 362.26 Q111.756 362.26 113.445 360.755 Q115.158 359.25 115.158 356.565 Q115.158 353.88 113.445 352.375 Q111.756 350.871 108.746 350.871 Q105.714 350.871 104.024 352.375 Q102.358 353.88 102.358 356.565 Z" fill="#000000" fill-rule="nonzero" fill-opacity="1" /><path clip-path="url(#clip550)" d="M328.276 17.6457 Q319.364 17.6457 314.098 24.2892 Q308.872 30.9327 308.872 42.3968 Q308.872 53.8203 314.098 60.4638 Q319.364 67.1073 328.276 67.1073 Q337.188 67.1073 342.373 60.4638 Q347.599 53.8203 347.599 42.3968 Q347.599 30.9327 342.373 24.2892 Q337.188 17.6457 328.276 17.6457 M328.276 11.0023 Q340.996 11.0023 348.611 19.5497 Q356.227 28.0566 356.227 42.3968 Q356.227 56.6965 348.611 65.2439 Q340.996 73.7508 328.276 73.7508 Q315.515 73.7508 307.859 65.2439 Q300.244 56.737 300.244 42.3968 Q300.244 28.0566 307.859 19.5497 Q315.515 11.0023 328.276 11.0023 Z" fill="#000000" fill-rule="nonzero" fill-opacity="1" /><path clip-path="url(#clip550)" d="M401.273 49.9314 Q401.273 41.7081 397.87 37.0496 Q394.508 32.3505 388.594 32.3505 Q382.679 32.3505 379.277 37.0496 Q375.914 41.7081 375.914 49.9314 Q375.914 58.1548 379.277 62.8538 Q382.679 67.5124 388.594 67.5124 Q394.508 67.5124 397.87 62.8538 Q401.273 58.1548 401.273 49.9314 M375.914 34.0924 Q378.264 30.0415 381.829 28.0971 Q385.434 26.1121 390.417 26.1121 Q398.68 26.1121 403.825 32.6746 Q409.01 39.2371 409.01 49.9314 Q409.01 60.6258 403.825 67.1883 Q398.68 73.7508 390.417 73.7508 Q385.434 73.7508 381.829 71.8063 Q378.264 69.8214 375.914 65.7705 L375.914 72.576 L368.42 72.576 L368.42 9.54393 L375.914 9.54393 L375.914 34.0924 Z" fill="#000000" fill-rule="nonzero" fill-opacity="1" /><path clip-path="url(#clip550)" d="M450.289 28.5427 L450.289 35.5912 Q447.129 33.9709 443.727 33.1607 Q440.324 32.3505 436.678 32.3505 Q431.128 32.3505 428.333 34.0519 Q425.579 35.7533 425.579 39.156 Q425.579 41.7486 427.563 43.2475 Q429.548 44.7058 435.544 46.0426 L438.096 46.6097 Q446.036 48.3111 449.357 51.4303 Q452.72 54.509 452.72 60.0587 Q452.72 66.3781 447.696 70.0644 Q442.714 73.7508 433.964 73.7508 Q430.318 73.7508 426.348 73.0216 Q422.419 72.3329 418.044 70.9151 L418.044 63.2184 Q422.176 65.3654 426.186 66.4591 Q430.197 67.5124 434.126 67.5124 Q439.392 67.5124 442.228 65.73 Q445.063 63.9071 445.063 60.6258 Q445.063 57.5877 442.997 55.9673 Q440.972 54.3469 434.045 52.8481 L431.452 52.2405 Q424.525 50.7821 421.447 47.7845 Q418.368 44.7463 418.368 39.4801 Q418.368 33.0797 422.905 29.5959 Q427.442 26.1121 435.787 26.1121 Q439.919 26.1121 443.565 26.7198 Q447.21 27.3274 450.289 28.5427 Z" fill="#000000" fill-rule="nonzero" fill-opacity="1" /><path clip-path="url(#clip550)" d="M503.396 48.0275 L503.396 51.6733 L469.126 51.6733 Q469.612 59.3701 473.744 63.421 Q477.916 67.4314 485.329 67.4314 Q489.623 67.4314 493.634 66.3781 Q497.685 65.3249 501.654 63.2184 L501.654 70.267 Q497.644 71.9684 493.431 72.8596 Q489.218 73.7508 484.884 73.7508 Q474.027 73.7508 467.667 67.4314 Q461.348 61.1119 461.348 50.3365 Q461.348 39.1965 467.343 32.6746 Q473.379 26.1121 483.587 26.1121 Q492.742 26.1121 498.049 32.0264 Q503.396 37.9003 503.396 48.0275 M495.943 45.84 Q495.862 39.7232 492.499 36.0774 Q489.178 32.4315 483.668 32.4315 Q477.43 32.4315 473.663 35.9558 Q469.936 39.4801 469.369 45.8805 L495.943 45.84 Z" fill="#000000" fill-rule="nonzero" fill-opacity="1" /><path clip-path="url(#clip550)" d="M541.92 34.1734 Q540.665 33.4443 539.166 33.1202 Q537.708 32.7556 535.925 32.7556 Q529.606 32.7556 526.203 36.8875 Q522.841 40.9789 522.841 48.6757 L522.841 72.576 L515.347 72.576 L515.347 27.2059 L522.841 27.2059 L522.841 34.2544 Q525.19 30.1225 528.958 28.1376 Q532.725 26.1121 538.113 26.1121 Q538.882 26.1121 539.814 26.2337 Q540.746 26.3147 541.88 26.5172 L541.92 34.1734 Z" fill="#000000" fill-rule="nonzero" fill-opacity="1" /><path clip-path="url(#clip550)" d="M544.392 27.2059 L552.291 27.2059 L566.469 65.2844 L580.647 27.2059 L588.546 27.2059 L571.533 72.576 L561.405 72.576 L544.392 27.2059 Z" fill="#000000" fill-rule="nonzero" fill-opacity="1" /><path clip-path="url(#clip550)" d="M637.643 48.0275 L637.643 51.6733 L603.373 51.6733 Q603.859 59.3701 607.991 63.421 Q612.163 67.4314 619.576 67.4314 Q623.87 67.4314 627.881 66.3781 Q631.932 65.3249 635.901 63.2184 L635.901 70.267 Q631.891 71.9684 627.678 72.8596 Q623.465 73.7508 619.131 73.7508 Q608.274 73.7508 601.914 67.4314 Q595.595 61.1119 595.595 50.3365 Q595.595 39.1965 601.59 32.6746 Q607.626 26.1121 617.834 26.1121 Q626.989 26.1121 632.296 32.0264 Q637.643 37.9003 637.643 48.0275 M630.19 45.84 Q630.109 39.7232 626.746 36.0774 Q623.425 32.4315 617.915 32.4315 Q611.677 32.4315 607.91 35.9558 Q604.183 39.4801 603.616 45.8805 L630.19 45.84 Z" fill="#000000" fill-rule="nonzero" fill-opacity="1" /><path clip-path="url(#clip550)" d="M679.732 34.0924 L679.732 9.54393 L687.186 9.54393 L687.186 72.576 L679.732 72.576 L679.732 65.7705 Q677.383 69.8214 673.777 71.8063 Q670.213 73.7508 665.189 73.7508 Q656.966 73.7508 651.781 67.1883 Q646.636 60.6258 646.636 49.9314 Q646.636 39.2371 651.781 32.6746 Q656.966 26.1121 665.189 26.1121 Q670.213 26.1121 673.777 28.0971 Q677.383 30.0415 679.732 34.0924 M654.333 49.9314 Q654.333 58.1548 657.695 62.8538 Q661.098 67.5124 667.012 67.5124 Q672.927 67.5124 676.329 62.8538 Q679.732 58.1548 679.732 49.9314 Q679.732 41.7081 676.329 37.0496 Q672.927 32.3505 667.012 32.3505 Q661.098 32.3505 657.695 37.0496 Q654.333 41.7081 654.333 49.9314 Z" fill="#000000" fill-rule="nonzero" fill-opacity="1" /><path clip-path="url(#clip550)" d="M761.479 49.9314 Q761.479 41.7081 758.077 37.0496 Q754.714 32.3505 748.8 32.3505 Q742.886 32.3505 739.483 37.0496 Q736.121 41.7081 736.121 49.9314 Q736.121 58.1548 739.483 62.8538 Q742.886 67.5124 748.8 67.5124 Q754.714 67.5124 758.077 62.8538 Q761.479 58.1548 761.479 49.9314 M736.121 34.0924 Q738.47 30.0415 742.035 28.0971 Q745.64 26.1121 750.623 26.1121 Q758.887 26.1121 764.032 32.6746 Q769.217 39.2371 769.217 49.9314 Q769.217 60.6258 764.032 67.1883 Q758.887 73.7508 750.623 73.7508 Q745.64 73.7508 742.035 71.8063 Q738.47 69.8214 736.121 65.7705 L736.121 72.576 L728.627 72.576 L728.627 9.54393 L736.121 9.54393 L736.121 34.0924 Z" fill="#000000" fill-rule="nonzero" fill-opacity="1" /><path clip-path="url(#clip550)" d="M820.38 48.0275 L820.38 51.6733 L786.109 51.6733 Q786.595 59.3701 790.727 63.421 Q794.899 67.4314 802.313 67.4314 Q806.607 67.4314 810.617 66.3781 Q814.668 65.3249 818.638 63.2184 L818.638 70.267 Q814.627 71.9684 810.414 72.8596 Q806.201 73.7508 801.867 73.7508 Q791.011 73.7508 784.651 67.4314 Q778.331 61.1119 778.331 50.3365 Q778.331 39.1965 784.327 32.6746 Q790.362 26.1121 800.571 26.1121 Q809.726 26.1121 815.032 32.0264 Q820.38 37.9003 820.38 48.0275 M812.926 45.84 Q812.845 39.7232 809.483 36.0774 Q806.161 32.4315 800.652 32.4315 Q794.413 32.4315 790.646 35.9558 Q786.919 39.4801 786.352 45.8805 L812.926 45.84 Z" fill="#000000" fill-rule="nonzero" fill-opacity="1" /><path clip-path="url(#clip550)" d="M853.232 49.7694 Q844.199 49.7694 840.715 51.8354 Q837.231 53.9013 837.231 58.8839 Q837.231 62.8538 839.824 65.2034 Q842.457 67.5124 846.954 67.5124 Q853.151 67.5124 856.878 63.1374 Q860.646 58.7219 860.646 51.4303 L860.646 49.7694 L853.232 49.7694 M868.099 46.6907 L868.099 72.576 L860.646 72.576 L860.646 65.6895 Q858.094 69.8214 854.286 71.8063 Q850.478 73.7508 844.969 73.7508 Q838.001 73.7508 833.869 69.8619 Q829.778 65.9325 829.778 59.3701 Q829.778 51.7138 834.882 47.825 Q840.027 43.9361 850.194 43.9361 L860.646 43.9361 L860.646 43.2069 Q860.646 38.0623 857.243 35.2672 Q853.881 32.4315 847.764 32.4315 Q843.875 32.4315 840.189 33.3632 Q836.502 34.295 833.099 36.1584 L833.099 29.2718 Q837.191 27.692 841.039 26.9223 Q844.888 26.1121 848.533 26.1121 Q858.377 26.1121 863.238 31.2163 Q868.099 36.3204 868.099 46.6907 Z" fill="#000000" fill-rule="nonzero" fill-opacity="1" /><path clip-path="url(#clip550)" d="M909.743 34.1734 Q908.487 33.4443 906.988 33.1202 Q905.53 32.7556 903.747 32.7556 Q897.428 32.7556 894.025 36.8875 Q890.663 40.9789 890.663 48.6757 L890.663 72.576 L883.169 72.576 L883.169 27.2059 L890.663 27.2059 L890.663 34.2544 Q893.012 30.1225 896.78 28.1376 Q900.547 26.1121 905.935 26.1121 Q906.704 26.1121 907.636 26.2337 Q908.568 26.3147 909.702 26.5172 L909.743 34.1734 Z" fill="#000000" fill-rule="nonzero" fill-opacity="1" /><path clip-path="url(#clip550)" d="M917.561 27.2059 L925.014 27.2059 L925.014 72.576 L917.561 72.576 L917.561 27.2059 M917.561 9.54393 L925.014 9.54393 L925.014 18.9825 L917.561 18.9825 L917.561 9.54393 Z" fill="#000000" fill-rule="nonzero" fill-opacity="1" /><path clip-path="url(#clip550)" d="M978.324 45.1919 L978.324 72.576 L970.871 72.576 L970.871 45.4349 Q970.871 38.994 968.359 35.7938 Q965.848 32.5936 960.824 32.5936 Q954.789 32.5936 951.305 36.4419 Q947.821 40.2903 947.821 46.9338 L947.821 72.576 L940.327 72.576 L940.327 27.2059 L947.821 27.2059 L947.821 34.2544 Q950.495 30.163 954.1 28.1376 Q957.746 26.1121 962.485 26.1121 Q970.304 26.1121 974.314 30.9732 Q978.324 35.7938 978.324 45.1919 Z" fill="#000000" fill-rule="nonzero" fill-opacity="1" /><path clip-path="url(#clip550)" d="M1023.05 49.3643 Q1023.05 41.2625 1019.68 36.8065 Q1016.36 32.3505 1010.33 32.3505 Q1004.33 32.3505 1000.97 36.8065 Q997.647 41.2625 997.647 49.3643 Q997.647 57.4256 1000.97 61.8816 Q1004.33 66.3376 1010.33 66.3376 Q1016.36 66.3376 1019.68 61.8816 Q1023.05 57.4256 1023.05 49.3643 M1030.5 66.9452 Q1030.5 78.5308 1025.36 84.1616 Q1020.21 89.8329 1009.6 89.8329 Q1005.67 89.8329 1002.18 89.2252 Q998.7 88.6581 995.419 87.4428 L995.419 80.1917 Q998.7 81.9741 1001.9 82.8248 Q1005.1 83.6755 1008.42 83.6755 Q1015.75 83.6755 1019.4 79.8271 Q1023.05 76.0193 1023.05 68.282 L1023.05 64.5957 Q1020.74 68.6061 1017.13 70.5911 Q1013.53 72.576 1008.5 72.576 Q1000.16 72.576 995.055 66.2161 Q989.95 59.8562 989.95 49.3643 Q989.95 38.832 995.055 32.472 Q1000.16 26.1121 1008.5 26.1121 Q1013.53 26.1121 1017.13 28.0971 Q1020.74 30.082 1023.05 34.0924 L1023.05 27.2059 L1030.5 27.2059 L1030.5 66.9452 Z" fill="#000000" fill-rule="nonzero" fill-opacity="1" /><path clip-path="url(#clip550)" d="M1074.78 28.5427 L1074.78 35.5912 Q1071.62 33.9709 1068.21 33.1607 Q1064.81 32.3505 1061.17 32.3505 Q1055.62 32.3505 1052.82 34.0519 Q1050.07 35.7533 1050.07 39.156 Q1050.07 41.7486 1052.05 43.2475 Q1054.04 44.7058 1060.03 46.0426 L1062.58 46.6097 Q1070.52 48.3111 1073.84 51.4303 Q1077.21 54.509 1077.21 60.0587 Q1077.21 66.3781 1072.18 70.0644 Q1067.2 73.7508 1058.45 73.7508 Q1054.81 73.7508 1050.84 73.0216 Q1046.91 72.3329 1042.53 70.9151 L1042.53 63.2184 Q1046.66 65.3654 1050.67 66.4591 Q1054.68 67.5124 1058.61 67.5124 Q1063.88 67.5124 1066.72 65.73 Q1069.55 63.9071 1069.55 60.6258 Q1069.55 57.5877 1067.48 55.9673 Q1065.46 54.3469 1058.53 52.8481 L1055.94 52.2405 Q1049.01 50.7821 1045.93 47.7845 Q1042.86 44.7463 1042.86 39.4801 Q1042.86 33.0797 1047.39 29.5959 Q1051.93 26.1121 1060.27 26.1121 Q1064.41 26.1121 1068.05 26.7198 Q1071.7 27.3274 1074.78 28.5427 Z" fill="#000000" fill-rule="nonzero" fill-opacity="1" /><path clip-path="url(#clip550)" d="M1133.35 9.62495 Q1127.92 18.942 1125.29 28.0566 Q1122.66 37.1711 1122.66 46.5287 Q1122.66 55.8863 1125.29 65.0818 Q1127.96 74.2369 1133.35 83.5134 L1126.87 83.5134 Q1120.79 73.9938 1117.76 64.7983 Q1114.76 55.6027 1114.76 46.5287 Q1114.76 37.4952 1117.76 28.3401 Q1120.75 19.1851 1126.87 9.62495 L1133.35 9.62495 Z" fill="#000000" fill-rule="nonzero" fill-opacity="1" /><path clip-path="url(#clip550)" d="M1147.81 9.54393 L1155.27 9.54393 L1155.27 72.576 L1147.81 72.576 L1147.81 9.54393 Z" fill="#000000" fill-rule="nonzero" fill-opacity="1" /><path clip-path="url(#clip550)" d="M1170.86 27.2059 L1178.32 27.2059 L1178.32 72.576 L1170.86 72.576 L1170.86 27.2059 M1170.86 9.54393 L1178.32 9.54393 L1178.32 18.9825 L1170.86 18.9825 L1170.86 9.54393 Z" fill="#000000" fill-rule="nonzero" fill-opacity="1" /><path clip-path="url(#clip550)" d="M1231.63 45.1919 L1231.63 72.576 L1224.17 72.576 L1224.17 45.4349 Q1224.17 38.994 1221.66 35.7938 Q1219.15 32.5936 1214.13 32.5936 Q1208.09 32.5936 1204.61 36.4419 Q1201.12 40.2903 1201.12 46.9338 L1201.12 72.576 L1193.63 72.576 L1193.63 27.2059 L1201.12 27.2059 L1201.12 34.2544 Q1203.8 30.163 1207.4 28.1376 Q1211.05 26.1121 1215.79 26.1121 Q1223.61 26.1121 1227.62 30.9732 Q1231.63 35.7938 1231.63 45.1919 Z" fill="#000000" fill-rule="nonzero" fill-opacity="1" /><path clip-path="url(#clip550)" d="M1285.3 48.0275 L1285.3 51.6733 L1251.03 51.6733 Q1251.52 59.3701 1255.65 63.421 Q1259.82 67.4314 1267.23 67.4314 Q1271.53 67.4314 1275.54 66.3781 Q1279.59 65.3249 1283.56 63.2184 L1283.56 70.267 Q1279.55 71.9684 1275.34 72.8596 Q1271.12 73.7508 1266.79 73.7508 Q1255.93 73.7508 1249.57 67.4314 Q1243.25 61.1119 1243.25 50.3365 Q1243.25 39.1965 1249.25 32.6746 Q1255.28 26.1121 1265.49 26.1121 Q1274.65 26.1121 1279.95 32.0264 Q1285.3 37.9003 1285.3 48.0275 M1277.85 45.84 Q1277.77 39.7232 1274.4 36.0774 Q1271.08 32.4315 1265.57 32.4315 Q1259.34 32.4315 1255.57 35.9558 Q1251.84 39.4801 1251.27 45.8805 L1277.85 45.84 Z" fill="#000000" fill-rule="nonzero" fill-opacity="1" /><path clip-path="url(#clip550)" d="M1326.46 28.5427 L1326.46 35.5912 Q1323.3 33.9709 1319.9 33.1607 Q1316.49 32.3505 1312.85 32.3505 Q1307.3 32.3505 1304.5 34.0519 Q1301.75 35.7533 1301.75 39.156 Q1301.75 41.7486 1303.73 43.2475 Q1305.72 44.7058 1311.71 46.0426 L1314.27 46.6097 Q1322.21 48.3111 1325.53 51.4303 Q1328.89 54.509 1328.89 60.0587 Q1328.89 66.3781 1323.87 70.0644 Q1318.88 73.7508 1310.13 73.7508 Q1306.49 73.7508 1302.52 73.0216 Q1298.59 72.3329 1294.21 70.9151 L1294.21 63.2184 Q1298.35 65.3654 1302.36 66.4591 Q1306.37 67.5124 1310.3 67.5124 Q1315.56 67.5124 1318.4 65.73 Q1321.23 63.9071 1321.23 60.6258 Q1321.23 57.5877 1319.17 55.9673 Q1317.14 54.3469 1310.21 52.8481 L1307.62 52.2405 Q1300.7 50.7821 1297.62 47.7845 Q1294.54 44.7463 1294.54 39.4801 Q1294.54 33.0797 1299.07 29.5959 Q1303.61 26.1121 1311.96 26.1121 Q1316.09 26.1121 1319.73 26.7198 Q1323.38 27.3274 1326.46 28.5427 Z" fill="#000000" fill-rule="nonzero" fill-opacity="1" /><path clip-path="url(#clip550)" d="M1339.58 9.62495 L1346.07 9.62495 Q1352.14 19.1851 1355.14 28.3401 Q1358.18 37.4952 1358.18 46.5287 Q1358.18 55.6027 1355.14 64.7983 Q1352.14 73.9938 1346.07 83.5134 L1339.58 83.5134 Q1344.97 74.2369 1347.6 65.0818 Q1350.28 55.8863 1350.28 46.5287 Q1350.28 37.1711 1347.6 28.0566 Q1344.97 18.942 1339.58 9.62495 Z" fill="#000000" fill-rule="nonzero" fill-opacity="1" /><path clip-path="url(#clip550)" d="M1420.12 49.7694 Q1411.08 49.7694 1407.6 51.8354 Q1404.11 53.9013 1404.11 58.8839 Q1404.11 62.8538 1406.71 65.2034 Q1409.34 67.5124 1413.84 67.5124 Q1420.03 67.5124 1423.76 63.1374 Q1427.53 58.7219 1427.53 51.4303 L1427.53 49.7694 L1420.12 49.7694 M1434.98 46.6907 L1434.98 72.576 L1427.53 72.576 L1427.53 65.6895 Q1424.98 69.8214 1421.17 71.8063 Q1417.36 73.7508 1411.85 73.7508 Q1404.88 73.7508 1400.75 69.8619 Q1396.66 65.9325 1396.66 59.3701 Q1396.66 51.7138 1401.77 47.825 Q1406.91 43.9361 1417.08 43.9361 L1427.53 43.9361 L1427.53 43.2069 Q1427.53 38.0623 1424.13 35.2672 Q1420.76 32.4315 1414.65 32.4315 Q1410.76 32.4315 1407.07 33.3632 Q1403.39 34.295 1399.98 36.1584 L1399.98 29.2718 Q1404.07 27.692 1407.92 26.9223 Q1411.77 26.1121 1415.42 26.1121 Q1425.26 26.1121 1430.12 31.2163 Q1434.98 36.3204 1434.98 46.6907 Z" fill="#000000" fill-rule="nonzero" fill-opacity="1" /><path clip-path="url(#clip550)" d="M1488.05 45.1919 L1488.05 72.576 L1480.6 72.576 L1480.6 45.4349 Q1480.6 38.994 1478.08 35.7938 Q1475.57 32.5936 1470.55 32.5936 Q1464.51 32.5936 1461.03 36.4419 Q1457.55 40.2903 1457.55 46.9338 L1457.55 72.576 L1450.05 72.576 L1450.05 27.2059 L1457.55 27.2059 L1457.55 34.2544 Q1460.22 30.163 1463.83 28.1376 Q1467.47 26.1121 1472.21 26.1121 Q1480.03 26.1121 1484.04 30.9732 Q1488.05 35.7938 1488.05 45.1919 Z" fill="#000000" fill-rule="nonzero" fill-opacity="1" /><path clip-path="url(#clip550)" d="M1532.77 34.0924 L1532.77 9.54393 L1540.23 9.54393 L1540.23 72.576 L1532.77 72.576 L1532.77 65.7705 Q1530.42 69.8214 1526.82 71.8063 Q1523.25 73.7508 1518.23 73.7508 Q1510.01 73.7508 1504.82 67.1883 Q1499.68 60.6258 1499.68 49.9314 Q1499.68 39.2371 1504.82 32.6746 Q1510.01 26.1121 1518.23 26.1121 Q1523.25 26.1121 1526.82 28.0971 Q1530.42 30.0415 1532.77 34.0924 M1507.37 49.9314 Q1507.37 58.1548 1510.73 62.8538 Q1514.14 67.5124 1520.05 67.5124 Q1525.97 67.5124 1529.37 62.8538 Q1532.77 58.1548 1532.77 49.9314 Q1532.77 41.7081 1529.37 37.0496 Q1525.97 32.3505 1520.05 32.3505 Q1514.14 32.3505 1510.73 37.0496 Q1507.37 41.7081 1507.37 49.9314 Z" fill="#000000" fill-rule="nonzero" fill-opacity="1" /><path clip-path="url(#clip550)" d="M1589.16 65.7705 L1589.16 89.8329 L1581.67 89.8329 L1581.67 27.2059 L1589.16 27.2059 L1589.16 34.0924 Q1591.51 30.0415 1595.07 28.0971 Q1598.68 26.1121 1603.66 26.1121 Q1611.93 26.1121 1617.07 32.6746 Q1622.26 39.2371 1622.26 49.9314 Q1622.26 60.6258 1617.07 67.1883 Q1611.93 73.7508 1603.66 73.7508 Q1598.68 73.7508 1595.07 71.8063 Q1591.51 69.8214 1589.16 65.7705 M1614.52 49.9314 Q1614.52 41.7081 1611.12 37.0496 Q1607.75 32.3505 1601.84 32.3505 Q1595.93 32.3505 1592.52 37.0496 Q1589.16 41.7081 1589.16 49.9314 Q1589.16 58.1548 1592.52 62.8538 Q1595.93 67.5124 1601.84 67.5124 Q1607.75 67.5124 1611.12 62.8538 Q1614.52 58.1548 1614.52 49.9314 Z" fill="#000000" fill-rule="nonzero" fill-opacity="1" /><path clip-path="url(#clip550)" d="M1652.19 32.4315 Q1646.2 32.4315 1642.71 37.1306 Q1639.23 41.7891 1639.23 49.9314 Q1639.23 58.0738 1642.67 62.7728 Q1646.16 67.4314 1652.19 67.4314 Q1658.15 67.4314 1661.63 62.7323 Q1665.11 58.0333 1665.11 49.9314 Q1665.11 41.8701 1661.63 37.1711 Q1658.15 32.4315 1652.19 32.4315 M1652.19 26.1121 Q1661.91 26.1121 1667.46 32.4315 Q1673.01 38.7509 1673.01 49.9314 Q1673.01 61.0714 1667.46 67.4314 Q1661.91 73.7508 1652.19 73.7508 Q1642.43 73.7508 1636.88 67.4314 Q1631.37 61.0714 1631.37 49.9314 Q1631.37 38.7509 1636.88 32.4315 Q1642.43 26.1121 1652.19 26.1121 Z" fill="#000000" fill-rule="nonzero" fill-opacity="1" /><path clip-path="url(#clip550)" d="M1714.29 28.5427 L1714.29 35.5912 Q1711.13 33.9709 1707.73 33.1607 Q1704.33 32.3505 1700.68 32.3505 Q1695.13 32.3505 1692.34 34.0519 Q1689.58 35.7533 1689.58 39.156 Q1689.58 41.7486 1691.57 43.2475 Q1693.55 44.7058 1699.55 46.0426 L1702.1 46.6097 Q1710.04 48.3111 1713.36 51.4303 Q1716.72 54.509 1716.72 60.0587 Q1716.72 66.3781 1711.7 70.0644 Q1706.72 73.7508 1697.97 73.7508 Q1694.32 73.7508 1690.35 73.0216 Q1686.42 72.3329 1682.05 70.9151 L1682.05 63.2184 Q1686.18 65.3654 1690.19 66.4591 Q1694.2 67.5124 1698.13 67.5124 Q1703.4 67.5124 1706.23 65.73 Q1709.07 63.9071 1709.07 60.6258 Q1709.07 57.5877 1707 55.9673 Q1704.98 54.3469 1698.05 52.8481 L1695.46 52.2405 Q1688.53 50.7821 1685.45 47.7845 Q1682.37 44.7463 1682.37 39.4801 Q1682.37 33.0797 1686.91 29.5959 Q1691.45 26.1121 1699.79 26.1121 Q1703.92 26.1121 1707.57 26.7198 Q1711.21 27.3274 1714.29 28.5427 Z" fill="#000000" fill-rule="nonzero" fill-opacity="1" /><path clip-path="url(#clip550)" d="M1728.59 27.2059 L1736.05 27.2059 L1736.05 72.576 L1728.59 72.576 L1728.59 27.2059 M1728.59 9.54393 L1736.05 9.54393 L1736.05 18.9825 L1728.59 18.9825 L1728.59 9.54393 Z" fill="#000000" fill-rule="nonzero" fill-opacity="1" /><path clip-path="url(#clip550)" d="M1759.01 14.324 L1759.01 27.2059 L1774.37 27.2059 L1774.37 32.9987 L1759.01 32.9987 L1759.01 57.6282 Q1759.01 63.1779 1760.51 64.7578 Q1762.05 66.3376 1766.71 66.3376 L1774.37 66.3376 L1774.37 72.576 L1766.71 72.576 Q1758.08 72.576 1754.8 69.3758 Q1751.52 66.1351 1751.52 57.6282 L1751.52 32.9987 L1746.05 32.9987 L1746.05 27.2059 L1751.52 27.2059 L1751.52 14.324 L1759.01 14.324 Z" fill="#000000" fill-rule="nonzero" fill-opacity="1" /><path clip-path="url(#clip550)" d="M1784.17 27.2059 L1791.62 27.2059 L1791.62 72.576 L1784.17 72.576 L1784.17 27.2059 M1784.17 9.54393 L1791.62 9.54393 L1791.62 18.9825 L1784.17 18.9825 L1784.17 9.54393 Z" fill="#000000" fill-rule="nonzero" fill-opacity="1" /><path clip-path="url(#clip550)" d="M1824.8 32.4315 Q1818.81 32.4315 1815.32 37.1306 Q1811.84 41.7891 1811.84 49.9314 Q1811.84 58.0738 1815.28 62.7728 Q1818.77 67.4314 1824.8 67.4314 Q1830.76 67.4314 1834.24 62.7323 Q1837.72 58.0333 1837.72 49.9314 Q1837.72 41.8701 1834.24 37.1711 Q1830.76 32.4315 1824.8 32.4315 M1824.8 26.1121 Q1834.52 26.1121 1840.07 32.4315 Q1845.62 38.7509 1845.62 49.9314 Q1845.62 61.0714 1840.07 67.4314 Q1834.52 73.7508 1824.8 73.7508 Q1815.04 73.7508 1809.49 67.4314 Q1803.98 61.0714 1803.98 49.9314 Q1803.98 38.7509 1809.49 32.4315 Q1815.04 26.1121 1824.8 26.1121 Z" fill="#000000" fill-rule="nonzero" fill-opacity="1" /><path clip-path="url(#clip550)" d="M1895.69 45.1919 L1895.69 72.576 L1888.24 72.576 L1888.24 45.4349 Q1888.24 38.994 1885.73 35.7938 Q1883.22 32.5936 1878.19 32.5936 Q1872.16 32.5936 1868.67 36.4419 Q1865.19 40.2903 1865.19 46.9338 L1865.19 72.576 L1857.69 72.576 L1857.69 27.2059 L1865.19 27.2059 L1865.19 34.2544 Q1867.86 30.163 1871.47 28.1376 Q1875.11 26.1121 1879.85 26.1121 Q1887.67 26.1121 1891.68 30.9732 Q1895.69 35.7938 1895.69 45.1919 Z" fill="#000000" fill-rule="nonzero" fill-opacity="1" /><path clip-path="url(#clip550)" d="M1939.48 28.5427 L1939.48 35.5912 Q1936.32 33.9709 1932.92 33.1607 Q1929.52 32.3505 1925.87 32.3505 Q1920.32 32.3505 1917.53 34.0519 Q1914.77 35.7533 1914.77 39.156 Q1914.77 41.7486 1916.76 43.2475 Q1918.74 44.7058 1924.74 46.0426 L1927.29 46.6097 Q1935.23 48.3111 1938.55 51.4303 Q1941.91 54.509 1941.91 60.0587 Q1941.91 66.3781 1936.89 70.0644 Q1931.91 73.7508 1923.16 73.7508 Q1919.51 73.7508 1915.54 73.0216 Q1911.61 72.3329 1907.24 70.9151 L1907.24 63.2184 Q1911.37 65.3654 1915.38 66.4591 Q1919.39 67.5124 1923.32 67.5124 Q1928.59 67.5124 1931.42 65.73 Q1934.26 63.9071 1934.26 60.6258 Q1934.26 57.5877 1932.19 55.9673 Q1930.17 54.3469 1923.24 52.8481 L1920.65 52.2405 Q1913.72 50.7821 1910.64 47.7845 Q1907.56 44.7463 1907.56 39.4801 Q1907.56 33.0797 1912.1 29.5959 Q1916.64 26.1121 1924.98 26.1121 Q1929.11 26.1121 1932.76 26.7198 Q1936.4 27.3274 1939.48 28.5427 Z" fill="#000000" fill-rule="nonzero" fill-opacity="1" /><path clip-path="url(#clip550)" d="M1998.06 9.62495 Q1992.63 18.942 1990 28.0566 Q1987.36 37.1711 1987.36 46.5287 Q1987.36 55.8863 1990 65.0818 Q1992.67 74.2369 1998.06 83.5134 L1991.58 83.5134 Q1985.5 73.9938 1982.46 64.7983 Q1979.46 55.6027 1979.46 46.5287 Q1979.46 37.4952 1982.46 28.3401 Q1985.46 19.1851 1991.58 9.62495 L1998.06 9.62495 Z" fill="#000000" fill-rule="nonzero" fill-opacity="1" /><path clip-path="url(#clip550)" d="M2042.38 34.0924 L2042.38 9.54393 L2049.83 9.54393 L2049.83 72.576 L2042.38 72.576 L2042.38 65.7705 Q2040.03 69.8214 2036.42 71.8063 Q2032.86 73.7508 2027.83 73.7508 Q2019.61 73.7508 2014.42 67.1883 Q2009.28 60.6258 2009.28 49.9314 Q2009.28 39.2371 2014.42 32.6746 Q2019.61 26.1121 2027.83 26.1121 Q2032.86 26.1121 2036.42 28.0971 Q2040.03 30.0415 2042.38 34.0924 M2016.98 49.9314 Q2016.98 58.1548 2020.34 62.8538 Q2023.74 67.5124 2029.66 67.5124 Q2035.57 67.5124 2038.97 62.8538 Q2042.38 58.1548 2042.38 49.9314 Q2042.38 41.7081 2038.97 37.0496 Q2035.57 32.3505 2029.66 32.3505 Q2023.74 32.3505 2020.34 37.0496 Q2016.98 41.7081 2016.98 49.9314 Z" fill="#000000" fill-rule="nonzero" fill-opacity="1" /><path clip-path="url(#clip550)" d="M2082.76 32.4315 Q2076.77 32.4315 2073.28 37.1306 Q2069.8 41.7891 2069.8 49.9314 Q2069.8 58.0738 2073.24 62.7728 Q2076.73 67.4314 2082.76 67.4314 Q2088.72 67.4314 2092.2 62.7323 Q2095.69 58.0333 2095.69 49.9314 Q2095.69 41.8701 2092.2 37.1711 Q2088.72 32.4315 2082.76 32.4315 M2082.76 26.1121 Q2092.49 26.1121 2098.03 32.4315 Q2103.58 38.7509 2103.58 49.9314 Q2103.58 61.0714 2098.03 67.4314 Q2092.49 73.7508 2082.76 73.7508 Q2073 73.7508 2067.45 67.4314 Q2061.94 61.0714 2061.94 49.9314 Q2061.94 38.7509 2067.45 32.4315 Q2073 26.1121 2082.76 26.1121 Z" fill="#000000" fill-rule="nonzero" fill-opacity="1" /><path clip-path="url(#clip550)" d="M2123.31 14.324 L2123.31 27.2059 L2138.67 27.2059 L2138.67 32.9987 L2123.31 32.9987 L2123.31 57.6282 Q2123.31 63.1779 2124.81 64.7578 Q2126.35 66.3376 2131.01 66.3376 L2138.67 66.3376 L2138.67 72.576 L2131.01 72.576 Q2122.38 72.576 2119.1 69.3758 Q2115.82 66.1351 2115.82 57.6282 L2115.82 32.9987 L2110.35 32.9987 L2110.35 27.2059 L2115.82 27.2059 L2115.82 14.324 L2123.31 14.324 Z" fill="#000000" fill-rule="nonzero" fill-opacity="1" /><path clip-path="url(#clip550)" d="M2177.39 28.5427 L2177.39 35.5912 Q2174.23 33.9709 2170.83 33.1607 Q2167.43 32.3505 2163.78 32.3505 Q2158.23 32.3505 2155.44 34.0519 Q2152.68 35.7533 2152.68 39.156 Q2152.68 41.7486 2154.67 43.2475 Q2156.65 44.7058 2162.65 46.0426 L2165.2 46.6097 Q2173.14 48.3111 2176.46 51.4303 Q2179.82 54.509 2179.82 60.0587 Q2179.82 66.3781 2174.8 70.0644 Q2169.82 73.7508 2161.07 73.7508 Q2157.42 73.7508 2153.45 73.0216 Q2149.52 72.3329 2145.15 70.9151 L2145.15 63.2184 Q2149.28 65.3654 2153.29 66.4591 Q2157.3 67.5124 2161.23 67.5124 Q2166.5 67.5124 2169.33 65.73 Q2172.17 63.9071 2172.17 60.6258 Q2172.17 57.5877 2170.1 55.9673 Q2168.07 54.3469 2161.15 52.8481 L2158.56 52.2405 Q2151.63 50.7821 2148.55 47.7845 Q2145.47 44.7463 2145.47 39.4801 Q2145.47 33.0797 2150.01 29.5959 Q2154.54 26.1121 2162.89 26.1121 Q2167.02 26.1121 2170.67 26.7198 Q2174.31 27.3274 2177.39 28.5427 Z" fill="#000000" fill-rule="nonzero" fill-opacity="1" /><path clip-path="url(#clip550)" d="M2190.52 9.62495 L2197 9.62495 Q2203.07 19.1851 2206.07 28.3401 Q2209.11 37.4952 2209.11 46.5287 Q2209.11 55.6027 2206.07 64.7983 Q2203.07 73.9938 2197 83.5134 L2190.52 83.5134 Q2195.9 74.2369 2198.54 65.0818 Q2201.21 55.8863 2201.21 46.5287 Q2201.21 37.1711 2198.54 28.0566 Q2195.9 18.942 2190.52 9.62495 Z" fill="#000000" fill-rule="nonzero" fill-opacity="1" /><circle clip-path="url(#clip552)" cx="583.555" cy="162.047" r="10.8" fill="#009af9" fill-rule="evenodd" fill-opacity="1" stroke="#000000" stroke-opacity="1" stroke-width="3.2"/>
<circle clip-path="url(#clip552)" cx="571.048" cy="176.834" r="10.8" fill="#009af9" fill-rule="evenodd" fill-opacity="1" stroke="#000000" stroke-opacity="1" stroke-width="3.2"/>
<circle clip-path="url(#clip552)" cx="556.097" cy="193.709" r="10.8" fill="#009af9" fill-rule="evenodd" fill-opacity="1" stroke="#000000" stroke-opacity="1" stroke-width="3.2"/>
<circle clip-path="url(#clip552)" cx="541.098" cy="209.219" r="10.8" fill="#009af9" fill-rule="evenodd" fill-opacity="1" stroke="#000000" stroke-opacity="1" stroke-width="3.2"/>
<circle clip-path="url(#clip552)" cx="553.966" cy="225.372" r="10.8" fill="#009af9" fill-rule="evenodd" fill-opacity="1" stroke="#000000" stroke-opacity="1" stroke-width="3.2"/>
<circle clip-path="url(#clip552)" cx="568.564" cy="242.219" r="10.8" fill="#009af9" fill-rule="evenodd" fill-opacity="1" stroke="#000000" stroke-opacity="1" stroke-width="3.2"/>
<circle clip-path="url(#clip552)" cx="595.473" cy="260.023" r="10.8" fill="#009af9" fill-rule="evenodd" fill-opacity="1" stroke="#000000" stroke-opacity="1" stroke-width="3.2"/>
<circle clip-path="url(#clip552)" cx="611.979" cy="278.786" r="10.8" fill="#009af9" fill-rule="evenodd" fill-opacity="1" stroke="#000000" stroke-opacity="1" stroke-width="3.2"/>
<circle clip-path="url(#clip552)" cx="610.532" cy="297.071" r="10.8" fill="#009af9" fill-rule="evenodd" fill-opacity="1" stroke="#000000" stroke-opacity="1" stroke-width="3.2"/>
<circle clip-path="url(#clip552)" cx="642.148" cy="314.891" r="10.8" fill="#009af9" fill-rule="evenodd" fill-opacity="1" stroke="#000000" stroke-opacity="1" stroke-width="3.2"/>
<circle clip-path="url(#clip552)" cx="688.514" cy="331.87" r="10.8" fill="#009af9" fill-rule="evenodd" fill-opacity="1" stroke="#000000" stroke-opacity="1" stroke-width="3.2"/>
<circle clip-path="url(#clip552)" cx="750.123" cy="347.918" r="10.8" fill="#009af9" fill-rule="evenodd" fill-opacity="1" stroke="#000000" stroke-opacity="1" stroke-width="3.2"/>
<circle clip-path="url(#clip552)" cx="823.591" cy="363.754" r="10.8" fill="#009af9" fill-rule="evenodd" fill-opacity="1" stroke="#000000" stroke-opacity="1" stroke-width="3.2"/>
<circle clip-path="url(#clip552)" cx="867.931" cy="380.016" r="10.8" fill="#009af9" fill-rule="evenodd" fill-opacity="1" stroke="#000000" stroke-opacity="1" stroke-width="3.2"/>
<circle clip-path="url(#clip552)" cx="875.507" cy="394.557" r="10.8" fill="#009af9" fill-rule="evenodd" fill-opacity="1" stroke="#000000" stroke-opacity="1" stroke-width="3.2"/>
<circle clip-path="url(#clip552)" cx="868.308" cy="407.02" r="10.8" fill="#009af9" fill-rule="evenodd" fill-opacity="1" stroke="#000000" stroke-opacity="1" stroke-width="3.2"/>
<circle clip-path="url(#clip552)" cx="843.746" cy="420.138" r="10.8" fill="#009af9" fill-rule="evenodd" fill-opacity="1" stroke="#000000" stroke-opacity="1" stroke-width="3.2"/>
<circle clip-path="url(#clip552)" cx="824.21" cy="434.184" r="10.8" fill="#009af9" fill-rule="evenodd" fill-opacity="1" stroke="#000000" stroke-opacity="1" stroke-width="3.2"/>
<circle clip-path="url(#clip552)" cx="794.524" cy="449.419" r="10.8" fill="#009af9" fill-rule="evenodd" fill-opacity="1" stroke="#000000" stroke-opacity="1" stroke-width="3.2"/>
<circle clip-path="url(#clip552)" cx="800.158" cy="465.089" r="10.8" fill="#009af9" fill-rule="evenodd" fill-opacity="1" stroke="#000000" stroke-opacity="1" stroke-width="3.2"/>
<circle clip-path="url(#clip552)" cx="792.791" cy="479.724" r="10.8" fill="#009af9" fill-rule="evenodd" fill-opacity="1" stroke="#000000" stroke-opacity="1" stroke-width="3.2"/>
<circle clip-path="url(#clip552)" cx="760.408" cy="494.903" r="10.8" fill="#009af9" fill-rule="evenodd" fill-opacity="1" stroke="#000000" stroke-opacity="1" stroke-width="3.2"/>
<circle clip-path="url(#clip552)" cx="709.231" cy="509.34" r="10.8" fill="#009af9" fill-rule="evenodd" fill-opacity="1" stroke="#000000" stroke-opacity="1" stroke-width="3.2"/>
<circle clip-path="url(#clip552)" cx="665.868" cy="525.146" r="10.8" fill="#009af9" fill-rule="evenodd" fill-opacity="1" stroke="#000000" stroke-opacity="1" stroke-width="3.2"/>
<circle clip-path="url(#clip552)" cx="602.067" cy="540.182" r="10.8" fill="#009af9" fill-rule="evenodd" fill-opacity="1" stroke="#000000" stroke-opacity="1" stroke-width="3.2"/>
<circle clip-path="url(#clip552)" cx="547.678" cy="556.564" r="10.8" fill="#009af9" fill-rule="evenodd" fill-opacity="1" stroke="#000000" stroke-opacity="1" stroke-width="3.2"/>
<circle clip-path="url(#clip552)" cx="464.23" cy="573.091" r="10.8" fill="#009af9" fill-rule="evenodd" fill-opacity="1" stroke="#000000" stroke-opacity="1" stroke-width="3.2"/>
<circle clip-path="url(#clip552)" cx="374.899" cy="588.091" r="10.8" fill="#009af9" fill-rule="evenodd" fill-opacity="1" stroke="#000000" stroke-opacity="1" stroke-width="3.2"/>
<circle clip-path="url(#clip552)" cx="325.963" cy="603.943" r="10.8" fill="#009af9" fill-rule="evenodd" fill-opacity="1" stroke="#000000" stroke-opacity="1" stroke-width="3.2"/>
<circle clip-path="url(#clip552)" cx="277.882" cy="620.146" r="10.8" fill="#009af9" fill-rule="evenodd" fill-opacity="1" stroke="#000000" stroke-opacity="1" stroke-width="3.2"/>
<circle clip-path="url(#clip552)" cx="280.836" cy="635.307" r="10.8" fill="#009af9" fill-rule="evenodd" fill-opacity="1" stroke="#000000" stroke-opacity="1" stroke-width="3.2"/>
<circle clip-path="url(#clip552)" cx="324.483" cy="650.089" r="10.8" fill="#009af9" fill-rule="evenodd" fill-opacity="1" stroke="#000000" stroke-opacity="1" stroke-width="3.2"/>
<circle clip-path="url(#clip552)" cx="394.576" cy="663.995" r="10.8" fill="#009af9" fill-rule="evenodd" fill-opacity="1" stroke="#000000" stroke-opacity="1" stroke-width="3.2"/>
<circle clip-path="url(#clip552)" cx="489.142" cy="675.599" r="10.8" fill="#009af9" fill-rule="evenodd" fill-opacity="1" stroke="#000000" stroke-opacity="1" stroke-width="3.2"/>
<circle clip-path="url(#clip552)" cx="556.778" cy="685.447" r="10.8" fill="#009af9" fill-rule="evenodd" fill-opacity="1" stroke="#000000" stroke-opacity="1" stroke-width="3.2"/>
<circle clip-path="url(#clip552)" cx="665.841" cy="692.839" r="10.8" fill="#009af9" fill-rule="evenodd" fill-opacity="1" stroke="#000000" stroke-opacity="1" stroke-width="3.2"/>
<circle clip-path="url(#clip552)" cx="776.204" cy="701.231" r="10.8" fill="#009af9" fill-rule="evenodd" fill-opacity="1" stroke="#000000" stroke-opacity="1" stroke-width="3.2"/>
<circle clip-path="url(#clip552)" cx="853.308" cy="709.924" r="10.8" fill="#009af9" fill-rule="evenodd" fill-opacity="1" stroke="#000000" stroke-opacity="1" stroke-width="3.2"/>
<circle clip-path="url(#clip552)" cx="949.41" cy="718.637" r="10.8" fill="#009af9" fill-rule="evenodd" fill-opacity="1" stroke="#000000" stroke-opacity="1" stroke-width="3.2"/>
<circle clip-path="url(#clip552)" cx="1055.13" cy="728.463" r="10.8" fill="#009af9" fill-rule="evenodd" fill-opacity="1" stroke="#000000" stroke-opacity="1" stroke-width="3.2"/>
<circle clip-path="url(#clip552)" cx="1141.08" cy="738.977" r="10.8" fill="#009af9" fill-rule="evenodd" fill-opacity="1" stroke="#000000" stroke-opacity="1" stroke-width="3.2"/>
<circle clip-path="url(#clip552)" cx="1275.33" cy="750.024" r="10.8" fill="#009af9" fill-rule="evenodd" fill-opacity="1" stroke="#000000" stroke-opacity="1" stroke-width="3.2"/>
<circle clip-path="url(#clip552)" cx="1397.42" cy="759.276" r="10.8" fill="#009af9" fill-rule="evenodd" fill-opacity="1" stroke="#000000" stroke-opacity="1" stroke-width="3.2"/>
<circle clip-path="url(#clip552)" cx="1538.58" cy="768.633" r="10.8" fill="#009af9" fill-rule="evenodd" fill-opacity="1" stroke="#000000" stroke-opacity="1" stroke-width="3.2"/>
<circle clip-path="url(#clip552)" cx="1679.84" cy="779.414" r="10.8" fill="#009af9" fill-rule="evenodd" fill-opacity="1" stroke="#000000" stroke-opacity="1" stroke-width="3.2"/>
<circle clip-path="url(#clip552)" cx="1823.23" cy="791.905" r="10.8" fill="#009af9" fill-rule="evenodd" fill-opacity="1" stroke="#000000" stroke-opacity="1" stroke-width="3.2"/>
<circle clip-path="url(#clip552)" cx="1906.07" cy="803.044" r="10.8" fill="#009af9" fill-rule="evenodd" fill-opacity="1" stroke="#000000" stroke-opacity="1" stroke-width="3.2"/>
<circle clip-path="url(#clip552)" cx="1984.29" cy="811.984" r="10.8" fill="#009af9" fill-rule="evenodd" fill-opacity="1" stroke="#000000" stroke-opacity="1" stroke-width="3.2"/>
<circle clip-path="url(#clip552)" cx="2030.81" cy="822.203" r="10.8" fill="#009af9" fill-rule="evenodd" fill-opacity="1" stroke="#000000" stroke-opacity="1" stroke-width="3.2"/>
<circle clip-path="url(#clip552)" cx="2069.83" cy="832.733" r="10.8" fill="#009af9" fill-rule="evenodd" fill-opacity="1" stroke="#000000" stroke-opacity="1" stroke-width="3.2"/>
<circle clip-path="url(#clip552)" cx="2098.47" cy="842.807" r="10.8" fill="#009af9" fill-rule="evenodd" fill-opacity="1" stroke="#000000" stroke-opacity="1" stroke-width="3.2"/>
<polyline clip-path="url(#clip552)" style="stroke:#ff0000; stroke-linecap:round; stroke-linejoin:round; stroke-width:4; stroke-opacity:0.3; fill:none" points="342.921,1447.87 397.883,771.13 "/>
<polyline clip-path="url(#clip552)" style="stroke:#ff0000; stroke-linecap:round; stroke-linejoin:round; stroke-width:4; stroke-opacity:0.3; fill:none" points="342.921,1447.87 522.923,771.198 "/>
<polyline clip-path="url(#clip552)" style="stroke:#ff0000; stroke-linecap:round; stroke-linejoin:round; stroke-width:4; stroke-opacity:0.3; fill:none" points="342.921,1447.87 451.883,771.15 "/>
<polyline clip-path="url(#clip552)" style="stroke:#ff0000; stroke-linecap:round; stroke-linejoin:round; stroke-width:4; stroke-opacity:0.3; fill:none" points="342.921,1447.87 400.406,771.13 "/>
<polyline clip-path="url(#clip552)" style="stroke:#ff0000; stroke-linecap:round; stroke-linejoin:round; stroke-width:4; stroke-opacity:0.3; fill:none" points="342.921,1447.87 474.46,771.163 "/>
<polyline clip-path="url(#clip552)" style="stroke:#ff0000; stroke-linecap:round; stroke-linejoin:round; stroke-width:4; stroke-opacity:0.3; fill:none" points="342.921,1447.87 564.625,771.237 "/>
<polyline clip-path="url(#clip552)" style="stroke:#ff0000; stroke-linecap:round; stroke-linejoin:round; stroke-width:4; stroke-opacity:0.3; fill:none" points="342.921,1447.87 556.939,771.23 "/>
<polyline clip-path="url(#clip552)" style="stroke:#ff0000; stroke-linecap:round; stroke-linejoin:round; stroke-width:4; stroke-opacity:0.3; fill:none" points="342.921,1447.87 511.195,771.189 "/>
<polyline clip-path="url(#clip552)" style="stroke:#ff0000; stroke-linecap:round; stroke-linejoin:round; stroke-width:4; stroke-opacity:0.3; fill:none" points="342.921,1447.87 519.552,771.195 "/>
<polyline clip-path="url(#clip552)" style="stroke:#ff0000; stroke-linecap:round; stroke-linejoin:round; stroke-width:4; stroke-opacity:0.3; fill:none" points="342.921,1447.87 557.461,771.23 "/>
<polyline clip-path="url(#clip552)" style="stroke:#ff0000; stroke-linecap:round; stroke-linejoin:round; stroke-width:4; stroke-opacity:0.3; fill:none" points="342.921,1447.87 596.301,771.273 "/>
<polyline clip-path="url(#clip552)" style="stroke:#ff0000; stroke-linecap:round; stroke-linejoin:round; stroke-width:4; stroke-opacity:0.3; fill:none" points="342.921,1447.87 601.524,771.279 "/>
<polyline clip-path="url(#clip552)" style="stroke:#ff0000; stroke-linecap:round; stroke-linejoin:round; stroke-width:4; stroke-opacity:0.3; fill:none" points="342.921,1447.87 568.328,771.241 "/>
<polyline clip-path="url(#clip552)" style="stroke:#ff0000; stroke-linecap:round; stroke-linejoin:round; stroke-width:4; stroke-opacity:0.3; fill:none" points="342.921,1447.87 631.384,771.317 "/>
<polyline clip-path="url(#clip552)" style="stroke:#ff0000; stroke-linecap:round; stroke-linejoin:round; stroke-width:4; stroke-opacity:0.3; fill:none" points="342.921,1447.87 667.977,771.369 "/>
<polyline clip-path="url(#clip552)" style="stroke:#ff0000; stroke-linecap:round; stroke-linejoin:round; stroke-width:4; stroke-opacity:0.3; fill:none" points="342.921,1447.87 750.67,771.511 "/>
<polyline clip-path="url(#clip552)" style="stroke:#ff0000; stroke-linecap:round; stroke-linejoin:round; stroke-width:4; stroke-opacity:0.3; fill:none" points="342.921,1447.87 607.698,771.286 "/>
<polyline clip-path="url(#clip552)" style="stroke:#ff0000; stroke-linecap:round; stroke-linejoin:round; stroke-width:4; stroke-opacity:0.3; fill:none" points="342.921,1447.87 679.778,771.388 "/>
<polyline clip-path="url(#clip552)" style="stroke:#ff0000; stroke-linecap:round; stroke-linejoin:round; stroke-width:4; stroke-opacity:0.3; fill:none" points="342.921,1447.87 604.733,771.283 "/>
<polyline clip-path="url(#clip552)" style="stroke:#ff0000; stroke-linecap:round; stroke-linejoin:round; stroke-width:4; stroke-opacity:0.3; fill:none" points="342.921,1447.87 686.697,771.399 "/>
<polyline clip-path="url(#clip552)" style="stroke:#ff0000; stroke-linecap:round; stroke-linejoin:round; stroke-width:4; stroke-opacity:0.3; fill:none" points="342.921,1447.87 635.574,771.323 "/>
<polyline clip-path="url(#clip552)" style="stroke:#ff0000; stroke-linecap:round; stroke-linejoin:round; stroke-width:4; stroke-opacity:0.3; fill:none" points="342.921,1447.87 565.865,771.239 "/>
<polyline clip-path="url(#clip552)" style="stroke:#ff0000; stroke-linecap:round; stroke-linejoin:round; stroke-width:4; stroke-opacity:0.3; fill:none" points="342.921,1447.87 520.565,771.196 "/>
<polyline clip-path="url(#clip552)" style="stroke:#ff0000; stroke-linecap:round; stroke-linejoin:round; stroke-width:4; stroke-opacity:0.3; fill:none" points="342.921,1447.87 516.755,771.193 "/>
<polyline clip-path="url(#clip552)" style="stroke:#ff0000; stroke-linecap:round; stroke-linejoin:round; stroke-width:4; stroke-opacity:0.3; fill:none" points="342.921,1447.87 605.264,771.283 "/>
<polyline clip-path="url(#clip552)" style="stroke:#ff0000; stroke-linecap:round; stroke-linejoin:round; stroke-width:4; stroke-opacity:0.3; fill:none" points="342.921,1447.87 499.717,771.18 "/>
<polyline clip-path="url(#clip552)" style="stroke:#ff0000; stroke-linecap:round; stroke-linejoin:round; stroke-width:4; stroke-opacity:0.3; fill:none" points="342.921,1447.87 452.918,771.151 "/>
<polyline clip-path="url(#clip552)" style="stroke:#ff0000; stroke-linecap:round; stroke-linejoin:round; stroke-width:4; stroke-opacity:0.3; fill:none" points="342.921,1447.87 289.593,771.129 "/>
<polyline clip-path="url(#clip552)" style="stroke:#ff0000; stroke-linecap:round; stroke-linejoin:round; stroke-width:4; stroke-opacity:0.3; fill:none" points="342.921,1447.87 341.294,771.122 "/>
<polyline clip-path="url(#clip552)" style="stroke:#ff0000; stroke-linecap:round; stroke-linejoin:round; stroke-width:4; stroke-opacity:0.3; fill:none" points="342.921,1447.87 218.754,771.159 "/>
<polyline clip-path="url(#clip552)" style="stroke:#ff0000; stroke-linecap:round; stroke-linejoin:round; stroke-width:4; stroke-opacity:0.3; fill:none" points="342.921,1447.87 253.01,771.141 "/>
<polyline clip-path="url(#clip552)" style="stroke:#ff0000; stroke-linecap:round; stroke-linejoin:round; stroke-width:4; stroke-opacity:0.3; fill:none" points="342.921,1447.87 409.354,771.133 "/>
<polyline clip-path="url(#clip552)" style="stroke:#ff0000; stroke-linecap:round; stroke-linejoin:round; stroke-width:4; stroke-opacity:0.3; fill:none" points="342.921,1447.87 386.353,771.127 "/>
<polyline clip-path="url(#clip552)" style="stroke:#ff0000; stroke-linecap:round; stroke-linejoin:round; stroke-width:4; stroke-opacity:0.3; fill:none" points="342.921,1447.87 454.112,771.151 "/>
<polyline clip-path="url(#clip552)" style="stroke:#ff0000; stroke-linecap:round; stroke-linejoin:round; stroke-width:4; stroke-opacity:0.3; fill:none" points="342.921,1447.87 504.23,771.183 "/>
<polyline clip-path="url(#clip552)" style="stroke:#ff0000; stroke-linecap:round; stroke-linejoin:round; stroke-width:4; stroke-opacity:0.3; fill:none" points="342.921,1447.87 670.058,771.373 "/>
<polyline clip-path="url(#clip552)" style="stroke:#ff0000; stroke-linecap:round; stroke-linejoin:round; stroke-width:4; stroke-opacity:0.3; fill:none" points="342.921,1447.87 763.061,771.535 "/>
<polyline clip-path="url(#clip552)" style="stroke:#ff0000; stroke-linecap:round; stroke-linejoin:round; stroke-width:4; stroke-opacity:0.3; fill:none" points="342.921,1447.87 726.906,771.467 "/>
<polyline clip-path="url(#clip552)" style="stroke:#ff0000; stroke-linecap:round; stroke-linejoin:round; stroke-width:4; stroke-opacity:0.3; fill:none" points="342.921,1447.87 887.281,771.815 "/>
<polyline clip-path="url(#clip552)" style="stroke:#ff0000; stroke-linecap:round; stroke-linejoin:round; stroke-width:4; stroke-opacity:0.3; fill:none" points="342.921,1447.87 1043.11,772.269 "/>
<polyline clip-path="url(#clip552)" style="stroke:#ff0000; stroke-linecap:round; stroke-linejoin:round; stroke-width:4; stroke-opacity:0.3; fill:none" points="342.921,1447.87 1020.33,772.196 "/>
<polyline clip-path="url(#clip552)" style="stroke:#ff0000; stroke-linecap:round; stroke-linejoin:round; stroke-width:4; stroke-opacity:0.3; fill:none" points="342.921,1447.87 1218.85,772.918 "/>
<polyline clip-path="url(#clip552)" style="stroke:#ff0000; stroke-linecap:round; stroke-linejoin:round; stroke-width:4; stroke-opacity:0.3; fill:none" points="342.921,1447.87 1363.36,773.561 "/>
<polyline clip-path="url(#clip552)" style="stroke:#ff0000; stroke-linecap:round; stroke-linejoin:round; stroke-width:4; stroke-opacity:0.3; fill:none" points="342.921,1447.87 1455.21,774.021 "/>
<polyline clip-path="url(#clip552)" style="stroke:#ff0000; stroke-linecap:round; stroke-linejoin:round; stroke-width:4; stroke-opacity:0.3; fill:none" points="342.921,1447.87 1620.51,774.949 "/>
<polyline clip-path="url(#clip552)" style="stroke:#ff0000; stroke-linecap:round; stroke-linejoin:round; stroke-width:4; stroke-opacity:0.3; fill:none" points="342.921,1447.87 1830.47,776.315 "/>
<polyline clip-path="url(#clip552)" style="stroke:#ff0000; stroke-linecap:round; stroke-linejoin:round; stroke-width:4; stroke-opacity:0.3; fill:none" points="342.921,1447.87 2132.17,778.648 "/>
<polyline clip-path="url(#clip552)" style="stroke:#ff0000; stroke-linecap:round; stroke-linejoin:round; stroke-width:4; stroke-opacity:0.3; fill:none" points="342.921,1447.87 2016.11,777.698 "/>
<polyline clip-path="url(#clip552)" style="stroke:#ff0000; stroke-linecap:round; stroke-linejoin:round; stroke-width:4; stroke-opacity:0.3; fill:none" points="342.921,1447.87 2134,778.663 "/>
<polyline clip-path="url(#clip552)" style="stroke:#ff0000; stroke-linecap:round; stroke-linejoin:round; stroke-width:4; stroke-opacity:0.3; fill:none" points="342.921,1447.87 2119.86,778.544 "/>
<polyline clip-path="url(#clip552)" style="stroke:#ff0000; stroke-linecap:round; stroke-linejoin:round; stroke-width:4; stroke-opacity:0.3; fill:none" points="342.921,1447.87 2290.6,780.048 "/>
</svg>
