<?xml version="1.0" encoding="utf-8"?>
<svg xmlns="http://www.w3.org/2000/svg" xmlns:xlink="http://www.w3.org/1999/xlink" width="600" height="400" viewBox="0 0 2400 1600">
<defs>
  <clipPath id="clip330">
    <rect x="0" y="0" width="2400" height="1600"/>
  </clipPath>
</defs>
<path clip-path="url(#clip330)" d="
M0 1600 L2400 1600 L2400 0 L0 0  Z
  " fill="#ffffff" fill-rule="evenodd" fill-opacity="1"/>
<defs>
  <clipPath id="clip331">
    <rect x="480" y="0" width="1681" height="1600"/>
  </clipPath>
</defs>
<path clip-path="url(#clip330)" d="
M202.177 686.448 L1152.76 686.448 L1152.76 123.472 L202.177 123.472  Z
  " fill="#ffffff" fill-rule="evenodd" fill-opacity="1"/>
<defs>
  <clipPath id="clip332">
    <rect x="202" y="123" width="952" height="564"/>
  </clipPath>
</defs>
<polyline clip-path="url(#clip332)" style="stroke:#000000; stroke-linecap:butt; stroke-linejoin:round; stroke-width:2; stroke-opacity:0.1; fill:none" points="
  254.46,686.448 254.46,123.472 
  "/>
<polyline clip-path="url(#clip332)" style="stroke:#000000; stroke-linecap:butt; stroke-linejoin:round; stroke-width:2; stroke-opacity:0.1; fill:none" points="
  455.892,686.448 455.892,123.472 
  "/>
<polyline clip-path="url(#clip332)" style="stroke:#000000; stroke-linecap:butt; stroke-linejoin:round; stroke-width:2; stroke-opacity:0.1; fill:none" points="
  657.323,686.448 657.323,123.472 
  "/>
<polyline clip-path="url(#clip332)" style="stroke:#000000; stroke-linecap:butt; stroke-linejoin:round; stroke-width:2; stroke-opacity:0.1; fill:none" points="
  858.755,686.448 858.755,123.472 
  "/>
<polyline clip-path="url(#clip332)" style="stroke:#000000; stroke-linecap:butt; stroke-linejoin:round; stroke-width:2; stroke-opacity:0.1; fill:none" points="
  1060.19,686.448 1060.19,123.472 
  "/>
<polyline clip-path="url(#clip330)" style="stroke:#000000; stroke-linecap:butt; stroke-linejoin:round; stroke-width:4; stroke-opacity:1; fill:none" points="
  202.177,686.448 1152.76,686.448 
  "/>
<polyline clip-path="url(#clip330)" style="stroke:#000000; stroke-linecap:butt; stroke-linejoin:round; stroke-width:4; stroke-opacity:1; fill:none" points="
  254.46,686.448 254.46,667.55 
  "/>
<polyline clip-path="url(#clip330)" style="stroke:#000000; stroke-linecap:butt; stroke-linejoin:round; stroke-width:4; stroke-opacity:1; fill:none" points="
  455.892,686.448 455.892,667.55 
  "/>
<polyline clip-path="url(#clip330)" style="stroke:#000000; stroke-linecap:butt; stroke-linejoin:round; stroke-width:4; stroke-opacity:1; fill:none" points="
  657.323,686.448 657.323,667.55 
  "/>
<polyline clip-path="url(#clip330)" style="stroke:#000000; stroke-linecap:butt; stroke-linejoin:round; stroke-width:4; stroke-opacity:1; fill:none" points="
  858.755,686.448 858.755,667.55 
  "/>
<polyline clip-path="url(#clip330)" style="stroke:#000000; stroke-linecap:butt; stroke-linejoin:round; stroke-width:4; stroke-opacity:1; fill:none" points="
  1060.19,686.448 1060.19,667.55 
  "/>
<path clip-path="url(#clip330)" d="M254.46 717.367 Q250.849 717.367 249.02 720.931 Q247.215 724.473 247.215 731.603 Q247.215 738.709 249.02 742.274 Q250.849 745.815 254.46 745.815 Q258.094 745.815 259.9 742.274 Q261.729 738.709 261.729 731.603 Q261.729 724.473 259.9 720.931 Q258.094 717.367 254.46 717.367 M254.46 713.663 Q260.27 713.663 263.326 718.269 Q266.405 722.853 266.405 731.603 Q266.405 740.329 263.326 744.936 Q260.27 749.519 254.46 749.519 Q248.65 749.519 245.571 744.936 Q242.516 740.329 242.516 731.603 Q242.516 722.853 245.571 718.269 Q248.65 713.663 254.46 713.663 Z" fill="#000000" fill-rule="evenodd" fill-opacity="1" /><path clip-path="url(#clip330)" d="M446.17 714.288 L464.526 714.288 L464.526 718.223 L450.452 718.223 L450.452 726.695 Q451.47 726.348 452.489 726.186 Q453.507 726.001 454.526 726.001 Q460.313 726.001 463.693 729.172 Q467.072 732.343 467.072 737.76 Q467.072 743.339 463.6 746.44 Q460.128 749.519 453.808 749.519 Q451.632 749.519 449.364 749.149 Q447.119 748.778 444.711 748.038 L444.711 743.339 Q446.795 744.473 449.017 745.028 Q451.239 745.584 453.716 745.584 Q457.72 745.584 460.058 743.478 Q462.396 741.371 462.396 737.76 Q462.396 734.149 460.058 732.042 Q457.72 729.936 453.716 729.936 Q451.841 729.936 449.966 730.353 Q448.114 730.769 446.17 731.649 L446.17 714.288 Z" fill="#000000" fill-rule="evenodd" fill-opacity="1" /><path clip-path="url(#clip330)" d="M632.011 744.913 L639.65 744.913 L639.65 718.547 L631.339 720.214 L631.339 715.955 L639.603 714.288 L644.279 714.288 L644.279 744.913 L651.918 744.913 L651.918 748.848 L632.011 748.848 L632.011 744.913 Z" fill="#000000" fill-rule="evenodd" fill-opacity="1" /><path clip-path="url(#clip330)" d="M671.362 717.367 Q667.751 717.367 665.923 720.931 Q664.117 724.473 664.117 731.603 Q664.117 738.709 665.923 742.274 Q667.751 745.815 671.362 745.815 Q674.997 745.815 676.802 742.274 Q678.631 738.709 678.631 731.603 Q678.631 724.473 676.802 720.931 Q674.997 717.367 671.362 717.367 M671.362 713.663 Q677.173 713.663 680.228 718.269 Q683.307 722.853 683.307 731.603 Q683.307 740.329 680.228 744.936 Q677.173 749.519 671.362 749.519 Q665.552 749.519 662.474 744.936 Q659.418 740.329 659.418 731.603 Q659.418 722.853 662.474 718.269 Q665.552 713.663 671.362 713.663 Z" fill="#000000" fill-rule="evenodd" fill-opacity="1" /><path clip-path="url(#clip330)" d="M833.94 744.913 L841.579 744.913 L841.579 718.547 L833.269 720.214 L833.269 715.955 L841.532 714.288 L846.208 714.288 L846.208 744.913 L853.847 744.913 L853.847 748.848 L833.94 748.848 L833.94 744.913 Z" fill="#000000" fill-rule="evenodd" fill-opacity="1" /><path clip-path="url(#clip330)" d="M863.338 714.288 L881.694 714.288 L881.694 718.223 L867.62 718.223 L867.62 726.695 Q868.639 726.348 869.657 726.186 Q870.676 726.001 871.694 726.001 Q877.481 726.001 880.861 729.172 Q884.241 732.343 884.241 737.76 Q884.241 743.339 880.768 746.44 Q877.296 749.519 870.977 749.519 Q868.801 749.519 866.532 749.149 Q864.287 748.778 861.88 748.038 L861.88 743.339 Q863.963 744.473 866.185 745.028 Q868.407 745.584 870.884 745.584 Q874.889 745.584 877.227 743.478 Q879.565 741.371 879.565 737.76 Q879.565 734.149 877.227 732.042 Q874.889 729.936 870.884 729.936 Q869.009 729.936 867.134 730.353 Q865.282 730.769 863.338 731.649 L863.338 714.288 Z" fill="#000000" fill-rule="evenodd" fill-opacity="1" /><path clip-path="url(#clip330)" d="M1038.96 744.913 L1055.28 744.913 L1055.28 748.848 L1033.33 748.848 L1033.33 744.913 Q1036 742.158 1040.58 737.528 Q1045.19 732.876 1046.37 731.533 Q1048.61 729.01 1049.49 727.274 Q1050.39 725.515 1050.39 723.825 Q1050.39 721.07 1048.45 719.334 Q1046.53 717.598 1043.43 717.598 Q1041.23 717.598 1038.77 718.362 Q1036.34 719.126 1033.57 720.677 L1033.57 715.955 Q1036.39 714.82 1038.84 714.242 Q1041.3 713.663 1043.33 713.663 Q1048.7 713.663 1051.9 716.348 Q1055.09 719.033 1055.09 723.524 Q1055.09 725.654 1054.28 727.575 Q1053.5 729.473 1051.39 732.066 Q1050.81 732.737 1047.71 735.954 Q1044.61 739.149 1038.96 744.913 Z" fill="#000000" fill-rule="evenodd" fill-opacity="1" /><path clip-path="url(#clip330)" d="M1075.09 717.367 Q1071.48 717.367 1069.65 720.931 Q1067.85 724.473 1067.85 731.603 Q1067.85 738.709 1069.65 742.274 Q1071.48 745.815 1075.09 745.815 Q1078.73 745.815 1080.53 742.274 Q1082.36 738.709 1082.36 731.603 Q1082.36 724.473 1080.53 720.931 Q1078.73 717.367 1075.09 717.367 M1075.09 713.663 Q1080.9 713.663 1083.96 718.269 Q1087.04 722.853 1087.04 731.603 Q1087.04 740.329 1083.96 744.936 Q1080.9 749.519 1075.09 749.519 Q1069.28 749.519 1066.2 744.936 Q1063.15 740.329 1063.15 731.603 Q1063.15 722.853 1066.2 718.269 Q1069.28 713.663 1075.09 713.663 Z" fill="#000000" fill-rule="evenodd" fill-opacity="1" /><polyline clip-path="url(#clip332)" style="stroke:#000000; stroke-linecap:butt; stroke-linejoin:round; stroke-width:2; stroke-opacity:0.1; fill:none" points="
  202.177,670.515 1152.76,670.515 
  "/>
<polyline clip-path="url(#clip332)" style="stroke:#000000; stroke-linecap:butt; stroke-linejoin:round; stroke-width:2; stroke-opacity:0.1; fill:none" points="
  202.177,528.885 1152.76,528.885 
  "/>
<polyline clip-path="url(#clip332)" style="stroke:#000000; stroke-linecap:butt; stroke-linejoin:round; stroke-width:2; stroke-opacity:0.1; fill:none" points="
  202.177,387.256 1152.76,387.256 
  "/>
<polyline clip-path="url(#clip332)" style="stroke:#000000; stroke-linecap:butt; stroke-linejoin:round; stroke-width:2; stroke-opacity:0.1; fill:none" points="
  202.177,245.627 1152.76,245.627 
  "/>
<polyline clip-path="url(#clip330)" style="stroke:#000000; stroke-linecap:butt; stroke-linejoin:round; stroke-width:4; stroke-opacity:1; fill:none" points="
  202.177,686.448 202.177,123.472 
  "/>
<polyline clip-path="url(#clip330)" style="stroke:#000000; stroke-linecap:butt; stroke-linejoin:round; stroke-width:4; stroke-opacity:1; fill:none" points="
  202.177,670.515 221.074,670.515 
  "/>
<polyline clip-path="url(#clip330)" style="stroke:#000000; stroke-linecap:butt; stroke-linejoin:round; stroke-width:4; stroke-opacity:1; fill:none" points="
  202.177,528.885 221.074,528.885 
  "/>
<polyline clip-path="url(#clip330)" style="stroke:#000000; stroke-linecap:butt; stroke-linejoin:round; stroke-width:4; stroke-opacity:1; fill:none" points="
  202.177,387.256 221.074,387.256 
  "/>
<polyline clip-path="url(#clip330)" style="stroke:#000000; stroke-linecap:butt; stroke-linejoin:round; stroke-width:4; stroke-opacity:1; fill:none" points="
  202.177,245.627 221.074,245.627 
  "/>
<path clip-path="url(#clip330)" d="M154.232 656.313 Q150.621 656.313 148.793 659.878 Q146.987 663.42 146.987 670.549 Q146.987 677.656 148.793 681.221 Q150.621 684.762 154.232 684.762 Q157.867 684.762 159.672 681.221 Q161.501 677.656 161.501 670.549 Q161.501 663.42 159.672 659.878 Q157.867 656.313 154.232 656.313 M154.232 652.61 Q160.042 652.61 163.098 657.216 Q166.177 661.799 166.177 670.549 Q166.177 679.276 163.098 683.883 Q160.042 688.466 154.232 688.466 Q148.422 688.466 145.343 683.883 Q142.288 679.276 142.288 670.549 Q142.288 661.799 145.343 657.216 Q148.422 652.61 154.232 652.61 Z" fill="#000000" fill-rule="evenodd" fill-opacity="1" /><path clip-path="url(#clip330)" d="M57.7745 542.23 L74.0939 542.23 L74.0939 546.165 L52.1495 546.165 L52.1495 542.23 Q54.8115 539.476 59.3949 534.846 Q64.0013 530.193 65.1819 528.851 Q67.4272 526.328 68.3068 524.592 Q69.2096 522.832 69.2096 521.142 Q69.2096 518.388 67.2652 516.652 Q65.3439 514.916 62.2421 514.916 Q60.043 514.916 57.5893 515.68 Q55.1588 516.443 52.381 517.994 L52.381 513.272 Q55.2051 512.138 57.6588 511.559 Q60.1124 510.98 62.1495 510.98 Q67.5198 510.98 70.7142 513.666 Q73.9087 516.351 73.9087 520.842 Q73.9087 522.971 73.0985 524.892 Q72.3115 526.791 70.205 529.383 Q69.6263 530.054 66.5245 533.272 Q63.4226 536.466 57.7745 542.23 Z" fill="#000000" fill-rule="evenodd" fill-opacity="1" /><path clip-path="url(#clip330)" d="M93.9086 514.684 Q90.2975 514.684 88.4688 518.249 Q86.6632 521.791 86.6632 528.92 Q86.6632 536.027 88.4688 539.591 Q90.2975 543.133 93.9086 543.133 Q97.5428 543.133 99.3483 539.591 Q101.177 536.027 101.177 528.92 Q101.177 521.791 99.3483 518.249 Q97.5428 514.684 93.9086 514.684 M93.9086 510.98 Q99.7187 510.98 102.774 515.587 Q105.853 520.17 105.853 528.92 Q105.853 537.647 102.774 542.253 Q99.7187 546.837 93.9086 546.837 Q88.0984 546.837 85.0197 542.253 Q81.9642 537.647 81.9642 528.92 Q81.9642 520.17 85.0197 515.587 Q88.0984 510.98 93.9086 510.98 Z" fill="#000000" fill-rule="evenodd" fill-opacity="1" /><path clip-path="url(#clip330)" d="M124.07 514.684 Q120.459 514.684 118.631 518.249 Q116.825 521.791 116.825 528.92 Q116.825 536.027 118.631 539.591 Q120.459 543.133 124.07 543.133 Q127.705 543.133 129.51 539.591 Q131.339 536.027 131.339 528.92 Q131.339 521.791 129.51 518.249 Q127.705 514.684 124.07 514.684 M124.07 510.98 Q129.881 510.98 132.936 515.587 Q136.015 520.17 136.015 528.92 Q136.015 537.647 132.936 542.253 Q129.881 546.837 124.07 546.837 Q118.26 546.837 115.182 542.253 Q112.126 537.647 112.126 528.92 Q112.126 520.17 115.182 515.587 Q118.26 510.98 124.07 510.98 Z" fill="#000000" fill-rule="evenodd" fill-opacity="1" /><path clip-path="url(#clip330)" d="M154.232 514.684 Q150.621 514.684 148.793 518.249 Q146.987 521.791 146.987 528.92 Q146.987 536.027 148.793 539.591 Q150.621 543.133 154.232 543.133 Q157.867 543.133 159.672 539.591 Q161.501 536.027 161.501 528.92 Q161.501 521.791 159.672 518.249 Q157.867 514.684 154.232 514.684 M154.232 510.98 Q160.042 510.98 163.098 515.587 Q166.177 520.17 166.177 528.92 Q166.177 537.647 163.098 542.253 Q160.042 546.837 154.232 546.837 Q148.422 546.837 145.343 542.253 Q142.288 537.647 142.288 528.92 Q142.288 520.17 145.343 515.587 Q148.422 510.98 154.232 510.98 Z" fill="#000000" fill-rule="evenodd" fill-opacity="1" /><path clip-path="url(#clip330)" d="M66.5939 374.05 L54.7884 392.499 L66.5939 392.499 L66.5939 374.05 M65.367 369.976 L71.2466 369.976 L71.2466 392.499 L76.1772 392.499 L76.1772 396.388 L71.2466 396.388 L71.2466 404.536 L66.5939 404.536 L66.5939 396.388 L50.9921 396.388 L50.9921 391.874 L65.367 369.976 Z" fill="#000000" fill-rule="evenodd" fill-opacity="1" /><path clip-path="url(#clip330)" d="M93.9086 373.055 Q90.2975 373.055 88.4688 376.62 Q86.6632 380.161 86.6632 387.291 Q86.6632 394.398 88.4688 397.962 Q90.2975 401.504 93.9086 401.504 Q97.5428 401.504 99.3483 397.962 Q101.177 394.398 101.177 387.291 Q101.177 380.161 99.3483 376.62 Q97.5428 373.055 93.9086 373.055 M93.9086 369.351 Q99.7187 369.351 102.774 373.958 Q105.853 378.541 105.853 387.291 Q105.853 396.018 102.774 400.624 Q99.7187 405.208 93.9086 405.208 Q88.0984 405.208 85.0197 400.624 Q81.9642 396.018 81.9642 387.291 Q81.9642 378.541 85.0197 373.958 Q88.0984 369.351 93.9086 369.351 Z" fill="#000000" fill-rule="evenodd" fill-opacity="1" /><path clip-path="url(#clip330)" d="M124.07 373.055 Q120.459 373.055 118.631 376.62 Q116.825 380.161 116.825 387.291 Q116.825 394.398 118.631 397.962 Q120.459 401.504 124.07 401.504 Q127.705 401.504 129.51 397.962 Q131.339 394.398 131.339 387.291 Q131.339 380.161 129.51 376.62 Q127.705 373.055 124.07 373.055 M124.07 369.351 Q129.881 369.351 132.936 373.958 Q136.015 378.541 136.015 387.291 Q136.015 396.018 132.936 400.624 Q129.881 405.208 124.07 405.208 Q118.26 405.208 115.182 400.624 Q112.126 396.018 112.126 387.291 Q112.126 378.541 115.182 373.958 Q118.26 369.351 124.07 369.351 Z" fill="#000000" fill-rule="evenodd" fill-opacity="1" /><path clip-path="url(#clip330)" d="M154.232 373.055 Q150.621 373.055 148.793 376.62 Q146.987 380.161 146.987 387.291 Q146.987 394.398 148.793 397.962 Q150.621 401.504 154.232 401.504 Q157.867 401.504 159.672 397.962 Q161.501 394.398 161.501 387.291 Q161.501 380.161 159.672 376.62 Q157.867 373.055 154.232 373.055 M154.232 369.351 Q160.042 369.351 163.098 373.958 Q166.177 378.541 166.177 387.291 Q166.177 396.018 163.098 400.624 Q160.042 405.208 154.232 405.208 Q148.422 405.208 145.343 400.624 Q142.288 396.018 142.288 387.291 Q142.288 378.541 145.343 373.958 Q148.422 369.351 154.232 369.351 Z" fill="#000000" fill-rule="evenodd" fill-opacity="1" /><path clip-path="url(#clip330)" d="M64.3254 243.764 Q61.1773 243.764 59.3254 245.917 Q57.4967 248.069 57.4967 251.819 Q57.4967 255.546 59.3254 257.722 Q61.1773 259.875 64.3254 259.875 Q67.4735 259.875 69.3022 257.722 Q71.1541 255.546 71.1541 251.819 Q71.1541 248.069 69.3022 245.917 Q67.4735 243.764 64.3254 243.764 M73.6077 229.111 L73.6077 233.37 Q71.8485 232.537 70.0429 232.097 Q68.2606 231.657 66.5013 231.657 Q61.8717 231.657 59.418 234.782 Q56.9875 237.907 56.6402 244.227 Q58.006 242.213 60.0662 241.148 Q62.1263 240.06 64.6032 240.06 Q69.8115 240.06 72.8207 243.231 Q75.8531 246.38 75.8531 251.819 Q75.8531 257.143 72.705 260.361 Q69.5568 263.579 64.3254 263.579 Q58.33 263.579 55.1588 258.995 Q51.9875 254.389 51.9875 245.662 Q51.9875 237.468 55.8764 232.606 Q59.7652 227.722 66.3161 227.722 Q68.0754 227.722 69.8578 228.069 Q71.6633 228.417 73.6077 229.111 Z" fill="#000000" fill-rule="evenodd" fill-opacity="1" /><path clip-path="url(#clip330)" d="M93.9086 231.426 Q90.2975 231.426 88.4688 234.991 Q86.6632 238.532 86.6632 245.662 Q86.6632 252.768 88.4688 256.333 Q90.2975 259.875 93.9086 259.875 Q97.5428 259.875 99.3483 256.333 Q101.177 252.768 101.177 245.662 Q101.177 238.532 99.3483 234.991 Q97.5428 231.426 93.9086 231.426 M93.9086 227.722 Q99.7187 227.722 102.774 232.329 Q105.853 236.912 105.853 245.662 Q105.853 254.389 102.774 258.995 Q99.7187 263.579 93.9086 263.579 Q88.0984 263.579 85.0197 258.995 Q81.9642 254.389 81.9642 245.662 Q81.9642 236.912 85.0197 232.329 Q88.0984 227.722 93.9086 227.722 Z" fill="#000000" fill-rule="evenodd" fill-opacity="1" /><path clip-path="url(#clip330)" d="M124.07 231.426 Q120.459 231.426 118.631 234.991 Q116.825 238.532 116.825 245.662 Q116.825 252.768 118.631 256.333 Q120.459 259.875 124.07 259.875 Q127.705 259.875 129.51 256.333 Q131.339 252.768 131.339 245.662 Q131.339 238.532 129.51 234.991 Q127.705 231.426 124.07 231.426 M124.07 227.722 Q129.881 227.722 132.936 232.329 Q136.015 236.912 136.015 245.662 Q136.015 254.389 132.936 258.995 Q129.881 263.579 124.07 263.579 Q118.26 263.579 115.182 258.995 Q112.126 254.389 112.126 245.662 Q112.126 236.912 115.182 232.329 Q118.26 227.722 124.07 227.722 Z" fill="#000000" fill-rule="evenodd" fill-opacity="1" /><path clip-path="url(#clip330)" d="M154.232 231.426 Q150.621 231.426 148.793 234.991 Q146.987 238.532 146.987 245.662 Q146.987 252.768 148.793 256.333 Q150.621 259.875 154.232 259.875 Q157.867 259.875 159.672 256.333 Q161.501 252.768 161.501 245.662 Q161.501 238.532 159.672 234.991 Q157.867 231.426 154.232 231.426 M154.232 227.722 Q160.042 227.722 163.098 232.329 Q166.177 236.912 166.177 245.662 Q166.177 254.389 163.098 258.995 Q160.042 263.579 154.232 263.579 Q148.422 263.579 145.343 258.995 Q142.288 254.389 142.288 245.662 Q142.288 236.912 145.343 232.329 Q148.422 227.722 154.232 227.722 Z" fill="#000000" fill-rule="evenodd" fill-opacity="1" /><path clip-path="url(#clip330)" d="M565.499 65.7705 L565.499 89.8329 L558.005 89.8329 L558.005 27.2059 L565.499 27.2059 L565.499 34.0924 Q567.849 30.0415 571.414 28.0971 Q575.019 26.1121 580.002 26.1121 Q588.265 26.1121 593.41 32.6746 Q598.595 39.2371 598.595 49.9314 Q598.595 60.6258 593.41 67.1883 Q588.265 73.7508 580.002 73.7508 Q575.019 73.7508 571.414 71.8063 Q567.849 69.8214 565.499 65.7705 M590.858 49.9314 Q590.858 41.7081 587.455 37.0496 Q584.093 32.3505 578.179 32.3505 Q572.264 32.3505 568.862 37.0496 Q565.499 41.7081 565.499 49.9314 Q565.499 58.1548 568.862 62.8538 Q572.264 67.5124 578.179 67.5124 Q584.093 67.5124 587.455 62.8538 Q590.858 58.1548 590.858 49.9314 Z" fill="#000000" fill-rule="evenodd" fill-opacity="1" /><path clip-path="url(#clip330)" d="M611.923 34.9026 L663.855 34.9026 L663.855 41.7081 L611.923 41.7081 L611.923 34.9026 M611.923 51.4303 L663.855 51.4303 L663.855 58.3168 L611.923 58.3168 L611.923 51.4303 Z" fill="#000000" fill-rule="evenodd" fill-opacity="1" /><path clip-path="url(#clip330)" d="M699.017 17.4837 Q692.698 17.4837 689.497 23.7221 Q686.338 29.92 686.338 42.3968 Q686.338 54.833 689.497 61.0714 Q692.698 67.2693 699.017 67.2693 Q705.377 67.2693 708.537 61.0714 Q711.737 54.833 711.737 42.3968 Q711.737 29.92 708.537 23.7221 Q705.377 17.4837 699.017 17.4837 M699.017 11.0023 Q709.185 11.0023 714.532 19.0636 Q719.92 27.0843 719.92 42.3968 Q719.92 57.6687 714.532 65.73 Q709.185 73.7508 699.017 73.7508 Q688.849 73.7508 683.462 65.73 Q678.114 57.6687 678.114 42.3968 Q678.114 27.0843 683.462 19.0636 Q688.849 11.0023 699.017 11.0023 Z" fill="#000000" fill-rule="evenodd" fill-opacity="1" /><path clip-path="url(#clip330)" d="M734.3 62.2867 L742.848 62.2867 L742.848 72.576 L734.3 72.576 L734.3 62.2867 Z" fill="#000000" fill-rule="evenodd" fill-opacity="1" /><path clip-path="url(#clip330)" d="M762.09 65.6895 L775.458 65.6895 L775.458 19.5497 L760.915 22.4663 L760.915 15.0127 L775.377 12.096 L783.559 12.096 L783.559 65.6895 L796.927 65.6895 L796.927 72.576 L762.09 72.576 L762.09 65.6895 Z" fill="#000000" fill-rule="evenodd" fill-opacity="1" /><path clip-path="url(#clip332)" d="
M254.46 670.515 L254.46 670.515 L294.747 670.515 L294.747 670.515 L254.46 670.515 L254.46 670.515  Z
  " fill="#009af9" fill-rule="evenodd" fill-opacity="1"/>
<polyline clip-path="url(#clip332)" style="stroke:#000000; stroke-linecap:butt; stroke-linejoin:round; stroke-width:4; stroke-opacity:1; fill:none" points="
  254.46,670.515 254.46,670.515 294.747,670.515 254.46,670.515 
  "/>
<path clip-path="url(#clip332)" d="
M294.747 172.547 L294.747 670.515 L335.033 670.515 L335.033 172.547 L294.747 172.547 L294.747 172.547  Z
  " fill="#009af9" fill-rule="evenodd" fill-opacity="1"/>
<polyline clip-path="url(#clip332)" style="stroke:#000000; stroke-linecap:butt; stroke-linejoin:round; stroke-width:4; stroke-opacity:1; fill:none" points="
  294.747,172.547 294.747,670.515 335.033,670.515 335.033,172.547 294.747,172.547 
  "/>
<path clip-path="url(#clip332)" d="
M335.033 147.832 L335.033 670.515 L375.319 670.515 L375.319 147.832 L335.033 147.832 L335.033 147.832  Z
  " fill="#009af9" fill-rule="evenodd" fill-opacity="1"/>
<polyline clip-path="url(#clip332)" style="stroke:#000000; stroke-linecap:butt; stroke-linejoin:round; stroke-width:4; stroke-opacity:1; fill:none" points="
  335.033,147.832 335.033,670.515 375.319,670.515 375.319,147.832 335.033,147.832 
  "/>
<path clip-path="url(#clip332)" d="
M375.319 187.418 L375.319 670.515 L415.605 670.515 L415.605 187.418 L375.319 187.418 L375.319 187.418  Z
  " fill="#009af9" fill-rule="evenodd" fill-opacity="1"/>
<polyline clip-path="url(#clip332)" style="stroke:#000000; stroke-linecap:butt; stroke-linejoin:round; stroke-width:4; stroke-opacity:1; fill:none" points="
  375.319,187.418 375.319,670.515 415.605,670.515 415.605,187.418 375.319,187.418 
  "/>
<path clip-path="url(#clip332)" d="
M415.605 139.405 L415.605 670.515 L455.892 670.515 L455.892 139.405 L415.605 139.405 L415.605 139.405  Z
  " fill="#009af9" fill-rule="evenodd" fill-opacity="1"/>
<polyline clip-path="url(#clip332)" style="stroke:#000000; stroke-linecap:butt; stroke-linejoin:round; stroke-width:4; stroke-opacity:1; fill:none" points="
  415.605,139.405 415.605,670.515 455.892,670.515 455.892,139.405 415.605,139.405 
  "/>
<path clip-path="url(#clip332)" d="
M455.892 185.01 L455.892 670.515 L496.178 670.515 L496.178 185.01 L455.892 185.01 L455.892 185.01  Z
  " fill="#009af9" fill-rule="evenodd" fill-opacity="1"/>
<polyline clip-path="url(#clip332)" style="stroke:#000000; stroke-linecap:butt; stroke-linejoin:round; stroke-width:4; stroke-opacity:1; fill:none" points="
  455.892,185.01 455.892,670.515 496.178,670.515 496.178,185.01 455.892,185.01 
  "/>
<path clip-path="url(#clip332)" d="
M496.178 155.693 L496.178 670.515 L536.464 670.515 L536.464 155.693 L496.178 155.693 L496.178 155.693  Z
  " fill="#009af9" fill-rule="evenodd" fill-opacity="1"/>
<polyline clip-path="url(#clip332)" style="stroke:#000000; stroke-linecap:butt; stroke-linejoin:round; stroke-width:4; stroke-opacity:1; fill:none" points="
  496.178,155.693 496.178,670.515 536.464,670.515 536.464,155.693 496.178,155.693 
  "/>
<path clip-path="url(#clip332)" d="
M536.464 180.407 L536.464 670.515 L576.751 670.515 L576.751 180.407 L536.464 180.407 L536.464 180.407  Z
  " fill="#009af9" fill-rule="evenodd" fill-opacity="1"/>
<polyline clip-path="url(#clip332)" style="stroke:#000000; stroke-linecap:butt; stroke-linejoin:round; stroke-width:4; stroke-opacity:1; fill:none" points="
  536.464,180.407 536.464,670.515 576.751,670.515 576.751,180.407 536.464,180.407 
  "/>
<path clip-path="url(#clip332)" d="
M576.751 150.948 L576.751 670.515 L617.037 670.515 L617.037 150.948 L576.751 150.948 L576.751 150.948  Z
  " fill="#009af9" fill-rule="evenodd" fill-opacity="1"/>
<polyline clip-path="url(#clip332)" style="stroke:#000000; stroke-linecap:butt; stroke-linejoin:round; stroke-width:4; stroke-opacity:1; fill:none" points="
  576.751,150.948 576.751,670.515 617.037,670.515 617.037,150.948 576.751,150.948 
  "/>
<path clip-path="url(#clip332)" d="
M617.037 185.86 L617.037 670.515 L657.323 670.515 L657.323 185.86 L617.037 185.86 L617.037 185.86  Z
  " fill="#009af9" fill-rule="evenodd" fill-opacity="1"/>
<polyline clip-path="url(#clip332)" style="stroke:#000000; stroke-linecap:butt; stroke-linejoin:round; stroke-width:4; stroke-opacity:1; fill:none" points="
  617.037,185.86 617.037,670.515 657.323,670.515 657.323,185.86 617.037,185.86 
  "/>
<path clip-path="url(#clip332)" d="
M657.323 150.452 L657.323 670.515 L697.609 670.515 L697.609 150.452 L657.323 150.452 L657.323 150.452  Z
  " fill="#009af9" fill-rule="evenodd" fill-opacity="1"/>
<polyline clip-path="url(#clip332)" style="stroke:#000000; stroke-linecap:butt; stroke-linejoin:round; stroke-width:4; stroke-opacity:1; fill:none" points="
  657.323,150.452 657.323,670.515 697.609,670.515 697.609,150.452 657.323,150.452 
  "/>
<path clip-path="url(#clip332)" d="
M697.609 484.131 L697.609 670.515 L737.896 670.515 L737.896 484.131 L697.609 484.131 L697.609 484.131  Z
  " fill="#009af9" fill-rule="evenodd" fill-opacity="1"/>
<polyline clip-path="url(#clip332)" style="stroke:#000000; stroke-linecap:butt; stroke-linejoin:round; stroke-width:4; stroke-opacity:1; fill:none" points="
  697.609,484.131 697.609,670.515 737.896,670.515 737.896,484.131 697.609,484.131 
  "/>
<path clip-path="url(#clip332)" d="
M737.896 449.007 L737.896 670.515 L778.182 670.515 L778.182 449.007 L737.896 449.007 L737.896 449.007  Z
  " fill="#009af9" fill-rule="evenodd" fill-opacity="1"/>
<polyline clip-path="url(#clip332)" style="stroke:#000000; stroke-linecap:butt; stroke-linejoin:round; stroke-width:4; stroke-opacity:1; fill:none" points="
  737.896,449.007 737.896,670.515 778.182,670.515 778.182,449.007 737.896,449.007 
  "/>
<path clip-path="url(#clip332)" d="
M778.182 485.122 L778.182 670.515 L818.468 670.515 L818.468 485.122 L778.182 485.122 L778.182 485.122  Z
  " fill="#009af9" fill-rule="evenodd" fill-opacity="1"/>
<polyline clip-path="url(#clip332)" style="stroke:#000000; stroke-linecap:butt; stroke-linejoin:round; stroke-width:4; stroke-opacity:1; fill:none" points="
  778.182,485.122 778.182,670.515 818.468,670.515 818.468,485.122 778.182,485.122 
  "/>
<path clip-path="url(#clip332)" d="
M818.468 447.944 L818.468 670.515 L858.755 670.515 L858.755 447.944 L818.468 447.944 L818.468 447.944  Z
  " fill="#009af9" fill-rule="evenodd" fill-opacity="1"/>
<polyline clip-path="url(#clip332)" style="stroke:#000000; stroke-linecap:butt; stroke-linejoin:round; stroke-width:4; stroke-opacity:1; fill:none" points="
  818.468,447.944 818.468,670.515 858.755,670.515 858.755,447.944 818.468,447.944 
  "/>
<path clip-path="url(#clip332)" d="
M858.755 484.272 L858.755 670.515 L899.041 670.515 L899.041 484.272 L858.755 484.272 L858.755 484.272  Z
  " fill="#009af9" fill-rule="evenodd" fill-opacity="1"/>
<polyline clip-path="url(#clip332)" style="stroke:#000000; stroke-linecap:butt; stroke-linejoin:round; stroke-width:4; stroke-opacity:1; fill:none" points="
  858.755,484.272 858.755,670.515 899.041,670.515 899.041,484.272 858.755,484.272 
  "/>
<path clip-path="url(#clip332)" d="
M899.041 458.779 L899.041 670.515 L939.327 670.515 L939.327 458.779 L899.041 458.779 L899.041 458.779  Z
  " fill="#009af9" fill-rule="evenodd" fill-opacity="1"/>
<polyline clip-path="url(#clip332)" style="stroke:#000000; stroke-linecap:butt; stroke-linejoin:round; stroke-width:4; stroke-opacity:1; fill:none" points="
  899.041,458.779 899.041,670.515 939.327,670.515 939.327,458.779 899.041,458.779 
  "/>
<path clip-path="url(#clip332)" d="
M939.327 477.828 L939.327 670.515 L979.613 670.515 L979.613 477.828 L939.327 477.828 L939.327 477.828  Z
  " fill="#009af9" fill-rule="evenodd" fill-opacity="1"/>
<polyline clip-path="url(#clip332)" style="stroke:#000000; stroke-linecap:butt; stroke-linejoin:round; stroke-width:4; stroke-opacity:1; fill:none" points="
  939.327,477.828 939.327,670.515 979.613,670.515 979.613,477.828 939.327,477.828 
  "/>
<path clip-path="url(#clip332)" d="
M979.613 449.927 L979.613 670.515 L1019.9 670.515 L1019.9 449.927 L979.613 449.927 L979.613 449.927  Z
  " fill="#009af9" fill-rule="evenodd" fill-opacity="1"/>
<polyline clip-path="url(#clip332)" style="stroke:#000000; stroke-linecap:butt; stroke-linejoin:round; stroke-width:4; stroke-opacity:1; fill:none" points="
  979.613,449.927 979.613,670.515 1019.9,670.515 1019.9,449.927 979.613,449.927 
  "/>
<path clip-path="url(#clip332)" d="
M1019.9 487.955 L1019.9 670.515 L1060.19 670.515 L1060.19 487.955 L1019.9 487.955 L1019.9 487.955  Z
  " fill="#009af9" fill-rule="evenodd" fill-opacity="1"/>
<polyline clip-path="url(#clip332)" style="stroke:#000000; stroke-linecap:butt; stroke-linejoin:round; stroke-width:4; stroke-opacity:1; fill:none" points="
  1019.9,487.955 1019.9,670.515 1060.19,670.515 1060.19,487.955 1019.9,487.955 
  "/>
<path clip-path="url(#clip332)" d="
M1060.19 448.299 L1060.19 670.515 L1100.47 670.515 L1100.47 448.299 L1060.19 448.299 L1060.19 448.299  Z
  " fill="#009af9" fill-rule="evenodd" fill-opacity="1"/>
<polyline clip-path="url(#clip332)" style="stroke:#000000; stroke-linecap:butt; stroke-linejoin:round; stroke-width:4; stroke-opacity:1; fill:none" points="
  1060.19,448.299 1060.19,670.515 1100.47,670.515 1100.47,448.299 1060.19,448.299 
  "/>
<circle clip-path="url(#clip332)" style="fill:#009af9; stroke:none; fill-opacity:0" cx="274.603" cy="670.515" r="2"/>
<circle clip-path="url(#clip332)" style="fill:#009af9; stroke:none; fill-opacity:0" cx="314.89" cy="172.547" r="2"/>
<circle clip-path="url(#clip332)" style="fill:#009af9; stroke:none; fill-opacity:0" cx="355.176" cy="147.832" r="2"/>
<circle clip-path="url(#clip332)" style="fill:#009af9; stroke:none; fill-opacity:0" cx="395.462" cy="187.418" r="2"/>
<circle clip-path="url(#clip332)" style="fill:#009af9; stroke:none; fill-opacity:0" cx="435.749" cy="139.405" r="2"/>
<circle clip-path="url(#clip332)" style="fill:#009af9; stroke:none; fill-opacity:0" cx="476.035" cy="185.01" r="2"/>
<circle clip-path="url(#clip332)" style="fill:#009af9; stroke:none; fill-opacity:0" cx="516.321" cy="155.693" r="2"/>
<circle clip-path="url(#clip332)" style="fill:#009af9; stroke:none; fill-opacity:0" cx="556.607" cy="180.407" r="2"/>
<circle clip-path="url(#clip332)" style="fill:#009af9; stroke:none; fill-opacity:0" cx="596.894" cy="150.948" r="2"/>
<circle clip-path="url(#clip332)" style="fill:#009af9; stroke:none; fill-opacity:0" cx="637.18" cy="185.86" r="2"/>
<circle clip-path="url(#clip332)" style="fill:#009af9; stroke:none; fill-opacity:0" cx="677.466" cy="150.452" r="2"/>
<circle clip-path="url(#clip332)" style="fill:#009af9; stroke:none; fill-opacity:0" cx="717.753" cy="484.131" r="2"/>
<circle clip-path="url(#clip332)" style="fill:#009af9; stroke:none; fill-opacity:0" cx="758.039" cy="449.007" r="2"/>
<circle clip-path="url(#clip332)" style="fill:#009af9; stroke:none; fill-opacity:0" cx="798.325" cy="485.122" r="2"/>
<circle clip-path="url(#clip332)" style="fill:#009af9; stroke:none; fill-opacity:0" cx="838.611" cy="447.944" r="2"/>
<circle clip-path="url(#clip332)" style="fill:#009af9; stroke:none; fill-opacity:0" cx="878.898" cy="484.272" r="2"/>
<circle clip-path="url(#clip332)" style="fill:#009af9; stroke:none; fill-opacity:0" cx="919.184" cy="458.779" r="2"/>
<circle clip-path="url(#clip332)" style="fill:#009af9; stroke:none; fill-opacity:0" cx="959.47" cy="477.828" r="2"/>
<circle clip-path="url(#clip332)" style="fill:#009af9; stroke:none; fill-opacity:0" cx="999.757" cy="449.927" r="2"/>
<circle clip-path="url(#clip332)" style="fill:#009af9; stroke:none; fill-opacity:0" cx="1040.04" cy="487.955" r="2"/>
<circle clip-path="url(#clip332)" style="fill:#009af9; stroke:none; fill-opacity:0" cx="1080.33" cy="448.299" r="2"/>
<path clip-path="url(#clip330)" d="
M1402.18 686.448 L2352.76 686.448 L2352.76 123.472 L1402.18 123.472  Z
  " fill="#ffffff" fill-rule="evenodd" fill-opacity="1"/>
<defs>
  <clipPath id="clip333">
    <rect x="1402" y="123" width="952" height="564"/>
  </clipPath>
</defs>
<polyline clip-path="url(#clip333)" style="stroke:#000000; stroke-linecap:butt; stroke-linejoin:round; stroke-width:2; stroke-opacity:0.1; fill:none" points="
  1454.46,686.448 1454.46,123.472 
  "/>
<polyline clip-path="url(#clip333)" style="stroke:#000000; stroke-linecap:butt; stroke-linejoin:round; stroke-width:2; stroke-opacity:0.1; fill:none" points="
  1655.89,686.448 1655.89,123.472 
  "/>
<polyline clip-path="url(#clip333)" style="stroke:#000000; stroke-linecap:butt; stroke-linejoin:round; stroke-width:2; stroke-opacity:0.1; fill:none" points="
  1857.32,686.448 1857.32,123.472 
  "/>
<polyline clip-path="url(#clip333)" style="stroke:#000000; stroke-linecap:butt; stroke-linejoin:round; stroke-width:2; stroke-opacity:0.1; fill:none" points="
  2058.75,686.448 2058.75,123.472 
  "/>
<polyline clip-path="url(#clip333)" style="stroke:#000000; stroke-linecap:butt; stroke-linejoin:round; stroke-width:2; stroke-opacity:0.1; fill:none" points="
  2260.19,686.448 2260.19,123.472 
  "/>
<polyline clip-path="url(#clip330)" style="stroke:#000000; stroke-linecap:butt; stroke-linejoin:round; stroke-width:4; stroke-opacity:1; fill:none" points="
  1402.18,686.448 2352.76,686.448 
  "/>
<polyline clip-path="url(#clip330)" style="stroke:#000000; stroke-linecap:butt; stroke-linejoin:round; stroke-width:4; stroke-opacity:1; fill:none" points="
  1454.46,686.448 1454.46,667.55 
  "/>
<polyline clip-path="url(#clip330)" style="stroke:#000000; stroke-linecap:butt; stroke-linejoin:round; stroke-width:4; stroke-opacity:1; fill:none" points="
  1655.89,686.448 1655.89,667.55 
  "/>
<polyline clip-path="url(#clip330)" style="stroke:#000000; stroke-linecap:butt; stroke-linejoin:round; stroke-width:4; stroke-opacity:1; fill:none" points="
  1857.32,686.448 1857.32,667.55 
  "/>
<polyline clip-path="url(#clip330)" style="stroke:#000000; stroke-linecap:butt; stroke-linejoin:round; stroke-width:4; stroke-opacity:1; fill:none" points="
  2058.75,686.448 2058.75,667.55 
  "/>
<polyline clip-path="url(#clip330)" style="stroke:#000000; stroke-linecap:butt; stroke-linejoin:round; stroke-width:4; stroke-opacity:1; fill:none" points="
  2260.19,686.448 2260.19,667.55 
  "/>
<path clip-path="url(#clip330)" d="M1454.46 717.367 Q1450.85 717.367 1449.02 720.931 Q1447.21 724.473 1447.21 731.603 Q1447.21 738.709 1449.02 742.274 Q1450.85 745.815 1454.46 745.815 Q1458.09 745.815 1459.9 742.274 Q1461.73 738.709 1461.73 731.603 Q1461.73 724.473 1459.9 720.931 Q1458.09 717.367 1454.46 717.367 M1454.46 713.663 Q1460.27 713.663 1463.33 718.269 Q1466.4 722.853 1466.4 731.603 Q1466.4 740.329 1463.33 744.936 Q1460.27 749.519 1454.46 749.519 Q1448.65 749.519 1445.57 744.936 Q1442.52 740.329 1442.52 731.603 Q1442.52 722.853 1445.57 718.269 Q1448.65 713.663 1454.46 713.663 Z" fill="#000000" fill-rule="evenodd" fill-opacity="1" /><path clip-path="url(#clip330)" d="M1646.17 714.288 L1664.53 714.288 L1664.53 718.223 L1650.45 718.223 L1650.45 726.695 Q1651.47 726.348 1652.49 726.186 Q1653.51 726.001 1654.53 726.001 Q1660.31 726.001 1663.69 729.172 Q1667.07 732.343 1667.07 737.76 Q1667.07 743.339 1663.6 746.44 Q1660.13 749.519 1653.81 749.519 Q1651.63 749.519 1649.36 749.149 Q1647.12 748.778 1644.71 748.038 L1644.71 743.339 Q1646.79 744.473 1649.02 745.028 Q1651.24 745.584 1653.72 745.584 Q1657.72 745.584 1660.06 743.478 Q1662.4 741.371 1662.4 737.76 Q1662.4 734.149 1660.06 732.042 Q1657.72 729.936 1653.72 729.936 Q1651.84 729.936 1649.97 730.353 Q1648.11 730.769 1646.17 731.649 L1646.17 714.288 Z" fill="#000000" fill-rule="evenodd" fill-opacity="1" /><path clip-path="url(#clip330)" d="M1832.01 744.913 L1839.65 744.913 L1839.65 718.547 L1831.34 720.214 L1831.34 715.955 L1839.6 714.288 L1844.28 714.288 L1844.28 744.913 L1851.92 744.913 L1851.92 748.848 L1832.01 748.848 L1832.01 744.913 Z" fill="#000000" fill-rule="evenodd" fill-opacity="1" /><path clip-path="url(#clip330)" d="M1871.36 717.367 Q1867.75 717.367 1865.92 720.931 Q1864.12 724.473 1864.12 731.603 Q1864.12 738.709 1865.92 742.274 Q1867.75 745.815 1871.36 745.815 Q1875 745.815 1876.8 742.274 Q1878.63 738.709 1878.63 731.603 Q1878.63 724.473 1876.8 720.931 Q1875 717.367 1871.36 717.367 M1871.36 713.663 Q1877.17 713.663 1880.23 718.269 Q1883.31 722.853 1883.31 731.603 Q1883.31 740.329 1880.23 744.936 Q1877.17 749.519 1871.36 749.519 Q1865.55 749.519 1862.47 744.936 Q1859.42 740.329 1859.42 731.603 Q1859.42 722.853 1862.47 718.269 Q1865.55 713.663 1871.36 713.663 Z" fill="#000000" fill-rule="evenodd" fill-opacity="1" /><path clip-path="url(#clip330)" d="M2033.94 744.913 L2041.58 744.913 L2041.58 718.547 L2033.27 720.214 L2033.27 715.955 L2041.53 714.288 L2046.21 714.288 L2046.21 744.913 L2053.85 744.913 L2053.85 748.848 L2033.94 748.848 L2033.94 744.913 Z" fill="#000000" fill-rule="evenodd" fill-opacity="1" /><path clip-path="url(#clip330)" d="M2063.34 714.288 L2081.69 714.288 L2081.69 718.223 L2067.62 718.223 L2067.62 726.695 Q2068.64 726.348 2069.66 726.186 Q2070.68 726.001 2071.69 726.001 Q2077.48 726.001 2080.86 729.172 Q2084.24 732.343 2084.24 737.76 Q2084.24 743.339 2080.77 746.44 Q2077.3 749.519 2070.98 749.519 Q2068.8 749.519 2066.53 749.149 Q2064.29 748.778 2061.88 748.038 L2061.88 743.339 Q2063.96 744.473 2066.19 745.028 Q2068.41 745.584 2070.88 745.584 Q2074.89 745.584 2077.23 743.478 Q2079.56 741.371 2079.56 737.76 Q2079.56 734.149 2077.23 732.042 Q2074.89 729.936 2070.88 729.936 Q2069.01 729.936 2067.13 730.353 Q2065.28 730.769 2063.34 731.649 L2063.34 714.288 Z" fill="#000000" fill-rule="evenodd" fill-opacity="1" /><path clip-path="url(#clip330)" d="M2238.96 744.913 L2255.28 744.913 L2255.28 748.848 L2233.33 748.848 L2233.33 744.913 Q2236 742.158 2240.58 737.528 Q2245.19 732.876 2246.37 731.533 Q2248.61 729.01 2249.49 727.274 Q2250.39 725.515 2250.39 723.825 Q2250.39 721.07 2248.45 719.334 Q2246.53 717.598 2243.43 717.598 Q2241.23 717.598 2238.77 718.362 Q2236.34 719.126 2233.57 720.677 L2233.57 715.955 Q2236.39 714.82 2238.84 714.242 Q2241.3 713.663 2243.33 713.663 Q2248.7 713.663 2251.9 716.348 Q2255.09 719.033 2255.09 723.524 Q2255.09 725.654 2254.28 727.575 Q2253.5 729.473 2251.39 732.066 Q2250.81 732.737 2247.71 735.954 Q2244.61 739.149 2238.96 744.913 Z" fill="#000000" fill-rule="evenodd" fill-opacity="1" /><path clip-path="url(#clip330)" d="M2275.09 717.367 Q2271.48 717.367 2269.65 720.931 Q2267.85 724.473 2267.85 731.603 Q2267.85 738.709 2269.65 742.274 Q2271.48 745.815 2275.09 745.815 Q2278.73 745.815 2280.53 742.274 Q2282.36 738.709 2282.36 731.603 Q2282.36 724.473 2280.53 720.931 Q2278.73 717.367 2275.09 717.367 M2275.09 713.663 Q2280.9 713.663 2283.96 718.269 Q2287.04 722.853 2287.04 731.603 Q2287.04 740.329 2283.96 744.936 Q2280.9 749.519 2275.09 749.519 Q2269.28 749.519 2266.2 744.936 Q2263.15 740.329 2263.15 731.603 Q2263.15 722.853 2266.2 718.269 Q2269.28 713.663 2275.09 713.663 Z" fill="#000000" fill-rule="evenodd" fill-opacity="1" /><polyline clip-path="url(#clip333)" style="stroke:#000000; stroke-linecap:butt; stroke-linejoin:round; stroke-width:2; stroke-opacity:0.1; fill:none" points="
  1402.18,670.515 2352.76,670.515 
  "/>
<polyline clip-path="url(#clip333)" style="stroke:#000000; stroke-linecap:butt; stroke-linejoin:round; stroke-width:2; stroke-opacity:0.1; fill:none" points="
  1402.18,527.049 2352.76,527.049 
  "/>
<polyline clip-path="url(#clip333)" style="stroke:#000000; stroke-linecap:butt; stroke-linejoin:round; stroke-width:2; stroke-opacity:0.1; fill:none" points="
  1402.18,383.584 2352.76,383.584 
  "/>
<polyline clip-path="url(#clip333)" style="stroke:#000000; stroke-linecap:butt; stroke-linejoin:round; stroke-width:2; stroke-opacity:0.1; fill:none" points="
  1402.18,240.118 2352.76,240.118 
  "/>
<polyline clip-path="url(#clip330)" style="stroke:#000000; stroke-linecap:butt; stroke-linejoin:round; stroke-width:4; stroke-opacity:1; fill:none" points="
  1402.18,686.448 1402.18,123.472 
  "/>
<polyline clip-path="url(#clip330)" style="stroke:#000000; stroke-linecap:butt; stroke-linejoin:round; stroke-width:4; stroke-opacity:1; fill:none" points="
  1402.18,670.515 1421.07,670.515 
  "/>
<polyline clip-path="url(#clip330)" style="stroke:#000000; stroke-linecap:butt; stroke-linejoin:round; stroke-width:4; stroke-opacity:1; fill:none" points="
  1402.18,527.049 1421.07,527.049 
  "/>
<polyline clip-path="url(#clip330)" style="stroke:#000000; stroke-linecap:butt; stroke-linejoin:round; stroke-width:4; stroke-opacity:1; fill:none" points="
  1402.18,383.584 1421.07,383.584 
  "/>
<polyline clip-path="url(#clip330)" style="stroke:#000000; stroke-linecap:butt; stroke-linejoin:round; stroke-width:4; stroke-opacity:1; fill:none" points="
  1402.18,240.118 1421.07,240.118 
  "/>
<path clip-path="url(#clip330)" d="M1354.23 656.313 Q1350.62 656.313 1348.79 659.878 Q1346.99 663.42 1346.99 670.549 Q1346.99 677.656 1348.79 681.221 Q1350.62 684.762 1354.23 684.762 Q1357.87 684.762 1359.67 681.221 Q1361.5 677.656 1361.5 670.549 Q1361.5 663.42 1359.67 659.878 Q1357.87 656.313 1354.23 656.313 M1354.23 652.61 Q1360.04 652.61 1363.1 657.216 Q1366.18 661.799 1366.18 670.549 Q1366.18 679.276 1363.1 683.883 Q1360.04 688.466 1354.23 688.466 Q1348.42 688.466 1345.34 683.883 Q1342.29 679.276 1342.29 670.549 Q1342.29 661.799 1345.34 657.216 Q1348.42 652.61 1354.23 652.61 Z" fill="#000000" fill-rule="evenodd" fill-opacity="1" /><path clip-path="url(#clip330)" d="M1257.77 540.394 L1274.09 540.394 L1274.09 544.329 L1252.15 544.329 L1252.15 540.394 Q1254.81 537.639 1259.39 533.01 Q1264 528.357 1265.18 527.014 Q1267.43 524.491 1268.31 522.755 Q1269.21 520.996 1269.21 519.306 Q1269.21 516.551 1267.27 514.815 Q1265.34 513.079 1262.24 513.079 Q1260.04 513.079 1257.59 513.843 Q1255.16 514.607 1252.38 516.158 L1252.38 511.436 Q1255.21 510.302 1257.66 509.723 Q1260.11 509.144 1262.15 509.144 Q1267.52 509.144 1270.71 511.829 Q1273.91 514.514 1273.91 519.005 Q1273.91 521.135 1273.1 523.056 Q1272.31 524.954 1270.2 527.547 Q1269.63 528.218 1266.52 531.436 Q1263.42 534.63 1257.77 540.394 Z" fill="#000000" fill-rule="evenodd" fill-opacity="1" /><path clip-path="url(#clip330)" d="M1293.91 512.848 Q1290.3 512.848 1288.47 516.413 Q1286.66 519.954 1286.66 527.084 Q1286.66 534.19 1288.47 537.755 Q1290.3 541.297 1293.91 541.297 Q1297.54 541.297 1299.35 537.755 Q1301.18 534.19 1301.18 527.084 Q1301.18 519.954 1299.35 516.413 Q1297.54 512.848 1293.91 512.848 M1293.91 509.144 Q1299.72 509.144 1302.77 513.751 Q1305.85 518.334 1305.85 527.084 Q1305.85 535.811 1302.77 540.417 Q1299.72 545 1293.91 545 Q1288.1 545 1285.02 540.417 Q1281.96 535.811 1281.96 527.084 Q1281.96 518.334 1285.02 513.751 Q1288.1 509.144 1293.91 509.144 Z" fill="#000000" fill-rule="evenodd" fill-opacity="1" /><path clip-path="url(#clip330)" d="M1324.07 512.848 Q1320.46 512.848 1318.63 516.413 Q1316.83 519.954 1316.83 527.084 Q1316.83 534.19 1318.63 537.755 Q1320.46 541.297 1324.07 541.297 Q1327.7 541.297 1329.51 537.755 Q1331.34 534.19 1331.34 527.084 Q1331.34 519.954 1329.51 516.413 Q1327.7 512.848 1324.07 512.848 M1324.07 509.144 Q1329.88 509.144 1332.94 513.751 Q1336.01 518.334 1336.01 527.084 Q1336.01 535.811 1332.94 540.417 Q1329.88 545 1324.07 545 Q1318.26 545 1315.18 540.417 Q1312.13 535.811 1312.13 527.084 Q1312.13 518.334 1315.18 513.751 Q1318.26 509.144 1324.07 509.144 Z" fill="#000000" fill-rule="evenodd" fill-opacity="1" /><path clip-path="url(#clip330)" d="M1354.23 512.848 Q1350.62 512.848 1348.79 516.413 Q1346.99 519.954 1346.99 527.084 Q1346.99 534.19 1348.79 537.755 Q1350.62 541.297 1354.23 541.297 Q1357.87 541.297 1359.67 537.755 Q1361.5 534.19 1361.5 527.084 Q1361.5 519.954 1359.67 516.413 Q1357.87 512.848 1354.23 512.848 M1354.23 509.144 Q1360.04 509.144 1363.1 513.751 Q1366.18 518.334 1366.18 527.084 Q1366.18 535.811 1363.1 540.417 Q1360.04 545 1354.23 545 Q1348.42 545 1345.34 540.417 Q1342.29 535.811 1342.29 527.084 Q1342.29 518.334 1345.34 513.751 Q1348.42 509.144 1354.23 509.144 Z" fill="#000000" fill-rule="evenodd" fill-opacity="1" /><path clip-path="url(#clip330)" d="M1266.59 370.378 L1254.79 388.827 L1266.59 388.827 L1266.59 370.378 M1265.37 366.304 L1271.25 366.304 L1271.25 388.827 L1276.18 388.827 L1276.18 392.716 L1271.25 392.716 L1271.25 400.864 L1266.59 400.864 L1266.59 392.716 L1250.99 392.716 L1250.99 388.202 L1265.37 366.304 Z" fill="#000000" fill-rule="evenodd" fill-opacity="1" /><path clip-path="url(#clip330)" d="M1293.91 369.382 Q1290.3 369.382 1288.47 372.947 Q1286.66 376.489 1286.66 383.618 Q1286.66 390.725 1288.47 394.29 Q1290.3 397.831 1293.91 397.831 Q1297.54 397.831 1299.35 394.29 Q1301.18 390.725 1301.18 383.618 Q1301.18 376.489 1299.35 372.947 Q1297.54 369.382 1293.91 369.382 M1293.91 365.679 Q1299.72 365.679 1302.77 370.285 Q1305.85 374.868 1305.85 383.618 Q1305.85 392.345 1302.77 396.952 Q1299.72 401.535 1293.91 401.535 Q1288.1 401.535 1285.02 396.952 Q1281.96 392.345 1281.96 383.618 Q1281.96 374.868 1285.02 370.285 Q1288.1 365.679 1293.91 365.679 Z" fill="#000000" fill-rule="evenodd" fill-opacity="1" /><path clip-path="url(#clip330)" d="M1324.07 369.382 Q1320.46 369.382 1318.63 372.947 Q1316.83 376.489 1316.83 383.618 Q1316.83 390.725 1318.63 394.29 Q1320.46 397.831 1324.07 397.831 Q1327.7 397.831 1329.51 394.29 Q1331.34 390.725 1331.34 383.618 Q1331.34 376.489 1329.51 372.947 Q1327.7 369.382 1324.07 369.382 M1324.07 365.679 Q1329.88 365.679 1332.94 370.285 Q1336.01 374.868 1336.01 383.618 Q1336.01 392.345 1332.94 396.952 Q1329.88 401.535 1324.07 401.535 Q1318.26 401.535 1315.18 396.952 Q1312.13 392.345 1312.13 383.618 Q1312.13 374.868 1315.18 370.285 Q1318.26 365.679 1324.07 365.679 Z" fill="#000000" fill-rule="evenodd" fill-opacity="1" /><path clip-path="url(#clip330)" d="M1354.23 369.382 Q1350.62 369.382 1348.79 372.947 Q1346.99 376.489 1346.99 383.618 Q1346.99 390.725 1348.79 394.29 Q1350.62 397.831 1354.23 397.831 Q1357.87 397.831 1359.67 394.29 Q1361.5 390.725 1361.5 383.618 Q1361.5 376.489 1359.67 372.947 Q1357.87 369.382 1354.23 369.382 M1354.23 365.679 Q1360.04 365.679 1363.1 370.285 Q1366.18 374.868 1366.18 383.618 Q1366.18 392.345 1363.1 396.952 Q1360.04 401.535 1354.23 401.535 Q1348.42 401.535 1345.34 396.952 Q1342.29 392.345 1342.29 383.618 Q1342.29 374.868 1345.34 370.285 Q1348.42 365.679 1354.23 365.679 Z" fill="#000000" fill-rule="evenodd" fill-opacity="1" /><path clip-path="url(#clip330)" d="M1264.33 238.255 Q1261.18 238.255 1259.33 240.408 Q1257.5 242.56 1257.5 246.31 Q1257.5 250.037 1259.33 252.213 Q1261.18 254.366 1264.33 254.366 Q1267.47 254.366 1269.3 252.213 Q1271.15 250.037 1271.15 246.31 Q1271.15 242.56 1269.3 240.408 Q1267.47 238.255 1264.33 238.255 M1273.61 223.602 L1273.61 227.861 Q1271.85 227.028 1270.04 226.588 Q1268.26 226.148 1266.5 226.148 Q1261.87 226.148 1259.42 229.273 Q1256.99 232.398 1256.64 238.718 Q1258.01 236.704 1260.07 235.639 Q1262.13 234.551 1264.6 234.551 Q1269.81 234.551 1272.82 237.722 Q1275.85 240.87 1275.85 246.31 Q1275.85 251.634 1272.7 254.852 Q1269.56 258.069 1264.33 258.069 Q1258.33 258.069 1255.16 253.486 Q1251.99 248.88 1251.99 240.153 Q1251.99 231.958 1255.88 227.097 Q1259.77 222.213 1266.32 222.213 Q1268.08 222.213 1269.86 222.56 Q1271.66 222.908 1273.61 223.602 Z" fill="#000000" fill-rule="evenodd" fill-opacity="1" /><path clip-path="url(#clip330)" d="M1293.91 225.917 Q1290.3 225.917 1288.47 229.482 Q1286.66 233.023 1286.66 240.153 Q1286.66 247.259 1288.47 250.824 Q1290.3 254.366 1293.91 254.366 Q1297.54 254.366 1299.35 250.824 Q1301.18 247.259 1301.18 240.153 Q1301.18 233.023 1299.35 229.482 Q1297.54 225.917 1293.91 225.917 M1293.91 222.213 Q1299.72 222.213 1302.77 226.82 Q1305.85 231.403 1305.85 240.153 Q1305.85 248.88 1302.77 253.486 Q1299.72 258.069 1293.91 258.069 Q1288.1 258.069 1285.02 253.486 Q1281.96 248.88 1281.96 240.153 Q1281.96 231.403 1285.02 226.82 Q1288.1 222.213 1293.91 222.213 Z" fill="#000000" fill-rule="evenodd" fill-opacity="1" /><path clip-path="url(#clip330)" d="M1324.07 225.917 Q1320.46 225.917 1318.63 229.482 Q1316.83 233.023 1316.83 240.153 Q1316.83 247.259 1318.63 250.824 Q1320.46 254.366 1324.07 254.366 Q1327.7 254.366 1329.51 250.824 Q1331.34 247.259 1331.34 240.153 Q1331.34 233.023 1329.51 229.482 Q1327.7 225.917 1324.07 225.917 M1324.07 222.213 Q1329.88 222.213 1332.94 226.82 Q1336.01 231.403 1336.01 240.153 Q1336.01 248.88 1332.94 253.486 Q1329.88 258.069 1324.07 258.069 Q1318.26 258.069 1315.18 253.486 Q1312.13 248.88 1312.13 240.153 Q1312.13 231.403 1315.18 226.82 Q1318.26 222.213 1324.07 222.213 Z" fill="#000000" fill-rule="evenodd" fill-opacity="1" /><path clip-path="url(#clip330)" d="M1354.23 225.917 Q1350.62 225.917 1348.79 229.482 Q1346.99 233.023 1346.99 240.153 Q1346.99 247.259 1348.79 250.824 Q1350.62 254.366 1354.23 254.366 Q1357.87 254.366 1359.67 250.824 Q1361.5 247.259 1361.5 240.153 Q1361.5 233.023 1359.67 229.482 Q1357.87 225.917 1354.23 225.917 M1354.23 222.213 Q1360.04 222.213 1363.1 226.82 Q1366.18 231.403 1366.18 240.153 Q1366.18 248.88 1363.1 253.486 Q1360.04 258.069 1354.23 258.069 Q1348.42 258.069 1345.34 253.486 Q1342.29 248.88 1342.29 240.153 Q1342.29 231.403 1345.34 226.82 Q1348.42 222.213 1354.23 222.213 Z" fill="#000000" fill-rule="evenodd" fill-opacity="1" /><path clip-path="url(#clip330)" d="M1765.3 65.7705 L1765.3 89.8329 L1757.8 89.8329 L1757.8 27.2059 L1765.3 27.2059 L1765.3 34.0924 Q1767.65 30.0415 1771.21 28.0971 Q1774.82 26.1121 1779.8 26.1121 Q1788.06 26.1121 1793.21 32.6746 Q1798.39 39.2371 1798.39 49.9314 Q1798.39 60.6258 1793.21 67.1883 Q1788.06 73.7508 1779.8 73.7508 Q1774.82 73.7508 1771.21 71.8063 Q1767.65 69.8214 1765.3 65.7705 M1790.66 49.9314 Q1790.66 41.7081 1787.25 37.0496 Q1783.89 32.3505 1777.98 32.3505 Q1772.06 32.3505 1768.66 37.0496 Q1765.3 41.7081 1765.3 49.9314 Q1765.3 58.1548 1768.66 62.8538 Q1772.06 67.5124 1777.98 67.5124 Q1783.89 67.5124 1787.25 62.8538 Q1790.66 58.1548 1790.66 49.9314 Z" fill="#000000" fill-rule="evenodd" fill-opacity="1" /><path clip-path="url(#clip330)" d="M1811.72 34.9026 L1863.65 34.9026 L1863.65 41.7081 L1811.72 41.7081 L1811.72 34.9026 M1811.72 51.4303 L1863.65 51.4303 L1863.65 58.3168 L1811.72 58.3168 L1811.72 51.4303 Z" fill="#000000" fill-rule="evenodd" fill-opacity="1" /><path clip-path="url(#clip330)" d="M1898.81 17.4837 Q1892.5 17.4837 1889.29 23.7221 Q1886.14 29.92 1886.14 42.3968 Q1886.14 54.833 1889.29 61.0714 Q1892.5 67.2693 1898.81 67.2693 Q1905.17 67.2693 1908.33 61.0714 Q1911.53 54.833 1911.53 42.3968 Q1911.53 29.92 1908.33 23.7221 Q1905.17 17.4837 1898.81 17.4837 M1898.81 11.0023 Q1908.98 11.0023 1914.33 19.0636 Q1919.72 27.0843 1919.72 42.3968 Q1919.72 57.6687 1914.33 65.73 Q1908.98 73.7508 1898.81 73.7508 Q1888.65 73.7508 1883.26 65.73 Q1877.91 57.6687 1877.91 42.3968 Q1877.91 27.0843 1883.26 19.0636 Q1888.65 11.0023 1898.81 11.0023 Z" fill="#000000" fill-rule="evenodd" fill-opacity="1" /><path clip-path="url(#clip330)" d="M1934.1 62.2867 L1942.65 62.2867 L1942.65 72.576 L1934.1 72.576 L1934.1 62.2867 Z" fill="#000000" fill-rule="evenodd" fill-opacity="1" /><path clip-path="url(#clip330)" d="M1960.55 12.096 L1992.67 12.096 L1992.67 18.9825 L1968.04 18.9825 L1968.04 33.8088 Q1969.83 33.2012 1971.61 32.9176 Q1973.39 32.5936 1975.17 32.5936 Q1985.3 32.5936 1991.22 38.1433 Q1997.13 43.6931 1997.13 53.1722 Q1997.13 62.9348 1991.05 68.3631 Q1984.98 73.7508 1973.92 73.7508 Q1970.11 73.7508 1966.14 73.1026 Q1962.21 72.4545 1958 71.1582 L1958 62.9348 Q1961.64 64.9198 1965.53 65.892 Q1969.42 66.8642 1973.76 66.8642 Q1980.76 66.8642 1984.86 63.1779 Q1988.95 59.4916 1988.95 53.1722 Q1988.95 46.8528 1984.86 43.1664 Q1980.76 39.4801 1973.76 39.4801 Q1970.48 39.4801 1967.19 40.2093 Q1963.95 40.9384 1960.55 42.4778 L1960.55 12.096 Z" fill="#000000" fill-rule="evenodd" fill-opacity="1" /><path clip-path="url(#clip333)" d="
M1454.46 670.515 L1454.46 670.515 L1494.75 670.515 L1494.75 670.515 L1454.46 670.515 L1454.46 670.515  Z
  " fill="#009af9" fill-rule="evenodd" fill-opacity="1"/>
<polyline clip-path="url(#clip333)" style="stroke:#000000; stroke-linecap:butt; stroke-linejoin:round; stroke-width:4; stroke-opacity:1; fill:none" points="
  1454.46,670.515 1454.46,670.515 1494.75,670.515 1454.46,670.515 
  "/>
<path clip-path="url(#clip333)" d="
M1494.75 303.602 L1494.75 670.515 L1535.03 670.515 L1535.03 303.602 L1494.75 303.602 L1494.75 303.602  Z
  " fill="#009af9" fill-rule="evenodd" fill-opacity="1"/>
<polyline clip-path="url(#clip333)" style="stroke:#000000; stroke-linecap:butt; stroke-linejoin:round; stroke-width:4; stroke-opacity:1; fill:none" points="
  1494.75,303.602 1494.75,670.515 1535.03,670.515 1535.03,303.602 1494.75,303.602 
  "/>
<path clip-path="url(#clip333)" d="
M1535.03 139.908 L1535.03 670.515 L1575.32 670.515 L1575.32 139.908 L1535.03 139.908 L1535.03 139.908  Z
  " fill="#009af9" fill-rule="evenodd" fill-opacity="1"/>
<polyline clip-path="url(#clip333)" style="stroke:#000000; stroke-linecap:butt; stroke-linejoin:round; stroke-width:4; stroke-opacity:1; fill:none" points="
  1535.03,139.908 1535.03,670.515 1575.32,670.515 1575.32,139.908 1535.03,139.908 
  "/>
<path clip-path="url(#clip333)" d="
M1575.32 311.421 L1575.32 670.515 L1615.61 670.515 L1615.61 311.421 L1575.32 311.421 L1575.32 311.421  Z
  " fill="#009af9" fill-rule="evenodd" fill-opacity="1"/>
<polyline clip-path="url(#clip333)" style="stroke:#000000; stroke-linecap:butt; stroke-linejoin:round; stroke-width:4; stroke-opacity:1; fill:none" points="
  1575.32,311.421 1575.32,670.515 1615.61,670.515 1615.61,311.421 1575.32,311.421 
  "/>
<path clip-path="url(#clip333)" d="
M1615.61 139.549 L1615.61 670.515 L1655.89 670.515 L1655.89 139.549 L1615.61 139.549 L1615.61 139.549  Z
  " fill="#009af9" fill-rule="evenodd" fill-opacity="1"/>
<polyline clip-path="url(#clip333)" style="stroke:#000000; stroke-linecap:butt; stroke-linejoin:round; stroke-width:4; stroke-opacity:1; fill:none" points="
  1615.61,139.549 1615.61,670.515 1655.89,670.515 1655.89,139.549 1615.61,139.549 
  "/>
<path clip-path="url(#clip333)" d="
M1655.89 309.555 L1655.89 670.515 L1696.18 670.515 L1696.18 309.555 L1655.89 309.555 L1655.89 309.555  Z
  " fill="#009af9" fill-rule="evenodd" fill-opacity="1"/>
<polyline clip-path="url(#clip333)" style="stroke:#000000; stroke-linecap:butt; stroke-linejoin:round; stroke-width:4; stroke-opacity:1; fill:none" points="
  1655.89,309.555 1655.89,670.515 1696.18,670.515 1696.18,309.555 1655.89,309.555 
  "/>
<path clip-path="url(#clip333)" d="
M1696.18 143.351 L1696.18 670.515 L1736.46 670.515 L1736.46 143.351 L1696.18 143.351 L1696.18 143.351  Z
  " fill="#009af9" fill-rule="evenodd" fill-opacity="1"/>
<polyline clip-path="url(#clip333)" style="stroke:#000000; stroke-linecap:butt; stroke-linejoin:round; stroke-width:4; stroke-opacity:1; fill:none" points="
  1696.18,143.351 1696.18,670.515 1736.46,670.515 1736.46,143.351 1696.18,143.351 
  "/>
<path clip-path="url(#clip333)" d="
M1736.46 308.982 L1736.46 670.515 L1776.75 670.515 L1776.75 308.982 L1736.46 308.982 L1736.46 308.982  Z
  " fill="#009af9" fill-rule="evenodd" fill-opacity="1"/>
<polyline clip-path="url(#clip333)" style="stroke:#000000; stroke-linecap:butt; stroke-linejoin:round; stroke-width:4; stroke-opacity:1; fill:none" points="
  1736.46,308.982 1736.46,670.515 1776.75,670.515 1776.75,308.982 1736.46,308.982 
  "/>
<path clip-path="url(#clip333)" d="
M1776.75 139.405 L1776.75 670.515 L1817.04 670.515 L1817.04 139.405 L1776.75 139.405 L1776.75 139.405  Z
  " fill="#009af9" fill-rule="evenodd" fill-opacity="1"/>
<polyline clip-path="url(#clip333)" style="stroke:#000000; stroke-linecap:butt; stroke-linejoin:round; stroke-width:4; stroke-opacity:1; fill:none" points="
  1776.75,139.405 1776.75,670.515 1817.04,670.515 1817.04,139.405 1776.75,139.405 
  "/>
<path clip-path="url(#clip333)" d="
M1817.04 308.264 L1817.04 670.515 L1857.32 670.515 L1857.32 308.264 L1817.04 308.264 L1817.04 308.264  Z
  " fill="#009af9" fill-rule="evenodd" fill-opacity="1"/>
<polyline clip-path="url(#clip333)" style="stroke:#000000; stroke-linecap:butt; stroke-linejoin:round; stroke-width:4; stroke-opacity:1; fill:none" points="
  1817.04,308.264 1817.04,670.515 1857.32,670.515 1857.32,308.264 1817.04,308.264 
  "/>
<path clip-path="url(#clip333)" d="
M1857.32 145.072 L1857.32 670.515 L1897.61 670.515 L1897.61 145.072 L1857.32 145.072 L1857.32 145.072  Z
  " fill="#009af9" fill-rule="evenodd" fill-opacity="1"/>
<polyline clip-path="url(#clip333)" style="stroke:#000000; stroke-linecap:butt; stroke-linejoin:round; stroke-width:4; stroke-opacity:1; fill:none" points="
  1857.32,145.072 1857.32,670.515 1897.61,670.515 1897.61,145.072 1857.32,145.072 
  "/>
<path clip-path="url(#clip333)" d="
M1897.61 482.575 L1897.61 670.515 L1937.9 670.515 L1937.9 482.575 L1897.61 482.575 L1897.61 482.575  Z
  " fill="#009af9" fill-rule="evenodd" fill-opacity="1"/>
<polyline clip-path="url(#clip333)" style="stroke:#000000; stroke-linecap:butt; stroke-linejoin:round; stroke-width:4; stroke-opacity:1; fill:none" points="
  1897.61,482.575 1897.61,670.515 1937.9,670.515 1937.9,482.575 1897.61,482.575 
  "/>
<path clip-path="url(#clip333)" d="
M1937.9 316.585 L1937.9 670.515 L1978.18 670.515 L1978.18 316.585 L1937.9 316.585 L1937.9 316.585  Z
  " fill="#009af9" fill-rule="evenodd" fill-opacity="1"/>
<polyline clip-path="url(#clip333)" style="stroke:#000000; stroke-linecap:butt; stroke-linejoin:round; stroke-width:4; stroke-opacity:1; fill:none" points="
  1937.9,316.585 1937.9,670.515 1978.18,670.515 1978.18,316.585 1937.9,316.585 
  "/>
<path clip-path="url(#clip333)" d="
M1978.18 486.951 L1978.18 670.515 L2018.47 670.515 L2018.47 486.951 L1978.18 486.951 L1978.18 486.951  Z
  " fill="#009af9" fill-rule="evenodd" fill-opacity="1"/>
<polyline clip-path="url(#clip333)" style="stroke:#000000; stroke-linecap:butt; stroke-linejoin:round; stroke-width:4; stroke-opacity:1; fill:none" points="
  1978.18,486.951 1978.18,670.515 2018.47,670.515 2018.47,486.951 1978.18,486.951 
  "/>
<path clip-path="url(#clip333)" d="
M2018.47 311.707 L2018.47 670.515 L2058.75 670.515 L2058.75 311.707 L2018.47 311.707 L2018.47 311.707  Z
  " fill="#009af9" fill-rule="evenodd" fill-opacity="1"/>
<polyline clip-path="url(#clip333)" style="stroke:#000000; stroke-linecap:butt; stroke-linejoin:round; stroke-width:4; stroke-opacity:1; fill:none" points="
  2018.47,311.707 2018.47,670.515 2058.75,670.515 2058.75,311.707 2018.47,311.707 
  "/>
<path clip-path="url(#clip333)" d="
M2058.75 484.87 L2058.75 670.515 L2099.04 670.515 L2099.04 484.87 L2058.75 484.87 L2058.75 484.87  Z
  " fill="#009af9" fill-rule="evenodd" fill-opacity="1"/>
<polyline clip-path="url(#clip333)" style="stroke:#000000; stroke-linecap:butt; stroke-linejoin:round; stroke-width:4; stroke-opacity:1; fill:none" points="
  2058.75,484.87 2058.75,670.515 2099.04,670.515 2099.04,484.87 2058.75,484.87 
  "/>
<path clip-path="url(#clip333)" d="
M2099.04 314.505 L2099.04 670.515 L2139.33 670.515 L2139.33 314.505 L2099.04 314.505 L2099.04 314.505  Z
  " fill="#009af9" fill-rule="evenodd" fill-opacity="1"/>
<polyline clip-path="url(#clip333)" style="stroke:#000000; stroke-linecap:butt; stroke-linejoin:round; stroke-width:4; stroke-opacity:1; fill:none" points="
  2099.04,314.505 2099.04,670.515 2139.33,670.515 2139.33,314.505 2099.04,314.505 
  "/>
<path clip-path="url(#clip333)" d="
M2139.33 484.942 L2139.33 670.515 L2179.61 670.515 L2179.61 484.942 L2139.33 484.942 L2139.33 484.942  Z
  " fill="#009af9" fill-rule="evenodd" fill-opacity="1"/>
<polyline clip-path="url(#clip333)" style="stroke:#000000; stroke-linecap:butt; stroke-linejoin:round; stroke-width:4; stroke-opacity:1; fill:none" points="
  2139.33,484.942 2139.33,670.515 2179.61,670.515 2179.61,484.942 2139.33,484.942 
  "/>
<path clip-path="url(#clip333)" d="
M2179.61 319.813 L2179.61 670.515 L2219.9 670.515 L2219.9 319.813 L2179.61 319.813 L2179.61 319.813  Z
  " fill="#009af9" fill-rule="evenodd" fill-opacity="1"/>
<polyline clip-path="url(#clip333)" style="stroke:#000000; stroke-linecap:butt; stroke-linejoin:round; stroke-width:4; stroke-opacity:1; fill:none" points="
  2179.61,319.813 2179.61,670.515 2219.9,670.515 2219.9,319.813 2179.61,319.813 
  "/>
<path clip-path="url(#clip333)" d="
M2219.9 476.047 L2219.9 670.515 L2260.19 670.515 L2260.19 476.047 L2219.9 476.047 L2219.9 476.047  Z
  " fill="#009af9" fill-rule="evenodd" fill-opacity="1"/>
<polyline clip-path="url(#clip333)" style="stroke:#000000; stroke-linecap:butt; stroke-linejoin:round; stroke-width:4; stroke-opacity:1; fill:none" points="
  2219.9,476.047 2219.9,670.515 2260.19,670.515 2260.19,476.047 2219.9,476.047 
  "/>
<path clip-path="url(#clip333)" d="
M2260.19 309.914 L2260.19 670.515 L2300.47 670.515 L2300.47 309.914 L2260.19 309.914 L2260.19 309.914  Z
  " fill="#009af9" fill-rule="evenodd" fill-opacity="1"/>
<polyline clip-path="url(#clip333)" style="stroke:#000000; stroke-linecap:butt; stroke-linejoin:round; stroke-width:4; stroke-opacity:1; fill:none" points="
  2260.19,309.914 2260.19,670.515 2300.47,670.515 2300.47,309.914 2260.19,309.914 
  "/>
<circle clip-path="url(#clip333)" style="fill:#009af9; stroke:none; fill-opacity:0" cx="1474.6" cy="670.515" r="2"/>
<circle clip-path="url(#clip333)" style="fill:#009af9; stroke:none; fill-opacity:0" cx="1514.89" cy="303.602" r="2"/>
<circle clip-path="url(#clip333)" style="fill:#009af9; stroke:none; fill-opacity:0" cx="1555.18" cy="139.908" r="2"/>
<circle clip-path="url(#clip333)" style="fill:#009af9; stroke:none; fill-opacity:0" cx="1595.46" cy="311.421" r="2"/>
<circle clip-path="url(#clip333)" style="fill:#009af9; stroke:none; fill-opacity:0" cx="1635.75" cy="139.549" r="2"/>
<circle clip-path="url(#clip333)" style="fill:#009af9; stroke:none; fill-opacity:0" cx="1676.03" cy="309.555" r="2"/>
<circle clip-path="url(#clip333)" style="fill:#009af9; stroke:none; fill-opacity:0" cx="1716.32" cy="143.351" r="2"/>
<circle clip-path="url(#clip333)" style="fill:#009af9; stroke:none; fill-opacity:0" cx="1756.61" cy="308.982" r="2"/>
<circle clip-path="url(#clip333)" style="fill:#009af9; stroke:none; fill-opacity:0" cx="1796.89" cy="139.405" r="2"/>
<circle clip-path="url(#clip333)" style="fill:#009af9; stroke:none; fill-opacity:0" cx="1837.18" cy="308.264" r="2"/>
<circle clip-path="url(#clip333)" style="fill:#009af9; stroke:none; fill-opacity:0" cx="1877.47" cy="145.072" r="2"/>
<circle clip-path="url(#clip333)" style="fill:#009af9; stroke:none; fill-opacity:0" cx="1917.75" cy="482.575" r="2"/>
<circle clip-path="url(#clip333)" style="fill:#009af9; stroke:none; fill-opacity:0" cx="1958.04" cy="316.585" r="2"/>
<circle clip-path="url(#clip333)" style="fill:#009af9; stroke:none; fill-opacity:0" cx="1998.33" cy="486.951" r="2"/>
<circle clip-path="url(#clip333)" style="fill:#009af9; stroke:none; fill-opacity:0" cx="2038.61" cy="311.707" r="2"/>
<circle clip-path="url(#clip333)" style="fill:#009af9; stroke:none; fill-opacity:0" cx="2078.9" cy="484.87" r="2"/>
<circle clip-path="url(#clip333)" style="fill:#009af9; stroke:none; fill-opacity:0" cx="2119.18" cy="314.505" r="2"/>
<circle clip-path="url(#clip333)" style="fill:#009af9; stroke:none; fill-opacity:0" cx="2159.47" cy="484.942" r="2"/>
<circle clip-path="url(#clip333)" style="fill:#009af9; stroke:none; fill-opacity:0" cx="2199.76" cy="319.813" r="2"/>
<circle clip-path="url(#clip333)" style="fill:#009af9; stroke:none; fill-opacity:0" cx="2240.04" cy="476.047" r="2"/>
<circle clip-path="url(#clip333)" style="fill:#009af9; stroke:none; fill-opacity:0" cx="2280.33" cy="309.914" r="2"/>
<path clip-path="url(#clip330)" d="
M202.177 1486.45 L1152.76 1486.45 L1152.76 923.472 L202.177 923.472  Z
  " fill="#ffffff" fill-rule="evenodd" fill-opacity="1"/>
<defs>
  <clipPath id="clip334">
    <rect x="202" y="923" width="952" height="564"/>
  </clipPath>
</defs>
<polyline clip-path="url(#clip334)" style="stroke:#000000; stroke-linecap:butt; stroke-linejoin:round; stroke-width:2; stroke-opacity:0.1; fill:none" points="
  254.46,1486.45 254.46,923.472 
  "/>
<polyline clip-path="url(#clip334)" style="stroke:#000000; stroke-linecap:butt; stroke-linejoin:round; stroke-width:2; stroke-opacity:0.1; fill:none" points="
  455.892,1486.45 455.892,923.472 
  "/>
<polyline clip-path="url(#clip334)" style="stroke:#000000; stroke-linecap:butt; stroke-linejoin:round; stroke-width:2; stroke-opacity:0.1; fill:none" points="
  657.323,1486.45 657.323,923.472 
  "/>
<polyline clip-path="url(#clip334)" style="stroke:#000000; stroke-linecap:butt; stroke-linejoin:round; stroke-width:2; stroke-opacity:0.1; fill:none" points="
  858.755,1486.45 858.755,923.472 
  "/>
<polyline clip-path="url(#clip334)" style="stroke:#000000; stroke-linecap:butt; stroke-linejoin:round; stroke-width:2; stroke-opacity:0.1; fill:none" points="
  1060.19,1486.45 1060.19,923.472 
  "/>
<polyline clip-path="url(#clip330)" style="stroke:#000000; stroke-linecap:butt; stroke-linejoin:round; stroke-width:4; stroke-opacity:1; fill:none" points="
  202.177,1486.45 1152.76,1486.45 
  "/>
<polyline clip-path="url(#clip330)" style="stroke:#000000; stroke-linecap:butt; stroke-linejoin:round; stroke-width:4; stroke-opacity:1; fill:none" points="
  254.46,1486.45 254.46,1467.55 
  "/>
<polyline clip-path="url(#clip330)" style="stroke:#000000; stroke-linecap:butt; stroke-linejoin:round; stroke-width:4; stroke-opacity:1; fill:none" points="
  455.892,1486.45 455.892,1467.55 
  "/>
<polyline clip-path="url(#clip330)" style="stroke:#000000; stroke-linecap:butt; stroke-linejoin:round; stroke-width:4; stroke-opacity:1; fill:none" points="
  657.323,1486.45 657.323,1467.55 
  "/>
<polyline clip-path="url(#clip330)" style="stroke:#000000; stroke-linecap:butt; stroke-linejoin:round; stroke-width:4; stroke-opacity:1; fill:none" points="
  858.755,1486.45 858.755,1467.55 
  "/>
<polyline clip-path="url(#clip330)" style="stroke:#000000; stroke-linecap:butt; stroke-linejoin:round; stroke-width:4; stroke-opacity:1; fill:none" points="
  1060.19,1486.45 1060.19,1467.55 
  "/>
<path clip-path="url(#clip330)" d="M254.46 1517.37 Q250.849 1517.37 249.02 1520.93 Q247.215 1524.47 247.215 1531.6 Q247.215 1538.71 249.02 1542.27 Q250.849 1545.82 254.46 1545.82 Q258.094 1545.82 259.9 1542.27 Q261.729 1538.71 261.729 1531.6 Q261.729 1524.47 259.9 1520.93 Q258.094 1517.37 254.46 1517.37 M254.46 1513.66 Q260.27 1513.66 263.326 1518.27 Q266.405 1522.85 266.405 1531.6 Q266.405 1540.33 263.326 1544.94 Q260.27 1549.52 254.46 1549.52 Q248.65 1549.52 245.571 1544.94 Q242.516 1540.33 242.516 1531.6 Q242.516 1522.85 245.571 1518.27 Q248.65 1513.66 254.46 1513.66 Z" fill="#000000" fill-rule="evenodd" fill-opacity="1" /><path clip-path="url(#clip330)" d="M446.17 1514.29 L464.526 1514.29 L464.526 1518.22 L450.452 1518.22 L450.452 1526.7 Q451.47 1526.35 452.489 1526.19 Q453.507 1526 454.526 1526 Q460.313 1526 463.693 1529.17 Q467.072 1532.34 467.072 1537.76 Q467.072 1543.34 463.6 1546.44 Q460.128 1549.52 453.808 1549.52 Q451.632 1549.52 449.364 1549.15 Q447.119 1548.78 444.711 1548.04 L444.711 1543.34 Q446.795 1544.47 449.017 1545.03 Q451.239 1545.58 453.716 1545.58 Q457.72 1545.58 460.058 1543.48 Q462.396 1541.37 462.396 1537.76 Q462.396 1534.15 460.058 1532.04 Q457.72 1529.94 453.716 1529.94 Q451.841 1529.94 449.966 1530.35 Q448.114 1530.77 446.17 1531.65 L446.17 1514.29 Z" fill="#000000" fill-rule="evenodd" fill-opacity="1" /><path clip-path="url(#clip330)" d="M632.011 1544.91 L639.65 1544.91 L639.65 1518.55 L631.339 1520.21 L631.339 1515.95 L639.603 1514.29 L644.279 1514.29 L644.279 1544.91 L651.918 1544.91 L651.918 1548.85 L632.011 1548.85 L632.011 1544.91 Z" fill="#000000" fill-rule="evenodd" fill-opacity="1" /><path clip-path="url(#clip330)" d="M671.362 1517.37 Q667.751 1517.37 665.923 1520.93 Q664.117 1524.47 664.117 1531.6 Q664.117 1538.71 665.923 1542.27 Q667.751 1545.82 671.362 1545.82 Q674.997 1545.82 676.802 1542.27 Q678.631 1538.71 678.631 1531.6 Q678.631 1524.47 676.802 1520.93 Q674.997 1517.37 671.362 1517.37 M671.362 1513.66 Q677.173 1513.66 680.228 1518.27 Q683.307 1522.85 683.307 1531.6 Q683.307 1540.33 680.228 1544.94 Q677.173 1549.52 671.362 1549.52 Q665.552 1549.52 662.474 1544.94 Q659.418 1540.33 659.418 1531.6 Q659.418 1522.85 662.474 1518.27 Q665.552 1513.66 671.362 1513.66 Z" fill="#000000" fill-rule="evenodd" fill-opacity="1" /><path clip-path="url(#clip330)" d="M833.94 1544.91 L841.579 1544.91 L841.579 1518.55 L833.269 1520.21 L833.269 1515.95 L841.532 1514.29 L846.208 1514.29 L846.208 1544.91 L853.847 1544.91 L853.847 1548.85 L833.94 1548.85 L833.94 1544.91 Z" fill="#000000" fill-rule="evenodd" fill-opacity="1" /><path clip-path="url(#clip330)" d="M863.338 1514.29 L881.694 1514.29 L881.694 1518.22 L867.62 1518.22 L867.62 1526.7 Q868.639 1526.35 869.657 1526.19 Q870.676 1526 871.694 1526 Q877.481 1526 880.861 1529.17 Q884.241 1532.34 884.241 1537.76 Q884.241 1543.34 880.768 1546.44 Q877.296 1549.52 870.977 1549.52 Q868.801 1549.52 866.532 1549.15 Q864.287 1548.78 861.88 1548.04 L861.88 1543.34 Q863.963 1544.47 866.185 1545.03 Q868.407 1545.58 870.884 1545.58 Q874.889 1545.58 877.227 1543.48 Q879.565 1541.37 879.565 1537.76 Q879.565 1534.15 877.227 1532.04 Q874.889 1529.94 870.884 1529.94 Q869.009 1529.94 867.134 1530.35 Q865.282 1530.77 863.338 1531.65 L863.338 1514.29 Z" fill="#000000" fill-rule="evenodd" fill-opacity="1" /><path clip-path="url(#clip330)" d="M1038.96 1544.91 L1055.28 1544.91 L1055.28 1548.85 L1033.33 1548.85 L1033.33 1544.91 Q1036 1542.16 1040.58 1537.53 Q1045.19 1532.88 1046.37 1531.53 Q1048.61 1529.01 1049.49 1527.27 Q1050.39 1525.51 1050.39 1523.82 Q1050.39 1521.07 1048.45 1519.33 Q1046.53 1517.6 1043.43 1517.6 Q1041.23 1517.6 1038.77 1518.36 Q1036.34 1519.13 1033.57 1520.68 L1033.57 1515.95 Q1036.39 1514.82 1038.84 1514.24 Q1041.3 1513.66 1043.33 1513.66 Q1048.7 1513.66 1051.9 1516.35 Q1055.09 1519.03 1055.09 1523.52 Q1055.09 1525.65 1054.28 1527.57 Q1053.5 1529.47 1051.39 1532.07 Q1050.81 1532.74 1047.71 1535.95 Q1044.61 1539.15 1038.96 1544.91 Z" fill="#000000" fill-rule="evenodd" fill-opacity="1" /><path clip-path="url(#clip330)" d="M1075.09 1517.37 Q1071.48 1517.37 1069.65 1520.93 Q1067.85 1524.47 1067.85 1531.6 Q1067.85 1538.71 1069.65 1542.27 Q1071.48 1545.82 1075.09 1545.82 Q1078.73 1545.82 1080.53 1542.27 Q1082.36 1538.71 1082.36 1531.6 Q1082.36 1524.47 1080.53 1520.93 Q1078.73 1517.37 1075.09 1517.37 M1075.09 1513.66 Q1080.9 1513.66 1083.96 1518.27 Q1087.04 1522.85 1087.04 1531.6 Q1087.04 1540.33 1083.96 1544.94 Q1080.9 1549.52 1075.09 1549.52 Q1069.28 1549.52 1066.2 1544.94 Q1063.15 1540.33 1063.15 1531.6 Q1063.15 1522.85 1066.2 1518.27 Q1069.28 1513.66 1075.09 1513.66 Z" fill="#000000" fill-rule="evenodd" fill-opacity="1" /><polyline clip-path="url(#clip334)" style="stroke:#000000; stroke-linecap:butt; stroke-linejoin:round; stroke-width:2; stroke-opacity:0.1; fill:none" points="
  202.177,1470.51 1152.76,1470.51 
  "/>
<polyline clip-path="url(#clip334)" style="stroke:#000000; stroke-linecap:butt; stroke-linejoin:round; stroke-width:2; stroke-opacity:0.1; fill:none" points="
  202.177,1328.79 1152.76,1328.79 
  "/>
<polyline clip-path="url(#clip334)" style="stroke:#000000; stroke-linecap:butt; stroke-linejoin:round; stroke-width:2; stroke-opacity:0.1; fill:none" points="
  202.177,1187.07 1152.76,1187.07 
  "/>
<polyline clip-path="url(#clip334)" style="stroke:#000000; stroke-linecap:butt; stroke-linejoin:round; stroke-width:2; stroke-opacity:0.1; fill:none" points="
  202.177,1045.34 1152.76,1045.34 
  "/>
<polyline clip-path="url(#clip330)" style="stroke:#000000; stroke-linecap:butt; stroke-linejoin:round; stroke-width:4; stroke-opacity:1; fill:none" points="
  202.177,1486.45 202.177,923.472 
  "/>
<polyline clip-path="url(#clip330)" style="stroke:#000000; stroke-linecap:butt; stroke-linejoin:round; stroke-width:4; stroke-opacity:1; fill:none" points="
  202.177,1470.51 221.074,1470.51 
  "/>
<polyline clip-path="url(#clip330)" style="stroke:#000000; stroke-linecap:butt; stroke-linejoin:round; stroke-width:4; stroke-opacity:1; fill:none" points="
  202.177,1328.79 221.074,1328.79 
  "/>
<polyline clip-path="url(#clip330)" style="stroke:#000000; stroke-linecap:butt; stroke-linejoin:round; stroke-width:4; stroke-opacity:1; fill:none" points="
  202.177,1187.07 221.074,1187.07 
  "/>
<polyline clip-path="url(#clip330)" style="stroke:#000000; stroke-linecap:butt; stroke-linejoin:round; stroke-width:4; stroke-opacity:1; fill:none" points="
  202.177,1045.34 221.074,1045.34 
  "/>
<path clip-path="url(#clip330)" d="M154.232 1456.31 Q150.621 1456.31 148.793 1459.88 Q146.987 1463.42 146.987 1470.55 Q146.987 1477.66 148.793 1481.22 Q150.621 1484.76 154.232 1484.76 Q157.867 1484.76 159.672 1481.22 Q161.501 1477.66 161.501 1470.55 Q161.501 1463.42 159.672 1459.88 Q157.867 1456.31 154.232 1456.31 M154.232 1452.61 Q160.042 1452.61 163.098 1457.22 Q166.177 1461.8 166.177 1470.55 Q166.177 1479.28 163.098 1483.88 Q160.042 1488.47 154.232 1488.47 Q148.422 1488.47 145.343 1483.88 Q142.288 1479.28 142.288 1470.55 Q142.288 1461.8 145.343 1457.22 Q148.422 1452.61 154.232 1452.61 Z" fill="#000000" fill-rule="evenodd" fill-opacity="1" /><path clip-path="url(#clip330)" d="M57.7745 1342.14 L74.0939 1342.14 L74.0939 1346.07 L52.1495 1346.07 L52.1495 1342.14 Q54.8115 1339.38 59.3949 1334.75 Q64.0013 1330.1 65.1819 1328.76 Q67.4272 1326.23 68.3068 1324.5 Q69.2096 1322.74 69.2096 1321.05 Q69.2096 1318.29 67.2652 1316.56 Q65.3439 1314.82 62.2421 1314.82 Q60.043 1314.82 57.5893 1315.59 Q55.1588 1316.35 52.381 1317.9 L52.381 1313.18 Q55.2051 1312.04 57.6588 1311.46 Q60.1124 1310.89 62.1495 1310.89 Q67.5198 1310.89 70.7142 1313.57 Q73.9087 1316.26 73.9087 1320.75 Q73.9087 1322.88 73.0985 1324.8 Q72.3115 1326.7 70.205 1329.29 Q69.6263 1329.96 66.5245 1333.18 Q63.4226 1336.37 57.7745 1342.14 Z" fill="#000000" fill-rule="evenodd" fill-opacity="1" /><path clip-path="url(#clip330)" d="M93.9086 1314.59 Q90.2975 1314.59 88.4688 1318.15 Q86.6632 1321.7 86.6632 1328.83 Q86.6632 1335.93 88.4688 1339.5 Q90.2975 1343.04 93.9086 1343.04 Q97.5428 1343.04 99.3483 1339.5 Q101.177 1335.93 101.177 1328.83 Q101.177 1321.7 99.3483 1318.15 Q97.5428 1314.59 93.9086 1314.59 M93.9086 1310.89 Q99.7187 1310.89 102.774 1315.49 Q105.853 1320.08 105.853 1328.83 Q105.853 1337.55 102.774 1342.16 Q99.7187 1346.74 93.9086 1346.74 Q88.0984 1346.74 85.0197 1342.16 Q81.9642 1337.55 81.9642 1328.83 Q81.9642 1320.08 85.0197 1315.49 Q88.0984 1310.89 93.9086 1310.89 Z" fill="#000000" fill-rule="evenodd" fill-opacity="1" /><path clip-path="url(#clip330)" d="M124.07 1314.59 Q120.459 1314.59 118.631 1318.15 Q116.825 1321.7 116.825 1328.83 Q116.825 1335.93 118.631 1339.5 Q120.459 1343.04 124.07 1343.04 Q127.705 1343.04 129.51 1339.5 Q131.339 1335.93 131.339 1328.83 Q131.339 1321.7 129.51 1318.15 Q127.705 1314.59 124.07 1314.59 M124.07 1310.89 Q129.881 1310.89 132.936 1315.49 Q136.015 1320.08 136.015 1328.83 Q136.015 1337.55 132.936 1342.16 Q129.881 1346.74 124.07 1346.74 Q118.26 1346.74 115.182 1342.16 Q112.126 1337.55 112.126 1328.83 Q112.126 1320.08 115.182 1315.49 Q118.26 1310.89 124.07 1310.89 Z" fill="#000000" fill-rule="evenodd" fill-opacity="1" /><path clip-path="url(#clip330)" d="M154.232 1314.59 Q150.621 1314.59 148.793 1318.15 Q146.987 1321.7 146.987 1328.83 Q146.987 1335.93 148.793 1339.5 Q150.621 1343.04 154.232 1343.04 Q157.867 1343.04 159.672 1339.5 Q161.501 1335.93 161.501 1328.83 Q161.501 1321.7 159.672 1318.15 Q157.867 1314.59 154.232 1314.59 M154.232 1310.89 Q160.042 1310.89 163.098 1315.49 Q166.177 1320.08 166.177 1328.83 Q166.177 1337.55 163.098 1342.16 Q160.042 1346.74 154.232 1346.74 Q148.422 1346.74 145.343 1342.16 Q142.288 1337.55 142.288 1328.83 Q142.288 1320.08 145.343 1315.49 Q148.422 1310.89 154.232 1310.89 Z" fill="#000000" fill-rule="evenodd" fill-opacity="1" /><path clip-path="url(#clip330)" d="M66.5939 1173.86 L54.7884 1192.31 L66.5939 1192.31 L66.5939 1173.86 M65.367 1169.79 L71.2466 1169.79 L71.2466 1192.31 L76.1772 1192.31 L76.1772 1196.2 L71.2466 1196.2 L71.2466 1204.35 L66.5939 1204.35 L66.5939 1196.2 L50.9921 1196.2 L50.9921 1191.69 L65.367 1169.79 Z" fill="#000000" fill-rule="evenodd" fill-opacity="1" /><path clip-path="url(#clip330)" d="M93.9086 1172.87 Q90.2975 1172.87 88.4688 1176.43 Q86.6632 1179.97 86.6632 1187.1 Q86.6632 1194.21 88.4688 1197.77 Q90.2975 1201.32 93.9086 1201.32 Q97.5428 1201.32 99.3483 1197.77 Q101.177 1194.21 101.177 1187.1 Q101.177 1179.97 99.3483 1176.43 Q97.5428 1172.87 93.9086 1172.87 M93.9086 1169.16 Q99.7187 1169.16 102.774 1173.77 Q105.853 1178.35 105.853 1187.1 Q105.853 1195.83 102.774 1200.44 Q99.7187 1205.02 93.9086 1205.02 Q88.0984 1205.02 85.0197 1200.44 Q81.9642 1195.83 81.9642 1187.1 Q81.9642 1178.35 85.0197 1173.77 Q88.0984 1169.16 93.9086 1169.16 Z" fill="#000000" fill-rule="evenodd" fill-opacity="1" /><path clip-path="url(#clip330)" d="M124.07 1172.87 Q120.459 1172.87 118.631 1176.43 Q116.825 1179.97 116.825 1187.1 Q116.825 1194.21 118.631 1197.77 Q120.459 1201.32 124.07 1201.32 Q127.705 1201.32 129.51 1197.77 Q131.339 1194.21 131.339 1187.1 Q131.339 1179.97 129.51 1176.43 Q127.705 1172.87 124.07 1172.87 M124.07 1169.16 Q129.881 1169.16 132.936 1173.77 Q136.015 1178.35 136.015 1187.1 Q136.015 1195.83 132.936 1200.44 Q129.881 1205.02 124.07 1205.02 Q118.26 1205.02 115.182 1200.44 Q112.126 1195.83 112.126 1187.1 Q112.126 1178.35 115.182 1173.77 Q118.26 1169.16 124.07 1169.16 Z" fill="#000000" fill-rule="evenodd" fill-opacity="1" /><path clip-path="url(#clip330)" d="M154.232 1172.87 Q150.621 1172.87 148.793 1176.43 Q146.987 1179.97 146.987 1187.1 Q146.987 1194.21 148.793 1197.77 Q150.621 1201.32 154.232 1201.32 Q157.867 1201.32 159.672 1197.77 Q161.501 1194.21 161.501 1187.1 Q161.501 1179.97 159.672 1176.43 Q157.867 1172.87 154.232 1172.87 M154.232 1169.16 Q160.042 1169.16 163.098 1173.77 Q166.177 1178.35 166.177 1187.1 Q166.177 1195.83 163.098 1200.44 Q160.042 1205.02 154.232 1205.02 Q148.422 1205.02 145.343 1200.44 Q142.288 1195.83 142.288 1187.1 Q142.288 1178.35 145.343 1173.77 Q148.422 1169.16 154.232 1169.16 Z" fill="#000000" fill-rule="evenodd" fill-opacity="1" /><path clip-path="url(#clip330)" d="M64.3254 1043.48 Q61.1773 1043.48 59.3254 1045.63 Q57.4967 1047.79 57.4967 1051.54 Q57.4967 1055.26 59.3254 1057.44 Q61.1773 1059.59 64.3254 1059.59 Q67.4735 1059.59 69.3022 1057.44 Q71.1541 1055.26 71.1541 1051.54 Q71.1541 1047.79 69.3022 1045.63 Q67.4735 1043.48 64.3254 1043.48 M73.6077 1028.83 L73.6077 1033.09 Q71.8485 1032.25 70.0429 1031.81 Q68.2606 1031.37 66.5013 1031.37 Q61.8717 1031.37 59.418 1034.5 Q56.9875 1037.62 56.6402 1043.94 Q58.006 1041.93 60.0662 1040.86 Q62.1263 1039.78 64.6032 1039.78 Q69.8115 1039.78 72.8207 1042.95 Q75.8531 1046.1 75.8531 1051.54 Q75.8531 1056.86 72.705 1060.08 Q69.5568 1063.3 64.3254 1063.3 Q58.33 1063.3 55.1588 1058.71 Q51.9875 1054.11 51.9875 1045.38 Q51.9875 1037.18 55.8764 1032.32 Q59.7652 1027.44 66.3161 1027.44 Q68.0754 1027.44 69.8578 1027.79 Q71.6633 1028.13 73.6077 1028.83 Z" fill="#000000" fill-rule="evenodd" fill-opacity="1" /><path clip-path="url(#clip330)" d="M93.9086 1031.14 Q90.2975 1031.14 88.4688 1034.71 Q86.6632 1038.25 86.6632 1045.38 Q86.6632 1052.48 88.4688 1056.05 Q90.2975 1059.59 93.9086 1059.59 Q97.5428 1059.59 99.3483 1056.05 Q101.177 1052.48 101.177 1045.38 Q101.177 1038.25 99.3483 1034.71 Q97.5428 1031.14 93.9086 1031.14 M93.9086 1027.44 Q99.7187 1027.44 102.774 1032.05 Q105.853 1036.63 105.853 1045.38 Q105.853 1054.11 102.774 1058.71 Q99.7187 1063.3 93.9086 1063.3 Q88.0984 1063.3 85.0197 1058.71 Q81.9642 1054.11 81.9642 1045.38 Q81.9642 1036.63 85.0197 1032.05 Q88.0984 1027.44 93.9086 1027.44 Z" fill="#000000" fill-rule="evenodd" fill-opacity="1" /><path clip-path="url(#clip330)" d="M124.07 1031.14 Q120.459 1031.14 118.631 1034.71 Q116.825 1038.25 116.825 1045.38 Q116.825 1052.48 118.631 1056.05 Q120.459 1059.59 124.07 1059.59 Q127.705 1059.59 129.51 1056.05 Q131.339 1052.48 131.339 1045.38 Q131.339 1038.25 129.51 1034.71 Q127.705 1031.14 124.07 1031.14 M124.07 1027.44 Q129.881 1027.44 132.936 1032.05 Q136.015 1036.63 136.015 1045.38 Q136.015 1054.11 132.936 1058.71 Q129.881 1063.3 124.07 1063.3 Q118.26 1063.3 115.182 1058.71 Q112.126 1054.11 112.126 1045.38 Q112.126 1036.63 115.182 1032.05 Q118.26 1027.44 124.07 1027.44 Z" fill="#000000" fill-rule="evenodd" fill-opacity="1" /><path clip-path="url(#clip330)" d="M154.232 1031.14 Q150.621 1031.14 148.793 1034.71 Q146.987 1038.25 146.987 1045.38 Q146.987 1052.48 148.793 1056.05 Q150.621 1059.59 154.232 1059.59 Q157.867 1059.59 159.672 1056.05 Q161.501 1052.48 161.501 1045.38 Q161.501 1038.25 159.672 1034.71 Q157.867 1031.14 154.232 1031.14 M154.232 1027.44 Q160.042 1027.44 163.098 1032.05 Q166.177 1036.63 166.177 1045.38 Q166.177 1054.11 163.098 1058.71 Q160.042 1063.3 154.232 1063.3 Q148.422 1063.3 145.343 1058.71 Q142.288 1054.11 142.288 1045.38 Q142.288 1036.63 145.343 1032.05 Q148.422 1027.44 154.232 1027.44 Z" fill="#000000" fill-rule="evenodd" fill-opacity="1" /><path clip-path="url(#clip330)" d="M564.588 865.77 L564.588 889.833 L557.094 889.833 L557.094 827.206 L564.588 827.206 L564.588 834.092 Q566.937 830.042 570.502 828.097 Q574.107 826.112 579.09 826.112 Q587.354 826.112 592.499 832.675 Q597.684 839.237 597.684 849.931 Q597.684 860.626 592.499 867.188 Q587.354 873.751 579.09 873.751 Q574.107 873.751 570.502 871.806 Q566.937 869.821 564.588 865.77 M589.947 849.931 Q589.947 841.708 586.544 837.05 Q583.182 832.351 577.267 832.351 Q571.353 832.351 567.95 837.05 Q564.588 841.708 564.588 849.931 Q564.588 858.155 567.95 862.854 Q571.353 867.512 577.267 867.512 Q583.182 867.512 586.544 862.854 Q589.947 858.155 589.947 849.931 Z" fill="#000000" fill-rule="evenodd" fill-opacity="1" /><path clip-path="url(#clip330)" d="M611.011 834.903 L662.944 834.903 L662.944 841.708 L611.011 841.708 L611.011 834.903 M611.011 851.43 L662.944 851.43 L662.944 858.317 L611.011 858.317 L611.011 851.43 Z" fill="#000000" fill-rule="evenodd" fill-opacity="1" /><path clip-path="url(#clip330)" d="M698.106 817.484 Q691.786 817.484 688.586 823.722 Q685.426 829.92 685.426 842.397 Q685.426 854.833 688.586 861.071 Q691.786 867.269 698.106 867.269 Q704.466 867.269 707.625 861.071 Q710.825 854.833 710.825 842.397 Q710.825 829.92 707.625 823.722 Q704.466 817.484 698.106 817.484 M698.106 811.002 Q708.273 811.002 713.621 819.064 Q719.008 827.084 719.008 842.397 Q719.008 857.669 713.621 865.73 Q708.273 873.751 698.106 873.751 Q687.938 873.751 682.55 865.73 Q677.203 857.669 677.203 842.397 Q677.203 827.084 682.55 819.064 Q687.938 811.002 698.106 811.002 Z" fill="#000000" fill-rule="evenodd" fill-opacity="1" /><path clip-path="url(#clip330)" d="M733.389 862.287 L741.936 862.287 L741.936 872.576 L733.389 872.576 L733.389 862.287 Z" fill="#000000" fill-rule="evenodd" fill-opacity="1" /><path clip-path="url(#clip330)" d="M760.003 871.32 L760.003 863.867 Q763.082 865.325 766.242 866.095 Q769.402 866.864 772.44 866.864 Q780.542 866.864 784.795 861.436 Q789.089 855.967 789.697 844.868 Q787.347 848.352 783.742 850.215 Q780.136 852.078 775.761 852.078 Q766.687 852.078 761.381 846.61 Q756.115 841.1 756.115 831.581 Q756.115 822.264 761.624 816.633 Q767.133 811.002 776.288 811.002 Q786.78 811.002 792.289 819.064 Q797.839 827.084 797.839 842.397 Q797.839 856.696 791.033 865.244 Q784.268 873.751 772.804 873.751 Q769.726 873.751 766.566 873.143 Q763.406 872.535 760.003 871.32 M776.288 845.678 Q781.797 845.678 784.998 841.911 Q788.238 838.143 788.238 831.581 Q788.238 825.059 784.998 821.292 Q781.797 817.484 776.288 817.484 Q770.779 817.484 767.538 821.292 Q764.338 825.059 764.338 831.581 Q764.338 838.143 767.538 841.911 Q770.779 845.678 776.288 845.678 Z" fill="#000000" fill-rule="evenodd" fill-opacity="1" /><path clip-path="url(#clip334)" d="
M254.46 1470.51 L254.46 1470.51 L294.747 1470.51 L294.747 1470.51 L254.46 1470.51 L254.46 1470.51  Z
  " fill="#009af9" fill-rule="evenodd" fill-opacity="1"/>
<polyline clip-path="url(#clip334)" style="stroke:#000000; stroke-linecap:butt; stroke-linejoin:round; stroke-width:4; stroke-opacity:1; fill:none" points="
  254.46,1470.51 254.46,1470.51 294.747,1470.51 254.46,1470.51 
  "/>
<path clip-path="url(#clip334)" d="
M294.747 1249 L294.747 1470.51 L335.033 1470.51 L335.033 1249 L294.747 1249 L294.747 1249  Z
  " fill="#009af9" fill-rule="evenodd" fill-opacity="1"/>
<polyline clip-path="url(#clip334)" style="stroke:#000000; stroke-linecap:butt; stroke-linejoin:round; stroke-width:4; stroke-opacity:1; fill:none" points="
  294.747,1249 294.747,1470.51 335.033,1470.51 335.033,1249 294.747,1249 
  "/>
<path clip-path="url(#clip334)" d="
M335.033 944.933 L335.033 1470.51 L375.319 1470.51 L375.319 944.933 L335.033 944.933 L335.033 944.933  Z
  " fill="#009af9" fill-rule="evenodd" fill-opacity="1"/>
<polyline clip-path="url(#clip334)" style="stroke:#000000; stroke-linecap:butt; stroke-linejoin:round; stroke-width:4; stroke-opacity:1; fill:none" points="
  335.033,944.933 335.033,1470.51 375.319,1470.51 375.319,944.933 335.033,944.933 
  "/>
<path clip-path="url(#clip334)" d="
M375.319 1256.37 L375.319 1470.51 L415.605 1470.51 L415.605 1256.37 L375.319 1256.37 L375.319 1256.37  Z
  " fill="#009af9" fill-rule="evenodd" fill-opacity="1"/>
<polyline clip-path="url(#clip334)" style="stroke:#000000; stroke-linecap:butt; stroke-linejoin:round; stroke-width:4; stroke-opacity:1; fill:none" points="
  375.319,1256.37 375.319,1470.51 415.605,1470.51 415.605,1256.37 375.319,1256.37 
  "/>
<path clip-path="url(#clip334)" d="
M415.605 949.184 L415.605 1470.51 L455.892 1470.51 L455.892 949.184 L415.605 949.184 L415.605 949.184  Z
  " fill="#009af9" fill-rule="evenodd" fill-opacity="1"/>
<polyline clip-path="url(#clip334)" style="stroke:#000000; stroke-linecap:butt; stroke-linejoin:round; stroke-width:4; stroke-opacity:1; fill:none" points="
  415.605,949.184 415.605,1470.51 455.892,1470.51 455.892,949.184 415.605,949.184 
  "/>
<path clip-path="url(#clip334)" d="
M455.892 1243.69 L455.892 1470.51 L496.178 1470.51 L496.178 1243.69 L455.892 1243.69 L455.892 1243.69  Z
  " fill="#009af9" fill-rule="evenodd" fill-opacity="1"/>
<polyline clip-path="url(#clip334)" style="stroke:#000000; stroke-linecap:butt; stroke-linejoin:round; stroke-width:4; stroke-opacity:1; fill:none" points="
  455.892,1243.69 455.892,1470.51 496.178,1470.51 496.178,1243.69 455.892,1243.69 
  "/>
<path clip-path="url(#clip334)" d="
M496.178 958.042 L496.178 1470.51 L536.464 1470.51 L536.464 958.042 L496.178 958.042 L496.178 958.042  Z
  " fill="#009af9" fill-rule="evenodd" fill-opacity="1"/>
<polyline clip-path="url(#clip334)" style="stroke:#000000; stroke-linecap:butt; stroke-linejoin:round; stroke-width:4; stroke-opacity:1; fill:none" points="
  496.178,958.042 496.178,1470.51 536.464,1470.51 536.464,958.042 496.178,958.042 
  "/>
<path clip-path="url(#clip334)" d="
M536.464 1247.16 L536.464 1470.51 L576.751 1470.51 L576.751 1247.16 L536.464 1247.16 L536.464 1247.16  Z
  " fill="#009af9" fill-rule="evenodd" fill-opacity="1"/>
<polyline clip-path="url(#clip334)" style="stroke:#000000; stroke-linecap:butt; stroke-linejoin:round; stroke-width:4; stroke-opacity:1; fill:none" points="
  536.464,1247.16 536.464,1470.51 576.751,1470.51 576.751,1247.16 536.464,1247.16 
  "/>
<path clip-path="url(#clip334)" d="
M576.751 948.617 L576.751 1470.51 L617.037 1470.51 L617.037 948.617 L576.751 948.617 L576.751 948.617  Z
  " fill="#009af9" fill-rule="evenodd" fill-opacity="1"/>
<polyline clip-path="url(#clip334)" style="stroke:#000000; stroke-linecap:butt; stroke-linejoin:round; stroke-width:4; stroke-opacity:1; fill:none" points="
  576.751,948.617 576.751,1470.51 617.037,1470.51 617.037,948.617 576.751,948.617 
  "/>
<path clip-path="url(#clip334)" d="
M617.037 1252.12 L617.037 1470.51 L657.323 1470.51 L657.323 1252.12 L617.037 1252.12 L617.037 1252.12  Z
  " fill="#009af9" fill-rule="evenodd" fill-opacity="1"/>
<polyline clip-path="url(#clip334)" style="stroke:#000000; stroke-linecap:butt; stroke-linejoin:round; stroke-width:4; stroke-opacity:1; fill:none" points="
  617.037,1252.12 617.037,1470.51 657.323,1470.51 657.323,1252.12 617.037,1252.12 
  "/>
<path clip-path="url(#clip334)" d="
M657.323 939.405 L657.323 1470.51 L697.609 1470.51 L697.609 939.405 L657.323 939.405 L657.323 939.405  Z
  " fill="#009af9" fill-rule="evenodd" fill-opacity="1"/>
<polyline clip-path="url(#clip334)" style="stroke:#000000; stroke-linecap:butt; stroke-linejoin:round; stroke-width:4; stroke-opacity:1; fill:none" points="
  657.323,939.405 657.323,1470.51 697.609,1470.51 697.609,939.405 657.323,939.405 
  "/>
<path clip-path="url(#clip334)" d="
M697.609 1288.75 L697.609 1470.51 L737.896 1470.51 L737.896 1288.75 L697.609 1288.75 L697.609 1288.75  Z
  " fill="#009af9" fill-rule="evenodd" fill-opacity="1"/>
<polyline clip-path="url(#clip334)" style="stroke:#000000; stroke-linecap:butt; stroke-linejoin:round; stroke-width:4; stroke-opacity:1; fill:none" points="
  697.609,1288.75 697.609,1470.51 737.896,1470.51 737.896,1288.75 697.609,1288.75 
  "/>
<path clip-path="url(#clip334)" d="
M737.896 983.623 L737.896 1470.51 L778.182 1470.51 L778.182 983.623 L737.896 983.623 L737.896 983.623  Z
  " fill="#009af9" fill-rule="evenodd" fill-opacity="1"/>
<polyline clip-path="url(#clip334)" style="stroke:#000000; stroke-linecap:butt; stroke-linejoin:round; stroke-width:4; stroke-opacity:1; fill:none" points="
  737.896,983.623 737.896,1470.51 778.182,1470.51 778.182,983.623 737.896,983.623 
  "/>
<path clip-path="url(#clip334)" d="
M778.182 1278.34 L778.182 1470.51 L818.468 1470.51 L818.468 1278.34 L778.182 1278.34 L778.182 1278.34  Z
  " fill="#009af9" fill-rule="evenodd" fill-opacity="1"/>
<polyline clip-path="url(#clip334)" style="stroke:#000000; stroke-linecap:butt; stroke-linejoin:round; stroke-width:4; stroke-opacity:1; fill:none" points="
  778.182,1278.34 778.182,1470.51 818.468,1470.51 818.468,1278.34 778.182,1278.34 
  "/>
<path clip-path="url(#clip334)" d="
M818.468 978.663 L818.468 1470.51 L858.755 1470.51 L858.755 978.663 L818.468 978.663 L818.468 978.663  Z
  " fill="#009af9" fill-rule="evenodd" fill-opacity="1"/>
<polyline clip-path="url(#clip334)" style="stroke:#000000; stroke-linecap:butt; stroke-linejoin:round; stroke-width:4; stroke-opacity:1; fill:none" points="
  818.468,978.663 818.468,1470.51 858.755,1470.51 858.755,978.663 818.468,978.663 
  "/>
<path clip-path="url(#clip334)" d="
M858.755 1285.71 L858.755 1470.51 L899.041 1470.51 L899.041 1285.71 L858.755 1285.71 L858.755 1285.71  Z
  " fill="#009af9" fill-rule="evenodd" fill-opacity="1"/>
<polyline clip-path="url(#clip334)" style="stroke:#000000; stroke-linecap:butt; stroke-linejoin:round; stroke-width:4; stroke-opacity:1; fill:none" points="
  858.755,1285.71 858.755,1470.51 899.041,1470.51 899.041,1285.71 858.755,1285.71 
  "/>
<path clip-path="url(#clip334)" d="
M899.041 972.073 L899.041 1470.51 L939.327 1470.51 L939.327 972.073 L899.041 972.073 L899.041 972.073  Z
  " fill="#009af9" fill-rule="evenodd" fill-opacity="1"/>
<polyline clip-path="url(#clip334)" style="stroke:#000000; stroke-linecap:butt; stroke-linejoin:round; stroke-width:4; stroke-opacity:1; fill:none" points="
  899.041,972.073 899.041,1470.51 939.327,1470.51 939.327,972.073 899.041,972.073 
  "/>
<path clip-path="url(#clip334)" d="
M939.327 1286.06 L939.327 1470.51 L979.613 1470.51 L979.613 1286.06 L939.327 1286.06 L939.327 1286.06  Z
  " fill="#009af9" fill-rule="evenodd" fill-opacity="1"/>
<polyline clip-path="url(#clip334)" style="stroke:#000000; stroke-linecap:butt; stroke-linejoin:round; stroke-width:4; stroke-opacity:1; fill:none" points="
  939.327,1286.06 939.327,1470.51 979.613,1470.51 979.613,1286.06 939.327,1286.06 
  "/>
<path clip-path="url(#clip334)" d="
M979.613 992.056 L979.613 1470.51 L1019.9 1470.51 L1019.9 992.056 L979.613 992.056 L979.613 992.056  Z
  " fill="#009af9" fill-rule="evenodd" fill-opacity="1"/>
<polyline clip-path="url(#clip334)" style="stroke:#000000; stroke-linecap:butt; stroke-linejoin:round; stroke-width:4; stroke-opacity:1; fill:none" points="
  979.613,992.056 979.613,1470.51 1019.9,1470.51 1019.9,992.056 979.613,992.056 
  "/>
<path clip-path="url(#clip334)" d="
M1019.9 1290.74 L1019.9 1470.51 L1060.19 1470.51 L1060.19 1290.74 L1019.9 1290.74 L1019.9 1290.74  Z
  " fill="#009af9" fill-rule="evenodd" fill-opacity="1"/>
<polyline clip-path="url(#clip334)" style="stroke:#000000; stroke-linecap:butt; stroke-linejoin:round; stroke-width:4; stroke-opacity:1; fill:none" points="
  1019.9,1290.74 1019.9,1470.51 1060.19,1470.51 1060.19,1290.74 1019.9,1290.74 
  "/>
<path clip-path="url(#clip334)" d="
M1060.19 979.584 L1060.19 1470.51 L1100.47 1470.51 L1100.47 979.584 L1060.19 979.584 L1060.19 979.584  Z
  " fill="#009af9" fill-rule="evenodd" fill-opacity="1"/>
<polyline clip-path="url(#clip334)" style="stroke:#000000; stroke-linecap:butt; stroke-linejoin:round; stroke-width:4; stroke-opacity:1; fill:none" points="
  1060.19,979.584 1060.19,1470.51 1100.47,1470.51 1100.47,979.584 1060.19,979.584 
  "/>
<circle clip-path="url(#clip334)" style="fill:#009af9; stroke:none; fill-opacity:0" cx="274.603" cy="1470.51" r="2"/>
<circle clip-path="url(#clip334)" style="fill:#009af9; stroke:none; fill-opacity:0" cx="314.89" cy="1249" r="2"/>
<circle clip-path="url(#clip334)" style="fill:#009af9; stroke:none; fill-opacity:0" cx="355.176" cy="944.933" r="2"/>
<circle clip-path="url(#clip334)" style="fill:#009af9; stroke:none; fill-opacity:0" cx="395.462" cy="1256.37" r="2"/>
<circle clip-path="url(#clip334)" style="fill:#009af9; stroke:none; fill-opacity:0" cx="435.749" cy="949.184" r="2"/>
<circle clip-path="url(#clip334)" style="fill:#009af9; stroke:none; fill-opacity:0" cx="476.035" cy="1243.69" r="2"/>
<circle clip-path="url(#clip334)" style="fill:#009af9; stroke:none; fill-opacity:0" cx="516.321" cy="958.042" r="2"/>
<circle clip-path="url(#clip334)" style="fill:#009af9; stroke:none; fill-opacity:0" cx="556.607" cy="1247.16" r="2"/>
<circle clip-path="url(#clip334)" style="fill:#009af9; stroke:none; fill-opacity:0" cx="596.894" cy="948.617" r="2"/>
<circle clip-path="url(#clip334)" style="fill:#009af9; stroke:none; fill-opacity:0" cx="637.18" cy="1252.12" r="2"/>
<circle clip-path="url(#clip334)" style="fill:#009af9; stroke:none; fill-opacity:0" cx="677.466" cy="939.405" r="2"/>
<circle clip-path="url(#clip334)" style="fill:#009af9; stroke:none; fill-opacity:0" cx="717.753" cy="1288.75" r="2"/>
<circle clip-path="url(#clip334)" style="fill:#009af9; stroke:none; fill-opacity:0" cx="758.039" cy="983.623" r="2"/>
<circle clip-path="url(#clip334)" style="fill:#009af9; stroke:none; fill-opacity:0" cx="798.325" cy="1278.34" r="2"/>
<circle clip-path="url(#clip334)" style="fill:#009af9; stroke:none; fill-opacity:0" cx="838.611" cy="978.663" r="2"/>
<circle clip-path="url(#clip334)" style="fill:#009af9; stroke:none; fill-opacity:0" cx="878.898" cy="1285.71" r="2"/>
<circle clip-path="url(#clip334)" style="fill:#009af9; stroke:none; fill-opacity:0" cx="919.184" cy="972.073" r="2"/>
<circle clip-path="url(#clip334)" style="fill:#009af9; stroke:none; fill-opacity:0" cx="959.47" cy="1286.06" r="2"/>
<circle clip-path="url(#clip334)" style="fill:#009af9; stroke:none; fill-opacity:0" cx="999.757" cy="992.056" r="2"/>
<circle clip-path="url(#clip334)" style="fill:#009af9; stroke:none; fill-opacity:0" cx="1040.04" cy="1290.74" r="2"/>
<circle clip-path="url(#clip334)" style="fill:#009af9; stroke:none; fill-opacity:0" cx="1080.33" cy="979.584" r="2"/>
</svg>
