<?xml version="1.0" encoding="utf-8"?>
<svg xmlns="http://www.w3.org/2000/svg" xmlns:xlink="http://www.w3.org/1999/xlink" width="600" height="400" viewBox="0 0 2400 1600">
<defs>
  <clipPath id="clip410">
    <rect x="0" y="0" width="2400" height="1600"/>
  </clipPath>
</defs>
<path clip-path="url(#clip410)" d="
M0 1600 L2400 1600 L2400 0 L0 0  Z
  " fill="#ffffff" fill-rule="evenodd" fill-opacity="1"/>
<defs>
  <clipPath id="clip411">
    <rect x="480" y="0" width="1681" height="1600"/>
  </clipPath>
</defs>
<path clip-path="url(#clip410)" d="
M277.431 686.448 L1152.76 686.448 L1152.76 123.472 L277.431 123.472  Z
  " fill="#ffffff" fill-rule="evenodd" fill-opacity="1"/>
<defs>
  <clipPath id="clip412">
    <rect x="277" y="123" width="876" height="564"/>
  </clipPath>
</defs>
<polyline clip-path="url(#clip412)" style="stroke:#000000; stroke-linecap:butt; stroke-linejoin:round; stroke-width:2; stroke-opacity:0.1; fill:none" points="
  325.575,686.448 325.575,123.472 
  "/>
<polyline clip-path="url(#clip412)" style="stroke:#000000; stroke-linecap:butt; stroke-linejoin:round; stroke-width:2; stroke-opacity:0.1; fill:none" points="
  715.093,686.448 715.093,123.472 
  "/>
<polyline clip-path="url(#clip410)" style="stroke:#000000; stroke-linecap:butt; stroke-linejoin:round; stroke-width:4; stroke-opacity:1; fill:none" points="
  277.431,686.448 1152.76,686.448 
  "/>
<polyline clip-path="url(#clip410)" style="stroke:#000000; stroke-linecap:butt; stroke-linejoin:round; stroke-width:4; stroke-opacity:1; fill:none" points="
  325.575,686.448 325.575,667.55 
  "/>
<polyline clip-path="url(#clip410)" style="stroke:#000000; stroke-linecap:butt; stroke-linejoin:round; stroke-width:4; stroke-opacity:1; fill:none" points="
  715.093,686.448 715.093,667.55 
  "/>
<path clip-path="url(#clip410)" d="M287.497 712.83 L287.497 716.371 L283.423 716.371 Q281.131 716.371 280.228 717.297 Q279.349 718.223 279.349 720.63 L279.349 722.922 L286.363 722.922 L286.363 726.232 L279.349 726.232 L279.349 748.848 L275.066 748.848 L275.066 726.232 L270.992 726.232 L270.992 722.922 L275.066 722.922 L275.066 721.117 Q275.066 716.788 277.08 714.82 Q279.094 712.83 283.469 712.83 L287.497 712.83 Z" fill="#000000" fill-rule="evenodd" fill-opacity="1" /><path clip-path="url(#clip410)" d="M302.844 735.816 Q297.682 735.816 295.691 736.996 Q293.701 738.177 293.701 741.024 Q293.701 743.292 295.182 744.635 Q296.687 745.954 299.256 745.954 Q302.798 745.954 304.927 743.454 Q307.08 740.931 307.08 736.765 L307.08 735.816 L302.844 735.816 M311.339 734.056 L311.339 748.848 L307.08 748.848 L307.08 744.913 Q305.622 747.274 303.446 748.408 Q301.27 749.519 298.122 749.519 Q294.14 749.519 291.779 747.297 Q289.441 745.052 289.441 741.302 Q289.441 736.927 292.358 734.704 Q295.298 732.482 301.108 732.482 L307.08 732.482 L307.08 732.066 Q307.08 729.126 305.136 727.529 Q303.214 725.908 299.719 725.908 Q297.497 725.908 295.39 726.441 Q293.284 726.973 291.339 728.038 L291.339 724.103 Q293.677 723.2 295.876 722.76 Q298.075 722.297 300.159 722.297 Q305.784 722.297 308.562 725.214 Q311.339 728.13 311.339 734.056 Z" fill="#000000" fill-rule="evenodd" fill-opacity="1" /><path clip-path="url(#clip410)" d="M320.112 712.83 L324.372 712.83 L324.372 748.848 L320.112 748.848 L320.112 712.83 Z" fill="#000000" fill-rule="evenodd" fill-opacity="1" /><path clip-path="url(#clip410)" d="M349.811 723.686 L349.811 727.714 Q348.006 726.788 346.061 726.325 Q344.117 725.862 342.034 725.862 Q338.862 725.862 337.265 726.834 Q335.691 727.806 335.691 729.751 Q335.691 731.232 336.825 732.089 Q337.96 732.922 341.385 733.686 L342.844 734.01 Q347.381 734.982 349.279 736.765 Q351.2 738.524 351.2 741.695 Q351.2 745.306 348.33 747.413 Q345.483 749.519 340.483 749.519 Q338.399 749.519 336.131 749.103 Q333.885 748.709 331.386 747.899 L331.386 743.501 Q333.747 744.728 336.038 745.353 Q338.33 745.954 340.575 745.954 Q343.585 745.954 345.205 744.936 Q346.825 743.894 346.825 742.019 Q346.825 740.283 345.645 739.357 Q344.487 738.431 340.529 737.575 L339.048 737.228 Q335.089 736.394 333.33 734.681 Q331.571 732.945 331.571 729.936 Q331.571 726.279 334.163 724.288 Q336.756 722.297 341.524 722.297 Q343.885 722.297 345.969 722.644 Q348.052 722.992 349.811 723.686 Z" fill="#000000" fill-rule="evenodd" fill-opacity="1" /><path clip-path="url(#clip410)" d="M380.158 734.82 L380.158 736.903 L360.575 736.903 Q360.853 741.302 363.214 743.616 Q365.598 745.908 369.834 745.908 Q372.288 745.908 374.58 745.306 Q376.895 744.704 379.163 743.501 L379.163 747.528 Q376.871 748.501 374.464 749.01 Q372.057 749.519 369.58 749.519 Q363.376 749.519 359.742 745.908 Q356.131 742.297 356.131 736.14 Q356.131 729.774 359.557 726.047 Q363.006 722.297 368.839 722.297 Q374.07 722.297 377.103 725.677 Q380.158 729.033 380.158 734.82 M375.899 733.57 Q375.853 730.075 373.932 727.992 Q372.033 725.908 368.885 725.908 Q365.321 725.908 363.168 727.922 Q361.038 729.936 360.714 733.593 L375.899 733.57 Z" fill="#000000" fill-rule="evenodd" fill-opacity="1" /><path clip-path="url(#clip410)" d="M675.753 715.561 L675.753 722.922 L684.526 722.922 L684.526 726.232 L675.753 726.232 L675.753 740.306 Q675.753 743.478 676.61 744.38 Q677.489 745.283 680.151 745.283 L684.526 745.283 L684.526 748.848 L680.151 748.848 Q675.221 748.848 673.346 747.019 Q671.471 745.167 671.471 740.306 L671.471 726.232 L668.346 726.232 L668.346 722.922 L671.471 722.922 L671.471 715.561 L675.753 715.561 Z" fill="#000000" fill-rule="evenodd" fill-opacity="1" /><path clip-path="url(#clip410)" d="M705.151 726.904 Q704.434 726.487 703.577 726.302 Q702.744 726.093 701.725 726.093 Q698.114 726.093 696.17 728.454 Q694.249 730.792 694.249 735.191 L694.249 748.848 L689.966 748.848 L689.966 722.922 L694.249 722.922 L694.249 726.95 Q695.591 724.589 697.744 723.454 Q699.897 722.297 702.975 722.297 Q703.415 722.297 703.948 722.367 Q704.48 722.413 705.128 722.529 L705.151 726.904 Z" fill="#000000" fill-rule="evenodd" fill-opacity="1" /><path clip-path="url(#clip410)" d="M709.179 738.616 L709.179 722.922 L713.438 722.922 L713.438 738.454 Q713.438 742.135 714.874 743.987 Q716.309 745.815 719.179 745.815 Q722.628 745.815 724.619 743.616 Q726.633 741.417 726.633 737.621 L726.633 722.922 L730.892 722.922 L730.892 748.848 L726.633 748.848 L726.633 744.866 Q725.082 747.228 723.022 748.385 Q720.985 749.519 718.276 749.519 Q713.809 749.519 711.494 746.741 Q709.179 743.964 709.179 738.616 M719.897 722.297 L719.897 722.297 Z" fill="#000000" fill-rule="evenodd" fill-opacity="1" /><path clip-path="url(#clip410)" d="M761.841 734.82 L761.841 736.903 L742.258 736.903 Q742.535 741.302 744.896 743.616 Q747.281 745.908 751.517 745.908 Q753.971 745.908 756.262 745.306 Q758.577 744.704 760.845 743.501 L760.845 747.528 Q758.554 748.501 756.146 749.01 Q753.739 749.519 751.262 749.519 Q745.059 749.519 741.424 745.908 Q737.813 742.297 737.813 736.14 Q737.813 729.774 741.239 726.047 Q744.688 722.297 750.521 722.297 Q755.753 722.297 758.785 725.677 Q761.841 729.033 761.841 734.82 M757.582 733.57 Q757.535 730.075 755.614 727.992 Q753.716 725.908 750.568 725.908 Q747.003 725.908 744.85 727.922 Q742.721 729.936 742.397 733.593 L757.582 733.57 Z" fill="#000000" fill-rule="evenodd" fill-opacity="1" /><polyline clip-path="url(#clip412)" style="stroke:#000000; stroke-linecap:butt; stroke-linejoin:round; stroke-width:2; stroke-opacity:0.1; fill:none" points="
  277.431,670.515 1152.76,670.515 
  "/>
<polyline clip-path="url(#clip412)" style="stroke:#000000; stroke-linecap:butt; stroke-linejoin:round; stroke-width:2; stroke-opacity:0.1; fill:none" points="
  277.431,552.475 1152.76,552.475 
  "/>
<polyline clip-path="url(#clip412)" style="stroke:#000000; stroke-linecap:butt; stroke-linejoin:round; stroke-width:2; stroke-opacity:0.1; fill:none" points="
  277.431,434.435 1152.76,434.435 
  "/>
<polyline clip-path="url(#clip412)" style="stroke:#000000; stroke-linecap:butt; stroke-linejoin:round; stroke-width:2; stroke-opacity:0.1; fill:none" points="
  277.431,316.395 1152.76,316.395 
  "/>
<polyline clip-path="url(#clip412)" style="stroke:#000000; stroke-linecap:butt; stroke-linejoin:round; stroke-width:2; stroke-opacity:0.1; fill:none" points="
  277.431,198.355 1152.76,198.355 
  "/>
<polyline clip-path="url(#clip410)" style="stroke:#000000; stroke-linecap:butt; stroke-linejoin:round; stroke-width:4; stroke-opacity:1; fill:none" points="
  277.431,686.448 277.431,123.472 
  "/>
<polyline clip-path="url(#clip410)" style="stroke:#000000; stroke-linecap:butt; stroke-linejoin:round; stroke-width:4; stroke-opacity:1; fill:none" points="
  277.431,670.515 296.329,670.515 
  "/>
<polyline clip-path="url(#clip410)" style="stroke:#000000; stroke-linecap:butt; stroke-linejoin:round; stroke-width:4; stroke-opacity:1; fill:none" points="
  277.431,552.475 296.329,552.475 
  "/>
<polyline clip-path="url(#clip410)" style="stroke:#000000; stroke-linecap:butt; stroke-linejoin:round; stroke-width:4; stroke-opacity:1; fill:none" points="
  277.431,434.435 296.329,434.435 
  "/>
<polyline clip-path="url(#clip410)" style="stroke:#000000; stroke-linecap:butt; stroke-linejoin:round; stroke-width:4; stroke-opacity:1; fill:none" points="
  277.431,316.395 296.329,316.395 
  "/>
<polyline clip-path="url(#clip410)" style="stroke:#000000; stroke-linecap:butt; stroke-linejoin:round; stroke-width:4; stroke-opacity:1; fill:none" points="
  277.431,198.355 296.329,198.355 
  "/>
<path clip-path="url(#clip410)" d="M229.487 656.313 Q225.875 656.313 224.047 659.878 Q222.241 663.42 222.241 670.549 Q222.241 677.656 224.047 681.221 Q225.875 684.762 229.487 684.762 Q233.121 684.762 234.926 681.221 Q236.755 677.656 236.755 670.549 Q236.755 663.42 234.926 659.878 Q233.121 656.313 229.487 656.313 M229.487 652.61 Q235.297 652.61 238.352 657.216 Q241.431 661.799 241.431 670.549 Q241.431 679.276 238.352 683.883 Q235.297 688.466 229.487 688.466 Q223.676 688.466 220.598 683.883 Q217.542 679.276 217.542 670.549 Q217.542 661.799 220.598 657.216 Q223.676 652.61 229.487 652.61 Z" fill="#000000" fill-rule="evenodd" fill-opacity="1" /><path clip-path="url(#clip410)" d="M57.7745 572.267 L74.0939 572.267 L74.0939 576.202 L52.1495 576.202 L52.1495 572.267 Q54.8115 569.512 59.3949 564.883 Q64.0013 560.23 65.1819 558.887 Q67.4272 556.364 68.3068 554.628 Q69.2096 552.869 69.2096 551.179 Q69.2096 548.425 67.2652 546.688 Q65.3439 544.952 62.2421 544.952 Q60.043 544.952 57.5893 545.716 Q55.1588 546.48 52.381 548.031 L52.381 543.309 Q55.2051 542.175 57.6588 541.596 Q60.1124 541.017 62.1495 541.017 Q67.5198 541.017 70.7142 543.702 Q73.9087 546.388 73.9087 550.878 Q73.9087 553.008 73.0985 554.929 Q72.3115 556.827 70.205 559.42 Q69.6263 560.091 66.5245 563.309 Q63.4226 566.503 57.7745 572.267 Z" fill="#000000" fill-rule="evenodd" fill-opacity="1" /><path clip-path="url(#clip410)" d="M83.9086 570.323 L88.7928 570.323 L88.7928 576.202 L83.9086 576.202 L83.9086 570.323 Z" fill="#000000" fill-rule="evenodd" fill-opacity="1" /><path clip-path="url(#clip410)" d="M108.978 544.721 Q105.367 544.721 103.538 548.286 Q101.733 551.827 101.733 558.957 Q101.733 566.063 103.538 569.628 Q105.367 573.17 108.978 573.17 Q112.612 573.17 114.418 569.628 Q116.246 566.063 116.246 558.957 Q116.246 551.827 114.418 548.286 Q112.612 544.721 108.978 544.721 M108.978 541.017 Q114.788 541.017 117.844 545.624 Q120.922 550.207 120.922 558.957 Q120.922 567.684 117.844 572.29 Q114.788 576.873 108.978 576.873 Q103.168 576.873 100.089 572.29 Q97.0335 567.684 97.0335 558.957 Q97.0335 550.207 100.089 545.624 Q103.168 541.017 108.978 541.017 Z" fill="#000000" fill-rule="evenodd" fill-opacity="1" /><path clip-path="url(#clip410)" d="M157.311 550.739 L146.732 561.364 L157.311 571.943 L154.556 574.744 L143.931 564.119 L133.306 574.744 L130.575 571.943 L141.131 561.364 L130.575 550.739 L133.306 547.938 L143.931 558.563 L154.556 547.938 L157.311 550.739 Z" fill="#000000" fill-rule="evenodd" fill-opacity="1" /><path clip-path="url(#clip410)" d="M169.672 572.267 L177.311 572.267 L177.311 545.901 L169.001 547.568 L169.001 543.309 L177.265 541.642 L181.94 541.642 L181.94 572.267 L189.579 572.267 L189.579 576.202 L169.672 576.202 L169.672 572.267 Z" fill="#000000" fill-rule="evenodd" fill-opacity="1" /><path clip-path="url(#clip410)" d="M209.024 544.721 Q205.413 544.721 203.584 548.286 Q201.778 551.827 201.778 558.957 Q201.778 566.063 203.584 569.628 Q205.413 573.17 209.024 573.17 Q212.658 573.17 214.463 569.628 Q216.292 566.063 216.292 558.957 Q216.292 551.827 214.463 548.286 Q212.658 544.721 209.024 544.721 M209.024 541.017 Q214.834 541.017 217.889 545.624 Q220.968 550.207 220.968 558.957 Q220.968 567.684 217.889 572.29 Q214.834 576.873 209.024 576.873 Q203.214 576.873 200.135 572.29 Q197.079 567.684 197.079 558.957 Q197.079 550.207 200.135 545.624 Q203.214 541.017 209.024 541.017 Z" fill="#000000" fill-rule="evenodd" fill-opacity="1" /><path clip-path="url(#clip410)" d="M233.645 524.022 L224.053 539.012 L233.645 539.012 L233.645 524.022 M232.648 520.712 L237.425 520.712 L237.425 539.012 L241.431 539.012 L241.431 542.171 L237.425 542.171 L237.425 548.792 L233.645 548.792 L233.645 542.171 L220.968 542.171 L220.968 538.504 L232.648 520.712 Z" fill="#000000" fill-rule="evenodd" fill-opacity="1" /><path clip-path="url(#clip410)" d="M66.5939 427.676 L54.7884 446.125 L66.5939 446.125 L66.5939 427.676 M65.367 423.602 L71.2466 423.602 L71.2466 446.125 L76.1772 446.125 L76.1772 450.014 L71.2466 450.014 L71.2466 458.162 L66.5939 458.162 L66.5939 450.014 L50.9921 450.014 L50.9921 445.5 L65.367 423.602 Z" fill="#000000" fill-rule="evenodd" fill-opacity="1" /><path clip-path="url(#clip410)" d="M83.9086 452.283 L88.7928 452.283 L88.7928 458.162 L83.9086 458.162 L83.9086 452.283 Z" fill="#000000" fill-rule="evenodd" fill-opacity="1" /><path clip-path="url(#clip410)" d="M108.978 426.681 Q105.367 426.681 103.538 430.246 Q101.733 433.787 101.733 440.917 Q101.733 448.023 103.538 451.588 Q105.367 455.13 108.978 455.13 Q112.612 455.13 114.418 451.588 Q116.246 448.023 116.246 440.917 Q116.246 433.787 114.418 430.246 Q112.612 426.681 108.978 426.681 M108.978 422.977 Q114.788 422.977 117.844 427.584 Q120.922 432.167 120.922 440.917 Q120.922 449.644 117.844 454.25 Q114.788 458.833 108.978 458.833 Q103.168 458.833 100.089 454.25 Q97.0335 449.644 97.0335 440.917 Q97.0335 432.167 100.089 427.584 Q103.168 422.977 108.978 422.977 Z" fill="#000000" fill-rule="evenodd" fill-opacity="1" /><path clip-path="url(#clip410)" d="M157.311 432.699 L146.732 443.324 L157.311 453.903 L154.556 456.704 L143.931 446.079 L133.306 456.704 L130.575 453.903 L141.131 443.324 L130.575 432.699 L133.306 429.898 L143.931 440.523 L154.556 429.898 L157.311 432.699 Z" fill="#000000" fill-rule="evenodd" fill-opacity="1" /><path clip-path="url(#clip410)" d="M169.672 454.227 L177.311 454.227 L177.311 427.861 L169.001 429.528 L169.001 425.269 L177.265 423.602 L181.94 423.602 L181.94 454.227 L189.579 454.227 L189.579 458.162 L169.672 458.162 L169.672 454.227 Z" fill="#000000" fill-rule="evenodd" fill-opacity="1" /><path clip-path="url(#clip410)" d="M209.024 426.681 Q205.413 426.681 203.584 430.246 Q201.778 433.787 201.778 440.917 Q201.778 448.023 203.584 451.588 Q205.413 455.13 209.024 455.13 Q212.658 455.13 214.463 451.588 Q216.292 448.023 216.292 440.917 Q216.292 433.787 214.463 430.246 Q212.658 426.681 209.024 426.681 M209.024 422.977 Q214.834 422.977 217.889 427.584 Q220.968 432.167 220.968 440.917 Q220.968 449.644 217.889 454.25 Q214.834 458.833 209.024 458.833 Q203.214 458.833 200.135 454.25 Q197.079 449.644 197.079 440.917 Q197.079 432.167 200.135 427.584 Q203.214 422.977 209.024 422.977 Z" fill="#000000" fill-rule="evenodd" fill-opacity="1" /><path clip-path="url(#clip410)" d="M233.645 405.982 L224.053 420.972 L233.645 420.972 L233.645 405.982 M232.648 402.672 L237.425 402.672 L237.425 420.972 L241.431 420.972 L241.431 424.131 L237.425 424.131 L237.425 430.752 L233.645 430.752 L233.645 424.131 L220.968 424.131 L220.968 420.464 L232.648 402.672 Z" fill="#000000" fill-rule="evenodd" fill-opacity="1" /><path clip-path="url(#clip410)" d="M64.3254 320.979 Q61.1773 320.979 59.3254 323.132 Q57.4967 325.284 57.4967 329.034 Q57.4967 332.761 59.3254 334.937 Q61.1773 337.09 64.3254 337.09 Q67.4735 337.09 69.3022 334.937 Q71.1541 332.761 71.1541 329.034 Q71.1541 325.284 69.3022 323.132 Q67.4735 320.979 64.3254 320.979 M73.6077 306.326 L73.6077 310.585 Q71.8485 309.752 70.0429 309.312 Q68.2606 308.872 66.5013 308.872 Q61.8717 308.872 59.418 311.997 Q56.9875 315.122 56.6402 321.442 Q58.006 319.428 60.0662 318.363 Q62.1263 317.275 64.6032 317.275 Q69.8115 317.275 72.8207 320.446 Q75.8531 323.594 75.8531 329.034 Q75.8531 334.358 72.705 337.576 Q69.5568 340.793 64.3254 340.793 Q58.33 340.793 55.1588 336.21 Q51.9875 331.604 51.9875 322.877 Q51.9875 314.683 55.8764 309.821 Q59.7652 304.937 66.3161 304.937 Q68.0754 304.937 69.8578 305.284 Q71.6633 305.632 73.6077 306.326 Z" fill="#000000" fill-rule="evenodd" fill-opacity="1" /><path clip-path="url(#clip410)" d="M83.9086 334.243 L88.7928 334.243 L88.7928 340.122 L83.9086 340.122 L83.9086 334.243 Z" fill="#000000" fill-rule="evenodd" fill-opacity="1" /><path clip-path="url(#clip410)" d="M108.978 308.641 Q105.367 308.641 103.538 312.206 Q101.733 315.747 101.733 322.877 Q101.733 329.983 103.538 333.548 Q105.367 337.09 108.978 337.09 Q112.612 337.09 114.418 333.548 Q116.246 329.983 116.246 322.877 Q116.246 315.747 114.418 312.206 Q112.612 308.641 108.978 308.641 M108.978 304.937 Q114.788 304.937 117.844 309.544 Q120.922 314.127 120.922 322.877 Q120.922 331.604 117.844 336.21 Q114.788 340.793 108.978 340.793 Q103.168 340.793 100.089 336.21 Q97.0335 331.604 97.0335 322.877 Q97.0335 314.127 100.089 309.544 Q103.168 304.937 108.978 304.937 Z" fill="#000000" fill-rule="evenodd" fill-opacity="1" /><path clip-path="url(#clip410)" d="M157.311 314.659 L146.732 325.284 L157.311 335.863 L154.556 338.664 L143.931 328.039 L133.306 338.664 L130.575 335.863 L141.131 325.284 L130.575 314.659 L133.306 311.858 L143.931 322.483 L154.556 311.858 L157.311 314.659 Z" fill="#000000" fill-rule="evenodd" fill-opacity="1" /><path clip-path="url(#clip410)" d="M169.672 336.187 L177.311 336.187 L177.311 309.821 L169.001 311.488 L169.001 307.229 L177.265 305.562 L181.94 305.562 L181.94 336.187 L189.579 336.187 L189.579 340.122 L169.672 340.122 L169.672 336.187 Z" fill="#000000" fill-rule="evenodd" fill-opacity="1" /><path clip-path="url(#clip410)" d="M209.024 308.641 Q205.413 308.641 203.584 312.206 Q201.778 315.747 201.778 322.877 Q201.778 329.983 203.584 333.548 Q205.413 337.09 209.024 337.09 Q212.658 337.09 214.463 333.548 Q216.292 329.983 216.292 322.877 Q216.292 315.747 214.463 312.206 Q212.658 308.641 209.024 308.641 M209.024 304.937 Q214.834 304.937 217.889 309.544 Q220.968 314.127 220.968 322.877 Q220.968 331.604 217.889 336.21 Q214.834 340.793 209.024 340.793 Q203.214 340.793 200.135 336.21 Q197.079 331.604 197.079 322.877 Q197.079 314.127 200.135 309.544 Q203.214 304.937 209.024 304.937 Z" fill="#000000" fill-rule="evenodd" fill-opacity="1" /><path clip-path="url(#clip410)" d="M233.645 287.942 L224.053 302.932 L233.645 302.932 L233.645 287.942 M232.648 284.632 L237.425 284.632 L237.425 302.932 L241.431 302.932 L241.431 306.091 L237.425 306.091 L237.425 312.712 L233.645 312.712 L233.645 306.091 L220.968 306.091 L220.968 302.424 L232.648 284.632 Z" fill="#000000" fill-rule="evenodd" fill-opacity="1" /><path clip-path="url(#clip410)" d="M63.7467 205.67 Q60.4134 205.67 58.4921 207.453 Q56.5939 209.235 56.5939 212.36 Q56.5939 215.485 58.4921 217.267 Q60.4134 219.05 63.7467 219.05 Q67.08 219.05 69.0013 217.267 Q70.9226 215.462 70.9226 212.36 Q70.9226 209.235 69.0013 207.453 Q67.1032 205.67 63.7467 205.67 M59.0708 203.68 Q56.0615 202.939 54.3717 200.879 Q52.7051 198.818 52.7051 195.855 Q52.7051 191.712 55.6449 189.305 Q58.6078 186.897 63.7467 186.897 Q68.9087 186.897 71.8485 189.305 Q74.7883 191.712 74.7883 195.855 Q74.7883 198.818 73.0985 200.879 Q71.4318 202.939 68.4457 203.68 Q71.8253 204.467 73.7003 206.758 Q75.5985 209.05 75.5985 212.36 Q75.5985 217.383 72.5198 220.068 Q69.4642 222.753 63.7467 222.753 Q58.0291 222.753 54.9504 220.068 Q51.8949 217.383 51.8949 212.36 Q51.8949 209.05 53.793 206.758 Q55.6912 204.467 59.0708 203.68 M57.3578 196.295 Q57.3578 198.98 59.0245 200.485 Q60.7143 201.99 63.7467 201.99 Q66.7559 201.99 68.4457 200.485 Q70.1587 198.98 70.1587 196.295 Q70.1587 193.61 68.4457 192.105 Q66.7559 190.601 63.7467 190.601 Q60.7143 190.601 59.0245 192.105 Q57.3578 193.61 57.3578 196.295 Z" fill="#000000" fill-rule="evenodd" fill-opacity="1" /><path clip-path="url(#clip410)" d="M83.9086 216.203 L88.7928 216.203 L88.7928 222.082 L83.9086 222.082 L83.9086 216.203 Z" fill="#000000" fill-rule="evenodd" fill-opacity="1" /><path clip-path="url(#clip410)" d="M108.978 190.601 Q105.367 190.601 103.538 194.166 Q101.733 197.707 101.733 204.837 Q101.733 211.943 103.538 215.508 Q105.367 219.05 108.978 219.05 Q112.612 219.05 114.418 215.508 Q116.246 211.943 116.246 204.837 Q116.246 197.707 114.418 194.166 Q112.612 190.601 108.978 190.601 M108.978 186.897 Q114.788 186.897 117.844 191.504 Q120.922 196.087 120.922 204.837 Q120.922 213.564 117.844 218.17 Q114.788 222.753 108.978 222.753 Q103.168 222.753 100.089 218.17 Q97.0335 213.564 97.0335 204.837 Q97.0335 196.087 100.089 191.504 Q103.168 186.897 108.978 186.897 Z" fill="#000000" fill-rule="evenodd" fill-opacity="1" /><path clip-path="url(#clip410)" d="M157.311 196.619 L146.732 207.244 L157.311 217.823 L154.556 220.624 L143.931 209.999 L133.306 220.624 L130.575 217.823 L141.131 207.244 L130.575 196.619 L133.306 193.818 L143.931 204.443 L154.556 193.818 L157.311 196.619 Z" fill="#000000" fill-rule="evenodd" fill-opacity="1" /><path clip-path="url(#clip410)" d="M169.672 218.147 L177.311 218.147 L177.311 191.781 L169.001 193.448 L169.001 189.189 L177.265 187.522 L181.94 187.522 L181.94 218.147 L189.579 218.147 L189.579 222.082 L169.672 222.082 L169.672 218.147 Z" fill="#000000" fill-rule="evenodd" fill-opacity="1" /><path clip-path="url(#clip410)" d="M209.024 190.601 Q205.413 190.601 203.584 194.166 Q201.778 197.707 201.778 204.837 Q201.778 211.943 203.584 215.508 Q205.413 219.05 209.024 219.05 Q212.658 219.05 214.463 215.508 Q216.292 211.943 216.292 204.837 Q216.292 197.707 214.463 194.166 Q212.658 190.601 209.024 190.601 M209.024 186.897 Q214.834 186.897 217.889 191.504 Q220.968 196.087 220.968 204.837 Q220.968 213.564 217.889 218.17 Q214.834 222.753 209.024 222.753 Q203.214 222.753 200.135 218.17 Q197.079 213.564 197.079 204.837 Q197.079 196.087 200.135 191.504 Q203.214 186.897 209.024 186.897 Z" fill="#000000" fill-rule="evenodd" fill-opacity="1" /><path clip-path="url(#clip410)" d="M233.645 169.902 L224.053 184.892 L233.645 184.892 L233.645 169.902 M232.648 166.592 L237.425 166.592 L237.425 184.892 L241.431 184.892 L241.431 188.051 L237.425 188.051 L237.425 194.672 L233.645 194.672 L233.645 188.051 L220.968 188.051 L220.968 184.384 L232.648 166.592 Z" fill="#000000" fill-rule="evenodd" fill-opacity="1" /><path clip-path="url(#clip410)" d="M603.126 65.7705 L603.126 89.8329 L595.632 89.8329 L595.632 27.2059 L603.126 27.2059 L603.126 34.0924 Q605.476 30.0415 609.041 28.0971 Q612.646 26.1121 617.629 26.1121 Q625.893 26.1121 631.037 32.6746 Q636.222 39.2371 636.222 49.9314 Q636.222 60.6258 631.037 67.1883 Q625.893 73.7508 617.629 73.7508 Q612.646 73.7508 609.041 71.8063 Q605.476 69.8214 603.126 65.7705 M628.485 49.9314 Q628.485 41.7081 625.082 37.0496 Q621.72 32.3505 615.806 32.3505 Q609.891 32.3505 606.489 37.0496 Q603.126 41.7081 603.126 49.9314 Q603.126 58.1548 606.489 62.8538 Q609.891 67.5124 615.806 67.5124 Q621.72 67.5124 625.082 62.8538 Q628.485 58.1548 628.485 49.9314 Z" fill="#000000" fill-rule="evenodd" fill-opacity="1" /><path clip-path="url(#clip410)" d="M649.55 34.9026 L701.482 34.9026 L701.482 41.7081 L649.55 41.7081 L649.55 34.9026 M649.55 51.4303 L701.482 51.4303 L701.482 58.3168 L649.55 58.3168 L649.55 51.4303 Z" fill="#000000" fill-rule="evenodd" fill-opacity="1" /><path clip-path="url(#clip410)" d="M736.644 17.4837 Q730.325 17.4837 727.125 23.7221 Q723.965 29.92 723.965 42.3968 Q723.965 54.833 727.125 61.0714 Q730.325 67.2693 736.644 67.2693 Q743.004 67.2693 746.164 61.0714 Q749.364 54.833 749.364 42.3968 Q749.364 29.92 746.164 23.7221 Q743.004 17.4837 736.644 17.4837 M736.644 11.0023 Q746.812 11.0023 752.159 19.0636 Q757.547 27.0843 757.547 42.3968 Q757.547 57.6687 752.159 65.73 Q746.812 73.7508 736.644 73.7508 Q726.476 73.7508 721.089 65.73 Q715.742 57.6687 715.742 42.3968 Q715.742 27.0843 721.089 19.0636 Q726.476 11.0023 736.644 11.0023 Z" fill="#000000" fill-rule="evenodd" fill-opacity="1" /><path clip-path="url(#clip410)" d="M771.928 62.2867 L780.475 62.2867 L780.475 72.576 L771.928 72.576 L771.928 62.2867 Z" fill="#000000" fill-rule="evenodd" fill-opacity="1" /><path clip-path="url(#clip410)" d="M799.717 65.6895 L813.085 65.6895 L813.085 19.5497 L798.542 22.4663 L798.542 15.0127 L813.004 12.096 L821.187 12.096 L821.187 65.6895 L834.555 65.6895 L834.555 72.576 L799.717 72.576 L799.717 65.6895 Z" fill="#000000" fill-rule="evenodd" fill-opacity="1" /><path clip-path="url(#clip412)" d="
M325.575 139.405 L325.575 670.515 L715.093 670.515 L715.093 139.405 L325.575 139.405 L325.575 139.405  Z
  " fill="#009af9" fill-rule="evenodd" fill-opacity="1"/>
<polyline clip-path="url(#clip412)" style="stroke:#000000; stroke-linecap:butt; stroke-linejoin:round; stroke-width:4; stroke-opacity:1; fill:none" points="
  325.575,139.405 325.575,670.515 715.093,670.515 715.093,139.405 325.575,139.405 
  "/>
<path clip-path="url(#clip412)" d="
M715.093 611.424 L715.093 670.515 L1104.61 670.515 L1104.61 611.424 L715.093 611.424 L715.093 611.424  Z
  " fill="#009af9" fill-rule="evenodd" fill-opacity="1"/>
<polyline clip-path="url(#clip412)" style="stroke:#000000; stroke-linecap:butt; stroke-linejoin:round; stroke-width:4; stroke-opacity:1; fill:none" points="
  715.093,611.424 715.093,670.515 1104.61,670.515 1104.61,611.424 715.093,611.424 
  "/>
<circle clip-path="url(#clip412)" style="fill:#009af9; stroke:none; fill-opacity:0" cx="520.334" cy="139.405" r="2"/>
<circle clip-path="url(#clip412)" style="fill:#009af9; stroke:none; fill-opacity:0" cx="909.852" cy="611.424" r="2"/>
<path clip-path="url(#clip410)" d="
M1477.43 686.448 L2352.76 686.448 L2352.76 123.472 L1477.43 123.472  Z
  " fill="#ffffff" fill-rule="evenodd" fill-opacity="1"/>
<defs>
  <clipPath id="clip413">
    <rect x="1477" y="123" width="876" height="564"/>
  </clipPath>
</defs>
<polyline clip-path="url(#clip413)" style="stroke:#000000; stroke-linecap:butt; stroke-linejoin:round; stroke-width:2; stroke-opacity:0.1; fill:none" points="
  1525.58,686.448 1525.58,123.472 
  "/>
<polyline clip-path="url(#clip413)" style="stroke:#000000; stroke-linecap:butt; stroke-linejoin:round; stroke-width:2; stroke-opacity:0.1; fill:none" points="
  1915.09,686.448 1915.09,123.472 
  "/>
<polyline clip-path="url(#clip410)" style="stroke:#000000; stroke-linecap:butt; stroke-linejoin:round; stroke-width:4; stroke-opacity:1; fill:none" points="
  1477.43,686.448 2352.76,686.448 
  "/>
<polyline clip-path="url(#clip410)" style="stroke:#000000; stroke-linecap:butt; stroke-linejoin:round; stroke-width:4; stroke-opacity:1; fill:none" points="
  1525.58,686.448 1525.58,667.55 
  "/>
<polyline clip-path="url(#clip410)" style="stroke:#000000; stroke-linecap:butt; stroke-linejoin:round; stroke-width:4; stroke-opacity:1; fill:none" points="
  1915.09,686.448 1915.09,667.55 
  "/>
<path clip-path="url(#clip410)" d="M1487.5 712.83 L1487.5 716.371 L1483.42 716.371 Q1481.13 716.371 1480.23 717.297 Q1479.35 718.223 1479.35 720.63 L1479.35 722.922 L1486.36 722.922 L1486.36 726.232 L1479.35 726.232 L1479.35 748.848 L1475.07 748.848 L1475.07 726.232 L1470.99 726.232 L1470.99 722.922 L1475.07 722.922 L1475.07 721.117 Q1475.07 716.788 1477.08 714.82 Q1479.09 712.83 1483.47 712.83 L1487.5 712.83 Z" fill="#000000" fill-rule="evenodd" fill-opacity="1" /><path clip-path="url(#clip410)" d="M1502.84 735.816 Q1497.68 735.816 1495.69 736.996 Q1493.7 738.177 1493.7 741.024 Q1493.7 743.292 1495.18 744.635 Q1496.69 745.954 1499.26 745.954 Q1502.8 745.954 1504.93 743.454 Q1507.08 740.931 1507.08 736.765 L1507.08 735.816 L1502.84 735.816 M1511.34 734.056 L1511.34 748.848 L1507.08 748.848 L1507.08 744.913 Q1505.62 747.274 1503.45 748.408 Q1501.27 749.519 1498.12 749.519 Q1494.14 749.519 1491.78 747.297 Q1489.44 745.052 1489.44 741.302 Q1489.44 736.927 1492.36 734.704 Q1495.3 732.482 1501.11 732.482 L1507.08 732.482 L1507.08 732.066 Q1507.08 729.126 1505.14 727.529 Q1503.21 725.908 1499.72 725.908 Q1497.5 725.908 1495.39 726.441 Q1493.28 726.973 1491.34 728.038 L1491.34 724.103 Q1493.68 723.2 1495.88 722.76 Q1498.08 722.297 1500.16 722.297 Q1505.78 722.297 1508.56 725.214 Q1511.34 728.13 1511.34 734.056 Z" fill="#000000" fill-rule="evenodd" fill-opacity="1" /><path clip-path="url(#clip410)" d="M1520.11 712.83 L1524.37 712.83 L1524.37 748.848 L1520.11 748.848 L1520.11 712.83 Z" fill="#000000" fill-rule="evenodd" fill-opacity="1" /><path clip-path="url(#clip410)" d="M1549.81 723.686 L1549.81 727.714 Q1548.01 726.788 1546.06 726.325 Q1544.12 725.862 1542.03 725.862 Q1538.86 725.862 1537.27 726.834 Q1535.69 727.806 1535.69 729.751 Q1535.69 731.232 1536.83 732.089 Q1537.96 732.922 1541.39 733.686 L1542.84 734.01 Q1547.38 734.982 1549.28 736.765 Q1551.2 738.524 1551.2 741.695 Q1551.2 745.306 1548.33 747.413 Q1545.48 749.519 1540.48 749.519 Q1538.4 749.519 1536.13 749.103 Q1533.89 748.709 1531.39 747.899 L1531.39 743.501 Q1533.75 744.728 1536.04 745.353 Q1538.33 745.954 1540.58 745.954 Q1543.58 745.954 1545.2 744.936 Q1546.83 743.894 1546.83 742.019 Q1546.83 740.283 1545.64 739.357 Q1544.49 738.431 1540.53 737.575 L1539.05 737.228 Q1535.09 736.394 1533.33 734.681 Q1531.57 732.945 1531.57 729.936 Q1531.57 726.279 1534.16 724.288 Q1536.76 722.297 1541.52 722.297 Q1543.89 722.297 1545.97 722.644 Q1548.05 722.992 1549.81 723.686 Z" fill="#000000" fill-rule="evenodd" fill-opacity="1" /><path clip-path="url(#clip410)" d="M1580.16 734.82 L1580.16 736.903 L1560.58 736.903 Q1560.85 741.302 1563.21 743.616 Q1565.6 745.908 1569.83 745.908 Q1572.29 745.908 1574.58 745.306 Q1576.89 744.704 1579.16 743.501 L1579.16 747.528 Q1576.87 748.501 1574.46 749.01 Q1572.06 749.519 1569.58 749.519 Q1563.38 749.519 1559.74 745.908 Q1556.13 742.297 1556.13 736.14 Q1556.13 729.774 1559.56 726.047 Q1563.01 722.297 1568.84 722.297 Q1574.07 722.297 1577.1 725.677 Q1580.16 729.033 1580.16 734.82 M1575.9 733.57 Q1575.85 730.075 1573.93 727.992 Q1572.03 725.908 1568.89 725.908 Q1565.32 725.908 1563.17 727.922 Q1561.04 729.936 1560.71 733.593 L1575.9 733.57 Z" fill="#000000" fill-rule="evenodd" fill-opacity="1" /><path clip-path="url(#clip410)" d="M1875.75 715.561 L1875.75 722.922 L1884.53 722.922 L1884.53 726.232 L1875.75 726.232 L1875.75 740.306 Q1875.75 743.478 1876.61 744.38 Q1877.49 745.283 1880.15 745.283 L1884.53 745.283 L1884.53 748.848 L1880.15 748.848 Q1875.22 748.848 1873.35 747.019 Q1871.47 745.167 1871.47 740.306 L1871.47 726.232 L1868.35 726.232 L1868.35 722.922 L1871.47 722.922 L1871.47 715.561 L1875.75 715.561 Z" fill="#000000" fill-rule="evenodd" fill-opacity="1" /><path clip-path="url(#clip410)" d="M1905.15 726.904 Q1904.43 726.487 1903.58 726.302 Q1902.74 726.093 1901.73 726.093 Q1898.11 726.093 1896.17 728.454 Q1894.25 730.792 1894.25 735.191 L1894.25 748.848 L1889.97 748.848 L1889.97 722.922 L1894.25 722.922 L1894.25 726.95 Q1895.59 724.589 1897.74 723.454 Q1899.9 722.297 1902.98 722.297 Q1903.42 722.297 1903.95 722.367 Q1904.48 722.413 1905.13 722.529 L1905.15 726.904 Z" fill="#000000" fill-rule="evenodd" fill-opacity="1" /><path clip-path="url(#clip410)" d="M1909.18 738.616 L1909.18 722.922 L1913.44 722.922 L1913.44 738.454 Q1913.44 742.135 1914.87 743.987 Q1916.31 745.815 1919.18 745.815 Q1922.63 745.815 1924.62 743.616 Q1926.63 741.417 1926.63 737.621 L1926.63 722.922 L1930.89 722.922 L1930.89 748.848 L1926.63 748.848 L1926.63 744.866 Q1925.08 747.228 1923.02 748.385 Q1920.98 749.519 1918.28 749.519 Q1913.81 749.519 1911.49 746.741 Q1909.18 743.964 1909.18 738.616 M1919.9 722.297 L1919.9 722.297 Z" fill="#000000" fill-rule="evenodd" fill-opacity="1" /><path clip-path="url(#clip410)" d="M1961.84 734.82 L1961.84 736.903 L1942.26 736.903 Q1942.54 741.302 1944.9 743.616 Q1947.28 745.908 1951.52 745.908 Q1953.97 745.908 1956.26 745.306 Q1958.58 744.704 1960.85 743.501 L1960.85 747.528 Q1958.55 748.501 1956.15 749.01 Q1953.74 749.519 1951.26 749.519 Q1945.06 749.519 1941.42 745.908 Q1937.81 742.297 1937.81 736.14 Q1937.81 729.774 1941.24 726.047 Q1944.69 722.297 1950.52 722.297 Q1955.75 722.297 1958.79 725.677 Q1961.84 729.033 1961.84 734.82 M1957.58 733.57 Q1957.54 730.075 1955.61 727.992 Q1953.72 725.908 1950.57 725.908 Q1947 725.908 1944.85 727.922 Q1942.72 729.936 1942.4 733.593 L1957.58 733.57 Z" fill="#000000" fill-rule="evenodd" fill-opacity="1" /><polyline clip-path="url(#clip413)" style="stroke:#000000; stroke-linecap:butt; stroke-linejoin:round; stroke-width:2; stroke-opacity:0.1; fill:none" points="
  1477.43,670.515 2352.76,670.515 
  "/>
<polyline clip-path="url(#clip413)" style="stroke:#000000; stroke-linecap:butt; stroke-linejoin:round; stroke-width:2; stroke-opacity:0.1; fill:none" points="
  1477.43,564.794 2352.76,564.794 
  "/>
<polyline clip-path="url(#clip413)" style="stroke:#000000; stroke-linecap:butt; stroke-linejoin:round; stroke-width:2; stroke-opacity:0.1; fill:none" points="
  1477.43,459.073 2352.76,459.073 
  "/>
<polyline clip-path="url(#clip413)" style="stroke:#000000; stroke-linecap:butt; stroke-linejoin:round; stroke-width:2; stroke-opacity:0.1; fill:none" points="
  1477.43,353.352 2352.76,353.352 
  "/>
<polyline clip-path="url(#clip413)" style="stroke:#000000; stroke-linecap:butt; stroke-linejoin:round; stroke-width:2; stroke-opacity:0.1; fill:none" points="
  1477.43,247.632 2352.76,247.632 
  "/>
<polyline clip-path="url(#clip413)" style="stroke:#000000; stroke-linecap:butt; stroke-linejoin:round; stroke-width:2; stroke-opacity:0.1; fill:none" points="
  1477.43,141.911 2352.76,141.911 
  "/>
<polyline clip-path="url(#clip410)" style="stroke:#000000; stroke-linecap:butt; stroke-linejoin:round; stroke-width:4; stroke-opacity:1; fill:none" points="
  1477.43,686.448 1477.43,123.472 
  "/>
<polyline clip-path="url(#clip410)" style="stroke:#000000; stroke-linecap:butt; stroke-linejoin:round; stroke-width:4; stroke-opacity:1; fill:none" points="
  1477.43,670.515 1496.33,670.515 
  "/>
<polyline clip-path="url(#clip410)" style="stroke:#000000; stroke-linecap:butt; stroke-linejoin:round; stroke-width:4; stroke-opacity:1; fill:none" points="
  1477.43,564.794 1496.33,564.794 
  "/>
<polyline clip-path="url(#clip410)" style="stroke:#000000; stroke-linecap:butt; stroke-linejoin:round; stroke-width:4; stroke-opacity:1; fill:none" points="
  1477.43,459.073 1496.33,459.073 
  "/>
<polyline clip-path="url(#clip410)" style="stroke:#000000; stroke-linecap:butt; stroke-linejoin:round; stroke-width:4; stroke-opacity:1; fill:none" points="
  1477.43,353.352 1496.33,353.352 
  "/>
<polyline clip-path="url(#clip410)" style="stroke:#000000; stroke-linecap:butt; stroke-linejoin:round; stroke-width:4; stroke-opacity:1; fill:none" points="
  1477.43,247.632 1496.33,247.632 
  "/>
<polyline clip-path="url(#clip410)" style="stroke:#000000; stroke-linecap:butt; stroke-linejoin:round; stroke-width:4; stroke-opacity:1; fill:none" points="
  1477.43,141.911 1496.33,141.911 
  "/>
<path clip-path="url(#clip410)" d="M1429.49 656.313 Q1425.88 656.313 1424.05 659.878 Q1422.24 663.42 1422.24 670.549 Q1422.24 677.656 1424.05 681.221 Q1425.88 684.762 1429.49 684.762 Q1433.12 684.762 1434.93 681.221 Q1436.76 677.656 1436.76 670.549 Q1436.76 663.42 1434.93 659.878 Q1433.12 656.313 1429.49 656.313 M1429.49 652.61 Q1435.3 652.61 1438.35 657.216 Q1441.43 661.799 1441.43 670.549 Q1441.43 679.276 1438.35 683.883 Q1435.3 688.466 1429.49 688.466 Q1423.68 688.466 1420.6 683.883 Q1417.54 679.276 1417.54 670.549 Q1417.54 661.799 1420.6 657.216 Q1423.68 652.61 1429.49 652.61 Z" fill="#000000" fill-rule="evenodd" fill-opacity="1" /><path clip-path="url(#clip410)" d="M1254.56 584.586 L1262.2 584.586 L1262.2 558.221 L1253.89 559.887 L1253.89 555.628 L1262.15 553.961 L1266.83 553.961 L1266.83 584.586 L1274.46 584.586 L1274.46 588.521 L1254.56 588.521 L1254.56 584.586 Z" fill="#000000" fill-rule="evenodd" fill-opacity="1" /><path clip-path="url(#clip410)" d="M1283.91 582.642 L1288.79 582.642 L1288.79 588.521 L1283.91 588.521 L1283.91 582.642 Z" fill="#000000" fill-rule="evenodd" fill-opacity="1" /><path clip-path="url(#clip410)" d="M1308.98 557.04 Q1305.37 557.04 1303.54 560.605 Q1301.73 564.147 1301.73 571.276 Q1301.73 578.383 1303.54 581.947 Q1305.37 585.489 1308.98 585.489 Q1312.61 585.489 1314.42 581.947 Q1316.25 578.383 1316.25 571.276 Q1316.25 564.147 1314.42 560.605 Q1312.61 557.04 1308.98 557.04 M1308.98 553.336 Q1314.79 553.336 1317.84 557.943 Q1320.92 562.526 1320.92 571.276 Q1320.92 580.003 1317.84 584.609 Q1314.79 589.193 1308.98 589.193 Q1303.17 589.193 1300.09 584.609 Q1297.03 580.003 1297.03 571.276 Q1297.03 562.526 1300.09 557.943 Q1303.17 553.336 1308.98 553.336 Z" fill="#000000" fill-rule="evenodd" fill-opacity="1" /><path clip-path="url(#clip410)" d="M1357.31 563.059 L1346.73 573.684 L1357.31 584.262 L1354.56 587.063 L1343.93 576.438 L1333.31 587.063 L1330.58 584.262 L1341.13 573.684 L1330.58 563.059 L1333.31 560.258 L1343.93 570.883 L1354.56 560.258 L1357.31 563.059 Z" fill="#000000" fill-rule="evenodd" fill-opacity="1" /><path clip-path="url(#clip410)" d="M1369.67 584.586 L1377.31 584.586 L1377.31 558.221 L1369 559.887 L1369 555.628 L1377.26 553.961 L1381.94 553.961 L1381.94 584.586 L1389.58 584.586 L1389.58 588.521 L1369.67 588.521 L1369.67 584.586 Z" fill="#000000" fill-rule="evenodd" fill-opacity="1" /><path clip-path="url(#clip410)" d="M1409.02 557.04 Q1405.41 557.04 1403.58 560.605 Q1401.78 564.147 1401.78 571.276 Q1401.78 578.383 1403.58 581.947 Q1405.41 585.489 1409.02 585.489 Q1412.66 585.489 1414.46 581.947 Q1416.29 578.383 1416.29 571.276 Q1416.29 564.147 1414.46 560.605 Q1412.66 557.04 1409.02 557.04 M1409.02 553.336 Q1414.83 553.336 1417.89 557.943 Q1420.97 562.526 1420.97 571.276 Q1420.97 580.003 1417.89 584.609 Q1414.83 589.193 1409.02 589.193 Q1403.21 589.193 1400.13 584.609 Q1397.08 580.003 1397.08 571.276 Q1397.08 562.526 1400.13 557.943 Q1403.21 553.336 1409.02 553.336 Z" fill="#000000" fill-rule="evenodd" fill-opacity="1" /><path clip-path="url(#clip410)" d="M1433.64 536.341 L1424.05 551.331 L1433.64 551.331 L1433.64 536.341 M1432.65 533.031 L1437.42 533.031 L1437.42 551.331 L1441.43 551.331 L1441.43 554.491 L1437.42 554.491 L1437.42 561.111 L1433.64 561.111 L1433.64 554.491 L1420.97 554.491 L1420.97 550.823 L1432.65 533.031 Z" fill="#000000" fill-rule="evenodd" fill-opacity="1" /><path clip-path="url(#clip410)" d="M1257.77 478.866 L1274.09 478.866 L1274.09 482.801 L1252.15 482.801 L1252.15 478.866 Q1254.81 476.111 1259.39 471.481 Q1264 466.829 1265.18 465.486 Q1267.43 462.963 1268.31 461.227 Q1269.21 459.468 1269.21 457.778 Q1269.21 455.023 1267.27 453.287 Q1265.34 451.551 1262.24 451.551 Q1260.04 451.551 1257.59 452.315 Q1255.16 453.079 1252.38 454.63 L1252.38 449.907 Q1255.21 448.773 1257.66 448.194 Q1260.11 447.616 1262.15 447.616 Q1267.52 447.616 1270.71 450.301 Q1273.91 452.986 1273.91 457.477 Q1273.91 459.606 1273.1 461.528 Q1272.31 463.426 1270.2 466.018 Q1269.63 466.69 1266.52 469.907 Q1263.42 473.102 1257.77 478.866 Z" fill="#000000" fill-rule="evenodd" fill-opacity="1" /><path clip-path="url(#clip410)" d="M1283.91 476.921 L1288.79 476.921 L1288.79 482.801 L1283.91 482.801 L1283.91 476.921 Z" fill="#000000" fill-rule="evenodd" fill-opacity="1" /><path clip-path="url(#clip410)" d="M1308.98 451.319 Q1305.37 451.319 1303.54 454.884 Q1301.73 458.426 1301.73 465.555 Q1301.73 472.662 1303.54 476.227 Q1305.37 479.768 1308.98 479.768 Q1312.61 479.768 1314.42 476.227 Q1316.25 472.662 1316.25 465.555 Q1316.25 458.426 1314.42 454.884 Q1312.61 451.319 1308.98 451.319 M1308.98 447.616 Q1314.79 447.616 1317.84 452.222 Q1320.92 456.806 1320.92 465.555 Q1320.92 474.282 1317.84 478.889 Q1314.79 483.472 1308.98 483.472 Q1303.17 483.472 1300.09 478.889 Q1297.03 474.282 1297.03 465.555 Q1297.03 456.806 1300.09 452.222 Q1303.17 447.616 1308.98 447.616 Z" fill="#000000" fill-rule="evenodd" fill-opacity="1" /><path clip-path="url(#clip410)" d="M1357.31 457.338 L1346.73 467.963 L1357.31 478.542 L1354.56 481.342 L1343.93 470.717 L1333.31 481.342 L1330.58 478.542 L1341.13 467.963 L1330.58 457.338 L1333.31 454.537 L1343.93 465.162 L1354.56 454.537 L1357.31 457.338 Z" fill="#000000" fill-rule="evenodd" fill-opacity="1" /><path clip-path="url(#clip410)" d="M1369.67 478.866 L1377.31 478.866 L1377.31 452.5 L1369 454.167 L1369 449.907 L1377.26 448.241 L1381.94 448.241 L1381.94 478.866 L1389.58 478.866 L1389.58 482.801 L1369.67 482.801 L1369.67 478.866 Z" fill="#000000" fill-rule="evenodd" fill-opacity="1" /><path clip-path="url(#clip410)" d="M1409.02 451.319 Q1405.41 451.319 1403.58 454.884 Q1401.78 458.426 1401.78 465.555 Q1401.78 472.662 1403.58 476.227 Q1405.41 479.768 1409.02 479.768 Q1412.66 479.768 1414.46 476.227 Q1416.29 472.662 1416.29 465.555 Q1416.29 458.426 1414.46 454.884 Q1412.66 451.319 1409.02 451.319 M1409.02 447.616 Q1414.83 447.616 1417.89 452.222 Q1420.97 456.806 1420.97 465.555 Q1420.97 474.282 1417.89 478.889 Q1414.83 483.472 1409.02 483.472 Q1403.21 483.472 1400.13 478.889 Q1397.08 474.282 1397.08 465.555 Q1397.08 456.806 1400.13 452.222 Q1403.21 447.616 1409.02 447.616 Z" fill="#000000" fill-rule="evenodd" fill-opacity="1" /><path clip-path="url(#clip410)" d="M1433.64 430.621 L1424.05 445.61 L1433.64 445.61 L1433.64 430.621 M1432.65 427.31 L1437.42 427.31 L1437.42 445.61 L1441.43 445.61 L1441.43 448.77 L1437.42 448.77 L1437.42 455.39 L1433.64 455.39 L1433.64 448.77 L1420.97 448.77 L1420.97 445.103 L1432.65 427.31 Z" fill="#000000" fill-rule="evenodd" fill-opacity="1" /><path clip-path="url(#clip410)" d="M1267.91 358.446 Q1271.27 359.163 1273.14 361.432 Q1275.04 363.7 1275.04 367.034 Q1275.04 372.149 1271.52 374.95 Q1268.01 377.751 1261.52 377.751 Q1259.35 377.751 1257.03 377.312 Q1254.74 376.895 1252.29 376.038 L1252.29 371.525 Q1254.23 372.659 1256.55 373.237 Q1258.86 373.816 1261.39 373.816 Q1265.78 373.816 1268.08 372.08 Q1270.39 370.344 1270.39 367.034 Q1270.39 363.978 1268.24 362.265 Q1266.11 360.529 1262.29 360.529 L1258.26 360.529 L1258.26 356.687 L1262.47 356.687 Q1265.92 356.687 1267.75 355.321 Q1269.58 353.932 1269.58 351.339 Q1269.58 348.677 1267.68 347.265 Q1265.81 345.83 1262.29 345.83 Q1260.37 345.83 1258.17 346.247 Q1255.97 346.664 1253.33 347.543 L1253.33 343.377 Q1255.99 342.636 1258.31 342.265 Q1260.64 341.895 1262.71 341.895 Q1268.03 341.895 1271.13 344.326 Q1274.23 346.733 1274.23 350.853 Q1274.23 353.724 1272.59 355.714 Q1270.95 357.682 1267.91 358.446 Z" fill="#000000" fill-rule="evenodd" fill-opacity="1" /><path clip-path="url(#clip410)" d="M1283.91 371.2 L1288.79 371.2 L1288.79 377.08 L1283.91 377.08 L1283.91 371.2 Z" fill="#000000" fill-rule="evenodd" fill-opacity="1" /><path clip-path="url(#clip410)" d="M1308.98 345.599 Q1305.37 345.599 1303.54 349.164 Q1301.73 352.705 1301.73 359.835 Q1301.73 366.941 1303.54 370.506 Q1305.37 374.048 1308.98 374.048 Q1312.61 374.048 1314.42 370.506 Q1316.25 366.941 1316.25 359.835 Q1316.25 352.705 1314.42 349.164 Q1312.61 345.599 1308.98 345.599 M1308.98 341.895 Q1314.79 341.895 1317.84 346.501 Q1320.92 351.085 1320.92 359.835 Q1320.92 368.562 1317.84 373.168 Q1314.79 377.751 1308.98 377.751 Q1303.17 377.751 1300.09 373.168 Q1297.03 368.562 1297.03 359.835 Q1297.03 351.085 1300.09 346.501 Q1303.17 341.895 1308.98 341.895 Z" fill="#000000" fill-rule="evenodd" fill-opacity="1" /><path clip-path="url(#clip410)" d="M1357.31 351.617 L1346.73 362.242 L1357.31 372.821 L1354.56 375.622 L1343.93 364.997 L1333.31 375.622 L1330.58 372.821 L1341.13 362.242 L1330.58 351.617 L1333.31 348.816 L1343.93 359.441 L1354.56 348.816 L1357.31 351.617 Z" fill="#000000" fill-rule="evenodd" fill-opacity="1" /><path clip-path="url(#clip410)" d="M1369.67 373.145 L1377.31 373.145 L1377.31 346.779 L1369 348.446 L1369 344.187 L1377.26 342.52 L1381.94 342.52 L1381.94 373.145 L1389.58 373.145 L1389.58 377.08 L1369.67 377.08 L1369.67 373.145 Z" fill="#000000" fill-rule="evenodd" fill-opacity="1" /><path clip-path="url(#clip410)" d="M1409.02 345.599 Q1405.41 345.599 1403.58 349.164 Q1401.78 352.705 1401.78 359.835 Q1401.78 366.941 1403.58 370.506 Q1405.41 374.048 1409.02 374.048 Q1412.66 374.048 1414.46 370.506 Q1416.29 366.941 1416.29 359.835 Q1416.29 352.705 1414.46 349.164 Q1412.66 345.599 1409.02 345.599 M1409.02 341.895 Q1414.83 341.895 1417.89 346.501 Q1420.97 351.085 1420.97 359.835 Q1420.97 368.562 1417.89 373.168 Q1414.83 377.751 1409.02 377.751 Q1403.21 377.751 1400.13 373.168 Q1397.08 368.562 1397.08 359.835 Q1397.08 351.085 1400.13 346.501 Q1403.21 341.895 1409.02 341.895 Z" fill="#000000" fill-rule="evenodd" fill-opacity="1" /><path clip-path="url(#clip410)" d="M1433.64 324.9 L1424.05 339.89 L1433.64 339.89 L1433.64 324.9 M1432.65 321.59 L1437.42 321.59 L1437.42 339.89 L1441.43 339.89 L1441.43 343.049 L1437.42 343.049 L1437.42 349.67 L1433.64 349.67 L1433.64 343.049 L1420.97 343.049 L1420.97 339.382 L1432.65 321.59 Z" fill="#000000" fill-rule="evenodd" fill-opacity="1" /><path clip-path="url(#clip410)" d="M1266.59 240.873 L1254.79 259.322 L1266.59 259.322 L1266.59 240.873 M1265.37 236.799 L1271.25 236.799 L1271.25 259.322 L1276.18 259.322 L1276.18 263.211 L1271.25 263.211 L1271.25 271.359 L1266.59 271.359 L1266.59 263.211 L1250.99 263.211 L1250.99 258.697 L1265.37 236.799 Z" fill="#000000" fill-rule="evenodd" fill-opacity="1" /><path clip-path="url(#clip410)" d="M1283.91 265.48 L1288.79 265.48 L1288.79 271.359 L1283.91 271.359 L1283.91 265.48 Z" fill="#000000" fill-rule="evenodd" fill-opacity="1" /><path clip-path="url(#clip410)" d="M1308.98 239.878 Q1305.37 239.878 1303.54 243.443 Q1301.73 246.984 1301.73 254.114 Q1301.73 261.22 1303.54 264.785 Q1305.37 268.327 1308.98 268.327 Q1312.61 268.327 1314.42 264.785 Q1316.25 261.22 1316.25 254.114 Q1316.25 246.984 1314.42 243.443 Q1312.61 239.878 1308.98 239.878 M1308.98 236.174 Q1314.79 236.174 1317.84 240.781 Q1320.92 245.364 1320.92 254.114 Q1320.92 262.841 1317.84 267.447 Q1314.79 272.031 1308.98 272.031 Q1303.17 272.031 1300.09 267.447 Q1297.03 262.841 1297.03 254.114 Q1297.03 245.364 1300.09 240.781 Q1303.17 236.174 1308.98 236.174 Z" fill="#000000" fill-rule="evenodd" fill-opacity="1" /><path clip-path="url(#clip410)" d="M1357.31 245.896 L1346.73 256.521 L1357.31 267.1 L1354.56 269.901 L1343.93 259.276 L1333.31 269.901 L1330.58 267.1 L1341.13 256.521 L1330.58 245.896 L1333.31 243.096 L1343.93 253.721 L1354.56 243.096 L1357.31 245.896 Z" fill="#000000" fill-rule="evenodd" fill-opacity="1" /><path clip-path="url(#clip410)" d="M1369.67 267.424 L1377.31 267.424 L1377.31 241.059 L1369 242.725 L1369 238.466 L1377.26 236.799 L1381.94 236.799 L1381.94 267.424 L1389.58 267.424 L1389.58 271.359 L1369.67 271.359 L1369.67 267.424 Z" fill="#000000" fill-rule="evenodd" fill-opacity="1" /><path clip-path="url(#clip410)" d="M1409.02 239.878 Q1405.41 239.878 1403.58 243.443 Q1401.78 246.984 1401.78 254.114 Q1401.78 261.22 1403.58 264.785 Q1405.41 268.327 1409.02 268.327 Q1412.66 268.327 1414.46 264.785 Q1416.29 261.22 1416.29 254.114 Q1416.29 246.984 1414.46 243.443 Q1412.66 239.878 1409.02 239.878 M1409.02 236.174 Q1414.83 236.174 1417.89 240.781 Q1420.97 245.364 1420.97 254.114 Q1420.97 262.841 1417.89 267.447 Q1414.83 272.031 1409.02 272.031 Q1403.21 272.031 1400.13 267.447 Q1397.08 262.841 1397.08 254.114 Q1397.08 245.364 1400.13 240.781 Q1403.21 236.174 1409.02 236.174 Z" fill="#000000" fill-rule="evenodd" fill-opacity="1" /><path clip-path="url(#clip410)" d="M1433.64 219.179 L1424.05 234.169 L1433.64 234.169 L1433.64 219.179 M1432.65 215.869 L1437.42 215.869 L1437.42 234.169 L1441.43 234.169 L1441.43 237.329 L1437.42 237.329 L1437.42 243.949 L1433.64 243.949 L1433.64 237.329 L1420.97 237.329 L1420.97 233.661 L1432.65 215.869 Z" fill="#000000" fill-rule="evenodd" fill-opacity="1" /><path clip-path="url(#clip410)" d="M1253.79 131.079 L1272.15 131.079 L1272.15 135.014 L1258.08 135.014 L1258.08 143.486 Q1259.09 143.139 1260.11 142.977 Q1261.13 142.791 1262.15 142.791 Q1267.94 142.791 1271.32 145.963 Q1274.7 149.134 1274.7 154.551 Q1274.7 160.129 1271.22 163.231 Q1267.75 166.31 1261.43 166.31 Q1259.26 166.31 1256.99 165.94 Q1254.74 165.569 1252.33 164.828 L1252.33 160.129 Q1254.42 161.264 1256.64 161.819 Q1258.86 162.375 1261.34 162.375 Q1265.34 162.375 1267.68 160.268 Q1270.02 158.162 1270.02 154.551 Q1270.02 150.94 1267.68 148.833 Q1265.34 146.727 1261.34 146.727 Q1259.46 146.727 1257.59 147.143 Q1255.74 147.56 1253.79 148.44 L1253.79 131.079 Z" fill="#000000" fill-rule="evenodd" fill-opacity="1" /><path clip-path="url(#clip410)" d="M1283.91 159.759 L1288.79 159.759 L1288.79 165.639 L1283.91 165.639 L1283.91 159.759 Z" fill="#000000" fill-rule="evenodd" fill-opacity="1" /><path clip-path="url(#clip410)" d="M1308.98 134.157 Q1305.37 134.157 1303.54 137.722 Q1301.73 141.264 1301.73 148.393 Q1301.73 155.5 1303.54 159.065 Q1305.37 162.606 1308.98 162.606 Q1312.61 162.606 1314.42 159.065 Q1316.25 155.5 1316.25 148.393 Q1316.25 141.264 1314.42 137.722 Q1312.61 134.157 1308.98 134.157 M1308.98 130.454 Q1314.79 130.454 1317.84 135.06 Q1320.92 139.643 1320.92 148.393 Q1320.92 157.12 1317.84 161.727 Q1314.79 166.31 1308.98 166.31 Q1303.17 166.31 1300.09 161.727 Q1297.03 157.12 1297.03 148.393 Q1297.03 139.643 1300.09 135.06 Q1303.17 130.454 1308.98 130.454 Z" fill="#000000" fill-rule="evenodd" fill-opacity="1" /><path clip-path="url(#clip410)" d="M1357.31 140.176 L1346.73 150.801 L1357.31 161.379 L1354.56 164.18 L1343.93 153.555 L1333.31 164.18 L1330.58 161.379 L1341.13 150.801 L1330.58 140.176 L1333.31 137.375 L1343.93 148 L1354.56 137.375 L1357.31 140.176 Z" fill="#000000" fill-rule="evenodd" fill-opacity="1" /><path clip-path="url(#clip410)" d="M1369.67 161.703 L1377.31 161.703 L1377.31 135.338 L1369 137.004 L1369 132.745 L1377.26 131.079 L1381.94 131.079 L1381.94 161.703 L1389.58 161.703 L1389.58 165.639 L1369.67 165.639 L1369.67 161.703 Z" fill="#000000" fill-rule="evenodd" fill-opacity="1" /><path clip-path="url(#clip410)" d="M1409.02 134.157 Q1405.41 134.157 1403.58 137.722 Q1401.78 141.264 1401.78 148.393 Q1401.78 155.5 1403.58 159.065 Q1405.41 162.606 1409.02 162.606 Q1412.66 162.606 1414.46 159.065 Q1416.29 155.5 1416.29 148.393 Q1416.29 141.264 1414.46 137.722 Q1412.66 134.157 1409.02 134.157 M1409.02 130.454 Q1414.83 130.454 1417.89 135.06 Q1420.97 139.643 1420.97 148.393 Q1420.97 157.12 1417.89 161.727 Q1414.83 166.31 1409.02 166.31 Q1403.21 166.31 1400.13 161.727 Q1397.08 157.12 1397.08 148.393 Q1397.08 139.643 1400.13 135.06 Q1403.21 130.454 1409.02 130.454 Z" fill="#000000" fill-rule="evenodd" fill-opacity="1" /><path clip-path="url(#clip410)" d="M1433.64 113.458 L1424.05 128.448 L1433.64 128.448 L1433.64 113.458 M1432.65 110.148 L1437.42 110.148 L1437.42 128.448 L1441.43 128.448 L1441.43 131.608 L1437.42 131.608 L1437.42 138.228 L1433.64 138.228 L1433.64 131.608 L1420.97 131.608 L1420.97 127.94 L1432.65 110.148 Z" fill="#000000" fill-rule="evenodd" fill-opacity="1" /><path clip-path="url(#clip410)" d="M1802.92 65.7705 L1802.92 89.8329 L1795.43 89.8329 L1795.43 27.2059 L1802.92 27.2059 L1802.92 34.0924 Q1805.27 30.0415 1808.84 28.0971 Q1812.44 26.1121 1817.43 26.1121 Q1825.69 26.1121 1830.83 32.6746 Q1836.02 39.2371 1836.02 49.9314 Q1836.02 60.6258 1830.83 67.1883 Q1825.69 73.7508 1817.43 73.7508 Q1812.44 73.7508 1808.84 71.8063 Q1805.27 69.8214 1802.92 65.7705 M1828.28 49.9314 Q1828.28 41.7081 1824.88 37.0496 Q1821.52 32.3505 1815.6 32.3505 Q1809.69 32.3505 1806.29 37.0496 Q1802.92 41.7081 1802.92 49.9314 Q1802.92 58.1548 1806.29 62.8538 Q1809.69 67.5124 1815.6 67.5124 Q1821.52 67.5124 1824.88 62.8538 Q1828.28 58.1548 1828.28 49.9314 Z" fill="#000000" fill-rule="evenodd" fill-opacity="1" /><path clip-path="url(#clip410)" d="M1849.35 34.9026 L1901.28 34.9026 L1901.28 41.7081 L1849.35 41.7081 L1849.35 34.9026 M1849.35 51.4303 L1901.28 51.4303 L1901.28 58.3168 L1849.35 58.3168 L1849.35 51.4303 Z" fill="#000000" fill-rule="evenodd" fill-opacity="1" /><path clip-path="url(#clip410)" d="M1936.44 17.4837 Q1930.12 17.4837 1926.92 23.7221 Q1923.76 29.92 1923.76 42.3968 Q1923.76 54.833 1926.92 61.0714 Q1930.12 67.2693 1936.44 67.2693 Q1942.8 67.2693 1945.96 61.0714 Q1949.16 54.833 1949.16 42.3968 Q1949.16 29.92 1945.96 23.7221 Q1942.8 17.4837 1936.44 17.4837 M1936.44 11.0023 Q1946.61 11.0023 1951.96 19.0636 Q1957.34 27.0843 1957.34 42.3968 Q1957.34 57.6687 1951.96 65.73 Q1946.61 73.7508 1936.44 73.7508 Q1926.27 73.7508 1920.89 65.73 Q1915.54 57.6687 1915.54 42.3968 Q1915.54 27.0843 1920.89 19.0636 Q1926.27 11.0023 1936.44 11.0023 Z" fill="#000000" fill-rule="evenodd" fill-opacity="1" /><path clip-path="url(#clip410)" d="M1971.73 62.2867 L1980.27 62.2867 L1980.27 72.576 L1971.73 72.576 L1971.73 62.2867 Z" fill="#000000" fill-rule="evenodd" fill-opacity="1" /><path clip-path="url(#clip410)" d="M1998.18 12.096 L2030.3 12.096 L2030.3 18.9825 L2005.67 18.9825 L2005.67 33.8088 Q2007.45 33.2012 2009.24 32.9176 Q2011.02 32.5936 2012.8 32.5936 Q2022.93 32.5936 2028.84 38.1433 Q2034.76 43.6931 2034.76 53.1722 Q2034.76 62.9348 2028.68 68.3631 Q2022.6 73.7508 2011.55 73.7508 Q2007.74 73.7508 2003.77 73.1026 Q1999.84 72.4545 1995.63 71.1582 L1995.63 62.9348 Q1999.27 64.9198 2003.16 65.892 Q2007.05 66.8642 2011.38 66.8642 Q2018.39 66.8642 2022.48 63.1779 Q2026.57 59.4916 2026.57 53.1722 Q2026.57 46.8528 2022.48 43.1664 Q2018.39 39.4801 2011.38 39.4801 Q2008.1 39.4801 2004.82 40.2093 Q2001.58 40.9384 1998.18 42.4778 L1998.18 12.096 Z" fill="#000000" fill-rule="evenodd" fill-opacity="1" /><path clip-path="url(#clip413)" d="
M1525.58 144.417 L1525.58 670.515 L1915.09 670.515 L1915.09 144.417 L1525.58 144.417 L1525.58 144.417  Z
  " fill="#009af9" fill-rule="evenodd" fill-opacity="1"/>
<polyline clip-path="url(#clip413)" style="stroke:#000000; stroke-linecap:butt; stroke-linejoin:round; stroke-width:4; stroke-opacity:1; fill:none" points="
  1525.58,144.417 1525.58,670.515 1915.09,670.515 1915.09,144.417 1525.58,144.417 
  "/>
<path clip-path="url(#clip413)" d="
M1915.09 139.405 L1915.09 670.515 L2304.61 670.515 L2304.61 139.405 L1915.09 139.405 L1915.09 139.405  Z
  " fill="#009af9" fill-rule="evenodd" fill-opacity="1"/>
<polyline clip-path="url(#clip413)" style="stroke:#000000; stroke-linecap:butt; stroke-linejoin:round; stroke-width:4; stroke-opacity:1; fill:none" points="
  1915.09,139.405 1915.09,670.515 2304.61,670.515 2304.61,139.405 1915.09,139.405 
  "/>
<circle clip-path="url(#clip413)" style="fill:#009af9; stroke:none; fill-opacity:0" cx="1720.33" cy="144.417" r="2"/>
<circle clip-path="url(#clip413)" style="fill:#009af9; stroke:none; fill-opacity:0" cx="2109.85" cy="139.405" r="2"/>
<path clip-path="url(#clip410)" d="
M277.431 1486.45 L1152.76 1486.45 L1152.76 923.472 L277.431 923.472  Z
  " fill="#ffffff" fill-rule="evenodd" fill-opacity="1"/>
<defs>
  <clipPath id="clip414">
    <rect x="277" y="923" width="876" height="564"/>
  </clipPath>
</defs>
<polyline clip-path="url(#clip414)" style="stroke:#000000; stroke-linecap:butt; stroke-linejoin:round; stroke-width:2; stroke-opacity:0.1; fill:none" points="
  325.575,1486.45 325.575,923.472 
  "/>
<polyline clip-path="url(#clip414)" style="stroke:#000000; stroke-linecap:butt; stroke-linejoin:round; stroke-width:2; stroke-opacity:0.1; fill:none" points="
  715.093,1486.45 715.093,923.472 
  "/>
<polyline clip-path="url(#clip410)" style="stroke:#000000; stroke-linecap:butt; stroke-linejoin:round; stroke-width:4; stroke-opacity:1; fill:none" points="
  277.431,1486.45 1152.76,1486.45 
  "/>
<polyline clip-path="url(#clip410)" style="stroke:#000000; stroke-linecap:butt; stroke-linejoin:round; stroke-width:4; stroke-opacity:1; fill:none" points="
  325.575,1486.45 325.575,1467.55 
  "/>
<polyline clip-path="url(#clip410)" style="stroke:#000000; stroke-linecap:butt; stroke-linejoin:round; stroke-width:4; stroke-opacity:1; fill:none" points="
  715.093,1486.45 715.093,1467.55 
  "/>
<path clip-path="url(#clip410)" d="M287.497 1512.83 L287.497 1516.37 L283.423 1516.37 Q281.131 1516.37 280.228 1517.3 Q279.349 1518.22 279.349 1520.63 L279.349 1522.92 L286.363 1522.92 L286.363 1526.23 L279.349 1526.23 L279.349 1548.85 L275.066 1548.85 L275.066 1526.23 L270.992 1526.23 L270.992 1522.92 L275.066 1522.92 L275.066 1521.12 Q275.066 1516.79 277.08 1514.82 Q279.094 1512.83 283.469 1512.83 L287.497 1512.83 Z" fill="#000000" fill-rule="evenodd" fill-opacity="1" /><path clip-path="url(#clip410)" d="M302.844 1535.82 Q297.682 1535.82 295.691 1537 Q293.701 1538.18 293.701 1541.02 Q293.701 1543.29 295.182 1544.63 Q296.687 1545.95 299.256 1545.95 Q302.798 1545.95 304.927 1543.45 Q307.08 1540.93 307.08 1536.76 L307.08 1535.82 L302.844 1535.82 M311.339 1534.06 L311.339 1548.85 L307.08 1548.85 L307.08 1544.91 Q305.622 1547.27 303.446 1548.41 Q301.27 1549.52 298.122 1549.52 Q294.14 1549.52 291.779 1547.3 Q289.441 1545.05 289.441 1541.3 Q289.441 1536.93 292.358 1534.7 Q295.298 1532.48 301.108 1532.48 L307.08 1532.48 L307.08 1532.07 Q307.08 1529.13 305.136 1527.53 Q303.214 1525.91 299.719 1525.91 Q297.497 1525.91 295.39 1526.44 Q293.284 1526.97 291.339 1528.04 L291.339 1524.1 Q293.677 1523.2 295.876 1522.76 Q298.075 1522.3 300.159 1522.3 Q305.784 1522.3 308.562 1525.21 Q311.339 1528.13 311.339 1534.06 Z" fill="#000000" fill-rule="evenodd" fill-opacity="1" /><path clip-path="url(#clip410)" d="M320.112 1512.83 L324.372 1512.83 L324.372 1548.85 L320.112 1548.85 L320.112 1512.83 Z" fill="#000000" fill-rule="evenodd" fill-opacity="1" /><path clip-path="url(#clip410)" d="M349.811 1523.69 L349.811 1527.71 Q348.006 1526.79 346.061 1526.32 Q344.117 1525.86 342.034 1525.86 Q338.862 1525.86 337.265 1526.83 Q335.691 1527.81 335.691 1529.75 Q335.691 1531.23 336.825 1532.09 Q337.96 1532.92 341.385 1533.69 L342.844 1534.01 Q347.381 1534.98 349.279 1536.76 Q351.2 1538.52 351.2 1541.7 Q351.2 1545.31 348.33 1547.41 Q345.483 1549.52 340.483 1549.52 Q338.399 1549.52 336.131 1549.1 Q333.885 1548.71 331.386 1547.9 L331.386 1543.5 Q333.747 1544.73 336.038 1545.35 Q338.33 1545.95 340.575 1545.95 Q343.585 1545.95 345.205 1544.94 Q346.825 1543.89 346.825 1542.02 Q346.825 1540.28 345.645 1539.36 Q344.487 1538.43 340.529 1537.57 L339.048 1537.23 Q335.089 1536.39 333.33 1534.68 Q331.571 1532.95 331.571 1529.94 Q331.571 1526.28 334.163 1524.29 Q336.756 1522.3 341.524 1522.3 Q343.885 1522.3 345.969 1522.64 Q348.052 1522.99 349.811 1523.69 Z" fill="#000000" fill-rule="evenodd" fill-opacity="1" /><path clip-path="url(#clip410)" d="M380.158 1534.82 L380.158 1536.9 L360.575 1536.9 Q360.853 1541.3 363.214 1543.62 Q365.598 1545.91 369.834 1545.91 Q372.288 1545.91 374.58 1545.31 Q376.895 1544.7 379.163 1543.5 L379.163 1547.53 Q376.871 1548.5 374.464 1549.01 Q372.057 1549.52 369.58 1549.52 Q363.376 1549.52 359.742 1545.91 Q356.131 1542.3 356.131 1536.14 Q356.131 1529.77 359.557 1526.05 Q363.006 1522.3 368.839 1522.3 Q374.07 1522.3 377.103 1525.68 Q380.158 1529.03 380.158 1534.82 M375.899 1533.57 Q375.853 1530.07 373.932 1527.99 Q372.033 1525.91 368.885 1525.91 Q365.321 1525.91 363.168 1527.92 Q361.038 1529.94 360.714 1533.59 L375.899 1533.57 Z" fill="#000000" fill-rule="evenodd" fill-opacity="1" /><path clip-path="url(#clip410)" d="M675.753 1515.56 L675.753 1522.92 L684.526 1522.92 L684.526 1526.23 L675.753 1526.23 L675.753 1540.31 Q675.753 1543.48 676.61 1544.38 Q677.489 1545.28 680.151 1545.28 L684.526 1545.28 L684.526 1548.85 L680.151 1548.85 Q675.221 1548.85 673.346 1547.02 Q671.471 1545.17 671.471 1540.31 L671.471 1526.23 L668.346 1526.23 L668.346 1522.92 L671.471 1522.92 L671.471 1515.56 L675.753 1515.56 Z" fill="#000000" fill-rule="evenodd" fill-opacity="1" /><path clip-path="url(#clip410)" d="M705.151 1526.9 Q704.434 1526.49 703.577 1526.3 Q702.744 1526.09 701.725 1526.09 Q698.114 1526.09 696.17 1528.45 Q694.249 1530.79 694.249 1535.19 L694.249 1548.85 L689.966 1548.85 L689.966 1522.92 L694.249 1522.92 L694.249 1526.95 Q695.591 1524.59 697.744 1523.45 Q699.897 1522.3 702.975 1522.3 Q703.415 1522.3 703.948 1522.37 Q704.48 1522.41 705.128 1522.53 L705.151 1526.9 Z" fill="#000000" fill-rule="evenodd" fill-opacity="1" /><path clip-path="url(#clip410)" d="M709.179 1538.62 L709.179 1522.92 L713.438 1522.92 L713.438 1538.45 Q713.438 1542.13 714.874 1543.99 Q716.309 1545.82 719.179 1545.82 Q722.628 1545.82 724.619 1543.62 Q726.633 1541.42 726.633 1537.62 L726.633 1522.92 L730.892 1522.92 L730.892 1548.85 L726.633 1548.85 L726.633 1544.87 Q725.082 1547.23 723.022 1548.38 Q720.985 1549.52 718.276 1549.52 Q713.809 1549.52 711.494 1546.74 Q709.179 1543.96 709.179 1538.62 M719.897 1522.3 L719.897 1522.3 Z" fill="#000000" fill-rule="evenodd" fill-opacity="1" /><path clip-path="url(#clip410)" d="M761.841 1534.82 L761.841 1536.9 L742.258 1536.9 Q742.535 1541.3 744.896 1543.62 Q747.281 1545.91 751.517 1545.91 Q753.971 1545.91 756.262 1545.31 Q758.577 1544.7 760.845 1543.5 L760.845 1547.53 Q758.554 1548.5 756.146 1549.01 Q753.739 1549.52 751.262 1549.52 Q745.059 1549.52 741.424 1545.91 Q737.813 1542.3 737.813 1536.14 Q737.813 1529.77 741.239 1526.05 Q744.688 1522.3 750.521 1522.3 Q755.753 1522.3 758.785 1525.68 Q761.841 1529.03 761.841 1534.82 M757.582 1533.57 Q757.535 1530.07 755.614 1527.99 Q753.716 1525.91 750.568 1525.91 Q747.003 1525.91 744.85 1527.92 Q742.721 1529.94 742.397 1533.59 L757.582 1533.57 Z" fill="#000000" fill-rule="evenodd" fill-opacity="1" /><polyline clip-path="url(#clip414)" style="stroke:#000000; stroke-linecap:butt; stroke-linejoin:round; stroke-width:2; stroke-opacity:0.1; fill:none" points="
  277.431,1470.51 1152.76,1470.51 
  "/>
<polyline clip-path="url(#clip414)" style="stroke:#000000; stroke-linecap:butt; stroke-linejoin:round; stroke-width:2; stroke-opacity:0.1; fill:none" points="
  277.431,1352.42 1152.76,1352.42 
  "/>
<polyline clip-path="url(#clip414)" style="stroke:#000000; stroke-linecap:butt; stroke-linejoin:round; stroke-width:2; stroke-opacity:0.1; fill:none" points="
  277.431,1234.33 1152.76,1234.33 
  "/>
<polyline clip-path="url(#clip414)" style="stroke:#000000; stroke-linecap:butt; stroke-linejoin:round; stroke-width:2; stroke-opacity:0.1; fill:none" points="
  277.431,1116.24 1152.76,1116.24 
  "/>
<polyline clip-path="url(#clip414)" style="stroke:#000000; stroke-linecap:butt; stroke-linejoin:round; stroke-width:2; stroke-opacity:0.1; fill:none" points="
  277.431,998.15 1152.76,998.15 
  "/>
<polyline clip-path="url(#clip410)" style="stroke:#000000; stroke-linecap:butt; stroke-linejoin:round; stroke-width:4; stroke-opacity:1; fill:none" points="
  277.431,1486.45 277.431,923.472 
  "/>
<polyline clip-path="url(#clip410)" style="stroke:#000000; stroke-linecap:butt; stroke-linejoin:round; stroke-width:4; stroke-opacity:1; fill:none" points="
  277.431,1470.51 296.329,1470.51 
  "/>
<polyline clip-path="url(#clip410)" style="stroke:#000000; stroke-linecap:butt; stroke-linejoin:round; stroke-width:4; stroke-opacity:1; fill:none" points="
  277.431,1352.42 296.329,1352.42 
  "/>
<polyline clip-path="url(#clip410)" style="stroke:#000000; stroke-linecap:butt; stroke-linejoin:round; stroke-width:4; stroke-opacity:1; fill:none" points="
  277.431,1234.33 296.329,1234.33 
  "/>
<polyline clip-path="url(#clip410)" style="stroke:#000000; stroke-linecap:butt; stroke-linejoin:round; stroke-width:4; stroke-opacity:1; fill:none" points="
  277.431,1116.24 296.329,1116.24 
  "/>
<polyline clip-path="url(#clip410)" style="stroke:#000000; stroke-linecap:butt; stroke-linejoin:round; stroke-width:4; stroke-opacity:1; fill:none" points="
  277.431,998.15 296.329,998.15 
  "/>
<path clip-path="url(#clip410)" d="M229.487 1456.31 Q225.875 1456.31 224.047 1459.88 Q222.241 1463.42 222.241 1470.55 Q222.241 1477.66 224.047 1481.22 Q225.875 1484.76 229.487 1484.76 Q233.121 1484.76 234.926 1481.22 Q236.755 1477.66 236.755 1470.55 Q236.755 1463.42 234.926 1459.88 Q233.121 1456.31 229.487 1456.31 M229.487 1452.61 Q235.297 1452.61 238.352 1457.22 Q241.431 1461.8 241.431 1470.55 Q241.431 1479.28 238.352 1483.88 Q235.297 1488.47 229.487 1488.47 Q223.676 1488.47 220.598 1483.88 Q217.542 1479.28 217.542 1470.55 Q217.542 1461.8 220.598 1457.22 Q223.676 1452.61 229.487 1452.61 Z" fill="#000000" fill-rule="evenodd" fill-opacity="1" /><path clip-path="url(#clip410)" d="M57.7745 1372.22 L74.0939 1372.22 L74.0939 1376.15 L52.1495 1376.15 L52.1495 1372.22 Q54.8115 1369.46 59.3949 1364.83 Q64.0013 1360.18 65.1819 1358.84 Q67.4272 1356.31 68.3068 1354.58 Q69.2096 1352.82 69.2096 1351.13 Q69.2096 1348.37 67.2652 1346.64 Q65.3439 1344.9 62.2421 1344.9 Q60.043 1344.9 57.5893 1345.67 Q55.1588 1346.43 52.381 1347.98 L52.381 1343.26 Q55.2051 1342.12 57.6588 1341.54 Q60.1124 1340.97 62.1495 1340.97 Q67.5198 1340.97 70.7142 1343.65 Q73.9087 1346.34 73.9087 1350.83 Q73.9087 1352.96 73.0985 1354.88 Q72.3115 1356.78 70.205 1359.37 Q69.6263 1360.04 66.5245 1363.26 Q63.4226 1366.45 57.7745 1372.22 Z" fill="#000000" fill-rule="evenodd" fill-opacity="1" /><path clip-path="url(#clip410)" d="M83.9086 1370.27 L88.7928 1370.27 L88.7928 1376.15 L83.9086 1376.15 L83.9086 1370.27 Z" fill="#000000" fill-rule="evenodd" fill-opacity="1" /><path clip-path="url(#clip410)" d="M108.978 1344.67 Q105.367 1344.67 103.538 1348.23 Q101.733 1351.78 101.733 1358.91 Q101.733 1366.01 103.538 1369.58 Q105.367 1373.12 108.978 1373.12 Q112.612 1373.12 114.418 1369.58 Q116.246 1366.01 116.246 1358.91 Q116.246 1351.78 114.418 1348.23 Q112.612 1344.67 108.978 1344.67 M108.978 1340.97 Q114.788 1340.97 117.844 1345.57 Q120.922 1350.16 120.922 1358.91 Q120.922 1367.63 117.844 1372.24 Q114.788 1376.82 108.978 1376.82 Q103.168 1376.82 100.089 1372.24 Q97.0335 1367.63 97.0335 1358.91 Q97.0335 1350.16 100.089 1345.57 Q103.168 1340.97 108.978 1340.97 Z" fill="#000000" fill-rule="evenodd" fill-opacity="1" /><path clip-path="url(#clip410)" d="M157.311 1350.69 L146.732 1361.31 L157.311 1371.89 L154.556 1374.69 L143.931 1364.07 L133.306 1374.69 L130.575 1371.89 L141.131 1361.31 L130.575 1350.69 L133.306 1347.89 L143.931 1358.51 L154.556 1347.89 L157.311 1350.69 Z" fill="#000000" fill-rule="evenodd" fill-opacity="1" /><path clip-path="url(#clip410)" d="M169.672 1372.22 L177.311 1372.22 L177.311 1345.85 L169.001 1347.52 L169.001 1343.26 L177.265 1341.59 L181.94 1341.59 L181.94 1372.22 L189.579 1372.22 L189.579 1376.15 L169.672 1376.15 L169.672 1372.22 Z" fill="#000000" fill-rule="evenodd" fill-opacity="1" /><path clip-path="url(#clip410)" d="M209.024 1344.67 Q205.413 1344.67 203.584 1348.23 Q201.778 1351.78 201.778 1358.91 Q201.778 1366.01 203.584 1369.58 Q205.413 1373.12 209.024 1373.12 Q212.658 1373.12 214.463 1369.58 Q216.292 1366.01 216.292 1358.91 Q216.292 1351.78 214.463 1348.23 Q212.658 1344.67 209.024 1344.67 M209.024 1340.97 Q214.834 1340.97 217.889 1345.57 Q220.968 1350.16 220.968 1358.91 Q220.968 1367.63 217.889 1372.24 Q214.834 1376.82 209.024 1376.82 Q203.214 1376.82 200.135 1372.24 Q197.079 1367.63 197.079 1358.91 Q197.079 1350.16 200.135 1345.57 Q203.214 1340.97 209.024 1340.97 Z" fill="#000000" fill-rule="evenodd" fill-opacity="1" /><path clip-path="url(#clip410)" d="M233.645 1323.97 L224.053 1338.96 L233.645 1338.96 L233.645 1323.97 M232.648 1320.66 L237.425 1320.66 L237.425 1338.96 L241.431 1338.96 L241.431 1342.12 L237.425 1342.12 L237.425 1348.74 L233.645 1348.74 L233.645 1342.12 L220.968 1342.12 L220.968 1338.45 L232.648 1320.66 Z" fill="#000000" fill-rule="evenodd" fill-opacity="1" /><path clip-path="url(#clip410)" d="M66.5939 1227.57 L54.7884 1246.02 L66.5939 1246.02 L66.5939 1227.57 M65.367 1223.5 L71.2466 1223.5 L71.2466 1246.02 L76.1772 1246.02 L76.1772 1249.91 L71.2466 1249.91 L71.2466 1258.06 L66.5939 1258.06 L66.5939 1249.91 L50.9921 1249.91 L50.9921 1245.4 L65.367 1223.5 Z" fill="#000000" fill-rule="evenodd" fill-opacity="1" /><path clip-path="url(#clip410)" d="M83.9086 1252.18 L88.7928 1252.18 L88.7928 1258.06 L83.9086 1258.06 L83.9086 1252.18 Z" fill="#000000" fill-rule="evenodd" fill-opacity="1" /><path clip-path="url(#clip410)" d="M108.978 1226.58 Q105.367 1226.58 103.538 1230.14 Q101.733 1233.68 101.733 1240.81 Q101.733 1247.92 103.538 1251.49 Q105.367 1255.03 108.978 1255.03 Q112.612 1255.03 114.418 1251.49 Q116.246 1247.92 116.246 1240.81 Q116.246 1233.68 114.418 1230.14 Q112.612 1226.58 108.978 1226.58 M108.978 1222.87 Q114.788 1222.87 117.844 1227.48 Q120.922 1232.06 120.922 1240.81 Q120.922 1249.54 117.844 1254.15 Q114.788 1258.73 108.978 1258.73 Q103.168 1258.73 100.089 1254.15 Q97.0335 1249.54 97.0335 1240.81 Q97.0335 1232.06 100.089 1227.48 Q103.168 1222.87 108.978 1222.87 Z" fill="#000000" fill-rule="evenodd" fill-opacity="1" /><path clip-path="url(#clip410)" d="M157.311 1232.6 L146.732 1243.22 L157.311 1253.8 L154.556 1256.6 L143.931 1245.98 L133.306 1256.6 L130.575 1253.8 L141.131 1243.22 L130.575 1232.6 L133.306 1229.8 L143.931 1240.42 L154.556 1229.8 L157.311 1232.6 Z" fill="#000000" fill-rule="evenodd" fill-opacity="1" /><path clip-path="url(#clip410)" d="M169.672 1254.12 L177.311 1254.12 L177.311 1227.76 L169.001 1229.43 L169.001 1225.17 L177.265 1223.5 L181.94 1223.5 L181.94 1254.12 L189.579 1254.12 L189.579 1258.06 L169.672 1258.06 L169.672 1254.12 Z" fill="#000000" fill-rule="evenodd" fill-opacity="1" /><path clip-path="url(#clip410)" d="M209.024 1226.58 Q205.413 1226.58 203.584 1230.14 Q201.778 1233.68 201.778 1240.81 Q201.778 1247.92 203.584 1251.49 Q205.413 1255.03 209.024 1255.03 Q212.658 1255.03 214.463 1251.49 Q216.292 1247.92 216.292 1240.81 Q216.292 1233.68 214.463 1230.14 Q212.658 1226.58 209.024 1226.58 M209.024 1222.87 Q214.834 1222.87 217.889 1227.48 Q220.968 1232.06 220.968 1240.81 Q220.968 1249.54 217.889 1254.15 Q214.834 1258.73 209.024 1258.73 Q203.214 1258.73 200.135 1254.15 Q197.079 1249.54 197.079 1240.81 Q197.079 1232.06 200.135 1227.48 Q203.214 1222.87 209.024 1222.87 Z" fill="#000000" fill-rule="evenodd" fill-opacity="1" /><path clip-path="url(#clip410)" d="M233.645 1205.88 L224.053 1220.87 L233.645 1220.87 L233.645 1205.88 M232.648 1202.57 L237.425 1202.57 L237.425 1220.87 L241.431 1220.87 L241.431 1224.03 L237.425 1224.03 L237.425 1230.65 L233.645 1230.65 L233.645 1224.03 L220.968 1224.03 L220.968 1220.36 L232.648 1202.57 Z" fill="#000000" fill-rule="evenodd" fill-opacity="1" /><path clip-path="url(#clip410)" d="M64.3254 1120.83 Q61.1773 1120.83 59.3254 1122.98 Q57.4967 1125.13 57.4967 1128.88 Q57.4967 1132.61 59.3254 1134.78 Q61.1773 1136.94 64.3254 1136.94 Q67.4735 1136.94 69.3022 1134.78 Q71.1541 1132.61 71.1541 1128.88 Q71.1541 1125.13 69.3022 1122.98 Q67.4735 1120.83 64.3254 1120.83 M73.6077 1106.17 L73.6077 1110.43 Q71.8485 1109.6 70.0429 1109.16 Q68.2606 1108.72 66.5013 1108.72 Q61.8717 1108.72 59.418 1111.84 Q56.9875 1114.97 56.6402 1121.29 Q58.006 1119.27 60.0662 1118.21 Q62.1263 1117.12 64.6032 1117.12 Q69.8115 1117.12 72.8207 1120.29 Q75.8531 1123.44 75.8531 1128.88 Q75.8531 1134.2 72.705 1137.42 Q69.5568 1140.64 64.3254 1140.64 Q58.33 1140.64 55.1588 1136.06 Q51.9875 1131.45 51.9875 1122.72 Q51.9875 1114.53 55.8764 1109.67 Q59.7652 1104.78 66.3161 1104.78 Q68.0754 1104.78 69.8578 1105.13 Q71.6633 1105.48 73.6077 1106.17 Z" fill="#000000" fill-rule="evenodd" fill-opacity="1" /><path clip-path="url(#clip410)" d="M83.9086 1134.09 L88.7928 1134.09 L88.7928 1139.97 L83.9086 1139.97 L83.9086 1134.09 Z" fill="#000000" fill-rule="evenodd" fill-opacity="1" /><path clip-path="url(#clip410)" d="M108.978 1108.49 Q105.367 1108.49 103.538 1112.05 Q101.733 1115.59 101.733 1122.72 Q101.733 1129.83 103.538 1133.39 Q105.367 1136.94 108.978 1136.94 Q112.612 1136.94 114.418 1133.39 Q116.246 1129.83 116.246 1122.72 Q116.246 1115.59 114.418 1112.05 Q112.612 1108.49 108.978 1108.49 M108.978 1104.78 Q114.788 1104.78 117.844 1109.39 Q120.922 1113.97 120.922 1122.72 Q120.922 1131.45 117.844 1136.06 Q114.788 1140.64 108.978 1140.64 Q103.168 1140.64 100.089 1136.06 Q97.0335 1131.45 97.0335 1122.72 Q97.0335 1113.97 100.089 1109.39 Q103.168 1104.78 108.978 1104.78 Z" fill="#000000" fill-rule="evenodd" fill-opacity="1" /><path clip-path="url(#clip410)" d="M157.311 1114.51 L146.732 1125.13 L157.311 1135.71 L154.556 1138.51 L143.931 1127.89 L133.306 1138.51 L130.575 1135.71 L141.131 1125.13 L130.575 1114.51 L133.306 1111.7 L143.931 1122.33 L154.556 1111.7 L157.311 1114.51 Z" fill="#000000" fill-rule="evenodd" fill-opacity="1" /><path clip-path="url(#clip410)" d="M169.672 1136.03 L177.311 1136.03 L177.311 1109.67 L169.001 1111.33 L169.001 1107.08 L177.265 1105.41 L181.94 1105.41 L181.94 1136.03 L189.579 1136.03 L189.579 1139.97 L169.672 1139.97 L169.672 1136.03 Z" fill="#000000" fill-rule="evenodd" fill-opacity="1" /><path clip-path="url(#clip410)" d="M209.024 1108.49 Q205.413 1108.49 203.584 1112.05 Q201.778 1115.59 201.778 1122.72 Q201.778 1129.83 203.584 1133.39 Q205.413 1136.94 209.024 1136.94 Q212.658 1136.94 214.463 1133.39 Q216.292 1129.83 216.292 1122.72 Q216.292 1115.59 214.463 1112.05 Q212.658 1108.49 209.024 1108.49 M209.024 1104.78 Q214.834 1104.78 217.889 1109.39 Q220.968 1113.97 220.968 1122.72 Q220.968 1131.45 217.889 1136.06 Q214.834 1140.64 209.024 1140.64 Q203.214 1140.64 200.135 1136.06 Q197.079 1131.45 197.079 1122.72 Q197.079 1113.97 200.135 1109.39 Q203.214 1104.78 209.024 1104.78 Z" fill="#000000" fill-rule="evenodd" fill-opacity="1" /><path clip-path="url(#clip410)" d="M233.645 1087.79 L224.053 1102.78 L233.645 1102.78 L233.645 1087.79 M232.648 1084.48 L237.425 1084.48 L237.425 1102.78 L241.431 1102.78 L241.431 1105.94 L237.425 1105.94 L237.425 1112.56 L233.645 1112.56 L233.645 1105.94 L220.968 1105.94 L220.968 1102.27 L232.648 1084.48 Z" fill="#000000" fill-rule="evenodd" fill-opacity="1" /><path clip-path="url(#clip410)" d="M63.7467 1005.47 Q60.4134 1005.47 58.4921 1007.25 Q56.5939 1009.03 56.5939 1012.16 Q56.5939 1015.28 58.4921 1017.06 Q60.4134 1018.85 63.7467 1018.85 Q67.08 1018.85 69.0013 1017.06 Q70.9226 1015.26 70.9226 1012.16 Q70.9226 1009.03 69.0013 1007.25 Q67.1032 1005.47 63.7467 1005.47 M59.0708 1003.47 Q56.0615 1002.73 54.3717 1000.67 Q52.7051 998.614 52.7051 995.651 Q52.7051 991.507 55.6449 989.1 Q58.6078 986.692 63.7467 986.692 Q68.9087 986.692 71.8485 989.1 Q74.7883 991.507 74.7883 995.651 Q74.7883 998.614 73.0985 1000.67 Q71.4318 1002.73 68.4457 1003.47 Q71.8253 1004.26 73.7003 1006.55 Q75.5985 1008.85 75.5985 1012.16 Q75.5985 1017.18 72.5198 1019.86 Q69.4642 1022.55 63.7467 1022.55 Q58.0291 1022.55 54.9504 1019.86 Q51.8949 1017.18 51.8949 1012.16 Q51.8949 1008.85 53.793 1006.55 Q55.6912 1004.26 59.0708 1003.47 M57.3578 996.091 Q57.3578 998.776 59.0245 1000.28 Q60.7143 1001.78 63.7467 1001.78 Q66.7559 1001.78 68.4457 1000.28 Q70.1587 998.776 70.1587 996.091 Q70.1587 993.405 68.4457 991.901 Q66.7559 990.396 63.7467 990.396 Q60.7143 990.396 59.0245 991.901 Q57.3578 993.405 57.3578 996.091 Z" fill="#000000" fill-rule="evenodd" fill-opacity="1" /><path clip-path="url(#clip410)" d="M83.9086 1016 L88.7928 1016 L88.7928 1021.88 L83.9086 1021.88 L83.9086 1016 Z" fill="#000000" fill-rule="evenodd" fill-opacity="1" /><path clip-path="url(#clip410)" d="M108.978 990.396 Q105.367 990.396 103.538 993.961 Q101.733 997.503 101.733 1004.63 Q101.733 1011.74 103.538 1015.3 Q105.367 1018.85 108.978 1018.85 Q112.612 1018.85 114.418 1015.3 Q116.246 1011.74 116.246 1004.63 Q116.246 997.503 114.418 993.961 Q112.612 990.396 108.978 990.396 M108.978 986.692 Q114.788 986.692 117.844 991.299 Q120.922 995.882 120.922 1004.63 Q120.922 1013.36 117.844 1017.97 Q114.788 1022.55 108.978 1022.55 Q103.168 1022.55 100.089 1017.97 Q97.0335 1013.36 97.0335 1004.63 Q97.0335 995.882 100.089 991.299 Q103.168 986.692 108.978 986.692 Z" fill="#000000" fill-rule="evenodd" fill-opacity="1" /><path clip-path="url(#clip410)" d="M157.311 996.415 L146.732 1007.04 L157.311 1017.62 L154.556 1020.42 L143.931 1009.79 L133.306 1020.42 L130.575 1017.62 L141.131 1007.04 L130.575 996.415 L133.306 993.614 L143.931 1004.24 L154.556 993.614 L157.311 996.415 Z" fill="#000000" fill-rule="evenodd" fill-opacity="1" /><path clip-path="url(#clip410)" d="M169.672 1017.94 L177.311 1017.94 L177.311 991.577 L169.001 993.243 L169.001 988.984 L177.265 987.317 L181.94 987.317 L181.94 1017.94 L189.579 1017.94 L189.579 1021.88 L169.672 1021.88 L169.672 1017.94 Z" fill="#000000" fill-rule="evenodd" fill-opacity="1" /><path clip-path="url(#clip410)" d="M209.024 990.396 Q205.413 990.396 203.584 993.961 Q201.778 997.503 201.778 1004.63 Q201.778 1011.74 203.584 1015.3 Q205.413 1018.85 209.024 1018.85 Q212.658 1018.85 214.463 1015.3 Q216.292 1011.74 216.292 1004.63 Q216.292 997.503 214.463 993.961 Q212.658 990.396 209.024 990.396 M209.024 986.692 Q214.834 986.692 217.889 991.299 Q220.968 995.882 220.968 1004.63 Q220.968 1013.36 217.889 1017.97 Q214.834 1022.55 209.024 1022.55 Q203.214 1022.55 200.135 1017.97 Q197.079 1013.36 197.079 1004.63 Q197.079 995.882 200.135 991.299 Q203.214 986.692 209.024 986.692 Z" fill="#000000" fill-rule="evenodd" fill-opacity="1" /><path clip-path="url(#clip410)" d="M233.645 969.697 L224.053 984.687 L233.645 984.687 L233.645 969.697 M232.648 966.387 L237.425 966.387 L237.425 984.687 L241.431 984.687 L241.431 987.847 L237.425 987.847 L237.425 994.467 L233.645 994.467 L233.645 987.847 L220.968 987.847 L220.968 984.179 L232.648 966.387 Z" fill="#000000" fill-rule="evenodd" fill-opacity="1" /><path clip-path="url(#clip410)" d="M602.215 865.77 L602.215 889.833 L594.721 889.833 L594.721 827.206 L602.215 827.206 L602.215 834.092 Q604.564 830.042 608.129 828.097 Q611.735 826.112 616.717 826.112 Q624.981 826.112 630.126 832.675 Q635.311 839.237 635.311 849.931 Q635.311 860.626 630.126 867.188 Q624.981 873.751 616.717 873.751 Q611.735 873.751 608.129 871.806 Q604.564 869.821 602.215 865.77 M627.574 849.931 Q627.574 841.708 624.171 837.05 Q620.809 832.351 614.894 832.351 Q608.98 832.351 605.577 837.05 Q602.215 841.708 602.215 849.931 Q602.215 858.155 605.577 862.854 Q608.98 867.512 614.894 867.512 Q620.809 867.512 624.171 862.854 Q627.574 858.155 627.574 849.931 Z" fill="#000000" fill-rule="evenodd" fill-opacity="1" /><path clip-path="url(#clip410)" d="M648.638 834.903 L700.571 834.903 L700.571 841.708 L648.638 841.708 L648.638 834.903 M648.638 851.43 L700.571 851.43 L700.571 858.317 L648.638 858.317 L648.638 851.43 Z" fill="#000000" fill-rule="evenodd" fill-opacity="1" /><path clip-path="url(#clip410)" d="M735.733 817.484 Q729.413 817.484 726.213 823.722 Q723.053 829.92 723.053 842.397 Q723.053 854.833 726.213 861.071 Q729.413 867.269 735.733 867.269 Q742.093 867.269 745.252 861.071 Q748.453 854.833 748.453 842.397 Q748.453 829.92 745.252 823.722 Q742.093 817.484 735.733 817.484 M735.733 811.002 Q745.901 811.002 751.248 819.064 Q756.635 827.084 756.635 842.397 Q756.635 857.669 751.248 865.73 Q745.901 873.751 735.733 873.751 Q725.565 873.751 720.177 865.73 Q714.83 857.669 714.83 842.397 Q714.83 827.084 720.177 819.064 Q725.565 811.002 735.733 811.002 Z" fill="#000000" fill-rule="evenodd" fill-opacity="1" /><path clip-path="url(#clip410)" d="M771.016 862.287 L779.564 862.287 L779.564 872.576 L771.016 872.576 L771.016 862.287 Z" fill="#000000" fill-rule="evenodd" fill-opacity="1" /><path clip-path="url(#clip410)" d="M797.631 871.32 L797.631 863.867 Q800.709 865.325 803.869 866.095 Q807.029 866.864 810.067 866.864 Q818.169 866.864 822.422 861.436 Q826.716 855.967 827.324 844.868 Q824.974 848.352 821.369 850.215 Q817.764 852.078 813.389 852.078 Q804.315 852.078 799.008 846.61 Q793.742 841.1 793.742 831.581 Q793.742 822.264 799.251 816.633 Q804.76 811.002 813.915 811.002 Q824.407 811.002 829.916 819.064 Q835.466 827.084 835.466 842.397 Q835.466 856.696 828.661 865.244 Q821.896 873.751 810.431 873.751 Q807.353 873.751 804.193 873.143 Q801.033 872.535 797.631 871.32 M813.915 845.678 Q819.424 845.678 822.625 841.911 Q825.865 838.143 825.865 831.581 Q825.865 825.059 822.625 821.292 Q819.424 817.484 813.915 817.484 Q808.406 817.484 805.165 821.292 Q801.965 825.059 801.965 831.581 Q801.965 838.143 805.165 841.911 Q808.406 845.678 813.915 845.678 Z" fill="#000000" fill-rule="evenodd" fill-opacity="1" /><path clip-path="url(#clip414)" d="
M325.575 1411.17 L325.575 1470.51 L715.093 1470.51 L715.093 1411.17 L325.575 1411.17 L325.575 1411.17  Z
  " fill="#009af9" fill-rule="evenodd" fill-opacity="1"/>
<polyline clip-path="url(#clip414)" style="stroke:#000000; stroke-linecap:butt; stroke-linejoin:round; stroke-width:4; stroke-opacity:1; fill:none" points="
  325.575,1411.17 325.575,1470.51 715.093,1470.51 715.093,1411.17 325.575,1411.17 
  "/>
<path clip-path="url(#clip414)" d="
M715.093 939.405 L715.093 1470.51 L1104.61 1470.51 L1104.61 939.405 L715.093 939.405 L715.093 939.405  Z
  " fill="#009af9" fill-rule="evenodd" fill-opacity="1"/>
<polyline clip-path="url(#clip414)" style="stroke:#000000; stroke-linecap:butt; stroke-linejoin:round; stroke-width:4; stroke-opacity:1; fill:none" points="
  715.093,939.405 715.093,1470.51 1104.61,1470.51 1104.61,939.405 715.093,939.405 
  "/>
<circle clip-path="url(#clip414)" style="fill:#009af9; stroke:none; fill-opacity:0" cx="520.334" cy="1411.17" r="2"/>
<circle clip-path="url(#clip414)" style="fill:#009af9; stroke:none; fill-opacity:0" cx="909.852" cy="939.405" r="2"/>
</svg>
