<?xml version="1.0" encoding="utf-8"?>
<svg xmlns="http://www.w3.org/2000/svg" xmlns:xlink="http://www.w3.org/1999/xlink" width="600" height="400" viewBox="0 0 2400 1600">
<defs>
  <clipPath id="clip490">
    <rect x="0" y="0" width="2400" height="1600"/>
  </clipPath>
</defs>
<path clip-path="url(#clip490)" d="
M0 1600 L2400 1600 L2400 0 L0 0  Z
  " fill="#ffffff" fill-rule="evenodd" fill-opacity="1"/>
<defs>
  <clipPath id="clip491">
    <rect x="480" y="0" width="1681" height="1600"/>
  </clipPath>
</defs>
<path clip-path="url(#clip490)" d="
M277.431 686.448 L1152.76 686.448 L1152.76 123.472 L277.431 123.472  Z
  " fill="#ffffff" fill-rule="evenodd" fill-opacity="1"/>
<defs>
  <clipPath id="clip492">
    <rect x="277" y="123" width="876" height="564"/>
  </clipPath>
</defs>
<polyline clip-path="url(#clip492)" style="stroke:#000000; stroke-linecap:butt; stroke-linejoin:round; stroke-width:2; stroke-opacity:0.1; fill:none" points="
  325.575,686.448 325.575,123.472 
  "/>
<polyline clip-path="url(#clip492)" style="stroke:#000000; stroke-linecap:butt; stroke-linejoin:round; stroke-width:2; stroke-opacity:0.1; fill:none" points="
  715.093,686.448 715.093,123.472 
  "/>
<polyline clip-path="url(#clip490)" style="stroke:#000000; stroke-linecap:butt; stroke-linejoin:round; stroke-width:4; stroke-opacity:1; fill:none" points="
  277.431,686.448 1152.76,686.448 
  "/>
<polyline clip-path="url(#clip490)" style="stroke:#000000; stroke-linecap:butt; stroke-linejoin:round; stroke-width:4; stroke-opacity:1; fill:none" points="
  325.575,686.448 325.575,667.55 
  "/>
<polyline clip-path="url(#clip490)" style="stroke:#000000; stroke-linecap:butt; stroke-linejoin:round; stroke-width:4; stroke-opacity:1; fill:none" points="
  715.093,686.448 715.093,667.55 
  "/>
<path clip-path="url(#clip490)" d="M287.497 712.83 L287.497 716.371 L283.423 716.371 Q281.131 716.371 280.228 717.297 Q279.349 718.223 279.349 720.63 L279.349 722.922 L286.363 722.922 L286.363 726.232 L279.349 726.232 L279.349 748.848 L275.066 748.848 L275.066 726.232 L270.992 726.232 L270.992 722.922 L275.066 722.922 L275.066 721.117 Q275.066 716.788 277.08 714.82 Q279.094 712.83 283.469 712.83 L287.497 712.83 Z" fill="#000000" fill-rule="evenodd" fill-opacity="1" /><path clip-path="url(#clip490)" d="M302.844 735.816 Q297.682 735.816 295.691 736.996 Q293.701 738.177 293.701 741.024 Q293.701 743.292 295.182 744.635 Q296.687 745.954 299.256 745.954 Q302.798 745.954 304.927 743.454 Q307.08 740.931 307.08 736.765 L307.08 735.816 L302.844 735.816 M311.339 734.056 L311.339 748.848 L307.08 748.848 L307.08 744.913 Q305.622 747.274 303.446 748.408 Q301.27 749.519 298.122 749.519 Q294.14 749.519 291.779 747.297 Q289.441 745.052 289.441 741.302 Q289.441 736.927 292.358 734.704 Q295.298 732.482 301.108 732.482 L307.08 732.482 L307.08 732.066 Q307.08 729.126 305.136 727.529 Q303.214 725.908 299.719 725.908 Q297.497 725.908 295.39 726.441 Q293.284 726.973 291.339 728.038 L291.339 724.103 Q293.677 723.2 295.876 722.76 Q298.075 722.297 300.159 722.297 Q305.784 722.297 308.562 725.214 Q311.339 728.13 311.339 734.056 Z" fill="#000000" fill-rule="evenodd" fill-opacity="1" /><path clip-path="url(#clip490)" d="M320.112 712.83 L324.372 712.83 L324.372 748.848 L320.112 748.848 L320.112 712.83 Z" fill="#000000" fill-rule="evenodd" fill-opacity="1" /><path clip-path="url(#clip490)" d="M349.811 723.686 L349.811 727.714 Q348.006 726.788 346.061 726.325 Q344.117 725.862 342.034 725.862 Q338.862 725.862 337.265 726.834 Q335.691 727.806 335.691 729.751 Q335.691 731.232 336.825 732.089 Q337.96 732.922 341.385 733.686 L342.844 734.01 Q347.381 734.982 349.279 736.765 Q351.2 738.524 351.2 741.695 Q351.2 745.306 348.33 747.413 Q345.483 749.519 340.483 749.519 Q338.399 749.519 336.131 749.103 Q333.885 748.709 331.386 747.899 L331.386 743.501 Q333.747 744.728 336.038 745.353 Q338.33 745.954 340.575 745.954 Q343.585 745.954 345.205 744.936 Q346.825 743.894 346.825 742.019 Q346.825 740.283 345.645 739.357 Q344.487 738.431 340.529 737.575 L339.048 737.228 Q335.089 736.394 333.33 734.681 Q331.571 732.945 331.571 729.936 Q331.571 726.279 334.163 724.288 Q336.756 722.297 341.524 722.297 Q343.885 722.297 345.969 722.644 Q348.052 722.992 349.811 723.686 Z" fill="#000000" fill-rule="evenodd" fill-opacity="1" /><path clip-path="url(#clip490)" d="M380.158 734.82 L380.158 736.903 L360.575 736.903 Q360.853 741.302 363.214 743.616 Q365.598 745.908 369.834 745.908 Q372.288 745.908 374.58 745.306 Q376.895 744.704 379.163 743.501 L379.163 747.528 Q376.871 748.501 374.464 749.01 Q372.057 749.519 369.58 749.519 Q363.376 749.519 359.742 745.908 Q356.131 742.297 356.131 736.14 Q356.131 729.774 359.557 726.047 Q363.006 722.297 368.839 722.297 Q374.07 722.297 377.103 725.677 Q380.158 729.033 380.158 734.82 M375.899 733.57 Q375.853 730.075 373.932 727.992 Q372.033 725.908 368.885 725.908 Q365.321 725.908 363.168 727.922 Q361.038 729.936 360.714 733.593 L375.899 733.57 Z" fill="#000000" fill-rule="evenodd" fill-opacity="1" /><path clip-path="url(#clip490)" d="M675.753 715.561 L675.753 722.922 L684.526 722.922 L684.526 726.232 L675.753 726.232 L675.753 740.306 Q675.753 743.478 676.61 744.38 Q677.489 745.283 680.151 745.283 L684.526 745.283 L684.526 748.848 L680.151 748.848 Q675.221 748.848 673.346 747.019 Q671.471 745.167 671.471 740.306 L671.471 726.232 L668.346 726.232 L668.346 722.922 L671.471 722.922 L671.471 715.561 L675.753 715.561 Z" fill="#000000" fill-rule="evenodd" fill-opacity="1" /><path clip-path="url(#clip490)" d="M705.151 726.904 Q704.434 726.487 703.577 726.302 Q702.744 726.093 701.725 726.093 Q698.114 726.093 696.17 728.454 Q694.249 730.792 694.249 735.191 L694.249 748.848 L689.966 748.848 L689.966 722.922 L694.249 722.922 L694.249 726.95 Q695.591 724.589 697.744 723.454 Q699.897 722.297 702.975 722.297 Q703.415 722.297 703.948 722.367 Q704.48 722.413 705.128 722.529 L705.151 726.904 Z" fill="#000000" fill-rule="evenodd" fill-opacity="1" /><path clip-path="url(#clip490)" d="M709.179 738.616 L709.179 722.922 L713.438 722.922 L713.438 738.454 Q713.438 742.135 714.874 743.987 Q716.309 745.815 719.179 745.815 Q722.628 745.815 724.619 743.616 Q726.633 741.417 726.633 737.621 L726.633 722.922 L730.892 722.922 L730.892 748.848 L726.633 748.848 L726.633 744.866 Q725.082 747.228 723.022 748.385 Q720.985 749.519 718.276 749.519 Q713.809 749.519 711.494 746.741 Q709.179 743.964 709.179 738.616 M719.897 722.297 L719.897 722.297 Z" fill="#000000" fill-rule="evenodd" fill-opacity="1" /><path clip-path="url(#clip490)" d="M761.841 734.82 L761.841 736.903 L742.258 736.903 Q742.535 741.302 744.896 743.616 Q747.281 745.908 751.517 745.908 Q753.971 745.908 756.262 745.306 Q758.577 744.704 760.845 743.501 L760.845 747.528 Q758.554 748.501 756.146 749.01 Q753.739 749.519 751.262 749.519 Q745.059 749.519 741.424 745.908 Q737.813 742.297 737.813 736.14 Q737.813 729.774 741.239 726.047 Q744.688 722.297 750.521 722.297 Q755.753 722.297 758.785 725.677 Q761.841 729.033 761.841 734.82 M757.582 733.57 Q757.535 730.075 755.614 727.992 Q753.716 725.908 750.568 725.908 Q747.003 725.908 744.85 727.922 Q742.721 729.936 742.397 733.593 L757.582 733.57 Z" fill="#000000" fill-rule="evenodd" fill-opacity="1" /><polyline clip-path="url(#clip492)" style="stroke:#000000; stroke-linecap:butt; stroke-linejoin:round; stroke-width:2; stroke-opacity:0.1; fill:none" points="
  277.431,670.515 1152.76,670.515 
  "/>
<polyline clip-path="url(#clip492)" style="stroke:#000000; stroke-linecap:butt; stroke-linejoin:round; stroke-width:2; stroke-opacity:0.1; fill:none" points="
  277.431,531.315 1152.76,531.315 
  "/>
<polyline clip-path="url(#clip492)" style="stroke:#000000; stroke-linecap:butt; stroke-linejoin:round; stroke-width:2; stroke-opacity:0.1; fill:none" points="
  277.431,392.115 1152.76,392.115 
  "/>
<polyline clip-path="url(#clip492)" style="stroke:#000000; stroke-linecap:butt; stroke-linejoin:round; stroke-width:2; stroke-opacity:0.1; fill:none" points="
  277.431,252.916 1152.76,252.916 
  "/>
<polyline clip-path="url(#clip490)" style="stroke:#000000; stroke-linecap:butt; stroke-linejoin:round; stroke-width:4; stroke-opacity:1; fill:none" points="
  277.431,686.448 277.431,123.472 
  "/>
<polyline clip-path="url(#clip490)" style="stroke:#000000; stroke-linecap:butt; stroke-linejoin:round; stroke-width:4; stroke-opacity:1; fill:none" points="
  277.431,670.515 296.329,670.515 
  "/>
<polyline clip-path="url(#clip490)" style="stroke:#000000; stroke-linecap:butt; stroke-linejoin:round; stroke-width:4; stroke-opacity:1; fill:none" points="
  277.431,531.315 296.329,531.315 
  "/>
<polyline clip-path="url(#clip490)" style="stroke:#000000; stroke-linecap:butt; stroke-linejoin:round; stroke-width:4; stroke-opacity:1; fill:none" points="
  277.431,392.115 296.329,392.115 
  "/>
<polyline clip-path="url(#clip490)" style="stroke:#000000; stroke-linecap:butt; stroke-linejoin:round; stroke-width:4; stroke-opacity:1; fill:none" points="
  277.431,252.916 296.329,252.916 
  "/>
<path clip-path="url(#clip490)" d="M229.487 656.313 Q225.875 656.313 224.047 659.878 Q222.241 663.42 222.241 670.549 Q222.241 677.656 224.047 681.221 Q225.875 684.762 229.487 684.762 Q233.121 684.762 234.926 681.221 Q236.755 677.656 236.755 670.549 Q236.755 663.42 234.926 659.878 Q233.121 656.313 229.487 656.313 M229.487 652.61 Q235.297 652.61 238.352 657.216 Q241.431 661.799 241.431 670.549 Q241.431 679.276 238.352 683.883 Q235.297 688.466 229.487 688.466 Q223.676 688.466 220.598 683.883 Q217.542 679.276 217.542 670.549 Q217.542 661.799 220.598 657.216 Q223.676 652.61 229.487 652.61 Z" fill="#000000" fill-rule="evenodd" fill-opacity="1" /><path clip-path="url(#clip490)" d="M57.7745 551.107 L74.0939 551.107 L74.0939 555.043 L52.1495 555.043 L52.1495 551.107 Q54.8115 548.353 59.3949 543.723 Q64.0013 539.07 65.1819 537.728 Q67.4272 535.205 68.3068 533.469 Q69.2096 531.709 69.2096 530.02 Q69.2096 527.265 67.2652 525.529 Q65.3439 523.793 62.2421 523.793 Q60.043 523.793 57.5893 524.557 Q55.1588 525.321 52.381 526.871 L52.381 522.149 Q55.2051 521.015 57.6588 520.436 Q60.1124 519.858 62.1495 519.858 Q67.5198 519.858 70.7142 522.543 Q73.9087 525.228 73.9087 529.719 Q73.9087 531.848 73.0985 533.77 Q72.3115 535.668 70.205 538.26 Q69.6263 538.932 66.5245 542.149 Q63.4226 545.344 57.7745 551.107 Z" fill="#000000" fill-rule="evenodd" fill-opacity="1" /><path clip-path="url(#clip490)" d="M83.9086 549.163 L88.7928 549.163 L88.7928 555.043 L83.9086 555.043 L83.9086 549.163 Z" fill="#000000" fill-rule="evenodd" fill-opacity="1" /><path clip-path="url(#clip490)" d="M108.978 523.561 Q105.367 523.561 103.538 527.126 Q101.733 530.668 101.733 537.797 Q101.733 544.904 103.538 548.469 Q105.367 552.01 108.978 552.01 Q112.612 552.01 114.418 548.469 Q116.246 544.904 116.246 537.797 Q116.246 530.668 114.418 527.126 Q112.612 523.561 108.978 523.561 M108.978 519.858 Q114.788 519.858 117.844 524.464 Q120.922 529.047 120.922 537.797 Q120.922 546.524 117.844 551.131 Q114.788 555.714 108.978 555.714 Q103.168 555.714 100.089 551.131 Q97.0335 546.524 97.0335 537.797 Q97.0335 529.047 100.089 524.464 Q103.168 519.858 108.978 519.858 Z" fill="#000000" fill-rule="evenodd" fill-opacity="1" /><path clip-path="url(#clip490)" d="M157.311 529.58 L146.732 540.205 L157.311 550.783 L154.556 553.584 L143.931 542.959 L133.306 553.584 L130.575 550.783 L141.131 540.205 L130.575 529.58 L133.306 526.779 L143.931 537.404 L154.556 526.779 L157.311 529.58 Z" fill="#000000" fill-rule="evenodd" fill-opacity="1" /><path clip-path="url(#clip490)" d="M169.672 551.107 L177.311 551.107 L177.311 524.742 L169.001 526.408 L169.001 522.149 L177.265 520.483 L181.94 520.483 L181.94 551.107 L189.579 551.107 L189.579 555.043 L169.672 555.043 L169.672 551.107 Z" fill="#000000" fill-rule="evenodd" fill-opacity="1" /><path clip-path="url(#clip490)" d="M209.024 523.561 Q205.413 523.561 203.584 527.126 Q201.778 530.668 201.778 537.797 Q201.778 544.904 203.584 548.469 Q205.413 552.01 209.024 552.01 Q212.658 552.01 214.463 548.469 Q216.292 544.904 216.292 537.797 Q216.292 530.668 214.463 527.126 Q212.658 523.561 209.024 523.561 M209.024 519.858 Q214.834 519.858 217.889 524.464 Q220.968 529.047 220.968 537.797 Q220.968 546.524 217.889 551.131 Q214.834 555.714 209.024 555.714 Q203.214 555.714 200.135 551.131 Q197.079 546.524 197.079 537.797 Q197.079 529.047 200.135 524.464 Q203.214 519.858 209.024 519.858 Z" fill="#000000" fill-rule="evenodd" fill-opacity="1" /><path clip-path="url(#clip490)" d="M233.645 502.862 L224.053 517.852 L233.645 517.852 L233.645 502.862 M232.648 499.552 L237.425 499.552 L237.425 517.852 L241.431 517.852 L241.431 521.012 L237.425 521.012 L237.425 527.632 L233.645 527.632 L233.645 521.012 L220.968 521.012 L220.968 517.344 L232.648 499.552 Z" fill="#000000" fill-rule="evenodd" fill-opacity="1" /><path clip-path="url(#clip490)" d="M66.5939 385.357 L54.7884 403.806 L66.5939 403.806 L66.5939 385.357 M65.367 381.283 L71.2466 381.283 L71.2466 403.806 L76.1772 403.806 L76.1772 407.695 L71.2466 407.695 L71.2466 415.843 L66.5939 415.843 L66.5939 407.695 L50.9921 407.695 L50.9921 403.181 L65.367 381.283 Z" fill="#000000" fill-rule="evenodd" fill-opacity="1" /><path clip-path="url(#clip490)" d="M83.9086 409.963 L88.7928 409.963 L88.7928 415.843 L83.9086 415.843 L83.9086 409.963 Z" fill="#000000" fill-rule="evenodd" fill-opacity="1" /><path clip-path="url(#clip490)" d="M108.978 384.362 Q105.367 384.362 103.538 387.926 Q101.733 391.468 101.733 398.598 Q101.733 405.704 103.538 409.269 Q105.367 412.811 108.978 412.811 Q112.612 412.811 114.418 409.269 Q116.246 405.704 116.246 398.598 Q116.246 391.468 114.418 387.926 Q112.612 384.362 108.978 384.362 M108.978 380.658 Q114.788 380.658 117.844 385.264 Q120.922 389.848 120.922 398.598 Q120.922 407.324 117.844 411.931 Q114.788 416.514 108.978 416.514 Q103.168 416.514 100.089 411.931 Q97.0335 407.324 97.0335 398.598 Q97.0335 389.848 100.089 385.264 Q103.168 380.658 108.978 380.658 Z" fill="#000000" fill-rule="evenodd" fill-opacity="1" /><path clip-path="url(#clip490)" d="M157.311 390.38 L146.732 401.005 L157.311 411.584 L154.556 414.385 L143.931 403.76 L133.306 414.385 L130.575 411.584 L141.131 401.005 L130.575 390.38 L133.306 387.579 L143.931 398.204 L154.556 387.579 L157.311 390.38 Z" fill="#000000" fill-rule="evenodd" fill-opacity="1" /><path clip-path="url(#clip490)" d="M169.672 411.908 L177.311 411.908 L177.311 385.542 L169.001 387.209 L169.001 382.95 L177.265 381.283 L181.94 381.283 L181.94 411.908 L189.579 411.908 L189.579 415.843 L169.672 415.843 L169.672 411.908 Z" fill="#000000" fill-rule="evenodd" fill-opacity="1" /><path clip-path="url(#clip490)" d="M209.024 384.362 Q205.413 384.362 203.584 387.926 Q201.778 391.468 201.778 398.598 Q201.778 405.704 203.584 409.269 Q205.413 412.811 209.024 412.811 Q212.658 412.811 214.463 409.269 Q216.292 405.704 216.292 398.598 Q216.292 391.468 214.463 387.926 Q212.658 384.362 209.024 384.362 M209.024 380.658 Q214.834 380.658 217.889 385.264 Q220.968 389.848 220.968 398.598 Q220.968 407.324 217.889 411.931 Q214.834 416.514 209.024 416.514 Q203.214 416.514 200.135 411.931 Q197.079 407.324 197.079 398.598 Q197.079 389.848 200.135 385.264 Q203.214 380.658 209.024 380.658 Z" fill="#000000" fill-rule="evenodd" fill-opacity="1" /><path clip-path="url(#clip490)" d="M233.645 363.663 L224.053 378.653 L233.645 378.653 L233.645 363.663 M232.648 360.353 L237.425 360.353 L237.425 378.653 L241.431 378.653 L241.431 381.812 L237.425 381.812 L237.425 388.433 L233.645 388.433 L233.645 381.812 L220.968 381.812 L220.968 378.145 L232.648 360.353 Z" fill="#000000" fill-rule="evenodd" fill-opacity="1" /><path clip-path="url(#clip490)" d="M64.3254 257.5 Q61.1773 257.5 59.3254 259.653 Q57.4967 261.805 57.4967 265.555 Q57.4967 269.282 59.3254 271.458 Q61.1773 273.611 64.3254 273.611 Q67.4735 273.611 69.3022 271.458 Q71.1541 269.282 71.1541 265.555 Q71.1541 261.805 69.3022 259.653 Q67.4735 257.5 64.3254 257.5 M73.6077 242.847 L73.6077 247.106 Q71.8485 246.273 70.0429 245.833 Q68.2606 245.394 66.5013 245.394 Q61.8717 245.394 59.418 248.518 Q56.9875 251.643 56.6402 257.963 Q58.006 255.949 60.0662 254.884 Q62.1263 253.796 64.6032 253.796 Q69.8115 253.796 72.8207 256.968 Q75.8531 260.116 75.8531 265.555 Q75.8531 270.879 72.705 274.097 Q69.5568 277.315 64.3254 277.315 Q58.33 277.315 55.1588 272.731 Q51.9875 268.125 51.9875 259.398 Q51.9875 251.204 55.8764 246.343 Q59.7652 241.458 66.3161 241.458 Q68.0754 241.458 69.8578 241.806 Q71.6633 242.153 73.6077 242.847 Z" fill="#000000" fill-rule="evenodd" fill-opacity="1" /><path clip-path="url(#clip490)" d="M83.9086 270.764 L88.7928 270.764 L88.7928 276.643 L83.9086 276.643 L83.9086 270.764 Z" fill="#000000" fill-rule="evenodd" fill-opacity="1" /><path clip-path="url(#clip490)" d="M108.978 245.162 Q105.367 245.162 103.538 248.727 Q101.733 252.268 101.733 259.398 Q101.733 266.504 103.538 270.069 Q105.367 273.611 108.978 273.611 Q112.612 273.611 114.418 270.069 Q116.246 266.504 116.246 259.398 Q116.246 252.268 114.418 248.727 Q112.612 245.162 108.978 245.162 M108.978 241.458 Q114.788 241.458 117.844 246.065 Q120.922 250.648 120.922 259.398 Q120.922 268.125 117.844 272.731 Q114.788 277.315 108.978 277.315 Q103.168 277.315 100.089 272.731 Q97.0335 268.125 97.0335 259.398 Q97.0335 250.648 100.089 246.065 Q103.168 241.458 108.978 241.458 Z" fill="#000000" fill-rule="evenodd" fill-opacity="1" /><path clip-path="url(#clip490)" d="M157.311 251.181 L146.732 261.805 L157.311 272.384 L154.556 275.185 L143.931 264.56 L133.306 275.185 L130.575 272.384 L141.131 261.805 L130.575 251.181 L133.306 248.38 L143.931 259.005 L154.556 248.38 L157.311 251.181 Z" fill="#000000" fill-rule="evenodd" fill-opacity="1" /><path clip-path="url(#clip490)" d="M169.672 272.708 L177.311 272.708 L177.311 246.343 L169.001 248.009 L169.001 243.75 L177.265 242.083 L181.94 242.083 L181.94 272.708 L189.579 272.708 L189.579 276.643 L169.672 276.643 L169.672 272.708 Z" fill="#000000" fill-rule="evenodd" fill-opacity="1" /><path clip-path="url(#clip490)" d="M209.024 245.162 Q205.413 245.162 203.584 248.727 Q201.778 252.268 201.778 259.398 Q201.778 266.504 203.584 270.069 Q205.413 273.611 209.024 273.611 Q212.658 273.611 214.463 270.069 Q216.292 266.504 216.292 259.398 Q216.292 252.268 214.463 248.727 Q212.658 245.162 209.024 245.162 M209.024 241.458 Q214.834 241.458 217.889 246.065 Q220.968 250.648 220.968 259.398 Q220.968 268.125 217.889 272.731 Q214.834 277.315 209.024 277.315 Q203.214 277.315 200.135 272.731 Q197.079 268.125 197.079 259.398 Q197.079 250.648 200.135 246.065 Q203.214 241.458 209.024 241.458 Z" fill="#000000" fill-rule="evenodd" fill-opacity="1" /><path clip-path="url(#clip490)" d="M233.645 224.463 L224.053 239.453 L233.645 239.453 L233.645 224.463 M232.648 221.153 L237.425 221.153 L237.425 239.453 L241.431 239.453 L241.431 242.613 L237.425 242.613 L237.425 249.233 L233.645 249.233 L233.645 242.613 L220.968 242.613 L220.968 238.945 L232.648 221.153 Z" fill="#000000" fill-rule="evenodd" fill-opacity="1" /><path clip-path="url(#clip490)" d="M603.126 65.7705 L603.126 89.8329 L595.632 89.8329 L595.632 27.2059 L603.126 27.2059 L603.126 34.0924 Q605.476 30.0415 609.041 28.0971 Q612.646 26.1121 617.629 26.1121 Q625.893 26.1121 631.037 32.6746 Q636.222 39.2371 636.222 49.9314 Q636.222 60.6258 631.037 67.1883 Q625.893 73.7508 617.629 73.7508 Q612.646 73.7508 609.041 71.8063 Q605.476 69.8214 603.126 65.7705 M628.485 49.9314 Q628.485 41.7081 625.082 37.0496 Q621.72 32.3505 615.806 32.3505 Q609.891 32.3505 606.489 37.0496 Q603.126 41.7081 603.126 49.9314 Q603.126 58.1548 606.489 62.8538 Q609.891 67.5124 615.806 67.5124 Q621.72 67.5124 625.082 62.8538 Q628.485 58.1548 628.485 49.9314 Z" fill="#000000" fill-rule="evenodd" fill-opacity="1" /><path clip-path="url(#clip490)" d="M649.55 34.9026 L701.482 34.9026 L701.482 41.7081 L649.55 41.7081 L649.55 34.9026 M649.55 51.4303 L701.482 51.4303 L701.482 58.3168 L649.55 58.3168 L649.55 51.4303 Z" fill="#000000" fill-rule="evenodd" fill-opacity="1" /><path clip-path="url(#clip490)" d="M736.644 17.4837 Q730.325 17.4837 727.125 23.7221 Q723.965 29.92 723.965 42.3968 Q723.965 54.833 727.125 61.0714 Q730.325 67.2693 736.644 67.2693 Q743.004 67.2693 746.164 61.0714 Q749.364 54.833 749.364 42.3968 Q749.364 29.92 746.164 23.7221 Q743.004 17.4837 736.644 17.4837 M736.644 11.0023 Q746.812 11.0023 752.159 19.0636 Q757.547 27.0843 757.547 42.3968 Q757.547 57.6687 752.159 65.73 Q746.812 73.7508 736.644 73.7508 Q726.476 73.7508 721.089 65.73 Q715.742 57.6687 715.742 42.3968 Q715.742 27.0843 721.089 19.0636 Q726.476 11.0023 736.644 11.0023 Z" fill="#000000" fill-rule="evenodd" fill-opacity="1" /><path clip-path="url(#clip490)" d="M771.928 62.2867 L780.475 62.2867 L780.475 72.576 L771.928 72.576 L771.928 62.2867 Z" fill="#000000" fill-rule="evenodd" fill-opacity="1" /><path clip-path="url(#clip490)" d="M799.717 65.6895 L813.085 65.6895 L813.085 19.5497 L798.542 22.4663 L798.542 15.0127 L813.004 12.096 L821.187 12.096 L821.187 65.6895 L834.555 65.6895 L834.555 72.576 L799.717 72.576 L799.717 65.6895 Z" fill="#000000" fill-rule="evenodd" fill-opacity="1" /><path clip-path="url(#clip492)" d="
M325.575 139.405 L325.575 670.515 L715.093 670.515 L715.093 139.405 L325.575 139.405 L325.575 139.405  Z
  " fill="#009af9" fill-rule="evenodd" fill-opacity="1"/>
<polyline clip-path="url(#clip492)" style="stroke:#000000; stroke-linecap:butt; stroke-linejoin:round; stroke-width:4; stroke-opacity:1; fill:none" points="
  325.575,139.405 325.575,670.515 715.093,670.515 715.093,139.405 325.575,139.405 
  "/>
<path clip-path="url(#clip492)" d="
M715.093 505.626 L715.093 670.515 L1104.61 670.515 L1104.61 505.626 L715.093 505.626 L715.093 505.626  Z
  " fill="#009af9" fill-rule="evenodd" fill-opacity="1"/>
<polyline clip-path="url(#clip492)" style="stroke:#000000; stroke-linecap:butt; stroke-linejoin:round; stroke-width:4; stroke-opacity:1; fill:none" points="
  715.093,505.626 715.093,670.515 1104.61,670.515 1104.61,505.626 715.093,505.626 
  "/>
<circle clip-path="url(#clip492)" style="fill:#009af9; stroke:none; fill-opacity:0" cx="520.334" cy="139.405" r="2"/>
<circle clip-path="url(#clip492)" style="fill:#009af9; stroke:none; fill-opacity:0" cx="909.852" cy="505.626" r="2"/>
<path clip-path="url(#clip490)" d="
M1477.43 686.448 L2352.76 686.448 L2352.76 123.472 L1477.43 123.472  Z
  " fill="#ffffff" fill-rule="evenodd" fill-opacity="1"/>
<defs>
  <clipPath id="clip493">
    <rect x="1477" y="123" width="876" height="564"/>
  </clipPath>
</defs>
<polyline clip-path="url(#clip493)" style="stroke:#000000; stroke-linecap:butt; stroke-linejoin:round; stroke-width:2; stroke-opacity:0.1; fill:none" points="
  1525.58,686.448 1525.58,123.472 
  "/>
<polyline clip-path="url(#clip493)" style="stroke:#000000; stroke-linecap:butt; stroke-linejoin:round; stroke-width:2; stroke-opacity:0.1; fill:none" points="
  1915.09,686.448 1915.09,123.472 
  "/>
<polyline clip-path="url(#clip490)" style="stroke:#000000; stroke-linecap:butt; stroke-linejoin:round; stroke-width:4; stroke-opacity:1; fill:none" points="
  1477.43,686.448 2352.76,686.448 
  "/>
<polyline clip-path="url(#clip490)" style="stroke:#000000; stroke-linecap:butt; stroke-linejoin:round; stroke-width:4; stroke-opacity:1; fill:none" points="
  1525.58,686.448 1525.58,667.55 
  "/>
<polyline clip-path="url(#clip490)" style="stroke:#000000; stroke-linecap:butt; stroke-linejoin:round; stroke-width:4; stroke-opacity:1; fill:none" points="
  1915.09,686.448 1915.09,667.55 
  "/>
<path clip-path="url(#clip490)" d="M1487.5 712.83 L1487.5 716.371 L1483.42 716.371 Q1481.13 716.371 1480.23 717.297 Q1479.35 718.223 1479.35 720.63 L1479.35 722.922 L1486.36 722.922 L1486.36 726.232 L1479.35 726.232 L1479.35 748.848 L1475.07 748.848 L1475.07 726.232 L1470.99 726.232 L1470.99 722.922 L1475.07 722.922 L1475.07 721.117 Q1475.07 716.788 1477.08 714.82 Q1479.09 712.83 1483.47 712.83 L1487.5 712.83 Z" fill="#000000" fill-rule="evenodd" fill-opacity="1" /><path clip-path="url(#clip490)" d="M1502.84 735.816 Q1497.68 735.816 1495.69 736.996 Q1493.7 738.177 1493.7 741.024 Q1493.7 743.292 1495.18 744.635 Q1496.69 745.954 1499.26 745.954 Q1502.8 745.954 1504.93 743.454 Q1507.08 740.931 1507.08 736.765 L1507.08 735.816 L1502.84 735.816 M1511.34 734.056 L1511.34 748.848 L1507.08 748.848 L1507.08 744.913 Q1505.62 747.274 1503.45 748.408 Q1501.27 749.519 1498.12 749.519 Q1494.14 749.519 1491.78 747.297 Q1489.44 745.052 1489.44 741.302 Q1489.44 736.927 1492.36 734.704 Q1495.3 732.482 1501.11 732.482 L1507.08 732.482 L1507.08 732.066 Q1507.08 729.126 1505.14 727.529 Q1503.21 725.908 1499.72 725.908 Q1497.5 725.908 1495.39 726.441 Q1493.28 726.973 1491.34 728.038 L1491.34 724.103 Q1493.68 723.2 1495.88 722.76 Q1498.08 722.297 1500.16 722.297 Q1505.78 722.297 1508.56 725.214 Q1511.34 728.13 1511.34 734.056 Z" fill="#000000" fill-rule="evenodd" fill-opacity="1" /><path clip-path="url(#clip490)" d="M1520.11 712.83 L1524.37 712.83 L1524.37 748.848 L1520.11 748.848 L1520.11 712.83 Z" fill="#000000" fill-rule="evenodd" fill-opacity="1" /><path clip-path="url(#clip490)" d="M1549.81 723.686 L1549.81 727.714 Q1548.01 726.788 1546.06 726.325 Q1544.12 725.862 1542.03 725.862 Q1538.86 725.862 1537.27 726.834 Q1535.69 727.806 1535.69 729.751 Q1535.69 731.232 1536.83 732.089 Q1537.96 732.922 1541.39 733.686 L1542.84 734.01 Q1547.38 734.982 1549.28 736.765 Q1551.2 738.524 1551.2 741.695 Q1551.2 745.306 1548.33 747.413 Q1545.48 749.519 1540.48 749.519 Q1538.4 749.519 1536.13 749.103 Q1533.89 748.709 1531.39 747.899 L1531.39 743.501 Q1533.75 744.728 1536.04 745.353 Q1538.33 745.954 1540.58 745.954 Q1543.58 745.954 1545.2 744.936 Q1546.83 743.894 1546.83 742.019 Q1546.83 740.283 1545.64 739.357 Q1544.49 738.431 1540.53 737.575 L1539.05 737.228 Q1535.09 736.394 1533.33 734.681 Q1531.57 732.945 1531.57 729.936 Q1531.57 726.279 1534.16 724.288 Q1536.76 722.297 1541.52 722.297 Q1543.89 722.297 1545.97 722.644 Q1548.05 722.992 1549.81 723.686 Z" fill="#000000" fill-rule="evenodd" fill-opacity="1" /><path clip-path="url(#clip490)" d="M1580.16 734.82 L1580.16 736.903 L1560.58 736.903 Q1560.85 741.302 1563.21 743.616 Q1565.6 745.908 1569.83 745.908 Q1572.29 745.908 1574.58 745.306 Q1576.89 744.704 1579.16 743.501 L1579.16 747.528 Q1576.87 748.501 1574.46 749.01 Q1572.06 749.519 1569.58 749.519 Q1563.38 749.519 1559.74 745.908 Q1556.13 742.297 1556.13 736.14 Q1556.13 729.774 1559.56 726.047 Q1563.01 722.297 1568.84 722.297 Q1574.07 722.297 1577.1 725.677 Q1580.16 729.033 1580.16 734.82 M1575.9 733.57 Q1575.85 730.075 1573.93 727.992 Q1572.03 725.908 1568.89 725.908 Q1565.32 725.908 1563.17 727.922 Q1561.04 729.936 1560.71 733.593 L1575.9 733.57 Z" fill="#000000" fill-rule="evenodd" fill-opacity="1" /><path clip-path="url(#clip490)" d="M1875.75 715.561 L1875.75 722.922 L1884.53 722.922 L1884.53 726.232 L1875.75 726.232 L1875.75 740.306 Q1875.75 743.478 1876.61 744.38 Q1877.49 745.283 1880.15 745.283 L1884.53 745.283 L1884.53 748.848 L1880.15 748.848 Q1875.22 748.848 1873.35 747.019 Q1871.47 745.167 1871.47 740.306 L1871.47 726.232 L1868.35 726.232 L1868.35 722.922 L1871.47 722.922 L1871.47 715.561 L1875.75 715.561 Z" fill="#000000" fill-rule="evenodd" fill-opacity="1" /><path clip-path="url(#clip490)" d="M1905.15 726.904 Q1904.43 726.487 1903.58 726.302 Q1902.74 726.093 1901.73 726.093 Q1898.11 726.093 1896.17 728.454 Q1894.25 730.792 1894.25 735.191 L1894.25 748.848 L1889.97 748.848 L1889.97 722.922 L1894.25 722.922 L1894.25 726.95 Q1895.59 724.589 1897.74 723.454 Q1899.9 722.297 1902.98 722.297 Q1903.42 722.297 1903.95 722.367 Q1904.48 722.413 1905.13 722.529 L1905.15 726.904 Z" fill="#000000" fill-rule="evenodd" fill-opacity="1" /><path clip-path="url(#clip490)" d="M1909.18 738.616 L1909.18 722.922 L1913.44 722.922 L1913.44 738.454 Q1913.44 742.135 1914.87 743.987 Q1916.31 745.815 1919.18 745.815 Q1922.63 745.815 1924.62 743.616 Q1926.63 741.417 1926.63 737.621 L1926.63 722.922 L1930.89 722.922 L1930.89 748.848 L1926.63 748.848 L1926.63 744.866 Q1925.08 747.228 1923.02 748.385 Q1920.98 749.519 1918.28 749.519 Q1913.81 749.519 1911.49 746.741 Q1909.18 743.964 1909.18 738.616 M1919.9 722.297 L1919.9 722.297 Z" fill="#000000" fill-rule="evenodd" fill-opacity="1" /><path clip-path="url(#clip490)" d="M1961.84 734.82 L1961.84 736.903 L1942.26 736.903 Q1942.54 741.302 1944.9 743.616 Q1947.28 745.908 1951.52 745.908 Q1953.97 745.908 1956.26 745.306 Q1958.58 744.704 1960.85 743.501 L1960.85 747.528 Q1958.55 748.501 1956.15 749.01 Q1953.74 749.519 1951.26 749.519 Q1945.06 749.519 1941.42 745.908 Q1937.81 742.297 1937.81 736.14 Q1937.81 729.774 1941.24 726.047 Q1944.69 722.297 1950.52 722.297 Q1955.75 722.297 1958.79 725.677 Q1961.84 729.033 1961.84 734.82 M1957.58 733.57 Q1957.54 730.075 1955.61 727.992 Q1953.72 725.908 1950.57 725.908 Q1947 725.908 1944.85 727.922 Q1942.72 729.936 1942.4 733.593 L1957.58 733.57 Z" fill="#000000" fill-rule="evenodd" fill-opacity="1" /><polyline clip-path="url(#clip493)" style="stroke:#000000; stroke-linecap:butt; stroke-linejoin:round; stroke-width:2; stroke-opacity:0.1; fill:none" points="
  1477.43,670.515 2352.76,670.515 
  "/>
<polyline clip-path="url(#clip493)" style="stroke:#000000; stroke-linecap:butt; stroke-linejoin:round; stroke-width:2; stroke-opacity:0.1; fill:none" points="
  1477.43,526.213 2352.76,526.213 
  "/>
<polyline clip-path="url(#clip493)" style="stroke:#000000; stroke-linecap:butt; stroke-linejoin:round; stroke-width:2; stroke-opacity:0.1; fill:none" points="
  1477.43,381.911 2352.76,381.911 
  "/>
<polyline clip-path="url(#clip493)" style="stroke:#000000; stroke-linecap:butt; stroke-linejoin:round; stroke-width:2; stroke-opacity:0.1; fill:none" points="
  1477.43,237.61 2352.76,237.61 
  "/>
<polyline clip-path="url(#clip490)" style="stroke:#000000; stroke-linecap:butt; stroke-linejoin:round; stroke-width:4; stroke-opacity:1; fill:none" points="
  1477.43,686.448 1477.43,123.472 
  "/>
<polyline clip-path="url(#clip490)" style="stroke:#000000; stroke-linecap:butt; stroke-linejoin:round; stroke-width:4; stroke-opacity:1; fill:none" points="
  1477.43,670.515 1496.33,670.515 
  "/>
<polyline clip-path="url(#clip490)" style="stroke:#000000; stroke-linecap:butt; stroke-linejoin:round; stroke-width:4; stroke-opacity:1; fill:none" points="
  1477.43,526.213 1496.33,526.213 
  "/>
<polyline clip-path="url(#clip490)" style="stroke:#000000; stroke-linecap:butt; stroke-linejoin:round; stroke-width:4; stroke-opacity:1; fill:none" points="
  1477.43,381.911 1496.33,381.911 
  "/>
<polyline clip-path="url(#clip490)" style="stroke:#000000; stroke-linecap:butt; stroke-linejoin:round; stroke-width:4; stroke-opacity:1; fill:none" points="
  1477.43,237.61 1496.33,237.61 
  "/>
<path clip-path="url(#clip490)" d="M1429.49 656.313 Q1425.88 656.313 1424.05 659.878 Q1422.24 663.42 1422.24 670.549 Q1422.24 677.656 1424.05 681.221 Q1425.88 684.762 1429.49 684.762 Q1433.12 684.762 1434.93 681.221 Q1436.76 677.656 1436.76 670.549 Q1436.76 663.42 1434.93 659.878 Q1433.12 656.313 1429.49 656.313 M1429.49 652.61 Q1435.3 652.61 1438.35 657.216 Q1441.43 661.799 1441.43 670.549 Q1441.43 679.276 1438.35 683.883 Q1435.3 688.466 1429.49 688.466 Q1423.68 688.466 1420.6 683.883 Q1417.54 679.276 1417.54 670.549 Q1417.54 661.799 1420.6 657.216 Q1423.68 652.61 1429.49 652.61 Z" fill="#000000" fill-rule="evenodd" fill-opacity="1" /><path clip-path="url(#clip490)" d="M1257.77 546.005 L1274.09 546.005 L1274.09 549.941 L1252.15 549.941 L1252.15 546.005 Q1254.81 543.251 1259.39 538.621 Q1264 533.968 1265.18 532.626 Q1267.43 530.103 1268.31 528.367 Q1269.21 526.607 1269.21 524.918 Q1269.21 522.163 1267.27 520.427 Q1265.34 518.691 1262.24 518.691 Q1260.04 518.691 1257.59 519.455 Q1255.16 520.219 1252.38 521.769 L1252.38 517.047 Q1255.21 515.913 1257.66 515.334 Q1260.11 514.756 1262.15 514.756 Q1267.52 514.756 1270.71 517.441 Q1273.91 520.126 1273.91 524.617 Q1273.91 526.746 1273.1 528.668 Q1272.31 530.566 1270.2 533.158 Q1269.63 533.83 1266.52 537.047 Q1263.42 540.242 1257.77 546.005 Z" fill="#000000" fill-rule="evenodd" fill-opacity="1" /><path clip-path="url(#clip490)" d="M1283.91 544.061 L1288.79 544.061 L1288.79 549.941 L1283.91 549.941 L1283.91 544.061 Z" fill="#000000" fill-rule="evenodd" fill-opacity="1" /><path clip-path="url(#clip490)" d="M1308.98 518.459 Q1305.37 518.459 1303.54 522.024 Q1301.73 525.566 1301.73 532.695 Q1301.73 539.802 1303.54 543.367 Q1305.37 546.908 1308.98 546.908 Q1312.61 546.908 1314.42 543.367 Q1316.25 539.802 1316.25 532.695 Q1316.25 525.566 1314.42 522.024 Q1312.61 518.459 1308.98 518.459 M1308.98 514.756 Q1314.79 514.756 1317.84 519.362 Q1320.92 523.945 1320.92 532.695 Q1320.92 541.422 1317.84 546.029 Q1314.79 550.612 1308.98 550.612 Q1303.17 550.612 1300.09 546.029 Q1297.03 541.422 1297.03 532.695 Q1297.03 523.945 1300.09 519.362 Q1303.17 514.756 1308.98 514.756 Z" fill="#000000" fill-rule="evenodd" fill-opacity="1" /><path clip-path="url(#clip490)" d="M1357.31 524.478 L1346.73 535.103 L1357.31 545.681 L1354.56 548.482 L1343.93 537.857 L1333.31 548.482 L1330.58 545.681 L1341.13 535.103 L1330.58 524.478 L1333.31 521.677 L1343.93 532.302 L1354.56 521.677 L1357.31 524.478 Z" fill="#000000" fill-rule="evenodd" fill-opacity="1" /><path clip-path="url(#clip490)" d="M1369.67 546.005 L1377.31 546.005 L1377.31 519.64 L1369 521.307 L1369 517.047 L1377.26 515.381 L1381.94 515.381 L1381.94 546.005 L1389.58 546.005 L1389.58 549.941 L1369.67 549.941 L1369.67 546.005 Z" fill="#000000" fill-rule="evenodd" fill-opacity="1" /><path clip-path="url(#clip490)" d="M1409.02 518.459 Q1405.41 518.459 1403.58 522.024 Q1401.78 525.566 1401.78 532.695 Q1401.78 539.802 1403.58 543.367 Q1405.41 546.908 1409.02 546.908 Q1412.66 546.908 1414.46 543.367 Q1416.29 539.802 1416.29 532.695 Q1416.29 525.566 1414.46 522.024 Q1412.66 518.459 1409.02 518.459 M1409.02 514.756 Q1414.83 514.756 1417.89 519.362 Q1420.97 523.945 1420.97 532.695 Q1420.97 541.422 1417.89 546.029 Q1414.83 550.612 1409.02 550.612 Q1403.21 550.612 1400.13 546.029 Q1397.08 541.422 1397.08 532.695 Q1397.08 523.945 1400.13 519.362 Q1403.21 514.756 1409.02 514.756 Z" fill="#000000" fill-rule="evenodd" fill-opacity="1" /><path clip-path="url(#clip490)" d="M1433.64 497.76 L1424.05 512.75 L1433.64 512.75 L1433.64 497.76 M1432.65 494.45 L1437.42 494.45 L1437.42 512.75 L1441.43 512.75 L1441.43 515.91 L1437.42 515.91 L1437.42 522.53 L1433.64 522.53 L1433.64 515.91 L1420.97 515.91 L1420.97 512.242 L1432.65 494.45 Z" fill="#000000" fill-rule="evenodd" fill-opacity="1" /><path clip-path="url(#clip490)" d="M1266.59 375.153 L1254.79 393.602 L1266.59 393.602 L1266.59 375.153 M1265.37 371.079 L1271.25 371.079 L1271.25 393.602 L1276.18 393.602 L1276.18 397.491 L1271.25 397.491 L1271.25 405.639 L1266.59 405.639 L1266.59 397.491 L1250.99 397.491 L1250.99 392.977 L1265.37 371.079 Z" fill="#000000" fill-rule="evenodd" fill-opacity="1" /><path clip-path="url(#clip490)" d="M1283.91 399.759 L1288.79 399.759 L1288.79 405.639 L1283.91 405.639 L1283.91 399.759 Z" fill="#000000" fill-rule="evenodd" fill-opacity="1" /><path clip-path="url(#clip490)" d="M1308.98 374.158 Q1305.37 374.158 1303.54 377.723 Q1301.73 381.264 1301.73 388.394 Q1301.73 395.5 1303.54 399.065 Q1305.37 402.607 1308.98 402.607 Q1312.61 402.607 1314.42 399.065 Q1316.25 395.5 1316.25 388.394 Q1316.25 381.264 1314.42 377.723 Q1312.61 374.158 1308.98 374.158 M1308.98 370.454 Q1314.79 370.454 1317.84 375.06 Q1320.92 379.644 1320.92 388.394 Q1320.92 397.121 1317.84 401.727 Q1314.79 406.31 1308.98 406.31 Q1303.17 406.31 1300.09 401.727 Q1297.03 397.121 1297.03 388.394 Q1297.03 379.644 1300.09 375.06 Q1303.17 370.454 1308.98 370.454 Z" fill="#000000" fill-rule="evenodd" fill-opacity="1" /><path clip-path="url(#clip490)" d="M1357.31 380.176 L1346.73 390.801 L1357.31 401.38 L1354.56 404.181 L1343.93 393.556 L1333.31 404.181 L1330.58 401.38 L1341.13 390.801 L1330.58 380.176 L1333.31 377.375 L1343.93 388 L1354.56 377.375 L1357.31 380.176 Z" fill="#000000" fill-rule="evenodd" fill-opacity="1" /><path clip-path="url(#clip490)" d="M1369.67 401.704 L1377.31 401.704 L1377.31 375.338 L1369 377.005 L1369 372.746 L1377.26 371.079 L1381.94 371.079 L1381.94 401.704 L1389.58 401.704 L1389.58 405.639 L1369.67 405.639 L1369.67 401.704 Z" fill="#000000" fill-rule="evenodd" fill-opacity="1" /><path clip-path="url(#clip490)" d="M1409.02 374.158 Q1405.41 374.158 1403.58 377.723 Q1401.78 381.264 1401.78 388.394 Q1401.78 395.5 1403.58 399.065 Q1405.41 402.607 1409.02 402.607 Q1412.66 402.607 1414.46 399.065 Q1416.29 395.5 1416.29 388.394 Q1416.29 381.264 1414.46 377.723 Q1412.66 374.158 1409.02 374.158 M1409.02 370.454 Q1414.83 370.454 1417.89 375.06 Q1420.97 379.644 1420.97 388.394 Q1420.97 397.121 1417.89 401.727 Q1414.83 406.31 1409.02 406.31 Q1403.21 406.31 1400.13 401.727 Q1397.08 397.121 1397.08 388.394 Q1397.08 379.644 1400.13 375.06 Q1403.21 370.454 1409.02 370.454 Z" fill="#000000" fill-rule="evenodd" fill-opacity="1" /><path clip-path="url(#clip490)" d="M1433.64 353.459 L1424.05 368.449 L1433.64 368.449 L1433.64 353.459 M1432.65 350.149 L1437.42 350.149 L1437.42 368.449 L1441.43 368.449 L1441.43 371.608 L1437.42 371.608 L1437.42 378.229 L1433.64 378.229 L1433.64 371.608 L1420.97 371.608 L1420.97 367.941 L1432.65 350.149 Z" fill="#000000" fill-rule="evenodd" fill-opacity="1" /><path clip-path="url(#clip490)" d="M1264.33 242.194 Q1261.18 242.194 1259.33 244.347 Q1257.5 246.5 1257.5 250.25 Q1257.5 253.976 1259.33 256.152 Q1261.18 258.305 1264.33 258.305 Q1267.47 258.305 1269.3 256.152 Q1271.15 253.976 1271.15 250.25 Q1271.15 246.5 1269.3 244.347 Q1267.47 242.194 1264.33 242.194 M1273.61 227.541 L1273.61 231.801 Q1271.85 230.967 1270.04 230.527 Q1268.26 230.088 1266.5 230.088 Q1261.87 230.088 1259.42 233.213 Q1256.99 236.338 1256.64 242.657 Q1258.01 240.643 1260.07 239.578 Q1262.13 238.49 1264.6 238.49 Q1269.81 238.49 1272.82 241.662 Q1275.85 244.81 1275.85 250.25 Q1275.85 255.574 1272.7 258.791 Q1269.56 262.009 1264.33 262.009 Q1258.33 262.009 1255.16 257.425 Q1251.99 252.819 1251.99 244.092 Q1251.99 235.898 1255.88 231.037 Q1259.77 226.152 1266.32 226.152 Q1268.08 226.152 1269.86 226.5 Q1271.66 226.847 1273.61 227.541 Z" fill="#000000" fill-rule="evenodd" fill-opacity="1" /><path clip-path="url(#clip490)" d="M1283.91 255.458 L1288.79 255.458 L1288.79 261.337 L1283.91 261.337 L1283.91 255.458 Z" fill="#000000" fill-rule="evenodd" fill-opacity="1" /><path clip-path="url(#clip490)" d="M1308.98 229.856 Q1305.37 229.856 1303.54 233.421 Q1301.73 236.963 1301.73 244.092 Q1301.73 251.199 1303.54 254.763 Q1305.37 258.305 1308.98 258.305 Q1312.61 258.305 1314.42 254.763 Q1316.25 251.199 1316.25 244.092 Q1316.25 236.963 1314.42 233.421 Q1312.61 229.856 1308.98 229.856 M1308.98 226.152 Q1314.79 226.152 1317.84 230.759 Q1320.92 235.342 1320.92 244.092 Q1320.92 252.819 1317.84 257.425 Q1314.79 262.009 1308.98 262.009 Q1303.17 262.009 1300.09 257.425 Q1297.03 252.819 1297.03 244.092 Q1297.03 235.342 1300.09 230.759 Q1303.17 226.152 1308.98 226.152 Z" fill="#000000" fill-rule="evenodd" fill-opacity="1" /><path clip-path="url(#clip490)" d="M1357.31 235.875 L1346.73 246.5 L1357.31 257.078 L1354.56 259.879 L1343.93 249.254 L1333.31 259.879 L1330.58 257.078 L1341.13 246.5 L1330.58 235.875 L1333.31 233.074 L1343.93 243.699 L1354.56 233.074 L1357.31 235.875 Z" fill="#000000" fill-rule="evenodd" fill-opacity="1" /><path clip-path="url(#clip490)" d="M1369.67 257.402 L1377.31 257.402 L1377.31 231.037 L1369 232.703 L1369 228.444 L1377.26 226.777 L1381.94 226.777 L1381.94 257.402 L1389.58 257.402 L1389.58 261.337 L1369.67 261.337 L1369.67 257.402 Z" fill="#000000" fill-rule="evenodd" fill-opacity="1" /><path clip-path="url(#clip490)" d="M1409.02 229.856 Q1405.41 229.856 1403.58 233.421 Q1401.78 236.963 1401.78 244.092 Q1401.78 251.199 1403.58 254.763 Q1405.41 258.305 1409.02 258.305 Q1412.66 258.305 1414.46 254.763 Q1416.29 251.199 1416.29 244.092 Q1416.29 236.963 1414.46 233.421 Q1412.66 229.856 1409.02 229.856 M1409.02 226.152 Q1414.83 226.152 1417.89 230.759 Q1420.97 235.342 1420.97 244.092 Q1420.97 252.819 1417.89 257.425 Q1414.83 262.009 1409.02 262.009 Q1403.21 262.009 1400.13 257.425 Q1397.08 252.819 1397.08 244.092 Q1397.08 235.342 1400.13 230.759 Q1403.21 226.152 1409.02 226.152 Z" fill="#000000" fill-rule="evenodd" fill-opacity="1" /><path clip-path="url(#clip490)" d="M1433.64 209.157 L1424.05 224.147 L1433.64 224.147 L1433.64 209.157 M1432.65 205.847 L1437.42 205.847 L1437.42 224.147 L1441.43 224.147 L1441.43 227.307 L1437.42 227.307 L1437.42 233.927 L1433.64 233.927 L1433.64 227.307 L1420.97 227.307 L1420.97 223.639 L1432.65 205.847 Z" fill="#000000" fill-rule="evenodd" fill-opacity="1" /><path clip-path="url(#clip490)" d="M1802.92 65.7705 L1802.92 89.8329 L1795.43 89.8329 L1795.43 27.2059 L1802.92 27.2059 L1802.92 34.0924 Q1805.27 30.0415 1808.84 28.0971 Q1812.44 26.1121 1817.43 26.1121 Q1825.69 26.1121 1830.83 32.6746 Q1836.02 39.2371 1836.02 49.9314 Q1836.02 60.6258 1830.83 67.1883 Q1825.69 73.7508 1817.43 73.7508 Q1812.44 73.7508 1808.84 71.8063 Q1805.27 69.8214 1802.92 65.7705 M1828.28 49.9314 Q1828.28 41.7081 1824.88 37.0496 Q1821.52 32.3505 1815.6 32.3505 Q1809.69 32.3505 1806.29 37.0496 Q1802.92 41.7081 1802.92 49.9314 Q1802.92 58.1548 1806.29 62.8538 Q1809.69 67.5124 1815.6 67.5124 Q1821.52 67.5124 1824.88 62.8538 Q1828.28 58.1548 1828.28 49.9314 Z" fill="#000000" fill-rule="evenodd" fill-opacity="1" /><path clip-path="url(#clip490)" d="M1849.35 34.9026 L1901.28 34.9026 L1901.28 41.7081 L1849.35 41.7081 L1849.35 34.9026 M1849.35 51.4303 L1901.28 51.4303 L1901.28 58.3168 L1849.35 58.3168 L1849.35 51.4303 Z" fill="#000000" fill-rule="evenodd" fill-opacity="1" /><path clip-path="url(#clip490)" d="M1936.44 17.4837 Q1930.12 17.4837 1926.92 23.7221 Q1923.76 29.92 1923.76 42.3968 Q1923.76 54.833 1926.92 61.0714 Q1930.12 67.2693 1936.44 67.2693 Q1942.8 67.2693 1945.96 61.0714 Q1949.16 54.833 1949.16 42.3968 Q1949.16 29.92 1945.96 23.7221 Q1942.8 17.4837 1936.44 17.4837 M1936.44 11.0023 Q1946.61 11.0023 1951.96 19.0636 Q1957.34 27.0843 1957.34 42.3968 Q1957.34 57.6687 1951.96 65.73 Q1946.61 73.7508 1936.44 73.7508 Q1926.27 73.7508 1920.89 65.73 Q1915.54 57.6687 1915.54 42.3968 Q1915.54 27.0843 1920.89 19.0636 Q1926.27 11.0023 1936.44 11.0023 Z" fill="#000000" fill-rule="evenodd" fill-opacity="1" /><path clip-path="url(#clip490)" d="M1971.73 62.2867 L1980.27 62.2867 L1980.27 72.576 L1971.73 72.576 L1971.73 62.2867 Z" fill="#000000" fill-rule="evenodd" fill-opacity="1" /><path clip-path="url(#clip490)" d="M1998.18 12.096 L2030.3 12.096 L2030.3 18.9825 L2005.67 18.9825 L2005.67 33.8088 Q2007.45 33.2012 2009.24 32.9176 Q2011.02 32.5936 2012.8 32.5936 Q2022.93 32.5936 2028.84 38.1433 Q2034.76 43.6931 2034.76 53.1722 Q2034.76 62.9348 2028.68 68.3631 Q2022.6 73.7508 2011.55 73.7508 Q2007.74 73.7508 2003.77 73.1026 Q1999.84 72.4545 1995.63 71.1582 L1995.63 62.9348 Q1999.27 64.9198 2003.16 65.892 Q2007.05 66.8642 2011.38 66.8642 Q2018.39 66.8642 2022.48 63.1779 Q2026.57 59.4916 2026.57 53.1722 Q2026.57 46.8528 2022.48 43.1664 Q2018.39 39.4801 2011.38 39.4801 Q2008.1 39.4801 2004.82 40.2093 Q2001.58 40.9384 1998.18 42.4778 L1998.18 12.096 Z" fill="#000000" fill-rule="evenodd" fill-opacity="1" /><path clip-path="url(#clip493)" d="
M1525.58 480.116 L1525.58 670.515 L1915.09 670.515 L1915.09 480.116 L1525.58 480.116 L1525.58 480.116  Z
  " fill="#009af9" fill-rule="evenodd" fill-opacity="1"/>
<polyline clip-path="url(#clip493)" style="stroke:#000000; stroke-linecap:butt; stroke-linejoin:round; stroke-width:4; stroke-opacity:1; fill:none" points="
  1525.58,480.116 1525.58,670.515 1915.09,670.515 1915.09,480.116 1525.58,480.116 
  "/>
<path clip-path="url(#clip493)" d="
M1915.09 139.405 L1915.09 670.515 L2304.61 670.515 L2304.61 139.405 L1915.09 139.405 L1915.09 139.405  Z
  " fill="#009af9" fill-rule="evenodd" fill-opacity="1"/>
<polyline clip-path="url(#clip493)" style="stroke:#000000; stroke-linecap:butt; stroke-linejoin:round; stroke-width:4; stroke-opacity:1; fill:none" points="
  1915.09,139.405 1915.09,670.515 2304.61,670.515 2304.61,139.405 1915.09,139.405 
  "/>
<circle clip-path="url(#clip493)" style="fill:#009af9; stroke:none; fill-opacity:0" cx="1720.33" cy="480.116" r="2"/>
<circle clip-path="url(#clip493)" style="fill:#009af9; stroke:none; fill-opacity:0" cx="2109.85" cy="139.405" r="2"/>
<path clip-path="url(#clip490)" d="
M277.431 1486.45 L1152.76 1486.45 L1152.76 923.472 L277.431 923.472  Z
  " fill="#ffffff" fill-rule="evenodd" fill-opacity="1"/>
<defs>
  <clipPath id="clip494">
    <rect x="277" y="923" width="876" height="564"/>
  </clipPath>
</defs>
<polyline clip-path="url(#clip494)" style="stroke:#000000; stroke-linecap:butt; stroke-linejoin:round; stroke-width:2; stroke-opacity:0.1; fill:none" points="
  325.575,1486.45 325.575,923.472 
  "/>
<polyline clip-path="url(#clip494)" style="stroke:#000000; stroke-linecap:butt; stroke-linejoin:round; stroke-width:2; stroke-opacity:0.1; fill:none" points="
  715.093,1486.45 715.093,923.472 
  "/>
<polyline clip-path="url(#clip490)" style="stroke:#000000; stroke-linecap:butt; stroke-linejoin:round; stroke-width:4; stroke-opacity:1; fill:none" points="
  277.431,1486.45 1152.76,1486.45 
  "/>
<polyline clip-path="url(#clip490)" style="stroke:#000000; stroke-linecap:butt; stroke-linejoin:round; stroke-width:4; stroke-opacity:1; fill:none" points="
  325.575,1486.45 325.575,1467.55 
  "/>
<polyline clip-path="url(#clip490)" style="stroke:#000000; stroke-linecap:butt; stroke-linejoin:round; stroke-width:4; stroke-opacity:1; fill:none" points="
  715.093,1486.45 715.093,1467.55 
  "/>
<path clip-path="url(#clip490)" d="M287.497 1512.83 L287.497 1516.37 L283.423 1516.37 Q281.131 1516.37 280.228 1517.3 Q279.349 1518.22 279.349 1520.63 L279.349 1522.92 L286.363 1522.92 L286.363 1526.23 L279.349 1526.23 L279.349 1548.85 L275.066 1548.85 L275.066 1526.23 L270.992 1526.23 L270.992 1522.92 L275.066 1522.92 L275.066 1521.12 Q275.066 1516.79 277.08 1514.82 Q279.094 1512.83 283.469 1512.83 L287.497 1512.83 Z" fill="#000000" fill-rule="evenodd" fill-opacity="1" /><path clip-path="url(#clip490)" d="M302.844 1535.82 Q297.682 1535.82 295.691 1537 Q293.701 1538.18 293.701 1541.02 Q293.701 1543.29 295.182 1544.63 Q296.687 1545.95 299.256 1545.95 Q302.798 1545.95 304.927 1543.45 Q307.08 1540.93 307.08 1536.76 L307.08 1535.82 L302.844 1535.82 M311.339 1534.06 L311.339 1548.85 L307.08 1548.85 L307.08 1544.91 Q305.622 1547.27 303.446 1548.41 Q301.27 1549.52 298.122 1549.52 Q294.14 1549.52 291.779 1547.3 Q289.441 1545.05 289.441 1541.3 Q289.441 1536.93 292.358 1534.7 Q295.298 1532.48 301.108 1532.48 L307.08 1532.48 L307.08 1532.07 Q307.08 1529.13 305.136 1527.53 Q303.214 1525.91 299.719 1525.91 Q297.497 1525.91 295.39 1526.44 Q293.284 1526.97 291.339 1528.04 L291.339 1524.1 Q293.677 1523.2 295.876 1522.76 Q298.075 1522.3 300.159 1522.3 Q305.784 1522.3 308.562 1525.21 Q311.339 1528.13 311.339 1534.06 Z" fill="#000000" fill-rule="evenodd" fill-opacity="1" /><path clip-path="url(#clip490)" d="M320.112 1512.83 L324.372 1512.83 L324.372 1548.85 L320.112 1548.85 L320.112 1512.83 Z" fill="#000000" fill-rule="evenodd" fill-opacity="1" /><path clip-path="url(#clip490)" d="M349.811 1523.69 L349.811 1527.71 Q348.006 1526.79 346.061 1526.32 Q344.117 1525.86 342.034 1525.86 Q338.862 1525.86 337.265 1526.83 Q335.691 1527.81 335.691 1529.75 Q335.691 1531.23 336.825 1532.09 Q337.96 1532.92 341.385 1533.69 L342.844 1534.01 Q347.381 1534.98 349.279 1536.76 Q351.2 1538.52 351.2 1541.7 Q351.2 1545.31 348.33 1547.41 Q345.483 1549.52 340.483 1549.52 Q338.399 1549.52 336.131 1549.1 Q333.885 1548.71 331.386 1547.9 L331.386 1543.5 Q333.747 1544.73 336.038 1545.35 Q338.33 1545.95 340.575 1545.95 Q343.585 1545.95 345.205 1544.94 Q346.825 1543.89 346.825 1542.02 Q346.825 1540.28 345.645 1539.36 Q344.487 1538.43 340.529 1537.57 L339.048 1537.23 Q335.089 1536.39 333.33 1534.68 Q331.571 1532.95 331.571 1529.94 Q331.571 1526.28 334.163 1524.29 Q336.756 1522.3 341.524 1522.3 Q343.885 1522.3 345.969 1522.64 Q348.052 1522.99 349.811 1523.69 Z" fill="#000000" fill-rule="evenodd" fill-opacity="1" /><path clip-path="url(#clip490)" d="M380.158 1534.82 L380.158 1536.9 L360.575 1536.9 Q360.853 1541.3 363.214 1543.62 Q365.598 1545.91 369.834 1545.91 Q372.288 1545.91 374.58 1545.31 Q376.895 1544.7 379.163 1543.5 L379.163 1547.53 Q376.871 1548.5 374.464 1549.01 Q372.057 1549.52 369.58 1549.52 Q363.376 1549.52 359.742 1545.91 Q356.131 1542.3 356.131 1536.14 Q356.131 1529.77 359.557 1526.05 Q363.006 1522.3 368.839 1522.3 Q374.07 1522.3 377.103 1525.68 Q380.158 1529.03 380.158 1534.82 M375.899 1533.57 Q375.853 1530.07 373.932 1527.99 Q372.033 1525.91 368.885 1525.91 Q365.321 1525.91 363.168 1527.92 Q361.038 1529.94 360.714 1533.59 L375.899 1533.57 Z" fill="#000000" fill-rule="evenodd" fill-opacity="1" /><path clip-path="url(#clip490)" d="M675.753 1515.56 L675.753 1522.92 L684.526 1522.92 L684.526 1526.23 L675.753 1526.23 L675.753 1540.31 Q675.753 1543.48 676.61 1544.38 Q677.489 1545.28 680.151 1545.28 L684.526 1545.28 L684.526 1548.85 L680.151 1548.85 Q675.221 1548.85 673.346 1547.02 Q671.471 1545.17 671.471 1540.31 L671.471 1526.23 L668.346 1526.23 L668.346 1522.92 L671.471 1522.92 L671.471 1515.56 L675.753 1515.56 Z" fill="#000000" fill-rule="evenodd" fill-opacity="1" /><path clip-path="url(#clip490)" d="M705.151 1526.9 Q704.434 1526.49 703.577 1526.3 Q702.744 1526.09 701.725 1526.09 Q698.114 1526.09 696.17 1528.45 Q694.249 1530.79 694.249 1535.19 L694.249 1548.85 L689.966 1548.85 L689.966 1522.92 L694.249 1522.92 L694.249 1526.95 Q695.591 1524.59 697.744 1523.45 Q699.897 1522.3 702.975 1522.3 Q703.415 1522.3 703.948 1522.37 Q704.48 1522.41 705.128 1522.53 L705.151 1526.9 Z" fill="#000000" fill-rule="evenodd" fill-opacity="1" /><path clip-path="url(#clip490)" d="M709.179 1538.62 L709.179 1522.92 L713.438 1522.92 L713.438 1538.45 Q713.438 1542.13 714.874 1543.99 Q716.309 1545.82 719.179 1545.82 Q722.628 1545.82 724.619 1543.62 Q726.633 1541.42 726.633 1537.62 L726.633 1522.92 L730.892 1522.92 L730.892 1548.85 L726.633 1548.85 L726.633 1544.87 Q725.082 1547.23 723.022 1548.38 Q720.985 1549.52 718.276 1549.52 Q713.809 1549.52 711.494 1546.74 Q709.179 1543.96 709.179 1538.62 M719.897 1522.3 L719.897 1522.3 Z" fill="#000000" fill-rule="evenodd" fill-opacity="1" /><path clip-path="url(#clip490)" d="M761.841 1534.82 L761.841 1536.9 L742.258 1536.9 Q742.535 1541.3 744.896 1543.62 Q747.281 1545.91 751.517 1545.91 Q753.971 1545.91 756.262 1545.31 Q758.577 1544.7 760.845 1543.5 L760.845 1547.53 Q758.554 1548.5 756.146 1549.01 Q753.739 1549.52 751.262 1549.52 Q745.059 1549.52 741.424 1545.91 Q737.813 1542.3 737.813 1536.14 Q737.813 1529.77 741.239 1526.05 Q744.688 1522.3 750.521 1522.3 Q755.753 1522.3 758.785 1525.68 Q761.841 1529.03 761.841 1534.82 M757.582 1533.57 Q757.535 1530.07 755.614 1527.99 Q753.716 1525.91 750.568 1525.91 Q747.003 1525.91 744.85 1527.92 Q742.721 1529.94 742.397 1533.59 L757.582 1533.57 Z" fill="#000000" fill-rule="evenodd" fill-opacity="1" /><polyline clip-path="url(#clip494)" style="stroke:#000000; stroke-linecap:butt; stroke-linejoin:round; stroke-width:2; stroke-opacity:0.1; fill:none" points="
  277.431,1470.51 1152.76,1470.51 
  "/>
<polyline clip-path="url(#clip494)" style="stroke:#000000; stroke-linecap:butt; stroke-linejoin:round; stroke-width:2; stroke-opacity:0.1; fill:none" points="
  277.431,1360.04 1152.76,1360.04 
  "/>
<polyline clip-path="url(#clip494)" style="stroke:#000000; stroke-linecap:butt; stroke-linejoin:round; stroke-width:2; stroke-opacity:0.1; fill:none" points="
  277.431,1249.56 1152.76,1249.56 
  "/>
<polyline clip-path="url(#clip494)" style="stroke:#000000; stroke-linecap:butt; stroke-linejoin:round; stroke-width:2; stroke-opacity:0.1; fill:none" points="
  277.431,1139.09 1152.76,1139.09 
  "/>
<polyline clip-path="url(#clip494)" style="stroke:#000000; stroke-linecap:butt; stroke-linejoin:round; stroke-width:2; stroke-opacity:0.1; fill:none" points="
  277.431,1028.61 1152.76,1028.61 
  "/>
<polyline clip-path="url(#clip490)" style="stroke:#000000; stroke-linecap:butt; stroke-linejoin:round; stroke-width:4; stroke-opacity:1; fill:none" points="
  277.431,1486.45 277.431,923.472 
  "/>
<polyline clip-path="url(#clip490)" style="stroke:#000000; stroke-linecap:butt; stroke-linejoin:round; stroke-width:4; stroke-opacity:1; fill:none" points="
  277.431,1470.51 296.329,1470.51 
  "/>
<polyline clip-path="url(#clip490)" style="stroke:#000000; stroke-linecap:butt; stroke-linejoin:round; stroke-width:4; stroke-opacity:1; fill:none" points="
  277.431,1360.04 296.329,1360.04 
  "/>
<polyline clip-path="url(#clip490)" style="stroke:#000000; stroke-linecap:butt; stroke-linejoin:round; stroke-width:4; stroke-opacity:1; fill:none" points="
  277.431,1249.56 296.329,1249.56 
  "/>
<polyline clip-path="url(#clip490)" style="stroke:#000000; stroke-linecap:butt; stroke-linejoin:round; stroke-width:4; stroke-opacity:1; fill:none" points="
  277.431,1139.09 296.329,1139.09 
  "/>
<polyline clip-path="url(#clip490)" style="stroke:#000000; stroke-linecap:butt; stroke-linejoin:round; stroke-width:4; stroke-opacity:1; fill:none" points="
  277.431,1028.61 296.329,1028.61 
  "/>
<path clip-path="url(#clip490)" d="M229.487 1456.31 Q225.875 1456.31 224.047 1459.88 Q222.241 1463.42 222.241 1470.55 Q222.241 1477.66 224.047 1481.22 Q225.875 1484.76 229.487 1484.76 Q233.121 1484.76 234.926 1481.22 Q236.755 1477.66 236.755 1470.55 Q236.755 1463.42 234.926 1459.88 Q233.121 1456.31 229.487 1456.31 M229.487 1452.61 Q235.297 1452.61 238.352 1457.22 Q241.431 1461.8 241.431 1470.55 Q241.431 1479.28 238.352 1483.88 Q235.297 1488.47 229.487 1488.47 Q223.676 1488.47 220.598 1483.88 Q217.542 1479.28 217.542 1470.55 Q217.542 1461.8 220.598 1457.22 Q223.676 1452.61 229.487 1452.61 Z" fill="#000000" fill-rule="evenodd" fill-opacity="1" /><path clip-path="url(#clip490)" d="M57.7745 1379.83 L74.0939 1379.83 L74.0939 1383.77 L52.1495 1383.77 L52.1495 1379.83 Q54.8115 1377.08 59.3949 1372.45 Q64.0013 1367.79 65.1819 1366.45 Q67.4272 1363.93 68.3068 1362.19 Q69.2096 1360.43 69.2096 1358.74 Q69.2096 1355.99 67.2652 1354.25 Q65.3439 1352.52 62.2421 1352.52 Q60.043 1352.52 57.5893 1353.28 Q55.1588 1354.04 52.381 1355.59 L52.381 1350.87 Q55.2051 1349.74 57.6588 1349.16 Q60.1124 1348.58 62.1495 1348.58 Q67.5198 1348.58 70.7142 1351.27 Q73.9087 1353.95 73.9087 1358.44 Q73.9087 1360.57 73.0985 1362.49 Q72.3115 1364.39 70.205 1366.98 Q69.6263 1367.65 66.5245 1370.87 Q63.4226 1374.07 57.7745 1379.83 Z" fill="#000000" fill-rule="evenodd" fill-opacity="1" /><path clip-path="url(#clip490)" d="M83.9086 1377.89 L88.7928 1377.89 L88.7928 1383.77 L83.9086 1383.77 L83.9086 1377.89 Z" fill="#000000" fill-rule="evenodd" fill-opacity="1" /><path clip-path="url(#clip490)" d="M108.978 1352.28 Q105.367 1352.28 103.538 1355.85 Q101.733 1359.39 101.733 1366.52 Q101.733 1373.63 103.538 1377.19 Q105.367 1380.73 108.978 1380.73 Q112.612 1380.73 114.418 1377.19 Q116.246 1373.63 116.246 1366.52 Q116.246 1359.39 114.418 1355.85 Q112.612 1352.28 108.978 1352.28 M108.978 1348.58 Q114.788 1348.58 117.844 1353.19 Q120.922 1357.77 120.922 1366.52 Q120.922 1375.25 117.844 1379.85 Q114.788 1384.44 108.978 1384.44 Q103.168 1384.44 100.089 1379.85 Q97.0335 1375.25 97.0335 1366.52 Q97.0335 1357.77 100.089 1353.19 Q103.168 1348.58 108.978 1348.58 Z" fill="#000000" fill-rule="evenodd" fill-opacity="1" /><path clip-path="url(#clip490)" d="M157.311 1358.3 L146.732 1368.93 L157.311 1379.51 L154.556 1382.31 L143.931 1371.68 L133.306 1382.31 L130.575 1379.51 L141.131 1368.93 L130.575 1358.3 L133.306 1355.5 L143.931 1366.13 L154.556 1355.5 L157.311 1358.3 Z" fill="#000000" fill-rule="evenodd" fill-opacity="1" /><path clip-path="url(#clip490)" d="M169.672 1379.83 L177.311 1379.83 L177.311 1353.47 L169.001 1355.13 L169.001 1350.87 L177.265 1349.21 L181.94 1349.21 L181.94 1379.83 L189.579 1379.83 L189.579 1383.77 L169.672 1383.77 L169.672 1379.83 Z" fill="#000000" fill-rule="evenodd" fill-opacity="1" /><path clip-path="url(#clip490)" d="M209.024 1352.28 Q205.413 1352.28 203.584 1355.85 Q201.778 1359.39 201.778 1366.52 Q201.778 1373.63 203.584 1377.19 Q205.413 1380.73 209.024 1380.73 Q212.658 1380.73 214.463 1377.19 Q216.292 1373.63 216.292 1366.52 Q216.292 1359.39 214.463 1355.85 Q212.658 1352.28 209.024 1352.28 M209.024 1348.58 Q214.834 1348.58 217.889 1353.19 Q220.968 1357.77 220.968 1366.52 Q220.968 1375.25 217.889 1379.85 Q214.834 1384.44 209.024 1384.44 Q203.214 1384.44 200.135 1379.85 Q197.079 1375.25 197.079 1366.52 Q197.079 1357.77 200.135 1353.19 Q203.214 1348.58 209.024 1348.58 Z" fill="#000000" fill-rule="evenodd" fill-opacity="1" /><path clip-path="url(#clip490)" d="M233.645 1331.59 L224.053 1346.58 L233.645 1346.58 L233.645 1331.59 M232.648 1328.28 L237.425 1328.28 L237.425 1346.58 L241.431 1346.58 L241.431 1349.74 L237.425 1349.74 L237.425 1356.36 L233.645 1356.36 L233.645 1349.74 L220.968 1349.74 L220.968 1346.07 L232.648 1328.28 Z" fill="#000000" fill-rule="evenodd" fill-opacity="1" /><path clip-path="url(#clip490)" d="M66.5939 1242.8 L54.7884 1261.25 L66.5939 1261.25 L66.5939 1242.8 M65.367 1238.73 L71.2466 1238.73 L71.2466 1261.25 L76.1772 1261.25 L76.1772 1265.14 L71.2466 1265.14 L71.2466 1273.29 L66.5939 1273.29 L66.5939 1265.14 L50.9921 1265.14 L50.9921 1260.63 L65.367 1238.73 Z" fill="#000000" fill-rule="evenodd" fill-opacity="1" /><path clip-path="url(#clip490)" d="M83.9086 1267.41 L88.7928 1267.41 L88.7928 1273.29 L83.9086 1273.29 L83.9086 1267.41 Z" fill="#000000" fill-rule="evenodd" fill-opacity="1" /><path clip-path="url(#clip490)" d="M108.978 1241.81 Q105.367 1241.81 103.538 1245.37 Q101.733 1248.91 101.733 1256.04 Q101.733 1263.15 103.538 1266.72 Q105.367 1270.26 108.978 1270.26 Q112.612 1270.26 114.418 1266.72 Q116.246 1263.15 116.246 1256.04 Q116.246 1248.91 114.418 1245.37 Q112.612 1241.81 108.978 1241.81 M108.978 1238.1 Q114.788 1238.1 117.844 1242.71 Q120.922 1247.29 120.922 1256.04 Q120.922 1264.77 117.844 1269.38 Q114.788 1273.96 108.978 1273.96 Q103.168 1273.96 100.089 1269.38 Q97.0335 1264.77 97.0335 1256.04 Q97.0335 1247.29 100.089 1242.71 Q103.168 1238.1 108.978 1238.1 Z" fill="#000000" fill-rule="evenodd" fill-opacity="1" /><path clip-path="url(#clip490)" d="M157.311 1247.83 L146.732 1258.45 L157.311 1269.03 L154.556 1271.83 L143.931 1261.21 L133.306 1271.83 L130.575 1269.03 L141.131 1258.45 L130.575 1247.83 L133.306 1245.03 L143.931 1255.65 L154.556 1245.03 L157.311 1247.83 Z" fill="#000000" fill-rule="evenodd" fill-opacity="1" /><path clip-path="url(#clip490)" d="M169.672 1269.35 L177.311 1269.35 L177.311 1242.99 L169.001 1244.66 L169.001 1240.4 L177.265 1238.73 L181.94 1238.73 L181.94 1269.35 L189.579 1269.35 L189.579 1273.29 L169.672 1273.29 L169.672 1269.35 Z" fill="#000000" fill-rule="evenodd" fill-opacity="1" /><path clip-path="url(#clip490)" d="M209.024 1241.81 Q205.413 1241.81 203.584 1245.37 Q201.778 1248.91 201.778 1256.04 Q201.778 1263.15 203.584 1266.72 Q205.413 1270.26 209.024 1270.26 Q212.658 1270.26 214.463 1266.72 Q216.292 1263.15 216.292 1256.04 Q216.292 1248.91 214.463 1245.37 Q212.658 1241.81 209.024 1241.81 M209.024 1238.1 Q214.834 1238.1 217.889 1242.71 Q220.968 1247.29 220.968 1256.04 Q220.968 1264.77 217.889 1269.38 Q214.834 1273.96 209.024 1273.96 Q203.214 1273.96 200.135 1269.38 Q197.079 1264.77 197.079 1256.04 Q197.079 1247.29 200.135 1242.71 Q203.214 1238.1 209.024 1238.1 Z" fill="#000000" fill-rule="evenodd" fill-opacity="1" /><path clip-path="url(#clip490)" d="M233.645 1221.11 L224.053 1236.1 L233.645 1236.1 L233.645 1221.11 M232.648 1217.8 L237.425 1217.8 L237.425 1236.1 L241.431 1236.1 L241.431 1239.26 L237.425 1239.26 L237.425 1245.88 L233.645 1245.88 L233.645 1239.26 L220.968 1239.26 L220.968 1235.59 L232.648 1217.8 Z" fill="#000000" fill-rule="evenodd" fill-opacity="1" /><path clip-path="url(#clip490)" d="M64.3254 1143.67 Q61.1773 1143.67 59.3254 1145.82 Q57.4967 1147.98 57.4967 1151.73 Q57.4967 1155.45 59.3254 1157.63 Q61.1773 1159.78 64.3254 1159.78 Q67.4735 1159.78 69.3022 1157.63 Q71.1541 1155.45 71.1541 1151.73 Q71.1541 1147.98 69.3022 1145.82 Q67.4735 1143.67 64.3254 1143.67 M73.6077 1129.02 L73.6077 1133.28 Q71.8485 1132.44 70.0429 1132 Q68.2606 1131.56 66.5013 1131.56 Q61.8717 1131.56 59.418 1134.69 Q56.9875 1137.81 56.6402 1144.13 Q58.006 1142.12 60.0662 1141.05 Q62.1263 1139.97 64.6032 1139.97 Q69.8115 1139.97 72.8207 1143.14 Q75.8531 1146.29 75.8531 1151.73 Q75.8531 1157.05 72.705 1160.27 Q69.5568 1163.48 64.3254 1163.48 Q58.33 1163.48 55.1588 1158.9 Q51.9875 1154.29 51.9875 1145.57 Q51.9875 1137.37 55.8764 1132.51 Q59.7652 1127.63 66.3161 1127.63 Q68.0754 1127.63 69.8578 1127.98 Q71.6633 1128.32 73.6077 1129.02 Z" fill="#000000" fill-rule="evenodd" fill-opacity="1" /><path clip-path="url(#clip490)" d="M83.9086 1156.93 L88.7928 1156.93 L88.7928 1162.81 L83.9086 1162.81 L83.9086 1156.93 Z" fill="#000000" fill-rule="evenodd" fill-opacity="1" /><path clip-path="url(#clip490)" d="M108.978 1131.33 Q105.367 1131.33 103.538 1134.9 Q101.733 1138.44 101.733 1145.57 Q101.733 1152.67 103.538 1156.24 Q105.367 1159.78 108.978 1159.78 Q112.612 1159.78 114.418 1156.24 Q116.246 1152.67 116.246 1145.57 Q116.246 1138.44 114.418 1134.9 Q112.612 1131.33 108.978 1131.33 M108.978 1127.63 Q114.788 1127.63 117.844 1132.23 Q120.922 1136.82 120.922 1145.57 Q120.922 1154.29 117.844 1158.9 Q114.788 1163.48 108.978 1163.48 Q103.168 1163.48 100.089 1158.9 Q97.0335 1154.29 97.0335 1145.57 Q97.0335 1136.82 100.089 1132.23 Q103.168 1127.63 108.978 1127.63 Z" fill="#000000" fill-rule="evenodd" fill-opacity="1" /><path clip-path="url(#clip490)" d="M157.311 1137.35 L146.732 1147.98 L157.311 1158.55 L154.556 1161.36 L143.931 1150.73 L133.306 1161.36 L130.575 1158.55 L141.131 1147.98 L130.575 1137.35 L133.306 1134.55 L143.931 1145.17 L154.556 1134.55 L157.311 1137.35 Z" fill="#000000" fill-rule="evenodd" fill-opacity="1" /><path clip-path="url(#clip490)" d="M169.672 1158.88 L177.311 1158.88 L177.311 1132.51 L169.001 1134.18 L169.001 1129.92 L177.265 1128.25 L181.94 1128.25 L181.94 1158.88 L189.579 1158.88 L189.579 1162.81 L169.672 1162.81 L169.672 1158.88 Z" fill="#000000" fill-rule="evenodd" fill-opacity="1" /><path clip-path="url(#clip490)" d="M209.024 1131.33 Q205.413 1131.33 203.584 1134.9 Q201.778 1138.44 201.778 1145.57 Q201.778 1152.67 203.584 1156.24 Q205.413 1159.78 209.024 1159.78 Q212.658 1159.78 214.463 1156.24 Q216.292 1152.67 216.292 1145.57 Q216.292 1138.44 214.463 1134.9 Q212.658 1131.33 209.024 1131.33 M209.024 1127.63 Q214.834 1127.63 217.889 1132.23 Q220.968 1136.82 220.968 1145.57 Q220.968 1154.29 217.889 1158.9 Q214.834 1163.48 209.024 1163.48 Q203.214 1163.48 200.135 1158.9 Q197.079 1154.29 197.079 1145.57 Q197.079 1136.82 200.135 1132.23 Q203.214 1127.63 209.024 1127.63 Z" fill="#000000" fill-rule="evenodd" fill-opacity="1" /><path clip-path="url(#clip490)" d="M233.645 1110.63 L224.053 1125.62 L233.645 1125.62 L233.645 1110.63 M232.648 1107.32 L237.425 1107.32 L237.425 1125.62 L241.431 1125.62 L241.431 1128.78 L237.425 1128.78 L237.425 1135.4 L233.645 1135.4 L233.645 1128.78 L220.968 1128.78 L220.968 1125.12 L232.648 1107.32 Z" fill="#000000" fill-rule="evenodd" fill-opacity="1" /><path clip-path="url(#clip490)" d="M63.7467 1035.93 Q60.4134 1035.93 58.4921 1037.71 Q56.5939 1039.49 56.5939 1042.61 Q56.5939 1045.74 58.4921 1047.52 Q60.4134 1049.3 63.7467 1049.3 Q67.08 1049.3 69.0013 1047.52 Q70.9226 1045.72 70.9226 1042.61 Q70.9226 1039.49 69.0013 1037.71 Q67.1032 1035.93 63.7467 1035.93 M59.0708 1033.93 Q56.0615 1033.19 54.3717 1031.13 Q52.7051 1029.07 52.7051 1026.11 Q52.7051 1021.97 55.6449 1019.56 Q58.6078 1017.15 63.7467 1017.15 Q68.9087 1017.15 71.8485 1019.56 Q74.7883 1021.97 74.7883 1026.11 Q74.7883 1029.07 73.0985 1031.13 Q71.4318 1033.19 68.4457 1033.93 Q71.8253 1034.72 73.7003 1037.01 Q75.5985 1039.3 75.5985 1042.61 Q75.5985 1047.64 72.5198 1050.32 Q69.4642 1053.01 63.7467 1053.01 Q58.0291 1053.01 54.9504 1050.32 Q51.8949 1047.64 51.8949 1042.61 Q51.8949 1039.3 53.793 1037.01 Q55.6912 1034.72 59.0708 1033.93 M57.3578 1026.55 Q57.3578 1029.24 59.0245 1030.74 Q60.7143 1032.24 63.7467 1032.24 Q66.7559 1032.24 68.4457 1030.74 Q70.1587 1029.24 70.1587 1026.55 Q70.1587 1023.87 68.4457 1022.36 Q66.7559 1020.86 63.7467 1020.86 Q60.7143 1020.86 59.0245 1022.36 Q57.3578 1023.87 57.3578 1026.55 Z" fill="#000000" fill-rule="evenodd" fill-opacity="1" /><path clip-path="url(#clip490)" d="M83.9086 1046.46 L88.7928 1046.46 L88.7928 1052.34 L83.9086 1052.34 L83.9086 1046.46 Z" fill="#000000" fill-rule="evenodd" fill-opacity="1" /><path clip-path="url(#clip490)" d="M108.978 1020.86 Q105.367 1020.86 103.538 1024.42 Q101.733 1027.96 101.733 1035.09 Q101.733 1042.2 103.538 1045.76 Q105.367 1049.3 108.978 1049.3 Q112.612 1049.3 114.418 1045.76 Q116.246 1042.2 116.246 1035.09 Q116.246 1027.96 114.418 1024.42 Q112.612 1020.86 108.978 1020.86 M108.978 1017.15 Q114.788 1017.15 117.844 1021.76 Q120.922 1026.34 120.922 1035.09 Q120.922 1043.82 117.844 1048.43 Q114.788 1053.01 108.978 1053.01 Q103.168 1053.01 100.089 1048.43 Q97.0335 1043.82 97.0335 1035.09 Q97.0335 1026.34 100.089 1021.76 Q103.168 1017.15 108.978 1017.15 Z" fill="#000000" fill-rule="evenodd" fill-opacity="1" /><path clip-path="url(#clip490)" d="M157.311 1026.87 L146.732 1037.5 L157.311 1048.08 L154.556 1050.88 L143.931 1040.25 L133.306 1050.88 L130.575 1048.08 L141.131 1037.5 L130.575 1026.87 L133.306 1024.07 L143.931 1034.7 L154.556 1024.07 L157.311 1026.87 Z" fill="#000000" fill-rule="evenodd" fill-opacity="1" /><path clip-path="url(#clip490)" d="M169.672 1048.4 L177.311 1048.4 L177.311 1022.04 L169.001 1023.7 L169.001 1019.44 L177.265 1017.78 L181.94 1017.78 L181.94 1048.4 L189.579 1048.4 L189.579 1052.34 L169.672 1052.34 L169.672 1048.4 Z" fill="#000000" fill-rule="evenodd" fill-opacity="1" /><path clip-path="url(#clip490)" d="M209.024 1020.86 Q205.413 1020.86 203.584 1024.42 Q201.778 1027.96 201.778 1035.09 Q201.778 1042.2 203.584 1045.76 Q205.413 1049.3 209.024 1049.3 Q212.658 1049.3 214.463 1045.76 Q216.292 1042.2 216.292 1035.09 Q216.292 1027.96 214.463 1024.42 Q212.658 1020.86 209.024 1020.86 M209.024 1017.15 Q214.834 1017.15 217.889 1021.76 Q220.968 1026.34 220.968 1035.09 Q220.968 1043.82 217.889 1048.43 Q214.834 1053.01 209.024 1053.01 Q203.214 1053.01 200.135 1048.43 Q197.079 1043.82 197.079 1035.09 Q197.079 1026.34 200.135 1021.76 Q203.214 1017.15 209.024 1017.15 Z" fill="#000000" fill-rule="evenodd" fill-opacity="1" /><path clip-path="url(#clip490)" d="M233.645 1000.16 L224.053 1015.15 L233.645 1015.15 L233.645 1000.16 M232.648 996.847 L237.425 996.847 L237.425 1015.15 L241.431 1015.15 L241.431 1018.31 L237.425 1018.31 L237.425 1024.93 L233.645 1024.93 L233.645 1018.31 L220.968 1018.31 L220.968 1014.64 L232.648 996.847 Z" fill="#000000" fill-rule="evenodd" fill-opacity="1" /><path clip-path="url(#clip490)" d="M602.215 865.77 L602.215 889.833 L594.721 889.833 L594.721 827.206 L602.215 827.206 L602.215 834.092 Q604.564 830.042 608.129 828.097 Q611.735 826.112 616.717 826.112 Q624.981 826.112 630.126 832.675 Q635.311 839.237 635.311 849.931 Q635.311 860.626 630.126 867.188 Q624.981 873.751 616.717 873.751 Q611.735 873.751 608.129 871.806 Q604.564 869.821 602.215 865.77 M627.574 849.931 Q627.574 841.708 624.171 837.05 Q620.809 832.351 614.894 832.351 Q608.98 832.351 605.577 837.05 Q602.215 841.708 602.215 849.931 Q602.215 858.155 605.577 862.854 Q608.98 867.512 614.894 867.512 Q620.809 867.512 624.171 862.854 Q627.574 858.155 627.574 849.931 Z" fill="#000000" fill-rule="evenodd" fill-opacity="1" /><path clip-path="url(#clip490)" d="M648.638 834.903 L700.571 834.903 L700.571 841.708 L648.638 841.708 L648.638 834.903 M648.638 851.43 L700.571 851.43 L700.571 858.317 L648.638 858.317 L648.638 851.43 Z" fill="#000000" fill-rule="evenodd" fill-opacity="1" /><path clip-path="url(#clip490)" d="M735.733 817.484 Q729.413 817.484 726.213 823.722 Q723.053 829.92 723.053 842.397 Q723.053 854.833 726.213 861.071 Q729.413 867.269 735.733 867.269 Q742.093 867.269 745.252 861.071 Q748.453 854.833 748.453 842.397 Q748.453 829.92 745.252 823.722 Q742.093 817.484 735.733 817.484 M735.733 811.002 Q745.901 811.002 751.248 819.064 Q756.635 827.084 756.635 842.397 Q756.635 857.669 751.248 865.73 Q745.901 873.751 735.733 873.751 Q725.565 873.751 720.177 865.73 Q714.83 857.669 714.83 842.397 Q714.83 827.084 720.177 819.064 Q725.565 811.002 735.733 811.002 Z" fill="#000000" fill-rule="evenodd" fill-opacity="1" /><path clip-path="url(#clip490)" d="M771.016 862.287 L779.564 862.287 L779.564 872.576 L771.016 872.576 L771.016 862.287 Z" fill="#000000" fill-rule="evenodd" fill-opacity="1" /><path clip-path="url(#clip490)" d="M797.631 871.32 L797.631 863.867 Q800.709 865.325 803.869 866.095 Q807.029 866.864 810.067 866.864 Q818.169 866.864 822.422 861.436 Q826.716 855.967 827.324 844.868 Q824.974 848.352 821.369 850.215 Q817.764 852.078 813.389 852.078 Q804.315 852.078 799.008 846.61 Q793.742 841.1 793.742 831.581 Q793.742 822.264 799.251 816.633 Q804.76 811.002 813.915 811.002 Q824.407 811.002 829.916 819.064 Q835.466 827.084 835.466 842.397 Q835.466 856.696 828.661 865.244 Q821.896 873.751 810.431 873.751 Q807.353 873.751 804.193 873.143 Q801.033 872.535 797.631 871.32 M813.915 845.678 Q819.424 845.678 822.625 841.911 Q825.865 838.143 825.865 831.581 Q825.865 825.059 822.625 821.292 Q819.424 817.484 813.915 817.484 Q808.406 817.484 805.165 821.292 Q801.965 825.059 801.965 831.581 Q801.965 838.143 805.165 841.911 Q808.406 845.678 813.915 845.678 Z" fill="#000000" fill-rule="evenodd" fill-opacity="1" /><path clip-path="url(#clip494)" d="
M325.575 1449.24 L325.575 1470.51 L715.093 1470.51 L715.093 1449.24 L325.575 1449.24 L325.575 1449.24  Z
  " fill="#009af9" fill-rule="evenodd" fill-opacity="1"/>
<polyline clip-path="url(#clip494)" style="stroke:#000000; stroke-linecap:butt; stroke-linejoin:round; stroke-width:4; stroke-opacity:1; fill:none" points="
  325.575,1449.24 325.575,1470.51 715.093,1470.51 715.093,1449.24 325.575,1449.24 
  "/>
<path clip-path="url(#clip494)" d="
M715.093 939.405 L715.093 1470.51 L1104.61 1470.51 L1104.61 939.405 L715.093 939.405 L715.093 939.405  Z
  " fill="#009af9" fill-rule="evenodd" fill-opacity="1"/>
<polyline clip-path="url(#clip494)" style="stroke:#000000; stroke-linecap:butt; stroke-linejoin:round; stroke-width:4; stroke-opacity:1; fill:none" points="
  715.093,939.405 715.093,1470.51 1104.61,1470.51 1104.61,939.405 715.093,939.405 
  "/>
<circle clip-path="url(#clip494)" style="fill:#009af9; stroke:none; fill-opacity:0" cx="520.334" cy="1449.24" r="2"/>
<circle clip-path="url(#clip494)" style="fill:#009af9; stroke:none; fill-opacity:0" cx="909.852" cy="939.405" r="2"/>
</svg>
