<?xml version="1.0" encoding="utf-8"?>
<svg xmlns="http://www.w3.org/2000/svg" xmlns:xlink="http://www.w3.org/1999/xlink" width="600" height="400" viewBox="0 0 2400 1600">
<defs>
  <clipPath id="clip450">
    <rect x="0" y="0" width="2400" height="1600"/>
  </clipPath>
</defs>
<path clip-path="url(#clip450)" d="
M0 1600 L2400 1600 L2400 0 L0 0  Z
  " fill="#ffffff" fill-rule="evenodd" fill-opacity="1"/>
<defs>
  <clipPath id="clip451">
    <rect x="480" y="0" width="1681" height="1600"/>
  </clipPath>
</defs>
<path clip-path="url(#clip450)" d="
M277.431 686.448 L1152.76 686.448 L1152.76 123.472 L277.431 123.472  Z
  " fill="#ffffff" fill-rule="evenodd" fill-opacity="1"/>
<defs>
  <clipPath id="clip452">
    <rect x="277" y="123" width="876" height="564"/>
  </clipPath>
</defs>
<polyline clip-path="url(#clip452)" style="stroke:#000000; stroke-linecap:butt; stroke-linejoin:round; stroke-width:2; stroke-opacity:0.1; fill:none" points="
  325.575,686.448 325.575,123.472 
  "/>
<polyline clip-path="url(#clip452)" style="stroke:#000000; stroke-linecap:butt; stroke-linejoin:round; stroke-width:2; stroke-opacity:0.1; fill:none" points="
  715.093,686.448 715.093,123.472 
  "/>
<polyline clip-path="url(#clip450)" style="stroke:#000000; stroke-linecap:butt; stroke-linejoin:round; stroke-width:4; stroke-opacity:1; fill:none" points="
  277.431,686.448 1152.76,686.448 
  "/>
<polyline clip-path="url(#clip450)" style="stroke:#000000; stroke-linecap:butt; stroke-linejoin:round; stroke-width:4; stroke-opacity:1; fill:none" points="
  325.575,686.448 325.575,667.55 
  "/>
<polyline clip-path="url(#clip450)" style="stroke:#000000; stroke-linecap:butt; stroke-linejoin:round; stroke-width:4; stroke-opacity:1; fill:none" points="
  715.093,686.448 715.093,667.55 
  "/>
<path clip-path="url(#clip450)" d="M287.497 712.83 L287.497 716.371 L283.423 716.371 Q281.131 716.371 280.228 717.297 Q279.349 718.223 279.349 720.63 L279.349 722.922 L286.363 722.922 L286.363 726.232 L279.349 726.232 L279.349 748.848 L275.066 748.848 L275.066 726.232 L270.992 726.232 L270.992 722.922 L275.066 722.922 L275.066 721.117 Q275.066 716.788 277.08 714.82 Q279.094 712.83 283.469 712.83 L287.497 712.83 Z" fill="#000000" fill-rule="evenodd" fill-opacity="1" /><path clip-path="url(#clip450)" d="M302.844 735.816 Q297.682 735.816 295.691 736.996 Q293.701 738.177 293.701 741.024 Q293.701 743.292 295.182 744.635 Q296.687 745.954 299.256 745.954 Q302.798 745.954 304.927 743.454 Q307.08 740.931 307.08 736.765 L307.08 735.816 L302.844 735.816 M311.339 734.056 L311.339 748.848 L307.08 748.848 L307.08 744.913 Q305.622 747.274 303.446 748.408 Q301.27 749.519 298.122 749.519 Q294.14 749.519 291.779 747.297 Q289.441 745.052 289.441 741.302 Q289.441 736.927 292.358 734.704 Q295.298 732.482 301.108 732.482 L307.08 732.482 L307.08 732.066 Q307.08 729.126 305.136 727.529 Q303.214 725.908 299.719 725.908 Q297.497 725.908 295.39 726.441 Q293.284 726.973 291.339 728.038 L291.339 724.103 Q293.677 723.2 295.876 722.76 Q298.075 722.297 300.159 722.297 Q305.784 722.297 308.562 725.214 Q311.339 728.13 311.339 734.056 Z" fill="#000000" fill-rule="evenodd" fill-opacity="1" /><path clip-path="url(#clip450)" d="M320.112 712.83 L324.372 712.83 L324.372 748.848 L320.112 748.848 L320.112 712.83 Z" fill="#000000" fill-rule="evenodd" fill-opacity="1" /><path clip-path="url(#clip450)" d="M349.811 723.686 L349.811 727.714 Q348.006 726.788 346.061 726.325 Q344.117 725.862 342.034 725.862 Q338.862 725.862 337.265 726.834 Q335.691 727.806 335.691 729.751 Q335.691 731.232 336.825 732.089 Q337.96 732.922 341.385 733.686 L342.844 734.01 Q347.381 734.982 349.279 736.765 Q351.2 738.524 351.2 741.695 Q351.2 745.306 348.33 747.413 Q345.483 749.519 340.483 749.519 Q338.399 749.519 336.131 749.103 Q333.885 748.709 331.386 747.899 L331.386 743.501 Q333.747 744.728 336.038 745.353 Q338.33 745.954 340.575 745.954 Q343.585 745.954 345.205 744.936 Q346.825 743.894 346.825 742.019 Q346.825 740.283 345.645 739.357 Q344.487 738.431 340.529 737.575 L339.048 737.228 Q335.089 736.394 333.33 734.681 Q331.571 732.945 331.571 729.936 Q331.571 726.279 334.163 724.288 Q336.756 722.297 341.524 722.297 Q343.885 722.297 345.969 722.644 Q348.052 722.992 349.811 723.686 Z" fill="#000000" fill-rule="evenodd" fill-opacity="1" /><path clip-path="url(#clip450)" d="M380.158 734.82 L380.158 736.903 L360.575 736.903 Q360.853 741.302 363.214 743.616 Q365.598 745.908 369.834 745.908 Q372.288 745.908 374.58 745.306 Q376.895 744.704 379.163 743.501 L379.163 747.528 Q376.871 748.501 374.464 749.01 Q372.057 749.519 369.58 749.519 Q363.376 749.519 359.742 745.908 Q356.131 742.297 356.131 736.14 Q356.131 729.774 359.557 726.047 Q363.006 722.297 368.839 722.297 Q374.07 722.297 377.103 725.677 Q380.158 729.033 380.158 734.82 M375.899 733.57 Q375.853 730.075 373.932 727.992 Q372.033 725.908 368.885 725.908 Q365.321 725.908 363.168 727.922 Q361.038 729.936 360.714 733.593 L375.899 733.57 Z" fill="#000000" fill-rule="evenodd" fill-opacity="1" /><path clip-path="url(#clip450)" d="M675.753 715.561 L675.753 722.922 L684.526 722.922 L684.526 726.232 L675.753 726.232 L675.753 740.306 Q675.753 743.478 676.61 744.38 Q677.489 745.283 680.151 745.283 L684.526 745.283 L684.526 748.848 L680.151 748.848 Q675.221 748.848 673.346 747.019 Q671.471 745.167 671.471 740.306 L671.471 726.232 L668.346 726.232 L668.346 722.922 L671.471 722.922 L671.471 715.561 L675.753 715.561 Z" fill="#000000" fill-rule="evenodd" fill-opacity="1" /><path clip-path="url(#clip450)" d="M705.151 726.904 Q704.434 726.487 703.577 726.302 Q702.744 726.093 701.725 726.093 Q698.114 726.093 696.17 728.454 Q694.249 730.792 694.249 735.191 L694.249 748.848 L689.966 748.848 L689.966 722.922 L694.249 722.922 L694.249 726.95 Q695.591 724.589 697.744 723.454 Q699.897 722.297 702.975 722.297 Q703.415 722.297 703.948 722.367 Q704.48 722.413 705.128 722.529 L705.151 726.904 Z" fill="#000000" fill-rule="evenodd" fill-opacity="1" /><path clip-path="url(#clip450)" d="M709.179 738.616 L709.179 722.922 L713.438 722.922 L713.438 738.454 Q713.438 742.135 714.874 743.987 Q716.309 745.815 719.179 745.815 Q722.628 745.815 724.619 743.616 Q726.633 741.417 726.633 737.621 L726.633 722.922 L730.892 722.922 L730.892 748.848 L726.633 748.848 L726.633 744.866 Q725.082 747.228 723.022 748.385 Q720.985 749.519 718.276 749.519 Q713.809 749.519 711.494 746.741 Q709.179 743.964 709.179 738.616 M719.897 722.297 L719.897 722.297 Z" fill="#000000" fill-rule="evenodd" fill-opacity="1" /><path clip-path="url(#clip450)" d="M761.841 734.82 L761.841 736.903 L742.258 736.903 Q742.535 741.302 744.896 743.616 Q747.281 745.908 751.517 745.908 Q753.971 745.908 756.262 745.306 Q758.577 744.704 760.845 743.501 L760.845 747.528 Q758.554 748.501 756.146 749.01 Q753.739 749.519 751.262 749.519 Q745.059 749.519 741.424 745.908 Q737.813 742.297 737.813 736.14 Q737.813 729.774 741.239 726.047 Q744.688 722.297 750.521 722.297 Q755.753 722.297 758.785 725.677 Q761.841 729.033 761.841 734.82 M757.582 733.57 Q757.535 730.075 755.614 727.992 Q753.716 725.908 750.568 725.908 Q747.003 725.908 744.85 727.922 Q742.721 729.936 742.397 733.593 L757.582 733.57 Z" fill="#000000" fill-rule="evenodd" fill-opacity="1" /><polyline clip-path="url(#clip452)" style="stroke:#000000; stroke-linecap:butt; stroke-linejoin:round; stroke-width:2; stroke-opacity:0.1; fill:none" points="
  277.431,670.515 1152.76,670.515 
  "/>
<polyline clip-path="url(#clip452)" style="stroke:#000000; stroke-linecap:butt; stroke-linejoin:round; stroke-width:2; stroke-opacity:0.1; fill:none" points="
  277.431,530.916 1152.76,530.916 
  "/>
<polyline clip-path="url(#clip452)" style="stroke:#000000; stroke-linecap:butt; stroke-linejoin:round; stroke-width:2; stroke-opacity:0.1; fill:none" points="
  277.431,391.318 1152.76,391.318 
  "/>
<polyline clip-path="url(#clip452)" style="stroke:#000000; stroke-linecap:butt; stroke-linejoin:round; stroke-width:2; stroke-opacity:0.1; fill:none" points="
  277.431,251.719 1152.76,251.719 
  "/>
<polyline clip-path="url(#clip450)" style="stroke:#000000; stroke-linecap:butt; stroke-linejoin:round; stroke-width:4; stroke-opacity:1; fill:none" points="
  277.431,686.448 277.431,123.472 
  "/>
<polyline clip-path="url(#clip450)" style="stroke:#000000; stroke-linecap:butt; stroke-linejoin:round; stroke-width:4; stroke-opacity:1; fill:none" points="
  277.431,670.515 296.329,670.515 
  "/>
<polyline clip-path="url(#clip450)" style="stroke:#000000; stroke-linecap:butt; stroke-linejoin:round; stroke-width:4; stroke-opacity:1; fill:none" points="
  277.431,530.916 296.329,530.916 
  "/>
<polyline clip-path="url(#clip450)" style="stroke:#000000; stroke-linecap:butt; stroke-linejoin:round; stroke-width:4; stroke-opacity:1; fill:none" points="
  277.431,391.318 296.329,391.318 
  "/>
<polyline clip-path="url(#clip450)" style="stroke:#000000; stroke-linecap:butt; stroke-linejoin:round; stroke-width:4; stroke-opacity:1; fill:none" points="
  277.431,251.719 296.329,251.719 
  "/>
<path clip-path="url(#clip450)" d="M229.487 656.313 Q225.875 656.313 224.047 659.878 Q222.241 663.42 222.241 670.549 Q222.241 677.656 224.047 681.221 Q225.875 684.762 229.487 684.762 Q233.121 684.762 234.926 681.221 Q236.755 677.656 236.755 670.549 Q236.755 663.42 234.926 659.878 Q233.121 656.313 229.487 656.313 M229.487 652.61 Q235.297 652.61 238.352 657.216 Q241.431 661.799 241.431 670.549 Q241.431 679.276 238.352 683.883 Q235.297 688.466 229.487 688.466 Q223.676 688.466 220.598 683.883 Q217.542 679.276 217.542 670.549 Q217.542 661.799 220.598 657.216 Q223.676 652.61 229.487 652.61 Z" fill="#000000" fill-rule="evenodd" fill-opacity="1" /><path clip-path="url(#clip450)" d="M57.7745 550.709 L74.0939 550.709 L74.0939 554.644 L52.1495 554.644 L52.1495 550.709 Q54.8115 547.954 59.3949 543.324 Q64.0013 538.672 65.1819 537.329 Q67.4272 534.806 68.3068 533.07 Q69.2096 531.311 69.2096 529.621 Q69.2096 526.866 67.2652 525.13 Q65.3439 523.394 62.2421 523.394 Q60.043 523.394 57.5893 524.158 Q55.1588 524.922 52.381 526.473 L52.381 521.75 Q55.2051 520.616 57.6588 520.037 Q60.1124 519.459 62.1495 519.459 Q67.5198 519.459 70.7142 522.144 Q73.9087 524.829 73.9087 529.32 Q73.9087 531.449 73.0985 533.371 Q72.3115 535.269 70.205 537.861 Q69.6263 538.533 66.5245 541.75 Q63.4226 544.945 57.7745 550.709 Z" fill="#000000" fill-rule="evenodd" fill-opacity="1" /><path clip-path="url(#clip450)" d="M83.9086 548.764 L88.7928 548.764 L88.7928 554.644 L83.9086 554.644 L83.9086 548.764 Z" fill="#000000" fill-rule="evenodd" fill-opacity="1" /><path clip-path="url(#clip450)" d="M108.978 523.162 Q105.367 523.162 103.538 526.727 Q101.733 530.269 101.733 537.398 Q101.733 544.505 103.538 548.07 Q105.367 551.611 108.978 551.611 Q112.612 551.611 114.418 548.07 Q116.246 544.505 116.246 537.398 Q116.246 530.269 114.418 526.727 Q112.612 523.162 108.978 523.162 M108.978 519.459 Q114.788 519.459 117.844 524.065 Q120.922 528.649 120.922 537.398 Q120.922 546.125 117.844 550.732 Q114.788 555.315 108.978 555.315 Q103.168 555.315 100.089 550.732 Q97.0335 546.125 97.0335 537.398 Q97.0335 528.649 100.089 524.065 Q103.168 519.459 108.978 519.459 Z" fill="#000000" fill-rule="evenodd" fill-opacity="1" /><path clip-path="url(#clip450)" d="M157.311 529.181 L146.732 539.806 L157.311 550.385 L154.556 553.185 L143.931 542.561 L133.306 553.185 L130.575 550.385 L141.131 539.806 L130.575 529.181 L133.306 526.38 L143.931 537.005 L154.556 526.38 L157.311 529.181 Z" fill="#000000" fill-rule="evenodd" fill-opacity="1" /><path clip-path="url(#clip450)" d="M169.672 550.709 L177.311 550.709 L177.311 524.343 L169.001 526.01 L169.001 521.75 L177.265 520.084 L181.94 520.084 L181.94 550.709 L189.579 550.709 L189.579 554.644 L169.672 554.644 L169.672 550.709 Z" fill="#000000" fill-rule="evenodd" fill-opacity="1" /><path clip-path="url(#clip450)" d="M209.024 523.162 Q205.413 523.162 203.584 526.727 Q201.778 530.269 201.778 537.398 Q201.778 544.505 203.584 548.07 Q205.413 551.611 209.024 551.611 Q212.658 551.611 214.463 548.07 Q216.292 544.505 216.292 537.398 Q216.292 530.269 214.463 526.727 Q212.658 523.162 209.024 523.162 M209.024 519.459 Q214.834 519.459 217.889 524.065 Q220.968 528.649 220.968 537.398 Q220.968 546.125 217.889 550.732 Q214.834 555.315 209.024 555.315 Q203.214 555.315 200.135 550.732 Q197.079 546.125 197.079 537.398 Q197.079 528.649 200.135 524.065 Q203.214 519.459 209.024 519.459 Z" fill="#000000" fill-rule="evenodd" fill-opacity="1" /><path clip-path="url(#clip450)" d="M233.645 502.464 L224.053 517.453 L233.645 517.453 L233.645 502.464 M232.648 499.153 L237.425 499.153 L237.425 517.453 L241.431 517.453 L241.431 520.613 L237.425 520.613 L237.425 527.233 L233.645 527.233 L233.645 520.613 L220.968 520.613 L220.968 516.946 L232.648 499.153 Z" fill="#000000" fill-rule="evenodd" fill-opacity="1" /><path clip-path="url(#clip450)" d="M66.5939 384.559 L54.7884 403.008 L66.5939 403.008 L66.5939 384.559 M65.367 380.485 L71.2466 380.485 L71.2466 403.008 L76.1772 403.008 L76.1772 406.897 L71.2466 406.897 L71.2466 415.045 L66.5939 415.045 L66.5939 406.897 L50.9921 406.897 L50.9921 402.383 L65.367 380.485 Z" fill="#000000" fill-rule="evenodd" fill-opacity="1" /><path clip-path="url(#clip450)" d="M83.9086 409.166 L88.7928 409.166 L88.7928 415.045 L83.9086 415.045 L83.9086 409.166 Z" fill="#000000" fill-rule="evenodd" fill-opacity="1" /><path clip-path="url(#clip450)" d="M108.978 383.564 Q105.367 383.564 103.538 387.129 Q101.733 390.67 101.733 397.8 Q101.733 404.907 103.538 408.471 Q105.367 412.013 108.978 412.013 Q112.612 412.013 114.418 408.471 Q116.246 404.907 116.246 397.8 Q116.246 390.67 114.418 387.129 Q112.612 383.564 108.978 383.564 M108.978 379.86 Q114.788 379.86 117.844 384.467 Q120.922 389.05 120.922 397.8 Q120.922 406.527 117.844 411.133 Q114.788 415.717 108.978 415.717 Q103.168 415.717 100.089 411.133 Q97.0335 406.527 97.0335 397.8 Q97.0335 389.05 100.089 384.467 Q103.168 379.86 108.978 379.86 Z" fill="#000000" fill-rule="evenodd" fill-opacity="1" /><path clip-path="url(#clip450)" d="M157.311 389.583 L146.732 400.207 L157.311 410.786 L154.556 413.587 L143.931 402.962 L133.306 413.587 L130.575 410.786 L141.131 400.207 L130.575 389.583 L133.306 386.782 L143.931 397.407 L154.556 386.782 L157.311 389.583 Z" fill="#000000" fill-rule="evenodd" fill-opacity="1" /><path clip-path="url(#clip450)" d="M169.672 411.11 L177.311 411.11 L177.311 384.745 L169.001 386.411 L169.001 382.152 L177.265 380.485 L181.94 380.485 L181.94 411.11 L189.579 411.11 L189.579 415.045 L169.672 415.045 L169.672 411.11 Z" fill="#000000" fill-rule="evenodd" fill-opacity="1" /><path clip-path="url(#clip450)" d="M209.024 383.564 Q205.413 383.564 203.584 387.129 Q201.778 390.67 201.778 397.8 Q201.778 404.907 203.584 408.471 Q205.413 412.013 209.024 412.013 Q212.658 412.013 214.463 408.471 Q216.292 404.907 216.292 397.8 Q216.292 390.67 214.463 387.129 Q212.658 383.564 209.024 383.564 M209.024 379.86 Q214.834 379.86 217.889 384.467 Q220.968 389.05 220.968 397.8 Q220.968 406.527 217.889 411.133 Q214.834 415.717 209.024 415.717 Q203.214 415.717 200.135 411.133 Q197.079 406.527 197.079 397.8 Q197.079 389.05 200.135 384.467 Q203.214 379.86 209.024 379.86 Z" fill="#000000" fill-rule="evenodd" fill-opacity="1" /><path clip-path="url(#clip450)" d="M233.645 362.865 L224.053 377.855 L233.645 377.855 L233.645 362.865 M232.648 359.555 L237.425 359.555 L237.425 377.855 L241.431 377.855 L241.431 381.015 L237.425 381.015 L237.425 387.635 L233.645 387.635 L233.645 381.015 L220.968 381.015 L220.968 377.347 L232.648 359.555 Z" fill="#000000" fill-rule="evenodd" fill-opacity="1" /><path clip-path="url(#clip450)" d="M64.3254 256.304 Q61.1773 256.304 59.3254 258.456 Q57.4967 260.609 57.4967 264.359 Q57.4967 268.086 59.3254 270.262 Q61.1773 272.415 64.3254 272.415 Q67.4735 272.415 69.3022 270.262 Q71.1541 268.086 71.1541 264.359 Q71.1541 260.609 69.3022 258.456 Q67.4735 256.304 64.3254 256.304 M73.6077 241.651 L73.6077 245.91 Q71.8485 245.077 70.0429 244.637 Q68.2606 244.197 66.5013 244.197 Q61.8717 244.197 59.418 247.322 Q56.9875 250.447 56.6402 256.766 Q58.006 254.753 60.0662 253.688 Q62.1263 252.6 64.6032 252.6 Q69.8115 252.6 72.8207 255.771 Q75.8531 258.919 75.8531 264.359 Q75.8531 269.683 72.705 272.901 Q69.5568 276.118 64.3254 276.118 Q58.33 276.118 55.1588 271.535 Q51.9875 266.928 51.9875 258.202 Q51.9875 250.007 55.8764 245.146 Q59.7652 240.262 66.3161 240.262 Q68.0754 240.262 69.8578 240.609 Q71.6633 240.956 73.6077 241.651 Z" fill="#000000" fill-rule="evenodd" fill-opacity="1" /><path clip-path="url(#clip450)" d="M83.9086 269.567 L88.7928 269.567 L88.7928 275.447 L83.9086 275.447 L83.9086 269.567 Z" fill="#000000" fill-rule="evenodd" fill-opacity="1" /><path clip-path="url(#clip450)" d="M108.978 243.966 Q105.367 243.966 103.538 247.53 Q101.733 251.072 101.733 258.202 Q101.733 265.308 103.538 268.873 Q105.367 272.415 108.978 272.415 Q112.612 272.415 114.418 268.873 Q116.246 265.308 116.246 258.202 Q116.246 251.072 114.418 247.53 Q112.612 243.966 108.978 243.966 M108.978 240.262 Q114.788 240.262 117.844 244.868 Q120.922 249.452 120.922 258.202 Q120.922 266.928 117.844 271.535 Q114.788 276.118 108.978 276.118 Q103.168 276.118 100.089 271.535 Q97.0335 266.928 97.0335 258.202 Q97.0335 249.452 100.089 244.868 Q103.168 240.262 108.978 240.262 Z" fill="#000000" fill-rule="evenodd" fill-opacity="1" /><path clip-path="url(#clip450)" d="M157.311 249.984 L146.732 260.609 L157.311 271.188 L154.556 273.989 L143.931 263.364 L133.306 273.989 L130.575 271.188 L141.131 260.609 L130.575 249.984 L133.306 247.183 L143.931 257.808 L154.556 247.183 L157.311 249.984 Z" fill="#000000" fill-rule="evenodd" fill-opacity="1" /><path clip-path="url(#clip450)" d="M169.672 271.512 L177.311 271.512 L177.311 245.146 L169.001 246.813 L169.001 242.554 L177.265 240.887 L181.94 240.887 L181.94 271.512 L189.579 271.512 L189.579 275.447 L169.672 275.447 L169.672 271.512 Z" fill="#000000" fill-rule="evenodd" fill-opacity="1" /><path clip-path="url(#clip450)" d="M209.024 243.966 Q205.413 243.966 203.584 247.53 Q201.778 251.072 201.778 258.202 Q201.778 265.308 203.584 268.873 Q205.413 272.415 209.024 272.415 Q212.658 272.415 214.463 268.873 Q216.292 265.308 216.292 258.202 Q216.292 251.072 214.463 247.53 Q212.658 243.966 209.024 243.966 M209.024 240.262 Q214.834 240.262 217.889 244.868 Q220.968 249.452 220.968 258.202 Q220.968 266.928 217.889 271.535 Q214.834 276.118 209.024 276.118 Q203.214 276.118 200.135 271.535 Q197.079 266.928 197.079 258.202 Q197.079 249.452 200.135 244.868 Q203.214 240.262 209.024 240.262 Z" fill="#000000" fill-rule="evenodd" fill-opacity="1" /><path clip-path="url(#clip450)" d="M233.645 223.267 L224.053 238.256 L233.645 238.256 L233.645 223.267 M232.648 219.957 L237.425 219.957 L237.425 238.256 L241.431 238.256 L241.431 241.416 L237.425 241.416 L237.425 248.037 L233.645 248.037 L233.645 241.416 L220.968 241.416 L220.968 237.749 L232.648 219.957 Z" fill="#000000" fill-rule="evenodd" fill-opacity="1" /><path clip-path="url(#clip450)" d="M603.126 65.7705 L603.126 89.8329 L595.632 89.8329 L595.632 27.2059 L603.126 27.2059 L603.126 34.0924 Q605.476 30.0415 609.041 28.0971 Q612.646 26.1121 617.629 26.1121 Q625.893 26.1121 631.037 32.6746 Q636.222 39.2371 636.222 49.9314 Q636.222 60.6258 631.037 67.1883 Q625.893 73.7508 617.629 73.7508 Q612.646 73.7508 609.041 71.8063 Q605.476 69.8214 603.126 65.7705 M628.485 49.9314 Q628.485 41.7081 625.082 37.0496 Q621.72 32.3505 615.806 32.3505 Q609.891 32.3505 606.489 37.0496 Q603.126 41.7081 603.126 49.9314 Q603.126 58.1548 606.489 62.8538 Q609.891 67.5124 615.806 67.5124 Q621.72 67.5124 625.082 62.8538 Q628.485 58.1548 628.485 49.9314 Z" fill="#000000" fill-rule="evenodd" fill-opacity="1" /><path clip-path="url(#clip450)" d="M649.55 34.9026 L701.482 34.9026 L701.482 41.7081 L649.55 41.7081 L649.55 34.9026 M649.55 51.4303 L701.482 51.4303 L701.482 58.3168 L649.55 58.3168 L649.55 51.4303 Z" fill="#000000" fill-rule="evenodd" fill-opacity="1" /><path clip-path="url(#clip450)" d="M736.644 17.4837 Q730.325 17.4837 727.125 23.7221 Q723.965 29.92 723.965 42.3968 Q723.965 54.833 727.125 61.0714 Q730.325 67.2693 736.644 67.2693 Q743.004 67.2693 746.164 61.0714 Q749.364 54.833 749.364 42.3968 Q749.364 29.92 746.164 23.7221 Q743.004 17.4837 736.644 17.4837 M736.644 11.0023 Q746.812 11.0023 752.159 19.0636 Q757.547 27.0843 757.547 42.3968 Q757.547 57.6687 752.159 65.73 Q746.812 73.7508 736.644 73.7508 Q726.476 73.7508 721.089 65.73 Q715.742 57.6687 715.742 42.3968 Q715.742 27.0843 721.089 19.0636 Q726.476 11.0023 736.644 11.0023 Z" fill="#000000" fill-rule="evenodd" fill-opacity="1" /><path clip-path="url(#clip450)" d="M771.928 62.2867 L780.475 62.2867 L780.475 72.576 L771.928 72.576 L771.928 62.2867 Z" fill="#000000" fill-rule="evenodd" fill-opacity="1" /><path clip-path="url(#clip450)" d="M799.717 65.6895 L813.085 65.6895 L813.085 19.5497 L798.542 22.4663 L798.542 15.0127 L813.004 12.096 L821.187 12.096 L821.187 65.6895 L834.555 65.6895 L834.555 72.576 L799.717 72.576 L799.717 65.6895 Z" fill="#000000" fill-rule="evenodd" fill-opacity="1" /><path clip-path="url(#clip452)" d="
M325.575 139.405 L325.575 670.515 L715.093 670.515 L715.093 139.405 L325.575 139.405 L325.575 139.405  Z
  " fill="#009af9" fill-rule="evenodd" fill-opacity="1"/>
<polyline clip-path="url(#clip452)" style="stroke:#000000; stroke-linecap:butt; stroke-linejoin:round; stroke-width:4; stroke-opacity:1; fill:none" points="
  325.575,139.405 325.575,670.515 715.093,670.515 715.093,139.405 325.575,139.405 
  "/>
<path clip-path="url(#clip452)" d="
M715.093 503.632 L715.093 670.515 L1104.61 670.515 L1104.61 503.632 L715.093 503.632 L715.093 503.632  Z
  " fill="#009af9" fill-rule="evenodd" fill-opacity="1"/>
<polyline clip-path="url(#clip452)" style="stroke:#000000; stroke-linecap:butt; stroke-linejoin:round; stroke-width:4; stroke-opacity:1; fill:none" points="
  715.093,503.632 715.093,670.515 1104.61,670.515 1104.61,503.632 715.093,503.632 
  "/>
<circle clip-path="url(#clip452)" style="fill:#009af9; stroke:none; fill-opacity:0" cx="520.334" cy="139.405" r="2"/>
<circle clip-path="url(#clip452)" style="fill:#009af9; stroke:none; fill-opacity:0" cx="909.852" cy="503.632" r="2"/>
<path clip-path="url(#clip450)" d="
M1477.43 686.448 L2352.76 686.448 L2352.76 123.472 L1477.43 123.472  Z
  " fill="#ffffff" fill-rule="evenodd" fill-opacity="1"/>
<defs>
  <clipPath id="clip453">
    <rect x="1477" y="123" width="876" height="564"/>
  </clipPath>
</defs>
<polyline clip-path="url(#clip453)" style="stroke:#000000; stroke-linecap:butt; stroke-linejoin:round; stroke-width:2; stroke-opacity:0.1; fill:none" points="
  1525.58,686.448 1525.58,123.472 
  "/>
<polyline clip-path="url(#clip453)" style="stroke:#000000; stroke-linecap:butt; stroke-linejoin:round; stroke-width:2; stroke-opacity:0.1; fill:none" points="
  1915.09,686.448 1915.09,123.472 
  "/>
<polyline clip-path="url(#clip450)" style="stroke:#000000; stroke-linecap:butt; stroke-linejoin:round; stroke-width:4; stroke-opacity:1; fill:none" points="
  1477.43,686.448 2352.76,686.448 
  "/>
<polyline clip-path="url(#clip450)" style="stroke:#000000; stroke-linecap:butt; stroke-linejoin:round; stroke-width:4; stroke-opacity:1; fill:none" points="
  1525.58,686.448 1525.58,667.55 
  "/>
<polyline clip-path="url(#clip450)" style="stroke:#000000; stroke-linecap:butt; stroke-linejoin:round; stroke-width:4; stroke-opacity:1; fill:none" points="
  1915.09,686.448 1915.09,667.55 
  "/>
<path clip-path="url(#clip450)" d="M1487.5 712.83 L1487.5 716.371 L1483.42 716.371 Q1481.13 716.371 1480.23 717.297 Q1479.35 718.223 1479.35 720.63 L1479.35 722.922 L1486.36 722.922 L1486.36 726.232 L1479.35 726.232 L1479.35 748.848 L1475.07 748.848 L1475.07 726.232 L1470.99 726.232 L1470.99 722.922 L1475.07 722.922 L1475.07 721.117 Q1475.07 716.788 1477.08 714.82 Q1479.09 712.83 1483.47 712.83 L1487.5 712.83 Z" fill="#000000" fill-rule="evenodd" fill-opacity="1" /><path clip-path="url(#clip450)" d="M1502.84 735.816 Q1497.68 735.816 1495.69 736.996 Q1493.7 738.177 1493.7 741.024 Q1493.7 743.292 1495.18 744.635 Q1496.69 745.954 1499.26 745.954 Q1502.8 745.954 1504.93 743.454 Q1507.08 740.931 1507.08 736.765 L1507.08 735.816 L1502.84 735.816 M1511.34 734.056 L1511.34 748.848 L1507.08 748.848 L1507.08 744.913 Q1505.62 747.274 1503.45 748.408 Q1501.27 749.519 1498.12 749.519 Q1494.14 749.519 1491.78 747.297 Q1489.44 745.052 1489.44 741.302 Q1489.44 736.927 1492.36 734.704 Q1495.3 732.482 1501.11 732.482 L1507.08 732.482 L1507.08 732.066 Q1507.08 729.126 1505.14 727.529 Q1503.21 725.908 1499.72 725.908 Q1497.5 725.908 1495.39 726.441 Q1493.28 726.973 1491.34 728.038 L1491.34 724.103 Q1493.68 723.2 1495.88 722.76 Q1498.08 722.297 1500.16 722.297 Q1505.78 722.297 1508.56 725.214 Q1511.34 728.13 1511.34 734.056 Z" fill="#000000" fill-rule="evenodd" fill-opacity="1" /><path clip-path="url(#clip450)" d="M1520.11 712.83 L1524.37 712.83 L1524.37 748.848 L1520.11 748.848 L1520.11 712.83 Z" fill="#000000" fill-rule="evenodd" fill-opacity="1" /><path clip-path="url(#clip450)" d="M1549.81 723.686 L1549.81 727.714 Q1548.01 726.788 1546.06 726.325 Q1544.12 725.862 1542.03 725.862 Q1538.86 725.862 1537.27 726.834 Q1535.69 727.806 1535.69 729.751 Q1535.69 731.232 1536.83 732.089 Q1537.96 732.922 1541.39 733.686 L1542.84 734.01 Q1547.38 734.982 1549.28 736.765 Q1551.2 738.524 1551.2 741.695 Q1551.2 745.306 1548.33 747.413 Q1545.48 749.519 1540.48 749.519 Q1538.4 749.519 1536.13 749.103 Q1533.89 748.709 1531.39 747.899 L1531.39 743.501 Q1533.75 744.728 1536.04 745.353 Q1538.33 745.954 1540.58 745.954 Q1543.58 745.954 1545.2 744.936 Q1546.83 743.894 1546.83 742.019 Q1546.83 740.283 1545.64 739.357 Q1544.49 738.431 1540.53 737.575 L1539.05 737.228 Q1535.09 736.394 1533.33 734.681 Q1531.57 732.945 1531.57 729.936 Q1531.57 726.279 1534.16 724.288 Q1536.76 722.297 1541.52 722.297 Q1543.89 722.297 1545.97 722.644 Q1548.05 722.992 1549.81 723.686 Z" fill="#000000" fill-rule="evenodd" fill-opacity="1" /><path clip-path="url(#clip450)" d="M1580.16 734.82 L1580.16 736.903 L1560.58 736.903 Q1560.85 741.302 1563.21 743.616 Q1565.6 745.908 1569.83 745.908 Q1572.29 745.908 1574.58 745.306 Q1576.89 744.704 1579.16 743.501 L1579.16 747.528 Q1576.87 748.501 1574.46 749.01 Q1572.06 749.519 1569.58 749.519 Q1563.38 749.519 1559.74 745.908 Q1556.13 742.297 1556.13 736.14 Q1556.13 729.774 1559.56 726.047 Q1563.01 722.297 1568.84 722.297 Q1574.07 722.297 1577.1 725.677 Q1580.16 729.033 1580.16 734.82 M1575.9 733.57 Q1575.85 730.075 1573.93 727.992 Q1572.03 725.908 1568.89 725.908 Q1565.32 725.908 1563.17 727.922 Q1561.04 729.936 1560.71 733.593 L1575.9 733.57 Z" fill="#000000" fill-rule="evenodd" fill-opacity="1" /><path clip-path="url(#clip450)" d="M1875.75 715.561 L1875.75 722.922 L1884.53 722.922 L1884.53 726.232 L1875.75 726.232 L1875.75 740.306 Q1875.75 743.478 1876.61 744.38 Q1877.49 745.283 1880.15 745.283 L1884.53 745.283 L1884.53 748.848 L1880.15 748.848 Q1875.22 748.848 1873.35 747.019 Q1871.47 745.167 1871.47 740.306 L1871.47 726.232 L1868.35 726.232 L1868.35 722.922 L1871.47 722.922 L1871.47 715.561 L1875.75 715.561 Z" fill="#000000" fill-rule="evenodd" fill-opacity="1" /><path clip-path="url(#clip450)" d="M1905.15 726.904 Q1904.43 726.487 1903.58 726.302 Q1902.74 726.093 1901.73 726.093 Q1898.11 726.093 1896.17 728.454 Q1894.25 730.792 1894.25 735.191 L1894.25 748.848 L1889.97 748.848 L1889.97 722.922 L1894.25 722.922 L1894.25 726.95 Q1895.59 724.589 1897.74 723.454 Q1899.9 722.297 1902.98 722.297 Q1903.42 722.297 1903.95 722.367 Q1904.48 722.413 1905.13 722.529 L1905.15 726.904 Z" fill="#000000" fill-rule="evenodd" fill-opacity="1" /><path clip-path="url(#clip450)" d="M1909.18 738.616 L1909.18 722.922 L1913.44 722.922 L1913.44 738.454 Q1913.44 742.135 1914.87 743.987 Q1916.31 745.815 1919.18 745.815 Q1922.63 745.815 1924.62 743.616 Q1926.63 741.417 1926.63 737.621 L1926.63 722.922 L1930.89 722.922 L1930.89 748.848 L1926.63 748.848 L1926.63 744.866 Q1925.08 747.228 1923.02 748.385 Q1920.98 749.519 1918.28 749.519 Q1913.81 749.519 1911.49 746.741 Q1909.18 743.964 1909.18 738.616 M1919.9 722.297 L1919.9 722.297 Z" fill="#000000" fill-rule="evenodd" fill-opacity="1" /><path clip-path="url(#clip450)" d="M1961.84 734.82 L1961.84 736.903 L1942.26 736.903 Q1942.54 741.302 1944.9 743.616 Q1947.28 745.908 1951.52 745.908 Q1953.97 745.908 1956.26 745.306 Q1958.58 744.704 1960.85 743.501 L1960.85 747.528 Q1958.55 748.501 1956.15 749.01 Q1953.74 749.519 1951.26 749.519 Q1945.06 749.519 1941.42 745.908 Q1937.81 742.297 1937.81 736.14 Q1937.81 729.774 1941.24 726.047 Q1944.69 722.297 1950.52 722.297 Q1955.75 722.297 1958.79 725.677 Q1961.84 729.033 1961.84 734.82 M1957.58 733.57 Q1957.54 730.075 1955.61 727.992 Q1953.72 725.908 1950.57 725.908 Q1947 725.908 1944.85 727.922 Q1942.72 729.936 1942.4 733.593 L1957.58 733.57 Z" fill="#000000" fill-rule="evenodd" fill-opacity="1" /><polyline clip-path="url(#clip453)" style="stroke:#000000; stroke-linecap:butt; stroke-linejoin:round; stroke-width:2; stroke-opacity:0.1; fill:none" points="
  1477.43,670.515 2352.76,670.515 
  "/>
<polyline clip-path="url(#clip453)" style="stroke:#000000; stroke-linecap:butt; stroke-linejoin:round; stroke-width:2; stroke-opacity:0.1; fill:none" points="
  1477.43,526.674 2352.76,526.674 
  "/>
<polyline clip-path="url(#clip453)" style="stroke:#000000; stroke-linecap:butt; stroke-linejoin:round; stroke-width:2; stroke-opacity:0.1; fill:none" points="
  1477.43,382.834 2352.76,382.834 
  "/>
<polyline clip-path="url(#clip453)" style="stroke:#000000; stroke-linecap:butt; stroke-linejoin:round; stroke-width:2; stroke-opacity:0.1; fill:none" points="
  1477.43,238.993 2352.76,238.993 
  "/>
<polyline clip-path="url(#clip450)" style="stroke:#000000; stroke-linecap:butt; stroke-linejoin:round; stroke-width:4; stroke-opacity:1; fill:none" points="
  1477.43,686.448 1477.43,123.472 
  "/>
<polyline clip-path="url(#clip450)" style="stroke:#000000; stroke-linecap:butt; stroke-linejoin:round; stroke-width:4; stroke-opacity:1; fill:none" points="
  1477.43,670.515 1496.33,670.515 
  "/>
<polyline clip-path="url(#clip450)" style="stroke:#000000; stroke-linecap:butt; stroke-linejoin:round; stroke-width:4; stroke-opacity:1; fill:none" points="
  1477.43,526.674 1496.33,526.674 
  "/>
<polyline clip-path="url(#clip450)" style="stroke:#000000; stroke-linecap:butt; stroke-linejoin:round; stroke-width:4; stroke-opacity:1; fill:none" points="
  1477.43,382.834 1496.33,382.834 
  "/>
<polyline clip-path="url(#clip450)" style="stroke:#000000; stroke-linecap:butt; stroke-linejoin:round; stroke-width:4; stroke-opacity:1; fill:none" points="
  1477.43,238.993 1496.33,238.993 
  "/>
<path clip-path="url(#clip450)" d="M1429.49 656.313 Q1425.88 656.313 1424.05 659.878 Q1422.24 663.42 1422.24 670.549 Q1422.24 677.656 1424.05 681.221 Q1425.88 684.762 1429.49 684.762 Q1433.12 684.762 1434.93 681.221 Q1436.76 677.656 1436.76 670.549 Q1436.76 663.42 1434.93 659.878 Q1433.12 656.313 1429.49 656.313 M1429.49 652.61 Q1435.3 652.61 1438.35 657.216 Q1441.43 661.799 1441.43 670.549 Q1441.43 679.276 1438.35 683.883 Q1435.3 688.466 1429.49 688.466 Q1423.68 688.466 1420.6 683.883 Q1417.54 679.276 1417.54 670.549 Q1417.54 661.799 1420.6 657.216 Q1423.68 652.61 1429.49 652.61 Z" fill="#000000" fill-rule="evenodd" fill-opacity="1" /><path clip-path="url(#clip450)" d="M1257.77 546.467 L1274.09 546.467 L1274.09 550.402 L1252.15 550.402 L1252.15 546.467 Q1254.81 543.712 1259.39 539.082 Q1264 534.43 1265.18 533.087 Q1267.43 530.564 1268.31 528.828 Q1269.21 527.069 1269.21 525.379 Q1269.21 522.624 1267.27 520.888 Q1265.34 519.152 1262.24 519.152 Q1260.04 519.152 1257.59 519.916 Q1255.16 520.68 1252.38 522.231 L1252.38 517.508 Q1255.21 516.374 1257.66 515.795 Q1260.11 515.217 1262.15 515.217 Q1267.52 515.217 1270.71 517.902 Q1273.91 520.587 1273.91 525.078 Q1273.91 527.207 1273.1 529.129 Q1272.31 531.027 1270.2 533.619 Q1269.63 534.291 1266.52 537.508 Q1263.42 540.703 1257.77 546.467 Z" fill="#000000" fill-rule="evenodd" fill-opacity="1" /><path clip-path="url(#clip450)" d="M1283.91 544.522 L1288.79 544.522 L1288.79 550.402 L1283.91 550.402 L1283.91 544.522 Z" fill="#000000" fill-rule="evenodd" fill-opacity="1" /><path clip-path="url(#clip450)" d="M1308.98 518.92 Q1305.37 518.92 1303.54 522.485 Q1301.73 526.027 1301.73 533.156 Q1301.73 540.263 1303.54 543.828 Q1305.37 547.369 1308.98 547.369 Q1312.61 547.369 1314.42 543.828 Q1316.25 540.263 1316.25 533.156 Q1316.25 526.027 1314.42 522.485 Q1312.61 518.92 1308.98 518.92 M1308.98 515.217 Q1314.79 515.217 1317.84 519.823 Q1320.92 524.407 1320.92 533.156 Q1320.92 541.883 1317.84 546.49 Q1314.79 551.073 1308.98 551.073 Q1303.17 551.073 1300.09 546.49 Q1297.03 541.883 1297.03 533.156 Q1297.03 524.407 1300.09 519.823 Q1303.17 515.217 1308.98 515.217 Z" fill="#000000" fill-rule="evenodd" fill-opacity="1" /><path clip-path="url(#clip450)" d="M1357.31 524.939 L1346.73 535.564 L1357.31 546.143 L1354.56 548.943 L1343.93 538.319 L1333.31 548.943 L1330.58 546.143 L1341.13 535.564 L1330.58 524.939 L1333.31 522.138 L1343.93 532.763 L1354.56 522.138 L1357.31 524.939 Z" fill="#000000" fill-rule="evenodd" fill-opacity="1" /><path clip-path="url(#clip450)" d="M1369.67 546.467 L1377.31 546.467 L1377.31 520.101 L1369 521.768 L1369 517.508 L1377.26 515.842 L1381.94 515.842 L1381.94 546.467 L1389.58 546.467 L1389.58 550.402 L1369.67 550.402 L1369.67 546.467 Z" fill="#000000" fill-rule="evenodd" fill-opacity="1" /><path clip-path="url(#clip450)" d="M1409.02 518.92 Q1405.41 518.92 1403.58 522.485 Q1401.78 526.027 1401.78 533.156 Q1401.78 540.263 1403.58 543.828 Q1405.41 547.369 1409.02 547.369 Q1412.66 547.369 1414.46 543.828 Q1416.29 540.263 1416.29 533.156 Q1416.29 526.027 1414.46 522.485 Q1412.66 518.92 1409.02 518.92 M1409.02 515.217 Q1414.83 515.217 1417.89 519.823 Q1420.97 524.407 1420.97 533.156 Q1420.97 541.883 1417.89 546.49 Q1414.83 551.073 1409.02 551.073 Q1403.21 551.073 1400.13 546.49 Q1397.08 541.883 1397.08 533.156 Q1397.08 524.407 1400.13 519.823 Q1403.21 515.217 1409.02 515.217 Z" fill="#000000" fill-rule="evenodd" fill-opacity="1" /><path clip-path="url(#clip450)" d="M1433.64 498.222 L1424.05 513.211 L1433.64 513.211 L1433.64 498.222 M1432.65 494.911 L1437.42 494.911 L1437.42 513.211 L1441.43 513.211 L1441.43 516.371 L1437.42 516.371 L1437.42 522.991 L1433.64 522.991 L1433.64 516.371 L1420.97 516.371 L1420.97 512.704 L1432.65 494.911 Z" fill="#000000" fill-rule="evenodd" fill-opacity="1" /><path clip-path="url(#clip450)" d="M1266.59 376.075 L1254.79 394.524 L1266.59 394.524 L1266.59 376.075 M1265.37 372.001 L1271.25 372.001 L1271.25 394.524 L1276.18 394.524 L1276.18 398.413 L1271.25 398.413 L1271.25 406.561 L1266.59 406.561 L1266.59 398.413 L1250.99 398.413 L1250.99 393.899 L1265.37 372.001 Z" fill="#000000" fill-rule="evenodd" fill-opacity="1" /><path clip-path="url(#clip450)" d="M1283.91 400.682 L1288.79 400.682 L1288.79 406.561 L1283.91 406.561 L1283.91 400.682 Z" fill="#000000" fill-rule="evenodd" fill-opacity="1" /><path clip-path="url(#clip450)" d="M1308.98 375.08 Q1305.37 375.08 1303.54 378.645 Q1301.73 382.186 1301.73 389.316 Q1301.73 396.423 1303.54 399.987 Q1305.37 403.529 1308.98 403.529 Q1312.61 403.529 1314.42 399.987 Q1316.25 396.423 1316.25 389.316 Q1316.25 382.186 1314.42 378.645 Q1312.61 375.08 1308.98 375.08 M1308.98 371.376 Q1314.79 371.376 1317.84 375.983 Q1320.92 380.566 1320.92 389.316 Q1320.92 398.043 1317.84 402.649 Q1314.79 407.233 1308.98 407.233 Q1303.17 407.233 1300.09 402.649 Q1297.03 398.043 1297.03 389.316 Q1297.03 380.566 1300.09 375.983 Q1303.17 371.376 1308.98 371.376 Z" fill="#000000" fill-rule="evenodd" fill-opacity="1" /><path clip-path="url(#clip450)" d="M1357.31 381.099 L1346.73 391.723 L1357.31 402.302 L1354.56 405.103 L1343.93 394.478 L1333.31 405.103 L1330.58 402.302 L1341.13 391.723 L1330.58 381.099 L1333.31 378.298 L1343.93 388.923 L1354.56 378.298 L1357.31 381.099 Z" fill="#000000" fill-rule="evenodd" fill-opacity="1" /><path clip-path="url(#clip450)" d="M1369.67 402.626 L1377.31 402.626 L1377.31 376.261 L1369 377.927 L1369 373.668 L1377.26 372.001 L1381.94 372.001 L1381.94 402.626 L1389.58 402.626 L1389.58 406.561 L1369.67 406.561 L1369.67 402.626 Z" fill="#000000" fill-rule="evenodd" fill-opacity="1" /><path clip-path="url(#clip450)" d="M1409.02 375.08 Q1405.41 375.08 1403.58 378.645 Q1401.78 382.186 1401.78 389.316 Q1401.78 396.423 1403.58 399.987 Q1405.41 403.529 1409.02 403.529 Q1412.66 403.529 1414.46 399.987 Q1416.29 396.423 1416.29 389.316 Q1416.29 382.186 1414.46 378.645 Q1412.66 375.08 1409.02 375.08 M1409.02 371.376 Q1414.83 371.376 1417.89 375.983 Q1420.97 380.566 1420.97 389.316 Q1420.97 398.043 1417.89 402.649 Q1414.83 407.233 1409.02 407.233 Q1403.21 407.233 1400.13 402.649 Q1397.08 398.043 1397.08 389.316 Q1397.08 380.566 1400.13 375.983 Q1403.21 371.376 1409.02 371.376 Z" fill="#000000" fill-rule="evenodd" fill-opacity="1" /><path clip-path="url(#clip450)" d="M1433.64 354.381 L1424.05 369.371 L1433.64 369.371 L1433.64 354.381 M1432.65 351.071 L1437.42 351.071 L1437.42 369.371 L1441.43 369.371 L1441.43 372.531 L1437.42 372.531 L1437.42 379.151 L1433.64 379.151 L1433.64 372.531 L1420.97 372.531 L1420.97 368.863 L1432.65 351.071 Z" fill="#000000" fill-rule="evenodd" fill-opacity="1" /><path clip-path="url(#clip450)" d="M1264.33 243.578 Q1261.18 243.578 1259.33 245.73 Q1257.5 247.883 1257.5 251.633 Q1257.5 255.36 1259.33 257.536 Q1261.18 259.689 1264.33 259.689 Q1267.47 259.689 1269.3 257.536 Q1271.15 255.36 1271.15 251.633 Q1271.15 247.883 1269.3 245.73 Q1267.47 243.578 1264.33 243.578 M1273.61 228.925 L1273.61 233.184 Q1271.85 232.351 1270.04 231.911 Q1268.26 231.471 1266.5 231.471 Q1261.87 231.471 1259.42 234.596 Q1256.99 237.721 1256.64 244.04 Q1258.01 242.027 1260.07 240.962 Q1262.13 239.874 1264.6 239.874 Q1269.81 239.874 1272.82 243.045 Q1275.85 246.193 1275.85 251.633 Q1275.85 256.957 1272.7 260.175 Q1269.56 263.392 1264.33 263.392 Q1258.33 263.392 1255.16 258.809 Q1251.99 254.202 1251.99 245.476 Q1251.99 237.281 1255.88 232.42 Q1259.77 227.536 1266.32 227.536 Q1268.08 227.536 1269.86 227.883 Q1271.66 228.23 1273.61 228.925 Z" fill="#000000" fill-rule="evenodd" fill-opacity="1" /><path clip-path="url(#clip450)" d="M1283.91 256.841 L1288.79 256.841 L1288.79 262.721 L1283.91 262.721 L1283.91 256.841 Z" fill="#000000" fill-rule="evenodd" fill-opacity="1" /><path clip-path="url(#clip450)" d="M1308.98 231.24 Q1305.37 231.24 1303.54 234.804 Q1301.73 238.346 1301.73 245.476 Q1301.73 252.582 1303.54 256.147 Q1305.37 259.689 1308.98 259.689 Q1312.61 259.689 1314.42 256.147 Q1316.25 252.582 1316.25 245.476 Q1316.25 238.346 1314.42 234.804 Q1312.61 231.24 1308.98 231.24 M1308.98 227.536 Q1314.79 227.536 1317.84 232.142 Q1320.92 236.726 1320.92 245.476 Q1320.92 254.202 1317.84 258.809 Q1314.79 263.392 1308.98 263.392 Q1303.17 263.392 1300.09 258.809 Q1297.03 254.202 1297.03 245.476 Q1297.03 236.726 1300.09 232.142 Q1303.17 227.536 1308.98 227.536 Z" fill="#000000" fill-rule="evenodd" fill-opacity="1" /><path clip-path="url(#clip450)" d="M1357.31 237.258 L1346.73 247.883 L1357.31 258.462 L1354.56 261.263 L1343.93 250.638 L1333.31 261.263 L1330.58 258.462 L1341.13 247.883 L1330.58 237.258 L1333.31 234.457 L1343.93 245.082 L1354.56 234.457 L1357.31 237.258 Z" fill="#000000" fill-rule="evenodd" fill-opacity="1" /><path clip-path="url(#clip450)" d="M1369.67 258.786 L1377.31 258.786 L1377.31 232.42 L1369 234.087 L1369 229.828 L1377.26 228.161 L1381.94 228.161 L1381.94 258.786 L1389.58 258.786 L1389.58 262.721 L1369.67 262.721 L1369.67 258.786 Z" fill="#000000" fill-rule="evenodd" fill-opacity="1" /><path clip-path="url(#clip450)" d="M1409.02 231.24 Q1405.41 231.24 1403.58 234.804 Q1401.78 238.346 1401.78 245.476 Q1401.78 252.582 1403.58 256.147 Q1405.41 259.689 1409.02 259.689 Q1412.66 259.689 1414.46 256.147 Q1416.29 252.582 1416.29 245.476 Q1416.29 238.346 1414.46 234.804 Q1412.66 231.24 1409.02 231.24 M1409.02 227.536 Q1414.83 227.536 1417.89 232.142 Q1420.97 236.726 1420.97 245.476 Q1420.97 254.202 1417.89 258.809 Q1414.83 263.392 1409.02 263.392 Q1403.21 263.392 1400.13 258.809 Q1397.08 254.202 1397.08 245.476 Q1397.08 236.726 1400.13 232.142 Q1403.21 227.536 1409.02 227.536 Z" fill="#000000" fill-rule="evenodd" fill-opacity="1" /><path clip-path="url(#clip450)" d="M1433.64 210.541 L1424.05 225.53 L1433.64 225.53 L1433.64 210.541 M1432.65 207.231 L1437.42 207.231 L1437.42 225.53 L1441.43 225.53 L1441.43 228.69 L1437.42 228.69 L1437.42 235.311 L1433.64 235.311 L1433.64 228.69 L1420.97 228.69 L1420.97 225.023 L1432.65 207.231 Z" fill="#000000" fill-rule="evenodd" fill-opacity="1" /><path clip-path="url(#clip450)" d="M1802.92 65.7705 L1802.92 89.8329 L1795.43 89.8329 L1795.43 27.2059 L1802.92 27.2059 L1802.92 34.0924 Q1805.27 30.0415 1808.84 28.0971 Q1812.44 26.1121 1817.43 26.1121 Q1825.69 26.1121 1830.83 32.6746 Q1836.02 39.2371 1836.02 49.9314 Q1836.02 60.6258 1830.83 67.1883 Q1825.69 73.7508 1817.43 73.7508 Q1812.44 73.7508 1808.84 71.8063 Q1805.27 69.8214 1802.92 65.7705 M1828.28 49.9314 Q1828.28 41.7081 1824.88 37.0496 Q1821.52 32.3505 1815.6 32.3505 Q1809.69 32.3505 1806.29 37.0496 Q1802.92 41.7081 1802.92 49.9314 Q1802.92 58.1548 1806.29 62.8538 Q1809.69 67.5124 1815.6 67.5124 Q1821.52 67.5124 1824.88 62.8538 Q1828.28 58.1548 1828.28 49.9314 Z" fill="#000000" fill-rule="evenodd" fill-opacity="1" /><path clip-path="url(#clip450)" d="M1849.35 34.9026 L1901.28 34.9026 L1901.28 41.7081 L1849.35 41.7081 L1849.35 34.9026 M1849.35 51.4303 L1901.28 51.4303 L1901.28 58.3168 L1849.35 58.3168 L1849.35 51.4303 Z" fill="#000000" fill-rule="evenodd" fill-opacity="1" /><path clip-path="url(#clip450)" d="M1936.44 17.4837 Q1930.12 17.4837 1926.92 23.7221 Q1923.76 29.92 1923.76 42.3968 Q1923.76 54.833 1926.92 61.0714 Q1930.12 67.2693 1936.44 67.2693 Q1942.8 67.2693 1945.96 61.0714 Q1949.16 54.833 1949.16 42.3968 Q1949.16 29.92 1945.96 23.7221 Q1942.8 17.4837 1936.44 17.4837 M1936.44 11.0023 Q1946.61 11.0023 1951.96 19.0636 Q1957.34 27.0843 1957.34 42.3968 Q1957.34 57.6687 1951.96 65.73 Q1946.61 73.7508 1936.44 73.7508 Q1926.27 73.7508 1920.89 65.73 Q1915.54 57.6687 1915.54 42.3968 Q1915.54 27.0843 1920.89 19.0636 Q1926.27 11.0023 1936.44 11.0023 Z" fill="#000000" fill-rule="evenodd" fill-opacity="1" /><path clip-path="url(#clip450)" d="M1971.73 62.2867 L1980.27 62.2867 L1980.27 72.576 L1971.73 72.576 L1971.73 62.2867 Z" fill="#000000" fill-rule="evenodd" fill-opacity="1" /><path clip-path="url(#clip450)" d="M1998.18 12.096 L2030.3 12.096 L2030.3 18.9825 L2005.67 18.9825 L2005.67 33.8088 Q2007.45 33.2012 2009.24 32.9176 Q2011.02 32.5936 2012.8 32.5936 Q2022.93 32.5936 2028.84 38.1433 Q2034.76 43.6931 2034.76 53.1722 Q2034.76 62.9348 2028.68 68.3631 Q2022.6 73.7508 2011.55 73.7508 Q2007.74 73.7508 2003.77 73.1026 Q1999.84 72.4545 1995.63 71.1582 L1995.63 62.9348 Q1999.27 64.9198 2003.16 65.892 Q2007.05 66.8642 2011.38 66.8642 Q2018.39 66.8642 2022.48 63.1779 Q2026.57 59.4916 2026.57 53.1722 Q2026.57 46.8528 2022.48 43.1664 Q2018.39 39.4801 2011.38 39.4801 Q2008.1 39.4801 2004.82 40.2093 Q2001.58 40.9384 1998.18 42.4778 L1998.18 12.096 Z" fill="#000000" fill-rule="evenodd" fill-opacity="1" /><path clip-path="url(#clip453)" d="
M1525.58 482.422 L1525.58 670.515 L1915.09 670.515 L1915.09 482.422 L1525.58 482.422 L1525.58 482.422  Z
  " fill="#009af9" fill-rule="evenodd" fill-opacity="1"/>
<polyline clip-path="url(#clip453)" style="stroke:#000000; stroke-linecap:butt; stroke-linejoin:round; stroke-width:4; stroke-opacity:1; fill:none" points="
  1525.58,482.422 1525.58,670.515 1915.09,670.515 1915.09,482.422 1525.58,482.422 
  "/>
<path clip-path="url(#clip453)" d="
M1915.09 139.405 L1915.09 670.515 L2304.61 670.515 L2304.61 139.405 L1915.09 139.405 L1915.09 139.405  Z
  " fill="#009af9" fill-rule="evenodd" fill-opacity="1"/>
<polyline clip-path="url(#clip453)" style="stroke:#000000; stroke-linecap:butt; stroke-linejoin:round; stroke-width:4; stroke-opacity:1; fill:none" points="
  1915.09,139.405 1915.09,670.515 2304.61,670.515 2304.61,139.405 1915.09,139.405 
  "/>
<circle clip-path="url(#clip453)" style="fill:#009af9; stroke:none; fill-opacity:0" cx="1720.33" cy="482.422" r="2"/>
<circle clip-path="url(#clip453)" style="fill:#009af9; stroke:none; fill-opacity:0" cx="2109.85" cy="139.405" r="2"/>
<path clip-path="url(#clip450)" d="
M277.431 1486.45 L1152.76 1486.45 L1152.76 923.472 L277.431 923.472  Z
  " fill="#ffffff" fill-rule="evenodd" fill-opacity="1"/>
<defs>
  <clipPath id="clip454">
    <rect x="277" y="923" width="876" height="564"/>
  </clipPath>
</defs>
<polyline clip-path="url(#clip454)" style="stroke:#000000; stroke-linecap:butt; stroke-linejoin:round; stroke-width:2; stroke-opacity:0.1; fill:none" points="
  325.575,1486.45 325.575,923.472 
  "/>
<polyline clip-path="url(#clip454)" style="stroke:#000000; stroke-linecap:butt; stroke-linejoin:round; stroke-width:2; stroke-opacity:0.1; fill:none" points="
  715.093,1486.45 715.093,923.472 
  "/>
<polyline clip-path="url(#clip450)" style="stroke:#000000; stroke-linecap:butt; stroke-linejoin:round; stroke-width:4; stroke-opacity:1; fill:none" points="
  277.431,1486.45 1152.76,1486.45 
  "/>
<polyline clip-path="url(#clip450)" style="stroke:#000000; stroke-linecap:butt; stroke-linejoin:round; stroke-width:4; stroke-opacity:1; fill:none" points="
  325.575,1486.45 325.575,1467.55 
  "/>
<polyline clip-path="url(#clip450)" style="stroke:#000000; stroke-linecap:butt; stroke-linejoin:round; stroke-width:4; stroke-opacity:1; fill:none" points="
  715.093,1486.45 715.093,1467.55 
  "/>
<path clip-path="url(#clip450)" d="M287.497 1512.83 L287.497 1516.37 L283.423 1516.37 Q281.131 1516.37 280.228 1517.3 Q279.349 1518.22 279.349 1520.63 L279.349 1522.92 L286.363 1522.92 L286.363 1526.23 L279.349 1526.23 L279.349 1548.85 L275.066 1548.85 L275.066 1526.23 L270.992 1526.23 L270.992 1522.92 L275.066 1522.92 L275.066 1521.12 Q275.066 1516.79 277.08 1514.82 Q279.094 1512.83 283.469 1512.83 L287.497 1512.83 Z" fill="#000000" fill-rule="evenodd" fill-opacity="1" /><path clip-path="url(#clip450)" d="M302.844 1535.82 Q297.682 1535.82 295.691 1537 Q293.701 1538.18 293.701 1541.02 Q293.701 1543.29 295.182 1544.63 Q296.687 1545.95 299.256 1545.95 Q302.798 1545.95 304.927 1543.45 Q307.08 1540.93 307.08 1536.76 L307.08 1535.82 L302.844 1535.82 M311.339 1534.06 L311.339 1548.85 L307.08 1548.85 L307.08 1544.91 Q305.622 1547.27 303.446 1548.41 Q301.27 1549.52 298.122 1549.52 Q294.14 1549.52 291.779 1547.3 Q289.441 1545.05 289.441 1541.3 Q289.441 1536.93 292.358 1534.7 Q295.298 1532.48 301.108 1532.48 L307.08 1532.48 L307.08 1532.07 Q307.08 1529.13 305.136 1527.53 Q303.214 1525.91 299.719 1525.91 Q297.497 1525.91 295.39 1526.44 Q293.284 1526.97 291.339 1528.04 L291.339 1524.1 Q293.677 1523.2 295.876 1522.76 Q298.075 1522.3 300.159 1522.3 Q305.784 1522.3 308.562 1525.21 Q311.339 1528.13 311.339 1534.06 Z" fill="#000000" fill-rule="evenodd" fill-opacity="1" /><path clip-path="url(#clip450)" d="M320.112 1512.83 L324.372 1512.83 L324.372 1548.85 L320.112 1548.85 L320.112 1512.83 Z" fill="#000000" fill-rule="evenodd" fill-opacity="1" /><path clip-path="url(#clip450)" d="M349.811 1523.69 L349.811 1527.71 Q348.006 1526.79 346.061 1526.32 Q344.117 1525.86 342.034 1525.86 Q338.862 1525.86 337.265 1526.83 Q335.691 1527.81 335.691 1529.75 Q335.691 1531.23 336.825 1532.09 Q337.96 1532.92 341.385 1533.69 L342.844 1534.01 Q347.381 1534.98 349.279 1536.76 Q351.2 1538.52 351.2 1541.7 Q351.2 1545.31 348.33 1547.41 Q345.483 1549.52 340.483 1549.52 Q338.399 1549.52 336.131 1549.1 Q333.885 1548.71 331.386 1547.9 L331.386 1543.5 Q333.747 1544.73 336.038 1545.35 Q338.33 1545.95 340.575 1545.95 Q343.585 1545.95 345.205 1544.94 Q346.825 1543.89 346.825 1542.02 Q346.825 1540.28 345.645 1539.36 Q344.487 1538.43 340.529 1537.57 L339.048 1537.23 Q335.089 1536.39 333.33 1534.68 Q331.571 1532.95 331.571 1529.94 Q331.571 1526.28 334.163 1524.29 Q336.756 1522.3 341.524 1522.3 Q343.885 1522.3 345.969 1522.64 Q348.052 1522.99 349.811 1523.69 Z" fill="#000000" fill-rule="evenodd" fill-opacity="1" /><path clip-path="url(#clip450)" d="M380.158 1534.82 L380.158 1536.9 L360.575 1536.9 Q360.853 1541.3 363.214 1543.62 Q365.598 1545.91 369.834 1545.91 Q372.288 1545.91 374.58 1545.31 Q376.895 1544.7 379.163 1543.5 L379.163 1547.53 Q376.871 1548.5 374.464 1549.01 Q372.057 1549.52 369.58 1549.52 Q363.376 1549.52 359.742 1545.91 Q356.131 1542.3 356.131 1536.14 Q356.131 1529.77 359.557 1526.05 Q363.006 1522.3 368.839 1522.3 Q374.07 1522.3 377.103 1525.68 Q380.158 1529.03 380.158 1534.82 M375.899 1533.57 Q375.853 1530.07 373.932 1527.99 Q372.033 1525.91 368.885 1525.91 Q365.321 1525.91 363.168 1527.92 Q361.038 1529.94 360.714 1533.59 L375.899 1533.57 Z" fill="#000000" fill-rule="evenodd" fill-opacity="1" /><path clip-path="url(#clip450)" d="M675.753 1515.56 L675.753 1522.92 L684.526 1522.92 L684.526 1526.23 L675.753 1526.23 L675.753 1540.31 Q675.753 1543.48 676.61 1544.38 Q677.489 1545.28 680.151 1545.28 L684.526 1545.28 L684.526 1548.85 L680.151 1548.85 Q675.221 1548.85 673.346 1547.02 Q671.471 1545.17 671.471 1540.31 L671.471 1526.23 L668.346 1526.23 L668.346 1522.92 L671.471 1522.92 L671.471 1515.56 L675.753 1515.56 Z" fill="#000000" fill-rule="evenodd" fill-opacity="1" /><path clip-path="url(#clip450)" d="M705.151 1526.9 Q704.434 1526.49 703.577 1526.3 Q702.744 1526.09 701.725 1526.09 Q698.114 1526.09 696.17 1528.45 Q694.249 1530.79 694.249 1535.19 L694.249 1548.85 L689.966 1548.85 L689.966 1522.92 L694.249 1522.92 L694.249 1526.95 Q695.591 1524.59 697.744 1523.45 Q699.897 1522.3 702.975 1522.3 Q703.415 1522.3 703.948 1522.37 Q704.48 1522.41 705.128 1522.53 L705.151 1526.9 Z" fill="#000000" fill-rule="evenodd" fill-opacity="1" /><path clip-path="url(#clip450)" d="M709.179 1538.62 L709.179 1522.92 L713.438 1522.92 L713.438 1538.45 Q713.438 1542.13 714.874 1543.99 Q716.309 1545.82 719.179 1545.82 Q722.628 1545.82 724.619 1543.62 Q726.633 1541.42 726.633 1537.62 L726.633 1522.92 L730.892 1522.92 L730.892 1548.85 L726.633 1548.85 L726.633 1544.87 Q725.082 1547.23 723.022 1548.38 Q720.985 1549.52 718.276 1549.52 Q713.809 1549.52 711.494 1546.74 Q709.179 1543.96 709.179 1538.62 M719.897 1522.3 L719.897 1522.3 Z" fill="#000000" fill-rule="evenodd" fill-opacity="1" /><path clip-path="url(#clip450)" d="M761.841 1534.82 L761.841 1536.9 L742.258 1536.9 Q742.535 1541.3 744.896 1543.62 Q747.281 1545.91 751.517 1545.91 Q753.971 1545.91 756.262 1545.31 Q758.577 1544.7 760.845 1543.5 L760.845 1547.53 Q758.554 1548.5 756.146 1549.01 Q753.739 1549.52 751.262 1549.52 Q745.059 1549.52 741.424 1545.91 Q737.813 1542.3 737.813 1536.14 Q737.813 1529.77 741.239 1526.05 Q744.688 1522.3 750.521 1522.3 Q755.753 1522.3 758.785 1525.68 Q761.841 1529.03 761.841 1534.82 M757.582 1533.57 Q757.535 1530.07 755.614 1527.99 Q753.716 1525.91 750.568 1525.91 Q747.003 1525.91 744.85 1527.92 Q742.721 1529.94 742.397 1533.59 L757.582 1533.57 Z" fill="#000000" fill-rule="evenodd" fill-opacity="1" /><polyline clip-path="url(#clip454)" style="stroke:#000000; stroke-linecap:butt; stroke-linejoin:round; stroke-width:2; stroke-opacity:0.1; fill:none" points="
  277.431,1470.51 1152.76,1470.51 
  "/>
<polyline clip-path="url(#clip454)" style="stroke:#000000; stroke-linecap:butt; stroke-linejoin:round; stroke-width:2; stroke-opacity:0.1; fill:none" points="
  277.431,1360.1 1152.76,1360.1 
  "/>
<polyline clip-path="url(#clip454)" style="stroke:#000000; stroke-linecap:butt; stroke-linejoin:round; stroke-width:2; stroke-opacity:0.1; fill:none" points="
  277.431,1249.69 1152.76,1249.69 
  "/>
<polyline clip-path="url(#clip454)" style="stroke:#000000; stroke-linecap:butt; stroke-linejoin:round; stroke-width:2; stroke-opacity:0.1; fill:none" points="
  277.431,1139.28 1152.76,1139.28 
  "/>
<polyline clip-path="url(#clip454)" style="stroke:#000000; stroke-linecap:butt; stroke-linejoin:round; stroke-width:2; stroke-opacity:0.1; fill:none" points="
  277.431,1028.87 1152.76,1028.87 
  "/>
<polyline clip-path="url(#clip450)" style="stroke:#000000; stroke-linecap:butt; stroke-linejoin:round; stroke-width:4; stroke-opacity:1; fill:none" points="
  277.431,1486.45 277.431,923.472 
  "/>
<polyline clip-path="url(#clip450)" style="stroke:#000000; stroke-linecap:butt; stroke-linejoin:round; stroke-width:4; stroke-opacity:1; fill:none" points="
  277.431,1470.51 296.329,1470.51 
  "/>
<polyline clip-path="url(#clip450)" style="stroke:#000000; stroke-linecap:butt; stroke-linejoin:round; stroke-width:4; stroke-opacity:1; fill:none" points="
  277.431,1360.1 296.329,1360.1 
  "/>
<polyline clip-path="url(#clip450)" style="stroke:#000000; stroke-linecap:butt; stroke-linejoin:round; stroke-width:4; stroke-opacity:1; fill:none" points="
  277.431,1249.69 296.329,1249.69 
  "/>
<polyline clip-path="url(#clip450)" style="stroke:#000000; stroke-linecap:butt; stroke-linejoin:round; stroke-width:4; stroke-opacity:1; fill:none" points="
  277.431,1139.28 296.329,1139.28 
  "/>
<polyline clip-path="url(#clip450)" style="stroke:#000000; stroke-linecap:butt; stroke-linejoin:round; stroke-width:4; stroke-opacity:1; fill:none" points="
  277.431,1028.87 296.329,1028.87 
  "/>
<path clip-path="url(#clip450)" d="M229.487 1456.31 Q225.875 1456.31 224.047 1459.88 Q222.241 1463.42 222.241 1470.55 Q222.241 1477.66 224.047 1481.22 Q225.875 1484.76 229.487 1484.76 Q233.121 1484.76 234.926 1481.22 Q236.755 1477.66 236.755 1470.55 Q236.755 1463.42 234.926 1459.88 Q233.121 1456.31 229.487 1456.31 M229.487 1452.61 Q235.297 1452.61 238.352 1457.22 Q241.431 1461.8 241.431 1470.55 Q241.431 1479.28 238.352 1483.88 Q235.297 1488.47 229.487 1488.47 Q223.676 1488.47 220.598 1483.88 Q217.542 1479.28 217.542 1470.55 Q217.542 1461.8 220.598 1457.22 Q223.676 1452.61 229.487 1452.61 Z" fill="#000000" fill-rule="evenodd" fill-opacity="1" /><path clip-path="url(#clip450)" d="M57.7745 1379.9 L74.0939 1379.9 L74.0939 1383.83 L52.1495 1383.83 L52.1495 1379.9 Q54.8115 1377.14 59.3949 1372.51 Q64.0013 1367.86 65.1819 1366.52 Q67.4272 1363.99 68.3068 1362.26 Q69.2096 1360.5 69.2096 1358.81 Q69.2096 1356.05 67.2652 1354.32 Q65.3439 1352.58 62.2421 1352.58 Q60.043 1352.58 57.5893 1353.35 Q55.1588 1354.11 52.381 1355.66 L52.381 1350.94 Q55.2051 1349.8 57.6588 1349.23 Q60.1124 1348.65 62.1495 1348.65 Q67.5198 1348.65 70.7142 1351.33 Q73.9087 1354.02 73.9087 1358.51 Q73.9087 1360.64 73.0985 1362.56 Q72.3115 1364.46 70.205 1367.05 Q69.6263 1367.72 66.5245 1370.94 Q63.4226 1374.13 57.7745 1379.9 Z" fill="#000000" fill-rule="evenodd" fill-opacity="1" /><path clip-path="url(#clip450)" d="M83.9086 1377.95 L88.7928 1377.95 L88.7928 1383.83 L83.9086 1383.83 L83.9086 1377.95 Z" fill="#000000" fill-rule="evenodd" fill-opacity="1" /><path clip-path="url(#clip450)" d="M108.978 1352.35 Q105.367 1352.35 103.538 1355.91 Q101.733 1359.46 101.733 1366.59 Q101.733 1373.69 103.538 1377.26 Q105.367 1380.8 108.978 1380.8 Q112.612 1380.8 114.418 1377.26 Q116.246 1373.69 116.246 1366.59 Q116.246 1359.46 114.418 1355.91 Q112.612 1352.35 108.978 1352.35 M108.978 1348.65 Q114.788 1348.65 117.844 1353.25 Q120.922 1357.84 120.922 1366.59 Q120.922 1375.31 117.844 1379.92 Q114.788 1384.5 108.978 1384.5 Q103.168 1384.5 100.089 1379.92 Q97.0335 1375.31 97.0335 1366.59 Q97.0335 1357.84 100.089 1353.25 Q103.168 1348.65 108.978 1348.65 Z" fill="#000000" fill-rule="evenodd" fill-opacity="1" /><path clip-path="url(#clip450)" d="M157.311 1358.37 L146.732 1368.99 L157.311 1379.57 L154.556 1382.37 L143.931 1371.75 L133.306 1382.37 L130.575 1379.57 L141.131 1368.99 L130.575 1358.37 L133.306 1355.57 L143.931 1366.19 L154.556 1355.57 L157.311 1358.37 Z" fill="#000000" fill-rule="evenodd" fill-opacity="1" /><path clip-path="url(#clip450)" d="M169.672 1379.9 L177.311 1379.9 L177.311 1353.53 L169.001 1355.2 L169.001 1350.94 L177.265 1349.27 L181.94 1349.27 L181.94 1379.9 L189.579 1379.9 L189.579 1383.83 L169.672 1383.83 L169.672 1379.9 Z" fill="#000000" fill-rule="evenodd" fill-opacity="1" /><path clip-path="url(#clip450)" d="M209.024 1352.35 Q205.413 1352.35 203.584 1355.91 Q201.778 1359.46 201.778 1366.59 Q201.778 1373.69 203.584 1377.26 Q205.413 1380.8 209.024 1380.8 Q212.658 1380.8 214.463 1377.26 Q216.292 1373.69 216.292 1366.59 Q216.292 1359.46 214.463 1355.91 Q212.658 1352.35 209.024 1352.35 M209.024 1348.65 Q214.834 1348.65 217.889 1353.25 Q220.968 1357.84 220.968 1366.59 Q220.968 1375.31 217.889 1379.92 Q214.834 1384.5 209.024 1384.5 Q203.214 1384.5 200.135 1379.92 Q197.079 1375.31 197.079 1366.59 Q197.079 1357.84 200.135 1353.25 Q203.214 1348.65 209.024 1348.65 Z" fill="#000000" fill-rule="evenodd" fill-opacity="1" /><path clip-path="url(#clip450)" d="M233.645 1331.65 L224.053 1346.64 L233.645 1346.64 L233.645 1331.65 M232.648 1328.34 L237.425 1328.34 L237.425 1346.64 L241.431 1346.64 L241.431 1349.8 L237.425 1349.8 L237.425 1356.42 L233.645 1356.42 L233.645 1349.8 L220.968 1349.8 L220.968 1346.13 L232.648 1328.34 Z" fill="#000000" fill-rule="evenodd" fill-opacity="1" /><path clip-path="url(#clip450)" d="M66.5939 1242.93 L54.7884 1261.38 L66.5939 1261.38 L66.5939 1242.93 M65.367 1238.86 L71.2466 1238.86 L71.2466 1261.38 L76.1772 1261.38 L76.1772 1265.27 L71.2466 1265.27 L71.2466 1273.42 L66.5939 1273.42 L66.5939 1265.27 L50.9921 1265.27 L50.9921 1260.76 L65.367 1238.86 Z" fill="#000000" fill-rule="evenodd" fill-opacity="1" /><path clip-path="url(#clip450)" d="M83.9086 1267.54 L88.7928 1267.54 L88.7928 1273.42 L83.9086 1273.42 L83.9086 1267.54 Z" fill="#000000" fill-rule="evenodd" fill-opacity="1" /><path clip-path="url(#clip450)" d="M108.978 1241.94 Q105.367 1241.94 103.538 1245.5 Q101.733 1249.05 101.733 1256.18 Q101.733 1263.28 103.538 1266.85 Q105.367 1270.39 108.978 1270.39 Q112.612 1270.39 114.418 1266.85 Q116.246 1263.28 116.246 1256.18 Q116.246 1249.05 114.418 1245.5 Q112.612 1241.94 108.978 1241.94 M108.978 1238.24 Q114.788 1238.24 117.844 1242.84 Q120.922 1247.43 120.922 1256.18 Q120.922 1264.9 117.844 1269.51 Q114.788 1274.09 108.978 1274.09 Q103.168 1274.09 100.089 1269.51 Q97.0335 1264.9 97.0335 1256.18 Q97.0335 1247.43 100.089 1242.84 Q103.168 1238.24 108.978 1238.24 Z" fill="#000000" fill-rule="evenodd" fill-opacity="1" /><path clip-path="url(#clip450)" d="M157.311 1247.96 L146.732 1258.58 L157.311 1269.16 L154.556 1271.96 L143.931 1261.34 L133.306 1271.96 L130.575 1269.16 L141.131 1258.58 L130.575 1247.96 L133.306 1245.16 L143.931 1255.78 L154.556 1245.16 L157.311 1247.96 Z" fill="#000000" fill-rule="evenodd" fill-opacity="1" /><path clip-path="url(#clip450)" d="M169.672 1269.49 L177.311 1269.49 L177.311 1243.12 L169.001 1244.79 L169.001 1240.53 L177.265 1238.86 L181.94 1238.86 L181.94 1269.49 L189.579 1269.49 L189.579 1273.42 L169.672 1273.42 L169.672 1269.49 Z" fill="#000000" fill-rule="evenodd" fill-opacity="1" /><path clip-path="url(#clip450)" d="M209.024 1241.94 Q205.413 1241.94 203.584 1245.5 Q201.778 1249.05 201.778 1256.18 Q201.778 1263.28 203.584 1266.85 Q205.413 1270.39 209.024 1270.39 Q212.658 1270.39 214.463 1266.85 Q216.292 1263.28 216.292 1256.18 Q216.292 1249.05 214.463 1245.5 Q212.658 1241.94 209.024 1241.94 M209.024 1238.24 Q214.834 1238.24 217.889 1242.84 Q220.968 1247.43 220.968 1256.18 Q220.968 1264.9 217.889 1269.51 Q214.834 1274.09 209.024 1274.09 Q203.214 1274.09 200.135 1269.51 Q197.079 1264.9 197.079 1256.18 Q197.079 1247.43 200.135 1242.84 Q203.214 1238.24 209.024 1238.24 Z" fill="#000000" fill-rule="evenodd" fill-opacity="1" /><path clip-path="url(#clip450)" d="M233.645 1221.24 L224.053 1236.23 L233.645 1236.23 L233.645 1221.24 M232.648 1217.93 L237.425 1217.93 L237.425 1236.23 L241.431 1236.23 L241.431 1239.39 L237.425 1239.39 L237.425 1246.01 L233.645 1246.01 L233.645 1239.39 L220.968 1239.39 L220.968 1235.72 L232.648 1217.93 Z" fill="#000000" fill-rule="evenodd" fill-opacity="1" /><path clip-path="url(#clip450)" d="M64.3254 1143.87 Q61.1773 1143.87 59.3254 1146.02 Q57.4967 1148.17 57.4967 1151.92 Q57.4967 1155.65 59.3254 1157.82 Q61.1773 1159.98 64.3254 1159.98 Q67.4735 1159.98 69.3022 1157.82 Q71.1541 1155.65 71.1541 1151.92 Q71.1541 1148.17 69.3022 1146.02 Q67.4735 1143.87 64.3254 1143.87 M73.6077 1129.21 L73.6077 1133.47 Q71.8485 1132.64 70.0429 1132.2 Q68.2606 1131.76 66.5013 1131.76 Q61.8717 1131.76 59.418 1134.88 Q56.9875 1138.01 56.6402 1144.33 Q58.006 1142.32 60.0662 1141.25 Q62.1263 1140.16 64.6032 1140.16 Q69.8115 1140.16 72.8207 1143.33 Q75.8531 1146.48 75.8531 1151.92 Q75.8531 1157.25 72.705 1160.46 Q69.5568 1163.68 64.3254 1163.68 Q58.33 1163.68 55.1588 1159.1 Q51.9875 1154.49 51.9875 1145.76 Q51.9875 1137.57 55.8764 1132.71 Q59.7652 1127.82 66.3161 1127.82 Q68.0754 1127.82 69.8578 1128.17 Q71.6633 1128.52 73.6077 1129.21 Z" fill="#000000" fill-rule="evenodd" fill-opacity="1" /><path clip-path="url(#clip450)" d="M83.9086 1157.13 L88.7928 1157.13 L88.7928 1163.01 L83.9086 1163.01 L83.9086 1157.13 Z" fill="#000000" fill-rule="evenodd" fill-opacity="1" /><path clip-path="url(#clip450)" d="M108.978 1131.53 Q105.367 1131.53 103.538 1135.09 Q101.733 1138.63 101.733 1145.76 Q101.733 1152.87 103.538 1156.44 Q105.367 1159.98 108.978 1159.98 Q112.612 1159.98 114.418 1156.44 Q116.246 1152.87 116.246 1145.76 Q116.246 1138.63 114.418 1135.09 Q112.612 1131.53 108.978 1131.53 M108.978 1127.82 Q114.788 1127.82 117.844 1132.43 Q120.922 1137.01 120.922 1145.76 Q120.922 1154.49 117.844 1159.1 Q114.788 1163.68 108.978 1163.68 Q103.168 1163.68 100.089 1159.1 Q97.0335 1154.49 97.0335 1145.76 Q97.0335 1137.01 100.089 1132.43 Q103.168 1127.82 108.978 1127.82 Z" fill="#000000" fill-rule="evenodd" fill-opacity="1" /><path clip-path="url(#clip450)" d="M157.311 1137.55 L146.732 1148.17 L157.311 1158.75 L154.556 1161.55 L143.931 1150.93 L133.306 1161.55 L130.575 1158.75 L141.131 1148.17 L130.575 1137.55 L133.306 1134.75 L143.931 1145.37 L154.556 1134.75 L157.311 1137.55 Z" fill="#000000" fill-rule="evenodd" fill-opacity="1" /><path clip-path="url(#clip450)" d="M169.672 1159.07 L177.311 1159.07 L177.311 1132.71 L169.001 1134.38 L169.001 1130.12 L177.265 1128.45 L181.94 1128.45 L181.94 1159.07 L189.579 1159.07 L189.579 1163.01 L169.672 1163.01 L169.672 1159.07 Z" fill="#000000" fill-rule="evenodd" fill-opacity="1" /><path clip-path="url(#clip450)" d="M209.024 1131.53 Q205.413 1131.53 203.584 1135.09 Q201.778 1138.63 201.778 1145.76 Q201.778 1152.87 203.584 1156.44 Q205.413 1159.98 209.024 1159.98 Q212.658 1159.98 214.463 1156.44 Q216.292 1152.87 216.292 1145.76 Q216.292 1138.63 214.463 1135.09 Q212.658 1131.53 209.024 1131.53 M209.024 1127.82 Q214.834 1127.82 217.889 1132.43 Q220.968 1137.01 220.968 1145.76 Q220.968 1154.49 217.889 1159.1 Q214.834 1163.68 209.024 1163.68 Q203.214 1163.68 200.135 1159.1 Q197.079 1154.49 197.079 1145.76 Q197.079 1137.01 200.135 1132.43 Q203.214 1127.82 209.024 1127.82 Z" fill="#000000" fill-rule="evenodd" fill-opacity="1" /><path clip-path="url(#clip450)" d="M233.645 1110.83 L224.053 1125.82 L233.645 1125.82 L233.645 1110.83 M232.648 1107.52 L237.425 1107.52 L237.425 1125.82 L241.431 1125.82 L241.431 1128.98 L237.425 1128.98 L237.425 1135.6 L233.645 1135.6 L233.645 1128.98 L220.968 1128.98 L220.968 1125.31 L232.648 1107.52 Z" fill="#000000" fill-rule="evenodd" fill-opacity="1" /><path clip-path="url(#clip450)" d="M63.7467 1036.19 Q60.4134 1036.19 58.4921 1037.97 Q56.5939 1039.75 56.5939 1042.88 Q56.5939 1046 58.4921 1047.78 Q60.4134 1049.57 63.7467 1049.57 Q67.08 1049.57 69.0013 1047.78 Q70.9226 1045.98 70.9226 1042.88 Q70.9226 1039.75 69.0013 1037.97 Q67.1032 1036.19 63.7467 1036.19 M59.0708 1034.2 Q56.0615 1033.46 54.3717 1031.4 Q52.7051 1029.34 52.7051 1026.37 Q52.7051 1022.23 55.6449 1019.82 Q58.6078 1017.41 63.7467 1017.41 Q68.9087 1017.41 71.8485 1019.82 Q74.7883 1022.23 74.7883 1026.37 Q74.7883 1029.34 73.0985 1031.4 Q71.4318 1033.46 68.4457 1034.2 Q71.8253 1034.98 73.7003 1037.27 Q75.5985 1039.57 75.5985 1042.88 Q75.5985 1047.9 72.5198 1050.59 Q69.4642 1053.27 63.7467 1053.27 Q58.0291 1053.27 54.9504 1050.59 Q51.8949 1047.9 51.8949 1042.88 Q51.8949 1039.57 53.793 1037.27 Q55.6912 1034.98 59.0708 1034.2 M57.3578 1026.81 Q57.3578 1029.5 59.0245 1031 Q60.7143 1032.51 63.7467 1032.51 Q66.7559 1032.51 68.4457 1031 Q70.1587 1029.5 70.1587 1026.81 Q70.1587 1024.13 68.4457 1022.62 Q66.7559 1021.12 63.7467 1021.12 Q60.7143 1021.12 59.0245 1022.62 Q57.3578 1024.13 57.3578 1026.81 Z" fill="#000000" fill-rule="evenodd" fill-opacity="1" /><path clip-path="url(#clip450)" d="M83.9086 1046.72 L88.7928 1046.72 L88.7928 1052.6 L83.9086 1052.6 L83.9086 1046.72 Z" fill="#000000" fill-rule="evenodd" fill-opacity="1" /><path clip-path="url(#clip450)" d="M108.978 1021.12 Q105.367 1021.12 103.538 1024.68 Q101.733 1028.22 101.733 1035.35 Q101.733 1042.46 103.538 1046.02 Q105.367 1049.57 108.978 1049.57 Q112.612 1049.57 114.418 1046.02 Q116.246 1042.46 116.246 1035.35 Q116.246 1028.22 114.418 1024.68 Q112.612 1021.12 108.978 1021.12 M108.978 1017.41 Q114.788 1017.41 117.844 1022.02 Q120.922 1026.6 120.922 1035.35 Q120.922 1044.08 117.844 1048.69 Q114.788 1053.27 108.978 1053.27 Q103.168 1053.27 100.089 1048.69 Q97.0335 1044.08 97.0335 1035.35 Q97.0335 1026.6 100.089 1022.02 Q103.168 1017.41 108.978 1017.41 Z" fill="#000000" fill-rule="evenodd" fill-opacity="1" /><path clip-path="url(#clip450)" d="M157.311 1027.14 L146.732 1037.76 L157.311 1048.34 L154.556 1051.14 L143.931 1040.52 L133.306 1051.14 L130.575 1048.34 L141.131 1037.76 L130.575 1027.14 L133.306 1024.34 L143.931 1034.96 L154.556 1024.34 L157.311 1027.14 Z" fill="#000000" fill-rule="evenodd" fill-opacity="1" /><path clip-path="url(#clip450)" d="M169.672 1048.66 L177.311 1048.66 L177.311 1022.3 L169.001 1023.96 L169.001 1019.71 L177.265 1018.04 L181.94 1018.04 L181.94 1048.66 L189.579 1048.66 L189.579 1052.6 L169.672 1052.6 L169.672 1048.66 Z" fill="#000000" fill-rule="evenodd" fill-opacity="1" /><path clip-path="url(#clip450)" d="M209.024 1021.12 Q205.413 1021.12 203.584 1024.68 Q201.778 1028.22 201.778 1035.35 Q201.778 1042.46 203.584 1046.02 Q205.413 1049.57 209.024 1049.57 Q212.658 1049.57 214.463 1046.02 Q216.292 1042.46 216.292 1035.35 Q216.292 1028.22 214.463 1024.68 Q212.658 1021.12 209.024 1021.12 M209.024 1017.41 Q214.834 1017.41 217.889 1022.02 Q220.968 1026.6 220.968 1035.35 Q220.968 1044.08 217.889 1048.69 Q214.834 1053.27 209.024 1053.27 Q203.214 1053.27 200.135 1048.69 Q197.079 1044.08 197.079 1035.35 Q197.079 1026.6 200.135 1022.02 Q203.214 1017.41 209.024 1017.41 Z" fill="#000000" fill-rule="evenodd" fill-opacity="1" /><path clip-path="url(#clip450)" d="M233.645 1000.42 L224.053 1015.41 L233.645 1015.41 L233.645 1000.42 M232.648 997.108 L237.425 997.108 L237.425 1015.41 L241.431 1015.41 L241.431 1018.57 L237.425 1018.57 L237.425 1025.19 L233.645 1025.19 L233.645 1018.57 L220.968 1018.57 L220.968 1014.9 L232.648 997.108 Z" fill="#000000" fill-rule="evenodd" fill-opacity="1" /><path clip-path="url(#clip450)" d="M602.215 865.77 L602.215 889.833 L594.721 889.833 L594.721 827.206 L602.215 827.206 L602.215 834.092 Q604.564 830.042 608.129 828.097 Q611.735 826.112 616.717 826.112 Q624.981 826.112 630.126 832.675 Q635.311 839.237 635.311 849.931 Q635.311 860.626 630.126 867.188 Q624.981 873.751 616.717 873.751 Q611.735 873.751 608.129 871.806 Q604.564 869.821 602.215 865.77 M627.574 849.931 Q627.574 841.708 624.171 837.05 Q620.809 832.351 614.894 832.351 Q608.98 832.351 605.577 837.05 Q602.215 841.708 602.215 849.931 Q602.215 858.155 605.577 862.854 Q608.98 867.512 614.894 867.512 Q620.809 867.512 624.171 862.854 Q627.574 858.155 627.574 849.931 Z" fill="#000000" fill-rule="evenodd" fill-opacity="1" /><path clip-path="url(#clip450)" d="M648.638 834.903 L700.571 834.903 L700.571 841.708 L648.638 841.708 L648.638 834.903 M648.638 851.43 L700.571 851.43 L700.571 858.317 L648.638 858.317 L648.638 851.43 Z" fill="#000000" fill-rule="evenodd" fill-opacity="1" /><path clip-path="url(#clip450)" d="M735.733 817.484 Q729.413 817.484 726.213 823.722 Q723.053 829.92 723.053 842.397 Q723.053 854.833 726.213 861.071 Q729.413 867.269 735.733 867.269 Q742.093 867.269 745.252 861.071 Q748.453 854.833 748.453 842.397 Q748.453 829.92 745.252 823.722 Q742.093 817.484 735.733 817.484 M735.733 811.002 Q745.901 811.002 751.248 819.064 Q756.635 827.084 756.635 842.397 Q756.635 857.669 751.248 865.73 Q745.901 873.751 735.733 873.751 Q725.565 873.751 720.177 865.73 Q714.83 857.669 714.83 842.397 Q714.83 827.084 720.177 819.064 Q725.565 811.002 735.733 811.002 Z" fill="#000000" fill-rule="evenodd" fill-opacity="1" /><path clip-path="url(#clip450)" d="M771.016 862.287 L779.564 862.287 L779.564 872.576 L771.016 872.576 L771.016 862.287 Z" fill="#000000" fill-rule="evenodd" fill-opacity="1" /><path clip-path="url(#clip450)" d="M797.631 871.32 L797.631 863.867 Q800.709 865.325 803.869 866.095 Q807.029 866.864 810.067 866.864 Q818.169 866.864 822.422 861.436 Q826.716 855.967 827.324 844.868 Q824.974 848.352 821.369 850.215 Q817.764 852.078 813.389 852.078 Q804.315 852.078 799.008 846.61 Q793.742 841.1 793.742 831.581 Q793.742 822.264 799.251 816.633 Q804.76 811.002 813.915 811.002 Q824.407 811.002 829.916 819.064 Q835.466 827.084 835.466 842.397 Q835.466 856.696 828.661 865.244 Q821.896 873.751 810.431 873.751 Q807.353 873.751 804.193 873.143 Q801.033 872.535 797.631 871.32 M813.915 845.678 Q819.424 845.678 822.625 841.911 Q825.865 838.143 825.865 831.581 Q825.865 825.059 822.625 821.292 Q819.424 817.484 813.915 817.484 Q808.406 817.484 805.165 821.292 Q801.965 825.059 801.965 831.581 Q801.965 838.143 805.165 841.911 Q808.406 845.678 813.915 845.678 Z" fill="#000000" fill-rule="evenodd" fill-opacity="1" /><path clip-path="url(#clip454)" d="
M325.575 1449.57 L325.575 1470.51 L715.093 1470.51 L715.093 1449.57 L325.575 1449.57 L325.575 1449.57  Z
  " fill="#009af9" fill-rule="evenodd" fill-opacity="1"/>
<polyline clip-path="url(#clip454)" style="stroke:#000000; stroke-linecap:butt; stroke-linejoin:round; stroke-width:4; stroke-opacity:1; fill:none" points="
  325.575,1449.57 325.575,1470.51 715.093,1470.51 715.093,1449.57 325.575,1449.57 
  "/>
<path clip-path="url(#clip454)" d="
M715.093 939.405 L715.093 1470.51 L1104.61 1470.51 L1104.61 939.405 L715.093 939.405 L715.093 939.405  Z
  " fill="#009af9" fill-rule="evenodd" fill-opacity="1"/>
<polyline clip-path="url(#clip454)" style="stroke:#000000; stroke-linecap:butt; stroke-linejoin:round; stroke-width:4; stroke-opacity:1; fill:none" points="
  715.093,939.405 715.093,1470.51 1104.61,1470.51 1104.61,939.405 715.093,939.405 
  "/>
<circle clip-path="url(#clip454)" style="fill:#009af9; stroke:none; fill-opacity:0" cx="520.334" cy="1449.57" r="2"/>
<circle clip-path="url(#clip454)" style="fill:#009af9; stroke:none; fill-opacity:0" cx="909.852" cy="939.405" r="2"/>
</svg>
