<?xml version="1.0" encoding="utf-8"?>
<svg xmlns="http://www.w3.org/2000/svg" xmlns:xlink="http://www.w3.org/1999/xlink" width="600" height="400" viewBox="0 0 2400 1600">
<defs>
  <clipPath id="clip890">
    <rect x="0" y="0" width="2400" height="1600"/>
  </clipPath>
</defs>
<path clip-path="url(#clip890)" d="
M0 1600 L2400 1600 L2400 0 L0 0  Z
  " fill="#ffffff" fill-rule="evenodd" fill-opacity="1"/>
<defs>
  <clipPath id="clip891">
    <rect x="480" y="0" width="1681" height="1600"/>
  </clipPath>
</defs>
<path clip-path="url(#clip890)" d="
M147.108 1486.45 L2352.76 1486.45 L2352.76 47.2441 L147.108 47.2441  Z
  " fill="#ffffff" fill-rule="evenodd" fill-opacity="1"/>
<defs>
  <clipPath id="clip892">
    <rect x="147" y="47" width="2207" height="1440"/>
  </clipPath>
</defs>
<polyline clip-path="url(#clip892)" style="stroke:#000000; stroke-linecap:butt; stroke-linejoin:round; stroke-width:2; stroke-opacity:0.1; fill:none" points="
  417.612,1486.45 417.612,47.2441 
  "/>
<polyline clip-path="url(#clip892)" style="stroke:#000000; stroke-linecap:butt; stroke-linejoin:round; stroke-width:2; stroke-opacity:0.1; fill:none" points="
  833.772,1486.45 833.772,47.2441 
  "/>
<polyline clip-path="url(#clip892)" style="stroke:#000000; stroke-linecap:butt; stroke-linejoin:round; stroke-width:2; stroke-opacity:0.1; fill:none" points="
  1249.93,1486.45 1249.93,47.2441 
  "/>
<polyline clip-path="url(#clip892)" style="stroke:#000000; stroke-linecap:butt; stroke-linejoin:round; stroke-width:2; stroke-opacity:0.1; fill:none" points="
  1666.09,1486.45 1666.09,47.2441 
  "/>
<polyline clip-path="url(#clip892)" style="stroke:#000000; stroke-linecap:butt; stroke-linejoin:round; stroke-width:2; stroke-opacity:0.1; fill:none" points="
  2082.25,1486.45 2082.25,47.2441 
  "/>
<polyline clip-path="url(#clip890)" style="stroke:#000000; stroke-linecap:butt; stroke-linejoin:round; stroke-width:4; stroke-opacity:1; fill:none" points="
  147.108,1486.45 2352.76,1486.45 
  "/>
<polyline clip-path="url(#clip890)" style="stroke:#000000; stroke-linecap:butt; stroke-linejoin:round; stroke-width:4; stroke-opacity:1; fill:none" points="
  417.612,1486.45 417.612,1467.55 
  "/>
<polyline clip-path="url(#clip890)" style="stroke:#000000; stroke-linecap:butt; stroke-linejoin:round; stroke-width:4; stroke-opacity:1; fill:none" points="
  833.772,1486.45 833.772,1467.55 
  "/>
<polyline clip-path="url(#clip890)" style="stroke:#000000; stroke-linecap:butt; stroke-linejoin:round; stroke-width:4; stroke-opacity:1; fill:none" points="
  1249.93,1486.45 1249.93,1467.55 
  "/>
<polyline clip-path="url(#clip890)" style="stroke:#000000; stroke-linecap:butt; stroke-linejoin:round; stroke-width:4; stroke-opacity:1; fill:none" points="
  1666.09,1486.45 1666.09,1467.55 
  "/>
<polyline clip-path="url(#clip890)" style="stroke:#000000; stroke-linecap:butt; stroke-linejoin:round; stroke-width:4; stroke-opacity:1; fill:none" points="
  2082.25,1486.45 2082.25,1467.55 
  "/>
<path clip-path="url(#clip890)" d="M386.512 1532.02 L416.188 1532.02 L416.188 1535.95 L386.512 1535.95 L386.512 1532.02 Z" fill="#000000" fill-rule="evenodd" fill-opacity="1" /><path clip-path="url(#clip890)" d="M439.128 1518.36 L427.322 1536.81 L439.128 1536.81 L439.128 1518.36 M437.901 1514.29 L443.78 1514.29 L443.78 1536.81 L448.711 1536.81 L448.711 1540.7 L443.78 1540.7 L443.78 1548.85 L439.128 1548.85 L439.128 1540.7 L423.526 1540.7 L423.526 1536.19 L437.901 1514.29 Z" fill="#000000" fill-rule="evenodd" fill-opacity="1" /><path clip-path="url(#clip890)" d="M803.714 1532.02 L833.39 1532.02 L833.39 1535.95 L803.714 1535.95 L803.714 1532.02 Z" fill="#000000" fill-rule="evenodd" fill-opacity="1" /><path clip-path="url(#clip890)" d="M847.51 1544.91 L863.829 1544.91 L863.829 1548.85 L841.885 1548.85 L841.885 1544.91 Q844.547 1542.16 849.13 1537.53 Q853.737 1532.88 854.917 1531.53 Q857.163 1529.01 858.042 1527.27 Q858.945 1525.51 858.945 1523.82 Q858.945 1521.07 857.001 1519.33 Q855.079 1517.6 851.978 1517.6 Q849.779 1517.6 847.325 1518.36 Q844.894 1519.13 842.117 1520.68 L842.117 1515.95 Q844.941 1514.82 847.394 1514.24 Q849.848 1513.66 851.885 1513.66 Q857.255 1513.66 860.45 1516.35 Q863.644 1519.03 863.644 1523.52 Q863.644 1525.65 862.834 1527.57 Q862.047 1529.47 859.94 1532.07 Q859.362 1532.74 856.26 1535.95 Q853.158 1539.15 847.51 1544.91 Z" fill="#000000" fill-rule="evenodd" fill-opacity="1" /><path clip-path="url(#clip890)" d="M1249.93 1517.37 Q1246.32 1517.37 1244.49 1520.93 Q1242.69 1524.47 1242.69 1531.6 Q1242.69 1538.71 1244.49 1542.27 Q1246.32 1545.82 1249.93 1545.82 Q1253.57 1545.82 1255.37 1542.27 Q1257.2 1538.71 1257.2 1531.6 Q1257.2 1524.47 1255.37 1520.93 Q1253.57 1517.37 1249.93 1517.37 M1249.93 1513.66 Q1255.74 1513.66 1258.8 1518.27 Q1261.88 1522.85 1261.88 1531.6 Q1261.88 1540.33 1258.8 1544.94 Q1255.74 1549.52 1249.93 1549.52 Q1244.12 1549.52 1241.04 1544.94 Q1237.99 1540.33 1237.99 1531.6 Q1237.99 1522.85 1241.04 1518.27 Q1244.12 1513.66 1249.93 1513.66 Z" fill="#000000" fill-rule="evenodd" fill-opacity="1" /><path clip-path="url(#clip890)" d="M1660.74 1544.91 L1677.06 1544.91 L1677.06 1548.85 L1655.12 1548.85 L1655.12 1544.91 Q1657.78 1542.16 1662.36 1537.53 Q1666.97 1532.88 1668.15 1531.53 Q1670.4 1529.01 1671.28 1527.27 Q1672.18 1525.51 1672.18 1523.82 Q1672.18 1521.07 1670.24 1519.33 Q1668.31 1517.6 1665.21 1517.6 Q1663.01 1517.6 1660.56 1518.36 Q1658.13 1519.13 1655.35 1520.68 L1655.35 1515.95 Q1658.18 1514.82 1660.63 1514.24 Q1663.08 1513.66 1665.12 1513.66 Q1670.49 1513.66 1673.68 1516.35 Q1676.88 1519.03 1676.88 1523.52 Q1676.88 1525.65 1676.07 1527.57 Q1675.28 1529.47 1673.18 1532.07 Q1672.6 1532.74 1669.49 1535.95 Q1666.39 1539.15 1660.74 1544.91 Z" fill="#000000" fill-rule="evenodd" fill-opacity="1" /><path clip-path="url(#clip890)" d="M2085.26 1518.36 L2073.46 1536.81 L2085.26 1536.81 L2085.26 1518.36 M2084.03 1514.29 L2089.91 1514.29 L2089.91 1536.81 L2094.84 1536.81 L2094.84 1540.7 L2089.91 1540.7 L2089.91 1548.85 L2085.26 1548.85 L2085.26 1540.7 L2069.66 1540.7 L2069.66 1536.19 L2084.03 1514.29 Z" fill="#000000" fill-rule="evenodd" fill-opacity="1" /><polyline clip-path="url(#clip892)" style="stroke:#000000; stroke-linecap:butt; stroke-linejoin:round; stroke-width:2; stroke-opacity:0.1; fill:none" points="
  147.108,1317.43 2352.76,1317.43 
  "/>
<polyline clip-path="url(#clip892)" style="stroke:#000000; stroke-linecap:butt; stroke-linejoin:round; stroke-width:2; stroke-opacity:0.1; fill:none" points="
  147.108,1036.41 2352.76,1036.41 
  "/>
<polyline clip-path="url(#clip892)" style="stroke:#000000; stroke-linecap:butt; stroke-linejoin:round; stroke-width:2; stroke-opacity:0.1; fill:none" points="
  147.108,755.395 2352.76,755.395 
  "/>
<polyline clip-path="url(#clip892)" style="stroke:#000000; stroke-linecap:butt; stroke-linejoin:round; stroke-width:2; stroke-opacity:0.1; fill:none" points="
  147.108,474.378 2352.76,474.378 
  "/>
<polyline clip-path="url(#clip892)" style="stroke:#000000; stroke-linecap:butt; stroke-linejoin:round; stroke-width:2; stroke-opacity:0.1; fill:none" points="
  147.108,193.362 2352.76,193.362 
  "/>
<polyline clip-path="url(#clip890)" style="stroke:#000000; stroke-linecap:butt; stroke-linejoin:round; stroke-width:4; stroke-opacity:1; fill:none" points="
  147.108,1486.45 147.108,47.2441 
  "/>
<polyline clip-path="url(#clip890)" style="stroke:#000000; stroke-linecap:butt; stroke-linejoin:round; stroke-width:4; stroke-opacity:1; fill:none" points="
  147.108,1317.43 166.005,1317.43 
  "/>
<polyline clip-path="url(#clip890)" style="stroke:#000000; stroke-linecap:butt; stroke-linejoin:round; stroke-width:4; stroke-opacity:1; fill:none" points="
  147.108,1036.41 166.005,1036.41 
  "/>
<polyline clip-path="url(#clip890)" style="stroke:#000000; stroke-linecap:butt; stroke-linejoin:round; stroke-width:4; stroke-opacity:1; fill:none" points="
  147.108,755.395 166.005,755.395 
  "/>
<polyline clip-path="url(#clip890)" style="stroke:#000000; stroke-linecap:butt; stroke-linejoin:round; stroke-width:4; stroke-opacity:1; fill:none" points="
  147.108,474.378 166.005,474.378 
  "/>
<polyline clip-path="url(#clip890)" style="stroke:#000000; stroke-linecap:butt; stroke-linejoin:round; stroke-width:4; stroke-opacity:1; fill:none" points="
  147.108,193.362 166.005,193.362 
  "/>
<path clip-path="url(#clip890)" d="M50.9921 1317.88 L80.6679 1317.88 L80.6679 1321.81 L50.9921 1321.81 L50.9921 1317.88 Z" fill="#000000" fill-rule="evenodd" fill-opacity="1" /><path clip-path="url(#clip890)" d="M94.7882 1330.77 L111.108 1330.77 L111.108 1334.71 L89.1632 1334.71 L89.1632 1330.77 Q91.8252 1328.02 96.4085 1323.39 Q101.015 1318.74 102.196 1317.39 Q104.441 1314.87 105.321 1313.13 Q106.223 1311.37 106.223 1309.68 Q106.223 1306.93 104.279 1305.19 Q102.358 1303.46 99.2558 1303.46 Q97.0567 1303.46 94.603 1304.22 Q92.1725 1304.99 89.3947 1306.54 L89.3947 1301.81 Q92.2188 1300.68 94.6724 1300.1 Q97.1261 1299.52 99.1632 1299.52 Q104.534 1299.52 107.728 1302.21 Q110.922 1304.89 110.922 1309.38 Q110.922 1311.51 110.112 1313.43 Q109.325 1315.33 107.219 1317.93 Q106.64 1318.6 103.538 1321.81 Q100.436 1325.01 94.7882 1330.77 Z" fill="#000000" fill-rule="evenodd" fill-opacity="1" /><path clip-path="url(#clip890)" d="M99.1632 1022.21 Q95.5521 1022.21 93.7234 1025.77 Q91.9178 1029.32 91.9178 1036.45 Q91.9178 1043.55 93.7234 1047.12 Q95.5521 1050.66 99.1632 1050.66 Q102.797 1050.66 104.603 1047.12 Q106.432 1043.55 106.432 1036.45 Q106.432 1029.32 104.603 1025.77 Q102.797 1022.21 99.1632 1022.21 M99.1632 1018.51 Q104.973 1018.51 108.029 1023.11 Q111.108 1027.7 111.108 1036.45 Q111.108 1045.17 108.029 1049.78 Q104.973 1054.36 99.1632 1054.36 Q93.353 1054.36 90.2743 1049.78 Q87.2188 1045.17 87.2188 1036.45 Q87.2188 1027.7 90.2743 1023.11 Q93.353 1018.51 99.1632 1018.51 Z" fill="#000000" fill-rule="evenodd" fill-opacity="1" /><path clip-path="url(#clip890)" d="M94.7882 768.739 L111.108 768.739 L111.108 772.675 L89.1632 772.675 L89.1632 768.739 Q91.8252 765.985 96.4085 761.355 Q101.015 756.702 102.196 755.36 Q104.441 752.837 105.321 751.101 Q106.223 749.341 106.223 747.652 Q106.223 744.897 104.279 743.161 Q102.358 741.425 99.2558 741.425 Q97.0567 741.425 94.603 742.189 Q92.1725 742.953 89.3947 744.503 L89.3947 739.781 Q92.2188 738.647 94.6724 738.068 Q97.1261 737.49 99.1632 737.49 Q104.534 737.49 107.728 740.175 Q110.922 742.86 110.922 747.351 Q110.922 749.48 110.112 751.402 Q109.325 753.3 107.219 755.892 Q106.64 756.564 103.538 759.781 Q100.436 762.976 94.7882 768.739 Z" fill="#000000" fill-rule="evenodd" fill-opacity="1" /><path clip-path="url(#clip890)" d="M101.524 461.172 L89.7188 479.621 L101.524 479.621 L101.524 461.172 M100.297 457.098 L106.177 457.098 L106.177 479.621 L111.108 479.621 L111.108 483.51 L106.177 483.51 L106.177 491.658 L101.524 491.658 L101.524 483.51 L85.9225 483.51 L85.9225 478.996 L100.297 457.098 Z" fill="#000000" fill-rule="evenodd" fill-opacity="1" /><path clip-path="url(#clip890)" d="M99.5798 191.498 Q96.4317 191.498 94.5799 193.651 Q92.7512 195.804 92.7512 199.554 Q92.7512 203.281 94.5799 205.457 Q96.4317 207.609 99.5798 207.609 Q102.728 207.609 104.557 205.457 Q106.408 203.281 106.408 199.554 Q106.408 195.804 104.557 193.651 Q102.728 191.498 99.5798 191.498 M108.862 176.846 L108.862 181.105 Q107.103 180.271 105.297 179.832 Q103.515 179.392 101.756 179.392 Q97.1261 179.392 94.6724 182.517 Q92.2419 185.642 91.8947 191.961 Q93.2604 189.947 95.3206 188.883 Q97.3808 187.795 99.8576 187.795 Q105.066 187.795 108.075 190.966 Q111.108 194.114 111.108 199.554 Q111.108 204.878 107.959 208.095 Q104.811 211.313 99.5798 211.313 Q93.5845 211.313 90.4132 206.73 Q87.2419 202.123 87.2419 193.396 Q87.2419 185.202 91.1308 180.341 Q95.0197 175.457 101.571 175.457 Q103.33 175.457 105.112 175.804 Q106.918 176.151 108.862 176.846 Z" fill="#000000" fill-rule="evenodd" fill-opacity="1" /><circle clip-path="url(#clip892)" cx="209.532" cy="87.9763" r="14" fill="#ff0000" fill-rule="evenodd" fill-opacity="1" stroke="#000000" stroke-opacity="1" stroke-width="3.2"/>
<circle clip-path="url(#clip892)" cx="417.612" cy="171.33" r="14" fill="#ff0000" fill-rule="evenodd" fill-opacity="1" stroke="#000000" stroke-opacity="1" stroke-width="3.2"/>
<circle clip-path="url(#clip892)" cx="625.692" cy="437.264" r="14" fill="#ff0000" fill-rule="evenodd" fill-opacity="1" stroke="#000000" stroke-opacity="1" stroke-width="3.2"/>
<circle clip-path="url(#clip892)" cx="833.772" cy="776.62" r="14" fill="#ff0000" fill-rule="evenodd" fill-opacity="1" stroke="#000000" stroke-opacity="1" stroke-width="3.2"/>
<circle clip-path="url(#clip892)" cx="1041.85" cy="601.277" r="14" fill="#ff0000" fill-rule="evenodd" fill-opacity="1" stroke="#000000" stroke-opacity="1" stroke-width="3.2"/>
<circle clip-path="url(#clip892)" cx="1249.93" cy="763.789" r="14" fill="#ff0000" fill-rule="evenodd" fill-opacity="1" stroke="#000000" stroke-opacity="1" stroke-width="3.2"/>
<circle clip-path="url(#clip892)" cx="1458.01" cy="844.742" r="14" fill="#ff0000" fill-rule="evenodd" fill-opacity="1" stroke="#000000" stroke-opacity="1" stroke-width="3.2"/>
<circle clip-path="url(#clip892)" cx="1666.09" cy="1154.38" r="14" fill="#ff0000" fill-rule="evenodd" fill-opacity="1" stroke="#000000" stroke-opacity="1" stroke-width="3.2"/>
<circle clip-path="url(#clip892)" cx="1874.17" cy="1173.55" r="14" fill="#ff0000" fill-rule="evenodd" fill-opacity="1" stroke="#000000" stroke-opacity="1" stroke-width="3.2"/>
<circle clip-path="url(#clip892)" cx="2082.25" cy="1308.1" r="14" fill="#ff0000" fill-rule="evenodd" fill-opacity="1" stroke="#000000" stroke-opacity="1" stroke-width="3.2"/>
<circle clip-path="url(#clip892)" cx="2290.33" cy="1445.72" r="14" fill="#ff0000" fill-rule="evenodd" fill-opacity="1" stroke="#000000" stroke-opacity="1" stroke-width="3.2"/>
<path clip-path="url(#clip890)" d="
M1699.46 198.898 L2279.23 198.898 L2279.23 95.2176 L1699.46 95.2176  Z
  " fill="#ffffff" fill-rule="evenodd" fill-opacity="1"/>
<polyline clip-path="url(#clip890)" style="stroke:#000000; stroke-linecap:butt; stroke-linejoin:round; stroke-width:4; stroke-opacity:1; fill:none" points="
  1699.46,198.898 2279.23,198.898 2279.23,95.2176 1699.46,95.2176 1699.46,198.898 
  "/>
<circle clip-path="url(#clip890)" cx="1797.49" cy="147.058" r="23" fill="#ff0000" fill-rule="evenodd" fill-opacity="1" stroke="#000000" stroke-opacity="1" stroke-width="5.12"/>
<path clip-path="url(#clip890)" d="M1907.42 141.398 Q1903.99 141.398 1902 144.083 Q1900.01 146.745 1900.01 151.398 Q1900.01 156.051 1901.98 158.736 Q1903.97 161.398 1907.42 161.398 Q1910.82 161.398 1912.81 158.713 Q1914.8 156.027 1914.8 151.398 Q1914.8 146.791 1912.81 144.106 Q1910.82 141.398 1907.42 141.398 M1907.42 137.787 Q1912.98 137.787 1916.15 141.398 Q1919.32 145.009 1919.32 151.398 Q1919.32 157.764 1916.15 161.398 Q1912.98 165.009 1907.42 165.009 Q1901.84 165.009 1898.67 161.398 Q1895.52 157.764 1895.52 151.398 Q1895.52 145.009 1898.67 141.398 Q1901.84 137.787 1907.42 137.787 Z" fill="#000000" fill-rule="evenodd" fill-opacity="1" /><path clip-path="url(#clip890)" d="M1944.99 151.398 Q1944.99 146.699 1943.05 144.037 Q1941.12 141.352 1937.74 141.352 Q1934.36 141.352 1932.42 144.037 Q1930.5 146.699 1930.5 151.398 Q1930.5 156.097 1932.42 158.782 Q1934.36 161.444 1937.74 161.444 Q1941.12 161.444 1943.05 158.782 Q1944.99 156.097 1944.99 151.398 M1930.5 142.347 Q1931.84 140.032 1933.88 138.921 Q1935.94 137.787 1938.79 137.787 Q1943.51 137.787 1946.45 141.537 Q1949.41 145.287 1949.41 151.398 Q1949.41 157.509 1946.45 161.259 Q1943.51 165.009 1938.79 165.009 Q1935.94 165.009 1933.88 163.898 Q1931.84 162.763 1930.5 160.449 L1930.5 164.338 L1926.22 164.338 L1926.22 128.319 L1930.5 128.319 L1930.5 142.347 Z" fill="#000000" fill-rule="evenodd" fill-opacity="1" /><path clip-path="url(#clip890)" d="M1973 139.176 L1973 143.203 Q1971.19 142.277 1969.25 141.815 Q1967.3 141.352 1965.22 141.352 Q1962.05 141.352 1960.45 142.324 Q1958.88 143.296 1958.88 145.24 Q1958.88 146.722 1960.01 147.578 Q1961.15 148.412 1964.57 149.176 L1966.03 149.5 Q1970.57 150.472 1972.47 152.254 Q1974.39 154.014 1974.39 157.185 Q1974.39 160.796 1971.52 162.902 Q1968.67 165.009 1963.67 165.009 Q1961.59 165.009 1959.32 164.592 Q1957.07 164.199 1954.57 163.388 L1954.57 158.99 Q1956.93 160.217 1959.23 160.842 Q1961.52 161.444 1963.76 161.444 Q1966.77 161.444 1968.39 160.426 Q1970.01 159.384 1970.01 157.509 Q1970.01 155.773 1968.83 154.847 Q1967.67 153.921 1963.72 153.064 L1962.24 152.717 Q1958.28 151.884 1956.52 150.171 Q1954.76 148.435 1954.76 145.426 Q1954.76 141.768 1957.35 139.778 Q1959.94 137.787 1964.71 137.787 Q1967.07 137.787 1969.16 138.134 Q1971.24 138.481 1973 139.176 Z" fill="#000000" fill-rule="evenodd" fill-opacity="1" /><path clip-path="url(#clip890)" d="M2003.35 150.31 L2003.35 152.393 L1983.76 152.393 Q1984.04 156.791 1986.4 159.106 Q1988.79 161.398 1993.02 161.398 Q1995.48 161.398 1997.77 160.796 Q2000.08 160.194 2002.35 158.99 L2002.35 163.018 Q2000.06 163.99 1997.65 164.5 Q1995.24 165.009 1992.77 165.009 Q1986.56 165.009 1982.93 161.398 Q1979.32 157.787 1979.32 151.629 Q1979.32 145.264 1982.74 141.537 Q1986.19 137.787 1992.03 137.787 Q1997.26 137.787 2000.29 141.166 Q2003.35 144.523 2003.35 150.31 M1999.09 149.06 Q1999.04 145.565 1997.12 143.481 Q1995.22 141.398 1992.07 141.398 Q1988.51 141.398 1986.36 143.412 Q1984.23 145.426 1983.9 149.083 L1999.09 149.06 Z" fill="#000000" fill-rule="evenodd" fill-opacity="1" /><path clip-path="url(#clip890)" d="M2025.36 142.393 Q2024.64 141.977 2023.79 141.791 Q2022.95 141.583 2021.93 141.583 Q2018.32 141.583 2016.38 143.944 Q2014.46 146.282 2014.46 150.68 L2014.46 164.338 L2010.17 164.338 L2010.17 138.412 L2014.46 138.412 L2014.46 142.44 Q2015.8 140.078 2017.95 138.944 Q2020.11 137.787 2023.18 137.787 Q2023.62 137.787 2024.16 137.856 Q2024.69 137.903 2025.34 138.018 L2025.36 142.393 Z" fill="#000000" fill-rule="evenodd" fill-opacity="1" /><path clip-path="url(#clip890)" d="M2026.77 138.412 L2031.29 138.412 L2039.39 160.171 L2047.49 138.412 L2052 138.412 L2042.28 164.338 L2036.49 164.338 L2026.77 138.412 Z" fill="#000000" fill-rule="evenodd" fill-opacity="1" /><path clip-path="url(#clip890)" d="M2080.06 150.31 L2080.06 152.393 L2060.48 152.393 Q2060.75 156.791 2063.11 159.106 Q2065.5 161.398 2069.73 161.398 Q2072.19 161.398 2074.48 160.796 Q2076.79 160.194 2079.06 158.99 L2079.06 163.018 Q2076.77 163.99 2074.36 164.5 Q2071.96 165.009 2069.48 165.009 Q2063.28 165.009 2059.64 161.398 Q2056.03 157.787 2056.03 151.629 Q2056.03 145.264 2059.46 141.537 Q2062.91 137.787 2068.74 137.787 Q2073.97 137.787 2077 141.166 Q2080.06 144.523 2080.06 150.31 M2075.8 149.06 Q2075.75 145.565 2073.83 143.481 Q2071.93 141.398 2068.79 141.398 Q2065.22 141.398 2063.07 143.412 Q2060.94 145.426 2060.61 149.083 L2075.8 149.06 Z" fill="#000000" fill-rule="evenodd" fill-opacity="1" /><path clip-path="url(#clip890)" d="M2104.11 142.347 L2104.11 128.319 L2108.37 128.319 L2108.37 164.338 L2104.11 164.338 L2104.11 160.449 Q2102.77 162.763 2100.71 163.898 Q2098.67 165.009 2095.8 165.009 Q2091.1 165.009 2088.14 161.259 Q2085.2 157.509 2085.2 151.398 Q2085.2 145.287 2088.14 141.537 Q2091.1 137.787 2095.8 137.787 Q2098.67 137.787 2100.71 138.921 Q2102.77 140.032 2104.11 142.347 M2089.6 151.398 Q2089.6 156.097 2091.52 158.782 Q2093.46 161.444 2096.84 161.444 Q2100.22 161.444 2102.17 158.782 Q2104.11 156.097 2104.11 151.398 Q2104.11 146.699 2102.17 144.037 Q2100.22 141.352 2096.84 141.352 Q2093.46 141.352 2091.52 144.037 Q2089.6 146.699 2089.6 151.398 Z" fill="#000000" fill-rule="evenodd" fill-opacity="1" /><path clip-path="url(#clip890)" d="M2149.27 142.347 L2149.27 128.319 L2153.53 128.319 L2153.53 164.338 L2149.27 164.338 L2149.27 160.449 Q2147.93 162.763 2145.87 163.898 Q2143.83 165.009 2140.96 165.009 Q2136.26 165.009 2133.3 161.259 Q2130.36 157.509 2130.36 151.398 Q2130.36 145.287 2133.3 141.537 Q2136.26 137.787 2140.96 137.787 Q2143.83 137.787 2145.87 138.921 Q2147.93 140.032 2149.27 142.347 M2134.76 151.398 Q2134.76 156.097 2136.68 158.782 Q2138.62 161.444 2142 161.444 Q2145.38 161.444 2147.33 158.782 Q2149.27 156.097 2149.27 151.398 Q2149.27 146.699 2147.33 144.037 Q2145.38 141.352 2142 141.352 Q2138.62 141.352 2136.68 144.037 Q2134.76 146.699 2134.76 151.398 Z" fill="#000000" fill-rule="evenodd" fill-opacity="1" /><path clip-path="url(#clip890)" d="M2174.09 151.305 Q2168.92 151.305 2166.93 152.486 Q2164.94 153.666 2164.94 156.514 Q2164.94 158.782 2166.42 160.125 Q2167.93 161.444 2170.5 161.444 Q2174.04 161.444 2176.17 158.944 Q2178.32 156.421 2178.32 152.254 L2178.32 151.305 L2174.09 151.305 M2182.58 149.546 L2182.58 164.338 L2178.32 164.338 L2178.32 160.402 Q2176.86 162.763 2174.69 163.898 Q2172.51 165.009 2169.36 165.009 Q2165.38 165.009 2163.02 162.787 Q2160.68 160.541 2160.68 156.791 Q2160.68 152.416 2163.6 150.194 Q2166.54 147.972 2172.35 147.972 L2178.32 147.972 L2178.32 147.555 Q2178.32 144.615 2176.38 143.018 Q2174.46 141.398 2170.96 141.398 Q2168.74 141.398 2166.63 141.93 Q2164.53 142.463 2162.58 143.527 L2162.58 139.592 Q2164.92 138.69 2167.12 138.25 Q2169.32 137.787 2171.4 137.787 Q2177.03 137.787 2179.8 140.703 Q2182.58 143.62 2182.58 149.546 Z" fill="#000000" fill-rule="evenodd" fill-opacity="1" /><path clip-path="url(#clip890)" d="M2195.57 131.051 L2195.57 138.412 L2204.34 138.412 L2204.34 141.722 L2195.57 141.722 L2195.57 155.796 Q2195.57 158.967 2196.42 159.87 Q2197.3 160.773 2199.97 160.773 L2204.34 160.773 L2204.34 164.338 L2199.97 164.338 Q2195.03 164.338 2193.16 162.509 Q2191.28 160.657 2191.28 155.796 L2191.28 141.722 L2188.16 141.722 L2188.16 138.412 L2191.28 138.412 L2191.28 131.051 L2195.57 131.051 Z" fill="#000000" fill-rule="evenodd" fill-opacity="1" /><path clip-path="url(#clip890)" d="M2221.72 151.305 Q2216.56 151.305 2214.57 152.486 Q2212.58 153.666 2212.58 156.514 Q2212.58 158.782 2214.06 160.125 Q2215.57 161.444 2218.14 161.444 Q2221.68 161.444 2223.81 158.944 Q2225.96 156.421 2225.96 152.254 L2225.96 151.305 L2221.72 151.305 M2230.22 149.546 L2230.22 164.338 L2225.96 164.338 L2225.96 160.402 Q2224.5 162.763 2222.33 163.898 Q2220.15 165.009 2217 165.009 Q2213.02 165.009 2210.66 162.787 Q2208.32 160.541 2208.32 156.791 Q2208.32 152.416 2211.24 150.194 Q2214.18 147.972 2219.99 147.972 L2225.96 147.972 L2225.96 147.555 Q2225.96 144.615 2224.02 143.018 Q2222.09 141.398 2218.6 141.398 Q2216.38 141.398 2214.27 141.93 Q2212.16 142.463 2210.22 143.527 L2210.22 139.592 Q2212.56 138.69 2214.76 138.25 Q2216.96 137.787 2219.04 137.787 Q2224.66 137.787 2227.44 140.703 Q2230.22 143.62 2230.22 149.546 Z" fill="#000000" fill-rule="evenodd" fill-opacity="1" /></svg>
