<?xml version="1.0" encoding="utf-8"?>
<svg xmlns="http://www.w3.org/2000/svg" xmlns:xlink="http://www.w3.org/1999/xlink" width="600" height="400" viewBox="0 0 2400 1600">
<defs>
  <clipPath id="clip170">
    <rect x="0" y="0" width="2400" height="1600"/>
  </clipPath>
</defs>
<path clip-path="url(#clip170)" d="
M0 1600 L2400 1600 L2400 0 L0 0  Z
  " fill="#ffffff" fill-rule="evenodd" fill-opacity="1"/>
<defs>
  <clipPath id="clip171">
    <rect x="480" y="0" width="1681" height="1600"/>
  </clipPath>
</defs>
<path clip-path="url(#clip170)" d="
M193.936 1486.45 L2352.76 1486.45 L2352.76 47.2441 L193.936 47.2441  Z
  " fill="#ffffff" fill-rule="evenodd" fill-opacity="1"/>
<defs>
  <clipPath id="clip172">
    <rect x="193" y="47" width="2160" height="1440"/>
  </clipPath>
</defs>
<polyline clip-path="url(#clip172)" style="stroke:#000000; stroke-linecap:butt; stroke-linejoin:round; stroke-width:2; stroke-opacity:0.1; fill:none" points="
  193.936,1486.45 193.936,47.2441 
  "/>
<polyline clip-path="url(#clip172)" style="stroke:#000000; stroke-linecap:butt; stroke-linejoin:round; stroke-width:2; stroke-opacity:0.1; fill:none" points="
  733.641,1486.45 733.641,47.2441 
  "/>
<polyline clip-path="url(#clip172)" style="stroke:#000000; stroke-linecap:butt; stroke-linejoin:round; stroke-width:2; stroke-opacity:0.1; fill:none" points="
  1273.35,1486.45 1273.35,47.2441 
  "/>
<polyline clip-path="url(#clip172)" style="stroke:#000000; stroke-linecap:butt; stroke-linejoin:round; stroke-width:2; stroke-opacity:0.1; fill:none" points="
  1813.05,1486.45 1813.05,47.2441 
  "/>
<polyline clip-path="url(#clip172)" style="stroke:#000000; stroke-linecap:butt; stroke-linejoin:round; stroke-width:2; stroke-opacity:0.1; fill:none" points="
  2352.76,1486.45 2352.76,47.2441 
  "/>
<polyline clip-path="url(#clip170)" style="stroke:#000000; stroke-linecap:butt; stroke-linejoin:round; stroke-width:4; stroke-opacity:1; fill:none" points="
  193.936,1486.45 2352.76,1486.45 
  "/>
<polyline clip-path="url(#clip170)" style="stroke:#000000; stroke-linecap:butt; stroke-linejoin:round; stroke-width:4; stroke-opacity:1; fill:none" points="
  193.936,1486.45 193.936,1467.55 
  "/>
<polyline clip-path="url(#clip170)" style="stroke:#000000; stroke-linecap:butt; stroke-linejoin:round; stroke-width:4; stroke-opacity:1; fill:none" points="
  733.641,1486.45 733.641,1467.55 
  "/>
<polyline clip-path="url(#clip170)" style="stroke:#000000; stroke-linecap:butt; stroke-linejoin:round; stroke-width:4; stroke-opacity:1; fill:none" points="
  1273.35,1486.45 1273.35,1467.55 
  "/>
<polyline clip-path="url(#clip170)" style="stroke:#000000; stroke-linecap:butt; stroke-linejoin:round; stroke-width:4; stroke-opacity:1; fill:none" points="
  1813.05,1486.45 1813.05,1467.55 
  "/>
<polyline clip-path="url(#clip170)" style="stroke:#000000; stroke-linecap:butt; stroke-linejoin:round; stroke-width:4; stroke-opacity:1; fill:none" points="
  2352.76,1486.45 2352.76,1467.55 
  "/>
<path clip-path="url(#clip170)" d="M140.464 1532.02 L170.14 1532.02 L170.14 1535.95 L140.464 1535.95 L140.464 1532.02 Z" fill="#000000" fill-rule="evenodd" fill-opacity="1" /><path clip-path="url(#clip170)" d="M180.279 1514.29 L198.635 1514.29 L198.635 1518.22 L184.561 1518.22 L184.561 1526.7 Q185.58 1526.35 186.598 1526.19 Q187.617 1526 188.635 1526 Q194.422 1526 197.802 1529.17 Q201.181 1532.34 201.181 1537.76 Q201.181 1543.34 197.709 1546.44 Q194.237 1549.52 187.918 1549.52 Q185.742 1549.52 183.473 1549.15 Q181.228 1548.78 178.82 1548.04 L178.82 1543.34 Q180.904 1544.47 183.126 1545.03 Q185.348 1545.58 187.825 1545.58 Q191.83 1545.58 194.167 1543.48 Q196.505 1541.37 196.505 1537.76 Q196.505 1534.15 194.167 1532.04 Q191.83 1529.94 187.825 1529.94 Q185.95 1529.94 184.075 1530.35 Q182.223 1530.77 180.279 1531.65 L180.279 1514.29 Z" fill="#000000" fill-rule="evenodd" fill-opacity="1" /><path clip-path="url(#clip170)" d="M210.394 1542.97 L215.278 1542.97 L215.278 1548.85 L210.394 1548.85 L210.394 1542.97 Z" fill="#000000" fill-rule="evenodd" fill-opacity="1" /><path clip-path="url(#clip170)" d="M235.464 1517.37 Q231.852 1517.37 230.024 1520.93 Q228.218 1524.47 228.218 1531.6 Q228.218 1538.71 230.024 1542.27 Q231.852 1545.82 235.464 1545.82 Q239.098 1545.82 240.903 1542.27 Q242.732 1538.71 242.732 1531.6 Q242.732 1524.47 240.903 1520.93 Q239.098 1517.37 235.464 1517.37 M235.464 1513.66 Q241.274 1513.66 244.329 1518.27 Q247.408 1522.85 247.408 1531.6 Q247.408 1540.33 244.329 1544.94 Q241.274 1549.52 235.464 1549.52 Q229.653 1549.52 226.575 1544.94 Q223.519 1540.33 223.519 1531.6 Q223.519 1522.85 226.575 1518.27 Q229.653 1513.66 235.464 1513.66 Z" fill="#000000" fill-rule="evenodd" fill-opacity="1" /><path clip-path="url(#clip170)" d="M680.667 1532.02 L710.342 1532.02 L710.342 1535.95 L680.667 1535.95 L680.667 1532.02 Z" fill="#000000" fill-rule="evenodd" fill-opacity="1" /><path clip-path="url(#clip170)" d="M724.463 1544.91 L740.782 1544.91 L740.782 1548.85 L718.838 1548.85 L718.838 1544.91 Q721.5 1542.16 726.083 1537.53 Q730.69 1532.88 731.87 1531.53 Q734.116 1529.01 734.995 1527.27 Q735.898 1525.51 735.898 1523.82 Q735.898 1521.07 733.953 1519.33 Q732.032 1517.6 728.93 1517.6 Q726.731 1517.6 724.278 1518.36 Q721.847 1519.13 719.069 1520.68 L719.069 1515.95 Q721.893 1514.82 724.347 1514.24 Q726.801 1513.66 728.838 1513.66 Q734.208 1513.66 737.403 1516.35 Q740.597 1519.03 740.597 1523.52 Q740.597 1525.65 739.787 1527.57 Q739 1529.47 736.893 1532.07 Q736.315 1532.74 733.213 1535.95 Q730.111 1539.15 724.463 1544.91 Z" fill="#000000" fill-rule="evenodd" fill-opacity="1" /><path clip-path="url(#clip170)" d="M750.597 1542.97 L755.481 1542.97 L755.481 1548.85 L750.597 1548.85 L750.597 1542.97 Z" fill="#000000" fill-rule="evenodd" fill-opacity="1" /><path clip-path="url(#clip170)" d="M765.713 1514.29 L784.069 1514.29 L784.069 1518.22 L769.995 1518.22 L769.995 1526.7 Q771.013 1526.35 772.032 1526.19 Q773.05 1526 774.069 1526 Q779.856 1526 783.236 1529.17 Q786.615 1532.34 786.615 1537.76 Q786.615 1543.34 783.143 1546.44 Q779.671 1549.52 773.351 1549.52 Q771.175 1549.52 768.907 1549.15 Q766.662 1548.78 764.254 1548.04 L764.254 1543.34 Q766.338 1544.47 768.56 1545.03 Q770.782 1545.58 773.259 1545.58 Q777.263 1545.58 779.601 1543.48 Q781.939 1541.37 781.939 1537.76 Q781.939 1534.15 779.601 1532.04 Q777.263 1529.94 773.259 1529.94 Q771.384 1529.94 769.509 1530.35 Q767.657 1530.77 765.713 1531.65 L765.713 1514.29 Z" fill="#000000" fill-rule="evenodd" fill-opacity="1" /><path clip-path="url(#clip170)" d="M1250.73 1517.37 Q1247.12 1517.37 1245.29 1520.93 Q1243.49 1524.47 1243.49 1531.6 Q1243.49 1538.71 1245.29 1542.27 Q1247.12 1545.82 1250.73 1545.82 Q1254.36 1545.82 1256.17 1542.27 Q1258 1538.71 1258 1531.6 Q1258 1524.47 1256.17 1520.93 Q1254.36 1517.37 1250.73 1517.37 M1250.73 1513.66 Q1256.54 1513.66 1259.6 1518.27 Q1262.67 1522.85 1262.67 1531.6 Q1262.67 1540.33 1259.6 1544.94 Q1256.54 1549.52 1250.73 1549.52 Q1244.92 1549.52 1241.84 1544.94 Q1238.79 1540.33 1238.79 1531.6 Q1238.79 1522.85 1241.84 1518.27 Q1244.92 1513.66 1250.73 1513.66 Z" fill="#000000" fill-rule="evenodd" fill-opacity="1" /><path clip-path="url(#clip170)" d="M1270.89 1542.97 L1275.78 1542.97 L1275.78 1548.85 L1270.89 1548.85 L1270.89 1542.97 Z" fill="#000000" fill-rule="evenodd" fill-opacity="1" /><path clip-path="url(#clip170)" d="M1295.96 1517.37 Q1292.35 1517.37 1290.52 1520.93 Q1288.72 1524.47 1288.72 1531.6 Q1288.72 1538.71 1290.52 1542.27 Q1292.35 1545.82 1295.96 1545.82 Q1299.6 1545.82 1301.4 1542.27 Q1303.23 1538.71 1303.23 1531.6 Q1303.23 1524.47 1301.4 1520.93 Q1299.6 1517.37 1295.96 1517.37 M1295.96 1513.66 Q1301.77 1513.66 1304.83 1518.27 Q1307.91 1522.85 1307.91 1531.6 Q1307.91 1540.33 1304.83 1544.94 Q1301.77 1549.52 1295.96 1549.52 Q1290.15 1549.52 1287.07 1544.94 Q1284.02 1540.33 1284.02 1531.6 Q1284.02 1522.85 1287.07 1518.27 Q1290.15 1513.66 1295.96 1513.66 Z" fill="#000000" fill-rule="evenodd" fill-opacity="1" /><path clip-path="url(#clip170)" d="M1784.79 1544.91 L1801.11 1544.91 L1801.11 1548.85 L1779.16 1548.85 L1779.16 1544.91 Q1781.82 1542.16 1786.41 1537.53 Q1791.01 1532.88 1792.19 1531.53 Q1794.44 1529.01 1795.32 1527.27 Q1796.22 1525.51 1796.22 1523.82 Q1796.22 1521.07 1794.28 1519.33 Q1792.36 1517.6 1789.25 1517.6 Q1787.06 1517.6 1784.6 1518.36 Q1782.17 1519.13 1779.39 1520.68 L1779.39 1515.95 Q1782.22 1514.82 1784.67 1514.24 Q1787.13 1513.66 1789.16 1513.66 Q1794.53 1513.66 1797.73 1516.35 Q1800.92 1519.03 1800.92 1523.52 Q1800.92 1525.65 1800.11 1527.57 Q1799.32 1529.47 1797.22 1532.07 Q1796.64 1532.74 1793.54 1535.95 Q1790.44 1539.15 1784.79 1544.91 Z" fill="#000000" fill-rule="evenodd" fill-opacity="1" /><path clip-path="url(#clip170)" d="M1810.92 1542.97 L1815.81 1542.97 L1815.81 1548.85 L1810.92 1548.85 L1810.92 1542.97 Z" fill="#000000" fill-rule="evenodd" fill-opacity="1" /><path clip-path="url(#clip170)" d="M1826.04 1514.29 L1844.39 1514.29 L1844.39 1518.22 L1830.32 1518.22 L1830.32 1526.7 Q1831.34 1526.35 1832.36 1526.19 Q1833.37 1526 1834.39 1526 Q1840.18 1526 1843.56 1529.17 Q1846.94 1532.34 1846.94 1537.76 Q1846.94 1543.34 1843.47 1546.44 Q1840 1549.52 1833.68 1549.52 Q1831.5 1549.52 1829.23 1549.15 Q1826.99 1548.78 1824.58 1548.04 L1824.58 1543.34 Q1826.66 1544.47 1828.88 1545.03 Q1831.11 1545.58 1833.58 1545.58 Q1837.59 1545.58 1839.93 1543.48 Q1842.26 1541.37 1842.26 1537.76 Q1842.26 1534.15 1839.93 1532.04 Q1837.59 1529.94 1833.58 1529.94 Q1831.71 1529.94 1829.83 1530.35 Q1827.98 1530.77 1826.04 1531.65 L1826.04 1514.29 Z" fill="#000000" fill-rule="evenodd" fill-opacity="1" /><path clip-path="url(#clip170)" d="M2319.92 1514.29 L2338.28 1514.29 L2338.28 1518.22 L2324.2 1518.22 L2324.2 1526.7 Q2325.22 1526.35 2326.24 1526.19 Q2327.26 1526 2328.28 1526 Q2334.06 1526 2337.44 1529.17 Q2340.82 1532.34 2340.82 1537.76 Q2340.82 1543.34 2337.35 1546.44 Q2333.88 1549.52 2327.56 1549.52 Q2325.38 1549.52 2323.11 1549.15 Q2320.87 1548.78 2318.46 1548.04 L2318.46 1543.34 Q2320.55 1544.47 2322.77 1545.03 Q2324.99 1545.58 2327.47 1545.58 Q2331.47 1545.58 2333.81 1543.48 Q2336.15 1541.37 2336.15 1537.76 Q2336.15 1534.15 2333.81 1532.04 Q2331.47 1529.94 2327.47 1529.94 Q2325.59 1529.94 2323.72 1530.35 Q2321.86 1530.77 2319.92 1531.65 L2319.92 1514.29 Z" fill="#000000" fill-rule="evenodd" fill-opacity="1" /><path clip-path="url(#clip170)" d="M2350.04 1542.97 L2354.92 1542.97 L2354.92 1548.85 L2350.04 1548.85 L2350.04 1542.97 Z" fill="#000000" fill-rule="evenodd" fill-opacity="1" /><path clip-path="url(#clip170)" d="M2375.11 1517.37 Q2371.49 1517.37 2369.67 1520.93 Q2367.86 1524.47 2367.86 1531.6 Q2367.86 1538.71 2369.67 1542.27 Q2371.49 1545.82 2375.11 1545.82 Q2378.74 1545.82 2380.55 1542.27 Q2382.37 1538.71 2382.37 1531.6 Q2382.37 1524.47 2380.55 1520.93 Q2378.74 1517.37 2375.11 1517.37 M2375.11 1513.66 Q2380.92 1513.66 2383.97 1518.27 Q2387.05 1522.85 2387.05 1531.6 Q2387.05 1540.33 2383.97 1544.94 Q2380.92 1549.52 2375.11 1549.52 Q2369.3 1549.52 2366.22 1544.94 Q2363.16 1540.33 2363.16 1531.6 Q2363.16 1522.85 2366.22 1518.27 Q2369.3 1513.66 2375.11 1513.66 Z" fill="#000000" fill-rule="evenodd" fill-opacity="1" /><polyline clip-path="url(#clip172)" style="stroke:#000000; stroke-linecap:butt; stroke-linejoin:round; stroke-width:2; stroke-opacity:0.1; fill:none" points="
  193.936,1486.45 2352.76,1486.45 
  "/>
<polyline clip-path="url(#clip172)" style="stroke:#000000; stroke-linecap:butt; stroke-linejoin:round; stroke-width:2; stroke-opacity:0.1; fill:none" points="
  193.936,1126.65 2352.76,1126.65 
  "/>
<polyline clip-path="url(#clip172)" style="stroke:#000000; stroke-linecap:butt; stroke-linejoin:round; stroke-width:2; stroke-opacity:0.1; fill:none" points="
  193.936,766.846 2352.76,766.846 
  "/>
<polyline clip-path="url(#clip172)" style="stroke:#000000; stroke-linecap:butt; stroke-linejoin:round; stroke-width:2; stroke-opacity:0.1; fill:none" points="
  193.936,407.045 2352.76,407.045 
  "/>
<polyline clip-path="url(#clip172)" style="stroke:#000000; stroke-linecap:butt; stroke-linejoin:round; stroke-width:2; stroke-opacity:0.1; fill:none" points="
  193.936,47.2441 2352.76,47.2441 
  "/>
<polyline clip-path="url(#clip170)" style="stroke:#000000; stroke-linecap:butt; stroke-linejoin:round; stroke-width:4; stroke-opacity:1; fill:none" points="
  193.936,1486.45 193.936,47.2441 
  "/>
<polyline clip-path="url(#clip170)" style="stroke:#000000; stroke-linecap:butt; stroke-linejoin:round; stroke-width:4; stroke-opacity:1; fill:none" points="
  193.936,1486.45 212.834,1486.45 
  "/>
<polyline clip-path="url(#clip170)" style="stroke:#000000; stroke-linecap:butt; stroke-linejoin:round; stroke-width:4; stroke-opacity:1; fill:none" points="
  193.936,1126.65 212.834,1126.65 
  "/>
<polyline clip-path="url(#clip170)" style="stroke:#000000; stroke-linecap:butt; stroke-linejoin:round; stroke-width:4; stroke-opacity:1; fill:none" points="
  193.936,766.846 212.834,766.846 
  "/>
<polyline clip-path="url(#clip170)" style="stroke:#000000; stroke-linecap:butt; stroke-linejoin:round; stroke-width:4; stroke-opacity:1; fill:none" points="
  193.936,407.045 212.834,407.045 
  "/>
<polyline clip-path="url(#clip170)" style="stroke:#000000; stroke-linecap:butt; stroke-linejoin:round; stroke-width:4; stroke-opacity:1; fill:none" points="
  193.936,47.2441 212.834,47.2441 
  "/>
<path clip-path="url(#clip170)" d="M50.9921 1486.9 L80.6679 1486.9 L80.6679 1490.83 L50.9921 1490.83 L50.9921 1486.9 Z" fill="#000000" fill-rule="evenodd" fill-opacity="1" /><path clip-path="url(#clip170)" d="M90.8067 1469.17 L109.163 1469.17 L109.163 1473.1 L95.0891 1473.1 L95.0891 1481.58 Q96.1076 1481.23 97.1261 1481.07 Q98.1447 1480.88 99.1632 1480.88 Q104.95 1480.88 108.33 1484.05 Q111.709 1487.22 111.709 1492.64 Q111.709 1498.22 108.237 1501.32 Q104.765 1504.4 98.4456 1504.4 Q96.2697 1504.4 94.0012 1504.03 Q91.7558 1503.66 89.3484 1502.92 L89.3484 1498.22 Q91.4317 1499.35 93.6539 1499.91 Q95.8761 1500.46 98.353 1500.46 Q102.358 1500.46 104.696 1498.36 Q107.033 1496.25 107.033 1492.64 Q107.033 1489.03 104.696 1486.92 Q102.358 1484.82 98.353 1484.82 Q96.478 1484.82 94.603 1485.23 Q92.7512 1485.65 90.8067 1486.53 L90.8067 1469.17 Z" fill="#000000" fill-rule="evenodd" fill-opacity="1" /><path clip-path="url(#clip170)" d="M120.922 1497.85 L125.807 1497.85 L125.807 1503.73 L120.922 1503.73 L120.922 1497.85 Z" fill="#000000" fill-rule="evenodd" fill-opacity="1" /><path clip-path="url(#clip170)" d="M145.992 1472.25 Q142.381 1472.25 140.552 1475.81 Q138.746 1479.35 138.746 1486.48 Q138.746 1493.59 140.552 1497.15 Q142.381 1500.7 145.992 1500.7 Q149.626 1500.7 151.431 1497.15 Q153.26 1493.59 153.26 1486.48 Q153.26 1479.35 151.431 1475.81 Q149.626 1472.25 145.992 1472.25 M145.992 1468.54 Q151.802 1468.54 154.857 1473.15 Q157.936 1477.73 157.936 1486.48 Q157.936 1495.21 154.857 1499.82 Q151.802 1504.4 145.992 1504.4 Q140.181 1504.4 137.103 1499.82 Q134.047 1495.21 134.047 1486.48 Q134.047 1477.73 137.103 1473.15 Q140.181 1468.54 145.992 1468.54 Z" fill="#000000" fill-rule="evenodd" fill-opacity="1" /><path clip-path="url(#clip170)" d="M51.9875 1127.1 L81.6633 1127.1 L81.6633 1131.03 L51.9875 1131.03 L51.9875 1127.1 Z" fill="#000000" fill-rule="evenodd" fill-opacity="1" /><path clip-path="url(#clip170)" d="M95.7836 1139.99 L112.103 1139.99 L112.103 1143.93 L90.1586 1143.93 L90.1586 1139.99 Q92.8206 1137.24 97.4039 1132.61 Q102.01 1127.95 103.191 1126.61 Q105.436 1124.09 106.316 1122.35 Q107.219 1120.59 107.219 1118.9 Q107.219 1116.15 105.274 1114.41 Q103.353 1112.68 100.251 1112.68 Q98.0521 1112.68 95.5984 1113.44 Q93.1678 1114.2 90.3901 1115.76 L90.3901 1111.03 Q93.2141 1109.9 95.6678 1109.32 Q98.1215 1108.74 100.159 1108.74 Q105.529 1108.74 108.723 1111.43 Q111.918 1114.11 111.918 1118.6 Q111.918 1120.73 111.108 1122.65 Q110.321 1124.55 108.214 1127.14 Q107.635 1127.82 104.534 1131.03 Q101.432 1134.23 95.7836 1139.99 Z" fill="#000000" fill-rule="evenodd" fill-opacity="1" /><path clip-path="url(#clip170)" d="M121.918 1138.05 L126.802 1138.05 L126.802 1143.93 L121.918 1143.93 L121.918 1138.05 Z" fill="#000000" fill-rule="evenodd" fill-opacity="1" /><path clip-path="url(#clip170)" d="M137.033 1109.37 L155.39 1109.37 L155.39 1113.3 L141.316 1113.3 L141.316 1121.77 Q142.334 1121.43 143.353 1121.27 Q144.371 1121.08 145.39 1121.08 Q151.177 1121.08 154.556 1124.25 Q157.936 1127.42 157.936 1132.84 Q157.936 1138.42 154.464 1141.52 Q150.992 1144.6 144.672 1144.6 Q142.496 1144.6 140.228 1144.23 Q137.982 1143.86 135.575 1143.12 L135.575 1138.42 Q137.658 1139.55 139.881 1140.11 Q142.103 1140.66 144.58 1140.66 Q148.584 1140.66 150.922 1138.56 Q153.26 1136.45 153.26 1132.84 Q153.26 1129.23 150.922 1127.12 Q148.584 1125.01 144.58 1125.01 Q142.705 1125.01 140.83 1125.43 Q138.978 1125.85 137.033 1126.73 L137.033 1109.37 Z" fill="#000000" fill-rule="evenodd" fill-opacity="1" /><path clip-path="url(#clip170)" d="M100.76 752.645 Q97.1493 752.645 95.3206 756.209 Q93.515 759.751 93.515 766.881 Q93.515 773.987 95.3206 777.552 Q97.1493 781.094 100.76 781.094 Q104.395 781.094 106.2 777.552 Q108.029 773.987 108.029 766.881 Q108.029 759.751 106.2 756.209 Q104.395 752.645 100.76 752.645 M100.76 748.941 Q106.571 748.941 109.626 753.547 Q112.705 758.131 112.705 766.881 Q112.705 775.608 109.626 780.214 Q106.571 784.797 100.76 784.797 Q94.9502 784.797 91.8715 780.214 Q88.816 775.608 88.816 766.881 Q88.816 758.131 91.8715 753.547 Q94.9502 748.941 100.76 748.941 Z" fill="#000000" fill-rule="evenodd" fill-opacity="1" /><path clip-path="url(#clip170)" d="M120.922 778.246 L125.807 778.246 L125.807 784.126 L120.922 784.126 L120.922 778.246 Z" fill="#000000" fill-rule="evenodd" fill-opacity="1" /><path clip-path="url(#clip170)" d="M145.992 752.645 Q142.381 752.645 140.552 756.209 Q138.746 759.751 138.746 766.881 Q138.746 773.987 140.552 777.552 Q142.381 781.094 145.992 781.094 Q149.626 781.094 151.431 777.552 Q153.26 773.987 153.26 766.881 Q153.26 759.751 151.431 756.209 Q149.626 752.645 145.992 752.645 M145.992 748.941 Q151.802 748.941 154.857 753.547 Q157.936 758.131 157.936 766.881 Q157.936 775.608 154.857 780.214 Q151.802 784.797 145.992 784.797 Q140.181 784.797 137.103 780.214 Q134.047 775.608 134.047 766.881 Q134.047 758.131 137.103 753.547 Q140.181 748.941 145.992 748.941 Z" fill="#000000" fill-rule="evenodd" fill-opacity="1" /><path clip-path="url(#clip170)" d="M95.7836 420.39 L112.103 420.39 L112.103 424.325 L90.1586 424.325 L90.1586 420.39 Q92.8206 417.635 97.4039 413.006 Q102.01 408.353 103.191 407.01 Q105.436 404.487 106.316 402.751 Q107.219 400.992 107.219 399.302 Q107.219 396.547 105.274 394.811 Q103.353 393.075 100.251 393.075 Q98.0521 393.075 95.5984 393.839 Q93.1678 394.603 90.3901 396.154 L90.3901 391.432 Q93.2141 390.297 95.6678 389.719 Q98.1215 389.14 100.159 389.14 Q105.529 389.14 108.723 391.825 Q111.918 394.51 111.918 399.001 Q111.918 401.131 111.108 403.052 Q110.321 404.95 108.214 407.543 Q107.635 408.214 104.534 411.432 Q101.432 414.626 95.7836 420.39 Z" fill="#000000" fill-rule="evenodd" fill-opacity="1" /><path clip-path="url(#clip170)" d="M121.918 418.445 L126.802 418.445 L126.802 424.325 L121.918 424.325 L121.918 418.445 Z" fill="#000000" fill-rule="evenodd" fill-opacity="1" /><path clip-path="url(#clip170)" d="M137.033 389.765 L155.39 389.765 L155.39 393.7 L141.316 393.7 L141.316 402.172 Q142.334 401.825 143.353 401.663 Q144.371 401.478 145.39 401.478 Q151.177 401.478 154.556 404.649 Q157.936 407.82 157.936 413.237 Q157.936 418.816 154.464 421.918 Q150.992 424.996 144.672 424.996 Q142.496 424.996 140.228 424.626 Q137.982 424.256 135.575 423.515 L135.575 418.816 Q137.658 419.95 139.881 420.506 Q142.103 421.061 144.58 421.061 Q148.584 421.061 150.922 418.955 Q153.26 416.848 153.26 413.237 Q153.26 409.626 150.922 407.52 Q148.584 405.413 144.58 405.413 Q142.705 405.413 140.83 405.83 Q138.978 406.246 137.033 407.126 L137.033 389.765 Z" fill="#000000" fill-rule="evenodd" fill-opacity="1" /><path clip-path="url(#clip170)" d="M90.8067 29.9641 L109.163 29.9641 L109.163 33.8993 L95.0891 33.8993 L95.0891 42.3714 Q96.1076 42.0242 97.1261 41.8622 Q98.1447 41.677 99.1632 41.677 Q104.95 41.677 108.33 44.8483 Q111.709 48.0196 111.709 53.4362 Q111.709 59.0149 108.237 62.1167 Q104.765 65.1954 98.4456 65.1954 Q96.2697 65.1954 94.0012 64.825 Q91.7558 64.4547 89.3484 63.7139 L89.3484 59.0149 Q91.4317 60.1491 93.6539 60.7047 Q95.8761 61.2602 98.353 61.2602 Q102.358 61.2602 104.696 59.1538 Q107.033 57.0473 107.033 53.4362 Q107.033 49.8251 104.696 47.7186 Q102.358 45.6122 98.353 45.6122 Q96.478 45.6122 94.603 46.0288 Q92.7512 46.4455 90.8067 47.3251 L90.8067 29.9641 Z" fill="#000000" fill-rule="evenodd" fill-opacity="1" /><path clip-path="url(#clip170)" d="M120.922 58.6445 L125.807 58.6445 L125.807 64.5241 L120.922 64.5241 L120.922 58.6445 Z" fill="#000000" fill-rule="evenodd" fill-opacity="1" /><path clip-path="url(#clip170)" d="M145.992 33.0428 Q142.381 33.0428 140.552 36.6076 Q138.746 40.1492 138.746 47.2788 Q138.746 54.3853 140.552 57.9501 Q142.381 61.4917 145.992 61.4917 Q149.626 61.4917 151.431 57.9501 Q153.26 54.3853 153.26 47.2788 Q153.26 40.1492 151.431 36.6076 Q149.626 33.0428 145.992 33.0428 M145.992 29.3391 Q151.802 29.3391 154.857 33.9456 Q157.936 38.5289 157.936 47.2788 Q157.936 56.0056 154.857 60.6121 Q151.802 65.1954 145.992 65.1954 Q140.181 65.1954 137.103 60.6121 Q134.047 56.0056 134.047 47.2788 Q134.047 38.5289 137.103 33.9456 Q140.181 29.3391 145.992 29.3391 Z" fill="#000000" fill-rule="evenodd" fill-opacity="1" /><polyline clip-path="url(#clip172)" style="stroke:#000000; stroke-linecap:butt; stroke-linejoin:round; stroke-width:4; stroke-opacity:0.5; fill:none" points="
  193.936,1614.33 196.097,1612.11 198.258,1609.88 200.419,1607.66 202.58,1605.43 204.741,1603.21 206.902,1600.98 209.063,1598.76 211.224,1596.53 213.385,1594.31 
  215.546,1592.08 217.707,1589.86 219.868,1587.64 222.029,1585.41 224.19,1583.19 226.351,1580.96 228.512,1578.74 230.673,1576.51 232.834,1574.29 234.995,1572.06 
  237.156,1569.84 239.317,1567.61 241.478,1565.39 243.639,1563.17 245.8,1560.94 247.961,1558.72 250.122,1556.49 252.282,1554.27 254.443,1552.04 256.604,1549.82 
  258.765,1547.59 260.926,1545.37 263.087,1543.15 265.248,1540.92 267.409,1538.7 269.57,1536.47 271.731,1534.25 273.892,1532.02 276.053,1529.8 278.214,1527.57 
  280.375,1525.35 282.536,1523.12 284.697,1520.9 286.858,1518.68 289.019,1516.45 291.18,1514.23 293.341,1512 295.502,1509.78 297.663,1507.55 299.824,1505.33 
  301.985,1503.1 304.146,1500.88 306.307,1498.66 308.468,1496.43 310.629,1494.21 312.79,1491.98 314.951,1489.76 317.112,1487.53 319.273,1485.31 321.434,1483.08 
  323.595,1480.86 325.756,1478.63 327.917,1476.41 330.078,1474.19 332.239,1471.96 334.4,1469.74 336.561,1467.51 338.722,1465.29 340.883,1463.06 343.044,1460.84 
  345.205,1458.61 347.366,1456.39 349.527,1454.17 351.688,1451.94 353.849,1449.72 356.01,1447.49 358.171,1445.27 360.332,1443.04 362.493,1440.82 364.653,1438.59 
  366.814,1436.37 368.975,1434.14 371.136,1431.92 373.297,1429.7 375.458,1427.47 377.619,1425.25 379.78,1423.02 381.941,1420.8 384.102,1418.57 386.263,1416.35 
  388.424,1414.12 390.585,1411.9 392.746,1409.67 394.907,1407.45 397.068,1405.23 399.229,1403 401.39,1400.78 403.551,1398.55 405.712,1396.33 407.873,1394.1 
  410.034,1391.88 412.195,1389.65 414.356,1387.43 416.517,1385.21 418.678,1382.98 420.839,1380.76 423,1378.53 425.161,1376.31 427.322,1374.08 429.483,1371.86 
  431.644,1369.63 433.805,1367.41 435.966,1365.18 438.127,1362.96 440.288,1360.74 442.449,1358.51 444.61,1356.29 446.771,1354.06 448.932,1351.84 451.093,1349.61 
  453.254,1347.39 455.415,1345.16 457.576,1342.94 459.737,1340.72 461.898,1338.49 464.059,1336.27 466.22,1334.04 468.381,1331.82 470.542,1329.59 472.703,1327.37 
  474.864,1325.14 477.024,1322.92 479.185,1320.69 481.346,1318.47 483.507,1316.25 485.668,1314.02 487.829,1311.8 489.99,1309.57 492.151,1307.35 494.312,1305.12 
  496.473,1302.9 498.634,1300.67 500.795,1298.45 502.956,1296.23 505.117,1294 507.278,1291.78 509.439,1289.55 511.6,1287.33 513.761,1285.1 515.922,1282.88 
  518.083,1280.65 520.244,1278.43 522.405,1276.2 524.566,1273.98 526.727,1271.76 528.888,1269.53 531.049,1267.31 533.21,1265.08 535.371,1262.86 537.532,1260.63 
  539.693,1258.41 541.854,1256.18 544.015,1253.96 546.176,1251.74 548.337,1249.51 550.498,1247.29 552.659,1245.06 554.82,1242.84 556.981,1240.61 559.142,1238.39 
  561.303,1236.16 563.464,1233.94 565.625,1231.71 567.786,1229.49 569.947,1227.27 572.108,1225.04 574.269,1222.82 576.43,1220.59 578.591,1218.37 580.752,1216.14 
  582.913,1213.92 585.074,1211.69 587.235,1209.47 589.396,1207.24 591.556,1205.02 593.717,1202.8 595.878,1200.57 598.039,1198.35 600.2,1196.12 602.361,1193.9 
  604.522,1191.67 606.683,1189.45 608.844,1187.22 611.005,1185 613.166,1182.78 615.327,1180.55 617.488,1178.33 619.649,1176.1 621.81,1173.88 623.971,1171.65 
  626.132,1169.43 628.293,1167.2 630.454,1164.98 632.615,1162.75 634.776,1160.53 636.937,1158.31 639.098,1156.08 641.259,1153.86 643.42,1151.63 645.581,1149.41 
  647.742,1147.18 649.903,1144.96 652.064,1142.73 654.225,1140.51 656.386,1138.29 658.547,1136.06 660.708,1133.84 662.869,1131.61 665.03,1129.39 667.191,1127.16 
  669.352,1124.94 671.513,1122.71 673.674,1120.49 675.835,1118.26 677.996,1116.04 680.157,1113.82 682.318,1111.59 684.479,1109.37 686.64,1107.14 688.801,1104.92 
  690.962,1102.69 693.123,1100.47 695.284,1098.24 697.445,1096.02 699.606,1093.8 701.767,1091.57 703.927,1089.35 706.088,1087.12 708.249,1084.9 710.41,1082.67 
  712.571,1080.45 714.732,1078.22 716.893,1076 719.054,1073.77 721.215,1071.55 723.376,1069.33 725.537,1067.1 727.698,1064.88 729.859,1062.65 732.02,1060.43 
  734.181,1058.2 736.342,1055.98 738.503,1053.75 740.664,1051.53 742.825,1049.3 744.986,1047.08 747.147,1044.86 749.308,1042.63 751.469,1040.41 753.63,1038.18 
  755.791,1035.96 757.952,1033.73 760.113,1031.51 762.274,1029.28 764.435,1027.06 766.596,1024.84 768.757,1022.61 770.918,1020.39 773.079,1018.16 775.24,1015.94 
  777.401,1013.71 779.562,1011.49 781.723,1009.26 783.884,1007.04 786.045,1004.81 788.206,1002.59 790.367,1000.37 792.528,998.141 794.689,995.917 796.85,993.692 
  799.011,991.468 801.172,989.243 803.333,987.019 805.494,984.794 807.655,982.57 809.816,980.345 811.977,978.121 814.138,975.896 816.298,973.672 818.459,971.447 
  820.62,969.223 822.781,966.998 824.942,964.774 827.103,962.549 829.264,960.325 831.425,958.1 833.586,955.876 835.747,953.651 837.908,951.427 840.069,949.202 
  842.23,946.978 844.391,944.753 846.552,942.529 848.713,940.304 850.874,938.08 853.035,935.855 855.196,933.631 857.357,931.406 859.518,929.182 861.679,926.957 
  863.84,924.733 866.001,922.508 868.162,920.284 870.323,918.059 872.484,915.835 874.645,913.61 876.806,911.386 878.967,909.161 881.128,906.937 883.289,904.712 
  885.45,902.488 887.611,900.263 889.772,898.039 891.933,895.814 894.094,893.59 896.255,891.365 898.416,889.141 900.577,886.916 902.738,884.691 904.899,882.467 
  907.06,880.242 909.221,878.018 911.382,875.793 913.543,873.569 915.704,871.344 917.865,869.12 920.026,866.895 922.187,864.671 924.348,862.446 926.509,860.222 
  928.669,857.997 930.83,855.773 932.991,853.548 935.152,851.324 937.313,849.099 939.474,846.875 941.635,844.65 943.796,842.426 945.957,840.201 948.118,837.977 
  950.279,835.752 952.44,833.528 954.601,831.303 956.762,829.079 958.923,826.854 961.084,824.63 963.245,822.405 965.406,820.181 967.567,817.956 969.728,815.732 
  971.889,813.507 974.05,811.283 976.211,809.058 978.372,806.834 980.533,804.609 982.694,802.385 984.855,800.16 987.016,797.936 989.177,795.711 991.338,793.487 
  993.499,791.262 995.66,789.038 997.821,786.813 999.982,784.589 1002.14,782.364 1004.3,780.14 1006.46,777.915 1008.63,775.691 1010.79,773.466 1012.95,771.242 
  1015.11,769.017 1017.27,766.793 1019.43,764.568 1021.59,762.344 1023.75,760.119 1025.91,757.895 1028.07,755.67 1030.24,753.446 1032.4,751.221 1034.56,748.997 
  1036.72,746.772 1038.88,744.548 1041.04,742.323 1043.2,740.099 1045.36,737.874 1047.52,735.65 1049.68,733.425 1051.85,731.201 1054.01,728.976 1056.17,726.752 
  1058.33,724.527 1060.49,722.303 1062.65,720.078 1064.81,717.854 1066.97,715.629 1069.13,713.405 1071.29,711.18 1073.46,708.955 1075.62,706.731 1077.78,704.506 
  1079.94,702.282 1082.1,700.057 1084.26,697.833 1086.42,695.608 1088.58,693.384 1090.74,691.159 1092.9,688.935 1095.07,686.71 1097.23,684.486 1099.39,682.261 
  1101.55,680.037 1103.71,677.812 1105.87,675.588 1108.03,673.363 1110.19,671.139 1112.35,668.914 1114.51,666.69 1116.67,664.465 1118.84,662.241 1121,660.016 
  1123.16,657.792 1125.32,655.567 1127.48,653.343 1129.64,651.118 1131.8,648.894 1133.96,646.669 1136.12,644.445 1138.28,642.22 1140.45,639.996 1142.61,637.771 
  1144.77,635.547 1146.93,633.322 1149.09,631.098 1151.25,628.873 1153.41,626.649 1155.57,624.424 1157.73,622.2 1159.89,619.975 1162.06,617.751 1164.22,615.526 
  1166.38,613.302 1168.54,611.077 1170.7,608.853 1172.86,606.628 1175.02,604.404 1177.18,602.179 1179.34,599.955 1181.5,597.73 1183.67,595.506 1185.83,593.281 
  1187.99,591.057 1190.15,588.832 1192.31,586.608 1194.47,584.383 1196.63,582.159 1198.79,579.934 1200.95,577.71 1203.11,575.485 1205.28,573.261 1207.44,571.036 
  1209.6,568.812 1211.76,566.587 1213.92,564.363 1216.08,562.138 1218.24,559.914 1220.4,557.689 1222.56,555.465 1224.72,553.24 1226.88,551.016 1229.05,548.791 
  1231.21,546.567 1233.37,544.342 1235.53,542.118 1237.69,539.893 1239.85,537.668 1242.01,535.444 1244.17,533.219 1246.33,530.995 1248.49,528.77 1250.66,526.546 
  1252.82,524.321 1254.98,522.097 1257.14,519.872 1259.3,517.648 1261.46,515.423 1263.62,513.199 1265.78,510.974 1267.94,508.75 1270.1,506.525 1272.27,504.301 
  1274.43,502.076 1276.59,499.852 1278.75,497.627 1280.91,495.403 1283.07,493.178 1285.23,490.954 1287.39,488.729 1289.55,486.505 1291.71,484.28 1293.88,482.056 
  1296.04,479.831 1298.2,477.607 1300.36,475.382 1302.52,473.158 1304.68,470.933 1306.84,468.709 1309,466.484 1311.16,464.26 1313.32,462.035 1315.49,459.811 
  1317.65,457.586 1319.81,455.362 1321.97,453.137 1324.13,450.913 1326.29,448.688 1328.45,446.464 1330.61,444.239 1332.77,442.015 1334.93,439.79 1337.09,437.566 
  1339.26,435.341 1341.42,433.117 1343.58,430.892 1345.74,428.668 1347.9,426.443 1350.06,424.219 1352.22,421.994 1354.38,419.77 1356.54,417.545 1358.7,415.321 
  1360.87,413.096 1363.03,410.872 1365.19,408.647 1367.35,406.423 1369.51,404.198 1371.67,401.974 1373.83,399.749 1375.99,397.525 1378.15,395.3 1380.31,393.076 
  1382.48,390.851 1384.64,388.627 1386.8,386.402 1388.96,384.178 1391.12,381.953 1393.28,379.729 1395.44,377.504 1397.6,375.28 1399.76,373.055 1401.92,370.831 
  1404.09,368.606 1406.25,366.382 1408.41,364.157 1410.57,361.932 1412.73,359.708 1414.89,357.483 1417.05,355.259 1419.21,353.034 1421.37,350.81 1423.53,348.585 
  1425.7,346.361 1427.86,344.136 1430.02,341.912 1432.18,339.687 1434.34,337.463 1436.5,335.238 1438.66,333.014 1440.82,330.789 1442.98,328.565 1445.14,326.34 
  1447.3,324.116 1449.47,321.891 1451.63,319.667 1453.79,317.442 1455.95,315.218 1458.11,312.993 1460.27,310.769 1462.43,308.544 1464.59,306.32 1466.75,304.095 
  1468.91,301.871 1471.08,299.646 1473.24,297.422 1475.4,295.197 1477.56,292.973 1479.72,290.748 1481.88,288.524 1484.04,286.299 1486.2,284.075 1488.36,281.85 
  1490.52,279.626 1492.69,277.401 1494.85,275.177 1497.01,272.952 1499.17,270.728 1501.33,268.503 1503.49,266.279 1505.65,264.054 1507.81,261.83 1509.97,259.605 
  1512.13,257.381 1514.3,255.156 1516.46,252.932 1518.62,250.707 1520.78,248.483 1522.94,246.258 1525.1,244.034 1527.26,241.809 1529.42,239.585 1531.58,237.36 
  1533.74,235.136 1535.91,232.911 1538.07,230.687 1540.23,228.462 1542.39,226.238 1544.55,224.013 1546.71,221.789 1548.87,219.564 1551.03,217.34 1553.19,215.115 
  1555.35,212.891 1557.51,210.666 1559.68,208.442 1561.84,206.217 1564,203.993 1566.16,201.768 1568.32,199.544 1570.48,197.319 1572.64,195.095 1574.8,192.87 
  1576.96,190.646 1579.12,188.421 1581.29,186.196 1583.45,183.972 1585.61,181.747 1587.77,179.523 1589.93,177.298 1592.09,175.074 1594.25,172.849 1596.41,170.625 
  1598.57,168.4 1600.73,166.176 1602.9,163.951 1605.06,161.727 1607.22,159.502 1609.38,157.278 1611.54,155.053 1613.7,152.829 1615.86,150.604 1618.02,148.38 
  1620.18,146.155 1622.34,143.931 1624.51,141.706 1626.67,139.482 1628.83,137.257 1630.99,135.033 1633.15,132.808 1635.31,130.584 1637.47,128.359 1639.63,126.135 
  1641.79,123.91 1643.95,121.686 1646.12,119.461 1648.28,117.237 1650.44,115.012 1652.6,112.788 1654.76,110.563 1656.92,108.339 1659.08,106.114 1661.24,103.89 
  1663.4,101.665 1665.56,99.4407 1667.72,97.2162 1669.89,94.9917 1672.05,92.7672 1674.21,90.5427 1676.37,88.3182 1678.53,86.0937 1680.69,83.8692 1682.85,81.6447 
  1685.01,79.4202 1687.17,77.1957 1689.33,74.9712 1691.5,72.7467 1693.66,70.5222 1695.82,68.2977 1697.98,66.0731 1700.14,63.8486 1702.3,61.6241 1704.46,59.3996 
  1706.62,57.1751 1708.78,54.9506 1710.94,52.7261 1713.11,50.5016 1715.27,48.2771 1717.43,46.0526 1719.59,43.8281 1721.75,41.6036 1723.91,39.3791 1726.07,37.1546 
  1728.23,34.9301 1730.39,32.7055 1732.55,30.481 1734.72,28.2565 1736.88,26.032 1739.04,23.8075 1741.2,21.583 1743.36,19.3585 1745.52,17.134 1747.68,14.9095 
  1749.84,12.685 1752,10.4605 1754.16,8.23598 1756.33,6.01147 1758.49,3.78697 1760.65,1.56246 1762.81,-0.662047 1764.97,-2.88655 1767.13,-5.11106 1769.29,-7.33557 
  1771.45,-9.56007 1773.61,-11.7846 1775.77,-14.0091 1777.93,-16.2336 1780.1,-18.4581 1782.26,-20.6826 1784.42,-22.9071 1786.58,-25.1316 1788.74,-27.3561 1790.9,-29.5806 
  1793.06,-31.8051 1795.22,-34.0296 1797.38,-36.2541 1799.54,-38.4787 1801.71,-40.7032 1803.87,-42.9277 1806.03,-45.1522 1808.19,-47.3767 1810.35,-49.6012 1812.51,-51.8257 
  1814.67,-54.0502 1816.83,-56.2747 1818.99,-58.4992 1821.15,-60.7237 1823.32,-62.9482 1825.48,-65.1727 1827.64,-67.3972 1829.8,-69.6217 1831.96,-71.8463 1834.12,-74.0708 
  1836.28,-76.2953 1838.44,-78.5198 1840.6,-80.7443 1842.76,-82.9688 1844.93,-85.1933 1847.09,-87.4178 1849.25,-89.6423 1851.41,-91.8668 1853.57,-94.0913 1855.73,-96.3158 
  1857.89,-98.5403 1860.05,-100.765 1862.21,-102.989 1864.37,-105.214 1866.54,-107.438 1868.7,-109.663 1870.86,-111.887 1873.02,-114.112 1875.18,-116.336 1877.34,-118.561 
  1879.5,-120.785 1881.66,-123.01 1883.82,-125.234 1885.98,-127.459 1888.15,-129.683 1890.31,-131.908 1892.47,-134.132 1894.63,-136.357 1896.79,-138.581 1898.95,-140.806 
  1901.11,-143.03 1903.27,-145.255 1905.43,-147.479 1907.59,-149.704 1909.75,-151.928 1911.92,-154.153 1914.08,-156.377 1916.24,-158.602 1918.4,-160.827 1920.56,-163.051 
  1922.72,-165.276 1924.88,-167.5 1927.04,-169.725 1929.2,-171.949 1931.36,-174.174 1933.53,-176.398 1935.69,-178.623 1937.85,-180.847 1940.01,-183.072 1942.17,-185.296 
  1944.33,-187.521 1946.49,-189.745 1948.65,-191.97 1950.81,-194.194 1952.97,-196.419 1955.14,-198.643 1957.3,-200.868 1959.46,-203.092 1961.62,-205.317 1963.78,-207.541 
  1965.94,-209.766 1968.1,-211.99 1970.26,-214.215 1972.42,-216.439 1974.58,-218.664 1976.75,-220.888 1978.91,-223.113 1981.07,-225.337 1983.23,-227.562 1985.39,-229.786 
  1987.55,-232.011 1989.71,-234.235 1991.87,-236.46 1994.03,-238.684 1996.19,-240.909 1998.36,-243.133 2000.52,-245.358 2002.68,-247.582 2004.84,-249.807 2007,-252.031 
  2009.16,-254.256 2011.32,-256.48 2013.48,-258.705 2015.64,-260.929 2017.8,-263.154 2019.96,-265.378 2022.13,-267.603 2024.29,-269.827 2026.45,-272.052 2028.61,-274.276 
  2030.77,-276.501 2032.93,-278.725 2035.09,-280.95 2037.25,-283.174 2039.41,-285.399 2041.57,-287.623 2043.74,-289.848 2045.9,-292.072 2048.06,-294.297 2050.22,-296.521 
  2052.38,-298.746 2054.54,-300.97 2056.7,-303.195 2058.86,-305.419 2061.02,-307.644 2063.18,-309.868 2065.35,-312.093 2067.51,-314.317 2069.67,-316.542 2071.83,-318.766 
  2073.99,-320.991 2076.15,-323.215 2078.31,-325.44 2080.47,-327.664 2082.63,-329.889 2084.79,-332.113 2086.96,-334.338 2089.12,-336.563 2091.28,-338.787 2093.44,-341.012 
  2095.6,-343.236 2097.76,-345.461 2099.92,-347.685 2102.08,-349.91 2104.24,-352.134 2106.4,-354.359 2108.57,-356.583 2110.73,-358.808 2112.89,-361.032 2115.05,-363.257 
  2117.21,-365.481 2119.37,-367.706 2121.53,-369.93 2123.69,-372.155 2125.85,-374.379 2128.01,-376.604 2130.17,-378.828 2132.34,-381.053 2134.5,-383.277 2136.66,-385.502 
  2138.82,-387.726 2140.98,-389.951 2143.14,-392.175 2145.3,-394.4 2147.46,-396.624 2149.62,-398.849 2151.78,-401.073 2153.95,-403.298 2156.11,-405.522 2158.27,-407.747 
  2160.43,-409.971 2162.59,-412.196 2164.75,-414.42 2166.91,-416.645 2169.07,-418.869 2171.23,-421.094 2173.39,-423.318 2175.56,-425.543 2177.72,-427.767 2179.88,-429.992 
  2182.04,-432.216 2184.2,-434.441 2186.36,-436.665 2188.52,-438.89 2190.68,-441.114 2192.84,-443.339 2195,-445.563 2197.17,-447.788 2199.33,-450.012 2201.49,-452.237 
  2203.65,-454.461 2205.81,-456.686 2207.97,-458.91 2210.13,-461.135 2212.29,-463.359 2214.45,-465.584 2216.61,-467.808 2218.78,-470.033 2220.94,-472.257 2223.1,-474.482 
  2225.26,-476.706 2227.42,-478.931 2229.58,-481.155 2231.74,-483.38 2233.9,-485.604 2236.06,-487.829 2238.22,-490.053 2240.38,-492.278 2242.55,-494.502 2244.71,-496.727 
  2246.87,-498.951 2249.03,-501.176 2251.19,-503.4 2253.35,-505.625 2255.51,-507.85 2257.67,-510.074 2259.83,-512.299 2261.99,-514.523 2264.16,-516.748 2266.32,-518.972 
  2268.48,-521.197 2270.64,-523.421 2272.8,-525.646 2274.96,-527.87 2277.12,-530.095 2279.28,-532.319 2281.44,-534.544 2283.6,-536.768 2285.77,-538.993 2287.93,-541.217 
  2290.09,-543.442 2292.25,-545.666 2294.41,-547.891 2296.57,-550.115 2298.73,-552.34 2300.89,-554.564 2303.05,-556.789 2305.21,-559.013 2307.38,-561.238 2309.54,-563.462 
  2311.7,-565.687 2313.86,-567.911 2316.02,-570.136 2318.18,-572.36 2320.34,-574.585 2322.5,-576.809 2324.66,-579.034 2326.82,-581.258 2328.99,-583.483 2331.15,-585.707 
  2333.31,-587.932 2335.47,-590.156 2337.63,-592.381 2339.79,-594.605 2341.95,-596.83 2344.11,-599.054 2346.27,-601.279 2348.43,-603.503 2350.59,-605.728 2352.76,-607.952 
  
  "/>
<circle clip-path="url(#clip172)" cx="409.818" cy="1392.38" r="14" fill="#000000" fill-rule="evenodd" fill-opacity="1" stroke="none"/>
<circle clip-path="url(#clip172)" cx="625.7" cy="1174.04" r="14" fill="#000000" fill-rule="evenodd" fill-opacity="1" stroke="none"/>
<circle clip-path="url(#clip172)" cx="841.582" cy="929.559" r="14" fill="#000000" fill-rule="evenodd" fill-opacity="1" stroke="none"/>
<circle clip-path="url(#clip172)" cx="1057.46" cy="730.164" r="14" fill="#000000" fill-rule="evenodd" fill-opacity="1" stroke="none"/>
<circle clip-path="url(#clip172)" cx="1273.35" cy="490.9" r="14" fill="#000000" fill-rule="evenodd" fill-opacity="1" stroke="none"/>
<circle clip-path="url(#clip172)" cx="1489.23" cy="294.471" r="14" fill="#000000" fill-rule="evenodd" fill-opacity="1" stroke="none"/>
<circle clip-path="url(#clip172)" cx="1705.11" cy="50.636" r="14" fill="#000000" fill-rule="evenodd" fill-opacity="1" stroke="none"/>
</svg>
