<?xml version="1.0" encoding="utf-8"?>
<svg xmlns="http://www.w3.org/2000/svg" xmlns:xlink="http://www.w3.org/1999/xlink" width="600" height="400" viewBox="0 0 2400 1600">
<defs>
  <clipPath id="clip650">
    <rect x="0" y="0" width="2400" height="1600"/>
  </clipPath>
</defs>
<path clip-path="url(#clip650)" d="
M0 1600 L2400 1600 L2400 0 L0 0  Z
  " fill="#ffffff" fill-rule="evenodd" fill-opacity="1"/>
<defs>
  <clipPath id="clip651">
    <rect x="480" y="0" width="1681" height="1600"/>
  </clipPath>
</defs>
<path clip-path="url(#clip650)" d="
M193.936 1486.45 L2352.76 1486.45 L2352.76 47.2441 L193.936 47.2441  Z
  " fill="#ffffff" fill-rule="evenodd" fill-opacity="1"/>
<defs>
  <clipPath id="clip652">
    <rect x="193" y="47" width="2160" height="1440"/>
  </clipPath>
</defs>
<polyline clip-path="url(#clip652)" style="stroke:#000000; stroke-linecap:butt; stroke-linejoin:round; stroke-width:2; stroke-opacity:0.1; fill:none" points="
  193.936,1486.45 193.936,47.2441 
  "/>
<polyline clip-path="url(#clip652)" style="stroke:#000000; stroke-linecap:butt; stroke-linejoin:round; stroke-width:2; stroke-opacity:0.1; fill:none" points="
  733.641,1486.45 733.641,47.2441 
  "/>
<polyline clip-path="url(#clip652)" style="stroke:#000000; stroke-linecap:butt; stroke-linejoin:round; stroke-width:2; stroke-opacity:0.1; fill:none" points="
  1273.35,1486.45 1273.35,47.2441 
  "/>
<polyline clip-path="url(#clip652)" style="stroke:#000000; stroke-linecap:butt; stroke-linejoin:round; stroke-width:2; stroke-opacity:0.1; fill:none" points="
  1813.05,1486.45 1813.05,47.2441 
  "/>
<polyline clip-path="url(#clip652)" style="stroke:#000000; stroke-linecap:butt; stroke-linejoin:round; stroke-width:2; stroke-opacity:0.1; fill:none" points="
  2352.76,1486.45 2352.76,47.2441 
  "/>
<polyline clip-path="url(#clip650)" style="stroke:#000000; stroke-linecap:butt; stroke-linejoin:round; stroke-width:4; stroke-opacity:1; fill:none" points="
  193.936,1486.45 2352.76,1486.45 
  "/>
<polyline clip-path="url(#clip650)" style="stroke:#000000; stroke-linecap:butt; stroke-linejoin:round; stroke-width:4; stroke-opacity:1; fill:none" points="
  193.936,1486.45 193.936,1467.55 
  "/>
<polyline clip-path="url(#clip650)" style="stroke:#000000; stroke-linecap:butt; stroke-linejoin:round; stroke-width:4; stroke-opacity:1; fill:none" points="
  733.641,1486.45 733.641,1467.55 
  "/>
<polyline clip-path="url(#clip650)" style="stroke:#000000; stroke-linecap:butt; stroke-linejoin:round; stroke-width:4; stroke-opacity:1; fill:none" points="
  1273.35,1486.45 1273.35,1467.55 
  "/>
<polyline clip-path="url(#clip650)" style="stroke:#000000; stroke-linecap:butt; stroke-linejoin:round; stroke-width:4; stroke-opacity:1; fill:none" points="
  1813.05,1486.45 1813.05,1467.55 
  "/>
<polyline clip-path="url(#clip650)" style="stroke:#000000; stroke-linecap:butt; stroke-linejoin:round; stroke-width:4; stroke-opacity:1; fill:none" points="
  2352.76,1486.45 2352.76,1467.55 
  "/>
<path clip-path="url(#clip650)" d="M140.464 1532.02 L170.14 1532.02 L170.14 1535.95 L140.464 1535.95 L140.464 1532.02 Z" fill="#000000" fill-rule="evenodd" fill-opacity="1" /><path clip-path="url(#clip650)" d="M180.279 1514.29 L198.635 1514.29 L198.635 1518.22 L184.561 1518.22 L184.561 1526.7 Q185.58 1526.35 186.598 1526.19 Q187.617 1526 188.635 1526 Q194.422 1526 197.802 1529.17 Q201.181 1532.34 201.181 1537.76 Q201.181 1543.34 197.709 1546.44 Q194.237 1549.52 187.918 1549.52 Q185.742 1549.52 183.473 1549.15 Q181.228 1548.78 178.82 1548.04 L178.82 1543.34 Q180.904 1544.47 183.126 1545.03 Q185.348 1545.58 187.825 1545.58 Q191.83 1545.58 194.167 1543.48 Q196.505 1541.37 196.505 1537.76 Q196.505 1534.15 194.167 1532.04 Q191.83 1529.94 187.825 1529.94 Q185.95 1529.94 184.075 1530.35 Q182.223 1530.77 180.279 1531.65 L180.279 1514.29 Z" fill="#000000" fill-rule="evenodd" fill-opacity="1" /><path clip-path="url(#clip650)" d="M210.394 1542.97 L215.278 1542.97 L215.278 1548.85 L210.394 1548.85 L210.394 1542.97 Z" fill="#000000" fill-rule="evenodd" fill-opacity="1" /><path clip-path="url(#clip650)" d="M235.464 1517.37 Q231.852 1517.37 230.024 1520.93 Q228.218 1524.47 228.218 1531.6 Q228.218 1538.71 230.024 1542.27 Q231.852 1545.82 235.464 1545.82 Q239.098 1545.82 240.903 1542.27 Q242.732 1538.71 242.732 1531.6 Q242.732 1524.47 240.903 1520.93 Q239.098 1517.37 235.464 1517.37 M235.464 1513.66 Q241.274 1513.66 244.329 1518.27 Q247.408 1522.85 247.408 1531.6 Q247.408 1540.33 244.329 1544.94 Q241.274 1549.52 235.464 1549.52 Q229.653 1549.52 226.575 1544.94 Q223.519 1540.33 223.519 1531.6 Q223.519 1522.85 226.575 1518.27 Q229.653 1513.66 235.464 1513.66 Z" fill="#000000" fill-rule="evenodd" fill-opacity="1" /><path clip-path="url(#clip650)" d="M680.667 1532.02 L710.342 1532.02 L710.342 1535.95 L680.667 1535.95 L680.667 1532.02 Z" fill="#000000" fill-rule="evenodd" fill-opacity="1" /><path clip-path="url(#clip650)" d="M724.463 1544.91 L740.782 1544.91 L740.782 1548.85 L718.838 1548.85 L718.838 1544.91 Q721.5 1542.16 726.083 1537.53 Q730.69 1532.88 731.87 1531.53 Q734.116 1529.01 734.995 1527.27 Q735.898 1525.51 735.898 1523.82 Q735.898 1521.07 733.953 1519.33 Q732.032 1517.6 728.93 1517.6 Q726.731 1517.6 724.278 1518.36 Q721.847 1519.13 719.069 1520.68 L719.069 1515.95 Q721.893 1514.82 724.347 1514.24 Q726.801 1513.66 728.838 1513.66 Q734.208 1513.66 737.403 1516.35 Q740.597 1519.03 740.597 1523.52 Q740.597 1525.65 739.787 1527.57 Q739 1529.47 736.893 1532.07 Q736.315 1532.74 733.213 1535.95 Q730.111 1539.15 724.463 1544.91 Z" fill="#000000" fill-rule="evenodd" fill-opacity="1" /><path clip-path="url(#clip650)" d="M750.597 1542.97 L755.481 1542.97 L755.481 1548.85 L750.597 1548.85 L750.597 1542.97 Z" fill="#000000" fill-rule="evenodd" fill-opacity="1" /><path clip-path="url(#clip650)" d="M765.713 1514.29 L784.069 1514.29 L784.069 1518.22 L769.995 1518.22 L769.995 1526.7 Q771.013 1526.35 772.032 1526.19 Q773.05 1526 774.069 1526 Q779.856 1526 783.236 1529.17 Q786.615 1532.34 786.615 1537.76 Q786.615 1543.34 783.143 1546.44 Q779.671 1549.52 773.351 1549.52 Q771.175 1549.52 768.907 1549.15 Q766.662 1548.78 764.254 1548.04 L764.254 1543.34 Q766.338 1544.47 768.56 1545.03 Q770.782 1545.58 773.259 1545.58 Q777.263 1545.58 779.601 1543.48 Q781.939 1541.37 781.939 1537.76 Q781.939 1534.15 779.601 1532.04 Q777.263 1529.94 773.259 1529.94 Q771.384 1529.94 769.509 1530.35 Q767.657 1530.77 765.713 1531.65 L765.713 1514.29 Z" fill="#000000" fill-rule="evenodd" fill-opacity="1" /><path clip-path="url(#clip650)" d="M1250.73 1517.37 Q1247.12 1517.37 1245.29 1520.93 Q1243.49 1524.47 1243.49 1531.6 Q1243.49 1538.71 1245.29 1542.27 Q1247.12 1545.82 1250.73 1545.82 Q1254.36 1545.82 1256.17 1542.27 Q1258 1538.71 1258 1531.6 Q1258 1524.47 1256.17 1520.93 Q1254.36 1517.37 1250.73 1517.37 M1250.73 1513.66 Q1256.54 1513.66 1259.6 1518.27 Q1262.67 1522.85 1262.67 1531.6 Q1262.67 1540.33 1259.6 1544.94 Q1256.54 1549.52 1250.73 1549.52 Q1244.92 1549.52 1241.84 1544.94 Q1238.79 1540.33 1238.79 1531.6 Q1238.79 1522.85 1241.84 1518.27 Q1244.92 1513.66 1250.73 1513.66 Z" fill="#000000" fill-rule="evenodd" fill-opacity="1" /><path clip-path="url(#clip650)" d="M1270.89 1542.97 L1275.78 1542.97 L1275.78 1548.85 L1270.89 1548.85 L1270.89 1542.97 Z" fill="#000000" fill-rule="evenodd" fill-opacity="1" /><path clip-path="url(#clip650)" d="M1295.96 1517.37 Q1292.35 1517.37 1290.52 1520.93 Q1288.72 1524.47 1288.72 1531.6 Q1288.72 1538.71 1290.52 1542.27 Q1292.35 1545.82 1295.96 1545.82 Q1299.6 1545.82 1301.4 1542.27 Q1303.23 1538.71 1303.23 1531.6 Q1303.23 1524.47 1301.4 1520.93 Q1299.6 1517.37 1295.96 1517.37 M1295.96 1513.66 Q1301.77 1513.66 1304.83 1518.27 Q1307.91 1522.85 1307.91 1531.6 Q1307.91 1540.33 1304.83 1544.94 Q1301.77 1549.52 1295.96 1549.52 Q1290.15 1549.52 1287.07 1544.94 Q1284.02 1540.33 1284.02 1531.6 Q1284.02 1522.85 1287.07 1518.27 Q1290.15 1513.66 1295.96 1513.66 Z" fill="#000000" fill-rule="evenodd" fill-opacity="1" /><path clip-path="url(#clip650)" d="M1784.79 1544.91 L1801.11 1544.91 L1801.11 1548.85 L1779.16 1548.85 L1779.16 1544.91 Q1781.82 1542.16 1786.41 1537.53 Q1791.01 1532.88 1792.19 1531.53 Q1794.44 1529.01 1795.32 1527.27 Q1796.22 1525.51 1796.22 1523.82 Q1796.22 1521.07 1794.28 1519.33 Q1792.36 1517.6 1789.25 1517.6 Q1787.06 1517.6 1784.6 1518.36 Q1782.17 1519.13 1779.39 1520.68 L1779.39 1515.95 Q1782.22 1514.82 1784.67 1514.24 Q1787.13 1513.66 1789.16 1513.66 Q1794.53 1513.66 1797.73 1516.35 Q1800.92 1519.03 1800.92 1523.52 Q1800.92 1525.65 1800.11 1527.57 Q1799.32 1529.47 1797.22 1532.07 Q1796.64 1532.74 1793.54 1535.95 Q1790.44 1539.15 1784.79 1544.91 Z" fill="#000000" fill-rule="evenodd" fill-opacity="1" /><path clip-path="url(#clip650)" d="M1810.92 1542.97 L1815.81 1542.97 L1815.81 1548.85 L1810.92 1548.85 L1810.92 1542.97 Z" fill="#000000" fill-rule="evenodd" fill-opacity="1" /><path clip-path="url(#clip650)" d="M1826.04 1514.29 L1844.39 1514.29 L1844.39 1518.22 L1830.32 1518.22 L1830.32 1526.7 Q1831.34 1526.35 1832.36 1526.19 Q1833.37 1526 1834.39 1526 Q1840.18 1526 1843.56 1529.17 Q1846.94 1532.34 1846.94 1537.76 Q1846.94 1543.34 1843.47 1546.44 Q1840 1549.52 1833.68 1549.52 Q1831.5 1549.52 1829.23 1549.15 Q1826.99 1548.78 1824.58 1548.04 L1824.58 1543.34 Q1826.66 1544.47 1828.88 1545.03 Q1831.11 1545.58 1833.58 1545.58 Q1837.59 1545.58 1839.93 1543.48 Q1842.26 1541.37 1842.26 1537.76 Q1842.26 1534.15 1839.93 1532.04 Q1837.59 1529.94 1833.58 1529.94 Q1831.71 1529.94 1829.83 1530.35 Q1827.98 1530.77 1826.04 1531.65 L1826.04 1514.29 Z" fill="#000000" fill-rule="evenodd" fill-opacity="1" /><path clip-path="url(#clip650)" d="M2319.92 1514.29 L2338.28 1514.29 L2338.28 1518.22 L2324.2 1518.22 L2324.2 1526.7 Q2325.22 1526.35 2326.24 1526.19 Q2327.26 1526 2328.28 1526 Q2334.06 1526 2337.44 1529.17 Q2340.82 1532.34 2340.82 1537.76 Q2340.82 1543.34 2337.35 1546.44 Q2333.88 1549.52 2327.56 1549.52 Q2325.38 1549.52 2323.11 1549.15 Q2320.87 1548.78 2318.46 1548.04 L2318.46 1543.34 Q2320.55 1544.47 2322.77 1545.03 Q2324.99 1545.58 2327.47 1545.58 Q2331.47 1545.58 2333.81 1543.48 Q2336.15 1541.37 2336.15 1537.76 Q2336.15 1534.15 2333.81 1532.04 Q2331.47 1529.94 2327.47 1529.94 Q2325.59 1529.94 2323.72 1530.35 Q2321.86 1530.77 2319.92 1531.65 L2319.92 1514.29 Z" fill="#000000" fill-rule="evenodd" fill-opacity="1" /><path clip-path="url(#clip650)" d="M2350.04 1542.97 L2354.92 1542.97 L2354.92 1548.85 L2350.04 1548.85 L2350.04 1542.97 Z" fill="#000000" fill-rule="evenodd" fill-opacity="1" /><path clip-path="url(#clip650)" d="M2375.11 1517.37 Q2371.49 1517.37 2369.67 1520.93 Q2367.86 1524.47 2367.86 1531.6 Q2367.86 1538.71 2369.67 1542.27 Q2371.49 1545.82 2375.11 1545.82 Q2378.74 1545.82 2380.55 1542.27 Q2382.37 1538.71 2382.37 1531.6 Q2382.37 1524.47 2380.55 1520.93 Q2378.74 1517.37 2375.11 1517.37 M2375.11 1513.66 Q2380.92 1513.66 2383.97 1518.27 Q2387.05 1522.85 2387.05 1531.6 Q2387.05 1540.33 2383.97 1544.94 Q2380.92 1549.52 2375.11 1549.52 Q2369.3 1549.52 2366.22 1544.94 Q2363.16 1540.33 2363.16 1531.6 Q2363.16 1522.85 2366.22 1518.27 Q2369.3 1513.66 2375.11 1513.66 Z" fill="#000000" fill-rule="evenodd" fill-opacity="1" /><polyline clip-path="url(#clip652)" style="stroke:#000000; stroke-linecap:butt; stroke-linejoin:round; stroke-width:2; stroke-opacity:0.1; fill:none" points="
  193.936,1486.45 2352.76,1486.45 
  "/>
<polyline clip-path="url(#clip652)" style="stroke:#000000; stroke-linecap:butt; stroke-linejoin:round; stroke-width:2; stroke-opacity:0.1; fill:none" points="
  193.936,1126.65 2352.76,1126.65 
  "/>
<polyline clip-path="url(#clip652)" style="stroke:#000000; stroke-linecap:butt; stroke-linejoin:round; stroke-width:2; stroke-opacity:0.1; fill:none" points="
  193.936,766.846 2352.76,766.846 
  "/>
<polyline clip-path="url(#clip652)" style="stroke:#000000; stroke-linecap:butt; stroke-linejoin:round; stroke-width:2; stroke-opacity:0.1; fill:none" points="
  193.936,407.045 2352.76,407.045 
  "/>
<polyline clip-path="url(#clip652)" style="stroke:#000000; stroke-linecap:butt; stroke-linejoin:round; stroke-width:2; stroke-opacity:0.1; fill:none" points="
  193.936,47.2441 2352.76,47.2441 
  "/>
<polyline clip-path="url(#clip650)" style="stroke:#000000; stroke-linecap:butt; stroke-linejoin:round; stroke-width:4; stroke-opacity:1; fill:none" points="
  193.936,1486.45 193.936,47.2441 
  "/>
<polyline clip-path="url(#clip650)" style="stroke:#000000; stroke-linecap:butt; stroke-linejoin:round; stroke-width:4; stroke-opacity:1; fill:none" points="
  193.936,1486.45 212.834,1486.45 
  "/>
<polyline clip-path="url(#clip650)" style="stroke:#000000; stroke-linecap:butt; stroke-linejoin:round; stroke-width:4; stroke-opacity:1; fill:none" points="
  193.936,1126.65 212.834,1126.65 
  "/>
<polyline clip-path="url(#clip650)" style="stroke:#000000; stroke-linecap:butt; stroke-linejoin:round; stroke-width:4; stroke-opacity:1; fill:none" points="
  193.936,766.846 212.834,766.846 
  "/>
<polyline clip-path="url(#clip650)" style="stroke:#000000; stroke-linecap:butt; stroke-linejoin:round; stroke-width:4; stroke-opacity:1; fill:none" points="
  193.936,407.045 212.834,407.045 
  "/>
<polyline clip-path="url(#clip650)" style="stroke:#000000; stroke-linecap:butt; stroke-linejoin:round; stroke-width:4; stroke-opacity:1; fill:none" points="
  193.936,47.2441 212.834,47.2441 
  "/>
<path clip-path="url(#clip650)" d="M50.9921 1486.9 L80.6679 1486.9 L80.6679 1490.83 L50.9921 1490.83 L50.9921 1486.9 Z" fill="#000000" fill-rule="evenodd" fill-opacity="1" /><path clip-path="url(#clip650)" d="M90.8067 1469.17 L109.163 1469.17 L109.163 1473.1 L95.0891 1473.1 L95.0891 1481.58 Q96.1076 1481.23 97.1261 1481.07 Q98.1447 1480.88 99.1632 1480.88 Q104.95 1480.88 108.33 1484.05 Q111.709 1487.22 111.709 1492.64 Q111.709 1498.22 108.237 1501.32 Q104.765 1504.4 98.4456 1504.4 Q96.2697 1504.4 94.0012 1504.03 Q91.7558 1503.66 89.3484 1502.92 L89.3484 1498.22 Q91.4317 1499.35 93.6539 1499.91 Q95.8761 1500.46 98.353 1500.46 Q102.358 1500.46 104.696 1498.36 Q107.033 1496.25 107.033 1492.64 Q107.033 1489.03 104.696 1486.92 Q102.358 1484.82 98.353 1484.82 Q96.478 1484.82 94.603 1485.23 Q92.7512 1485.65 90.8067 1486.53 L90.8067 1469.17 Z" fill="#000000" fill-rule="evenodd" fill-opacity="1" /><path clip-path="url(#clip650)" d="M120.922 1497.85 L125.807 1497.85 L125.807 1503.73 L120.922 1503.73 L120.922 1497.85 Z" fill="#000000" fill-rule="evenodd" fill-opacity="1" /><path clip-path="url(#clip650)" d="M145.992 1472.25 Q142.381 1472.25 140.552 1475.81 Q138.746 1479.35 138.746 1486.48 Q138.746 1493.59 140.552 1497.15 Q142.381 1500.7 145.992 1500.7 Q149.626 1500.7 151.431 1497.15 Q153.26 1493.59 153.26 1486.48 Q153.26 1479.35 151.431 1475.81 Q149.626 1472.25 145.992 1472.25 M145.992 1468.54 Q151.802 1468.54 154.857 1473.15 Q157.936 1477.73 157.936 1486.48 Q157.936 1495.21 154.857 1499.82 Q151.802 1504.4 145.992 1504.4 Q140.181 1504.4 137.103 1499.82 Q134.047 1495.21 134.047 1486.48 Q134.047 1477.73 137.103 1473.15 Q140.181 1468.54 145.992 1468.54 Z" fill="#000000" fill-rule="evenodd" fill-opacity="1" /><path clip-path="url(#clip650)" d="M51.9875 1127.1 L81.6633 1127.1 L81.6633 1131.03 L51.9875 1131.03 L51.9875 1127.1 Z" fill="#000000" fill-rule="evenodd" fill-opacity="1" /><path clip-path="url(#clip650)" d="M95.7836 1139.99 L112.103 1139.99 L112.103 1143.93 L90.1586 1143.93 L90.1586 1139.99 Q92.8206 1137.24 97.4039 1132.61 Q102.01 1127.95 103.191 1126.61 Q105.436 1124.09 106.316 1122.35 Q107.219 1120.59 107.219 1118.9 Q107.219 1116.15 105.274 1114.41 Q103.353 1112.68 100.251 1112.68 Q98.0521 1112.68 95.5984 1113.44 Q93.1678 1114.2 90.3901 1115.76 L90.3901 1111.03 Q93.2141 1109.9 95.6678 1109.32 Q98.1215 1108.74 100.159 1108.74 Q105.529 1108.74 108.723 1111.43 Q111.918 1114.11 111.918 1118.6 Q111.918 1120.73 111.108 1122.65 Q110.321 1124.55 108.214 1127.14 Q107.635 1127.82 104.534 1131.03 Q101.432 1134.23 95.7836 1139.99 Z" fill="#000000" fill-rule="evenodd" fill-opacity="1" /><path clip-path="url(#clip650)" d="M121.918 1138.05 L126.802 1138.05 L126.802 1143.93 L121.918 1143.93 L121.918 1138.05 Z" fill="#000000" fill-rule="evenodd" fill-opacity="1" /><path clip-path="url(#clip650)" d="M137.033 1109.37 L155.39 1109.37 L155.39 1113.3 L141.316 1113.3 L141.316 1121.77 Q142.334 1121.43 143.353 1121.27 Q144.371 1121.08 145.39 1121.08 Q151.177 1121.08 154.556 1124.25 Q157.936 1127.42 157.936 1132.84 Q157.936 1138.42 154.464 1141.52 Q150.992 1144.6 144.672 1144.6 Q142.496 1144.6 140.228 1144.23 Q137.982 1143.86 135.575 1143.12 L135.575 1138.42 Q137.658 1139.55 139.881 1140.11 Q142.103 1140.66 144.58 1140.66 Q148.584 1140.66 150.922 1138.56 Q153.26 1136.45 153.26 1132.84 Q153.26 1129.23 150.922 1127.12 Q148.584 1125.01 144.58 1125.01 Q142.705 1125.01 140.83 1125.43 Q138.978 1125.85 137.033 1126.73 L137.033 1109.37 Z" fill="#000000" fill-rule="evenodd" fill-opacity="1" /><path clip-path="url(#clip650)" d="M100.76 752.645 Q97.1493 752.645 95.3206 756.209 Q93.515 759.751 93.515 766.881 Q93.515 773.987 95.3206 777.552 Q97.1493 781.094 100.76 781.094 Q104.395 781.094 106.2 777.552 Q108.029 773.987 108.029 766.881 Q108.029 759.751 106.2 756.209 Q104.395 752.645 100.76 752.645 M100.76 748.941 Q106.571 748.941 109.626 753.547 Q112.705 758.131 112.705 766.881 Q112.705 775.608 109.626 780.214 Q106.571 784.797 100.76 784.797 Q94.9502 784.797 91.8715 780.214 Q88.816 775.608 88.816 766.881 Q88.816 758.131 91.8715 753.547 Q94.9502 748.941 100.76 748.941 Z" fill="#000000" fill-rule="evenodd" fill-opacity="1" /><path clip-path="url(#clip650)" d="M120.922 778.246 L125.807 778.246 L125.807 784.126 L120.922 784.126 L120.922 778.246 Z" fill="#000000" fill-rule="evenodd" fill-opacity="1" /><path clip-path="url(#clip650)" d="M145.992 752.645 Q142.381 752.645 140.552 756.209 Q138.746 759.751 138.746 766.881 Q138.746 773.987 140.552 777.552 Q142.381 781.094 145.992 781.094 Q149.626 781.094 151.431 777.552 Q153.26 773.987 153.26 766.881 Q153.26 759.751 151.431 756.209 Q149.626 752.645 145.992 752.645 M145.992 748.941 Q151.802 748.941 154.857 753.547 Q157.936 758.131 157.936 766.881 Q157.936 775.608 154.857 780.214 Q151.802 784.797 145.992 784.797 Q140.181 784.797 137.103 780.214 Q134.047 775.608 134.047 766.881 Q134.047 758.131 137.103 753.547 Q140.181 748.941 145.992 748.941 Z" fill="#000000" fill-rule="evenodd" fill-opacity="1" /><path clip-path="url(#clip650)" d="M95.7836 420.39 L112.103 420.39 L112.103 424.325 L90.1586 424.325 L90.1586 420.39 Q92.8206 417.635 97.4039 413.006 Q102.01 408.353 103.191 407.01 Q105.436 404.487 106.316 402.751 Q107.219 400.992 107.219 399.302 Q107.219 396.547 105.274 394.811 Q103.353 393.075 100.251 393.075 Q98.0521 393.075 95.5984 393.839 Q93.1678 394.603 90.3901 396.154 L90.3901 391.432 Q93.2141 390.297 95.6678 389.719 Q98.1215 389.14 100.159 389.14 Q105.529 389.14 108.723 391.825 Q111.918 394.51 111.918 399.001 Q111.918 401.131 111.108 403.052 Q110.321 404.95 108.214 407.543 Q107.635 408.214 104.534 411.432 Q101.432 414.626 95.7836 420.39 Z" fill="#000000" fill-rule="evenodd" fill-opacity="1" /><path clip-path="url(#clip650)" d="M121.918 418.445 L126.802 418.445 L126.802 424.325 L121.918 424.325 L121.918 418.445 Z" fill="#000000" fill-rule="evenodd" fill-opacity="1" /><path clip-path="url(#clip650)" d="M137.033 389.765 L155.39 389.765 L155.39 393.7 L141.316 393.7 L141.316 402.172 Q142.334 401.825 143.353 401.663 Q144.371 401.478 145.39 401.478 Q151.177 401.478 154.556 404.649 Q157.936 407.82 157.936 413.237 Q157.936 418.816 154.464 421.918 Q150.992 424.996 144.672 424.996 Q142.496 424.996 140.228 424.626 Q137.982 424.256 135.575 423.515 L135.575 418.816 Q137.658 419.95 139.881 420.506 Q142.103 421.061 144.58 421.061 Q148.584 421.061 150.922 418.955 Q153.26 416.848 153.26 413.237 Q153.26 409.626 150.922 407.52 Q148.584 405.413 144.58 405.413 Q142.705 405.413 140.83 405.83 Q138.978 406.246 137.033 407.126 L137.033 389.765 Z" fill="#000000" fill-rule="evenodd" fill-opacity="1" /><path clip-path="url(#clip650)" d="M90.8067 29.9641 L109.163 29.9641 L109.163 33.8993 L95.0891 33.8993 L95.0891 42.3714 Q96.1076 42.0242 97.1261 41.8622 Q98.1447 41.677 99.1632 41.677 Q104.95 41.677 108.33 44.8483 Q111.709 48.0196 111.709 53.4362 Q111.709 59.0149 108.237 62.1167 Q104.765 65.1954 98.4456 65.1954 Q96.2697 65.1954 94.0012 64.825 Q91.7558 64.4547 89.3484 63.7139 L89.3484 59.0149 Q91.4317 60.1491 93.6539 60.7047 Q95.8761 61.2602 98.353 61.2602 Q102.358 61.2602 104.696 59.1538 Q107.033 57.0473 107.033 53.4362 Q107.033 49.8251 104.696 47.7186 Q102.358 45.6122 98.353 45.6122 Q96.478 45.6122 94.603 46.0288 Q92.7512 46.4455 90.8067 47.3251 L90.8067 29.9641 Z" fill="#000000" fill-rule="evenodd" fill-opacity="1" /><path clip-path="url(#clip650)" d="M120.922 58.6445 L125.807 58.6445 L125.807 64.5241 L120.922 64.5241 L120.922 58.6445 Z" fill="#000000" fill-rule="evenodd" fill-opacity="1" /><path clip-path="url(#clip650)" d="M145.992 33.0428 Q142.381 33.0428 140.552 36.6076 Q138.746 40.1492 138.746 47.2788 Q138.746 54.3853 140.552 57.9501 Q142.381 61.4917 145.992 61.4917 Q149.626 61.4917 151.431 57.9501 Q153.26 54.3853 153.26 47.2788 Q153.26 40.1492 151.431 36.6076 Q149.626 33.0428 145.992 33.0428 M145.992 29.3391 Q151.802 29.3391 154.857 33.9456 Q157.936 38.5289 157.936 47.2788 Q157.936 56.0056 154.857 60.6121 Q151.802 65.1954 145.992 65.1954 Q140.181 65.1954 137.103 60.6121 Q134.047 56.0056 134.047 47.2788 Q134.047 38.5289 137.103 33.9456 Q140.181 29.3391 145.992 29.3391 Z" fill="#000000" fill-rule="evenodd" fill-opacity="1" /><polyline clip-path="url(#clip652)" style="stroke:#000000; stroke-linecap:butt; stroke-linejoin:round; stroke-width:4; stroke-opacity:0.5; fill:none" points="
  193.936,-124.046 196.097,-122.75 198.258,-121.454 200.419,-120.157 202.58,-118.861 204.741,-117.564 206.902,-116.268 209.063,-114.971 211.224,-113.675 213.385,-112.379 
  215.546,-111.082 217.707,-109.786 219.868,-108.489 222.029,-107.193 224.19,-105.896 226.351,-104.6 228.512,-103.304 230.673,-102.007 232.834,-100.711 234.995,-99.4144 
  237.156,-98.1179 239.317,-96.8215 241.478,-95.5251 243.639,-94.2287 245.8,-92.9322 247.961,-91.6358 250.122,-90.3394 252.282,-89.043 254.443,-87.7465 256.604,-86.4501 
  258.765,-85.1537 260.926,-83.8573 263.087,-82.5608 265.248,-81.2644 267.409,-79.968 269.57,-78.6715 271.731,-77.3751 273.892,-76.0787 276.053,-74.7823 278.214,-73.4858 
  280.375,-72.1894 282.536,-70.893 284.697,-69.5966 286.858,-68.3001 289.019,-67.0037 291.18,-65.7073 293.341,-64.4109 295.502,-63.1144 297.663,-61.818 299.824,-60.5216 
  301.985,-59.2252 304.146,-57.9287 306.307,-56.6323 308.468,-55.3359 310.629,-54.0394 312.79,-52.743 314.951,-51.4466 317.112,-50.1502 319.273,-48.8537 321.434,-47.5573 
  323.595,-46.2609 325.756,-44.9645 327.917,-43.668 330.078,-42.3716 332.239,-41.0752 334.4,-39.7788 336.561,-38.4823 338.722,-37.1859 340.883,-35.8895 343.044,-34.5931 
  345.205,-33.2966 347.366,-32.0002 349.527,-30.7038 351.688,-29.4073 353.849,-28.1109 356.01,-26.8145 358.171,-25.5181 360.332,-24.2216 362.493,-22.9252 364.653,-21.6288 
  366.814,-20.3324 368.975,-19.0359 371.136,-17.7395 373.297,-16.4431 375.458,-15.1467 377.619,-13.8502 379.78,-12.5538 381.941,-11.2574 384.102,-9.96095 386.263,-8.66453 
  388.424,-7.3681 390.585,-6.07167 392.746,-4.77525 394.907,-3.47882 397.068,-2.18239 399.229,-0.885968 401.39,0.410458 403.551,1.70688 405.712,3.00331 407.873,4.29974 
  410.034,5.59616 412.195,6.89259 414.356,8.18902 416.517,9.48544 418.678,10.7819 420.839,12.0783 423,13.3747 425.161,14.6711 427.322,15.9676 429.483,17.264 
  431.644,18.5604 433.805,19.8569 435.966,21.1533 438.127,22.4497 440.288,23.7461 442.449,25.0426 444.61,26.339 446.771,27.6354 448.932,28.9318 451.093,30.2283 
  453.254,31.5247 455.415,32.8211 457.576,34.1175 459.737,35.414 461.898,36.7104 464.059,38.0068 466.22,39.3032 468.381,40.5997 470.542,41.8961 472.703,43.1925 
  474.864,44.489 477.024,45.7854 479.185,47.0818 481.346,48.3782 483.507,49.6747 485.668,50.9711 487.829,52.2675 489.99,53.5639 492.151,54.8604 494.312,56.1568 
  496.473,57.4532 498.634,58.7496 500.795,60.0461 502.956,61.3425 505.117,62.6389 507.278,63.9353 509.439,65.2318 511.6,66.5282 513.761,67.8246 515.922,69.1211 
  518.083,70.4175 520.244,71.7139 522.405,73.0103 524.566,74.3068 526.727,75.6032 528.888,76.8996 531.049,78.196 533.21,79.4925 535.371,80.7889 537.532,82.0853 
  539.693,83.3817 541.854,84.6782 544.015,85.9746 546.176,87.271 548.337,88.5674 550.498,89.8639 552.659,91.1603 554.82,92.4567 556.981,93.7532 559.142,95.0496 
  561.303,96.346 563.464,97.6424 565.625,98.9389 567.786,100.235 569.947,101.532 572.108,102.828 574.269,104.125 576.43,105.421 578.591,106.717 580.752,108.014 
  582.913,109.31 585.074,110.607 587.235,111.903 589.396,113.2 591.556,114.496 593.717,115.792 595.878,117.089 598.039,118.385 600.2,119.682 602.361,120.978 
  604.522,122.275 606.683,123.571 608.844,124.867 611.005,126.164 613.166,127.46 615.327,128.757 617.488,130.053 619.649,131.35 621.81,132.646 623.971,133.942 
  626.132,135.239 628.293,136.535 630.454,137.832 632.615,139.128 634.776,140.424 636.937,141.721 639.098,143.017 641.259,144.314 643.42,145.61 645.581,146.907 
  647.742,148.203 649.903,149.499 652.064,150.796 654.225,152.092 656.386,153.389 658.547,154.685 660.708,155.982 662.869,157.278 665.03,158.574 667.191,159.871 
  669.352,161.167 671.513,162.464 673.674,163.76 675.835,165.057 677.996,166.353 680.157,167.649 682.318,168.946 684.479,170.242 686.64,171.539 688.801,172.835 
  690.962,174.132 693.123,175.428 695.284,176.724 697.445,178.021 699.606,179.317 701.767,180.614 703.927,181.91 706.088,183.207 708.249,184.503 710.41,185.799 
  712.571,187.096 714.732,188.392 716.893,189.689 719.054,190.985 721.215,192.282 723.376,193.578 725.537,194.874 727.698,196.171 729.859,197.467 732.02,198.764 
  734.181,200.06 736.342,201.357 738.503,202.653 740.664,203.949 742.825,205.246 744.986,206.542 747.147,207.839 749.308,209.135 751.469,210.432 753.63,211.728 
  755.791,213.024 757.952,214.321 760.113,215.617 762.274,216.914 764.435,218.21 766.596,219.507 768.757,220.803 770.918,222.099 773.079,223.396 775.24,224.692 
  777.401,225.989 779.562,227.285 781.723,228.581 783.884,229.878 786.045,231.174 788.206,232.471 790.367,233.767 792.528,235.064 794.689,236.36 796.85,237.656 
  799.011,238.953 801.172,240.249 803.333,241.546 805.494,242.842 807.655,244.139 809.816,245.435 811.977,246.731 814.138,248.028 816.298,249.324 818.459,250.621 
  820.62,251.917 822.781,253.214 824.942,254.51 827.103,255.806 829.264,257.103 831.425,258.399 833.586,259.696 835.747,260.992 837.908,262.289 840.069,263.585 
  842.23,264.881 844.391,266.178 846.552,267.474 848.713,268.771 850.874,270.067 853.035,271.364 855.196,272.66 857.357,273.956 859.518,275.253 861.679,276.549 
  863.84,277.846 866.001,279.142 868.162,280.439 870.323,281.735 872.484,283.031 874.645,284.328 876.806,285.624 878.967,286.921 881.128,288.217 883.289,289.514 
  885.45,290.81 887.611,292.106 889.772,293.403 891.933,294.699 894.094,295.996 896.255,297.292 898.416,298.589 900.577,299.885 902.738,301.181 904.899,302.478 
  907.06,303.774 909.221,305.071 911.382,306.367 913.543,307.663 915.704,308.96 917.865,310.256 920.026,311.553 922.187,312.849 924.348,314.146 926.509,315.442 
  928.669,316.738 930.83,318.035 932.991,319.331 935.152,320.628 937.313,321.924 939.474,323.221 941.635,324.517 943.796,325.813 945.957,327.11 948.118,328.406 
  950.279,329.703 952.44,330.999 954.601,332.296 956.762,333.592 958.923,334.888 961.084,336.185 963.245,337.481 965.406,338.778 967.567,340.074 969.728,341.371 
  971.889,342.667 974.05,343.963 976.211,345.26 978.372,346.556 980.533,347.853 982.694,349.149 984.855,350.446 987.016,351.742 989.177,353.038 991.338,354.335 
  993.499,355.631 995.66,356.928 997.821,358.224 999.982,359.521 1002.14,360.817 1004.3,362.113 1006.46,363.41 1008.63,364.706 1010.79,366.003 1012.95,367.299 
  1015.11,368.596 1017.27,369.892 1019.43,371.188 1021.59,372.485 1023.75,373.781 1025.91,375.078 1028.07,376.374 1030.24,377.671 1032.4,378.967 1034.56,380.263 
  1036.72,381.56 1038.88,382.856 1041.04,384.153 1043.2,385.449 1045.36,386.745 1047.52,388.042 1049.68,389.338 1051.85,390.635 1054.01,391.931 1056.17,393.228 
  1058.33,394.524 1060.49,395.82 1062.65,397.117 1064.81,398.413 1066.97,399.71 1069.13,401.006 1071.29,402.303 1073.46,403.599 1075.62,404.895 1077.78,406.192 
  1079.94,407.488 1082.1,408.785 1084.26,410.081 1086.42,411.378 1088.58,412.674 1090.74,413.97 1092.9,415.267 1095.07,416.563 1097.23,417.86 1099.39,419.156 
  1101.55,420.453 1103.71,421.749 1105.87,423.045 1108.03,424.342 1110.19,425.638 1112.35,426.935 1114.51,428.231 1116.67,429.528 1118.84,430.824 1121,432.12 
  1123.16,433.417 1125.32,434.713 1127.48,436.01 1129.64,437.306 1131.8,438.603 1133.96,439.899 1136.12,441.195 1138.28,442.492 1140.45,443.788 1142.61,445.085 
  1144.77,446.381 1146.93,447.678 1149.09,448.974 1151.25,450.27 1153.41,451.567 1155.57,452.863 1157.73,454.16 1159.89,455.456 1162.06,456.753 1164.22,458.049 
  1166.38,459.345 1168.54,460.642 1170.7,461.938 1172.86,463.235 1175.02,464.531 1177.18,465.827 1179.34,467.124 1181.5,468.42 1183.67,469.717 1185.83,471.013 
  1187.99,472.31 1190.15,473.606 1192.31,474.902 1194.47,476.199 1196.63,477.495 1198.79,478.792 1200.95,480.088 1203.11,481.385 1205.28,482.681 1207.44,483.977 
  1209.6,485.274 1211.76,486.57 1213.92,487.867 1216.08,489.163 1218.24,490.46 1220.4,491.756 1222.56,493.052 1224.72,494.349 1226.88,495.645 1229.05,496.942 
  1231.21,498.238 1233.37,499.535 1235.53,500.831 1237.69,502.127 1239.85,503.424 1242.01,504.72 1244.17,506.017 1246.33,507.313 1248.49,508.61 1250.66,509.906 
  1252.82,511.202 1254.98,512.499 1257.14,513.795 1259.3,515.092 1261.46,516.388 1263.62,517.685 1265.78,518.981 1267.94,520.277 1270.1,521.574 1272.27,522.87 
  1274.43,524.167 1276.59,525.463 1278.75,526.76 1280.91,528.056 1283.07,529.352 1285.23,530.649 1287.39,531.945 1289.55,533.242 1291.71,534.538 1293.88,535.835 
  1296.04,537.131 1298.2,538.427 1300.36,539.724 1302.52,541.02 1304.68,542.317 1306.84,543.613 1309,544.91 1311.16,546.206 1313.32,547.502 1315.49,548.799 
  1317.65,550.095 1319.81,551.392 1321.97,552.688 1324.13,553.984 1326.29,555.281 1328.45,556.577 1330.61,557.874 1332.77,559.17 1334.93,560.467 1337.09,561.763 
  1339.26,563.059 1341.42,564.356 1343.58,565.652 1345.74,566.949 1347.9,568.245 1350.06,569.542 1352.22,570.838 1354.38,572.134 1356.54,573.431 1358.7,574.727 
  1360.87,576.024 1363.03,577.32 1365.19,578.617 1367.35,579.913 1369.51,581.209 1371.67,582.506 1373.83,583.802 1375.99,585.099 1378.15,586.395 1380.31,587.692 
  1382.48,588.988 1384.64,590.284 1386.8,591.581 1388.96,592.877 1391.12,594.174 1393.28,595.47 1395.44,596.767 1397.6,598.063 1399.76,599.359 1401.92,600.656 
  1404.09,601.952 1406.25,603.249 1408.41,604.545 1410.57,605.842 1412.73,607.138 1414.89,608.434 1417.05,609.731 1419.21,611.027 1421.37,612.324 1423.53,613.62 
  1425.7,614.917 1427.86,616.213 1430.02,617.509 1432.18,618.806 1434.34,620.102 1436.5,621.399 1438.66,622.695 1440.82,623.992 1442.98,625.288 1445.14,626.584 
  1447.3,627.881 1449.47,629.177 1451.63,630.474 1453.79,631.77 1455.95,633.066 1458.11,634.363 1460.27,635.659 1462.43,636.956 1464.59,638.252 1466.75,639.549 
  1468.91,640.845 1471.08,642.141 1473.24,643.438 1475.4,644.734 1477.56,646.031 1479.72,647.327 1481.88,648.624 1484.04,649.92 1486.2,651.216 1488.36,652.513 
  1490.52,653.809 1492.69,655.106 1494.85,656.402 1497.01,657.699 1499.17,658.995 1501.33,660.291 1503.49,661.588 1505.65,662.884 1507.81,664.181 1509.97,665.477 
  1512.13,666.774 1514.3,668.07 1516.46,669.366 1518.62,670.663 1520.78,671.959 1522.94,673.256 1525.1,674.552 1527.26,675.849 1529.42,677.145 1531.58,678.441 
  1533.74,679.738 1535.91,681.034 1538.07,682.331 1540.23,683.627 1542.39,684.924 1544.55,686.22 1546.71,687.516 1548.87,688.813 1551.03,690.109 1553.19,691.406 
  1555.35,692.702 1557.51,693.999 1559.68,695.295 1561.84,696.591 1564,697.888 1566.16,699.184 1568.32,700.481 1570.48,701.777 1572.64,703.074 1574.8,704.37 
  1576.96,705.666 1579.12,706.963 1581.29,708.259 1583.45,709.556 1585.61,710.852 1587.77,712.148 1589.93,713.445 1592.09,714.741 1594.25,716.038 1596.41,717.334 
  1598.57,718.631 1600.73,719.927 1602.9,721.223 1605.06,722.52 1607.22,723.816 1609.38,725.113 1611.54,726.409 1613.7,727.706 1615.86,729.002 1618.02,730.298 
  1620.18,731.595 1622.34,732.891 1624.51,734.188 1626.67,735.484 1628.83,736.781 1630.99,738.077 1633.15,739.373 1635.31,740.67 1637.47,741.966 1639.63,743.263 
  1641.79,744.559 1643.95,745.856 1646.12,747.152 1648.28,748.448 1650.44,749.745 1652.6,751.041 1654.76,752.338 1656.92,753.634 1659.08,754.931 1661.24,756.227 
  1663.4,757.523 1665.56,758.82 1667.72,760.116 1669.89,761.413 1672.05,762.709 1674.21,764.006 1676.37,765.302 1678.53,766.598 1680.69,767.895 1682.85,769.191 
  1685.01,770.488 1687.17,771.784 1689.33,773.081 1691.5,774.377 1693.66,775.673 1695.82,776.97 1697.98,778.266 1700.14,779.563 1702.3,780.859 1704.46,782.156 
  1706.62,783.452 1708.78,784.748 1710.94,786.045 1713.11,787.341 1715.27,788.638 1717.43,789.934 1719.59,791.231 1721.75,792.527 1723.91,793.823 1726.07,795.12 
  1728.23,796.416 1730.39,797.713 1732.55,799.009 1734.72,800.305 1736.88,801.602 1739.04,802.898 1741.2,804.195 1743.36,805.491 1745.52,806.788 1747.68,808.084 
  1749.84,809.38 1752,810.677 1754.16,811.973 1756.33,813.27 1758.49,814.566 1760.65,815.863 1762.81,817.159 1764.97,818.455 1767.13,819.752 1769.29,821.048 
  1771.45,822.345 1773.61,823.641 1775.77,824.938 1777.93,826.234 1780.1,827.53 1782.26,828.827 1784.42,830.123 1786.58,831.42 1788.74,832.716 1790.9,834.013 
  1793.06,835.309 1795.22,836.605 1797.38,837.902 1799.54,839.198 1801.71,840.495 1803.87,841.791 1806.03,843.088 1808.19,844.384 1810.35,845.68 1812.51,846.977 
  1814.67,848.273 1816.83,849.57 1818.99,850.866 1821.15,852.163 1823.32,853.459 1825.48,854.755 1827.64,856.052 1829.8,857.348 1831.96,858.645 1834.12,859.941 
  1836.28,861.238 1838.44,862.534 1840.6,863.83 1842.76,865.127 1844.93,866.423 1847.09,867.72 1849.25,869.016 1851.41,870.313 1853.57,871.609 1855.73,872.905 
  1857.89,874.202 1860.05,875.498 1862.21,876.795 1864.37,878.091 1866.54,879.387 1868.7,880.684 1870.86,881.98 1873.02,883.277 1875.18,884.573 1877.34,885.87 
  1879.5,887.166 1881.66,888.462 1883.82,889.759 1885.98,891.055 1888.15,892.352 1890.31,893.648 1892.47,894.945 1894.63,896.241 1896.79,897.537 1898.95,898.834 
  1901.11,900.13 1903.27,901.427 1905.43,902.723 1907.59,904.02 1909.75,905.316 1911.92,906.612 1914.08,907.909 1916.24,909.205 1918.4,910.502 1920.56,911.798 
  1922.72,913.095 1924.88,914.391 1927.04,915.687 1929.2,916.984 1931.36,918.28 1933.53,919.577 1935.69,920.873 1937.85,922.17 1940.01,923.466 1942.17,924.762 
  1944.33,926.059 1946.49,927.355 1948.65,928.652 1950.81,929.948 1952.97,931.245 1955.14,932.541 1957.3,933.837 1959.46,935.134 1961.62,936.43 1963.78,937.727 
  1965.94,939.023 1968.1,940.32 1970.26,941.616 1972.42,942.912 1974.58,944.209 1976.75,945.505 1978.91,946.802 1981.07,948.098 1983.23,949.395 1985.39,950.691 
  1987.55,951.987 1989.71,953.284 1991.87,954.58 1994.03,955.877 1996.19,957.173 1998.36,958.469 2000.52,959.766 2002.68,961.062 2004.84,962.359 2007,963.655 
  2009.16,964.952 2011.32,966.248 2013.48,967.544 2015.64,968.841 2017.8,970.137 2019.96,971.434 2022.13,972.73 2024.29,974.027 2026.45,975.323 2028.61,976.619 
  2030.77,977.916 2032.93,979.212 2035.09,980.509 2037.25,981.805 2039.41,983.102 2041.57,984.398 2043.74,985.694 2045.9,986.991 2048.06,988.287 2050.22,989.584 
  2052.38,990.88 2054.54,992.177 2056.7,993.473 2058.86,994.769 2061.02,996.066 2063.18,997.362 2065.35,998.659 2067.51,999.955 2069.67,1001.25 2071.83,1002.55 
  2073.99,1003.84 2076.15,1005.14 2078.31,1006.44 2080.47,1007.73 2082.63,1009.03 2084.79,1010.33 2086.96,1011.62 2089.12,1012.92 2091.28,1014.22 2093.44,1015.51 
  2095.6,1016.81 2097.76,1018.11 2099.92,1019.4 2102.08,1020.7 2104.24,1021.99 2106.4,1023.29 2108.57,1024.59 2110.73,1025.88 2112.89,1027.18 2115.05,1028.48 
  2117.21,1029.77 2119.37,1031.07 2121.53,1032.37 2123.69,1033.66 2125.85,1034.96 2128.01,1036.26 2130.17,1037.55 2132.34,1038.85 2134.5,1040.14 2136.66,1041.44 
  2138.82,1042.74 2140.98,1044.03 2143.14,1045.33 2145.3,1046.63 2147.46,1047.92 2149.62,1049.22 2151.78,1050.52 2153.95,1051.81 2156.11,1053.11 2158.27,1054.41 
  2160.43,1055.7 2162.59,1057 2164.75,1058.29 2166.91,1059.59 2169.07,1060.89 2171.23,1062.18 2173.39,1063.48 2175.56,1064.78 2177.72,1066.07 2179.88,1067.37 
  2182.04,1068.67 2184.2,1069.96 2186.36,1071.26 2188.52,1072.56 2190.68,1073.85 2192.84,1075.15 2195,1076.44 2197.17,1077.74 2199.33,1079.04 2201.49,1080.33 
  2203.65,1081.63 2205.81,1082.93 2207.97,1084.22 2210.13,1085.52 2212.29,1086.82 2214.45,1088.11 2216.61,1089.41 2218.78,1090.7 2220.94,1092 2223.1,1093.3 
  2225.26,1094.59 2227.42,1095.89 2229.58,1097.19 2231.74,1098.48 2233.9,1099.78 2236.06,1101.08 2238.22,1102.37 2240.38,1103.67 2242.55,1104.97 2244.71,1106.26 
  2246.87,1107.56 2249.03,1108.85 2251.19,1110.15 2253.35,1111.45 2255.51,1112.74 2257.67,1114.04 2259.83,1115.34 2261.99,1116.63 2264.16,1117.93 2266.32,1119.23 
  2268.48,1120.52 2270.64,1121.82 2272.8,1123.12 2274.96,1124.41 2277.12,1125.71 2279.28,1127 2281.44,1128.3 2283.6,1129.6 2285.77,1130.89 2287.93,1132.19 
  2290.09,1133.49 2292.25,1134.78 2294.41,1136.08 2296.57,1137.38 2298.73,1138.67 2300.89,1139.97 2303.05,1141.27 2305.21,1142.56 2307.38,1143.86 2309.54,1145.15 
  2311.7,1146.45 2313.86,1147.75 2316.02,1149.04 2318.18,1150.34 2320.34,1151.64 2322.5,1152.93 2324.66,1154.23 2326.82,1155.53 2328.99,1156.82 2331.15,1158.12 
  2333.31,1159.42 2335.47,1160.71 2337.63,1162.01 2339.79,1163.3 2341.95,1164.6 2344.11,1165.9 2346.27,1167.19 2348.43,1168.49 2350.59,1169.79 2352.76,1171.08 
  
  "/>
<circle clip-path="url(#clip652)" cx="625.7" cy="153.149" r="14" fill="#000000" fill-rule="evenodd" fill-opacity="1" stroke="none"/>
<circle clip-path="url(#clip652)" cx="841.582" cy="500.746" r="14" fill="#000000" fill-rule="evenodd" fill-opacity="1" stroke="none"/>
<circle clip-path="url(#clip652)" cx="1057.46" cy="321.145" r="14" fill="#000000" fill-rule="evenodd" fill-opacity="1" stroke="none"/>
<circle clip-path="url(#clip652)" cx="1273.35" cy="487.603" r="14" fill="#000000" fill-rule="evenodd" fill-opacity="1" stroke="none"/>
<circle clip-path="url(#clip652)" cx="1489.23" cy="570.523" r="14" fill="#000000" fill-rule="evenodd" fill-opacity="1" stroke="none"/>
<circle clip-path="url(#clip652)" cx="1705.11" cy="887.68" r="14" fill="#000000" fill-rule="evenodd" fill-opacity="1" stroke="none"/>
<circle clip-path="url(#clip652)" cx="1920.99" cy="907.312" r="14" fill="#000000" fill-rule="evenodd" fill-opacity="1" stroke="none"/>
<circle clip-path="url(#clip652)" cx="2136.87" cy="1045.13" r="14" fill="#000000" fill-rule="evenodd" fill-opacity="1" stroke="none"/>
<circle clip-path="url(#clip652)" cx="2352.76" cy="1186.09" r="14" fill="#000000" fill-rule="evenodd" fill-opacity="1" stroke="none"/>
</svg>
